<svg  viewBox="0 0 24 24"  xmlns="http://www.w3.org/2000/svg">
<path d="M18.707 12L20.8535 9.85347C21.0488 9.65816 21.0488 9.34175 20.8535 9.14644C20.6582 8.95113 20.3418 8.95113 20.1465 9.14644L18 11.2929L15.8535 9.14644C15.6582 8.95113 15.3418 8.95113 15.1465 9.14644C14.9512 9.34175 14.9512 9.65816 15.1465 9.85347L17.293 12L15.1465 14.1464C14.9512 14.3418 14.9512 14.6582 15.1465 14.8535C15.2441 14.9511 15.3721 15 15.5 15C15.6279 15 15.7559 14.9511 15.8535 14.8535L18 12.707L20.1465 14.8535C20.2441 14.9511 20.3721 15 20.5 15C20.6279 15 20.7559 14.9511 20.8535 14.8535C21.0488 14.6582 21.0488 14.3418 20.8535 14.1464L18.707 12ZM12.7363 4.05904C12.5742 3.97164 12.377 3.98238 12.2227 4.08394L6.34863 7.99996H3.5C3.22363 7.99996 3 8.22359 3 8.49996V15.5C3 15.7763 3.22363 16 3.5 16H6.34863L12.2227 19.916C12.3066 19.9716 12.4033 20 12.5 20C12.5811 20 12.6621 19.9804 12.7363 19.9409C12.8984 19.854 13 19.6845 13 19.5V4.49996C13 4.31539 12.8984 4.14595 12.7363 4.05904ZM6 15H4V8.99996H6V15ZM12 18.5659L7 15.2324V8.76754L12 5.43404V18.5659Z" "/>
</svg>
