<svg  viewBox="0 0 24 24"  xmlns="http://www.w3.org/2000/svg">
<path d="M17.1456 6.32422C16.8765 6.24182 16.221 6.06384 15.5772 6.02698C15.6585 5.9491 15.7339 5.86438 15.8008 5.77051C16.3067 5.06445 16.0626 3.48926 15.9756 3.02295C15.9278 2.76172 15.6788 2.57813 15.42 2.61914C14.9769 2.67639 13.5543 2.91321 12.98 3.54944C12.6258 2.93213 12.0623 2.3573 11.836 2.14014C11.6426 1.95557 11.3379 1.95654 11.1446 2.14014C10.9244 2.3512 10.3848 2.90027 10.0296 3.49768C9.45049 2.86853 8.04034 2.63367 7.59966 2.57666C7.33892 2.5376 7.09185 2.71973 7.044 2.98047C6.95708 3.44678 6.71294 5.02197 7.21783 5.72754C7.29595 5.83728 7.38653 5.93359 7.48418 6.02124C6.82159 6.04981 6.13238 6.23938 5.85455 6.32422C5.60259 6.40088 5.45318 6.65918 5.51275 6.91553C5.62017 7.37744 6.02935 8.91895 6.77642 9.35645C7.05376 9.51904 7.36138 9.60205 7.67388 9.60205C7.8272 9.60205 7.98248 9.58203 8.13482 9.54102C8.47393 9.45081 8.76983 9.26477 9.00005 9.00903V17.9066C8.37603 18.3374 7.99517 18.936 7.99517 19.6074C7.99517 20.9497 9.51861 22.0015 11.4639 22.0015C13.4092 22.0015 14.9327 20.9497 14.9327 19.6074C14.9327 18.965 14.577 18.3932 14.0001 17.9674V9.0083C14.2298 9.26392 14.5257 9.45007 14.8643 9.54102C15.0176 9.58203 15.1729 9.60205 15.3272 9.60205C15.6397 9.60205 15.9473 9.51904 16.2247 9.35645C16.9708 8.91846 17.3799 7.37744 17.4874 6.91553C17.5469 6.65918 17.3975 6.40088 17.1456 6.32422ZM13.5137 5.91455C13.6495 6.54004 13.709 7.20117 13.5919 7.40772C13.4844 7.59668 13.3116 7.73096 13.1055 7.78613C12.9053 7.84229 12.6924 7.81201 12.5098 7.70508C12.126 7.47949 11.9942 6.97754 12.2169 6.58594C12.3331 6.38184 12.919 6.10693 13.5137 5.91455ZM13.0001 8.80042V17.4624C12.6919 17.3591 12.3602 17.2867 12.0059 17.2495V8.56824C12.2828 8.7301 12.5897 8.81348 12.9014 8.81348C12.9344 8.81348 12.9671 8.80225 13.0001 8.80042ZM11.4903 3.22168C11.9131 3.69238 12.2862 4.23096 12.2862 4.46826C12.2862 4.91797 11.9288 5.28418 11.4903 5.28418C11.0518 5.28418 10.6954 4.91797 10.6954 4.46826C10.6954 4.23096 11.0684 3.69238 11.4903 3.22168ZM11.0059 8.52942V17.2438C10.6497 17.2753 10.3116 17.3375 10.0001 17.4357V8.75525C10.0394 8.75794 10.0789 8.771 10.1182 8.771C10.4271 8.771 10.7308 8.68799 11.0059 8.52942ZM10.8028 6.54297C11.0254 6.93506 10.8946 7.4375 10.5098 7.6626C10.3282 7.76953 10.1163 7.79932 9.91412 7.74365C9.70806 7.68848 9.53521 7.5542 9.42779 7.36572C9.3106 7.15918 9.37017 6.49756 9.50591 5.87207C10.1006 6.06445 10.6866 6.33936 10.8028 6.54297ZM8.36431 8.1958C8.25689 8.38525 8.08306 8.52002 7.87701 8.5752C7.67388 8.62988 7.46294 8.6001 7.28228 8.49365C7.07915 8.37549 6.80572 7.76953 6.61529 7.15772C7.22857 7.02148 7.87408 6.96191 8.07134 7.07715C8.45513 7.30273 8.58697 7.80469 8.36431 8.1958ZM8.66802 5.10938C8.64336 5.19324 8.60845 5.32288 8.57232 5.46899C8.56524 5.4679 8.55889 5.47095 8.55181 5.46973C8.34185 5.43652 8.15728 5.32178 8.0313 5.146C7.89361 4.95313 7.88482 4.28809 7.95513 3.65088C8.56646 3.77881 9.17779 3.98975 9.31353 4.18066C9.44903 4.37048 9.48931 4.59863 9.45049 4.81238C9.3792 4.79358 9.3128 4.77649 9.26373 4.76465C9.00298 4.70166 8.74322 4.85449 8.66802 5.10938ZM11.4639 21.0015C10.1485 21.0015 8.99517 20.3501 8.99517 19.6074C8.99517 18.8647 10.1485 18.2129 11.4639 18.2129C12.7794 18.2129 13.9327 18.8647 13.9327 19.6074C13.9327 20.3501 12.7794 21.0015 11.4639 21.0015ZM14.4473 5.51135C14.4109 5.36523 14.3763 5.23572 14.3516 5.15186C14.2754 4.89697 14.0147 4.74365 13.7559 4.80713C13.7068 4.81897 13.6402 4.83606 13.5691 4.85498C13.5301 4.64124 13.5701 4.41296 13.7051 4.22314C13.8419 4.0332 14.4522 3.82178 15.0645 3.69385C15.1348 4.33105 15.126 4.99609 14.9874 5.18897C14.8624 5.36426 14.6778 5.479 14.4678 5.51221C14.4607 5.51331 14.4542 5.51038 14.4473 5.51135ZM15.7188 8.49414C15.5372 8.60059 15.3282 8.62891 15.1231 8.5752C14.917 8.51953 14.7442 8.38525 14.6368 8.19629C14.5438 8.03259 14.5257 7.8512 14.5489 7.67737C14.5701 7.61292 14.5887 7.547 14.6023 7.47656C14.6678 7.31604 14.7708 7.17029 14.9297 7.07715C15.003 7.03418 15.1368 7.01514 15.3067 7.01514C15.5997 7.01514 15.9991 7.07129 16.3848 7.15772C16.1944 7.76953 15.921 8.37549 15.7188 8.49414Z" />
</svg>
