<svg  viewBox="0 0 24 24"  xmlns="http://www.w3.org/2000/svg">
<path d="M21.4994 3.06C21.6319 3.06005 21.7589 3.11265 21.8526 3.20625C21.9464 3.2999 21.999 3.42625 21.9989 3.55875L21.9974 13.5592C21.9974 13.6919 21.9447 13.8192 21.8509 13.913C21.7571 14.0068 21.6298 14.0595 21.4971 14.0595H13.8171V13.0597H20.9976L20.9991 4.05975H9.99589V5.57025H8.99614V3.56025C8.99614 3.42757 9.04884 3.30033 9.14266 3.20652C9.23647 3.1127 9.36371 3.06 9.49639 3.06H21.4994Z" />
<path d="M15.6029 10.6867C15.7356 10.6867 15.8691 10.6342 15.9674 10.5292L19.2771 7.01175C19.4524 6.80888 19.4366 6.5039 19.2413 6.32025C19.046 6.1366 18.7406 6.13957 18.5489 6.327L15.5766 9.486L14.1876 8.21775C13.9827 8.03992 13.6733 8.05795 13.4903 8.25839C13.3074 8.45883 13.3176 8.76857 13.5134 8.9565L15.2661 10.557C15.3583 10.6413 15.4788 10.6879 15.6036 10.6875L15.6029 10.6867Z" />
<path fill-rule="evenodd" clip-rule="evenodd" d="M11.7111 16.533V15.5933C11.9939 15.165 12.1994 14.631 12.3134 13.9972C12.4544 13.9245 12.6044 13.7872 12.7401 13.5435C12.8729 13.3035 12.9779 12.9825 13.0364 12.6405C13.0934 12.3022 13.1001 11.9212 13.0551 11.5957C13.0184 11.3302 12.9479 11.1217 12.8444 10.9725C12.8676 9.5775 12.5369 8.51475 11.8619 7.8105C11.2701 7.194 10.4444 6.88125 9.40789 6.88125C8.37139 6.88125 7.54564 7.194 6.95389 7.8105C6.27814 8.514 5.94814 9.5775 5.97064 10.9725C5.86714 11.1217 5.79664 11.3302 5.75989 11.5957C5.71489 11.9212 5.72164 12.3015 5.77864 12.6405C5.83639 12.9832 5.94139 13.3035 6.07489 13.5435C6.21364 13.7933 6.36739 13.9305 6.51139 14.0025C6.63214 14.586 6.83389 15.0885 7.10314 15.501V16.533C5.32414 16.7145 2.49514 17.6423 2.10289 18.9998C1.91914 19.6635 2.03464 20.436 2.04889 20.5215C2.10613 20.7804 2.35514 20.9498 2.61696 20.9081C2.87878 20.8663 3.06275 20.6278 3.03664 20.364C3.00889 20.1893 2.96089 19.6508 3.06589 19.272C3.22714 18.7148 4.70839 18.0158 6.19189 17.6873C6.72214 19.1385 7.99189 20.1195 9.41164 20.1195C10.8284 20.1195 12.1004 19.1378 12.6314 17.688C14.1134 18.0165 15.5916 18.714 15.7514 19.266C15.8579 19.65 15.8091 20.1878 15.7821 20.3633C15.7386 20.6358 15.9243 20.892 16.1969 20.9355C16.4694 20.979 16.7256 20.7933 16.7691 20.5208C16.7834 20.4353 16.8989 19.6628 16.7136 18.993C16.3229 17.6407 13.4939 16.713 11.7149 16.5323L11.7111 16.533ZM6.76339 12.474C6.79271 12.6644 6.84876 12.8497 6.92989 13.0245L6.92689 13.0252C7.17532 13.0219 7.3883 13.202 7.42639 13.4475L7.43164 13.4843C7.52989 14.178 7.92289 15.792 9.45214 15.792C10.0694 15.792 10.4946 15.5363 10.7879 15.1613C10.795 15.15 10.8035 15.1392 10.812 15.1285L10.8186 15.12C11.1516 14.6715 11.3069 14.0662 11.3729 13.5157L11.3819 13.4482C11.4203 13.2025 11.6334 13.0223 11.8821 13.0252C11.9636 12.8506 12.0197 12.6652 12.0486 12.4747C12.1094 12.1147 12.0786 11.76 12.0389 11.6017C11.9481 11.5305 11.8799 11.4292 11.8506 11.313C11.8396 11.2669 11.8348 11.2194 11.8364 11.172L11.8379 11.1427C11.8874 9.92625 11.6526 9.03825 11.1389 8.5035C10.7429 8.091 10.1601 7.88175 9.40639 7.88175C8.65264 7.88175 8.06989 8.091 7.67389 8.5035C7.16089 9.03825 6.92539 9.92625 6.97489 11.1427L6.97639 11.172C6.97954 11.3389 6.90431 11.4977 6.77314 11.601C6.73339 11.7592 6.70264 12.1147 6.76339 12.474ZM9.40864 19.1198C8.47114 19.1198 7.61989 18.4853 7.20064 17.5268C7.34089 17.514 7.47889 17.5043 7.61164 17.5013C7.88381 17.4955 8.10145 17.2732 8.10139 17.001V16.4528C8.516 16.6795 8.98187 16.7959 9.45439 16.791C9.92164 16.791 10.3424 16.6935 10.7106 16.5068V17.001C10.7106 17.2733 10.9281 17.4953 11.2004 17.5013C11.3346 17.5043 11.4741 17.514 11.6159 17.5268C11.1959 18.4845 10.3431 19.119 9.40789 19.119L9.40864 19.1198Z" />
</svg>
