<svg  viewBox="0 0 24 24"  xmlns="http://www.w3.org/2000/svg">
<path d="M7.029 10.2903C7.029 10.014 7.25297 9.79001 7.52925 9.79001H13.0298C13.306 9.79001 13.53 10.014 13.53 10.2903C13.53 10.5665 13.306 10.7905 13.0298 10.7905H7.52925C7.25297 10.7905 7.029 10.5665 7.029 10.2903Z" "/>
<path fill-rule="evenodd" clip-rule="evenodd" d="M20.1053 19.3983L15.2565 14.5105C16.26 13.3332 16.8108 11.8365 16.8098 10.2895C16.8098 6.68876 13.8803 3.76001 10.2795 3.76001C6.67875 3.76001 3.75 6.68951 3.75 10.2895C3.75 13.8903 6.67875 16.819 10.2795 16.819C11.8503 16.82 13.3683 16.2523 14.553 15.2208L19.3958 20.1018C19.5924 20.2844 19.8982 20.2794 20.0886 20.0903C20.2791 19.9012 20.2865 19.5963 20.1053 19.3983ZM4.74975 10.2903C4.74975 7.24151 7.23 4.76051 10.2788 4.76051C13.3275 4.76051 15.8093 7.24151 15.8093 10.2903C15.8093 13.339 13.3283 15.82 10.2788 15.82C7.22925 15.82 4.74975 13.339 4.74975 10.2903Z" "/>
</svg>
