<svg  viewBox="0 0 24 24"  xmlns="http://www.w3.org/2000/svg">
<path d="M5.49951 8.12793C5.84469 8.12793 6.12451 7.84811 6.12451 7.50293C6.12451 7.15775 5.84469 6.87793 5.49951 6.87793C5.15433 6.87793 4.87451 7.15775 4.87451 7.50293C4.87451 7.84811 5.15433 8.12793 5.49951 8.12793Z" "/>
<path d="M8.49957 8.12793C8.84475 8.12793 9.12457 7.84811 9.12457 7.50293C9.12457 7.15775 8.84475 6.87793 8.49957 6.87793C8.15439 6.87793 7.87457 7.15775 7.87457 7.50293C7.87457 7.84811 8.15439 8.12793 8.49957 8.12793Z" "/>
<path d="M15.1246 7.50293C15.1246 7.84811 14.8448 8.12793 14.4996 8.12793C14.1544 8.12793 13.8746 7.84811 13.8746 7.50293C13.8746 7.15775 14.1544 6.87793 14.4996 6.87793C14.8448 6.87793 15.1246 7.15775 15.1246 7.50293Z" "/>
<path d="M11.4996 8.12793C11.8448 8.12793 12.1246 7.84811 12.1246 7.50293C12.1246 7.15775 11.8448 6.87793 11.4996 6.87793C11.1544 6.87793 10.8746 7.15775 10.8746 7.50293C10.8746 7.84811 11.1544 8.12793 11.4996 8.12793Z" "/>
<path d="M9.12457 10.5054C9.12457 10.8505 8.84475 11.1304 8.49957 11.1304C8.15439 11.1304 7.87457 10.8505 7.87457 10.5054C7.87457 10.1602 8.15439 9.88037 8.49957 9.88037C8.84475 9.88037 9.12457 10.1602 9.12457 10.5054Z" "/>
<path d="M11.4951 11.1304C11.8403 11.1304 12.1201 10.8505 12.1201 10.5054C12.1201 10.1602 11.8403 9.88037 11.4951 9.88037C11.1499 9.88037 10.8701 10.1602 10.8701 10.5054C10.8701 10.8505 11.1499 11.1304 11.4951 11.1304Z" "/>
<path d="M6.12457 10.5054C6.12457 10.8505 5.84475 11.1304 5.49957 11.1304C5.15439 11.1304 4.87457 10.8505 4.87457 10.5054C4.87457 10.1602 5.15439 9.88037 5.49957 9.88037C5.84475 9.88037 6.12457 10.1602 6.12457 10.5054Z" "/>
<path d="M8.49957 14.1206C8.84475 14.1206 9.12457 13.8408 9.12457 13.4956C9.12457 13.1504 8.84475 12.8706 8.49957 12.8706C8.15439 12.8706 7.87457 13.1504 7.87457 13.4956C7.87457 13.8408 8.15439 14.1206 8.49957 14.1206Z" "/>
<path d="M6.12457 13.4956C6.12457 13.8408 5.84475 14.1206 5.49957 14.1206C5.15439 14.1206 4.87457 13.8408 4.87457 13.4956C4.87457 13.1504 5.15439 12.8706 5.49957 12.8706C5.84475 12.8706 6.12457 13.1504 6.12457 13.4956Z" "/>
<path d="M14.2148 10.6582C14.1582 10.3877 14.3311 10.123 14.6016 10.0664C14.875 10.0049 15.1377 10.1826 15.1934 10.4531L15.3936 11.4111C15.4502 11.6816 15.2773 11.9463 15.0068 12.0029C14.9717 12.0107 14.9375 12.0137 14.9033 12.0137C14.6719 12.0137 14.4639 11.8516 14.415 11.6162L14.2148 10.6582Z" "/>
<path d="M11.9227 13.4932L11.0565 13.0372C10.8134 12.9092 10.5097 13.002 10.3812 13.2462C10.2523 13.4913 10.3466 13.793 10.5907 13.9219L11.4569 14.378C11.5311 14.417 11.6107 14.4356 11.6893 14.4356C11.869 14.4356 12.0429 14.3389 12.1322 14.169C12.2611 13.9239 12.1669 13.6221 11.9227 13.4932Z" "/>
<path fill-rule="evenodd" clip-rule="evenodd" d="M18.9951 16.8965C19.1973 16.0605 19.0625 15.1963 18.6152 14.4629C18.4457 14.1852 18.2314 13.954 18 13.748V3.5C18 3.22363 17.7764 3 17.5 3H14V2.5C14 2.22363 13.7764 2 13.5 2C13.2236 2 13 2.22363 13 2.5V3H10.4995V2.5C10.4995 2.22363 10.2759 2 9.99951 2C9.72314 2 9.49951 2.22363 9.49951 2.5V3H6.99951V2.5C6.99951 2.22363 6.77588 2 6.49951 2C6.22314 2 5.99951 2.22363 5.99951 2.5V3H2.49951C2.22314 3 1.99951 3.22363 1.99951 3.5V16.5C1.99951 16.7764 2.22314 17 2.49951 17H12.7835C12.8611 17.2784 12.9633 17.5529 13.1211 17.8115C13.7256 18.8057 14.7871 19.3545 15.873 19.3545C16.4434 19.3545 17.0205 19.2031 17.542 18.8848C18.2764 18.4375 18.792 17.7314 18.9951 16.8965ZM12.6557 16H2.99951V4H5.99951V4.5C5.99951 4.77637 6.22314 5 6.49951 5C6.77588 5 6.99951 4.77637 6.99951 4.5V4H9.49951V4.5C9.49951 4.77637 9.72314 5 9.99951 5C10.2759 5 10.4995 4.77637 10.4995 4.5V4H13V4.5C13 4.77637 13.2236 5 13.5 5C13.7764 5 14 4.77637 14 4.5V4H17V13.1411C16.1044 12.8033 15.0725 12.8527 14.1934 13.3896C13.2439 13.9688 12.7015 14.9646 12.6557 16ZM17.0557 18.0859C16.5342 18.4033 15.9219 18.499 15.3301 18.3545C14.7383 18.2109 14.2373 17.8447 13.9199 17.3252C13.2656 16.251 13.6074 14.8438 14.6807 14.1885C15.0508 13.9639 15.46 13.8564 15.8643 13.8564C16.6338 13.8564 17.3867 14.2451 17.8164 14.9502C18.1328 15.4707 18.2285 16.083 18.085 16.6758C17.9414 17.2676 17.5752 17.7686 17.0557 18.0859Z" "/>
<path d="M10.4888 18.0938L11.3765 17.6797C11.627 17.5616 11.9248 17.6709 12.041 17.9219C12.1577 18.1719 12.0493 18.4688 11.7993 18.586L10.9116 19C10.8433 19.0323 10.7715 19.0469 10.7007 19.0469C10.5122 19.0469 10.332 18.9405 10.2471 18.7579C10.1304 18.5079 10.2388 18.211 10.4888 18.0938Z" "/>
<path d="M14.4326 20.1095C14.1758 20.0167 13.8867 20.1485 13.793 20.4093L13.46 21.3302C13.3652 21.5899 13.5 21.8761 13.7598 21.9698C13.8154 21.9903 13.873 22.0001 13.9297 22.0001C14.1338 22.0001 14.3262 21.8741 14.3994 21.67L14.7324 20.7491C14.8271 20.4894 14.6924 20.2032 14.4326 20.1095Z" "/>
<path d="M18.0156 19.7735C18.25 19.6339 18.5586 19.711 18.7002 19.9503L19.1982 20.794C19.3389 21.0313 19.2598 21.338 19.0215 21.4786C18.9424 21.5255 18.8545 21.5479 18.7676 21.5479C18.5967 21.5479 18.4307 21.46 18.3369 21.3018L17.8389 20.4581C17.6982 20.2208 17.7773 19.9141 18.0156 19.7735Z" "/>
<path d="M21.5781 16.5362L20.6104 16.3829C20.3428 16.3399 20.0811 16.5255 20.0381 16.7989C19.9951 17.0714 20.1816 17.3272 20.4541 17.3712L21.4219 17.5245C21.4482 17.5284 21.4746 17.5304 21.501 17.5304C21.7422 17.5304 21.9551 17.3546 21.9941 17.1085C22.0371 16.836 21.8506 16.5802 21.5781 16.5362Z" "/>
<path d="M19.8126 11.9902C20.0216 11.8066 20.3361 11.8281 20.5187 12.0341C20.7013 12.2421 20.6818 12.5575 20.4747 12.7402L19.7403 13.3876C19.6446 13.4716 19.5265 13.5126 19.4093 13.5126C19.2706 13.5126 19.1329 13.455 19.0343 13.3437C18.8517 13.1357 18.8712 12.8202 19.0782 12.6376L19.8126 11.9902Z" "/>
</svg>
