<svg  viewBox="0 0 24 24"  xmlns="http://www.w3.org/2000/svg">
<path fill-rule="evenodd" clip-rule="evenodd" d="M11.9963 16.3662C14.202 16.3662 15.996 14.6862 15.996 12.6222V6.82699C15.996 4.74724 14.1638 2.98999 11.9963 2.98999C9.82875 2.98999 7.9965 4.74724 7.9965 6.82699V12.6222C7.9965 14.687 9.7905 16.3662 11.9963 16.3662ZM8.997 6.82699C8.997 5.28949 10.3703 3.98974 11.9963 3.98974C13.6223 3.98974 14.9955 5.28874 14.9955 6.82699V12.6222C14.9955 14.135 13.65 15.3665 11.9963 15.3665C10.3425 15.3665 8.997 14.135 8.997 12.6222V6.82699Z" "/>
<path d="M17.1488 10.8238C17.2423 10.7303 17.3691 10.6777 17.5013 10.6775C17.7775 10.6775 18.0015 10.9015 18.0015 11.1777V12.6747C18.0015 15.7385 15.582 18.257 12.5123 18.512V20.009H15.1898C15.466 20.009 15.69 20.233 15.69 20.5092C15.69 20.7855 15.466 21.0095 15.1898 21.0095H8.82675C8.55047 21.0095 8.3265 20.7855 8.3265 20.5092C8.3265 20.233 8.55047 20.009 8.82675 20.009H11.5125V18.5135C8.4315 18.269 6 15.7467 6 12.6747V11.1777C6 10.9015 6.22397 10.6775 6.50025 10.6775C6.77653 10.6775 7.0005 10.9015 7.0005 11.1777V12.6747C7.0005 15.356 9.24375 17.5377 12.0015 17.5377C14.7593 17.5377 17.0025 15.356 17.0025 12.6747V11.1777C17.0023 11.045 17.0549 10.9177 17.1488 10.8238Z" "/>
</svg>
