<svg  viewBox="0 0 24 24"  xmlns="http://www.w3.org/2000/svg">
<path d="M21.5 2H11.5C11.2236 2 11 2.22363 11 2.5V7C11 7.27637 11.2236 7.5 11.5 7.5C11.7764 7.5 12 7.27637 12 7V3H21V14H14.25C13.9736 14 13.75 14.2236 13.75 14.5C13.75 14.7764 13.9736 15 14.25 15H16V17.5713C16 17.8477 16.2236 18.0713 16.5 18.0713C16.7764 18.0713 17 17.8477 17 17.5713V15H18.4578L20.5645 18.7451C20.6562 18.9082 20.8252 19 21 19C21.083 19 21.168 18.9795 21.2451 18.9355C21.4854 18.8008 21.5713 18.4951 21.4355 18.2549L19.6047 15H21.5C21.7764 15 22 14.7764 22 14.5V2.5C22 2.22363 21.7764 2 21.5 2Z" "/>
<path d="M18.75 4C19.0264 4 19.25 4.22363 19.25 4.5C19.25 4.77637 19.0264 5 18.75 5H14.25C13.9736 5 13.75 4.77637 13.75 4.5C13.75 4.22363 13.9736 4 14.25 4H18.75Z" "/>
<path d="M14 11.5V9C14 8.72363 14.2236 8.5 14.5 8.5C14.7764 8.5 15 8.72363 15 9V11.5C15 11.7764 14.7764 12 14.5 12C14.2236 12 14 11.7764 14 11.5Z" "/>
<path d="M16 7.86328V11.5C16 11.7764 16.2236 12 16.5 12C16.7764 12 17 11.7764 17 11.5V7.86328C17 7.58691 16.7764 7.36328 16.5 7.36328C16.2236 7.36328 16 7.58691 16 7.86328Z" "/>
<path d="M18.5 12C18.2236 12 18 11.7764 18 11.5V6.5C18 6.22363 18.2236 6 18.5 6C18.7764 6 19 6.22363 19 6.5V11.5C19 11.7764 18.7764 12 18.5 12Z" "/>
<path fill-rule="evenodd" clip-rule="evenodd" d="M11.5967 16.6458V17.5801C13.3545 17.7607 16.1416 18.6768 16.5293 20.0127C16.7119 20.6748 16.5967 21.4375 16.583 21.5225C16.5439 21.7686 16.332 21.9434 16.0908 21.9434C16.0645 21.9434 16.0381 21.9414 16.0117 21.9365C15.7393 21.8936 15.5527 21.6367 15.5957 21.3643C15.623 21.1924 15.6709 20.6621 15.5664 20.2842C15.42 19.7787 13.9975 19.0621 12.4918 18.7305C11.9654 20.1606 10.7156 21.1318 9.31739 21.1318C7.91657 21.1318 6.66931 20.1609 6.1435 18.73C4.63648 19.0614 3.21149 19.7797 3.06348 20.29C2.94101 20.7317 3.0309 21.3419 3.0341 21.3637C3.07805 21.6362 2.89356 21.8936 2.62012 21.9365C2.59375 21.9414 2.56641 21.9434 2.54004 21.9434C2.29883 21.9434 2.08692 21.7686 2.04785 21.5225C2.03418 21.4375 1.91895 20.6748 2.10157 20.0176C2.48926 18.6768 5.27735 17.7607 7.03516 17.5801V16.6541C6.75763 16.232 6.55341 15.7098 6.44043 15.0869C6.41016 15.0713 6.38086 15.0527 6.35157 15.0322C5.93457 14.7354 5.77735 14.0342 5.72852 13.7461C5.65332 13.2998 5.6416 12.4951 5.917 12.1006C5.90039 11.3838 5.95215 9.95117 6.88965 8.97559C7.47461 8.36621 8.29102 8.05664 9.31543 8.05664C10.3398 8.05664 11.1563 8.36621 11.7422 8.97559C12.4092 9.6709 12.7363 10.7207 12.7139 12.0977C12.8154 12.2461 12.8848 12.4521 12.9219 12.7139C12.9658 13.0352 12.959 13.4111 12.9033 13.7461C12.7852 14.4424 12.5254 14.917 12.1875 15.0928C12.0728 15.7108 11.8697 16.2272 11.5967 16.6458ZM6.87696 14.1182C6.91602 14.1182 6.95606 14.123 6.99512 14.1328C7.19141 14.1807 7.33887 14.3408 7.3711 14.54C7.50391 15.6309 7.93164 16.8486 9.26758 16.8486C9.27702 16.8486 9.28565 16.8511 9.29429 16.8536C9.30119 16.8556 9.30809 16.8575 9.31543 16.8583C9.32277 16.8575 9.32968 16.8556 9.33657 16.8536C9.34522 16.8511 9.35385 16.8486 9.36328 16.8486C10.6992 16.8486 11.127 15.6309 11.251 14.6094C11.2754 14.4072 11.4229 14.2148 11.6191 14.1611C11.6602 14.1504 11.7022 14.1436 11.7432 14.1406C11.7988 14.0352 11.8721 13.8438 11.917 13.5791C11.9766 13.2285 11.9473 12.8799 11.9082 12.7236C11.8184 12.6523 11.75 12.5518 11.7217 12.4355C11.71 12.3896 11.7061 12.3438 11.707 12.2969C11.7568 11.0693 11.5254 10.1943 11.0205 9.66797C10.6309 9.2627 10.0576 9.05664 9.31543 9.05664C8.57422 9.05664 8 9.2627 7.61133 9.66797C7.10547 10.1943 6.87403 11.0684 6.92285 12.2666C6.92481 12.3135 6.92188 12.3896 6.91016 12.4355C6.88184 12.5518 6.81348 12.6523 6.72364 12.7246C6.68457 12.8799 6.65528 13.2285 6.71485 13.5791C6.75586 13.8262 6.82325 14.0088 6.87696 14.1182ZM7.15583 18.58C7.57123 19.5131 8.40094 20.1318 9.31739 20.1318C10.2316 20.1318 11.0639 19.5129 11.4805 18.5803C11.441 18.577 11.4013 18.573 11.3616 18.569C11.269 18.5598 11.1764 18.5506 11.0869 18.5488C10.8145 18.543 10.5967 18.3213 10.5967 18.0488V17.558C10.2332 17.7424 9.82404 17.8486 9.36328 17.8486C9.35385 17.8486 9.34522 17.8462 9.33657 17.8437C9.32968 17.8417 9.32277 17.8397 9.31543 17.839C9.30809 17.8397 9.30119 17.8417 9.29429 17.8437C9.28565 17.8462 9.27702 17.8486 9.26758 17.8486C8.80713 17.8486 8.39838 17.7425 8.03516 17.559V18.0488C8.03516 18.3213 7.81739 18.543 7.54492 18.5488C7.45675 18.5506 7.36564 18.5597 7.27445 18.5687C7.23484 18.5727 7.19523 18.5766 7.15583 18.58Z" "/>
</svg>
