<svg width="24" height="24" viewBox="0 0 24 24" xmlns="http://www.w3.org/2000/svg">
<path d="M4.04602 10.6882C4.05402 10.7076 4.05475 10.7283 4.06543 10.7471C5.83691 13.8564 8.57715 15.5 11.9893 15.5C15.4346 15.5 18.1816 13.8564 19.9355 10.7461C19.9581 10.7062 19.9658 10.6631 19.9764 10.6207C19.979 10.6121 19.9825 10.6043 19.9846 10.5956C19.9918 10.5592 19.9925 10.5244 19.9915 10.4879C19.9923 10.4489 19.9906 10.4116 19.9822 10.3728C19.9807 10.3671 19.9782 10.3619 19.9765 10.3563C19.9652 10.312 19.9559 10.267 19.9316 10.2256C18.1182 7.13379 15.374 5.5 11.9941 5.5C8.63574 5.5 5.89551 7.1416 4.06934 10.2461C4.05823 10.2649 4.05719 10.2858 4.04883 10.3054C4.03497 10.3375 4.02209 10.3683 4.0152 10.4025C4.00885 10.434 4.00824 10.4644 4.00806 10.496C4.00775 10.5281 4.00787 10.5588 4.01385 10.5909C4.02026 10.6251 4.03271 10.6559 4.04602 10.6882ZM11.9941 6.5C14.9504 6.5 17.272 7.85144 18.9117 10.4941C17.3422 13.1088 14.9587 14.5 11.9893 14.5C9.01129 14.5 6.69763 13.1479 5.09589 10.5037C6.74744 7.85431 9.06305 6.5 11.9941 6.5ZM21.5029 2H2.49707C2.2207 2 1.99707 2.22363 1.99707 2.5V18.5C1.99707 18.7764 2.2207 19 2.49707 19H5.00488V21.5C5.00488 21.6895 5.1123 21.8623 5.28125 21.9473C5.35156 21.9824 5.42871 22 5.50488 22C5.61133 22 5.7168 21.9658 5.80469 21.9004L9.67188 19H21.5029C21.7793 19 22.0029 18.7764 22.0029 18.5V2.5C22.0029 2.22363 21.7793 2 21.5029 2ZM21.0029 18H9.50488C9.39648 18 9.29102 18.0352 9.20508 18.0996L6.00488 20.5V18.5C6.00488 18.2236 5.78125 18 5.50488 18H2.99707V3H21.0029V18ZM12 13.5C13.6543 13.5 15 12.1543 15 10.5C15 8.8457 13.6543 7.5 12 7.5C10.3457 7.5 9 8.8457 9 10.5C9 12.1543 10.3457 13.5 12 13.5ZM12 8.5C13.1025 8.5 14 9.39746 14 10.5C14 11.6025 13.1025 12.5 12 12.5C10.8975 12.5 10 11.6025 10 10.5C10 9.39746 10.8975 8.5 12 8.5Z" />
</svg>
