<svg  viewBox="0 0 24 24"  xmlns="http://www.w3.org/2000/svg">
<path d="M12 3C7.03711 3 3 7.0376 3 12C3 16.9624 7.03711 21 12 21C16.9629 21 21 16.9624 21 12C21 7.0376 16.9629 3 12 3ZM12 20C7.58887 20 4 16.4111 4 12C4 7.58887 7.58887 4 12 4C16.4111 4 20 7.58887 20 12C20 16.4111 16.4111 20 12 20ZM12.792 8C13.4561 8 14.083 8.48926 14.3486 8.77832C14.5371 8.98291 14.8516 8.99561 15.0557 8.80811C15.2588 8.62109 15.2715 8.30469 15.085 8.10156C14.6172 7.59326 13.7363 7 12.792 7C10.9728 7 9.71863 8.09393 9.22327 10H7.9834C7.70703 10 7.4834 10.2236 7.4834 10.5C7.4834 10.7764 7.70703 11 7.9834 11H9.0426C9.00732 11.319 8.9834 11.6492 8.9834 12.001C8.9834 12.352 9.0072 12.6816 9.04224 13H7.9834C7.70703 13 7.4834 13.2236 7.4834 13.5C7.4834 13.7764 7.70703 14 7.9834 14H9.22198C9.71509 15.9061 10.9645 17 12.7773 17C13.5996 17 14.4307 16.5962 15.001 15.9199C15.1797 15.709 15.1523 15.3936 14.9414 15.2153C14.7314 15.0381 14.416 15.064 14.2373 15.2754C13.8545 15.729 13.3086 16 12.7773 16C11.2988 16 10.5965 15.0379 10.2661 14H11.9893C12.2656 14 12.4893 13.7764 12.4893 13.5C12.4893 13.2236 12.2656 13 11.9893 13H10.0485C9.99902 12.6206 9.9834 12.27 9.9834 12.001C9.9834 11.7315 9.99915 11.3802 10.049 11H12.9727C13.249 11 13.4727 10.7764 13.4727 10.5C13.4727 10.2236 13.249 10 12.9727 10H10.2677C10.5999 8.96191 11.3058 8 12.792 8Z" "/>
</svg>
