<svg width="24" height="24" viewBox="0 0 24 24" xmlns="http://www.w3.org/2000/svg">
<path d="M8.85291 11.1459L6.85352 9.14648C6.6582 8.95117 6.3418 8.95117 6.14648 9.14648C5.95117 9.3418 5.95117 9.6582 6.14648 9.85352L7.29297 11H3.5C3.22363 11 3 11.2236 3 11.5C3 11.7764 3.22363 12 3.5 12H7.29297L6.14648 13.1465C5.95117 13.3418 5.95117 13.6582 6.14648 13.8535C6.24414 13.9512 6.37207 14 6.5 14C6.62793 14 6.75586 13.9512 6.85352 13.8535L8.85291 11.8541C8.89929 11.8079 8.9361 11.7524 8.96155 11.6909C9.01208 11.5687 9.01208 11.4313 8.96155 11.3091C8.9361 11.2476 8.89929 11.1921 8.85291 11.1459ZM15.7114 13C16.0464 13 16.4204 13.2412 16.6265 13.4653C16.8135 13.6694 17.1309 13.6821 17.333 13.4951C17.5361 13.3081 17.5498 12.9917 17.3628 12.7886C17.0122 12.4072 16.3945 12 15.7114 12C14.4745 12 13.5875 12.7397 13.2097 14H12.5054C12.229 14 12.0054 14.2236 12.0054 14.5C12.0054 14.7764 12.229 15 12.5054 15H13.0364C13.0229 15.1643 13.0054 15.3251 13.0054 15.5005C13.0054 15.676 13.0225 15.836 13.0353 16H12.5054C12.229 16 12.0054 16.2236 12.0054 16.5C12.0054 16.7764 12.229 17 12.5054 17H13.1998C13.5676 18.2736 14.4451 19 15.7012 19C16.2974 19 16.8994 18.709 17.3115 18.2212C17.4893 18.0098 17.4629 17.6943 17.252 17.5166C17.0396 17.3369 16.7241 17.3652 16.5474 17.5757C16.3228 17.8413 16.0068 18 15.7012 18C14.917 18 14.4934 17.5546 14.2629 17H15.1758C15.4521 17 15.6758 16.7764 15.6758 16.5C15.6758 16.2236 15.4521 16 15.1758 16H14.0314C14.0153 15.8239 14.0054 15.6526 14.0054 15.5005C14.0054 15.3481 14.0154 15.1765 14.0317 15H15.8315C16.1079 15 16.3315 14.7764 16.3315 14.5C16.3315 14.2236 16.1079 14 15.8315 14H14.2646C14.4965 13.4454 14.9227 13 15.7114 13ZM20.7097 10.25C20.8951 9.69946 21 9.11224 21 8.5C21 5.46729 18.5327 3 15.5 3C12.4673 3 10 5.46729 10 8.5C10 9.11224 10.1049 9.69946 10.2903 10.25C10.1049 10.8005 10 11.3878 10 12C10 12.6122 10.1049 13.1995 10.2903 13.75C10.1049 14.3005 10 14.8878 10 15.5C10 18.5327 12.4673 21 15.5 21C18.5327 21 21 18.5327 21 15.5C21 14.8878 20.8951 14.3005 20.7097 13.75C20.8951 13.1995 21 12.6122 21 12C21 11.3878 20.8951 10.8005 20.7097 10.25ZM15.5 20C13.0186 20 11 17.9814 11 15.5C11 13.0186 13.0186 11 15.5 11C17.9814 11 20 13.0186 20 15.5C20 17.9814 17.9814 20 15.5 20ZM19.9691 12.3063C18.9703 10.9128 17.3414 10 15.5 10C13.6586 10 12.0297 10.9128 11.0309 12.3063C11.0239 12.2032 11 12.1049 11 12C11 9.51855 13.0186 7.5 15.5 7.5C17.9814 7.5 20 9.51855 20 12C20 12.1049 19.9761 12.2032 19.9691 12.3063ZM19.9691 8.80627C18.9703 7.41278 17.3414 6.5 15.5 6.5C13.6586 6.5 12.0297 7.41278 11.0309 8.80627C11.0239 8.70319 11 8.60486 11 8.5C11 6.01855 13.0186 4 15.5 4C17.9814 4 20 6.01855 20 8.5C20 8.60486 19.9761 8.70319 19.9691 8.80627Z"/>
</svg>
