<svg  viewBox="0 0 24 24"  xmlns="http://www.w3.org/2000/svg">
<path d="M15.8542 5.4668C15.8542 5.74294 15.6304 5.9668 15.3542 5.9668C15.0781 5.9668 14.8542 5.74294 14.8542 5.4668C14.8542 5.19065 15.0781 4.9668 15.3542 4.9668C15.6304 4.9668 15.8542 5.19065 15.8542 5.4668Z" "/>
<path d="M19.1734 5.9668C19.4495 5.9668 19.6734 5.74294 19.6734 5.4668C19.6734 5.19065 19.4495 4.9668 19.1734 4.9668C18.8973 4.9668 18.6734 5.19065 18.6734 5.4668C18.6734 5.74294 18.8973 5.9668 19.1734 5.9668Z" "/>
<path fill-rule="evenodd" clip-rule="evenodd" d="M10.1397 14.7292C10.2635 14.7295 10.3836 14.7141 10.5003 14.6383C10.4875 14.6682 10.4748 14.6967 10.4626 14.7242C10.4406 14.7736 10.4198 14.8202 10.4015 14.8677C10.3102 15.1067 10.2751 15.3569 10.2539 15.6102C10.2369 15.813 10.2372 16.0143 10.2866 16.2132C10.3762 16.5725 10.5902 16.8203 10.944 16.9387C11.169 17.014 11.4011 17.022 11.6346 16.9945C12.133 16.9363 12.4945 16.6857 12.7068 16.2281C12.8247 15.9737 12.873 15.7023 12.8989 15.4253C12.917 15.2289 12.9258 15.0333 12.8879 14.8383C12.8192 14.482 12.6354 14.2131 12.2931 14.0686C12.0717 13.9754 11.8387 13.9595 11.6025 13.9762C11.283 13.9985 10.9929 14.0974 10.7539 14.3199C10.7402 14.3327 10.728 14.3473 10.7158 14.362C10.7099 14.3691 10.704 14.3762 10.6979 14.3831C10.6946 14.3804 10.6907 14.3773 10.6871 14.3749C10.7179 14.2642 10.7388 14.1526 10.7341 14.0353C10.7295 14.0349 10.7253 14.0344 10.7215 14.034C10.7153 14.0332 10.71 14.0326 10.7047 14.0326C10.5965 14.0326 10.4883 14.0325 10.3801 14.0325C9.95993 14.0324 9.5397 14.0323 9.11964 14.0336C9.00921 14.0339 8.90317 14.0592 8.80675 14.1177C8.66829 14.2018 8.58973 14.3328 8.52902 14.4773C8.52312 14.491 8.51772 14.5048 8.51231 14.5187C8.51065 14.5229 8.50899 14.5272 8.50731 14.5314C8.5058 14.531 8.50433 14.5306 8.50289 14.5301C8.50094 14.5296 8.49905 14.529 8.49715 14.5284L8.56061 14.0323H8.49962C8.01064 14.0323 7.52165 14.0323 7.03239 14.0326C7.024 14.0326 7.01558 14.0325 7.00715 14.0325C6.97638 14.0324 6.94543 14.0322 6.91481 14.0339C6.67142 14.0471 6.50521 14.1718 6.42418 14.4007C6.42203 14.4063 6.41963 14.412 6.41692 14.4184C6.41478 14.4235 6.41244 14.429 6.40989 14.4353C6.40601 14.4304 6.40251 14.4262 6.39932 14.4223C6.39392 14.4158 6.38941 14.4104 6.38544 14.4045C6.26759 14.235 6.10881 14.1199 5.91596 14.0504C5.67009 13.9617 5.41708 13.9556 5.1616 13.9878C4.93606 14.0163 4.72591 14.09 4.54021 14.2251C4.28967 14.407 4.13968 14.6581 4.0449 14.9468C3.96495 15.1894 3.93721 15.4407 3.91936 15.6938C3.90727 15.872 3.91578 16.0489 3.96084 16.2226C4.0611 16.6104 4.30367 16.8583 4.69185 16.961C4.902 17.0165 5.11517 17.0198 5.3289 16.992C5.7808 16.9332 6.12474 16.7127 6.34039 16.3055C6.47664 16.0476 6.53516 15.7685 6.56511 15.4811C6.59037 15.2383 6.60274 14.9962 6.54147 14.7564C6.54056 14.752 6.54075 14.7472 6.54098 14.7416C6.54109 14.7389 6.54121 14.736 6.54121 14.7328H7.24721C7.24326 14.7673 7.23944 14.8013 7.23566 14.8349C7.22971 14.8878 7.22387 14.9398 7.21781 14.9916C7.2005 15.1403 7.18301 15.2889 7.16553 15.4375C7.12366 15.7933 7.08181 16.1491 7.04228 16.5052C7.01014 16.792 7.16068 16.9676 7.44967 16.9805C7.52364 16.9838 7.59798 16.9789 7.67237 16.974C7.70848 16.9717 7.74461 16.9693 7.7807 16.9678C7.82026 16.9665 7.83675 16.9505 7.84142 16.908C7.86175 16.7128 7.88417 16.5178 7.90659 16.3227C7.91475 16.2517 7.92291 16.1807 7.93097 16.1096C7.94045 16.026 7.94995 15.9424 7.95945 15.8588C8.00006 15.5014 8.04068 15.1439 8.07986 14.7864C8.08508 14.7399 8.10047 14.7276 8.14662 14.7281C8.3214 14.7299 8.49604 14.7298 8.67074 14.7298C8.73768 14.7297 8.80462 14.7297 8.87158 14.7298C8.881 14.7298 8.89028 14.7304 8.90003 14.7311C8.90479 14.7314 8.90966 14.7317 8.91471 14.732C8.91471 14.7368 8.91486 14.741 8.91499 14.7448C8.91522 14.7514 8.91541 14.7568 8.91471 14.7622C8.89612 14.9212 8.87737 15.0803 8.85862 15.2393C8.81806 15.5832 8.77751 15.9271 8.73862 16.2712C8.73776 16.279 8.73689 16.2867 8.73602 16.2945C8.72304 16.4109 8.7099 16.5287 8.71582 16.6448C8.72489 16.8088 8.83092 16.9198 8.99081 16.9607C9.1341 16.9972 9.27863 16.9843 9.42322 16.9713C9.43109 16.9706 9.43896 16.9699 9.44683 16.9692C9.49105 16.9651 9.50671 16.9481 9.51193 16.903C9.55149 16.548 9.59165 16.1931 9.63182 15.8382C9.67201 15.4831 9.71219 15.128 9.75175 14.7729C9.75616 14.7358 9.76989 14.7281 9.80341 14.7287C9.87545 14.7297 9.94749 14.7295 10.0195 14.7293C10.0596 14.7292 10.0996 14.7291 10.1397 14.7292ZM11.0887 15.8365C11.0876 15.8216 11.0866 15.808 11.0855 15.7959C11.1028 15.5154 11.1201 15.2572 11.2182 15.0127C11.2607 14.9059 11.3193 14.8097 11.4135 14.7394C11.578 14.6163 11.833 14.6361 11.9574 14.7833C12.0244 14.8627 12.058 14.9589 12.0626 15.0603C12.0777 15.3976 12.0492 15.7297 11.9017 16.0399C11.8349 16.1803 11.7272 16.28 11.5665 16.305C11.3209 16.3432 11.1451 16.2165 11.1031 15.9698C11.0951 15.9232 11.0916 15.8758 11.0887 15.8365ZM5.73995 15.1246C5.74149 15.1423 5.74286 15.1581 5.74454 15.1712C5.72861 15.4418 5.71075 15.6797 5.63163 15.9075C5.58905 16.0297 5.53054 16.1426 5.42532 16.225C5.24511 16.366 4.95914 16.3305 4.84376 16.1525C4.79239 16.0737 4.76629 15.9847 4.7641 15.8926C4.75558 15.5839 4.78222 15.2789 4.90008 14.9894C4.95254 14.86 5.03249 14.7493 5.16765 14.693C5.419 14.5883 5.65801 14.7089 5.71899 14.974C5.73146 15.0268 5.73619 15.0813 5.73995 15.1246Z" "/>
<path fill-rule="evenodd" clip-rule="evenodd" d="M21.3203 6.37109C21.2569 7.24127 20.9551 8.05328 20.4928 8.72827L22.2129 10.4487C22.7402 10.9761 22.7402 11.834 22.2129 12.3613C22.1758 12.3985 22.1335 12.4236 22.0911 12.4487C22.0668 12.463 22.0425 12.4774 22.0192 12.4941C22.3828 13.3344 22.1738 14.416 21.4082 15.1816C20.8838 15.7061 20.209 15.9741 19.5654 15.9741C19.0234 15.9741 18.5039 15.7832 18.1152 15.395C17.9732 15.2531 17.8658 15.0878 17.7746 14.9136H16.6824C16.5928 15.0867 16.4866 15.252 16.3437 15.395C15.989 15.7498 15.5183 15.9434 15 15.9675V19.3823L15.9473 21.2769C16.0244 21.4316 16.0166 21.6157 15.9258 21.7632C15.834 21.9106 15.6728 22.0005 15.5 22.0005H1.49999C1.32714 22.0005 1.16601 21.9106 1.07421 21.7632C0.983389 21.6157 0.975577 21.4316 1.05272 21.2769L1.99999 19.3823V11.5005C1.99999 11.2241 2.22362 11.0005 2.49999 11.0005H11.8588C11.9219 10.7996 12.0168 10.6077 12.1758 10.4487L13.9278 8.69708C13.4711 8.02222 13.1782 7.21582 13.1269 6.3623C12.2812 5.95752 11.7344 5.10596 11.7344 4.14258C11.7344 2.78418 12.8389 1.6792 14.1973 1.6792C14.7754 1.6792 15.333 1.88379 15.7734 2.25C16.7012 1.89697 17.7627 1.89893 18.6904 2.25391C19.1308 1.88525 19.6904 1.6792 20.2715 1.6792C21.6299 1.6792 22.7344 2.78418 22.7344 4.14258C22.7344 5.09912 22.168 5.96924 21.3203 6.37109ZM12.7344 4.14258C12.7344 4.79004 13.1494 5.35205 13.7676 5.5415C13.9844 5.60791 14.1299 5.8125 14.1211 6.03955C14.1193 7.57983 15.2132 9.22156 16.7392 9.52106C16.7385 9.51367 16.7365 9.5067 16.7345 9.49975C16.732 9.49098 16.7295 9.48223 16.7295 9.47266V8.79376C16.3069 8.55426 15.6357 8.06879 15.6357 7.39502C15.6357 6.23096 16.7939 6.23096 17.2295 6.23096C17.665 6.23096 18.8232 6.23096 18.8232 7.39502C18.8232 8.06879 18.1521 8.55426 17.7295 8.79376V9.47266C17.7295 9.48209 17.727 9.4907 17.7245 9.49933C17.7226 9.50621 17.7206 9.51311 17.7198 9.52045C19.2436 9.21838 20.335 7.58307 20.335 6.09326C20.335 5.87207 20.4785 5.60791 20.6904 5.54492C21.3047 5.36133 21.7344 4.78467 21.7344 4.14258C21.7344 3.33545 21.0781 2.6792 20.2715 2.6792C19.8516 2.6792 19.4521 2.86035 19.1738 3.17578C19.0264 3.34473 18.7822 3.39355 18.581 3.29541C17.7353 2.88477 16.7285 2.88379 15.8828 3.29053C15.6816 3.38672 15.4394 3.33887 15.293 3.17236C15.0137 2.85889 14.6142 2.6792 14.1973 2.6792C13.3906 2.6792 12.7344 3.33545 12.7344 4.14258ZM16.6435 7.30225C16.6367 7.48145 16.8975 7.73682 17.2295 7.92773C17.5615 7.73926 17.8232 7.49658 17.8232 7.39502C17.8232 7.33447 17.8144 7.30371 17.8105 7.29688C17.7842 7.27588 17.667 7.23096 17.2295 7.23096C16.792 7.23096 16.6748 7.27588 16.6435 7.30225ZM14 12.0005H2.99999V19.0005H14V12.0005ZM2.80858 20.0005L2.30858 21.0005H14.6914L14.1914 20.0005H2.80858ZM15 14.9481C15.2479 14.9249 15.4739 14.8511 15.6367 14.688C16.0957 14.2285 16 13.3857 15.4228 12.8091C15.2935 12.6797 15.1489 12.5821 15 12.5019V14.9481ZM18.8223 14.688C19.2812 15.1465 20.125 15.0503 20.7012 14.4746C21.2773 13.8975 21.373 13.0547 20.9141 12.5957C20.7187 12.4004 20.4531 12.3057 20.1689 12.3057C19.7861 12.3057 19.3672 12.478 19.0361 12.8091C18.7461 13.0996 18.5693 13.4634 18.5381 13.834C18.5098 14.1733 18.6113 14.4766 18.8223 14.688ZM21.4149 11.7138C21.4441 11.7 21.4738 11.686 21.5058 11.6543C21.6435 11.5166 21.6435 11.2935 21.5058 11.1558L19.8318 9.48126C19.1105 10.1577 18.1991 10.5835 17.2266 10.5835C16.2377 10.5835 15.3115 10.1445 14.5846 9.45392L13.0381 11.0005H14.5C14.7477 11.0005 14.9438 11.1835 14.9838 11.4199C15.3952 11.5424 15.7939 11.7661 16.1299 12.1021C16.1599 12.132 16.1853 12.1644 16.2108 12.1968C16.2267 12.2171 16.2427 12.2374 16.2598 12.2571C16.6849 12.748 16.9066 13.3391 16.9138 13.9136H17.5447C17.545 13.8912 17.5439 13.8692 17.5427 13.8472C17.541 13.8157 17.5393 13.7841 17.542 13.7515C17.5865 13.2094 17.8229 12.6894 18.1978 12.2573C18.2146 12.2379 18.2305 12.218 18.2464 12.1981C18.2726 12.1652 18.2988 12.1323 18.3291 12.1021C19.2215 11.2096 20.5398 11.0703 21.4061 11.718L21.4149 11.7138Z" "/>
</svg>
