<svg width="24" height="24" viewBox="0 0 24 24" xmlns="http://www.w3.org/2000/svg">
<path d="M5.5 18H10.5C10.7764 18 11 17.7764 11 17.5V9.5C11 9.22363 10.7764 9 10.5 9H5.5C5.22363 9 5 9.22363 5 9.5V17.5C5 17.7764 5.22363 18 5.5 18ZM6 10H10V17H6V10ZM6.50018 5.99786C6.77618 5.99786 7 5.77411 7 5.49805C7 5.22198 6.77618 4.99823 6.50018 4.99823C6.22418 4.99823 6.00037 5.22198 6.00037 5.49805C6.00037 5.77411 6.22418 5.99786 6.50018 5.99786ZM21.5 2.99805H2.5C2.22363 2.99805 2 3.22168 2 3.49805V19.498C2 19.7744 2.22363 19.998 2.5 19.998H15.0044L15.2871 20.6895C15.3662 20.8828 15.5527 21 15.75 21C15.8135 21 15.877 20.9883 15.9395 20.9629L17.79 20.2061C17.8889 20.1657 17.9649 20.0887 18.0201 19.998H21.5C21.7764 19.998 22 19.7744 22 19.498V3.49805C22 3.22168 21.7764 2.99805 21.5 2.99805ZM12.7102 18.998L14.1934 18.0146L14.5955 18.998H12.7102ZM16.0234 19.8477L14.8877 17.0713C14.8311 16.9326 14.7148 16.8271 14.5723 16.7832C14.5234 16.7676 14.4746 16.7607 14.4248 16.7607C14.3271 16.7607 14.2314 16.7891 14.1484 16.8438L12.8223 17.7236L12.9785 11.0967L17.7412 15.7109L16.1807 16.0117C16.0332 16.04 15.9072 16.1328 15.8359 16.2646C15.7646 16.3965 15.7559 16.5537 15.8125 16.6924L16.9482 19.4697L16.0234 19.8477ZM21 18.998H17.8361L16.9688 16.8779L18.873 16.5107C19.0566 16.4756 19.2041 16.3408 19.2578 16.1621C19.3105 15.9834 19.2598 15.79 19.126 15.6602L17.4126 14H18.5C18.7764 14 19 13.7764 19 13.5C19 13.2236 18.7764 13 18.5 13H16.3806L15.3485 12H18.5C18.7764 12 19 11.7764 19 11.5C19 11.2236 18.7764 11 18.5 11H14.3164L13.2844 10H18.5C18.7764 10 19 9.77637 19 9.5C19 9.22363 18.7764 9 18.5 9H12.5C12.2236 9 12 9.22363 12 9.5C12 9.58789 12.0286 9.66614 12.0684 9.73785C12.0397 9.79938 12.0076 9.86035 12.0059 9.93066L11.7998 18.6582C11.7967 18.7906 11.8595 18.9042 11.9467 18.998H3V7.99805H21V18.998ZM21 6.99805H3V3.99805H21V6.99805ZM4.50018 5.99786C4.77618 5.99786 5 5.77411 5 5.49805C5 5.22198 4.77618 4.99823 4.50018 4.99823C4.22418 4.99823 4.00037 5.22198 4.00037 5.49805C4.00037 5.77411 4.22418 5.99786 4.50018 5.99786ZM8.50018 5.99786C8.77618 5.99786 9 5.77411 9 5.49805C9 5.22198 8.77618 4.99823 8.50018 4.99823C8.22418 4.99823 8.00037 5.22198 8.00037 5.49805C8.00037 5.77411 8.22418 5.99786 8.50018 5.99786Z" />
</svg>
