<svg  viewBox="0 0 24 24"  xmlns="http://www.w3.org/2000/svg">
<path d="M20.5 11H18.4747C18.2283 7.53943 15.4606 4.77173 12 4.52533V2.5C12 2.22363 11.7764 2 11.5 2C11.2236 2 11 2.22363 11 2.5V4.52533C7.53943 4.77173 4.77173 7.53943 4.52533 11H2.5C2.22363 11 2 11.2236 2 11.5C2 11.7764 2.22363 12 2.5 12H4.52533C4.77173 15.4606 7.53943 18.2283 11 18.4747V20.5C11 20.7764 11.2236 21 11.5 21C11.7764 21 12 20.7764 12 20.5V18.4747C15.4606 18.2283 18.2283 15.4606 18.4747 12H20.5C20.7764 12 21 11.7764 21 11.5C21 11.2236 20.7764 11 20.5 11ZM14.2749 12H17.4747C17.233 14.9097 14.9097 17.233 12 17.4747V14.2749C12 13.9985 11.7764 13.7749 11.5 13.7749C11.2236 13.7749 11 13.9985 11 14.2749V17.4747C8.09033 17.233 5.76703 14.9097 5.52533 12H8.7251C9.00146 12 9.2251 11.7764 9.2251 11.5C9.2251 11.2236 9.00146 11 8.7251 11H5.52533C5.76703 8.09033 8.09033 5.76703 11 5.52533V8.7251C11 9.00146 11.2236 9.2251 11.5 9.2251C11.7764 9.2251 12 9.00146 12 8.7251V5.52533C14.9097 5.76703 17.233 8.09033 17.4747 11H14.2749C13.9985 11 13.7749 11.2236 13.7749 11.5C13.7749 11.7764 13.9985 12 14.2749 12Z" "/>
</svg>
