<svg  viewBox="0 0 24 24"  xmlns="http://www.w3.org/2000/svg">
<path d="M9.133 19.5458C9.13314 19.7715 9.01282 19.9802 8.81739 20.0932C8.62195 20.2062 8.38108 20.2063 8.18551 20.0935C7.98994 19.9808 7.86938 19.7723 7.86925 19.5465C7.86904 19.1975 8.15178 18.9145 8.50075 18.9143C8.84973 18.9141 9.13279 19.1968 9.133 19.5458Z" />
<path d="M11.6328 7.27726C11.9817 7.27706 12.2645 6.99399 12.2643 6.64501C12.264 6.29604 11.981 6.0133 11.632 6.01351C11.283 6.01372 11.0003 6.29679 11.0005 6.64576C11.0007 6.99474 11.2838 7.27747 11.6328 7.27726Z" />
<path d="M14.3164 7.19242C14.5118 7.07943 14.6321 6.87076 14.632 6.64501C14.6318 6.29604 14.3487 6.0133 13.9998 6.01351C13.6508 6.01372 13.368 6.29679 13.3683 6.64576C13.3684 6.87151 13.4889 7.08004 13.6845 7.19279C13.8801 7.30555 14.121 7.30541 14.3164 7.19242Z" />
<path d="M16.999 6.64501C16.9991 6.87076 16.8788 7.07943 16.6834 7.19242C16.488 7.30541 16.2471 7.30555 16.0515 7.19279C15.8559 7.08004 15.7354 6.87151 15.7353 6.64576C15.735 6.29679 16.0178 6.01372 16.3668 6.01351C16.7157 6.0133 16.9988 6.29604 16.999 6.64501Z" />
<path fill-rule="evenodd" clip-rule="evenodd" d="M19.5048 2.01001H8.5C8.22372 2.01001 7.99975 2.23398 7.99975 2.51026V5.01451H5.88475C4.80625 5.01451 4.0015 6.01276 4.0015 6.90451V17.5178L4 17.5253L4.0015 17.5328V19.7828C4.0015 21.0833 4.7845 21.9915 5.90575 21.9915H11.0958C11.974 21.9915 13 21.3675 13 19.6088V11.364L13.498 11.0108H19.5048C19.6375 11.011 19.7648 10.9583 19.8587 10.8645C19.9526 10.7706 20.0052 10.6432 20.005 10.5105V2.51026C20.0052 2.37753 19.9526 2.25017 19.8587 2.15631C19.7648 2.06245 19.6375 2.00981 19.5048 2.01001ZM5.00125 6.90526C5.00125 6.50476 5.40925 6.01501 5.88475 6.01501H7.99975V8.01976H5.00125V6.90526ZM11.095 20.9918C11.9118 20.9918 11.9995 20.0243 11.9995 19.6088L11.9988 19.6095V18.0263H5.0005V19.7835C5.0005 20.529 5.347 20.9918 5.905 20.9918H11.095ZM11.9995 17.0258H5.00125V9.02026H7.99975V10.5113C7.99975 10.7873 8.22325 11.0115 8.5 11.0115H9.98275V12.5385C9.98248 12.7257 10.0869 12.8974 10.2533 12.9832C10.4197 13.069 10.6201 13.0546 10.7725 12.9458L12.0003 12.0743L11.9995 17.0258ZM13.3383 10.0103H19.0045V3.01051H8.9995V10.0103H10.4823C10.7585 10.0103 10.9825 10.2342 10.9825 10.5105V11.5695L13.0488 10.1025C13.1334 10.0425 13.2345 10.0103 13.3383 10.0103Z" />
</svg>
