<svg  viewBox="0 0 24 24"  xmlns="http://www.w3.org/2000/svg">
<path d="M21.8096 11.5918L12.3096 4.0918C12.1279 3.94824 11.8721 3.94824 11.6904 4.0918L2.19043 11.5918C1.97363 11.7632 1.93652 12.0776 2.10742 12.2944C2.27832 12.5103 2.59277 12.5474 2.80957 12.377L3.99707 11.4395V19.5156C3.99707 19.792 4.2207 20.0156 4.49707 20.0156H10.4834C10.7598 20.0156 10.9834 19.792 10.9834 19.5156V15.0156H13.0049V19.5156C13.0049 19.792 13.2285 20.0156 13.5049 20.0156H19.4961C19.7725 20.0156 19.9961 19.792 19.9961 19.5156V11.4341L21.1904 12.377C21.2822 12.4492 21.3916 12.4844 21.5 12.4844C21.6475 12.4844 21.7939 12.4189 21.8926 12.2944C22.0635 12.0776 22.0264 11.7632 21.8096 11.5918ZM18.9961 19.0156H14.0049V14.5156C14.0049 14.2393 13.7812 14.0156 13.5049 14.0156H10.4834C10.207 14.0156 9.9834 14.2393 9.9834 14.5156V19.0156H4.99707V10.65L12 5.12158L18.9961 10.6447V19.0156Z" "/>
</svg>
