<svg width="24" height="24" viewBox="0 0 24 24" xmlns="http://www.w3.org/2000/svg">
<path d="M15.5242 5.31714L21.8538 11.6462C21.9226 11.7151 21.968 11.8005 21.9885 11.8914C21.991 11.9041 21.9934 11.9172 21.9954 11.9299V11.9314C21.9949 11.9319 21.9959 11.9329 21.9959 11.9329V11.9353C21.9964 11.9358 21.9964 11.9363 21.9964 11.9363V11.9382C22.0051 12.0183 21.9973 12.1003 21.9671 12.1785C21.9667 12.1794 21.9666 12.1801 21.9666 12.1804C21.9666 12.1809 21.9661 12.1819 21.9656 12.1824L21.9597 12.197C21.9597 12.1975 21.9592 12.1975 21.9592 12.198C21.9597 12.1985 21.9583 12.199 21.9588 12.1995C21.9324 12.259 21.8958 12.3123 21.8508 12.3562L15.5242 18.6829C15.3289 18.8782 15.0125 18.8782 14.8172 18.6829C14.6218 18.4875 14.6218 18.1711 14.8172 17.9758L20.2932 12.4998H2.50024C2.22388 12.4998 2.00024 12.2761 2.00024 11.9998C2.00024 11.7234 2.22388 11.4998 2.50024 11.4998H20.2932L14.8172 6.02417C14.6218 5.82886 14.6218 5.51245 14.8172 5.31714C14.9148 5.21948 15.0427 5.17065 15.1707 5.17065C15.2986 5.17065 15.4265 5.21948 15.5242 5.31714Z" />
</svg>
