<svg  viewBox="0 0 24 24"  xmlns="http://www.w3.org/2000/svg">
<path fill-rule="evenodd" clip-rule="evenodd" d="M20.1045 19.4013L15.255 14.5128C16.2594 13.3352 16.8107 11.838 16.8098 10.2903C16.8098 6.68951 13.8803 3.76001 10.2795 3.76001C6.67875 3.76001 3.75 6.68951 3.75 10.2903C3.75 13.891 6.67875 16.8198 10.2795 16.8198C11.8497 16.8206 13.3672 16.2532 14.5515 15.2223L19.395 20.1048C19.5916 20.2874 19.8974 20.2824 20.0879 20.0933C20.2784 19.9042 20.2857 19.5993 20.1045 19.4013ZM4.749 10.291C4.749 7.24151 7.22925 4.76126 10.2788 4.76126C13.3283 4.76126 15.8093 7.24226 15.8093 10.291C15.8093 13.3398 13.3283 15.8208 10.2788 15.8208C7.22925 15.8208 4.749 13.3398 4.749 10.291Z" "/>
</svg>
