<svg  viewBox="0 0 24 24"  xmlns="http://www.w3.org/2000/svg">
<path d="M7.04364 20.0297C7.04364 20.3349 6.79936 20.5823 6.49802 20.5823C6.19668 20.5823 5.95239 20.3349 5.95239 20.0297C5.95239 19.7245 6.19668 19.4771 6.49802 19.4771C6.79936 19.4771 7.04364 19.7245 7.04364 20.0297Z" />
<path fill-rule="evenodd" clip-rule="evenodd" d="M4.5 17H8.5C8.77637 17 9 16.7764 9 16.5V14.5C9 14.2236 8.77637 14 8.5 14H4.5C4.22363 14 4 14.2236 4 14.5V16.5C4 16.7764 4.22363 17 4.5 17ZM5 15H8V16H5V15Z" />
<path fill-rule="evenodd" clip-rule="evenodd" d="M19.5 12H16.4878C16.2114 12 15.9878 11.7764 15.9878 11.5V4.5C15.9878 4.22363 16.2114 4 16.4878 4H19.5C19.7764 4 20 4.22363 20 4.5V11.5C20 11.7764 19.7764 12 19.5 12ZM19 5H16.9878V11H19V5Z" />
<path fill-rule="evenodd" clip-rule="evenodd" d="M4.50195 2H21.502C21.7783 2 22.002 2.22363 22.002 2.5V13.5C22.002 13.7764 21.7783 14 21.502 14H15.8676C15.9344 14.5934 16.1319 15.0677 16.4707 15.4014C17.0879 16.0083 17.9897 16.0024 17.9795 15.999C17.98 15.999 17.9805 15.9991 17.981 15.9993C17.9807 15.9992 17.9812 15.9993 17.981 15.9993L17.9828 15.9998L17.984 16H18.8022C19.0786 16 19.3022 16.2236 19.3022 16.5C19.3022 16.7764 19.0786 17 18.8022 17H11.001V20.3013C11.001 21.2539 10.2485 22 9.28809 22H3.71436C2.75342 22 2.00098 21.2539 2.00098 20.3013V8.75391C2.00098 7.78662 2.76953 7 3.71436 7H4.00195V2.5C4.00195 2.22363 4.22559 2 4.50195 2ZM9.28809 21C9.68799 21 10.001 20.6929 10.001 20.3013V19H3.00098V20.3013C3.00098 20.6929 3.31445 21 3.71436 21H9.28809ZM3.00098 18H10.001V10H3.00098V18ZM3.00098 9H10.001V8.72656C10.001 8.32617 9.68115 8 9.28809 8H3.71436C3.32764 8 3.00098 8.34521 3.00098 8.75391V9ZM11.001 16H15.6787C15.2111 15.4904 14.9429 14.8184 14.8705 14H11.001V16ZM11.001 13H21.002V3H5.00195V7H9.28809C10.2324 7 11.001 7.77441 11.001 8.72656V13Z" />
</svg>
