<svg  viewBox="0 0 24 24"  xmlns="http://www.w3.org/2000/svg">
<path d="M22.5 4H13.707L13.8535 3.85352C13.9961 3.71045 14.0391 3.49561 13.9619 3.30859C13.8848 3.12158 13.7021 3 13.5 3H9.5C9.36719 3 9.24023 3.05273 9.14648 3.14648L8.29297 4H5.5C5.22363 4 5 4.22363 5 4.5C5 4.77637 5.22363 5 5.5 5H7.29297L6.28394 6.00903C6.26843 6.00757 6.25513 6 6.23926 6H3.5C3.22363 6 3 6.22363 3 6.5C3 6.77637 3.22363 7 3.5 7H5.29297L4.29297 8H1.5C1.22363 8 1 8.22363 1 8.5V18.5C1 18.7764 1.22363 19 1.5 19H4V19.5C4 19.7764 4.22363 20 4.5 20H8.5C8.77637 20 9 19.7764 9 19.5V19H18.5C18.7764 19 19 18.7764 19 18.5V8.5C19 8.22363 18.7764 8 18.5 8H9.70703L10.707 7H20V16.5C20 16.7764 20.2236 17 20.5 17C20.7764 17 21 16.7764 21 16.5V6.5C21 6.22363 20.7764 6 20.5 6H11.707L12.707 5H22V14.5C22 14.7764 22.2236 15 22.5 15C22.7764 15 23 14.7764 23 14.5V4.5C23 4.22363 22.7764 4 22.5 4ZM4 18H2V9H4V18ZM18 9V18H9V9H18ZM8.14709 8.14587C8.10107 8.19177 8.06421 8.24658 8.03882 8.30756C8.01361 8.36792 8 8.43317 8 8.5V19H5V8.70703L9.70703 4H12.293L8.14709 8.14587ZM11.0049 14.5C11.0049 14.7764 11.2285 15 11.5049 15H12.1993C12.5671 16.2736 13.4445 17 14.7002 17C15.2959 17 15.8984 16.709 16.3105 16.2212C16.4893 16.0103 16.4629 15.6948 16.252 15.5166C16.041 15.3389 15.7256 15.3647 15.5469 15.5757C15.3223 15.8413 15.0059 16 14.7002 16C13.9165 16 13.493 15.5546 13.2626 15H14.1748C14.4512 15 14.6748 14.7764 14.6748 14.5C14.6748 14.2236 14.4512 14 14.1748 14H13.031C13.0148 13.8239 13.0049 13.6526 13.0049 13.5005C13.0049 13.3481 13.0149 13.1765 13.0312 13H14.8311C15.1074 13 15.3311 12.7764 15.3311 12.5C15.3311 12.2236 15.1074 12 14.8311 12H13.2642C13.496 11.4454 13.9222 11 14.7109 11C15.0459 11 15.4199 11.2412 15.626 11.4653C15.8135 11.6699 16.1299 11.6826 16.332 11.4951C16.5361 11.3081 16.5488 10.9917 16.3623 10.7886C16.0117 10.4072 15.3936 10 14.7109 10C13.4741 10 12.587 10.7397 12.2092 12H11.5049C11.2285 12 11.0049 12.2236 11.0049 12.5C11.0049 12.7764 11.2285 13 11.5049 13H12.0359C12.0225 13.1643 12.0049 13.3251 12.0049 13.5005C12.0049 13.676 12.022 13.836 12.0348 14H11.5049C11.2285 14 11.0049 14.2236 11.0049 14.5Z" />
</svg>
