<svg  viewBox="0 0 24 24"  xmlns="http://www.w3.org/2000/svg">
<path d="M21.4984 20.9995H20.3119C19.6614 20.9995 19.0589 20.6831 19.0589 18.3843V9.99216H21.4984C21.7756 9.99216 22 9.76853 22 9.49216C22 9.21579 21.7756 8.99216 21.4984 8.99216H18.5573C18.28 8.99216 18.0556 9.21579 18.0556 9.49216V9.69712C17.3629 9.64145 15.3056 9.32669 14.3112 7.54099C13.5411 6.15769 13.4892 5.07224 13.448 4.20017C13.4108 3.42429 13.3785 2.75388 12.8083 2.28757C12.4125 1.96335 11.853 1.90964 11.3073 2.14499C10.5422 2.47507 9.68394 3.42966 9.57029 5.11911C9.488 6.38181 9.73489 8.10202 9.88674 8.99948H4.3866C4.37135 8.99948 4.35855 9.00675 4.34367 9.00809C4.328 9.00663 4.31447 8.999 4.29842 8.999C3.30793 8.999 2.50162 9.89743 2.50162 11.0014C2.50162 11.4839 2.65819 11.9191 2.91096 12.2634C2.36672 12.6049 2 13.2453 2 13.9936C2 14.7411 2.37137 15.3863 2.91432 15.7314C2.65954 16.0766 2.50162 16.5141 2.50162 16.9975C2.50162 17.906 3.04952 18.6667 3.79356 18.9103C3.61244 19.224 3.50485 19.5968 3.50485 19.9985C3.50485 21.102 4.29842 21.9995 5.27422 21.9995H8.38189H8.52102H13.8517C14.3876 21.9995 14.996 21.7407 15.6397 21.4663C16.154 21.2475 16.736 20.9995 17.0906 20.9995H18.521C18.5323 20.9995 18.5417 20.9938 18.5528 20.9931C18.8784 21.5672 19.4151 21.9995 20.3119 21.9995H21.4984C21.7756 21.9995 22 21.7759 22 21.4995C22 21.2231 21.7756 20.9995 21.4984 20.9995ZM17.0906 19.9995C16.5312 19.9995 15.8777 20.2778 15.2458 20.5464C14.7226 20.769 14.1818 20.9995 13.8517 20.9995H8.52102H8.38189H5.27422C4.85882 20.9995 4.50808 20.5415 4.50808 19.9985C4.50808 19.4565 4.85882 18.9995 5.27422 18.9995C5.55148 18.9995 5.77584 18.7759 5.77584 18.4995C5.77584 18.2231 5.55148 17.9995 5.27422 17.9995H4.29352C3.85853 17.9995 3.50485 17.5503 3.50485 16.9975C3.50485 16.4663 3.84677 16.019 4.26707 16.0014C4.26989 16.0013 4.27222 15.9997 4.27503 15.9995H4.50808C4.78534 15.9995 5.0097 15.7759 5.0097 15.4995C5.0097 15.2231 4.78534 14.9995 4.50808 14.9995H3.79289C3.36475 14.9995 3.00323 14.5385 3.00323 13.9936C3.00323 13.4585 3.34907 13.0122 3.77329 12.9995C3.83697 12.9975 3.89631 12.9811 3.95166 12.9578C4.04755 12.9785 4.14455 12.9961 4.24552 12.9995C4.2514 12.9995 4.25727 12.9995 4.26217 12.9995C4.5316 12.9995 4.75497 12.7866 4.76379 12.5161C4.77261 12.2397 4.55609 12.0088 4.27883 11.9995C3.85265 11.9853 3.50485 11.5376 3.50485 11.0014C3.50485 10.4492 3.86147 9.99997 4.29842 9.99997C4.31447 9.99997 4.328 9.99234 4.34367 9.99088C4.35855 9.99222 4.37135 9.99948 4.3866 9.99948H10.4863C10.6362 9.99948 10.7783 9.93259 10.8743 9.81687C10.9693 9.70114 11.0075 9.54929 10.9782 9.40232C10.9733 9.37644 10.4667 6.80027 10.5716 5.18454C10.649 4.02341 11.1976 3.28171 11.7061 3.06247C11.7982 3.02243 12.0284 2.94431 12.1715 3.06101C12.388 3.23728 12.4144 3.58933 12.4458 4.24753C12.4899 5.17234 12.5496 6.43845 13.4333 8.02634C14.7102 10.3179 17.2586 10.6531 18.0556 10.7016V18.3843C18.0556 18.734 18.0577 19.3631 18.1926 19.9995H17.0906Z" />
</svg>
