<svg  viewBox="0 0 24 24" xmlns="http://www.w3.org/2000/svg">
<path d="M12.0043 12.5003C11.8715 12.5005 11.7442 12.4478 11.6503 12.354C11.5564 12.2601 11.5038 12.1327 11.504 12V11.6678C11.504 10.6473 12.2341 10.1538 12.8216 9.75666L12.8248 9.7545C13.4368 9.342 13.8118 9.05775 13.8118 8.44575C13.8118 7.18875 12.7445 7.0005 12.1085 7.0005C11.5693 7.0005 11.0023 7.2165 10.664 7.551C10.4648 7.72588 10.1638 7.7153 9.97736 7.52686C9.79091 7.33843 9.78352 7.03736 9.9605 6.84C10.4848 6.32175 11.3075 6 12.1085 6C13.7503 6 14.8115 6.96 14.8115 8.445C14.8115 9.6195 14.0195 10.1543 13.3835 10.5833C12.821 10.9628 12.503 11.1998 12.503 11.667V11.9993C12.503 12.2752 12.2795 12.4991 12.0035 12.4995L12.0043 12.5003Z" "/>
<path d="M12.7573 14.4975C12.7573 14.9117 12.4215 15.2475 12.0073 15.2475C11.593 15.2475 11.2573 14.9117 11.2573 14.4975C11.2573 14.0833 11.593 13.7475 12.0073 13.7475C12.4215 13.7475 12.7573 14.0833 12.7573 14.4975Z" "/>
<path fill-rule="evenodd" clip-rule="evenodd" d="M7.001 21C6.86847 21.0002 6.7413 20.9476 6.64758 20.8539C6.55387 20.7602 6.5013 20.633 6.5015 20.5005V18.0008H4.00025C3.86752 18.001 3.74016 17.9483 3.6463 17.8545C3.55244 17.7606 3.4998 17.6332 3.5 17.5005V3.50025C3.5 3.2235 3.7235 3 4.00025 3H20C20.2768 3 20.5003 3.2235 20.5003 3.50025V17.5005C20.5005 17.6332 20.4478 17.7606 20.354 17.8545C20.2601 17.9483 20.1327 18.001 20 18.0008H11.168L7.301 20.901C7.21429 20.9656 7.10911 20.9998 7.001 21ZM4.49975 17.0003H7.001C7.277 17.0003 7.50125 17.2238 7.50125 17.5005V19.5008L10.7015 17.1C10.7881 17.0352 10.8934 17.0002 11.0015 17.0003H19.4998V4.0005H4.49975V17.0003Z" "/>
</svg>
