<svg width="24" height="24" viewBox="0 0 24 24" xmlns="http://www.w3.org/2000/svg">
<path fill-rule="evenodd" clip-rule="evenodd" d="M3 12C3 16.9628 7.03725 21 12 21C16.9628 21 21 16.9628 21 12C21 7.03725 16.9628 3 12 3C7.03725 3 3 7.03725 3 12ZM10.0538 16.098C9.92122 16.0983 9.79406 16.0457 9.7005 15.9518L6.39675 12.648C6.22089 12.4497 6.22991 12.1488 6.41732 11.9614C6.60474 11.7739 6.9057 11.7649 7.104 11.9408L10.0545 14.8913L16.8975 8.04829C17.0958 7.87243 17.3968 7.88144 17.5842 8.06886C17.7716 8.25628 17.7806 8.55724 17.6048 8.75554L10.4085 15.9518C10.3149 16.0455 10.1878 16.0981 10.0553 16.098H10.0538Z"/>
</svg>
