<svg  viewBox="0 0 24 24"  xmlns="http://www.w3.org/2000/svg">
<path fill-rule="evenodd" clip-rule="evenodd" d="M9.702 13.5915L4.0005 19.293V14.1938C4.0005 13.9175 3.77653 13.6935 3.50025 13.6935C3.22397 13.6935 3 13.9175 3 14.1938V20.5005C3 20.7773 3.2235 21.0008 3.50025 21.0008H9.90825C10.1845 21.0008 10.4085 20.7768 10.4085 20.5005C10.4085 20.2242 10.1845 20.0003 9.90825 20.0003H4.70775L10.4093 14.2988C10.5851 14.1005 10.5761 13.7995 10.3887 13.6121C10.2013 13.4247 9.9003 13.4156 9.702 13.5915ZM20.5005 3H14.0925C13.8162 3 13.5923 3.22397 13.5923 3.50025C13.5923 3.77653 13.8162 4.0005 14.0925 4.0005H19.2945L13.593 9.702C13.4197 9.90045 13.4298 10.1992 13.616 10.3856C13.8021 10.572 14.1009 10.5823 14.2995 10.4093L20.001 4.70775V9.80625C20.001 10.0825 20.225 10.3065 20.5013 10.3065C20.7775 10.3065 21.0015 10.0825 21.0015 9.80625V3.50025C21.0017 3.36752 20.9491 3.24016 20.8552 3.1463C20.7613 3.05244 20.6332 2.9998 20.5005 3Z" />
</svg>
