<svg width="12" height="12" viewBox="0 0 12 12" xmlns="http://www.w3.org/2000/svg">
<path d="M7.64697 3.5C7.64697 3.77637 7.87061 4 8.14697 4H10.5C10.7764 4 11 3.77637 11 3.5V1.14697C11 0.870605 10.7764 0.646973 10.5 0.646973C10.2236 0.646973 10 0.870605 10 1.14697V2.19043C8.98303 0.836304 7.29309 0 5.5 0C2.46729 0 0 2.46729 0 5.5C0 8.53271 2.46729 11 5.5 11C8.53271 11 11 8.53271 11 5.5C11 5.22363 10.7764 5 10.5 5C10.2236 5 10 5.22363 10 5.5C10 7.98145 7.98145 10 5.5 10C3.01855 10 1 7.98145 1 5.5C1 3.01855 3.01855 1 5.5 1C7.06934 1 8.54443 1.76025 9.35059 2.98438C9.3548 2.99078 9.36163 2.99384 9.36609 3H8.14697C7.87061 3 7.64697 3.22363 7.64697 3.5Z" fill="#222222"/>
</svg>
