<svg  viewBox="0 0 24 24"  xmlns="http://www.w3.org/2000/svg">
<path d="M4.31006 14.2144C4.10449 13.4966 4 12.752 4 12C4 7.58887 7.58887 4 12 4C14.467 4 16.905 5.16083 18.415 6.99072H16.5C16.2236 6.99072 16 7.21436 16 7.49072C16 7.76709 16.2236 7.99072 16.5 7.99072H19.5103C19.7866 7.99072 20.0103 7.76709 20.0103 7.49072V4.47998C20.0103 4.20361 19.7866 3.97998 19.5103 3.97998C19.2339 3.97998 19.0103 4.20361 19.0103 4.47998V6.1272C17.2984 4.1781 14.703 3 12 3C7.0376 3 3 7.0376 3 12C3 12.8452 3.11719 13.6831 3.34912 14.4897C3.41211 14.7095 3.61182 14.8521 3.82959 14.8521C3.875 14.8521 3.92139 14.8457 3.96729 14.8325C4.23291 14.7563 4.38623 14.4795 4.31006 14.2144Z" />
<path d="M20.6509 9.5098C20.5747 9.24418 20.2979 9.08939 20.0327 9.16703C19.7671 9.2432 19.6138 9.52006 19.6899 9.78519C19.8955 10.503 20 11.2481 20 12C20 16.4112 16.4111 20 12 20C9.5694 20 7.13959 18.8449 5.60291 17.0219L7.51367 17.0215C7.79004 17.0215 8.01367 16.7974 8.01367 16.5215C8.01367 16.2452 7.78955 16.0215 7.51367 16.0215L4.50342 16.022C4.37061 16.022 4.24365 16.0747 4.1499 16.1685C4.05615 16.2622 4.00342 16.3897 4.00342 16.522L4.00488 19.5323C4.00488 19.8086 4.229 20.0323 4.50488 20.0323C4.78076 20.0323 5.00488 19.8081 5.00488 19.5323L5.00391 17.873C6.73431 19.7979 9.37256 21 12 21C16.9624 21 21 16.9624 21 12C21 11.1543 20.8828 10.3164 20.6509 9.5098Z" />
<path d="M14.2969 8.47998C13.7524 8.16162 13.1592 8 12.5332 8C11.1643 8 9.97943 8.81024 9.3349 10H11.9243C12.2007 10 12.4243 10.2236 12.4243 10.5C12.4243 10.7764 12.2007 11 11.9243 11H8.95001C8.87225 11.3218 8.81787 11.6533 8.81787 12.001C8.81787 12.3479 8.87207 12.6788 8.94958 13H11.9243C12.2007 13 12.4243 13.2236 12.4243 13.5C12.4243 13.7764 12.2007 14 11.9243 14H9.33441C9.97888 15.1897 11.1639 16 12.5332 16C13.1543 16 13.7456 15.8408 14.291 15.5269C14.5308 15.3906 14.8359 15.4712 14.9741 15.7109C15.1118 15.9507 15.0293 16.2563 14.79 16.394C14.1006 16.7905 13.3203 17 12.5332 17C10.6042 17 8.94684 15.7627 8.21729 14H6.92432C6.64795 14 6.42432 13.7764 6.42432 13.5C6.42432 13.2236 6.64795 13 6.92432 13H7.91315C7.85107 12.6771 7.81787 12.3431 7.81787 12.001C7.81787 11.6582 7.85101 11.3235 7.91327 11H6.92432C6.64795 11 6.42432 10.7764 6.42432 10.5C6.42432 10.2236 6.64795 10 6.92432 10H8.2179C8.94763 8.2373 10.6047 7 12.5332 7C13.3276 7 14.1123 7.21338 14.8018 7.6167C15.04 7.75635 15.1201 8.0625 14.981 8.30078C14.8408 8.53906 14.5332 8.61816 14.2969 8.47998Z" />
</svg>
