<svg  viewBox="0 0 24 24"  xmlns="http://www.w3.org/2000/svg">
<path d="M10.5 10.1172C10.8452 10.1172 11.125 9.83737 11.125 9.49219C11.125 9.14701 10.8452 8.86719 10.5 8.86719C10.1548 8.86719 9.875 9.14701 9.875 9.49219C9.875 9.83737 10.1548 10.1172 10.5 10.1172Z" />
<path d="M17.125 9.49219C17.125 9.83737 16.8452 10.1172 16.5 10.1172C16.1548 10.1172 15.875 9.83737 15.875 9.49219C15.875 9.14701 16.1548 8.86719 16.5 8.86719C16.8452 8.86719 17.125 9.14701 17.125 9.49219Z" />
<path d="M13.5 10.1172C13.8452 10.1172 14.125 9.83737 14.125 9.49219C14.125 9.14701 13.8452 8.86719 13.5 8.86719C13.1548 8.86719 12.875 9.14701 12.875 9.49219C12.875 9.83737 13.1548 10.1172 13.5 10.1172Z" />
<path d="M11.125 12.485C11.125 12.8302 10.8452 13.11 10.5 13.11C10.1548 13.11 9.875 12.8302 9.875 12.485C9.875 12.1398 10.1548 11.86 10.5 11.86C10.8452 11.86 11.125 12.1398 11.125 12.485Z" />
<path d="M16.5 13.11C16.8452 13.11 17.125 12.8302 17.125 12.485C17.125 12.1398 16.8452 11.86 16.5 11.86C16.1548 11.86 15.875 12.1398 15.875 12.485C15.875 12.8302 16.1548 13.11 16.5 13.11Z" />
<path d="M14.1206 12.485C14.1206 12.8302 13.8408 13.11 13.4956 13.11C13.1504 13.11 12.8706 12.8302 12.8706 12.485C12.8706 12.1398 13.1504 11.86 13.4956 11.86C13.8408 11.86 14.1206 12.1398 14.1206 12.485Z" />
<path d="M13.4956 16.125C13.8408 16.125 14.1206 15.8452 14.1206 15.5C14.1206 15.1548 13.8408 14.875 13.4956 14.875C13.1504 14.875 12.8706 15.1548 12.8706 15.5C12.8706 15.8452 13.1504 16.125 13.4956 16.125Z" />
<path d="M8.125 12.485C8.125 12.8302 7.84518 13.11 7.5 13.11C7.15482 13.11 6.875 12.8302 6.875 12.485C6.875 12.1398 7.15482 11.86 7.5 11.86C7.84518 11.86 8.125 12.1398 8.125 12.485Z" />
<path d="M10.5 16.125C10.8452 16.125 11.125 15.8452 11.125 15.5C11.125 15.1548 10.8452 14.875 10.5 14.875C10.1548 14.875 9.875 15.1548 9.875 15.5C9.875 15.8452 10.1548 16.125 10.5 16.125Z" />
<path d="M17.125 15.5C17.125 15.8452 16.8452 16.125 16.5 16.125C16.1548 16.125 15.875 15.8452 15.875 15.5C15.875 15.1548 16.1548 14.875 16.5 14.875C16.8452 14.875 17.125 15.1548 17.125 15.5Z" />
<path d="M7.5 16.125C7.84518 16.125 8.125 15.8452 8.125 15.5C8.125 15.1548 7.84518 14.875 7.5 14.875C7.15482 14.875 6.875 15.1548 6.875 15.5C6.875 15.8452 7.15482 16.125 7.5 16.125Z" />
<path d="M7.5 8.79297L8.14648 8.14648C8.3418 7.95117 8.6582 7.95117 8.85352 8.14648C9.04883 8.3418 9.04883 8.6582 8.85352 8.85352L8.20703 9.5L8.85352 10.1465C9.04883 10.3418 9.04883 10.6582 8.85352 10.8535C8.75586 10.9512 8.62793 11 8.5 11C8.37207 11 8.24414 10.9512 8.14648 10.8535L7.5 10.207L6.85352 10.8535C6.75586 10.9512 6.62793 11 6.5 11C6.37207 11 6.24414 10.9512 6.14648 10.8535C5.95117 10.6582 5.95117 10.3418 6.14648 10.1465L6.79297 9.5L6.14648 8.85352C5.95117 8.6582 5.95117 8.3418 6.14648 8.14648C6.3418 7.95117 6.6582 7.95117 6.85352 8.14648L7.5 8.79297Z" />
<path fill-rule="evenodd" clip-rule="evenodd" d="M19.5 5H16V4.5C16 4.22363 15.7764 4 15.5 4C15.2236 4 15 4.22363 15 4.5V5H12.5V4.5C12.5 4.22363 12.2764 4 12 4C11.7236 4 11.5 4.22363 11.5 4.5V5H9V4.5C9 4.22363 8.77637 4 8.5 4C8.22363 4 8 4.22363 8 4.5V5H4.5C4.22363 5 4 5.22363 4 5.5V18.5C4 18.7764 4.22363 19 4.5 19H19.5C19.7764 19 20 18.7764 20 18.5V5.5C20 5.22363 19.7764 5 19.5 5ZM5 18V6H8V6.5C8 6.77637 8.22363 7 8.5 7C8.77637 7 9 6.77637 9 6.5V6H11.5V6.5C11.5 6.77637 11.7236 7 12 7C12.2764 7 12.5 6.77637 12.5 6.5V6H15V6.5C15 6.77637 15.2236 7 15.5 7C15.7764 7 16 6.77637 16 6.5V6H19V18H5Z" />
</svg>
