<svg  viewBox="0 0 24 24"  xmlns="http://www.w3.org/2000/svg">
<path d="M21.5 2H2.5C2.22363 2 2 2.22363 2 2.5V15.5C2 15.7764 2.22363 16 2.5 16H6.23578C6.48285 16.8734 6.92468 17.703 7.61084 18.3892C8.68311 19.4614 10.0913 19.9976 11.5 19.9976C12.5224 19.9976 13.5408 19.7064 14.4345 19.1415L17.1465 21.8535C17.2441 21.9512 17.3721 22 17.5 22C17.6279 22 17.7559 21.9512 17.8535 21.8535C18.0488 21.6582 18.0488 21.3418 17.8535 21.1465L15.2278 18.5208C15.2794 18.473 15.339 18.4393 15.3892 18.3892C16.0753 17.703 16.5172 16.8734 16.7642 16H21.5C21.7764 16 22 15.7764 22 15.5V2.5C22 2.22363 21.7764 2 21.5 2ZM14.6821 17.6821C12.9272 19.437 10.0728 19.437 8.31787 17.6821C6.56348 15.9272 6.56348 13.0728 8.31787 11.3179C9.19531 10.4404 10.3477 10.002 11.5 10.002C12.6523 10.002 13.8047 10.4404 14.6821 11.3179C16.4365 13.0728 16.4365 15.9272 14.6821 17.6821ZM21 15H16.9498C17.0924 13.4294 16.5889 11.8106 15.3892 10.6108C13.2446 8.46631 9.75537 8.46631 7.61084 10.6108C6.41107 11.8106 5.90759 13.4294 6.05023 15H3V7H21V15ZM21 6H3V3H21V6ZM11.7061 12C12.041 12 12.415 12.2412 12.6211 12.4653C12.8086 12.6694 13.1245 12.6826 13.3276 12.4951C13.5308 12.3081 13.5444 11.9917 13.3574 11.7886C13.0068 11.4072 12.3892 11 11.7061 11C10.4692 11 9.58215 11.7397 9.20435 13H8.5C8.22363 13 8 13.2236 8 13.5C8 13.7764 8.22363 14 8.5 14H9.03107C9.01758 14.1643 9 14.3251 9 14.5005C9 14.676 9.01715 14.836 9.02991 15H8.5C8.22363 15 8 15.2236 8 15.5C8 15.7764 8.22363 16 8.5 16H9.1944C9.56226 17.2736 10.4398 18 11.6958 18C12.292 18 12.894 17.709 13.3062 17.2212C13.4839 17.0098 13.4575 16.6943 13.2466 16.5166C13.0342 16.3364 12.7188 16.3657 12.542 16.5757C12.3174 16.8413 12.0015 17 11.6958 17C10.9116 17 10.488 16.5546 10.2576 16H11.1704C11.4468 16 11.6704 15.7764 11.6704 15.5C11.6704 15.2236 11.4468 15 11.1704 15H10.0261C10.0099 14.8239 10 14.6526 10 14.5005C10 14.3481 10.01 14.1765 10.0263 14H11.8262C12.1025 14 12.3262 13.7764 12.3262 13.5C12.3262 13.2236 12.1025 13 11.8262 13H10.2593C10.4911 12.4454 10.9174 12 11.7061 12ZM8.50018 4.99982C8.77618 4.99982 9 4.776 9 4.5C9 4.22394 8.77618 4.00018 8.50018 4.00018C8.22418 4.00018 8.00037 4.22394 8.00037 4.5C8.00037 4.776 8.22418 4.99982 8.50018 4.99982ZM6.50018 4.99982C6.77618 4.99982 7 4.776 7 4.5C7 4.22394 6.77618 4.00018 6.50018 4.00018C6.22418 4.00018 6.00037 4.22394 6.00037 4.5C6.00037 4.776 6.22418 4.99982 6.50018 4.99982ZM4.50018 4.99982C4.77618 4.99982 5 4.776 5 4.5C5 4.22394 4.77618 4.00018 4.50018 4.00018C4.22418 4.00018 4.00037 4.22394 4.00037 4.5C4.00037 4.776 4.22418 4.99982 4.50018 4.99982Z" />
</svg>
