<svg  viewBox="0 0 24 24"  xmlns="http://www.w3.org/2000/svg">
<path d="M19.5 8H16.0215V6.90039C16.0215 5.85254 15.1689 5 14.1211 5H9.9209C8.87402 5 8.02148 5.85254 8.02148 6.90039V8H4.5C3.67285 8 3 8.67285 3 9.5C3 11.4983 3 13.4988 3 15.5C3 16.3271 3.67285 17 4.5 17H19.5C20.3271 17 21 16.3271 21 15.5V9.5C21 8.67285 20.3271 8 19.5 8ZM9.02148 6.90039C9.02148 6.4043 9.4248 6 9.9209 6H14.1211C14.6172 6 15.0215 6.4043 15.0215 6.90039V8H9.02148V6.90039ZM9.02148 9H15.0215V10H13.5107H10.5107H9.02148V9ZM13.0107 11V12H11.0107V11H13.0107ZM4 9.5C4 9.22461 4.22461 9 4.5 9H8.02148V10H4V9.5ZM20 15.5C20 15.7754 19.7754 16 19.5 16H4.5C4.22461 16 4 15.7754 4 15.5V11H10.0107V12.5C10.0107 12.7764 10.2344 13 10.5107 13H13.5107C13.7871 13 14.0107 12.7764 14.0107 12.5V11H20V15.5ZM20 10H16.0215V9H19.5C19.7754 9 20 9.22461 20 9.5V10Z" "/>
</svg>
