<svg  viewBox="0 0 24 24"  xmlns="http://www.w3.org/2000/svg">
<path fill-rule="evenodd" clip-rule="evenodd" d="M20.9918 9.41115C20.9918 11.2035 19.8715 12.6619 18.4935 12.6619C17.1155 12.6619 15.9952 11.2035 15.9952 9.41115V7.9747H20.9918V9.41115ZM15.9952 6.97508H20.9918V5.99546H15.9952V6.97508ZM21.4914 4.99585H20.9468V2.49981C20.9468 2.22391 20.723 2 20.4471 2C20.1713 2 19.9475 2.22391 19.9475 2.49981V4.99585H16.9696V2.49981C16.9696 2.22391 16.7457 2 16.4699 2C16.1931 2 15.9702 2.22391 15.9702 2.49981V4.99585H15.4956C15.2198 4.99585 14.9959 5.21976 14.9959 5.49565V9.41115C14.868 11.3474 16.1271 13.1027 18.0018 13.6015C18.0008 13.6155 17.9938 13.6265 17.9938 13.6405V19.5213C17.9938 20.6828 17.6661 21.0007 16.4699 21.0007H10.556C10.536 21.0027 10.516 21.0067 10.497 21.0127C10.477 21.0067 10.4571 21.0027 10.4371 21.0007H4.52416C3.35097 21.0007 3.0142 20.6898 3.00221 19.5822C3.32798 18.9445 3.69073 18.3247 4.08846 17.7269C4.87591 18.2148 5.77829 18.4837 6.70465 18.5036C7.72694 18.4966 8.71526 18.1448 9.51171 17.503C12.5446 15.1489 13.464 10.3018 13.2311 9.62306C13.1512 9.40915 12.9533 9.2622 12.7255 9.24721C8.59035 9.24721 5.64838 10.1709 3.98253 11.9922C3.08815 12.9218 2.60049 14.1703 2.62647 15.4608C2.65245 15.7347 2.89228 15.9356 3.1651 15.9136C3.23005 15.9086 3.29201 15.8897 3.34897 15.8607C3.52984 15.7687 3.63777 15.5768 3.62178 15.3749C3.61978 14.3542 4.0215 13.3726 4.73901 12.6459C6.13204 11.1415 8.72725 10.3168 12.2598 10.2508C12.1229 11.4044 11.2635 14.878 8.89813 16.7143C7.67698 17.687 5.96816 17.7659 4.66206 16.9093C5.56244 15.6078 6.73863 14.5202 8.10568 13.7225C8.35151 13.5965 8.44744 13.2947 8.32053 13.0497C8.19362 12.8048 7.89283 12.7089 7.647 12.8358C6.06509 13.7525 4.71203 15.018 3.69073 16.5344C3.06916 17.3951 2.52054 18.3047 2.04887 19.2544C2.01589 19.3273 2.0019 19.4073 2.0069 19.4873C2.0059 19.4983 1.9999 19.5083 1.9999 19.5213C1.9999 21.2356 2.77836 22.0003 4.52416 22.0003H10.4371C10.4571 21.9973 10.477 21.9933 10.497 21.9883C10.516 21.9933 10.536 21.9973 10.556 22.0003H16.4699C18.2147 22.0003 18.9932 21.2366 18.9932 19.5213V13.6405C18.9932 13.6265 18.9862 13.6155 18.9852 13.6015C20.8589 13.1027 22.119 11.3474 21.9911 9.41115V5.49565C21.9911 5.21976 21.7672 4.99585 21.4924 4.99585H21.4914Z" "/>
</svg>
