<svg width="24" height="24" viewBox="0 0 24 24" xmlns="http://www.w3.org/2000/svg">
<path d="M20.8701 4.16402C20.7793 4.06343 20.6504 4.00386 20.5147 3.99996C13.6621 3.79195 8.80371 5.16109 6.11035 8.06246C3.72656 10.6318 3.99024 13.4345 4.00293 13.5527C4.03027 13.8252 4.26074 14.0273 4.55078 13.9961C4.82422 13.9687 5.02442 13.7236 4.99707 13.4492C4.99512 13.4248 4.7793 10.9521 6.86231 8.72261C9.25 6.16695 13.7647 4.85543 19.9443 4.98726C19.7119 6.79195 18.624 12.8427 14.2422 16.1943C11.9091 17.98 9.17145 18.0126 6.48718 16.3439C7.94629 14.3317 10.0212 12.1331 12.7012 10.958C12.9541 10.8466 13.0684 10.5517 12.958 10.2988C12.8477 10.0459 12.5518 9.93355 12.2988 10.042C6.2168 12.7099 3.16406 20.0009 3.03711 20.3095C2.93262 20.5654 3.05469 20.8574 3.30957 20.9619C3.37207 20.9882 3.43652 21 3.5 21C3.69629 21 3.88281 20.8828 3.96289 20.6904C3.9765 20.6568 4.64203 19.0839 5.91632 17.1645C7.3841 18.085 8.89649 18.5673 10.3711 18.5673C11.9453 18.5673 13.4736 18.041 14.8496 16.9892C20.3789 12.7597 20.9766 4.86812 20.999 4.53414C21.0078 4.3984 20.9619 4.26461 20.8701 4.16402Z" />
</svg>
