<svg  viewBox="0 0 24 24"  xmlns="http://www.w3.org/2000/svg">
<path fill-rule="evenodd" clip-rule="evenodd" d="M20 8.5005H4.00025C3.72397 8.5005 3.5 8.27653 3.5 8.00025C3.5 7.72397 3.72397 7.5 4.00025 7.5H20C20.2763 7.5 20.5003 7.72397 20.5003 8.00025C20.5003 8.27653 20.2763 8.5005 20 8.5005ZM20 12.504H4.00025C3.72397 12.504 3.5 12.28 3.5 12.0038C3.5 11.7275 3.72397 11.5035 4.00025 11.5035H20C20.2763 11.5035 20.5003 11.7275 20.5003 12.0038C20.5003 12.28 20.2763 12.504 20 12.504ZM20 16.5015H4.00025C3.72397 16.5015 3.5 16.2775 3.5 16.0013C3.5 15.725 3.72397 15.501 4.00025 15.501H20C20.2763 15.501 20.5003 15.725 20.5003 16.0013C20.5003 16.2775 20.2763 16.5015 20 16.5015Z" "/>
</svg>
