<svg width="24" height="24" viewBox="0 0 24 24" xmlns="http://www.w3.org/2000/svg">
<path d="M12.0049 13.5C12.0049 13.7764 12.2285 14 12.5049 14H13.1992C13.5669 15.2737 14.4445 16 15.7007 16C16.2969 16 16.8989 15.709 17.311 15.2207C17.4888 15.0098 17.4624 14.6943 17.2515 14.5166C17.0386 14.3379 16.7236 14.3652 16.5469 14.5762C16.3223 14.8418 16.0063 15 15.7007 15C14.9163 15 14.4927 14.5546 14.2623 14H15.1753C15.4517 14 15.6753 13.7764 15.6753 13.5C15.6753 13.2236 15.4517 13 15.1753 13H14.0309C14.0148 12.824 14.0049 12.653 14.0049 12.501C14.0049 12.3485 14.0149 12.1767 14.0312 12H15.8311C16.1074 12 16.3311 11.7764 16.3311 11.5C16.3311 11.2236 16.1074 11 15.8311 11H14.2643C14.4963 10.4454 14.9224 10 15.7109 10C16.0459 10 16.4199 10.2412 16.625 10.4648C16.8115 10.667 17.1284 10.6807 17.3315 10.4951C17.5352 10.3086 17.5488 9.99219 17.3623 9.78906C17.0122 9.40723 16.3945 9 15.7109 9C14.4742 9 13.5873 9.73981 13.2094 11H12.5049C12.2285 11 12.0049 11.2236 12.0049 11.5C12.0049 11.7764 12.2285 12 12.5049 12H13.036C13.0225 12.1644 13.0049 12.3254 13.0049 12.501C13.0049 12.6763 13.022 12.8362 13.0347 13H12.5049C12.2285 13 12.0049 13.2236 12.0049 13.5ZM19.5 7H2.5C2.22363 7 2 7.22363 2 7.5V17.5C2 17.7764 2.22363 18 2.5 18H19.5C19.7764 18 20 17.7764 20 17.5V7.5C20 7.22363 19.7764 7 19.5 7ZM6 17H3V8H6V17ZM19 17H7V8H19V17ZM21.5 5H4.5C4.22363 5 4 5.22363 4 5.5C4 5.77637 4.22363 6 4.5 6H21V15.5C21 15.7764 21.2236 16 21.5 16C21.7764 16 22 15.7764 22 15.5V5.5C22 5.22363 21.7764 5 21.5 5Z" />
</svg>
