<svg  viewBox="0 0 24 24"  xmlns="http://www.w3.org/2000/svg">
<path d="M15.7498 8.00025H8.24975C7.97347 8.00025 7.7495 7.77628 7.7495 7.5C7.7495 7.22372 7.97347 6.99975 8.24975 6.99975H15.7498C16.026 6.99975 16.25 7.22372 16.25 7.5C16.25 7.77628 16.026 8.00025 15.7498 8.00025Z" "/>
<path d="M15.7498 11.0003H8.24975C7.97347 11.0003 7.7495 10.7763 7.7495 10.5C7.7495 10.2237 7.97347 9.99975 8.24975 9.99975H15.7498C16.026 9.99975 16.25 10.2237 16.25 10.5C16.25 10.7763 16.026 11.0003 15.7498 11.0003Z" "/>
<path d="M8.24975 14.0003H15.7498C16.026 14.0003 16.25 13.7763 16.25 13.5C16.25 13.2237 16.026 12.9998 15.7498 12.9998H8.24975C7.97347 12.9998 7.7495 13.2237 7.7495 13.5C7.7495 13.7763 7.97347 14.0003 8.24975 14.0003Z" "/>
<path fill-rule="evenodd" clip-rule="evenodd" d="M18.5 3H5.50025C5.22397 3 5 3.22397 5 3.50025V20.4975C5 20.7735 5.2235 20.9978 5.50025 20.9978H18.5C18.7763 20.9978 19.0003 20.7738 19.0003 20.4975V3.50025C19.0003 3.22397 18.7763 3 18.5 3ZM17.9998 19.9973H5.99975V3.99975H17.9998V19.9973Z" "/>
</svg>
