<svg  viewBox="0 0 24 24"  xmlns="http://www.w3.org/2000/svg">
<path d="M22.92 10.125C22.6846 8.92769 21.5284 6.64448 20.6543 6.30073C20.4351 6.21455 20.1553 6.17 19.846 6.14924C19.0906 5.9322 18.5721 5.70027 18.1163 5.49507C16.6719 4.84565 15.9649 4.64155 12.8907 6.12495C12.2222 6.44624 11.4742 6.91792 10.608 7.4648C10.169 7.74214 9.69731 8.03901 9.1895 8.34663C7.60405 9.30562 6.13188 10.6171 4.83257 11.7744C4.38311 12.1748 3.96538 12.5459 3.58403 12.8659C2.9019 13.2644 2.47051 13.6304 2.00493 14.1113C1.58403 14.5449 0.304248 15.8662 1.50835 17.2031C2.03716 17.7919 2.17339 17.8916 2.52495 18.121C2.60845 18.1748 2.70757 18.2392 2.8355 18.3281C3.51714 18.7998 4.79985 19.0039 6.36577 19.0039C8.97222 19.0039 12.3624 18.4365 15.0655 17.5888C22.3223 15.3115 23.3428 12.2734 22.92 10.125ZM9.70708 9.2021C10.2208 8.89155 10.6973 8.59077 11.1412 8.3105C11.9815 7.78023 12.7076 7.32222 13.3243 7.02534C16.0469 5.71418 16.5252 5.878 17.6407 6.37849C16.8338 6.56343 15.9568 6.84675 15.0733 7.22358C14.0899 7.64253 12.8033 8.4228 11.6675 9.1103C10.8638 9.59761 10.1045 10.0576 9.76519 10.1914C8.58745 10.6546 7.62456 11.0385 6.8123 11.3724C7.72759 10.5882 8.69878 9.81184 9.70708 9.2021ZM14.7667 16.6337C10.3843 18.0097 4.7564 18.4414 3.40483 17.5058C3.26665 17.4101 3.1602 17.3408 3.07036 17.2822C2.79253 17.1015 2.71782 17.0527 2.25151 16.5341C1.94634 16.1953 1.75298 15.8085 2.7227 14.8066C2.81084 14.7156 2.89702 14.6309 2.98394 14.5482C2.98882 14.5455 2.99468 14.5467 2.99956 14.5439C3.34697 14.3378 3.73687 14.0405 4.16387 13.6849C5.13384 13.1329 6.74932 12.452 10.1314 11.121C10.5499 10.957 11.2715 10.5195 12.1856 9.96577C13.293 9.29487 14.5479 8.53511 15.4659 8.14351C17.128 7.4355 18.6192 7.12886 19.5499 7.12886C19.8643 7.12886 20.1153 7.16401 20.2862 7.23042C20.6299 7.39351 21.7012 9.10542 21.9395 10.3183C22.5616 13.4834 18.3819 15.5 14.7667 16.6337Z" "/>
</svg>
