<svg  viewBox="0 0 24 24"  xmlns="http://www.w3.org/2000/svg">
<path fill-rule="evenodd" clip-rule="evenodd" d="M17.6149 14.9691H12.5745C13.0269 13.9264 13.2456 12.798 13.2125 11.6635C13.1322 11.4502 12.9326 11.3027 12.7039 11.2887C11.1071 11.2668 9.51321 11.4472 7.96248 11.827C7.99458 10.6079 8.6907 9.50435 9.78003 8.94511C9.79908 8.93813 9.81714 8.92916 9.83419 8.92019C10.0769 8.7876 10.1662 8.48456 10.0328 8.24332C9.85525 7.91934 9.76097 7.55548 9.76097 7.18565C9.77902 5.92562 10.8202 4.91779 12.0881 4.93374L12.1994 4.93673C12.4662 4.9457 12.6959 4.74633 12.72 4.48017C12.8233 3.56505 13.6528 2.90513 14.5736 3.0078C15.357 3.09453 15.9739 3.71258 16.0562 4.49113C16.0672 4.62571 16.1314 4.75032 16.2357 4.83605C16.341 4.92078 16.4754 4.96065 16.6099 4.9477C16.6971 4.93773 16.7854 4.93374 16.8727 4.93374C18.1405 4.91779 19.1817 5.92562 19.1998 7.18565C19.1998 7.55548 19.1055 7.91934 18.9279 8.24332C18.7945 8.48556 18.8838 8.7876 19.1265 8.92019C19.1305 8.92318 19.1346 8.92517 19.1396 8.92717C20.273 9.49039 20.9922 10.6418 20.9972 11.9018C20.9942 13.6054 19.602 14.9841 17.8878 14.9811C17.7975 14.9811 17.7062 14.9771 17.6149 14.9691ZM13.9758 18.9566H14.9789V15.966H13.9758V18.9566ZM20.0102 8.27821C20.1376 7.92831 20.2028 7.55847 20.2028 7.18565C20.1858 5.41423 18.7554 3.97675 16.972 3.93788C16.5647 2.51934 15.0772 1.69793 13.6488 2.10365C12.7521 2.35885 12.053 3.05665 11.8002 3.94884C10.095 4.08043 8.77396 5.486 8.75791 7.18565C8.75791 7.55648 8.82311 7.92532 8.95049 8.27422C7.70871 9.06872 6.95641 10.4344 6.95441 11.9018C6.95441 11.9796 6.97447 12.0513 6.97848 12.1271C5.82195 12.5039 4.77576 13.1558 3.93018 14.0261C3.03144 14.9532 2.54195 16.1983 2.56903 17.4852C2.59511 17.7594 2.83986 17.9607 3.1147 17.9348C3.38753 17.9089 3.58914 17.6706 3.56808 17.3995C3.56507 16.3807 3.9693 15.4028 4.6895 14.6771C6.08776 13.1768 8.69171 12.3554 12.2375 12.2896C12.0991 13.439 11.2375 16.903 8.86323 18.7343C7.64451 19.7002 5.94031 19.784 4.63232 18.9416C5.52304 17.6367 6.69662 16.5462 8.0678 15.7517C8.31456 15.6251 8.40985 15.324 8.28246 15.0798C8.15507 14.8356 7.85315 14.7409 7.6064 14.8665C6.01655 15.7846 4.66141 17.0576 3.65033 18.5838C3.04047 19.4401 2.50383 20.3472 2.04644 21.2922C1.93008 21.5424 2.03942 21.8385 2.29118 21.9541C2.54295 22.0698 2.84086 21.9611 2.95722 21.7109L2.95822 21.7069C3.28522 21.036 3.65535 20.3861 4.06459 19.762C4.84798 20.2375 5.74472 20.4997 6.66252 20.5197C7.68764 20.5137 8.67967 20.1618 9.4781 19.5218C10.6427 18.5648 11.5615 17.3457 12.1583 15.965H12.9728V19.454C12.9728 19.7292 13.1974 19.9524 13.4733 19.9524H13.4743H15.4804C15.7573 19.9534 15.9819 19.7301 15.9819 19.455V15.965H17.6149C19.8768 16.1185 21.8358 14.4209 21.9903 12.1729C21.9973 12.0822 22.0003 11.9925 22.0003 11.9018C21.9983 10.4364 21.249 9.07171 20.0102 8.27821Z" "/>
</svg>
