<svg  viewBox="0 0 24 24"  xmlns="http://www.w3.org/2000/svg">
<path fill-rule="evenodd" clip-rule="evenodd" d="M9.5 18H12.5C12.7764 18 13 17.7764 13 17.5V3.5C13 3.22363 12.7764 3 12.5 3H9.5C9.22363 3 9 3.22363 9 3.5V17.5C9 17.7764 9.22363 18 9.5 18ZM10 4H12V17H10V4Z" />
<path fill-rule="evenodd" clip-rule="evenodd" d="M17.5 18.0293H14.5C14.2236 18.0293 14 17.8057 14 17.5293V7.5293C14 7.25293 14.2236 7.0293 14.5 7.0293H17.5C17.7764 7.0293 18 7.25293 18 7.5293V17.5293C18 17.8057 17.7764 18.0293 17.5 18.0293ZM17 8.0293H15V17.0293H17V8.0293Z" />
<path fill-rule="evenodd" clip-rule="evenodd" d="M7.5 18H4.5C4.22363 18 4 17.7764 4 17.5V10.5C4 10.2236 4.22363 10 4.5 10H7.5C7.77637 10 8 10.2236 8 10.5V17.5C8 17.7764 7.77637 18 7.5 18ZM7 11H5V17H7V11Z" />
<path d="M21.8539 19.1752C21.9003 19.2214 21.9371 19.2769 21.9625 19.3384C22.0131 19.4606 22.0131 19.598 21.9625 19.7202C21.9371 19.7817 21.9003 19.8372 21.8539 19.8834L20.6045 21.1338C20.5068 21.2314 20.3789 21.2803 20.251 21.2803C20.123 21.2803 19.9951 21.2314 19.8975 21.1338C19.7021 20.9385 19.7021 20.6221 19.8975 20.4268L20.2945 20.0293H3.00098V20.7793C3.00098 21.0557 2.77734 21.2793 2.50098 21.2793C2.22461 21.2793 2.00098 21.0557 2.00098 20.7793V18.2793C2.00098 18.0029 2.22461 17.7793 2.50098 17.7793C2.77734 17.7793 3.00098 18.0029 3.00098 18.2793V19.0293H20.2939L19.8975 18.6328C19.7021 18.4375 19.7021 18.1211 19.8975 17.9258C20.0928 17.7305 20.4092 17.7305 20.6045 17.9258L21.8539 19.1752Z" />
</svg>
