<svg  viewBox="0 0 24 24"  xmlns="http://www.w3.org/2000/svg">
<path d="M6.50391 15.0034L5.50391 14.9966C5.50195 14.9966 5.50098 14.9966 5.5 14.9966C5.22559 14.9966 5.00195 15.2183 5 15.4932C4.99805 15.7695 5.2207 15.9946 5.49609 15.9966L6.49609 16.0034C6.49805 16.0034 6.49902 16.0034 6.5 16.0034C6.77441 16.0034 6.99805 15.7817 7 15.5068C7.00195 15.2305 6.7793 15.0054 6.50391 15.0034ZM6.93066 10.9014C6.70605 10.7446 6.39355 10.8008 6.23535 11.0293C6.0791 11.2568 6.13672 11.5684 6.36426 11.7246L7.1875 12.2915C7.27344 12.3516 7.37207 12.3799 7.4707 12.3799C7.62891 12.3799 7.78516 12.3042 7.88281 12.1636C8.03906 11.936 7.98145 11.6245 7.75391 11.4683L6.93066 10.9014ZM10.4102 10.2349C10.458 10.2349 10.5068 10.228 10.5547 10.2134C10.8193 10.1338 10.9688 9.85449 10.8887 9.59033L10.5996 8.63281C10.5195 8.36816 10.2383 8.21777 9.97656 8.29883C9.71191 8.37842 9.5625 8.65771 9.64258 8.92188L9.93164 9.87939C9.99707 10.0957 10.1953 10.2349 10.4102 10.2349ZM14.0459 10.3945C14.2441 10.3945 14.4316 10.2759 14.5098 10.0806L14.8818 9.15234C14.9844 8.896 14.8604 8.60498 14.6035 8.50244C14.3506 8.39844 14.0566 8.52344 13.9541 8.78027L13.582 9.7085C13.4795 9.96484 13.6035 10.2559 13.8594 10.3584C13.9209 10.3833 13.9834 10.3945 14.0459 10.3945ZM19.0469 9.41827L20.8271 7.87793C21.0361 7.69727 21.0586 7.38184 20.8779 7.17285C20.6973 6.96289 20.3818 6.94141 20.1729 7.12207L18.3868 8.66742C16.7551 7.02179 14.4952 6 12 6C7.03711 6 3 10.0376 3 15C3 15.1772 3.00488 15.3535 3.01562 15.5283C3.03125 15.7939 3.25195 15.999 3.51465 15.999C3.52441 15.999 3.53418 15.9985 3.54395 15.998C3.82031 15.9819 4.03027 15.7451 4.01367 15.4697C4.00488 15.3145 4 15.1577 4 15C4 10.5889 7.58887 7 12 7C14.1934 7 16.1825 7.88849 17.6292 9.32306L13.0357 13.2976C12.7326 13.1125 12.3804 13 12 13C10.8975 13 10 13.897 10 15C10 16.103 10.8975 17 12 17C13.1025 17 14 16.103 14 15C14 14.6412 13.8975 14.3091 13.7314 14.0177L18.2899 10.0733C19.3573 11.433 20 13.1413 20 15C20 15.1577 19.9951 15.3145 19.9863 15.4697C19.9697 15.7451 20.1797 15.9819 20.4561 15.998C20.4658 15.9985 20.4756 15.999 20.4854 15.999C20.748 15.999 20.9688 15.7939 20.9844 15.5283C20.9951 15.3535 21 15.1772 21 15C21 12.8915 20.266 10.9541 19.0469 9.41827ZM12 16C11.4482 16 11 15.5513 11 15C11 14.4487 11.4482 14 12 14C12.5518 14 13 14.4487 13 15C13 15.5513 12.5518 16 12 16Z" "/>
</svg>
