<svg  viewBox="0 0 24 24"  xmlns="http://www.w3.org/2000/svg">
<path fill-rule="evenodd" clip-rule="evenodd" d="M10.53 19.027H4.598C4.028 19.03 3.499 18.724 3.217 18.228C2.929 17.736 2.928 17.128 3.216 16.634H3.217L5.579 12.542L5.912 13.879C5.979 14.147 6.25 14.31 6.518 14.244C6.786 14.177 6.949 13.906 6.883 13.637L6.263 11.149C6.196 10.881 5.925 10.718 5.657 10.785L3.167 11.404C2.899 11.472 2.736 11.743 2.803 12.012C2.87 12.28 3.142 12.443 3.41 12.376L4.707 12.052L2.352 16.131L2.35 16.133C2.123 16.525 2.002 16.969 2 17.422V17.441C2.002 17.883 2.118 18.326 2.35 18.728C2.81 19.536 3.669 20.032 4.598 20.027H10.53C10.806 20.027 11.03 19.802 11.03 19.527C11.03 19.251 10.806 19.027 10.53 19.027ZM13.428 3.798L16.06 8.355L14.726 8.035C14.457 7.97 14.188 8.136 14.123 8.404C14.059 8.673 14.224 8.944 14.493 9.007L16.986 9.606C17.253 9.671 17.523 9.507 17.588 9.24C17.588 9.238 17.589 9.237 17.589 9.235L18.188 6.742C18.252 6.473 18.087 6.203 17.818 6.139C17.549 6.074 17.28 6.24 17.215 6.508L16.902 7.814L14.295 3.298C13.825 2.485 12.985 2 12.047 2C11.109 2 10.27 2.485 9.8 3.298L6.66 8.735C6.52 8.973 6.6 9.279 6.839 9.419C7.077 9.558 7.383 9.479 7.523 9.24C7.524 9.238 7.525 9.236 7.526 9.235L9.376 6.035V6.033L10.666 3.798C10.955 3.298 11.471 3.001 12.047 3.001C12.618 2.998 13.146 3.303 13.428 3.798ZM21.749 16.133L18.837 11.09C18.7 10.851 18.396 10.767 18.155 10.903C17.915 11.04 17.831 11.345 17.968 11.585L17.971 11.59L20.883 16.633C21.171 17.133 21.172 17.729 20.883 18.228C20.595 18.728 20.078 19.027 19.502 19.027H14.154L15.104 18.043C15.288 17.837 15.271 17.521 15.066 17.337C14.871 17.162 14.574 17.167 14.386 17.347L12.603 19.193C12.411 19.391 12.416 19.708 12.615 19.9L14.461 21.68C14.658 21.873 14.974 21.868 15.165 21.671L15.168 21.668C15.36 21.468 15.354 21.152 15.155 20.961L14.187 20.027H19.502C20.44 20.027 21.28 19.541 21.749 18.728C21.983 18.325 22.099 17.881 22.1 17.439V17.423C22.098 16.97 21.977 16.525 21.749 16.133Z" />
</svg>
