<svg  viewBox="0 0 24 24"  xmlns="http://www.w3.org/2000/svg">
<path fill-rule="evenodd" clip-rule="evenodd" d="M11.7336 12.0019L19.1294 16.9437C19.6439 17.2872 19.1991 17.7529 18.8414 17.9464C18.3029 18.2382 17.6909 18.4474 17.0736 18.4474C16.5899 18.4474 16.1646 18.2787 15.7401 18.0619L8.56186 14.0982L7.11211 15.0634C7.53409 15.182 7.89704 15.453 8.13061 15.8239C8.62936 16.5867 8.38486 17.5519 7.88761 18.2472C7.23436 19.1592 6.09886 19.8109 4.96636 19.8109C4.17136 19.8109 3.37561 19.4209 3.09886 18.6372C2.84986 17.9322 3.10111 17.1589 3.51961 16.5739C3.74432 16.2716 4.01483 16.0061 4.32136 15.7872L4.32286 15.7849L4.35136 15.7662C4.43448 15.7064 4.51953 15.6494 4.60636 15.5952L8.19361 13.1884L8.19661 12.0019L8.19361 10.8334L4.73011 8.51666C4.19657 8.21409 3.74439 7.78662 3.41236 7.27091C2.92411 6.49541 2.79661 5.43641 3.49411 4.73891C4.24786 3.98591 5.47936 4.10366 6.36961 4.51916C7.32061 4.96316 8.20936 5.82941 8.38036 6.90341C8.53561 7.88216 7.93711 8.64791 7.08211 8.90441L8.57311 9.89891L15.7266 5.94866C16.5734 5.50991 17.3661 5.41466 18.2669 5.77016C18.5458 5.87663 18.8118 6.01452 19.0596 6.18116C19.3589 6.38891 19.4909 6.81866 19.1294 7.06016L17.3736 8.23316L17.3714 8.23541L11.7336 12.0019ZM4.95661 5.18891C4.02511 5.18891 3.80836 5.98616 4.23436 6.69566C4.68511 7.44716 5.63236 8.03816 6.52411 7.99541C7.32736 7.95716 7.58236 7.28141 7.24036 6.61166C6.82861 5.80616 5.86486 5.18891 4.95661 5.18891ZM7.29211 16.3722C7.67086 16.9519 7.10011 17.7214 6.68161 18.0957C6.13786 18.5809 5.24986 18.9994 4.51261 18.7414C3.78736 18.4879 3.96736 17.6839 4.31161 17.1874C4.77511 16.5192 5.61586 16.0107 6.44086 16.0107C6.75211 16.0107 7.11136 16.0947 7.29286 16.3714L7.29211 16.3722ZM16.1961 6.83216L9.20011 10.6954L9.19486 12.4954L17.8806 6.69191C17.2679 6.45491 16.7616 6.52391 16.1961 6.83216ZM16.8899 17.4349C16.7317 17.409 16.5783 17.3597 16.4346 17.2887C16.417 17.2807 16.3936 17.2665 16.3679 17.2511C16.3139 17.2185 16.25 17.1799 16.2089 17.1799L9.51511 13.4839L10.8321 12.6034L17.8551 17.2962C17.5499 17.4049 17.2146 17.4784 16.8899 17.4349Z" "/>
<path d="M14.6549 12.5024C14.0114 12.5024 14.0099 11.5024 14.6549 11.5024H15.5129C16.1564 11.5024 16.1579 12.5024 15.5129 12.5024H14.6549Z" "/>
<path d="M19.8021 11.5024H20.5026C21.1461 11.5024 21.1476 12.5024 20.5026 12.5024H19.8021C19.1586 12.5024 19.1571 11.5024 19.8021 11.5024Z" "/>
<path d="M17.2289 11.5024C16.5839 11.5024 16.5854 12.5024 17.2289 12.5024H18.0869C18.7319 12.5024 18.7304 11.5024 18.0869 11.5024H17.2289Z" "/>
</svg>
