<svg  viewBox="0 0 24 24"  xmlns="http://www.w3.org/2000/svg">
<path fill-rule="evenodd" clip-rule="evenodd" d="M9.6248 7.98749L9.703 8.0142L18.703 12.0097L18.723 12.0257C18.7668 12.0486 18.8068 12.078 18.8417 12.1126L18.9102 12.1956L18.959 12.2684C18.977 12.3093 18.9892 12.3529 18.9954 12.3976L19 12.4652V18.4584C19 18.6296 18.9133 18.7862 18.7733 18.8777L18.699 18.9179L11.699 21.9584C11.5958 22.0033 11.4813 22.0118 11.3739 21.9841L11.295 21.9564L2.295 17.916C2.14113 17.8469 2.0343 17.706 2.00692 17.5434L2 17.4605L2.001 11.4623C2.00122 11.3934 2.01587 11.3254 2.044 11.2625L2.112 11.1666C2.15771 11.1059 2.21694 11.0567 2.285 11.0228L2.303 11.0078L9.303 8.0112C9.40554 7.96844 9.51851 7.96058 9.6248 7.98749ZM18 13.2263L12 15.8144V20.7388L18 18.1318V13.2263ZM3 12.2364V17.1369L11 20.7288V15.8084L3 12.2364ZM6.34 10.3675L3.747 11.4763L11.504 14.9394L13.786 13.9555L6.34 10.3675ZM9.496 9.01406L7.558 9.84512L14.999 13.4311L17.254 12.4582L9.496 9.01406ZM19.5 7.99322C19.7761 7.99322 20 8.21682 20 8.49265C20 8.76849 19.7761 8.99209 19.5 8.99209C19.2239 8.99209 19 8.76849 19 8.49265C19 8.21682 19.2239 7.99322 19.5 7.99322ZM19.848 2C21.195 2 22 2.74715 22 3.99774C22 4.78822 21.5036 5.21537 21.024 5.51384L20.8057 5.64332L20.4412 5.85314C20.1753 6.01517 20.0377 6.13783 20.0075 6.29927L20.001 6.37105L20 6.62177C19.999 6.86626 19.8223 7.06914 19.5896 7.1112L19.5 7.11921C19.3654 7.11868 19.2384 7.06555 19.145 6.97152C19.0703 6.89629 19.022 6.7998 19.0059 6.6964L19 6.61778L19.001 6.36906C19.001 5.68423 19.4477 5.29539 19.8875 5.01996L20.1048 4.89085L20.209 4.8318C20.759 4.52215 21 4.35034 21 3.99774L20.9941 3.84089C20.9599 3.42032 20.7556 2.99887 19.848 2.99887C19.475 2.99887 19.083 3.1467 18.852 3.37544C18.725 3.50106 18.5405 3.54945 18.3681 3.50239C18.1957 3.45533 18.0615 3.31997 18.0161 3.14729C17.9707 2.97462 18.021 2.79086 18.148 2.66525C18.563 2.25471 19.215 2 19.848 2Z" "/>
</svg>
