<svg  viewBox="0 0 24 24"  xmlns="http://www.w3.org/2000/svg">
<path fill-rule="evenodd" clip-rule="evenodd" d="M20.9768 6.3435C20.9745 6.33675 20.9783 6.32925 20.9753 6.32175L20.9715 6.3165C20.9295 6.21636 20.8557 6.13282 20.7615 6.07875C20.6861 6.02969 20.5987 6.00243 20.5088 6H3.50025C3.41212 6.00201 3.32624 6.02822 3.252 6.07575C3.23476 6.08587 3.21822 6.09714 3.2025 6.1095C3.13143 6.16018 3.07502 6.22874 3.039 6.30825L3.03825 6.309L3.0375 6.3135C3.01306 6.37275 3.00033 6.43616 3 6.50025V17.499C3 17.7758 3.2235 17.9993 3.50025 17.9993H20.5088C20.6415 17.9995 20.7688 17.9468 20.8627 17.853C20.9566 17.7591 21.0092 17.6317 21.009 17.499V6.50025C21.0071 6.44639 20.9964 6.3932 20.9775 6.34275L20.9768 6.3435ZM4.0005 7.632C5.283 8.781 7.674 10.893 9.18675 12.2265L4.0005 16.3733V7.632ZM9.948 12.8978L10.542 13.4213C10.9695 13.8023 11.4638 13.9958 12.0113 13.9958C12.5558 13.9958 13.0605 13.821 13.4393 13.497L14.1045 12.9023L19.1235 17.001H4.81725L9.948 12.8978ZM14.8598 12.2265L20.0093 7.62075V16.4303L14.8598 12.2265ZM19.2015 7.00125C17.181 8.8095 12.7808 12.7433 12.7823 12.7433C12.4065 13.0635 11.7 13.1145 11.2058 12.6728C9.40575 11.088 6.34575 8.38725 4.79475 7.002H19.2008L19.2015 7.00125Z" />
</svg>
