<svg width="12" height="12" viewBox="0 0 12 12" xmlns="http://www.w3.org/2000/svg">
<path d="M8.25293 2C7.1499 2 6.42676 2.60156 5.99512 3.25684C5.56006 2.60205 4.83691 2 3.74756 2C2.23242 2 1 3.3457 1 5C1 6.4209 1.32715 7.59961 5.69873 10.9038C5.7876 10.9712 5.89404 11.0049 6 11.0049C6.10596 11.0049 6.2124 10.9712 6.30127 10.9038C10.6631 7.60693 11 6.37744 11 5C11 3.3457 9.76758 2 8.25293 2ZM6 9.87646C2 6.81152 2 5.93066 2 5C2 3.91602 2.80029 3 3.74756 3C5.13281 3 5.49707 4.54248 5.51123 4.60596C5.56152 4.83643 5.75244 4.97998 6.00293 5C6.23926 4.99854 6.44238 4.83203 6.48975 4.6001C6.50342 4.53467 6.8335 3 8.25293 3C9.19971 3 10 3.91602 10 5C10 5.84863 10 6.80762 6 9.87646Z" fill="#222222"/>
</svg>
