<svg  viewBox="0 0 24 24"  xmlns="http://www.w3.org/2000/svg">
<path fill-rule="evenodd" clip-rule="evenodd" d="M21.2259 7.71C20.9121 7.9 20.5563 8 20.1964 8C19.4788 8 18.8472 7.603 18.4434 7H19.4908C19.7668 7 19.9906 6.77614 19.9906 6.5C19.9906 6.22386 19.7668 6 19.4908 6H18.0366C17.9771 5.66932 17.9771 5.33068 18.0366 5H19.4908C19.7668 5 19.9906 4.77614 19.9906 4.5C19.9906 4.22386 19.7668 4 19.4908 4H18.4434C18.8462 3.397 19.4788 3 20.1964 3C20.5613 3 20.9101 3.099 21.2309 3.293C21.3838 3.39107 21.5777 3.39847 21.7376 3.31234C21.8975 3.2262 21.9981 3.06007 22.0005 2.87841C22.0027 2.69675 21.9063 2.52814 21.7486 2.438C21.2809 2.15291 20.7441 2.00143 20.1964 2C18.9231 2 17.8297 2.822 17.314 4H16.4924C16.2164 4 15.9927 4.22386 15.9927 4.5C15.9927 4.77614 16.2164 5 16.4924 5H17.0381C17.0161 5.165 16.9921 5.329 16.9921 5.5C16.9921 5.671 17.0161 5.835 17.0381 6H16.4924C16.2164 6 15.9927 6.22386 15.9927 6.5C15.9927 6.77614 16.2164 7 16.4924 7H17.314C17.8297 8.178 18.9231 9 20.1964 9C20.7372 9 21.2719 8.85 21.7416 8.567C21.9682 8.42036 22.0375 8.12027 21.8982 7.88907C21.7744 7.68355 21.5255 7.59844 21.3064 7.67474L21.2259 7.71ZM14.4934 8H3.49923C3.23834 7.99976 3.02135 8.20074 3.00149 8.461L2.00201 21.461C1.99115 21.5999 2.03869 21.737 2.13317 21.8393C2.22766 21.9416 2.36052 22 2.49975 22H15.4929C15.6322 22 15.765 21.9416 15.8595 21.8393C15.954 21.737 16.0015 21.5999 15.9907 21.461L14.9912 8.461C14.9713 8.20074 14.7543 7.99976 14.4934 8ZM14.0307 9L14.9532 21H3.03947L3.96198 9H14.0307ZM11.1622 10.605C10.8862 10.605 10.6625 10.8289 10.6625 11.105C10.6625 12.547 9.79891 13.203 8.99734 13.203C8.19476 13.203 7.33121 12.547 7.33121 11.105C7.33121 10.8289 7.10747 10.605 6.83147 10.605C6.55548 10.605 6.33174 10.8289 6.33174 11.105C6.33174 13.139 7.67303 14.203 8.99734 14.203C10.3206 14.203 11.6619 13.139 11.6619 11.105C11.6619 10.8289 11.4382 10.605 11.1622 10.605Z" />
</svg>
