<svg viewBox="0 0 24 24" xmlns="http://www.w3.org/2000/svg">
<path fill-rule="evenodd" clip-rule="evenodd" d="M19.7379 20.0194H4.27129C3.99499 20.0194 3.77101 20.2434 3.77101 20.5197C3.77101 20.796 3.99499 21.02 4.27129 21.02H19.7379C20.0142 21.02 20.2382 20.796 20.2382 20.5197C20.2382 20.2434 20.0142 20.0194 19.7379 20.0194ZM4.27129 18.9694C4.34104 18.9694 4.41079 18.9544 4.4768 18.9251L6.18164 18.1556L6.18464 18.1541L9.50957 16.6525C9.56481 16.6278 9.61493 16.5929 9.65733 16.5497L19.2586 6.94698C19.9719 6.23519 19.9441 5.28638 19.1881 4.52959L18.2318 3.57479C17.892 3.23502 17.5013 3.03551 17.1022 2.99726C16.779 2.96426 16.2929 3.02876 15.8159 3.50354L6.21314 13.1063C6.17087 13.1483 6.13657 13.1976 6.11189 13.2518L3.81601 18.2606C3.7445 18.4153 3.75695 18.5959 3.84903 18.7393C3.94112 18.8827 4.10008 18.9692 4.27054 18.9686L4.27129 18.9694ZM14.8416 5.89317L16.8705 7.92203L9.41282 15.3804L7.38321 13.3508L14.8416 5.89317ZM16.5232 4.21158C16.6852 4.04882 16.8465 3.97981 17.0077 3.99406C17.1705 4.00907 17.3542 4.11257 17.5253 4.28283L18.4816 5.23763C19.0178 5.77466 18.6668 6.12568 18.5521 6.24044L17.5785 7.21474L15.5497 5.18588L16.5232 4.21158ZM6.79067 14.1721L8.58927 15.9707L6.10289 17.0935L5.65661 16.6473L6.79067 14.1721Z" "/>
</svg>
