<svg  viewBox="0 0 24 24"  xmlns="http://www.w3.org/2000/svg">
<path d="M16.2563 10C16.5327 10 16.7563 9.77638 16.7563 9.50002C16.7563 9.22365 16.5327 9.00002 16.2563 9.00002H14.6803L15.1729 4.67677C15.2041 4.40236 15.0073 4.15431 14.7329 4.12306C14.4517 4.09084 14.2104 4.28908 14.1797 4.56349L13.6742 9.00002H10.4918L10.9844 4.67677C11.0156 4.40236 10.8188 4.15431 10.5444 4.12306C10.2666 4.09084 10.022 4.28908 9.99121 4.56349L9.48572 9.00002H7.75635C7.47998 9.00002 7.25635 9.22365 7.25635 9.50002C7.25635 9.77638 7.47998 10 7.75635 10H9.37183L8.91608 14H7.27197C6.99561 14 6.77197 14.2236 6.77197 14.5C6.77197 14.7764 6.99561 15 7.27197 15H8.80212L8.2959 19.4434C8.26465 19.7178 8.46143 19.9658 8.73584 19.9971C8.75488 19.999 8.77441 20 8.79297 20C9.04395 20 9.26025 19.8115 9.28906 19.5567L9.80823 15H12.9906L12.4844 19.4434C12.4531 19.7178 12.6499 19.9658 12.9243 19.9971C12.9434 19.999 12.9629 20 12.9814 20C13.2324 20 13.4487 19.8115 13.4775 19.5567L13.9967 15H15.772C16.0483 15 16.272 14.7764 16.272 14.5C16.272 14.2236 16.0483 14 15.772 14H14.1106L14.5663 10H16.2563ZM13.1046 14H9.92212L10.3779 10H13.5603L13.1046 14Z" "/>
</svg>
