<svg width="24" height="24" viewBox="0 0 24 24" xmlns="http://www.w3.org/2000/svg">
<path d="M12.832 14C14.2104 14 15.332 12.8789 15.332 11.5C15.332 10.1211 14.2104 9 12.832 9C11.4536 9 10.332 10.1211 10.332 11.5C10.332 12.8789 11.4536 14 12.832 14ZM12.832 10C13.6592 10 14.332 10.6729 14.332 11.5C14.332 12.3271 13.6592 13 12.832 13C12.0049 13 11.332 12.3271 11.332 11.5C11.332 10.6729 12.0049 10 12.832 10Z"/>
<path d="M8.83203 5H16.832C17.1084 5 17.332 5.22363 17.332 5.5V16.5C17.332 16.7764 17.1084 17 16.832 17H8.83203C8.55566 17 8.33203 16.7764 8.33203 16.5V5.5C8.33203 5.22363 8.55566 5 8.83203 5ZM13.332 6H9.33203V7.01562H13.332V6ZM16.332 16V8.01562H9.33203V16H16.332ZM14.332 7.01562H16.332V6H14.332V7.01562Z"/>
<path d="M2.1564 22.1412C2.1564 21.8651 2.38026 21.6412 2.6564 21.6412H8.50015C8.77629 21.6412 9.00015 21.8651 9.00015 22.1412C9.00015 22.4174 8.77629 22.6412 8.50015 22.6412H2.6564C2.38026 22.6412 2.1564 22.4174 2.1564 22.1412Z"/>
<path d="M8.00015 19.5583C8.00015 19.2822 8.22401 19.0583 8.50015 19.0583H19.8517C20.1279 19.0583 20.3517 19.2822 20.3517 19.5583C20.3517 19.8345 20.1279 20.0583 19.8517 20.0583H8.50015C8.22401 20.0583 8.00015 19.8345 8.00015 19.5583Z"/>
<path d="M8.50015 19.0583C8.77629 19.0583 9.00015 19.2822 9.00015 19.5583V22.1412C9.00015 22.4174 8.77629 22.6412 8.50015 22.6412C8.22401 22.6412 8.00015 22.4174 8.00015 22.1412V19.5583C8.00015 19.2822 8.22401 19.0583 8.50015 19.0583Z"/>
</svg>