<svg  viewBox="0 0 24 24"  xmlns="http://www.w3.org/2000/svg">
<path d="M17.5 4H20.5C20.7764 4 21 3.77637 21 3.5C21 3.22363 20.7764 3 20.5 3H17.5C17.2236 3 17 3.22363 17 3.5C17 3.77637 17.2236 4 17.5 4Z" />
<path d="M20.5 6H17.5C17.2236 6 17 5.77637 17 5.5C17 5.22363 17.2236 5 17.5 5H20.5C20.7764 5 21 5.22363 21 5.5C21 5.77637 20.7764 6 20.5 6Z" />
<path fill-rule="evenodd" clip-rule="evenodd" d="M22.5 0.998047H15.5C15.2236 0.998047 15 1.22168 15 1.49805V7.50098C15 7.77734 15.2236 8.00098 15.5 8.00098H16.999V9.48584C16.999 9.68018 17.1118 9.85693 17.2881 9.93896C17.3555 9.9707 17.4272 9.98584 17.499 9.98584C17.6147 9.98584 17.729 9.9458 17.8213 9.86816L20.0391 8.00098L22.5005 7.99756C22.7764 7.99707 23 7.77344 23 7.49756V1.49805C23 1.22168 22.7764 0.998047 22.5 0.998047ZM22 6.99805L19.856 7.00098C19.7383 7.00098 19.6245 7.04297 19.5342 7.11865L17.999 8.41113V7.50098C17.999 7.22461 17.7754 7.00098 17.499 7.00098H16V1.99805H22V6.99805Z" />
<path d="M3.5 6H6.5C6.77637 6 7 5.77637 7 5.5C7 5.22363 6.77637 5 6.5 5H3.5C3.22363 5 3 5.22363 3 5.5C3 5.77637 3.22363 6 3.5 6Z" />
<path d="M7 7.5C7 7.22363 6.77637 7 6.5 7H3.5C3.22363 7 3 7.22363 3 7.5C3 7.77637 3.22363 8 3.5 8H6.5C6.77637 8 7 7.77637 7 7.5Z" />
<path fill-rule="evenodd" clip-rule="evenodd" d="M3.96094 10.001L1.49951 9.99756C1.22363 9.99707 1 9.77344 1 9.49756V3.49805C1 3.22168 1.22363 2.99805 1.5 2.99805H8.5C8.77637 2.99805 9 3.22168 9 3.49805V9.50098C9 9.77734 8.77637 10.001 8.5 10.001H7.00098V11.4858C7.00098 11.6802 6.88818 11.8569 6.71191 11.939C6.64453 11.9707 6.57275 11.9858 6.50098 11.9858C6.38525 11.9858 6.271 11.9458 6.17871 11.8682L3.96094 10.001ZM8 3.99805H2V8.99805L4.14404 9.00098C4.26172 9.00098 4.37549 9.04297 4.46582 9.11865L6.00098 10.4111V9.50098C6.00098 9.22461 6.22461 9.00098 6.50098 9.00098H8V3.99805Z" />
<path fill-rule="evenodd" clip-rule="evenodd" d="M19.8579 17.8262C19.8631 17.8267 19.8671 17.83 19.8722 17.8306C21.0513 18.0001 22.6278 18.5228 22.9199 19.4819C23.064 19.9556 22.9717 20.5044 22.9609 20.5654C22.9175 20.8066 22.707 20.9761 22.4697 20.9761C22.4409 20.9761 22.4111 20.9731 22.3818 20.9683C22.1104 20.9199 21.9292 20.6611 21.9766 20.3896C21.9927 20.2949 22.0259 19.9785 21.9629 19.7729C21.876 19.4866 21.0745 19.1004 20.1783 18.8995C19.86 19.8082 19.0041 20.4468 18 20.4468C16.996 20.4468 16.1403 19.8081 15.8217 18.8994C14.9255 19.1002 14.124 19.4866 14.0371 19.7729C13.9722 19.9863 14.0098 20.312 14.0234 20.3877C14.0723 20.6597 13.8916 20.9199 13.6201 20.9688C13.5899 20.9741 13.5601 20.9766 13.5308 20.9766C13.2935 20.9766 13.0825 20.8071 13.0391 20.5654C13.0283 20.5044 12.936 19.9556 13.0801 19.4819C13.3727 18.5212 14.9537 17.9984 16.1338 17.8298C16.1353 17.8296 16.1366 17.829 16.1379 17.8285C16.1392 17.8279 16.1406 17.8273 16.1421 17.8271C16.1431 17.827 16.1441 17.8272 16.145 17.8274C16.1459 17.8276 16.1468 17.8278 16.1478 17.8277C16.1716 17.8243 16.1959 17.8204 16.2203 17.8165C16.257 17.8106 16.2937 17.8047 16.3281 17.8008L16.3274 17.3613C16.1643 17.096 16.0378 16.7851 15.9639 16.4219C15.8706 16.356 15.7759 16.2559 15.6919 16.104C15.6217 15.9774 15.5696 15.8209 15.5275 15.6545C15.2705 15.5551 14.981 15.4672 14.6784 15.3994C14.3601 16.3081 13.5041 16.9468 12.5 16.9468C11.496 16.9468 10.6403 16.3081 10.3217 15.3994C9.42549 15.6002 8.62404 15.9866 8.53712 16.2729C8.50941 16.3639 8.50245 16.4741 8.50227 16.5778C8.57661 16.8856 8.55543 17.2482 8.51954 17.4619C8.47853 17.7065 8.40529 17.9287 8.30812 18.104C8.22364 18.2563 8.12843 18.3569 8.03468 18.4229C7.96022 18.785 7.8343 19.0944 7.67262 19.3586L7.67189 19.8008C7.70543 19.8046 7.74114 19.8103 7.77689 19.8161C7.8008 19.8199 7.82472 19.8237 7.84803 19.827C7.85151 19.8273 7.85444 19.8258 7.85792 19.8262C7.86058 19.8265 7.86291 19.8274 7.86525 19.8284C7.86748 19.8294 7.8697 19.8303 7.8722 19.8306C9.05128 20.0001 10.6278 20.5228 10.9199 21.4819C11.064 21.9556 10.9717 22.5044 10.9609 22.5654C10.9175 22.8066 10.707 22.9761 10.4697 22.9761C10.4409 22.9761 10.4111 22.9731 10.3818 22.9683C10.1104 22.9199 9.92921 22.6611 9.97657 22.3896C9.99269 22.2949 10.0259 21.9785 9.9629 21.7729C9.87599 21.4866 9.07447 21.1004 8.1783 20.8995C7.86 21.8082 7.0041 22.4468 6.00001 22.4468C4.99604 22.4468 4.14027 21.8081 3.82173 20.8994C2.92549 21.1002 2.12404 21.4866 2.03712 21.7729C1.97218 21.9863 2.00978 22.312 2.02345 22.3877C2.07228 22.6597 1.89161 22.9199 1.62013 22.9688C1.58986 22.9741 1.56007 22.9766 1.53077 22.9766C1.29347 22.9766 1.08253 22.8071 1.03907 22.5654C1.02833 22.5044 0.936047 21.9556 1.08009 21.4819C1.37269 20.5212 2.95375 19.9984 4.1338 19.8298C4.13527 19.8296 4.13658 19.829 4.13789 19.8285C4.13924 19.8279 4.14058 19.8273 4.1421 19.8271C4.14405 19.8269 4.14582 19.8278 4.14778 19.8276C4.17147 19.8243 4.19576 19.8204 4.22003 19.8165C4.25686 19.8106 4.29363 19.8048 4.32814 19.8008L4.3274 19.3613C4.16426 19.096 4.03779 18.7851 3.96388 18.4219C3.87062 18.356 3.77589 18.2559 3.69191 18.104C3.59474 17.9287 3.5215 17.7065 3.48048 17.4619C3.43312 17.1792 3.40919 16.6357 3.60109 16.3042C3.59279 15.7949 3.64698 14.8433 4.28517 14.1782C4.70216 13.7437 5.27931 13.5234 6.00001 13.5234C6.72072 13.5234 7.29786 13.7437 7.71486 14.1782C7.99806 14.4734 8.15297 14.8244 8.25178 15.1672C8.89582 14.7144 9.84767 14.4421 10.6338 14.3298C10.6353 14.3296 10.6366 14.329 10.6379 14.3285C10.6392 14.3279 10.6406 14.3273 10.6421 14.3271C10.6441 14.3269 10.6459 14.3278 10.6478 14.3276C10.6715 14.3243 10.6958 14.3204 10.7201 14.3165C10.7569 14.3106 10.7936 14.3048 10.8281 14.3008L10.8274 13.8613C10.6643 13.596 10.5378 13.2851 10.4639 12.9219C10.3706 12.856 10.2759 12.7559 10.1919 12.604C10.0947 12.4287 10.0215 12.2065 9.98048 11.9619C9.93312 11.6792 9.90919 11.1357 10.1011 10.8042C10.0928 10.2949 10.147 9.34326 10.7852 8.67822C11.2022 8.24365 11.7793 8.02344 12.5 8.02344C13.2207 8.02344 13.7979 8.24365 14.2149 8.67822C14.8599 9.3501 14.9082 10.3145 14.8994 10.8047C15.0908 11.1362 15.0669 11.6797 15.0195 11.9619C14.9785 12.2065 14.9053 12.4287 14.8081 12.604C14.7236 12.7563 14.6284 12.8569 14.5347 12.9229C14.4602 13.285 14.3343 13.5944 14.1726 13.8586L14.1719 14.3008C14.2054 14.3046 14.241 14.3103 14.2768 14.3161C14.3007 14.3199 14.3247 14.3237 14.3481 14.327C14.3498 14.3272 14.3514 14.3269 14.3529 14.3266C14.3545 14.3263 14.3562 14.326 14.3579 14.3262C14.3606 14.3265 14.3629 14.3274 14.3652 14.3284C14.3674 14.3294 14.3696 14.3303 14.3721 14.3306C14.7275 14.3817 15.1135 14.4648 15.4956 14.5828C15.5195 14.4818 15.5535 14.3864 15.6011 14.3042C15.5928 13.7949 15.647 12.8433 16.2852 12.1782C16.7022 11.7437 17.2793 11.5234 18 11.5234C18.7207 11.5234 19.2979 11.7437 19.7149 12.1782C20.3599 12.8506 20.4082 13.8145 20.3994 14.3052C20.5903 14.6367 20.5669 15.1797 20.5195 15.4619C20.4785 15.7065 20.4053 15.9287 20.3081 16.104C20.2236 16.2563 20.1284 16.3569 20.0347 16.4229C19.9602 16.785 19.8343 17.0944 19.6726 17.3586L19.6719 17.8008C19.705 17.8046 19.7402 17.8102 19.7755 17.8159C19.7997 17.8198 19.8239 17.8237 19.8475 17.827C19.8512 17.8273 19.8543 17.8257 19.8579 17.8262ZM4.85035 20.7632C5.0749 21.1719 5.50496 21.4468 6.00001 21.4468C6.49519 21.4468 6.92512 21.1721 7.14961 20.7633C6.88282 20.7516 6.67042 20.5333 6.67091 20.2646L6.67103 20.1891C6.46443 20.2601 6.24141 20.3008 6.00001 20.3008C5.75843 20.3008 5.53529 20.2599 5.3285 20.1889L5.32863 20.2651C5.32911 20.5332 5.11683 20.7513 4.85035 20.7632ZM7.46974 17.5381C7.4922 17.479 7.51613 17.397 7.53322 17.2959C7.56202 17.1245 7.5547 16.9482 7.53907 16.8501C7.47657 16.7856 7.43019 16.7046 7.40773 16.6138C7.3965 16.5684 7.39161 16.5215 7.39357 16.4746C7.42482 15.7109 7.28956 15.1797 6.99318 14.8706C6.76905 14.6372 6.44386 14.5234 6.00001 14.5234C5.55623 14.5234 5.23097 14.6372 5.00685 14.8706C4.71046 15.1797 4.57521 15.7109 4.60548 16.4502C4.60743 16.4976 4.60353 16.5679 4.5923 16.6138C4.56984 16.7051 4.52296 16.7861 4.46046 16.8506C4.44532 16.9487 4.438 17.1245 4.46681 17.2959C4.48195 17.3872 4.50343 17.4634 4.52443 17.521C4.52477 17.5211 4.52597 17.5213 4.52638 17.5215C4.7212 17.5703 4.86818 17.731 4.89894 17.9302C5.00929 18.8564 5.37751 19.3007 5.99989 19.3008C6.62245 19.3008 6.99073 18.8564 7.09474 17.98C7.11866 17.7773 7.26564 17.5928 7.46339 17.54C7.46534 17.5391 7.46779 17.5386 7.46974 17.5381ZM11.3504 15.2632C11.5749 15.6719 12.005 15.9468 12.5 15.9468C12.9953 15.9468 13.4252 15.672 13.6497 15.2632C13.3833 15.2513 13.1709 15.0332 13.1714 14.7651L13.1715 14.689C12.9648 14.76 12.7415 14.8008 12.5 14.8008C12.2584 14.8008 12.0353 14.7599 11.8285 14.6889L11.8286 14.7651C11.8291 15.0332 11.6168 15.2513 11.3504 15.2632ZM13.9697 12.0381C13.9922 11.979 14.0161 11.897 14.0332 11.7959C14.062 11.6245 14.0547 11.4487 14.0396 11.3506C13.9771 11.2861 13.9302 11.2051 13.9077 11.1138C13.8965 11.0684 13.8916 11.0215 13.8936 10.9746C13.9248 10.2109 13.7896 9.67969 13.4932 9.37061C13.2691 9.13721 12.9439 9.02344 12.5001 9.02344C12.0562 9.02344 11.731 9.13721 11.5068 9.37061C11.2105 9.67969 11.0752 10.2109 11.1055 10.9502C11.1074 10.9976 11.1035 11.0679 11.0923 11.1138C11.0698 11.2051 11.023 11.2861 10.9605 11.3506C10.9453 11.4487 10.938 11.6245 10.9668 11.7959C10.9819 11.8872 11.0034 11.9634 11.0244 12.021C11.0248 12.0211 11.026 12.0213 11.0264 12.0215C11.2212 12.0703 11.3682 12.231 11.3989 12.4302C11.5093 13.3564 11.8774 13.8008 12.5 13.8008C13.1225 13.8008 13.4907 13.3564 13.5947 12.48C13.6187 12.2773 13.7656 12.0928 13.9634 12.04C13.9644 12.0395 13.9655 12.0392 13.9667 12.0389C13.9677 12.0386 13.9688 12.0383 13.9697 12.0381ZM16.8504 18.7632C17.0749 19.1719 17.505 19.4468 18 19.4468C18.4952 19.4468 18.9251 19.1721 19.1496 18.7633C18.8828 18.7516 18.6704 18.5333 18.6709 18.2646L18.671 18.1891C18.4644 18.2601 18.2414 18.3008 18 18.3008C17.7584 18.3008 17.5353 18.2599 17.3285 18.1889L17.3286 18.2651C17.3291 18.5332 17.1168 18.7513 16.8504 18.7632ZM19.4697 15.5381C19.4922 15.479 19.5161 15.397 19.5332 15.2959C19.562 15.1245 19.5547 14.9482 19.5391 14.8501C19.4766 14.7856 19.4302 14.7046 19.4077 14.6138C19.3965 14.5684 19.3916 14.5215 19.3936 14.4746C19.4248 13.7109 19.2896 13.1797 18.9932 12.8706C18.7691 12.6372 18.4439 12.5234 18 12.5234C17.5562 12.5234 17.231 12.6372 17.0068 12.8706C16.7105 13.1797 16.5752 13.7109 16.6055 14.4502C16.6074 14.4976 16.6035 14.5679 16.5923 14.6138C16.5698 14.7051 16.523 14.7861 16.4605 14.8506C16.4453 14.9487 16.438 15.1245 16.4668 15.2959C16.4819 15.3872 16.5034 15.4634 16.5244 15.521C16.5248 15.5211 16.5259 15.5213 16.5264 15.5215C16.7212 15.5703 16.8682 15.731 16.8989 15.9302C17.0093 16.8564 17.3775 17.3007 17.9999 17.3008C18.6224 17.3008 18.9907 16.8564 19.0947 15.98C19.1187 15.7773 19.2656 15.5928 19.4634 15.54C19.465 15.5392 19.467 15.5387 19.4688 15.5383C19.4691 15.5382 19.4694 15.5382 19.4697 15.5381Z" />
</svg>
