<svg  viewBox="0 0 24 24"  xmlns="http://www.w3.org/2000/svg">
<path d="M9.49564 3.06H21.4986C21.6311 3.06005 21.7582 3.11265 21.8519 3.2055C21.9456 3.29915 21.9983 3.42625 21.9981 3.55875L21.9966 13.5592C21.9966 13.6919 21.9439 13.8192 21.8501 13.913C21.7563 14.0068 21.6291 14.0595 21.4964 14.0595H13.8164V13.0597H20.9969L20.9984 4.05975H9.99514V5.57025H8.99539V3.56025C8.99539 3.42757 9.04809 3.30033 9.14191 3.20652C9.23572 3.1127 9.36296 3.06 9.49564 3.06Z" "/>
<path d="M15.4866 6.5595C15.8317 6.5595 16.1114 6.27979 16.1114 5.93475C16.1114 5.58971 15.8317 5.31 15.4866 5.31C15.1416 5.31 14.8619 5.58971 14.8619 5.93475C14.8619 6.27979 15.1416 6.5595 15.4866 6.5595Z" "/>
<path d="M14.9924 11.1315V7.87725C14.9924 7.60097 15.2164 7.377 15.4926 7.377C15.7689 7.377 15.9929 7.60097 15.9929 7.87725V11.1315C15.9929 11.4078 15.7689 11.6317 15.4926 11.6317C15.2164 11.6317 14.9924 11.4078 14.9924 11.1315Z" "/>
<path fill-rule="evenodd" clip-rule="evenodd" d="M11.7111 15.5933C11.9939 15.165 12.1994 14.631 12.3134 13.9972C12.4544 13.9245 12.6044 13.7873 12.7401 13.5435C12.8729 13.3035 12.9779 12.9825 13.0364 12.6405C13.0934 12.3022 13.1001 11.9212 13.0551 11.5957C13.0184 11.3302 12.9479 11.1217 12.8444 10.9725C12.8676 9.5775 12.5369 8.51475 11.8619 7.8105C11.2701 7.194 10.4444 6.88125 9.40789 6.88125C8.37139 6.88125 7.54564 7.194 6.95389 7.8105C6.27814 8.514 5.94814 9.5775 5.97064 10.9725C5.86714 11.1217 5.79664 11.3302 5.75989 11.5957C5.71489 11.9212 5.72164 12.3015 5.77864 12.6405C5.83639 12.9832 5.94139 13.3035 6.07489 13.5435C6.21364 13.7932 6.36739 13.9305 6.51139 14.0025C6.63214 14.586 6.83389 15.0885 7.10314 15.501V16.533C5.32414 16.7145 2.49514 17.6423 2.10289 18.9998C1.91914 19.6635 2.03464 20.436 2.04889 20.5215C2.10613 20.7804 2.35514 20.9498 2.61696 20.9081C2.87878 20.8663 3.06275 20.6278 3.03664 20.364C3.00889 20.1893 2.96089 19.6508 3.06589 19.272C3.22714 18.7148 4.70839 18.0158 6.19189 17.6873C6.72214 19.1385 7.99189 20.1195 9.41164 20.1195C10.8284 20.1195 12.1004 19.1378 12.6314 17.688C14.1134 18.0165 15.5916 18.714 15.7514 19.266C15.8579 19.65 15.8091 20.1878 15.7821 20.3633C15.7386 20.6358 15.9243 20.892 16.1969 20.9355C16.4694 20.979 16.7256 20.7933 16.7691 20.5208C16.7834 20.4353 16.8989 19.6628 16.7136 18.993C16.3229 17.6408 13.4939 16.713 11.7149 16.5322L11.7111 15.5933ZM6.77239 11.6003C6.73264 11.7585 6.70189 12.114 6.76264 12.4732C6.79196 12.6637 6.84801 12.849 6.92689 13.0238C7.17532 13.0204 7.3883 13.2005 7.42639 13.446L7.43164 13.4827C7.52989 14.1765 7.92289 15.7905 9.45214 15.7905C10.0694 15.7905 10.4946 15.5347 10.7879 15.1597C10.795 15.1485 10.8035 15.1377 10.812 15.127L10.8186 15.1185C11.1516 14.67 11.3069 14.0648 11.3729 13.5142L11.3819 13.4467C11.42 13.2012 11.633 13.0212 11.8814 13.0245C11.9629 12.8499 12.0189 12.6645 12.0479 12.474C12.1086 12.114 12.0779 11.7592 12.0381 11.601C11.9474 11.5297 11.8791 11.4285 11.8499 11.3123C11.8388 11.2661 11.834 11.2187 11.8356 11.1712L11.8371 11.142C11.8866 9.9255 11.6519 9.0375 11.1381 8.50275C10.7421 8.09025 10.1594 7.881 9.40564 7.881C8.65189 7.881 8.06914 8.09025 7.67314 8.50275C7.16014 9.0375 6.92464 9.9255 6.97414 11.142L6.97564 11.1712C6.97879 11.3382 6.90356 11.497 6.77239 11.6003ZM7.19989 17.526C7.34014 17.5133 7.47814 17.5035 7.61089 17.5005C7.88306 17.4948 8.1007 17.2725 8.10064 17.0003V16.452C8.51525 16.6787 8.98112 16.7952 9.45364 16.7903C9.92089 16.7903 10.3416 16.6928 10.7099 16.506V17.0003C10.7099 17.2725 10.9274 17.4945 11.1996 17.5005C11.3339 17.5035 11.4734 17.5133 11.6151 17.526C11.1951 18.4838 10.3424 19.1183 9.40714 19.1183C8.47039 19.119 7.61914 18.4845 7.19989 17.526Z" "/>
</svg>
