<svg width="24" height="24" viewBox="0 0 24 24" xmlns="http://www.w3.org/2000/svg">
<path d="M7.5 5H21.5C21.7764 5 22 4.77637 22 4.5C22 4.22363 21.7764 4 21.5 4H7.5C7.22363 4 7 4.22363 7 4.5C7 4.77637 7.22363 5 7.5 5ZM21.5 8H13.4896C13.7275 8.31604 13.9446 8.64795 14.1308 9H21.5C21.7764 9 22 8.77637 22 8.5C22 8.22363 21.7764 8 21.5 8ZM13.1398 17.4328L11.7239 16.0168C12.5197 15.0627 13 13.8367 13 12.5C13 9.46729 10.5322 7 7.5 7C4.46777 7 2 9.46729 2 12.5C2 15.5327 4.46777 18 7.5 18C8.83655 18 10.0626 17.5197 11.0168 16.7238L12.4328 18.1398L14.1465 19.8535C14.2441 19.9512 14.3721 20 14.5 20C14.6279 20 14.7559 19.9512 14.8535 19.8535C15.0488 19.6582 15.0488 19.3418 14.8535 19.1465L13.1398 17.4328ZM7.5 17C5.01855 17 3 14.9814 3 12.5C3 10.0186 5.01855 8 7.5 8C9.98145 8 12 10.0186 12 12.5C12 14.9814 9.98145 17 7.5 17ZM21.5 12H14.9748C14.9858 12.166 15 12.3312 15 12.5001C15 12.6688 14.9858 12.834 14.9748 13H21.5C21.7764 13 22 12.7764 22 12.5C22 12.2236 21.7764 12 21.5 12Z"/>
</svg>
