<svg  viewBox="0 0 24 24"  xmlns="http://www.w3.org/2000/svg">
<path fill-rule="evenodd" clip-rule="evenodd" d="M20 17H18.003L18.01 10.51C18.01 10.377 17.957 10.25 17.863 10.156L13.863 6.146C13.771 6.052 13.643 6 13.51 6H8V4H20V17ZM14.01 10.009V7.708L16.305 10.009H14.01ZM17 20H4V7H13.01V10.509C13.01 10.785 13.233 11.009 13.51 11.009H17.01L17 20ZM20.5 3H7.5C7.224 3 7 3.224 7 3.5V6H3.5C3.224 6 3 6.224 3 6.5V20.5C3 20.775 3.224 21 3.5 21H17.5C17.776 21 18 20.775 18 20.5L18.002 18H20.499C20.775 18 20.999 17.775 20.999 17.5V3.5C20.999 3.224 20.776 3 20.5 3Z" "/>
</svg>
