<svg width="12" height="12" viewBox="0 0 12 12" xmlns="http://www.w3.org/2000/svg">
<path d="M7.62354 3.1709L4.47559 6.76855L2.85352 5.14648C2.6582 4.95117 2.3418 4.95117 2.14648 5.14648C1.95117 5.3418 1.95117 5.6582 2.14648 5.85352L4.14648 7.85352C4.24023 7.94727 4.36768 8 4.5 8C4.50537 8 4.51123 8 4.5166 7.99951C4.65479 7.99512 4.78516 7.93359 4.87646 7.8291L8.37646 3.8291C8.55811 3.62158 8.53711 3.30566 8.3291 3.12354C8.12158 2.94092 7.80566 2.96191 7.62354 3.1709ZM5.5 0C2.46729 0 0 2.46729 0 5.5C0 8.53271 2.46729 11 5.5 11C8.53271 11 11 8.53271 11 5.5C11 2.46729 8.53271 0 5.5 0ZM5.5 10C3.01855 10 1 7.98145 1 5.5C1 3.01855 3.01855 1 5.5 1C7.98145 1 10 3.01855 10 5.5C10 7.98145 7.98145 10 5.5 10Z" fill="#222222"/>
</svg>
