<svg  viewBox="0 0 24 24"  xmlns="http://www.w3.org/2000/svg">
<path d="M14.0137 5.42969C13.6006 4.82324 12.4005 3.2041 12.4005 3.2041C12.3067 3.07715 12.1583 3.00195 12.0001 3.00195H11.9991C11.8419 3.00195 11.6934 3.07617 11.5987 3.20215C11.5499 3.26855 10.3858 4.82422 9.97858 5.4375C8.57916 7.5459 7.0733 11.4092 7.0733 14.9053C7.0733 20.21 10.1592 21.002 11.9991 21.002C13.8389 21.002 16.9258 20.21 16.9258 14.9053C16.9258 11.6484 15.4454 7.5293 14.0137 5.42969ZM13.2762 19.8129C15.9161 16.0283 13.003 7.75659 12.8663 7.37695C12.7735 7.11719 12.4874 6.98535 12.2266 7.0752C11.9669 7.16895 11.8321 7.45508 11.9249 7.71484C11.9581 7.80676 15.0645 16.6256 12.1214 19.6366C9.06769 17.3048 11.0281 10.8151 11.0489 10.7471C11.1309 10.4834 10.9835 10.2031 10.7198 10.1211C10.4522 10.0371 10.1768 10.1855 10.0938 10.4502C10.0047 10.7352 8.16241 16.837 10.8963 19.8654C9.02911 19.4188 8.0733 17.7654 8.0733 14.9053C8.0733 11.7627 9.45123 8.04102 10.8126 5.99023C11.0567 5.62109 11.6133 4.86133 11.9971 4.3418C12.3799 4.8623 12.9337 5.62109 13.1876 5.99219C14.504 7.9248 15.9258 11.8818 15.9258 14.9053C15.9258 17.673 15.0257 19.3044 13.2762 19.8129Z" />
</svg>
