<svg  viewBox="0 0 24 24"  xmlns="http://www.w3.org/2000/svg">
<path d="M8.24275 12.0003H4.7425C4.46622 12.0003 4.24225 12.2242 4.24225 12.5005C4.24225 12.7768 4.46622 13.0008 4.7425 13.0008H8.24275C8.51903 13.0008 8.743 12.7768 8.743 12.5005C8.743 12.2242 8.51903 12.0003 8.24275 12.0003Z" "/>
<path d="M13.993 10H15.9933V12.0003C15.9933 12.2765 16.2172 12.5005 16.4935 12.5005C16.7698 12.5005 16.9938 12.2765 16.9938 12.0003V10H18.994C19.2703 10 19.4943 9.77603 19.4943 9.49975C19.4943 9.22347 19.2703 8.9995 18.994 8.9995H16.9938V6.99925C16.9938 6.82053 16.8984 6.65538 16.7436 6.56602C16.5889 6.47666 16.3982 6.47666 16.2434 6.56602C16.0886 6.65538 15.9933 6.82053 15.9933 6.99925V8.9995H13.993C13.7167 8.9995 13.4928 9.22347 13.4928 9.49975C13.4928 9.77603 13.7167 10 13.993 10Z" "/>
<path fill-rule="evenodd" clip-rule="evenodd" d="M10.4928 4H22.4965C22.6292 3.9998 22.7566 4.05244 22.8505 4.1463C22.9443 4.24016 22.997 4.36752 22.9968 4.50025V14.5053C22.997 14.638 22.9443 14.7653 22.8505 14.8592C22.7566 14.9531 22.6292 15.0057 22.4965 15.0055H19.9968V17.5008C19.9967 17.6955 19.8834 17.8724 19.7065 17.9538C19.5301 18.0361 19.3219 18.0083 19.1733 17.8825L15.775 15.0055L12.997 15.0033V17.5008C12.9972 17.6335 12.9446 17.7608 12.8507 17.8547C12.7568 17.9486 12.6295 18.0012 12.4968 18.001H6.7405L3.78175 19.921C3.62799 20.021 3.43182 20.0286 3.27073 19.941C3.10965 19.8533 3.00956 19.6844 3.01 19.501V18.001H1.50025C1.2235 18.001 1 17.7775 1 17.5008V8.50075C0.999802 8.36802 1.05244 8.24066 1.1463 8.1468C1.24016 8.05294 1.36752 8.0003 1.50025 8.0005H9.99251V4.50025C9.99251 4.22397 10.2165 4 10.4928 4ZM6.59275 17.0005H11.9965V15.0018L10.4913 15.0003C10.2153 15.0003 9.99175 14.7768 9.99175 14.5V9.00025H1.99975V17.0005H3.5095C3.64224 17.0003 3.76959 17.0529 3.86345 17.1468C3.95731 17.2407 4.00995 17.368 4.00975 17.5008V18.5808L6.3205 17.0808C6.40174 17.0286 6.49621 17.0007 6.59275 17.0005ZM21.9978 14.005H19.498C19.3653 14.0048 19.2379 14.0574 19.1441 14.1513C19.0502 14.2452 18.9976 14.3725 18.9978 14.5053V16.4223L16.2828 14.1235C16.1924 14.0471 16.0779 14.0051 15.9595 14.005L10.993 14.0005V5.0005H21.9978V14.005Z" "/>
</svg>
