<svg  viewBox="0 0 24 24"  xmlns="http://www.w3.org/2000/svg">
<path d="M20.8678 19.7178C20.4001 18.1802 17.6077 17.2216 15.4748 16.9059C15.4708 16.9053 15.4676 16.9028 15.4635 16.9023C15.4604 16.902 15.4578 16.9034 15.4548 16.9031C15.1966 16.8654 14.9462 16.8351 14.713 16.8164L14.7154 15.3208C14.7155 15.2968 14.7051 15.2761 14.7019 15.2529C15.0104 14.8553 15.2682 14.3802 15.4689 13.8317C16.2491 13.6596 17.0142 13.3751 17.7428 12.9487C17.78 12.9269 17.806 12.8951 17.8353 12.8661C17.8438 12.8583 17.8527 12.8517 17.8606 12.8434C17.885 12.8156 17.9033 12.786 17.9208 12.7542C17.9403 12.722 17.9573 12.6901 17.9692 12.6536C17.972 12.6436 17.973 12.6337 17.9752 12.6235C17.9858 12.583 18.0001 12.5438 18.0001 12.5V9.5C18.0001 9.43335 17.9859 9.37024 17.9623 9.31213C17.9795 9.10657 18.0001 8.90198 18.0001 8.69141C18.0001 8.65161 17.9954 8.61316 17.9947 8.57349C17.995 8.54889 18.0001 8.5246 18.0001 8.5C18.0001 4.91602 15.3087 2 12.0001 2C11.9995 2 11.999 2.00012 11.9984 2.00012C11.9979 2.00012 11.9972 2 11.9967 2C11.7945 2 11.5947 2.01135 11.3976 2.03308C8.45574 2.35236 6.14104 4.98474 6.01318 8.22058C6.01012 8.26904 6.00274 8.31598 6.0006 8.36475C6.00018 8.37476 6.00494 8.38336 6.00512 8.39325C6.00457 8.42914 6.00011 8.46399 6.00011 8.5C6.00011 8.76007 6.02813 9.02032 6.05669 9.27954C6.02312 9.34674 6.00011 9.41974 6.00011 9.5V12.5C6.00011 12.7764 6.22375 13 6.50011 13H8.28387C8.51733 13.9011 8.8623 14.6505 9.30267 15.2316C9.29711 15.2616 9.28472 15.2892 9.28478 15.3208L9.28722 16.8164C9.05145 16.8353 8.79821 16.8658 8.53686 16.9043C8.5368 16.9043 8.5368 16.9043 8.53674 16.9043C8.53667 16.9043 8.53667 16.9044 8.53661 16.9044C6.40234 17.2183 3.60094 18.1774 3.13244 19.7178C2.88635 20.5264 3.0592 21.5137 3.06652 21.5552C3.10998 21.7969 3.32043 21.9668 3.55822 21.9668C3.58752 21.9668 3.6173 21.9644 3.64709 21.959C3.91857 21.9102 4.09972 21.6504 4.0509 21.3784C4.01183 21.1611 3.9425 20.4907 4.08947 20.0088C4.35247 19.1429 6.29479 18.3175 8.19549 17.9669C8.61669 19.7059 10.162 20.9663 12.0001 20.9663C13.8384 20.9663 15.3834 19.7062 15.8049 17.9669C17.7056 18.3176 19.6478 19.143 19.9108 20.0088C20.0861 20.5845 19.9508 21.3716 19.9493 21.3794C19.9015 21.6509 20.0826 21.9106 20.3541 21.9585C20.3839 21.9639 20.4132 21.9663 20.4425 21.9663C20.6798 21.9663 20.8903 21.7969 20.9337 21.5552C20.941 21.5137 21.1139 20.5264 20.8678 19.7178ZM12.0006 6.08008C11.9999 6.08008 11.9992 6.08051 11.9985 6.08051C11.9978 6.08044 11.9974 6.08014 11.9967 6.08008C9.55181 6.09973 8.23296 7.06433 8.03881 9H7.03631C7.0227 8.83301 7.00011 8.66675 7.00011 8.5C7.00011 8.44965 7.00579 8.40088 7.00701 8.35083C7.16332 5.34796 9.34106 3.00244 11.9932 3.00037C11.9949 3.00037 11.9967 3.00012 11.9984 3.00012C14.7212 3.00122 16.9385 5.49023 16.9948 8.57257C16.9931 8.71582 16.9754 8.85742 16.9637 9H15.941C15.7955 7.68011 15.4192 6.48657 14.7423 5.7832C14.5987 5.63281 14.3776 5.58887 14.1847 5.67041C13.6886 5.8833 13.0807 6.08008 12.0006 6.08008ZM17.0001 10V12H15.8968C15.9827 11.3506 16.0217 10.6733 16.006 10H17.0001ZM7.00011 10H7.9967C8.00347 10.5745 8.03411 11.3562 8.1007 12H7.00011V10ZM8.99749 9.51294C8.99761 9.50836 9.00011 9.50458 9.00011 9.5C9.00011 9.49609 8.99792 9.4928 8.99786 9.48889C8.99822 9.4743 8.99816 9.45221 8.99865 9.43896L9.00158 9.32568C9.01379 8.60449 9.03967 7.104 12.0045 7.08008C12.0048 7.08008 12.0051 7.0799 12.0054 7.0799C13.02 7.07928 13.7032 6.91864 14.2252 6.72998C14.9786 7.83398 15.2399 10.2534 14.8102 12.5039C14.7855 12.634 14.7493 12.791 14.7046 12.9598C14.0063 13.0504 13.2975 13.0306 12.5919 12.8838C12.3204 12.8286 12.0568 13.001 12.0006 13.272C11.9445 13.5425 12.1183 13.8071 12.3888 13.8633C12.8917 13.9673 13.3961 14.0195 13.8986 14.0195C14.0408 14.0195 14.1816 13.9988 14.3233 13.9905C13.9114 14.8325 13.206 15.6382 11.9939 15.6502C10.1769 15.6465 9.45788 13.7015 9.18176 12.499C9.03466 11.8766 8.9829 10.1478 8.99749 9.51294ZM12.0001 19.9663C10.664 19.9663 9.5302 19.0748 9.18316 17.8289C9.39312 17.8095 9.60015 17.7947 9.79845 17.7905C10.0704 17.7847 10.2882 17.562 10.2877 17.2896L10.286 16.1517C10.7949 16.472 11.3672 16.6509 11.9986 16.6509C11.9995 16.6509 12.0002 16.6504 12.0011 16.6504C12.0016 16.6504 12.0019 16.6504 12.0026 16.6504C12.6346 16.6444 13.2063 16.4634 13.7142 16.1524L13.7125 17.2896C13.712 17.562 13.9298 17.7847 14.2018 17.7905C14.4002 17.7947 14.6073 17.8095 14.8173 17.8289C14.47 19.075 13.3367 19.9663 12.0001 19.9663Z" "/>
</svg>
