<svg  viewBox="0 0 24 24"  xmlns="http://www.w3.org/2000/svg">
<path d="M10.8351 5.53026C10.1015 3.98138 8.53941 2.99549 6.8256 2.99976L6.82635 3.00051C5.20241 2.9975 3.70666 3.88217 2.9271 5.30676C2.78708 5.53299 2.49465 5.61032 2.26111 5.48288C2.02756 5.35544 1.93436 5.06767 2.04885 4.82751C3.00363 3.08183 4.83587 1.99727 6.8256 2.00001C8.88726 1.9958 10.7731 3.16062 11.6923 5.00601L12.0058 3.88401C12.0538 3.71199 12.1899 3.57862 12.3629 3.53415C12.5358 3.48967 12.7194 3.54085 12.8444 3.6684C12.9694 3.79594 13.0168 3.98049 12.9688 4.15251L12.2758 6.63501C12.2368 6.77455 12.1391 6.89028 12.0081 6.95226C11.9691 6.97101 11.8858 6.99051 11.8851 6.99051C11.8552 6.99639 11.8248 6.99965 11.7943 7.00026C11.7512 6.9996 11.7083 6.99329 11.6668 6.98151C11.6511 6.97701 11.6016 6.96126 11.5926 6.95751L9.27735 5.93601C9.03358 5.81936 8.92653 5.53019 9.03557 5.28293C9.14461 5.03566 9.43032 4.91969 9.68085 5.02101L10.8351 5.53026Z" "/>
<path fill-rule="evenodd" clip-rule="evenodd" d="M21.7161 13.7L19.4766 12.5525L21.4326 11.5483C21.6 11.4631 21.7054 11.2911 21.7053 11.1033C21.7051 10.9154 21.5994 10.7436 21.4319 10.6588L14.3908 7.05501C14.2477 6.98146 14.078 6.98146 13.9348 7.05501L11.3451 8.38476L8.76135 7.06026C8.61798 6.9867 8.44796 6.9867 8.3046 7.06026L3.31485 9.62376C3.14836 9.70967 3.04383 9.8814 3.04398 10.0687C3.04414 10.2561 3.14896 10.4276 3.3156 10.5133L5.26035 11.5085L3.25935 12.536C3.09192 12.6212 2.98653 12.7932 2.98669 12.981C2.98685 13.1688 3.09253 13.3406 3.2601 13.4255L5.53035 14.5888V17.7455C5.53035 17.9338 5.6361 18.1055 5.80335 18.191L13.1623 21.9433C13.3052 22.017 13.475 22.0167 13.6176 21.9425L19.3078 19.0235C19.4745 18.9378 19.5793 18.7662 19.5793 18.5788V15.6823L21.7169 14.5873C21.8839 14.5019 21.989 14.3301 21.989 14.1425C21.989 13.9549 21.8839 13.7832 21.7169 13.6978L21.7161 13.7ZM14.1636 8.06151L20.1073 11.1035L18.3801 11.99L12.4408 8.94576L14.1636 8.06151ZM8.5341 8.06751L4.63935 10.0685L6.3561 10.9475L10.2501 8.94726L8.5341 8.06751ZM4.5831 12.9815L6.3561 12.071L12.2968 15.1123L10.5201 16.0243L4.5831 12.9815ZM6.52935 17.4418L12.8931 20.6863L12.8923 20.6855V15.9305L10.7481 17.0315C10.6051 17.1054 10.4353 17.1057 10.2921 17.0323L6.52935 15.104V17.4418ZM13.3926 14.5505L7.45185 11.5085L11.3458 9.50901L17.2851 12.5525L13.3933 14.5498L13.3926 14.5505ZM13.8936 20.6788L18.5788 18.2758L18.5796 18.275V16.1968L16.7263 17.1463C16.5833 17.2199 16.4134 17.2199 16.2703 17.1463L13.8936 15.9298V20.6788ZM16.4976 16.1398L20.3908 14.1448L18.3801 13.1143L14.4891 15.1115L16.4976 16.1398Z" "/>
</svg>
