<svg width="24" height="24" viewBox="0 0 24 24" xmlns="http://www.w3.org/2000/svg">
<path d="M19.6846 18.0322L19.6855 17.0205C19.6855 17.0043 19.6779 16.9907 19.6764 16.975C19.8464 16.6734 19.9773 16.3171 20.0527 15.8984C20.2822 15.7334 20.4541 15.4004 20.5322 14.9375C20.5791 14.6553 20.6025 14.1123 20.4121 13.7812C20.4199 13.29 20.3711 12.3262 19.7266 11.6543C19.3096 11.2207 18.7334 11 18.0127 11C17.5128 11 17.087 11.1132 16.7308 11.3234C16.14 10.577 14.6661 10.1559 13.6846 10.0322L13.6855 9.02051C13.6855 9.00433 13.6779 8.99072 13.6764 8.97498C13.8464 8.6734 13.9773 8.31714 14.0527 7.89844C14.2822 7.7334 14.4541 7.40039 14.5322 6.9375C14.5791 6.65527 14.6025 6.1123 14.4121 5.78125C14.4199 5.29004 14.3711 4.32617 13.7266 3.6543C13.3096 3.2207 12.7334 3 12.0127 3C11.292 3 10.7148 3.2207 10.2979 3.65527C9.65918 4.32031 9.60547 5.27148 9.61328 5.78125C9.4209 6.11328 9.44531 6.65625 9.49316 6.9375C9.56836 7.38867 9.74023 7.72168 9.96875 7.89062C10.0426 8.30878 10.1729 8.66559 10.3425 8.96814C10.3424 8.97284 10.3398 8.97675 10.3398 8.98145L10.3408 10.0322C9.72797 10.1084 8.92047 10.2996 8.25177 10.6102C8.15161 10.2779 8.00049 9.93988 7.72656 9.6543C7.30957 9.2207 6.7334 9 6.0127 9C5.29199 9 4.71484 9.2207 4.29785 9.65527C3.65918 10.3203 3.60547 11.2715 3.61328 11.7812C3.4209 12.1133 3.44531 12.6562 3.49316 12.9375C3.56836 13.3887 3.74023 13.7217 3.96875 13.8906C4.0426 14.3088 4.17285 14.6656 4.34253 14.9681C4.34241 14.9728 4.33984 14.9767 4.33984 14.9814L4.34082 16.0322C3.08398 16.1885 1 16.8193 1 18V18.5C1 18.7764 1.22363 19 1.5 19C1.77637 19 2 18.7764 2 18.5V18.0039C2.04681 17.7719 2.862 17.3707 3.7691 17.15C4.0163 18.2068 4.94012 19 6 19C7.07172 19 8.0058 18.2078 8.25555 17.1513C9.15454 17.372 9.95746 17.7713 10 18V18.5C10 18.7764 10.2236 19 10.5 19C10.7764 19 11 18.7764 11 18.5V18C11 16.8193 8.93262 16.1895 7.68457 16.0322L7.68555 15.0205C7.68555 15.0043 7.67786 14.9907 7.67639 14.975C7.84637 14.6734 7.97729 14.3171 8.05273 13.8984C8.28223 13.7334 8.4541 13.4004 8.53223 12.9375C8.5791 12.6553 8.60254 12.1123 8.41211 11.7812C8.41266 11.7465 8.40857 11.6945 8.40839 11.6553C8.74005 11.4705 9.23431 11.2801 9.7691 11.15C10.0163 12.2068 10.9401 13 12 13C13.0717 13 14.0058 12.2078 14.2556 11.1513C15.1545 11.372 15.9575 11.7713 16 12V12.0822C15.6562 12.684 15.607 13.372 15.6133 13.7812C15.4209 14.1133 15.4453 14.6562 15.4932 14.9375C15.5684 15.3887 15.7402 15.7217 15.9688 15.8906C16.0426 16.3088 16.1729 16.6656 16.3425 16.9681C16.3424 16.9728 16.3398 16.9767 16.3398 16.9814L16.3408 18.0322C15.084 18.1885 13 18.8193 13 20V20.5C13 20.7764 13.2236 21 13.5 21C13.7764 21 14 20.7764 14 20.5V20.0039C14.0468 19.7719 14.862 19.3707 15.7691 19.15C16.0163 20.2068 16.9401 21 18 21C19.0717 21 20.0058 20.2078 20.2556 19.1513C21.1545 19.372 21.9575 19.7713 22 20V20.5C22 20.7764 22.2236 21 22.5 21C22.7764 21 23 20.7764 23 20.5V20C23 18.8193 20.9326 18.1895 19.6846 18.0322ZM6 18C5.44086 18 4.94818 17.5649 4.77747 16.999C4.80176 16.998 4.82751 16.9937 4.85156 16.9932C5.12305 16.9873 5.34082 16.7646 5.34082 16.4932L5.34039 15.8758C5.54749 15.9543 5.77081 16 6.0127 16C6.25433 16 6.47748 15.9547 6.68439 15.876L6.68359 16.4922C6.68359 16.7646 6.90137 16.9873 7.17285 16.9932C7.19684 16.9937 7.22247 16.998 7.2467 16.999C7.07349 17.5652 6.57166 18 6 18ZM7.5459 12.7725C7.52832 12.876 7.50391 12.96 7.48047 13.0195L7.46875 13.0225C7.27246 13.0781 7.12793 13.2666 7.10547 13.4688C7.0293 14.167 6.77734 15 6.0127 15C6.01282 15 6.01257 15 6.0127 15C5.2475 14.9996 4.99512 14.1668 4.91113 13.4072C4.88086 13.21 4.73535 13.0498 4.54199 12.999C4.54004 12.999 4.53809 12.998 4.53613 12.998C4.51562 12.9404 4.49512 12.8643 4.47949 12.7715C4.4502 12.6006 4.45801 12.4248 4.47266 12.3271C4.53516 12.2627 4.58203 12.1826 4.60449 12.0918C4.61621 12.0459 4.62012 11.9746 4.61816 11.9277C4.58789 11.1875 4.72266 10.6562 5.01953 10.3477C5.2431 10.1133 5.56824 10.0002 6.01227 10.0001C6.01215 10.0001 6.01239 10.0001 6.01227 10.0001C6.45563 10.0001 6.78125 10.1133 7.00586 10.3477C7.30176 10.6553 7.43652 11.1865 7.40625 11.9482C7.40527 11.9551 7.40527 11.9629 7.40527 11.9707C7.40527 12.0781 7.43945 12.1768 7.49707 12.2559C7.51367 12.2783 7.53125 12.3008 7.55078 12.3203C7.56641 12.417 7.5752 12.5977 7.5459 12.7725ZM12 12C11.4409 12 10.9482 11.5649 10.7775 10.999C10.8018 10.998 10.8275 10.9937 10.8516 10.9932C11.123 10.9873 11.3408 10.7646 11.3408 10.4932L11.3404 9.87579C11.5475 9.95435 11.7708 10 12.0127 10C12.2543 10 12.4775 9.95465 12.6844 9.87604L12.6836 10.4922C12.6836 10.7646 12.9014 10.9873 13.1729 10.9932C13.1968 10.9937 13.2225 10.998 13.2467 10.999C13.0735 11.5652 12.5717 12 12 12ZM13.5459 6.77246C13.5283 6.87598 13.5039 6.95996 13.4805 7.01953L13.4688 7.02246C13.2725 7.07812 13.1279 7.2666 13.1055 7.46875C13.0293 8.16699 12.7773 9 12.0127 9C12.0128 9 12.0126 9 12.0127 9C11.2475 8.99963 10.9951 8.16681 10.9111 7.40723C10.8809 7.20996 10.7354 7.0498 10.542 6.99902C10.54 6.99902 10.5381 6.99805 10.5361 6.99805C10.5156 6.94043 10.4951 6.86426 10.4795 6.77148C10.4502 6.60059 10.458 6.4248 10.4727 6.32715C10.5352 6.2627 10.582 6.18262 10.6045 6.0918C10.6162 6.0459 10.6201 5.97461 10.6182 5.92773C10.5879 5.1875 10.7227 4.65625 11.0195 4.34766C11.2431 4.11334 11.5682 4.00018 12.0123 4.00006C12.0121 4.00006 12.0124 4.00006 12.0123 4.00006C12.4556 4.00006 12.7812 4.11328 13.0059 4.34766C13.3018 4.65527 13.4365 5.18652 13.4062 5.94824C13.4053 5.95508 13.4053 5.96289 13.4053 5.9707C13.4053 6.07812 13.4395 6.17676 13.4971 6.25586C13.5137 6.27832 13.5312 6.30078 13.5508 6.32031C13.5664 6.41699 13.5752 6.59766 13.5459 6.77246ZM18 20C17.4409 20 16.9482 19.5649 16.7775 18.999C16.8018 18.998 16.8275 18.9937 16.8516 18.9932C17.123 18.9873 17.3408 18.7646 17.3408 18.4932L17.3404 17.8758C17.5475 17.9543 17.7708 18 18.0127 18C18.2543 18 18.4775 17.9547 18.6844 17.876L18.6836 18.4922C18.6836 18.7646 18.9014 18.9873 19.1729 18.9932C19.1968 18.9937 19.2225 18.998 19.2467 18.999C19.0735 19.5652 18.5717 20 18 20ZM19.5459 14.7725C19.5283 14.876 19.5039 14.96 19.4805 15.0195L19.4688 15.0225C19.2725 15.0781 19.1279 15.2666 19.1055 15.4688C19.0293 16.167 18.7773 17 18.0127 17C18.0128 17 18.0126 17 18.0127 17C17.2475 16.9996 16.9951 16.1668 16.9111 15.4072C16.8809 15.21 16.7354 15.0498 16.542 14.999C16.54 14.999 16.5381 14.998 16.5361 14.998C16.5156 14.9404 16.4951 14.8643 16.4795 14.7715C16.4502 14.6006 16.458 14.4248 16.4727 14.3271C16.5352 14.2627 16.582 14.1826 16.6045 14.0918C16.6162 14.0459 16.6201 13.9746 16.6182 13.9277C16.5879 13.1875 16.7227 12.6562 17.0195 12.3477C17.2431 12.1133 17.5682 12.0002 18.0123 12.0001C18.0121 12.0001 18.0124 12.0001 18.0123 12.0001C18.4556 12.0001 18.7812 12.1133 19.0059 12.3477C19.3018 12.6553 19.4365 13.1865 19.4062 13.9482C19.4053 13.9551 19.4053 13.9629 19.4053 13.9707C19.4053 14.0781 19.4395 14.1768 19.4971 14.2559C19.5137 14.2783 19.5312 14.3008 19.5508 14.3203C19.5664 14.417 19.5752 14.5977 19.5459 14.7725Z"/>
</svg>
