<svg  viewBox="0 0 24 24"  xmlns="http://www.w3.org/2000/svg">
<path d="M7.34668 3.83789C7.43848 3.99902 7.60743 4.08984 7.78028 4.08984C7.86524 4.08984 7.9502 4.06836 8.02832 4.02344C8.26856 3.88672 8.35157 3.58105 8.21387 3.3418L7.71973 2.47754C7.58203 2.23633 7.27344 2.15527 7.03809 2.29199C6.79785 2.42871 6.71485 2.73438 6.85254 2.97363L7.34668 3.83789ZM12.001 2.99805C12.2773 2.99805 12.501 2.77441 12.501 2.49805V1.50195C12.501 1.22559 12.2773 1.00195 12.001 1.00195C11.7246 1.00195 11.501 1.22559 11.501 1.50195V2.49805C11.501 2.77441 11.7246 2.99805 12.001 2.99805ZM3.38282 6.99414L4.26367 7.45703C4.33789 7.49609 4.417 7.51465 4.4961 7.51465C4.67578 7.51465 4.84961 7.41699 4.93848 7.24707C5.06739 7.00293 4.97266 6.7002 4.72852 6.57227L3.84766 6.10938C3.60547 5.98145 3.30078 6.07422 3.17285 6.31934C3.04395 6.56348 3.13868 6.86621 3.38282 6.99414ZM16.0059 4.04297C16.084 4.08887 16.1709 4.11035 16.2559 4.11035C16.4277 4.11035 16.5957 4.02051 16.6885 3.86035L17.1865 2.99902C17.3252 2.76074 17.2432 2.4541 17.0039 2.31641C16.7695 2.17773 16.4609 2.25977 16.3213 2.49902L15.8232 3.36035C15.6846 3.59863 15.7666 3.90527 16.0059 4.04297ZM19.5234 7.55664C19.6016 7.55664 19.6797 7.53906 19.7539 7.5L20.6367 7.04199C20.8818 6.91504 20.9775 6.61328 20.8496 6.36816C20.7227 6.12305 20.4209 6.02539 20.1758 6.15527L19.293 6.61328C19.0479 6.74023 18.9522 7.04199 19.0801 7.28711C19.1689 7.45801 19.3428 7.55664 19.5234 7.55664ZM19.1846 15.54C18.9609 15.3789 18.6484 15.4287 18.4873 15.6553C18.3262 15.8789 18.3779 16.1914 18.6025 16.3525L19.4111 16.9326C19.499 16.9961 19.6006 17.0264 19.7022 17.0264C19.8574 17.0264 20.0107 16.9541 20.1084 16.8174C20.2695 16.5938 20.2178 16.2812 19.9932 16.1201L19.1846 15.54ZM21.501 11.0068L20.5059 11.0059C20.5049 11.0059 20.5049 11.0059 20.5049 11.0059C20.2285 11.0059 20.0049 11.2295 20.0049 11.5049C20.0049 11.7812 20.2285 12.0059 20.5039 12.0059L21.5 12.0068C21.7764 12.0068 22 11.7832 22 11.5078C22 11.2314 21.7764 11.0068 21.501 11.0068ZM4.8291 15.4736L4.0166 16.0498C3.79102 16.21 3.73828 16.5225 3.89746 16.7471C3.99512 16.8848 4.14942 16.958 4.30567 16.958C4.40625 16.958 4.50684 16.9277 4.59473 16.8662L5.40723 16.29C5.63282 16.1299 5.68555 15.8174 5.52637 15.5928C5.36621 15.3662 5.05371 15.3164 4.8291 15.4736ZM3.99512 11.5098C3.9961 11.2334 3.77344 11.0088 3.49707 11.0078L2.50196 11.0039C2.27051 11.0254 2.00098 11.2256 2 11.502C1.99903 11.7783 2.22168 12.0029 2.49805 12.0039L3.49317 12.0078C3.49414 12.0078 3.49414 12.0078 3.49512 12.0078C3.77051 12.0078 3.99414 11.7852 3.99512 11.5098ZM12 5C8.69141 5 6 7.69141 6 11C6 13.2151 7.2096 15.1489 9 16.1882V18.8373L8.36231 19.0195C8.09668 19.0947 7.94336 19.3721 8.01953 19.6377C8.08203 19.8574 8.28223 20 8.5 20C8.54493 20 8.5918 19.9941 8.6377 19.9805L9 19.877V20.8373L8.36231 21.0195C8.09668 21.0947 7.94336 21.3721 8.01953 21.6377C8.08203 21.8574 8.28223 22 8.5 22C8.54493 22 8.5918 21.9941 8.6377 21.9805L10 21.5912V22.5C10 22.7764 10.2236 23 10.5 23H13.5C13.7764 23 14 22.7764 14 22.5V20.5C14 20.4827 13.9919 20.468 13.9902 20.4512L15.6377 19.9805C15.9033 19.9053 16.0566 19.6279 15.9805 19.3623C15.9053 19.0967 15.6299 18.9395 15.3623 19.0195L15 19.123V18.1627L15.6377 17.9805C15.9033 17.9053 16.0566 17.6279 15.9805 17.3623C15.9053 17.0967 15.6299 16.9385 15.3623 17.0195L15 17.123V16.1882C16.7904 15.1489 18 13.2151 18 11C18 7.69141 15.3086 5 12 5ZM13 22H11V21.3055L13 20.7341V22ZM14 19.4088L10 20.5516V19.5912L14 18.4484V19.4088ZM14 17.4088L10 18.5516V16.65C10.6267 16.8725 11.2979 17 12 17C12.7021 17 13.3734 16.8725 14 16.65V17.4088ZM11 15.8989V13H13V15.8989C12.6768 15.9648 12.3424 16 12 16C11.6576 16 11.3232 15.9648 11 15.8989ZM14 15.5762V12.5C14 12.2236 13.7764 12 13.5 12H10.5C10.2236 12 10 12.2236 10 12.5V15.5762C8.23731 14.8024 7 13.045 7 11C7 8.24316 9.24317 6 12 6C14.7568 6 17 8.24316 17 11C17 13.045 15.7627 14.8024 14 15.5762Z" "/>
</svg>
