<svg  viewBox="0 0 24 24"  xmlns="http://www.w3.org/2000/svg">
<path fill-rule="evenodd" clip-rule="evenodd" d="M10.5024 9.00098L11.9951 8.99902C12.8262 8.99902 13.5015 9.67188 13.5015 10.499C13.5015 11.3271 12.8262 12 11.9956 12H11.0039V13.5C11.0039 13.7764 10.7798 14.001 10.5029 14.001C10.2261 14.001 10.002 13.7764 10.002 13.5V11.5488C10.0005 11.5322 9.99951 11.5156 9.99951 11.499C9.99951 11.4824 10.0005 11.4658 10.002 11.4492V9.50195C10.002 9.22559 10.2256 9.00098 10.5024 9.00098ZM11.0039 10.998H11.9956C12.2734 10.998 12.4995 10.7744 12.4995 10.499C12.4995 10.2246 12.2734 10.001 11.9956 10.001L11.0039 10.002V10.998Z" />
<path fill-rule="evenodd" clip-rule="evenodd" d="M19.0715 11C19.2951 10.14 20.0712 9.5 21.0005 9.5C22.1035 9.5 23.0005 10.3975 23.0005 11.5C23.0005 12.6025 22.1035 13.5 21.0005 13.5C20.0712 13.5 19.2951 12.86 19.0715 12H15.95C15.818 13.1731 15.2421 14.2022 14.3839 14.9258L14.386 14.9282L14.3882 14.9307L16.1685 18.0399C16.2757 18.0154 16.386 18 16.5005 18C17.3276 18 18.0005 18.6729 18.0005 19.5C18.0005 20.3271 17.3276 21 16.5005 21C15.6733 21 15.0005 20.3271 15.0005 19.5C15.0005 19.1514 15.1249 18.8343 15.3252 18.5793L13.5517 15.4821C12.9337 15.802 12.2431 16 11.5005 16C10.9722 16 10.4725 15.8917 10.0012 15.7238C9.99873 15.7289 9.99742 15.7343 9.99612 15.7396C9.9946 15.7458 9.99309 15.752 9.98975 15.7578L8.37488 18.5541C8.7583 18.9188 9.00049 19.4305 9.00049 20C9.00049 21.1025 8.10303 22 7 22C5.89746 22 5.00049 21.1025 5.00049 20C5.00049 18.8975 5.89746 18 7.00049 18C7.17365 18 7.33887 18.0291 7.49921 18.0706L9.10272 15.2938C7.97858 14.5809 7.20697 13.386 7.05103 12H3.91357L3.91109 11.9995L3.90869 11.999C3.7019 12.5803 3.15186 13 2.50049 13C1.67334 13 1.00049 12.3271 1.00049 11.5C1.00049 10.6729 1.67334 10 2.50049 10C3.15186 10 3.7019 10.4197 3.90869 11.001L3.91109 11.0005L3.91357 11H7.05103C7.18683 9.79303 7.79285 8.73804 8.69189 8.01245L7.492 5.93164C7.33386 5.97198 7.17102 6 7.00049 6C5.89746 6 5.00049 5.10254 5.00049 4C5.00049 2.89746 5.89746 2 7.00049 2C8.10352 2 9.00049 2.89746 9.00049 4C9.00049 4.5722 8.75574 5.08563 8.36914 5.45056L9.53455 7.47156C10.131 7.17902 10.7925 7 11.5005 7C12.4418 7 13.3146 7.29254 14.0378 7.78851L15.3733 5.479C15.1442 5.21558 15.0005 4.87579 15.0005 4.5C15.0005 3.67285 15.6733 3 16.5005 3C17.3276 3 18.0005 3.67285 18.0005 4.5C18.0005 5.32715 17.3276 6 16.5005 6C16.4118 6 16.326 5.98865 16.2415 5.97382L14.801 8.46484C15.4312 9.14966 15.8405 10.027 15.95 11H19.0715ZM17.0005 4.5C17.0005 4.22461 16.7764 4 16.5005 4C16.2246 4 16.0005 4.22461 16.0005 4.5C16.0005 4.77539 16.2246 5 16.5005 5C16.7764 5 17.0005 4.77539 17.0005 4.5ZM6.00049 4C6.00049 4.55176 6.44922 5 7.00049 5C7.55176 5 8.00049 4.55176 8.00049 4C8.00049 3.44824 7.55176 3 7.00049 3C6.44922 3 6.00049 3.44824 6.00049 4ZM2.00049 11.5C2.00049 11.7754 2.22461 12 2.50049 12C2.77637 12 3.00049 11.7754 3.00049 11.5C3.00049 11.2246 2.77637 11 2.50049 11C2.22461 11 2.00049 11.2246 2.00049 11.5ZM6.00049 20C6.00049 20.5518 6.44873 21 7 21C7.55176 21 8.00049 20.5518 8.00049 20C8.00049 19.4482 7.55176 19 7.00049 19C6.44922 19 6.00049 19.4482 6.00049 20ZM17.0005 19.5C17.0005 19.2246 16.7764 19 16.5005 19C16.2246 19 16.0005 19.2246 16.0005 19.5C16.0005 19.7754 16.2246 20 16.5005 20C16.7764 20 17.0005 19.7754 17.0005 19.5ZM8.00049 11.5C8.00049 13.4297 9.5708 15 11.5005 15C13.4302 15 15.0005 13.4297 15.0005 11.5C15.0005 9.57031 13.4302 8 11.5005 8C9.5708 8 8.00049 9.57031 8.00049 11.5ZM20.0005 11.5C20.0005 12.0518 20.4492 12.5 21.0005 12.5C21.5518 12.5 22.0005 12.0518 22.0005 11.5C22.0005 10.9482 21.5518 10.5 21.0005 10.5C20.4492 10.5 20.0005 10.9482 20.0005 11.5Z" />
</svg>
