<svg  viewBox="0 0 24 24"  xmlns="http://www.w3.org/2000/svg">
<path fill-rule="evenodd" clip-rule="evenodd" d="M19.5703 15.8594C20.6484 15.8594 21.5156 15.543 22.1719 14.9102C22.8281 14.2773 23.2188 13.3047 23.3438 11.9922L23.3672 11.6406C23.4766 10.4844 23.2578 9.61328 22.7109 9.02734C22.1641 8.44141 21.4062 8.14844 20.4375 8.14844C19.875 8.14844 19.3672 8.23828 18.9141 8.41797C18.4609 8.59766 18.0703 8.86719 17.7422 9.22656C17.7891 9.10156 17.8242 8.96094 17.8477 8.80469C17.8711 8.64844 17.8828 8.48438 17.8828 8.3125H13.8984C13.4609 8.3125 13.1094 8.41797 12.8438 8.62891C12.5781 8.83984 12.3594 9.1875 12.1875 9.67188L12.375 8.3125H8.34375C7.98438 8.3125 7.67969 8.39844 7.42969 8.57031C7.17969 8.74219 7.00781 9 6.91406 9.34375C6.67969 8.95312 6.34375 8.65625 5.90625 8.45312C5.46875 8.25 4.97656 8.14844 4.42969 8.14844C3.35156 8.14844 2.48438 8.46484 1.82812 9.09766C1.17188 9.73047 0.78125 10.7031 0.65625 12.0156L0.632812 12.3438C0.523438 13.5156 0.742188 14.3906 1.28906 14.9688C1.83594 15.5469 2.59375 15.8359 3.5625 15.8359C4.625 15.8359 5.48438 15.5195 6.14062 14.8867C6.79688 14.2539 7.1875 13.2812 7.3125 11.9688L7.35938 11.6406C7.375 11.3438 7.375 11.0664 7.35938 10.8086C7.34375 10.5508 7.30469 10.3047 7.24219 10.0703H9.04688L8.53125 14.5C8.48438 14.9375 8.56641 15.2617 8.77734 15.4727C8.98828 15.6836 9.29688 15.7891 9.70312 15.7891C9.9375 15.7891 10.1094 15.7812 10.2188 15.7656C10.3281 15.75 10.4297 15.7344 10.5234 15.7188L11.1797 10.0703H13.2656L12.75 14.5C12.7031 14.9375 12.7891 15.2617 13.0078 15.4727C13.2266 15.6836 13.5312 15.7891 13.9219 15.7891C14.1719 15.7891 14.3516 15.7812 14.4609 15.7656C14.5703 15.75 14.6719 15.7344 14.7656 15.7188L15.3984 10.0703H16.4297C16.6172 10.0703 16.7812 10.0508 16.9219 10.0117C17.0625 9.97266 17.1875 9.91406 17.2969 9.83594C17.1406 10.1172 17.0117 10.4414 16.9102 10.8086C16.8086 11.1758 16.7344 11.5781 16.6875 12.0156L16.6641 12.3438C16.5547 13.5156 16.7734 14.3945 17.3203 14.9805C17.8672 15.5664 18.6172 15.8594 19.5703 15.8594ZM3.75 14.0781C3.4375 14.0781 3.18359 13.957 2.98828 13.7148C2.79297 13.4727 2.71875 13.0625 2.76562 12.4844V12.2266C2.84375 11.3359 3.01562 10.7266 3.28125 10.3984C3.54688 10.0703 3.85938 9.90625 4.21875 9.90625C4.53125 9.90625 4.78906 10.0273 4.99219 10.2695C5.19531 10.5117 5.27344 10.9219 5.22656 11.5L5.20312 11.7578C5.125 12.6484 4.95312 13.2578 4.6875 13.5859C4.42188 13.9141 4.10938 14.0781 3.75 14.0781ZM19.7812 14.0781C19.4688 14.0781 19.2109 13.957 19.0078 13.7148C18.8047 13.4727 18.7266 13.0625 18.7734 12.4844L18.7969 12.2266C18.875 11.3359 19.0469 10.7266 19.3125 10.3984C19.5781 10.0703 19.8906 9.90625 20.25 9.90625C20.5625 9.90625 20.8164 10.0273 21.0117 10.2695C21.207 10.5117 21.2812 10.9219 21.2344 11.5V11.7578C21.1562 12.6484 20.9844 13.2578 20.7188 13.5859C20.4531 13.9141 20.1406 14.0781 19.7812 14.0781Z" "/>
</svg>
