<svg  viewBox="0 0 24 24"  xmlns="http://www.w3.org/2000/svg">
<path d="M12.4777 11.6104C12.4862 11.5739 12.5 11.5392 12.5 11.5C12.5 10.6147 12.8281 10.2354 13.209 9.79639C13.5791 9.36816 14 8.88232 14 8C14 6.89697 13.1025 6 12 6C11.0879 6 10.292 6.61621 10.0635 7.49854C9.99512 7.76562 10.1553 8.03857 10.4229 8.10742C10.6943 8.18066 10.9629 8.01562 11.0322 7.74854C11.1455 7.30811 11.5439 7 12 7C12.5518 7 13 7.44873 13 8C13 8.50977 12.7822 8.76123 12.4531 9.1416C12.0283 9.63184 11.5 10.2417 11.5 11.5C11.5 11.5392 11.5138 11.5739 11.5223 11.6104C7.80731 12.6034 2 14.4094 2 16C2 17.103 2.89746 18 4 18H20C21.1025 18 22 17.103 22 16C22 14.4094 16.1927 12.6034 12.4777 11.6104ZM20 17H4C3.44824 17 3 16.5513 2.99609 16.0298C3.25586 15.2847 7.83594 13.6226 12 12.5171C16.1641 13.6226 20.7432 15.2842 21 16C21 16.5513 20.5518 17 20 17Z" />
</svg>
