<svg  viewBox="0 0 24 24"  xmlns="http://www.w3.org/2000/svg">
<path d="M11.5 15.875C11.1548 15.875 10.875 16.1548 10.875 16.5C10.875 16.8452 11.1548 17.125 11.5 17.125C11.8452 17.125 12.125 16.8452 12.125 16.5C12.125 16.1548 11.8452 15.875 11.5 15.875ZM11.7715 7C10.7959 7 9.7832 7.44971 9.12891 8.17334C8.94434 8.37842 8.95996 8.69434 9.16504 8.87988C9.37012 9.06494 9.68652 9.0498 9.87109 8.84424C10.335 8.33154 11.0811 8 11.7715 8C12.8486 8 14 8.5083 14 9.93506C14 10.7324 13.4902 11.082 12.6582 11.5869C11.9072 12.0415 10.9736 12.6079 10.9736 13.8203V14.5352C10.9736 14.8115 11.1973 15.0352 11.4736 15.0352C11.75 15.0352 11.9736 14.8115 11.9736 14.5352V13.8203C11.9736 13.2012 12.4082 12.9077 13.1758 12.4419C13.9893 11.9492 15 11.3364 15 9.93506C15 8.17969 13.7021 7 11.7715 7ZM12 3C7.03802 3 3 7.03699 3 12C3 16.962 7.03802 21 12 21C16.963 21 21 16.962 21 12C21 7.03699 16.963 3 12 3ZM12 20C7.58899 20 4 16.411 4 12C4 7.58801 7.58899 4 12 4C16.411 4 20 7.58801 20 12C20 16.411 16.411 20 12 20Z" />
</svg>
