<svg  viewBox="0 0 24 24"  xmlns="http://www.w3.org/2000/svg">
<path d="M8 18.5C8 18.2236 8.22363 18 8.5 18C8.77637 18 9 18.2236 9 18.5V19.5C9 19.7764 8.77637 20 8.5 20C8.22363 20 8 19.7764 8 19.5V18.5Z" "/>
<path fill-rule="evenodd" clip-rule="evenodd" d="M22.0005 16.3818L22.9478 18.2764C23.0254 18.4316 23.0171 18.6152 22.9258 18.7627C22.8345 18.9102 22.6738 19 22.5005 19H16.9985V22.5C16.9985 22.7764 16.7749 23 16.4985 23H6.49854C6.22217 23 5.99854 22.7764 5.99854 22.5V15.5C5.99854 15.2236 6.22217 15 6.49854 15H9.00049V14H4.99951C4.72314 14 4.49951 13.7764 4.49951 13.5C4.49951 13.2236 4.72314 13 4.99951 13H5.33575C5.33664 13 5.33743 12.9997 5.33821 12.9995C5.33905 12.9993 5.33988 12.999 5.34082 12.999C5.34082 12.999 5.82178 12.999 6.16016 12.6636C6.32056 12.5047 6.41199 12.2695 6.47107 12H1.5C1.22363 12 1 11.7764 1 11.5V1.5C1 1.22363 1.22363 1 1.5 1H16.5C16.7764 1 17 1.22363 17 1.5V8.00049H21.5005C21.7769 8.00049 22.0005 8.22412 22.0005 8.50049V16.3818ZM2 2V11H9.00049V8.50049C9.00049 8.22412 9.22412 8.00049 9.50049 8.00049H16V2H2ZM7.50305 12C7.45032 12.381 7.33783 12.7168 7.1604 13H9.00049V12H7.50305ZM6.99854 22H15.9985V16H6.99854V22ZM10.0005 15H16.4985C16.7749 15 16.9985 15.2236 16.9985 15.5V16H21.0005V9.00049H10.0005V15ZM16.9985 17V18H21.6914L21.1914 17H16.9985Z" "/>
</svg>
