<svg  viewBox="0 0 24 24"  xmlns="http://www.w3.org/2000/svg">
<path fill-rule="evenodd" clip-rule="evenodd" d="M14.5005 8.0002H3.50052C3.23931 7.99993 3.0219 8.20078 3.00152 8.46121L2.00152 21.4612C1.99065 21.6003 2.03834 21.7375 2.1331 21.8399C2.22785 21.9422 2.36105 22.0004 2.50052 22.0002H15.5005C15.64 22.0004 15.7732 21.9422 15.868 21.8399C15.9627 21.7375 16.0104 21.6003 15.9995 21.4612L14.9995 8.46121C14.9791 8.20078 14.7617 7.99993 14.5005 8.0002ZM14.0375 9.00021L14.9605 21.0002H3.04052L3.96352 9.00021H14.0375ZM11.1675 10.6052C10.8914 10.6052 10.6675 10.8291 10.6675 11.1052C10.6675 12.5472 9.80352 13.2032 9.00052 13.2032C8.19753 13.2032 7.33353 12.5472 7.33353 11.1052C7.33353 10.8291 7.10967 10.6052 6.83353 10.6052C6.55738 10.6052 6.33353 10.8291 6.33353 11.1052C6.33353 13.1392 7.67552 14.2032 9.00052 14.2032C10.3255 14.2032 11.6675 13.1392 11.6675 11.1052C11.6675 10.8291 11.4437 10.6052 11.1675 10.6052ZM21.4857 2.00022C21.6183 1.99628 21.747 2.0452 21.8435 2.13621C21.9402 2.22702 21.9969 2.35254 22.001 2.48515C22.0043 2.59123 21.9738 2.69488 21.9149 2.78158L21.8655 2.84321L17.6155 7.35921C17.4496 7.53755 17.1832 7.5669 16.9845 7.44079L16.9135 7.38621L14.6635 5.33121C14.5248 5.21259 14.4617 5.02778 14.4989 4.84907C14.5362 4.67036 14.6679 4.52616 14.8425 4.47289C14.988 4.42849 15.144 4.45312 15.2676 4.53633L15.3375 4.59321L17.2245 6.31521L21.1365 2.15721C21.2275 2.06063 21.3531 2.00416 21.4857 2.00022Z" "/>
</svg>
