<svg width="24" height="24" viewBox="0 0 24 24" xmlns="http://www.w3.org/2000/svg">
<path d="M21.5 2.99805H2.5C2.22363 2.99805 2 3.22168 2 3.49805V19.498C2 19.7744 2.22363 19.998 2.5 19.998H11.9903C11.9937 19.9981 11.9966 20 12 20C12.0034 20 12.0063 19.9981 12.0097 19.998H21.5C21.7764 19.998 22 19.7744 22 19.498V3.49805C22 3.22168 21.7764 2.99805 21.5 2.99805ZM11.5 18.998H3V7.99805H11.5V9.05054C9.42249 9.28424 7.78424 10.9225 7.55054 13H6C5.72363 13 5.5 13.2236 5.5 13.5C5.5 13.7764 5.72363 14 6 14H7.55054C7.78424 16.0775 9.42249 17.7158 11.5 17.9495V18.998ZM12 16C11.7236 16 11.5 16.2236 11.5 16.5V16.9495C9.97308 16.7281 8.77191 15.5269 8.55054 14H10C10.2764 14 10.5 13.7764 10.5 13.5C10.5 13.2236 10.2764 13 10 13H8.55054C8.77191 11.4731 9.97308 10.2719 11.5 10.0505V10.5C11.5 10.7764 11.7236 11 12 11C12.2764 11 12.5 10.7764 12.5 10.5V10.0505C14.0269 10.2719 15.2281 11.4731 15.4495 13H14C13.7236 13 13.5 13.2236 13.5 13.5C13.5 13.7764 13.7236 14 14 14H15.4495C15.2281 15.5269 14.0269 16.7281 12.5 16.9495V16.5C12.5 16.2236 12.2764 16 12 16ZM21 18.998H12.5V17.9495C14.5775 17.7158 16.2158 16.0775 16.4495 14H18C18.2764 14 18.5 13.7764 18.5 13.5C18.5 13.2236 18.2764 13 18 13H16.4495C16.2158 10.9225 14.5775 9.28424 12.5 9.05054V7.99805H21V18.998ZM21 6.99805H3V3.99805H21V6.99805ZM8.50018 5.99786C8.77618 5.99786 9 5.77411 9 5.49805C9 5.22198 8.77618 4.99823 8.50018 4.99823C8.22418 4.99823 8.00037 5.22198 8.00037 5.49805C8.00037 5.77411 8.22418 5.99786 8.50018 5.99786ZM4.50018 5.99786C4.77618 5.99786 5 5.77411 5 5.49805C5 5.22198 4.77618 4.99823 4.50018 4.99823C4.22418 4.99823 4.00037 5.22198 4.00037 5.49805C4.00037 5.77411 4.22418 5.99786 4.50018 5.99786ZM6.50018 5.99786C6.77618 5.99786 7 5.77411 7 5.49805C7 5.22198 6.77618 4.99823 6.50018 4.99823C6.22418 4.99823 6.00037 5.22198 6.00037 5.49805C6.00037 5.77411 6.22418 5.99786 6.50018 5.99786Z" />
</svg>
