<svg viewBox="0 0 24 24" fill="none" xmlns="http://www.w3.org/2000/svg">
<rect x="0" y="0" width="32" height="32" fill="#061AB1"/>
<g clip-path="url(#clip0_1022_37)">
<path d="M20.8424 14.165C20.8424 14.1437 20.8424 14.1225 20.8424 14.1033C20.8445 14.1012 20.8445 14.1033 20.8466 14.1033C20.8466 14.1246 20.8466 14.1437 20.8466 14.165C20.8466 14.1671 20.8445 14.1671 20.8424 14.165Z" fill="#FDDB3F"/>
<path d="M20.8466 14.1033C20.8445 14.1033 20.8445 14.1033 20.8424 14.1033C20.8424 14.0885 20.8424 14.0736 20.8424 14.0587C20.8445 14.0587 20.8445 14.0587 20.8466 14.0587C20.8466 14.0736 20.8466 14.0885 20.8466 14.1033Z" fill="#FDEB94"/>
<path d="M20.8424 14.165C20.8445 14.165 20.8445 14.165 20.8466 14.165C20.8466 14.1777 20.8466 14.1884 20.8466 14.2011C20.8381 14.1905 20.8445 14.1777 20.8424 14.165Z" fill="#FEE679"/>
<path d="M6.81683 9.15516C7.11502 9.17004 7.40682 9.21043 7.70075 9.26569C7.85836 9.29545 8.01597 9.32945 8.16933 9.38047C8.19276 9.38897 8.21619 9.3996 8.23962 9.40597C8.26092 9.41235 8.26731 9.42298 8.26731 9.44636C8.26731 9.92247 8.26731 10.4007 8.26731 10.8768C8.26731 10.9045 8.26731 10.9321 8.26731 10.9618C8.17785 10.9363 8.09052 10.9108 8.00319 10.8853C7.72417 10.8067 7.43876 10.7429 7.15122 10.7047C6.88711 10.6685 6.62087 10.6579 6.35463 10.694C6.1246 10.7238 5.90522 10.7854 5.70714 10.9087C5.45793 11.0639 5.29819 11.287 5.20447 11.5612C5.14483 11.7398 5.11715 11.9247 5.11076 12.1139C5.10437 12.2818 5.11076 12.4497 5.13632 12.6176C5.16826 12.8153 5.22577 13.0045 5.33866 13.1724C5.48775 13.3913 5.69862 13.5167 5.95208 13.5741C6.09052 13.606 6.2311 13.623 6.37167 13.6081C6.63578 13.5826 6.86794 13.4848 7.0426 13.2744C7.05112 13.2659 7.05751 13.2553 7.0639 13.2446C7.06603 13.2425 7.06603 13.2404 7.06603 13.2383C7.05751 13.234 7.04686 13.2361 7.03834 13.2361C6.70181 13.2361 6.36315 13.2361 6.02662 13.2361C6.00319 13.2361 5.99468 13.2319 5.99468 13.2064C5.99468 12.794 5.99468 12.3838 5.99468 11.9715C5.99468 11.9481 6.00106 11.9417 6.02449 11.9417C6.96805 11.9417 7.90948 11.9417 8.85303 11.9417C8.87646 11.9417 8.88285 11.9481 8.88285 11.9715C8.88285 12.9875 8.88285 14.0056 8.88285 15.0216C8.88285 15.0428 8.87859 15.0492 8.85516 15.0492C8.47391 15.0492 8.09265 15.0492 7.70927 15.0492C7.68371 15.0492 7.67945 15.0407 7.67945 15.0173C7.68158 14.7495 7.68371 14.4817 7.68584 14.2139C7.68584 14.2054 7.68584 14.1947 7.68158 14.1841C7.67306 14.199 7.66667 14.2139 7.65815 14.2287C7.53887 14.4498 7.36422 14.6198 7.15974 14.758C6.88285 14.9429 6.57827 15.0556 6.25027 15.1108C6.15442 15.1257 6.0607 15.1363 5.96273 15.1406C5.95208 15.1448 5.94143 15.1406 5.93078 15.1427C5.90948 15.1427 5.88818 15.1427 5.86688 15.1427C5.8541 15.1427 5.84132 15.1427 5.83067 15.1427C5.80511 15.1427 5.77742 15.1427 5.75186 15.1427C5.73908 15.1427 5.7263 15.1427 5.7114 15.1427C5.45154 15.1427 5.19808 15.1002 4.94888 15.0279C4.80831 14.9876 4.67199 14.9344 4.53994 14.8685C4.36102 14.7793 4.19489 14.6666 4.04366 14.5327C3.87966 14.386 3.73056 14.2224 3.60916 14.0374C3.46858 13.8249 3.36422 13.5953 3.28967 13.3509C3.24494 13.2 3.20873 13.0448 3.18743 12.8876C3.17039 12.7728 3.15548 12.658 3.15548 12.5411C3.15548 12.5071 3.15335 12.4731 3.15335 12.4391C3.15335 12.4263 3.15335 12.4136 3.15335 12.3987C3.15335 12.3732 3.15335 12.3498 3.15335 12.3243C3.15335 12.2967 3.15335 12.2669 3.15335 12.2393C3.15335 12.2159 3.15335 12.1925 3.15335 12.1691C3.15335 12.1564 3.15335 12.1436 3.15335 12.1287C3.15335 11.8312 3.20234 11.54 3.28754 11.2552C3.33653 11.0936 3.3983 10.9363 3.47497 10.7854C3.57508 10.5878 3.70075 10.4028 3.84771 10.2349C4.02023 10.0351 4.21832 9.86296 4.4377 9.7163C4.64856 9.57389 4.87646 9.46336 5.11502 9.37621C5.38126 9.27844 5.65602 9.2168 5.93717 9.18067C6.07774 9.16154 6.22045 9.14879 6.36102 9.14879C6.37167 9.14879 6.38019 9.14879 6.39084 9.14879C6.40362 9.14879 6.4164 9.14879 6.42918 9.14879C6.44409 9.14666 6.46113 9.15091 6.47604 9.14666C6.55272 9.14666 6.62939 9.14666 6.70607 9.14666C6.72098 9.15304 6.73802 9.14879 6.75293 9.14879C6.76358 9.14879 6.77423 9.14879 6.78275 9.14879C6.79553 9.15516 6.80618 9.15091 6.81683 9.15516Z" fill="white"/>
<path d="M15.6752 15.1448C15.5133 15.1406 15.3514 15.1321 15.1917 15.1193C14.9744 15.1023 14.7593 15.0768 14.5442 15.0407C14.3568 15.0088 14.1715 14.9705 13.9904 14.9153C13.9691 14.9089 13.9627 14.9004 13.9627 14.877C13.9627 14.369 13.9627 13.861 13.9627 13.353C13.9627 13.3212 13.9627 13.3212 13.9925 13.3297C14.2375 13.4062 14.4888 13.4636 14.7423 13.5125C14.9361 13.5507 15.1321 13.5826 15.328 13.6081C15.4835 13.6272 15.6411 13.64 15.7987 13.6442C15.9393 13.6485 16.0799 13.6421 16.2183 13.6166C16.2971 13.6017 16.3738 13.5783 16.442 13.5337C16.5357 13.4742 16.5761 13.3849 16.557 13.2829C16.5485 13.234 16.5186 13.2 16.4782 13.1745C16.4121 13.132 16.3397 13.1086 16.2652 13.0916C16.033 13.0385 15.8009 12.9853 15.5687 12.9343C15.3131 12.8791 15.0639 12.8068 14.8253 12.6941C14.5698 12.573 14.344 12.4114 14.1757 12.1819C14.0373 11.9927 13.9542 11.7802 13.9116 11.5506C13.8882 11.4252 13.8797 11.2998 13.8797 11.1723C13.8797 10.8279 13.9414 10.4985 14.1097 10.1945C14.2865 9.87146 14.5442 9.63128 14.8701 9.45911C15.1086 9.33371 15.3621 9.25506 15.6262 9.2083C15.7796 9.18067 15.935 9.16579 16.0905 9.15729C16.1012 9.15304 16.1118 9.15729 16.1203 9.15516C16.131 9.15516 16.1438 9.15516 16.1544 9.15516C16.1693 9.15304 16.1821 9.15729 16.197 9.15304C16.2694 9.15304 16.3397 9.15304 16.4121 9.15304C16.427 9.15941 16.4441 9.15516 16.459 9.15516C16.4696 9.15516 16.4824 9.15516 16.4931 9.15516C16.5037 9.15516 16.5122 9.15516 16.5229 9.15516C16.6592 9.15516 16.7955 9.16579 16.9297 9.18067C17.164 9.20405 17.3983 9.23381 17.6305 9.27419C17.7774 9.2997 17.9244 9.32733 18.0714 9.36346C18.1139 9.37409 18.1139 9.37622 18.1139 9.41873C18.1139 9.89697 18.1139 10.3752 18.1139 10.8534C18.1139 10.8556 18.1139 10.8577 18.1139 10.8619C18.1139 10.8981 18.1097 10.9002 18.0735 10.8917C17.9031 10.8492 17.7327 10.8109 17.5602 10.7791C17.3663 10.7429 17.1725 10.7089 16.9787 10.6834C16.8445 10.6664 16.7103 10.6515 16.574 10.6409C16.4569 10.6324 16.3376 10.6324 16.2183 10.6366C16.0948 10.6409 15.9734 10.66 15.8626 10.7195C15.7923 10.7578 15.737 10.8109 15.7199 10.8917C15.7007 10.9788 15.7348 11.0511 15.8136 11.1021C15.8711 11.1404 15.935 11.1638 16.0011 11.1808C16.1928 11.2297 16.3845 11.2722 16.5783 11.3189C16.7551 11.3614 16.934 11.3997 17.1065 11.4571C17.3536 11.54 17.59 11.6463 17.7987 11.8078C18.0224 11.98 18.1906 12.1968 18.2886 12.4625C18.3461 12.6197 18.3802 12.7834 18.3951 12.9513C18.4057 13.0788 18.4079 13.2064 18.3994 13.3339C18.3738 13.6761 18.2737 13.9928 18.0692 14.2713C17.9457 14.4413 17.7945 14.5816 17.6241 14.7027C17.3876 14.8664 17.1257 14.9748 16.8488 15.0471C16.6912 15.0875 16.5314 15.1151 16.3717 15.1321C16.2609 15.1448 16.1502 15.1491 16.0415 15.1491C16.0266 15.1491 16.0117 15.1491 15.9968 15.1491C15.967 15.1491 15.9372 15.1491 15.9073 15.1491C15.8882 15.1491 15.869 15.1491 15.8498 15.1491C15.8115 15.1491 15.7732 15.1491 15.7348 15.1491C15.7135 15.1448 15.6944 15.1491 15.6752 15.1448Z" fill="white"/>
<path d="M20.8466 14.216C20.8339 14.25 20.8339 14.2883 20.8275 14.3244C20.7891 14.5114 20.7082 14.673 20.5761 14.8111C20.4185 14.979 20.2247 15.0811 19.9968 15.1108C19.6816 15.1533 19.4047 15.0641 19.1725 14.8451C19.0149 14.6964 18.9169 14.5114 18.8829 14.2968C18.836 13.9949 18.9105 13.7229 19.1086 13.4912C19.262 13.3127 19.4558 13.1979 19.6901 13.1639C20.0692 13.1065 20.3866 13.2255 20.6315 13.521C20.7593 13.6761 20.8275 13.8568 20.8445 14.0566C20.8488 14.0715 20.8445 14.0863 20.8466 14.1033C20.8466 14.1225 20.8466 14.1416 20.8466 14.1629C20.8488 14.1756 20.8445 14.1884 20.8488 14.2011C20.8466 14.2054 20.8466 14.2117 20.8466 14.216Z" fill="#FFD101"/>
<path d="M9.47284 12.1479C9.47284 11.1914 9.47284 10.2328 9.47284 9.27632C9.47284 9.25081 9.47923 9.24656 9.50266 9.24656C10.1033 9.24656 10.7061 9.24656 11.3067 9.24656C11.3301 9.24656 11.3344 9.25294 11.3344 9.27632C11.3344 10.6855 11.3344 12.0947 11.3344 13.5039C11.3344 13.538 11.3344 13.538 11.3685 13.538C12.0245 13.538 12.6826 13.538 13.3387 13.538C13.3642 13.538 13.3685 13.5443 13.3685 13.5677C13.3685 14.0523 13.3685 14.5369 13.3685 15.0216C13.3685 15.0471 13.36 15.0513 13.3365 15.0513C12.0586 15.0513 10.7806 15.0513 9.50266 15.0513C9.47497 15.0513 9.47071 15.0449 9.47071 15.0173C9.47284 14.0608 9.47284 13.1044 9.47284 12.1479Z" fill="white"/>
</g>
<defs>
<clipPath id="clip0_1022_37">
<rect width="18" height="6.3" fill="white" transform="translate(3 9)"/>
</clipPath>
</defs>
</svg>
