<svg  viewBox="0 0 24 24"  xmlns="http://www.w3.org/2000/svg">
<path d="M19.999 17C18.8965 17 17.999 17.8975 17.999 19H11.4069C11.1998 18.4193 10.65 18 9.99902 18C9.34802 18 8.79822 18.4193 8.59113 19H7.07324C5.27344 19 3.80859 17.5352 3.80859 15.7354V15.2646C3.80859 13.9437 4.60107 12.8092 5.73254 12.2958C5.99841 12.7173 6.4649 13 6.99902 13C7.65002 13 8.19983 12.5807 8.40692 12H15.5911C15.7982 12.5807 16.348 13 16.999 13C17.8053 13 18.4601 12.3593 18.4929 11.5609C19.8615 10.9286 20.8086 9.67004 20.8086 8.20605V7.79395C20.8086 5.70215 18.8955 4 16.5439 4H15.4069C15.1998 3.41925 14.65 3 13.999 3C13.348 3 12.7982 3.41925 12.5911 4H5.72083C5.37378 3.40509 4.73578 3 3.99902 3C2.89648 3 1.99902 3.89697 1.99902 5C1.99902 6.10303 2.89648 7 3.99902 7C5.10156 7 5.99902 6.10303 5.99902 5H12.5911C12.7982 5.58075 13.348 6 13.999 6C14.65 6 15.1998 5.58075 15.4069 5H16.5439C18.3438 5 19.8086 6.25342 19.8086 7.79395V8.20605C19.8086 9.22931 19.1553 10.1163 18.1939 10.6031C17.92 10.2392 17.4886 10 16.999 10C16.348 10 15.7982 10.4193 15.5911 11H8.40692C8.19983 10.4193 7.65002 10 6.99902 10C6.23926 10 5.61646 10.5698 5.51892 11.3033C3.93585 11.9269 2.80859 13.4628 2.80859 15.2646V15.7354C2.80859 18.0869 4.72168 20 7.07324 20H8.59113C8.79822 20.5807 9.34802 21 9.99902 21C10.65 21 11.1998 20.5807 11.4069 20H18.2773C18.6243 20.5948 19.2623 21 19.999 21C21.1016 21 21.999 20.1025 21.999 19C21.999 17.8975 21.1016 17 19.999 17ZM3.99902 6C3.44727 6 2.99902 5.55127 2.99902 5C2.99902 4.44873 3.44727 4 3.99902 4C4.55078 4 4.99902 4.44873 4.99902 5C4.99902 5.55127 4.55078 6 3.99902 6ZM17.226 11.9387C17.157 11.9747 17.082 12 16.999 12C16.9494 12 16.9043 11.9852 16.8589 11.9717C16.9823 11.9634 17.1058 11.9561 17.226 11.9387ZM6.99902 11C7.00781 11 7.01508 11.0046 7.02374 11.005C6.98999 11.0054 6.95844 11.0139 6.92487 11.015C6.95007 11.0111 6.97278 11 6.99902 11ZM19.999 20C19.4473 20 18.999 19.5518 18.999 19C18.999 18.4482 19.4473 18 19.999 18C20.5508 18 20.999 18.4482 20.999 19C20.999 19.5518 20.5508 20 19.999 20Z" />
</svg>
