<svg  viewBox="0 0 24 24"  xmlns="http://www.w3.org/2000/svg">
<path d="M10.5 10.1284C10.8452 10.1284 11.125 9.8486 11.125 9.50342C11.125 9.15824 10.8452 8.87842 10.5 8.87842C10.1548 8.87842 9.875 9.15824 9.875 9.50342C9.875 9.8486 10.1548 10.1284 10.5 10.1284Z" />
<path d="M17.125 9.50342C17.125 9.8486 16.8452 10.1284 16.5 10.1284C16.1548 10.1284 15.875 9.8486 15.875 9.50342C15.875 9.15824 16.1548 8.87842 16.5 8.87842C16.8452 8.87842 17.125 9.15824 17.125 9.50342Z" />
<path d="M13.5 10.1284C13.8452 10.1284 14.125 9.8486 14.125 9.50342C14.125 9.15824 13.8452 8.87842 13.5 8.87842C13.1548 8.87842 12.875 9.15824 12.875 9.50342C12.875 9.8486 13.1548 10.1284 13.5 10.1284Z" />
<path d="M11.125 12.5059C11.125 12.851 10.8452 13.1309 10.5 13.1309C10.1548 13.1309 9.875 12.851 9.875 12.5059C9.875 12.1607 10.1548 11.8809 10.5 11.8809C10.8452 11.8809 11.125 12.1607 11.125 12.5059Z" />
<path d="M16.5 13.1309C16.8452 13.1309 17.125 12.851 17.125 12.5059C17.125 12.1607 16.8452 11.8809 16.5 11.8809C16.1548 11.8809 15.875 12.1607 15.875 12.5059C15.875 12.851 16.1548 13.1309 16.5 13.1309Z" />
<path d="M14.1206 12.5059C14.1206 12.851 13.8408 13.1309 13.4956 13.1309C13.1504 13.1309 12.8706 12.851 12.8706 12.5059C12.8706 12.1607 13.1504 11.8809 13.4956 11.8809C13.8408 11.8809 14.1206 12.1607 14.1206 12.5059Z" />
<path d="M7.5 13.1309C7.84518 13.1309 8.125 12.851 8.125 12.5059C8.125 12.1607 7.84518 11.8809 7.5 11.8809C7.15482 11.8809 6.875 12.1607 6.875 12.5059C6.875 12.851 7.15482 13.1309 7.5 13.1309Z" />
<path d="M11.125 15.4961C11.125 15.8413 10.8452 16.1211 10.5 16.1211C10.1548 16.1211 9.875 15.8413 9.875 15.4961C9.875 15.1509 10.1548 14.8711 10.5 14.8711C10.8452 14.8711 11.125 15.1509 11.125 15.4961Z" />
<path d="M16.5 16.1211C16.8452 16.1211 17.125 15.8413 17.125 15.4961C17.125 15.1509 16.8452 14.8711 16.5 14.8711C16.1548 14.8711 15.875 15.1509 15.875 15.4961C15.875 15.8413 16.1548 16.1211 16.5 16.1211Z" />
<path d="M8.125 15.4961C8.125 15.8413 7.84518 16.1211 7.5 16.1211C7.15482 16.1211 6.875 15.8413 6.875 15.4961C6.875 15.1509 7.15482 14.8711 7.5 14.8711C7.84518 14.8711 8.125 15.1509 8.125 15.4961Z" />
<path d="M8.14648 8.14648L7.5 8.79297L6.85352 8.14648C6.6582 7.95117 6.3418 7.95117 6.14648 8.14648C5.95117 8.3418 5.95117 8.6582 6.14648 8.85352L6.79297 9.5L6.14648 10.1465C5.95117 10.3418 5.95117 10.6582 6.14648 10.8535C6.24414 10.9512 6.37207 11 6.5 11C6.62793 11 6.75586 10.9512 6.85352 10.8535L7.5 10.207L8.14648 10.8535C8.24414 10.9512 8.37207 11 8.5 11C8.62793 11 8.75586 10.9512 8.85352 10.8535C9.04883 10.6582 9.04883 10.3418 8.85352 10.1465L8.20703 9.5L8.85352 8.85352C9.04883 8.6582 9.04883 8.3418 8.85352 8.14648C8.6582 7.95117 8.3418 7.95117 8.14648 8.14648Z" />
<path d="M14.1465 14.1465C14.3418 13.9512 14.6582 13.9512 14.8535 14.1465C15.0488 14.3418 15.0488 14.6582 14.8535 14.8535L14.207 15.5L14.8535 16.1465C15.0488 16.3418 15.0488 16.6582 14.8535 16.8535C14.7559 16.9512 14.6279 17 14.5 17C14.3721 17 14.2441 16.9512 14.1465 16.8535L13.5 16.207L12.8535 16.8535C12.7559 16.9512 12.6279 17 12.5 17C12.3721 17 12.2441 16.9512 12.1465 16.8535C11.9512 16.6582 11.9512 16.3418 12.1465 16.1465L12.793 15.5L12.1465 14.8535C11.9512 14.6582 11.9512 14.3418 12.1465 14.1465C12.3418 13.9512 12.6582 13.9512 12.8535 14.1465L13.5 14.793L14.1465 14.1465Z" />
<path fill-rule="evenodd" clip-rule="evenodd" d="M19.5 5H16V4.5C16 4.22363 15.7764 4 15.5 4C15.2236 4 15 4.22363 15 4.5V5H12.5V4.5C12.5 4.22363 12.2764 4 12 4C11.7236 4 11.5 4.22363 11.5 4.5V5H9V4.5C9 4.22363 8.77637 4 8.5 4C8.22363 4 8 4.22363 8 4.5V5H4.5C4.22363 5 4 5.22363 4 5.5V18.5C4 18.7764 4.22363 19 4.5 19H19.5C19.7764 19 20 18.7764 20 18.5V5.5C20 5.22363 19.7764 5 19.5 5ZM5 18V6H8V6.5C8 6.77637 8.22363 7 8.5 7C8.77637 7 9 6.77637 9 6.5V6H11.5V6.5C11.5 6.77637 11.7236 7 12 7C12.2764 7 12.5 6.77637 12.5 6.5V6H15V6.5C15 6.77637 15.2236 7 15.5 7C15.7764 7 16 6.77637 16 6.5V6H19V18H5Z" />
</svg>
