<svg  viewBox="0 0 24 24"  xmlns="http://www.w3.org/2000/svg">
<path d="M10.0049 14.5C10.0049 14.7764 10.2285 15 10.5049 15H11.1993C11.5671 16.2736 12.4445 17 13.7002 17C14.2959 17 14.8984 16.709 15.3105 16.2212C15.4893 16.0103 15.4629 15.6948 15.252 15.5166C15.04 15.3384 14.7256 15.3643 14.5469 15.5757C14.3223 15.8413 14.0059 16 13.7002 16C12.9165 16 12.493 15.5546 12.2626 15H13.1748C13.4512 15 13.6748 14.7764 13.6748 14.5C13.6748 14.2236 13.4512 14 13.1748 14H12.031C12.0148 13.8239 12.0049 13.6526 12.0049 13.5005C12.0049 13.3481 12.0149 13.1765 12.0312 13H13.8311C14.1074 13 14.3311 12.7764 14.3311 12.5C14.3311 12.2236 14.1074 12 13.8311 12H12.2642C12.496 11.4454 12.9222 11 13.7109 11C14.0459 11 14.4199 11.2412 14.626 11.4653C14.8145 11.6694 15.1299 11.6821 15.332 11.4951C15.5361 11.3081 15.5488 10.9917 15.3623 10.7886C15.0117 10.4072 14.3936 10 13.7109 10C12.4741 10 11.587 10.7397 11.2092 12H10.5049C10.2285 12 10.0049 12.2236 10.0049 12.5C10.0049 12.7764 10.2285 13 10.5049 13H11.0359C11.0225 13.1643 11.0049 13.3251 11.0049 13.5005C11.0049 13.676 11.022 13.836 11.0348 14H10.5049C10.2285 14 10.0049 14.2236 10.0049 14.5ZM21.5 4H6.5C6.22363 4 6 4.22363 6 4.5C6 4.77637 6.22363 5 6.5 5H21V14.5C21 14.7764 21.2236 15 21.5 15C21.7764 15 22 14.7764 22 14.5V4.5C22 4.22363 21.7764 4 21.5 4ZM19.5 6H4.5C4.22363 6 4 6.22363 4 6.5C4 6.77637 4.22363 7 4.5 7H19V16.5C19 16.7764 19.2236 17 19.5 17C19.7764 17 20 16.7764 20 16.5V6.5C20 6.22363 19.7764 6 19.5 6ZM17.5 8.00049H2.5C2.22363 8.00049 2 8.22412 2 8.50049V18.5005C2 18.7769 2.22363 19.0005 2.5 19.0005H17.5C17.7764 19.0005 18 18.7769 18 18.5005V8.50049C18 8.22412 17.7764 8.00049 17.5 8.00049ZM17 18.0005H3V9.00049H17V18.0005Z" />
</svg>
