<svg  viewBox="0 0 24 24"  xmlns="http://www.w3.org/2000/svg">
<path fill-rule="evenodd" clip-rule="evenodd" d="M17.5723 12.397C19.1064 12.5654 21.5557 13.3418 21.9121 14.5742C22.0762 15.1694 21.9746 15.8525 21.9629 15.9287C21.9229 16.1743 21.7109 16.3491 21.4697 16.3491C21.4434 16.3491 21.417 16.3472 21.3906 16.3428C21.1182 16.2998 20.9326 16.0439 20.9746 15.7715C20.998 15.623 21.0391 15.168 20.9492 14.8462C20.8302 14.4319 19.6182 13.8269 18.3396 13.5339C17.8568 14.7884 16.7471 15.6357 15.5068 15.6357C14.2355 15.6357 13.106 14.748 12.6431 13.4442C12.483 13.3799 12.3596 13.2358 12.333 13.0527C12.2939 12.7793 12.4834 12.5259 12.7568 12.4863L12.8955 12.4663C13.0625 12.4419 13.2246 12.4185 13.3818 12.3999V11.5408C13.1729 11.1908 13.0123 10.7788 12.9209 10.2964C12.9004 10.2847 12.8809 10.272 12.8613 10.2583C12.4756 9.98438 12.332 9.34766 12.2881 9.08691C12.2305 8.74512 12.1914 8.00244 12.4541 7.60791C12.4404 6.37891 12.7334 5.45508 13.3252 4.83838C13.8525 4.28906 14.5859 4.01074 15.5049 4.01074C16.4238 4.01074 17.1572 4.28906 17.6846 4.83838C18.2803 5.4585 18.5732 6.39014 18.5557 7.60889C18.8184 8.00342 18.7793 8.74512 18.7217 9.08789C18.6777 9.34766 18.5342 9.98438 18.1484 10.2583C18.1289 10.2725 18.1074 10.2856 18.0869 10.2974C17.986 10.8208 17.8076 11.2629 17.5723 11.6285V12.397ZM13.694 13.3781C14.0604 14.1365 14.7482 14.6357 15.5068 14.6357C16.262 14.6357 16.9488 14.1385 17.3169 13.3835C17.2846 13.3812 17.2518 13.3779 17.219 13.3746C17.1658 13.3692 17.1126 13.3639 17.0615 13.3628C16.79 13.3569 16.5723 13.1348 16.5723 12.8628V12.5217C16.2644 12.6642 15.9236 12.7466 15.5469 12.7466C15.5387 12.7466 15.5313 12.7444 15.5238 12.7423C15.5177 12.7405 15.5115 12.7387 15.5049 12.7381C15.4983 12.7387 15.4921 12.7405 15.4859 12.7423C15.4785 12.7444 15.471 12.7466 15.4629 12.7466C15.0629 12.7466 14.7037 12.6534 14.3818 12.4937V12.8628C14.3818 13.1353 14.1641 13.3574 13.8916 13.3628C13.8492 13.3636 13.8041 13.3679 13.7589 13.3722C13.7372 13.3743 13.7154 13.3764 13.694 13.3781ZM17.1494 9.82812C17.1738 9.62598 17.3213 9.43652 17.5186 9.3833C17.5469 9.37598 17.5752 9.37012 17.6045 9.3667C17.6475 9.27539 17.7012 9.125 17.7354 8.9209C17.7842 8.63623 17.7637 8.34863 17.7334 8.21094C17.6533 8.14209 17.5918 8.04834 17.5654 7.94141C17.5537 7.89502 17.5479 7.84668 17.5498 7.79883C17.5938 6.73584 17.3955 5.98145 16.9629 5.53076C16.627 5.18066 16.1504 5.01074 15.5049 5.01074C14.8594 5.01074 14.3828 5.18066 14.0469 5.53076C13.6143 5.98145 13.416 6.73584 13.459 7.77295C13.4609 7.82129 13.4561 7.89453 13.4443 7.94141C13.418 8.04834 13.3564 8.14209 13.2764 8.21094C13.2461 8.34863 13.2256 8.63623 13.2744 8.91992C13.3057 9.10938 13.3545 9.25293 13.3955 9.3457C13.4238 9.34766 13.4522 9.35205 13.4805 9.35938C13.6748 9.4082 13.8213 9.56885 13.8525 9.76709C13.9658 10.7036 14.3291 11.7466 15.4629 11.7466C15.471 11.7466 15.4785 11.7487 15.4859 11.7509C15.4921 11.7527 15.4983 11.7545 15.5049 11.7551C15.5115 11.7545 15.5177 11.7527 15.5238 11.7509C15.5313 11.7487 15.5387 11.7466 15.5469 11.7466C16.6807 11.7466 17.0439 10.7036 17.1494 9.82812Z" "/>
<path fill-rule="evenodd" clip-rule="evenodd" d="M10.5674 15.3842V16.1528C12.1016 16.3213 14.5508 17.0977 14.9072 18.3306C15.0723 18.9258 14.9697 19.6099 14.957 19.6855C14.918 19.9312 14.7061 20.1055 14.4648 20.1055C14.4385 20.1055 14.4121 20.1035 14.3848 20.0991C14.1133 20.0557 13.9268 19.7998 13.9697 19.5273C13.9932 19.3789 14.0342 18.9243 13.9453 18.603C13.8256 18.1884 12.6134 17.583 11.3347 17.2898C10.8519 18.5443 9.74219 19.3921 8.50195 19.3921C7.25934 19.3921 6.14972 18.545 5.66772 17.2892C4.38812 17.5825 3.17425 18.1893 3.05371 18.6079C2.96484 18.9268 3.00781 19.3896 3.02929 19.5264C3.07422 19.7988 2.88867 20.0557 2.61621 20.0996C2.58886 20.104 2.56152 20.106 2.53515 20.106C2.29492 20.106 2.08203 19.9312 2.04297 19.6855C2.03027 19.6099 1.92773 18.9258 2.09179 18.3354C2.44922 17.0981 4.89844 16.3213 6.43261 16.1528V15.3899C6.19452 15.0223 6.0155 14.577 5.91601 14.0513C5.79297 13.98 5.66308 13.8569 5.54687 13.6484C5.42871 13.4336 5.33496 13.1479 5.2832 12.8433C5.22558 12.501 5.18652 11.7583 5.44922 11.3638C5.43554 10.1348 5.72851 9.21094 6.32031 8.59424C6.84765 8.04492 7.58105 7.7666 8.5 7.7666C9.41894 7.7666 10.1523 8.04492 10.6797 8.59424C11.2754 9.21436 11.5684 10.146 11.5508 11.3647C11.8135 11.7593 11.7744 12.5015 11.7168 12.8438C11.665 13.1479 11.5713 13.4336 11.4531 13.6484C11.3369 13.8579 11.2061 13.9814 11.082 14.0527C10.9811 14.5763 10.8027 15.0186 10.5674 15.3842ZM6.69159 17.1391C7.05865 17.8948 7.74499 18.3921 8.50195 18.3921C9.25714 18.3921 9.94391 17.8945 10.312 17.1393C10.2796 17.137 10.2468 17.1337 10.214 17.1304C10.1608 17.1251 10.1077 17.1197 10.0566 17.1187C9.78515 17.1128 9.56738 16.8906 9.56738 16.6187V16.2775C9.25952 16.42 8.91876 16.5024 8.54199 16.5024C8.53384 16.5024 8.5264 16.5003 8.51894 16.4981C8.51277 16.4963 8.5066 16.4945 8.5 16.494C8.4934 16.4945 8.48722 16.4963 8.48106 16.4981C8.4736 16.5003 8.46616 16.5024 8.45801 16.5024C8.08117 16.5024 7.74035 16.4203 7.43261 16.2782V16.6187C7.43261 16.8906 7.21484 17.1128 6.94336 17.1187C6.89314 17.1197 6.84089 17.125 6.78861 17.1303C6.75613 17.1335 6.72363 17.1368 6.69159 17.1391ZM10.1445 13.584C10.1689 13.3818 10.3164 13.1924 10.5137 13.1392C10.542 13.1313 10.5703 13.126 10.5996 13.1226C10.6436 13.0312 10.6963 12.8809 10.7305 12.6772C10.7793 12.3926 10.7588 12.1045 10.7285 11.9668C10.6484 11.8979 10.5869 11.8042 10.5605 11.6973C10.5488 11.6509 10.543 11.6025 10.5449 11.5547C10.5889 10.4917 10.3906 9.7373 9.95801 9.28662C9.62207 8.93652 9.14551 8.7666 8.5 8.7666C7.85449 8.7666 7.37793 8.93652 7.04199 9.28662C6.60937 9.7373 6.41113 10.4917 6.4541 11.5288C6.45605 11.5771 6.45117 11.6504 6.43945 11.6973C6.41308 11.8042 6.35156 11.8979 6.27148 11.9668C6.24121 12.1045 6.2207 12.3921 6.26953 12.6768C6.30078 12.8657 6.34961 13.0088 6.39062 13.1016C6.41894 13.1035 6.44726 13.1079 6.47558 13.1152C6.66992 13.1641 6.8164 13.3247 6.84765 13.5229C6.96094 14.4595 7.32422 15.5024 8.45801 15.5024C8.46616 15.5024 8.4736 15.5046 8.48106 15.5068C8.48722 15.5086 8.4934 15.5103 8.5 15.5109C8.5066 15.5103 8.51277 15.5086 8.51894 15.5068C8.5264 15.5046 8.53384 15.5024 8.54199 15.5024C9.67578 15.5024 10.0391 14.4595 10.1445 13.584Z" "/>
</svg>
