<svg  viewBox="0 0 24 24"  xmlns="http://www.w3.org/2000/svg">
<path d="M14.2988 18.4469C16.4698 17.4771 18.0005 15.1783 18.0005 12.5015C18.0005 12.2251 17.7769 12.0015 17.5005 12.0015H16.9764C16.9893 11.7952 17.0005 11.5868 17.0005 11.3662C17.0005 7.67725 14.6465 2.99756 12.0005 2.99756C9.66411 2.99756 7.00053 7.45557 7.00053 11.3662C7.00053 11.5868 7.01152 11.7952 7.02446 12.0015H6.50053C6.22417 12.0015 6.00053 12.2251 6.00053 12.5015C6.00053 15.1783 7.5313 17.4771 9.70219 18.4469C8.66862 18.8945 8.00053 19.6393 8.00053 20.5015C8.00053 20.7778 8.22417 21.0015 8.50053 21.0015H15.5005C15.7769 21.0015 16.0005 20.7778 16.0005 20.5015C16.0005 19.6393 15.3323 18.8945 14.2988 18.4469ZM12.0005 3.99756C13.6734 3.99756 16.0005 7.71094 16.0005 11.3662C16.0005 11.5895 15.9759 11.7916 15.9601 12.0015H8.04082C8.02519 11.7916 8.00053 11.5895 8.00053 11.3662C8.00053 7.87891 10.3848 3.99756 12.0005 3.99756ZM7.02153 13.0015H16.9795C16.7466 15.7666 14.6026 17.9399 12.0005 17.9399C9.39848 17.9399 7.25444 15.7666 7.02153 13.0015ZM9.19389 20.0015C9.606 19.4653 10.646 19.0015 12.0005 19.0015C13.355 19.0015 14.3951 19.4653 14.8072 20.0015H9.19389Z" />
</svg>
