<svg  viewBox="0 0 24 24"  xmlns="http://www.w3.org/2000/svg">
<path fill-rule="evenodd" clip-rule="evenodd" d="M12.508 3C16.22 3 17 5.44967 17 5.9324C16.9995 5.95343 16.9991 6.015 16.9988 6.10861L16.998 6.80426C16.998 6.98104 16.998 7.17568 16.998 7.37969L16.9989 8.85268C16.9989 8.91982 16.999 8.98579 16.9991 9.05029L16.9999 9.86745L17 9.98348H17.75C18.44 9.98348 19 10.5443 19 11.2354V19.7481C19 20.4392 18.44 21 17.75 21H7.25C6.56 21 6 20.4392 6 19.7481V11.2354C6 10.5443 6.56 9.98348 7.25 9.98348H8.003L8 8.11167C8 7.94967 7.99998 7.7987 8 7.65794L8.00095 6.92973C8.00277 6.41453 8.008 6.11517 8.023 5.9324H8.003C8.003 5.75914 8.212 5.03605 8.85 4.36004C9.437 3.74011 10.547 3 12.508 3ZM17.75 10.985H7.25C7.11193 10.985 7 11.0971 7 11.2354V19.7481C7 19.8864 7.11193 19.9985 7.25 19.9985H17.75C17.8881 19.9985 18 19.8864 18 19.7481V11.2354C18 11.0971 17.8881 10.985 17.75 10.985ZM12.483 13.9895C13.0353 13.9895 13.483 14.4379 13.483 14.991C13.4788 15.3351 13.2957 15.6521 13 15.8272V17.4947C13 17.7713 12.7761 17.9955 12.5 17.9955C12.2239 17.9955 12 17.7713 12 17.4947V15.8503C11.697 15.679 11.483 15.3645 11.483 14.991C11.483 14.4379 11.9307 13.9895 12.483 13.9895ZM12.508 4.0015C9.86706 4.0015 9.15972 5.54102 9.02147 5.93646L9.001 5.9995V8.11067L9.003 9.98348H16C15.9999 9.88731 15.9998 9.79342 15.9997 9.70175L15.999 8.93532C15.999 8.85651 15.9989 8.77976 15.9989 8.70501L15.999 6.24386C15.999 6.22571 15.9991 6.20852 15.9991 6.19225L15.9999 5.98679C15.9999 5.97958 16 5.97296 16 5.96687L16.0009 5.89603C15.986 5.89434 15.59 4.0015 12.508 4.0015Z" />
</svg>
