<svg  viewBox="0 0 24 24"  xmlns="http://www.w3.org/2000/svg">
<path d="M8.00488 9.5C8.00488 9.77637 8.22852 10 8.50488 10H9.19928C9.56708 11.2736 10.4445 12 11.7002 12C12.2959 12 12.8984 11.709 13.3105 11.2212C13.4893 11.0103 13.4629 10.6948 13.252 10.5166C13.04 10.3394 12.7256 10.3643 12.5469 10.5757C12.3223 10.8413 12.0059 11 11.7002 11C10.9165 11 10.493 10.5546 10.2626 10H11.1748C11.4512 10 11.6748 9.77637 11.6748 9.5C11.6748 9.22363 11.4512 9 11.1748 9H10.031C10.0148 8.82385 10.0049 8.65259 10.0049 8.50049C10.0049 8.34808 10.0149 8.17651 10.0312 8H11.8311C12.1074 8 12.3311 7.77637 12.3311 7.5C12.3311 7.22363 12.1074 7 11.8311 7H10.2642C10.496 6.44537 10.9222 6 11.7109 6C12.0459 6 12.4199 6.24121 12.626 6.46533C12.8135 6.66943 13.1309 6.68262 13.332 6.49512C13.5361 6.30811 13.5488 5.9917 13.3623 5.78857C13.0117 5.40723 12.3936 5 11.7109 5C10.4741 5 9.58704 5.73969 9.20923 7H8.50488C8.22852 7 8.00488 7.22363 8.00488 7.5C8.00488 7.77637 8.22852 8 8.50488 8H9.03595C9.02246 8.16431 9.00488 8.32513 9.00488 8.50049C9.00488 8.67603 9.02203 8.836 9.03479 9H8.50488C8.22852 9 8.00488 9.22363 8.00488 9.5ZM18.5 3H5.5C5.22363 3 5 3.22363 5 3.5V20.5C5 20.7764 5.22363 21 5.5 21H18.5C18.7764 21 19 20.7764 19 20.5V3.5C19 3.22363 18.7764 3 18.5 3ZM18 20H6V4H18V20ZM8.5 16H15.5C15.7764 16 16 15.7764 16 15.5C16 15.2236 15.7764 15 15.5 15H8.5C8.22363 15 8 15.2236 8 15.5C8 15.7764 8.22363 16 8.5 16ZM8.5 18H15.5C15.7764 18 16 17.7764 16 17.5C16 17.2236 15.7764 17 15.5 17H8.5C8.22363 17 8 17.2236 8 17.5C8 17.7764 8.22363 18 8.5 18Z" "/>
</svg>
