<svg  viewBox="0 0 24 24"  xmlns="http://www.w3.org/2000/svg">
<path d="M17.8658 18.8804C17.3522 17.7056 16.4928 15.7397 15.6949 11.9243C15.6909 11.9052 15.6788 11.8905 15.6727 11.8723C15.6673 11.8416 15.6691 11.8099 15.6578 11.7803C15.2965 10.8325 15.4659 9.28564 16.0602 8.10205C16.6114 7.00488 17.7828 6.38232 17.7945 6.37598C17.9557 6.2915 18.0592 6.12598 18.0636 5.94385C18.0978 4.44287 17.6627 3.11719 16.8702 2.30615C16.3546 1.77881 15.7149 1.5 15.0206 1.5C14.7442 1.5 14.5206 1.72363 14.5206 2C14.5206 3.48242 12.6539 4.69385 12.0006 5.07178C11.1319 4.57666 9.48545 3.35791 9.48545 2C9.48545 1.72363 9.26182 1.5 8.98545 1.5C8.29942 1.5 7.671 1.77148 7.16856 2.28564C6.39073 3.08154 5.96495 4.40869 5.99961 5.92725C6.00401 6.10303 6.1002 6.26367 6.25303 6.35059C6.26377 6.35645 7.32334 6.96582 7.88389 8.08105C8.46397 9.23535 8.62657 10.8262 8.26231 11.7803C8.25065 11.811 8.2523 11.8438 8.24687 11.8757C8.24253 11.8908 8.23252 11.9027 8.22959 11.9185C7.48594 15.9209 6.62168 17.9058 6.15782 18.9717C5.73741 19.938 5.45958 20.5762 6.23497 21.2188C7.54161 22.3003 11.1515 22.3574 11.8868 22.3574C11.9259 22.3574 11.9571 22.3569 11.9791 22.3569C13.0958 22.3628 16.3482 22.1943 17.7189 21.3047C18.6588 20.6948 18.3434 19.9731 17.8658 18.8804ZM6.99864 5.64209C7.01963 4.51807 7.34336 3.5376 7.88389 2.98438C8.08213 2.78174 8.30333 2.6416 8.54405 2.56641C8.97569 4.65479 11.6554 6.02588 11.7789 6.08789C11.9205 6.15918 12.0865 6.15918 12.2281 6.08789C12.3517 6.02539 15.0309 4.65479 15.462 2.56592C15.7135 2.64404 15.9449 2.79053 16.1549 3.00537C16.7062 3.56934 17.0382 4.54297 17.0636 5.64697C16.6085 5.93506 15.69 6.61182 15.1666 7.65283C14.8525 8.27826 14.6417 8.98114 14.5408 9.67523C14.5134 9.68024 14.4861 9.67767 14.4591 9.6875C12.11 10.5386 9.546 9.73242 9.52012 9.72363C9.47972 9.71051 9.43901 9.71228 9.3983 9.70978C9.30467 8.99396 9.09819 8.27032 8.77745 7.63184C8.25987 6.60303 7.41856 5.93115 6.99864 5.64209ZM14.5738 11.6235C13.8467 11.8327 13.0026 12.0114 12.0483 12.0185C12.0292 12.0186 12.0115 12.021 11.9923 12.021C11.9712 12.021 11.9518 12.0184 11.9308 12.0182C10.9344 12.0102 10.0345 11.8172 9.34825 11.623C9.40873 11.3477 9.43785 11.0493 9.44871 10.7433C9.88023 10.8594 10.8584 11.0806 12.0543 11.0806C12.8058 11.0806 13.6416 10.9828 14.4771 10.7258C14.4844 11.0394 14.5138 11.3432 14.5738 11.6235ZM17.1749 20.4658C16.1026 21.1611 13.1993 21.3442 11.9791 21.3569C10.3981 21.3882 7.70567 21.1377 6.87266 20.4487C6.6837 20.292 6.67637 20.2856 7.07481 19.3711C7.5344 18.3149 8.37217 16.3674 9.11387 12.5932C9.65159 12.7446 10.3005 12.8924 11.0373 12.9681C11.0292 13.0034 11.0155 13.0366 11.0152 13.0742C11.0152 13.0811 11.0089 13.7915 10.8766 14.4277C10.8204 14.6982 10.9942 14.9629 11.2648 15.019C11.2989 15.0259 11.3331 15.0293 11.3668 15.0293C11.5987 15.0293 11.8067 14.8672 11.8561 14.6309C12.0079 13.8989 12.0148 13.1143 12.0152 13.0811C12.0154 13.0596 12.006 13.0412 12.0035 13.0204C12.3249 13.02 12.6335 13.002 12.9299 12.9711C12.9606 13.3788 13.08 14.6319 13.4674 15.9868C13.5304 16.2061 13.7306 16.3491 13.9479 16.3491C13.9938 16.3491 14.0401 16.3428 14.086 16.3301C14.3512 16.2539 14.505 15.9771 14.4293 15.7114C14.0324 14.3243 13.9343 13.0159 13.9212 12.8134C14.2388 12.7474 14.5358 12.6711 14.8194 12.5898C15.6087 16.194 16.4425 18.1212 16.9493 19.2808C17.1422 19.7222 17.3609 20.2222 17.3282 20.3369C17.3282 20.3369 17.3077 20.3794 17.1749 20.4658Z" "/>
</svg>
