<svg width="24" height="24" viewBox="0 0 24 24" xmlns="http://www.w3.org/2000/svg">
<path d="M18.6826 15.5244L12.3535 21.854C12.2847 21.9229 12.1992 21.9683 12.1084 21.9888C12.0957 21.9912 12.0825 21.9937 12.0698 21.9956H12.0684C12.0679 21.9951 12.0669 21.9961 12.0669 21.9961H12.0645C12.064 21.9966 12.0635 21.9966 12.0635 21.9966H12.0615C11.9814 22.0054 11.8994 21.9976 11.8213 21.9673C11.8203 21.967 11.8197 21.9668 11.8193 21.9668C11.8188 21.9668 11.8179 21.9663 11.8174 21.9658L11.8027 21.96C11.8022 21.96 11.8022 21.9595 11.8018 21.9595C11.8013 21.96 11.8008 21.9585 11.8003 21.959C11.7407 21.9326 11.6875 21.896 11.6436 21.8511L5.31689 15.5244C5.12158 15.3291 5.12158 15.0127 5.31689 14.8174C5.51221 14.6221 5.82861 14.6221 6.02393 14.8174L11.5 20.2935V2.50049C11.5 2.22412 11.7236 2.00049 12 2.00049C12.2764 2.00049 12.5 2.22412 12.5 2.50049V20.2935L17.9756 14.8174C18.1709 14.6221 18.4873 14.6221 18.6826 14.8174C18.7803 14.915 18.8291 15.043 18.8291 15.1709C18.8291 15.2988 18.7803 15.4268 18.6826 15.5244Z"/>
</svg>
