<svg  viewBox="0 0 24 24"  xmlns="http://www.w3.org/2000/svg">
<path fill-rule="evenodd" clip-rule="evenodd" d="M19.5 3V3.01428C19.501 3.01428 19.5019 3.01367 19.5029 3.01367C19.7793 3.01367 20.0029 3.2373 20.0029 3.51367V12.028C21.2081 12.9418 22 14.3745 22 16C22 18.7568 19.7568 21 17 21C14.2432 21 12 18.7568 12 16C12 15.6569 12.0352 15.3219 12.1013 14.998H2.50098C2.22461 14.998 2.00098 14.7744 2.00098 14.498V3.51367C2.00098 3.46509 2.01569 3.42114 2.02856 3.37671C2.03461 3.35309 2.02649 3.32861 2.03613 3.30566C2.0509 3.27069 2.08417 3.25165 2.10577 3.22168C2.12579 3.1947 2.1441 3.16785 2.16907 3.14539C2.20764 3.10968 2.24609 3.08325 2.29382 3.06128C2.31244 3.05273 2.33289 3.0498 2.3526 3.04358C2.401 3.02814 2.44452 3 2.49707 3H19.5ZM17 12C14.7944 12 13 13.7944 13 16C13 18.2056 14.7944 20 17 20C19.2056 20 21 18.2056 21 16C21 13.7944 19.2056 12 17 12ZM18.6987 14.1465C18.894 13.9512 19.2104 13.9512 19.4058 14.1465C19.6011 14.3418 19.6011 14.6582 19.4058 14.8535L16.4058 17.8535C16.3081 17.9512 16.1802 18 16.0522 18C15.9258 18 15.7988 17.9521 15.7017 17.8564L14.3975 16.5742C14.2007 16.3809 14.1978 16.064 14.3916 15.8672C14.584 15.6699 14.9009 15.667 15.0986 15.8613L16.0493 16.7959L18.6987 14.1465ZM13.0869 9.86945C12.8353 10.096 12.6019 10.3063 12.4077 10.4814C12.0078 10.8232 11.5107 11.0063 10.998 11.0063C10.3926 11.0063 9.92285 10.7183 9.54346 10.4365C9.49243 10.392 9.26147 10.1893 8.92834 9.89624L3.82733 13.998H12.4249C12.9285 12.8522 13.8481 11.9324 14.9932 11.4276L13.0869 9.86945ZM3.00098 4.64355V13.3791L8.16638 9.22546C6.65552 7.89441 4.28601 5.80164 3.00098 4.64355ZM19.0029 4.58209C17.8065 5.63171 15.5369 7.66577 13.8391 9.19263L16.1548 11.0854C16.4309 11.038 16.7106 11 17 11C17.713 11 18.3885 11.1552 19.0029 11.4254V4.58209ZM18.1509 4H3.77979C4.51205 4.65849 5.58384 5.61048 6.69909 6.59718L7.44577 7.25727C8.44127 8.13668 9.41913 8.99807 10.1714 9.65967C10.4409 9.85742 10.7021 10.0063 10.998 10.0063C11.2729 10.0063 11.5396 9.9082 11.748 9.72998C11.8782 9.61267 13.4799 8.16828 15.1677 6.6562L15.5737 6.29265C16.5216 5.44434 17.4618 4.6064 18.1509 4Z" "/>
</svg>
