<svg  viewBox="0 0 24 24"  xmlns="http://www.w3.org/2000/svg">
<path d="M15.999 14.7023V9.0255L15.9983 9.02475H10.3215L9.32175 8.025H16.4985C16.7748 8.025 16.9988 8.24897 16.9988 8.52525V15.5003C16.9975 15.5578 16.9861 15.6147 16.965 15.6683L15.999 14.7023Z" "/>
<path fill-rule="evenodd" clip-rule="evenodd" d="M11.9993 3C9.318 3 6.91425 4.185 5.2635 6.051C5.26086 6.05331 5.25779 6.05504 5.25473 6.05676C5.25083 6.05895 5.24694 6.06114 5.244 6.0645C5.23846 6.07004 5.2351 6.0763 5.23172 6.0826C5.22915 6.0874 5.22657 6.09221 5.223 6.09675C3.79037 7.72995 3.00031 9.82825 3 12.0008C3 16.9635 7.03725 21.0015 12 21.0015C14.253 21.0015 16.3095 20.1638 17.8898 18.7905C17.8963 18.7855 17.9034 18.7816 17.9104 18.7776C17.9203 18.7721 17.9302 18.7666 17.9385 18.7583C17.9432 18.7535 17.9463 18.748 17.9494 18.7424C17.9521 18.7375 17.9548 18.7325 17.9588 18.7283C19.8195 17.0783 21 14.6775 21 12.0008C21 7.038 16.962 3 11.9993 3ZM11.9993 20.001C7.5885 20.001 3.999 16.4123 3.999 12.0008C3.999 10.1835 4.61475 8.51175 5.63925 7.167L6.978 8.50575C6.978 8.50904 6.97711 8.51215 6.9762 8.51534C6.97524 8.5187 6.97425 8.52215 6.97425 8.526V15.501C6.97425 15.7778 7.19775 16.0013 7.4745 16.0013H14.4743L16.8338 18.3608C15.4467 19.4242 13.7478 20.001 12 20.0018L11.9993 20.001ZM7.974 9.50175V15.0008H13.473L7.974 9.50175ZM18.261 16.965C18.054 17.226 17.8328 17.475 17.595 17.7083L6.291 6.405C6.52425 6.16725 6.77325 5.946 7.03425 5.73825C8.44393 4.61249 10.1945 3.99944 11.9985 3.99975C16.4093 3.99975 19.9988 7.5885 19.9988 12C19.9988 13.8758 19.3455 15.6 18.261 16.965Z" "/>
</svg>
