<svg  viewBox="0 0 24 24"  xmlns="http://www.w3.org/2000/svg">
<path fill-rule="evenodd" clip-rule="evenodd" d="M21.8409 19.5812C21.4194 18.1082 18.4734 16.9877 16.1214 16.5392L16.1109 16.5362L16.0974 16.5347C15.6796 16.4543 15.258 16.3944 14.8344 16.3555V15.361C15.7959 15.205 16.9824 14.6785 17.5831 13.9225C17.6186 13.8774 17.6462 13.8267 17.6649 13.7725C18.1974 12.211 18.3294 11.3425 18.4224 9.98499C18.5806 7.67424 17.8531 5.41449 16.4754 3.93999C15.3391 2.72349 13.7866 2.07999 11.9859 2.07999H11.9821C10.1814 2.07999 8.62886 2.72349 7.49261 3.93999C6.11486 5.41524 5.38736 7.67499 5.54561 9.98574C5.63861 11.3425 5.77061 12.211 6.30311 13.7732C6.32186 13.8272 6.34961 13.8782 6.38486 13.9232C6.98561 14.68 8.17511 15.2072 9.13736 15.3625V16.3562C6.74561 16.5632 2.63486 17.8217 2.1286 19.5887C1.8901 20.467 2.0551 21.5305 2.06185 21.5755C2.10514 21.8485 2.36151 22.0347 2.63448 21.9914C2.90745 21.9481 3.09364 21.6917 3.05036 21.4187C3.01136 21.172 2.94236 20.41 3.09236 19.858C3.32636 19.0397 5.53736 18.0782 7.61036 17.611C8.21711 19.4837 9.98486 20.7985 11.9896 20.7985C13.9944 20.7985 15.7606 19.4845 16.3681 17.6125C18.4396 18.0805 20.6446 19.0382 20.8771 19.8512C21.0631 20.5375 20.9881 21.4442 20.9874 21.4532C20.9733 21.7222 21.1748 21.954 21.443 21.9776C21.7113 22.0012 21.9501 21.8082 21.9834 21.541C21.9871 21.4967 22.0756 20.4497 21.8401 19.5827L21.8409 19.5812ZM8.75111 10.1155C8.75111 9.42699 9.32036 9.17874 10.7184 8.73924C11.8876 8.37174 13.3029 7.92549 14.3544 6.74724C16.0029 9.78849 14.8996 12.3287 14.4984 13.0705C13.8549 14.2615 12.8686 15.0317 11.9866 15.0317C10.3539 15.0317 8.75186 12.5972 8.75186 10.1162L8.75111 10.1155ZM7.22036 13.3622C6.74561 11.953 6.63086 11.182 6.54386 9.91674C6.43586 8.34249 6.82061 6.12474 8.22386 4.62249C9.17936 3.59874 10.4439 3.07974 11.9821 3.07974H11.9851C13.5234 3.07974 14.7879 3.59874 15.7434 4.62249C17.1466 6.12549 17.5314 8.34249 17.4234 9.91674C17.3364 11.1827 17.2216 11.9537 16.7469 13.3622C16.3351 13.8295 15.5476 14.1925 14.8681 14.3387C15.0519 14.0957 15.2221 13.831 15.3766 13.546C16.3944 11.6627 16.7836 8.58174 14.8209 5.58399C14.7316 5.43862 14.5714 5.35219 14.4009 5.35749C14.2315 5.35808 14.0739 5.44447 13.9824 5.58699C13.1124 6.93774 11.6799 7.38849 10.4169 7.78599C9.10586 8.19849 7.74986 8.62524 7.74986 10.1162C7.74986 11.6057 8.26511 13.189 9.11411 14.3425C8.43086 14.1985 7.63436 13.8332 7.21961 13.363L7.22036 13.3622ZM11.9904 19.7972C10.4763 19.7925 9.12535 18.8453 8.60486 17.4235C8.97536 17.3695 9.32861 17.335 9.65111 17.3275C9.92228 17.321 10.1387 17.0992 10.1386 16.828V15.3857C10.6906 15.7915 11.3146 16.0322 11.9859 16.0322C12.6144 16.0322 13.2511 15.7967 13.8346 15.3715V16.8287C13.8346 17.1002 14.0506 17.3222 14.3221 17.3282C14.6461 17.3365 15.0031 17.371 15.3759 17.4257C14.8547 18.8468 13.504 19.7925 11.9904 19.7972Z" />
</svg>
