<svg  viewBox="0 0 24 24"  xmlns="http://www.w3.org/2000/svg">
<path d="M6.24586 7H13.7363C14.0123 7 14.2357 6.77637 14.2357 6.5C14.2357 6.22363 14.0123 6 13.7363 6H6.24586C5.96984 6 5.7465 6.22363 5.7465 6.5C5.7465 6.77637 5.96984 7 6.24586 7ZM20.5352 5.19434L19.795 4.45312C19.1708 3.82861 18.3291 3.83496 17.701 4.46338L16.9822 5.18311V3.5C16.9822 3.22363 16.7588 3 16.4828 3H3.49936C3.22335 3 3 3.22363 3 3.5V20.5C3 20.7764 3.22335 21 3.49936 21H16.4828C16.7588 21 16.9822 20.7764 16.9822 20.5V10.8398L20.5255 7.29199C21.1546 6.66162 21.1585 5.81885 20.5352 5.19434ZM15.9834 20H3.99873V4H15.9834V6.18311L13.1701 9H6.24586C5.96984 9 5.7465 9.22363 5.7465 9.5C5.7465 9.77637 5.96984 10 6.24586 10H12.1714L10.174 12H6.24586C5.96984 12 5.7465 12.2236 5.7465 12.5C5.7465 12.7764 5.96984 13 6.24586 13H9.17523L8.60613 13.5698C8.56029 13.6157 8.52323 13.6709 8.49787 13.731L6.9949 17.3394C6.91785 17.5259 6.95979 17.7407 7.10219 17.8843C7.19777 17.9805 7.32554 18.0317 7.45623 18.0317C7.51963 18.0317 7.584 18.0195 7.64544 17.9941L11.2668 16.5073C11.3282 16.4824 11.3838 16.4453 11.4307 16.3984L15.9834 11.8398V20ZM9.29324 14.4213L10.5799 15.7092L8.38083 16.6118L9.29324 14.4213ZM11.3497 15.0659L9.93841 13.6533C9.93787 13.6528 9.9372 13.6527 9.93665 13.6522L17.002 6.57745L18.4145 7.99176L11.3497 15.0659ZM19.8194 6.58496L19.1205 7.28467L17.708 5.87036L18.4071 5.17041C18.5758 4.99902 18.7904 4.86328 19.0889 5.16064L19.8291 5.90137C20.1256 6.19824 19.99 6.41357 19.8194 6.58496Z" "/>
</svg>
