<svg width="12" height="12" viewBox="0 0 12 12" xmlns="http://www.w3.org/2000/svg">
<path d="M1.5 3H6.05182C6.16058 3.60828 6.46082 4 6.87939 4H8.13135C8.55255 4 8.8454 3.61444 8.95026 3H10.5C10.7764 3 11 2.77637 11 2.5C11 2.22363 10.7764 2 10.5 2H8.95026C8.8454 1.38556 8.55255 1 8.13135 1H6.87939C6.46082 1 6.16058 1.39172 6.05182 2H1.5C1.22363 2 1 2.22363 1 2.5C1 2.77637 1.22363 3 1.5 3ZM7.06982 2H7.93457C7.9668 2.10303 8 2.2749 8 2.5C8 2.7251 7.9668 2.89697 7.93457 3H7.06982C7.03613 2.89844 7 2.72559 7 2.5C7 2.27441 7.03613 2.10156 7.06982 2Z" fill="#222222"/>
<path d="M10.5 5H4.95026C4.8454 4.38556 4.55255 4 4.13135 4H2.87939C2.46082 4 2.16058 4.39172 2.05182 5H1.5C1.22363 5 1 5.22363 1 5.5C1 5.77637 1.22363 6 1.5 6H2.05182C2.16058 6.60828 2.46082 7 2.87939 7H4.13135C4.55255 7 4.8454 6.61444 4.95026 6H10.5C10.7764 6 11 5.77637 11 5.5C11 5.22363 10.7764 5 10.5 5ZM3.93457 6H3.06982C3.03613 5.89844 3 5.72559 3 5.5C3 5.27441 3.03613 5.10156 3.06982 5H3.93457C3.9668 5.10303 4 5.2749 4 5.5C4 5.7251 3.9668 5.89697 3.93457 6Z" fill="#222222"/>
<path d="M10.5 8H9.95026C9.8454 7.38556 9.55255 7 9.13135 7H7.87939C7.46082 7 7.16058 7.39172 7.05182 8H1.5C1.22363 8 1 8.22363 1 8.5C1 8.77637 1.22363 9 1.5 9H7.05182C7.16058 9.60828 7.46082 10 7.87939 10H9.13135C9.55255 10 9.8454 9.61444 9.95026 9H10.5C10.7764 9 11 8.77637 11 8.5C11 8.22363 10.7764 8 10.5 8ZM8.93457 9H8.06982C8.03613 8.89844 8 8.72559 8 8.5C8 8.27441 8.03613 8.10156 8.06982 8H8.93457C8.9668 8.10303 9 8.2749 9 8.5C9 8.7251 8.9668 8.89697 8.93457 9Z" fill="#222222"/>
</svg>
