<svg  viewBox="0 0 24 24"  xmlns="http://www.w3.org/2000/svg">
<path d="M4 9.76611C4 10.3076 4.07617 10.8442 4.22656 11.3604C4.30371 11.6255 4.15039 11.9028 3.88574 11.98C3.83887 11.9937 3.79199 12 3.74609 12C3.5293 12 3.3291 11.8584 3.26562 11.6396C3.08984 11.0327 3 10.4023 3 9.76611C3 6.03516 6.06934 3 9.8418 3C11.811 3 13.7001 3.82117 15 5.18134V4.0415C15 3.76514 15.2236 3.5415 15.5 3.5415C15.7764 3.5415 16 3.76514 16 4.0415V6.5415C16 6.81787 15.7764 7.0415 15.5 7.0415H13C12.7236 7.0415 12.5 6.81787 12.5 6.5415C12.5 6.26514 12.7236 6.0415 13 6.0415H14.4382C13.3295 4.78668 11.5938 4 9.8418 4C6.62109 4 4 6.58691 4 9.76611Z" />
<path d="M15.3564 14.6475L20.8564 20.1475C21.0518 20.3428 21.0518 20.6592 20.8564 20.8545C20.7588 20.9522 20.6309 21.001 20.5029 21.001C20.375 21.001 20.2471 20.9522 20.1494 20.8545L14.6494 15.3545C14.6467 15.3518 14.6449 15.3485 14.6432 15.3453C14.6416 15.3423 14.64 15.3393 14.6376 15.3368C13.4363 16.3696 11.8724 17 10.1592 17C8.23792 17 6.31464 16.1576 5.00043 14.805L5.00098 15.9585C5.00098 16.2344 4.77734 16.4585 4.50098 16.4585C4.22461 16.4585 4.00098 16.2349 4.00098 15.9585L4 13.4585C4 13.3262 4.05273 13.1987 4.14648 13.105C4.24023 13.0112 4.36719 12.9585 4.5 12.9585H7C7.27637 12.9585 7.5 13.1821 7.5 13.4585C7.5 13.7349 7.27637 13.9585 7 13.9585H5.56879C6.69513 15.2135 8.42841 16 10.1592 16C13.3799 16 16 13.4131 16 10.2339C16 9.6924 15.9238 9.15578 15.7734 8.63967C15.6963 8.37453 15.8496 8.09719 16.1143 8.02004C16.3818 7.93996 16.6572 8.09475 16.7344 8.36037C16.9102 8.9673 17 9.59768 17 10.2339C17 11.9159 16.3726 13.453 15.3419 14.6378C15.344 14.6398 15.3465 14.6411 15.349 14.6425C15.3516 14.6439 15.3542 14.6453 15.3564 14.6475Z" />
</svg>
