<svg  viewBox="0 0 24 24"  xmlns="http://www.w3.org/2000/svg">
<path d="M20.6767 7.21178C20.4414 6.93553 20.1138 6.8106 19.7623 6.74357C19.8606 6.67168 19.9603 6.60186 20.0468 6.51354C20.4154 6.13693 20.7557 5.71555 20.7459 5.1881C20.7362 4.65579 20.3695 4.24171 20.0517 3.94052C18.9167 2.86518 18.1367 3.35468 17.461 4.04367C17.3859 4.12019 17.3247 4.20996 17.2616 4.29779C17.1982 3.92288 17.0717 3.57157 16.7775 3.32256C16.3709 2.97855 15.8161 2.97807 15.3802 3.01699C14.265 3.11613 13.8769 3.61074 13.7692 4.23429C13.3916 4.10291 12.9087 4.11824 12.2561 4.34292C11.753 4.51565 11.1436 4.79008 10.895 5.38273C10.7933 5.62347 10.7758 5.87771 10.7967 6.13109C10.651 6.13827 10.5037 6.14666 10.3353 6.17342C9.79902 6.2576 9.13891 6.4245 8.78302 6.96849C8.67065 7.14038 8.61458 7.33075 8.5785 7.52574C8.15972 7.43475 7.63783 7.48256 6.95578 7.71734C6.10261 8.01025 5.61313 8.36302 5.36937 8.86128C5.22726 9.15274 5.19703 9.46622 5.21994 9.78103C5.19801 9.7842 5.18094 9.78322 5.15876 9.78675C4.20711 9.93662 3.63866 10.2266 3.31494 10.7258C2.9454 11.2971 3.00098 12.0367 3.10336 12.6843C3.22329 13.44 3.65718 14.1611 4.32607 14.7153C4.74607 15.0628 5.35133 15.4056 5.87518 15.409C5.84812 15.5331 5.81521 15.6545 5.80034 15.7838C5.74355 16.2699 5.78157 16.871 5.99413 17.3091L3.14626 20.1494C2.95125 20.3435 2.95125 20.6593 3.14626 20.854C3.24376 20.9513 3.37149 20.9999 3.49923 20.9999C3.62696 20.9999 3.75469 20.9513 3.85219 20.854L6.74809 17.9658C7.06937 18.0959 7.45622 18.1763 7.87915 18.1763C8.12413 18.1763 8.3774 18.1412 8.63116 18.0886C8.60824 18.624 8.94975 19.2537 9.3115 19.6876C9.86728 20.3542 10.5898 20.7878 11.3474 20.907C11.638 20.9532 11.9129 20.9805 12.1694 20.9805C13.2429 20.9805 13.9917 20.4968 14.2531 18.8566C14.2567 18.8328 14.2557 18.8151 14.2591 18.7917C14.3176 18.7961 14.3813 18.8123 14.4383 18.8123C15.2457 18.8123 15.8853 18.3666 16.3328 17.0689C16.6073 16.2736 16.6363 15.6983 16.4491 15.2255C17.2387 15.0902 17.6591 14.5359 17.8286 13.4701C17.8434 13.3751 17.8534 13.2717 17.8639 13.1696C17.918 13.1739 17.9741 13.1889 18.0275 13.1889C18.6788 13.1889 19.2648 12.8468 19.6529 11.7209C19.8069 11.2751 19.9303 10.7204 19.7521 10.2143C20.382 10.11 20.8829 9.7241 20.9828 8.60583C21.0218 8.16985 21.0218 7.61759 20.6767 7.21178ZM18.1747 4.73996C18.7198 4.18381 18.8514 4.17845 19.3643 4.66309C19.6948 4.97644 19.7465 5.13799 19.7475 5.20659C19.7514 5.39003 19.4364 5.71117 19.3331 5.81725C18.8514 6.31015 18.0606 6.29945 17.8715 6.18364C17.7759 6.00701 17.7067 5.21876 18.1747 4.73996ZM17.1012 6.98893C17.42 7.33586 17.5721 7.60348 17.5536 7.78448C17.5351 7.95965 17.3586 8.19467 16.9998 8.52359C16.5466 8.93852 15.9282 9.00689 15.5174 8.95324C15.407 8.83659 15.2922 8.72832 15.1803 8.63162C15.1318 8.58965 15.0862 8.56057 15.0385 8.52238C14.997 8.11219 15.0765 7.40556 15.5606 6.96265C16.2685 6.3155 16.484 6.31842 17.1012 6.98893ZM15.468 4.00961C15.5645 4.00085 15.6483 3.99745 15.7195 3.99745C15.9847 3.99745 16.09 4.04756 16.131 4.0826C16.2724 4.20132 16.3055 4.64897 16.3163 4.79592C16.336 5.05977 16.2582 5.29673 16.1568 5.50693C15.8451 5.55206 15.555 5.70302 15.2795 5.90593C15.0375 5.69962 14.772 5.37239 14.7406 4.94919C14.6821 4.17748 14.764 4.07238 15.468 4.00961ZM14.527 9.38484C14.9015 9.7089 15.0848 9.96046 15.0877 10.1522C15.0906 10.3332 14.9405 10.5916 14.6158 10.9648C14.1236 11.5316 13.3229 11.6151 12.9282 11.5376C12.899 11.5038 12.8799 11.4735 12.849 11.4392C12.771 11.3533 12.6978 11.2945 12.622 11.2203C12.5155 10.82 12.4863 10.0535 12.9484 9.52205C13.551 8.82868 13.7694 8.73088 14.527 9.38484ZM11.8154 5.7681C11.8876 5.59537 12.1382 5.43723 12.5818 5.28493C12.8675 5.18713 13.0791 5.13409 13.2439 5.13409C13.6105 5.13409 13.746 5.39393 13.9527 5.99144C14.1282 6.50138 13.9956 6.98455 13.9011 7.22686C13.746 7.62197 13.5364 7.80589 13.4691 7.83411C13.3328 7.86197 12.9965 7.76003 12.6671 7.54521C12.5279 6.96861 12.2886 6.52936 11.8313 6.29957C11.7747 6.05896 11.7669 5.88257 11.8154 5.7681ZM9.61961 7.51297C9.72589 7.34948 10.0116 7.23319 10.4913 7.15728C10.697 7.12517 10.8657 7.10717 11.0061 7.10717C11.5424 7.10717 11.6458 7.37332 11.7618 8.10611C11.8476 8.64621 11.6253 9.107 11.4859 9.33375C11.2713 9.68165 11.0208 9.8539 10.9291 9.8719H10.9252C10.7909 9.8719 10.4199 9.69479 10.0984 9.38082C10.0869 9.34226 10.0833 9.30127 10.0701 9.26319C9.92407 8.83951 9.75563 8.48406 9.54965 8.19637C9.51528 7.86367 9.53625 7.63973 9.61961 7.51297ZM9.96186 12.0425C10.8657 11.2275 11.2353 11.1443 12.1079 12.1077C12.6891 12.749 12.73 13.0556 12.7105 13.2303C12.6822 13.4906 12.4502 13.8039 11.9588 14.2467C11.6904 14.4878 11.3735 14.634 11.0542 14.7234C10.9123 14.432 10.7002 14.1267 10.3948 13.7893C10.0372 13.3944 9.70298 13.1309 9.38365 12.9682C9.49627 12.6325 9.67349 12.3021 9.96186 12.0425ZM6.26739 9.29823C6.38147 9.06321 6.71397 8.85447 7.28144 8.65935C7.65586 8.53089 7.93765 8.46326 8.15996 8.46326C8.66602 8.46326 8.85908 8.8136 9.12624 9.58774C9.35245 10.2441 9.17792 10.866 9.05408 11.1784C8.862 11.663 8.57729 11.9491 8.43785 11.9973C8.36229 12.0193 8.20847 12.0001 8.0198 11.9436C8.01809 11.9316 8.01931 11.9192 8.01761 11.9073C7.82065 10.6711 7.40747 9.86387 6.21401 9.74746C6.19548 9.55928 6.21206 9.41123 6.26739 9.29823ZM6.67399 13.6842C6.39122 14.1465 6.04996 14.3883 5.89687 14.4126C5.60728 14.4749 4.27927 13.7241 4.09011 12.5286C3.98675 11.8824 4.00723 11.4937 4.15348 11.2669C4.25099 11.1171 4.47623 10.9034 5.31477 10.7706C5.56731 10.7312 5.77889 10.7093 5.95733 10.7093C6.70031 10.7093 6.87485 11.0815 7.03086 12.0634C7.14494 12.7797 6.85632 13.3865 6.67399 13.6842ZM6.91093 16.9317C6.70811 16.6962 6.60768 15.2033 7.50766 14.3927C8.41153 13.5762 8.78205 13.4945 9.65374 14.4579C10.2349 15.0992 10.2758 15.4058 10.2563 15.5804C10.2271 15.8408 9.99501 16.1541 9.50358 16.5969C8.61726 17.3959 7.19369 17.2416 6.91093 16.9317ZM13.2663 18.7004C13.0625 19.9825 12.7047 20.1124 11.5034 19.9231C10.306 19.7339 9.57281 18.4289 9.61376 18.1209C9.68007 17.7073 10.7887 16.8032 11.9695 16.9896C13.1922 17.1827 13.472 17.4041 13.2663 18.7004ZM15.389 16.7443C15.0948 17.5936 14.8242 17.8624 14.2923 17.8112C14.1777 16.6148 13.3675 16.2018 12.1255 16.0057C12.114 16.0039 12.1028 16.0056 12.0914 16.0039C12.036 15.8182 12.018 15.6674 12.0407 15.5921C12.1752 15.2097 13.3784 14.5323 14.4578 14.9051C15.0584 15.1114 15.3802 15.3002 15.5021 15.5182C15.6318 15.7483 15.5947 16.1492 15.389 16.7443ZM16.8418 13.314C16.6858 14.2993 16.4518 14.3625 15.545 14.2214C15.4375 14.2045 15.3363 14.1743 15.2396 14.1363C15.2318 14.133 15.2235 14.1303 15.2154 14.127C14.518 13.839 14.1151 13.0761 14.1195 12.8775C14.138 12.7865 14.3106 12.5364 14.6596 12.3223C14.8868 12.1827 15.3451 11.9598 15.8911 12.0469C16.3806 12.1243 16.6624 12.226 16.7775 12.3661C16.8984 12.515 16.9198 12.8249 16.8418 13.314ZM18.709 11.3963C18.4738 12.0774 18.2949 12.2687 17.7847 12.1677C17.7325 12.0152 17.6591 11.8687 17.5507 11.736C17.2511 11.37 16.8013 11.2127 16.3316 11.1174C16.1968 10.8583 16.1329 10.62 16.1534 10.5108C16.2441 10.2733 17.1431 9.73371 18.0002 10.0291C18.4623 10.1877 18.7178 10.3332 18.8056 10.4865C18.8953 10.6451 18.8631 10.9506 18.709 11.3963ZM19.9883 8.51727C19.9249 9.22037 19.8147 9.30066 19.0454 9.24324C18.6571 9.21417 18.3495 8.98937 18.1394 8.76603C18.3487 8.5062 18.5111 8.22131 18.5462 7.88861C18.5494 7.85856 18.5391 7.8318 18.5403 7.80212C18.7375 7.71685 18.9545 7.65299 19.1995 7.6716C19.3467 7.68279 19.7962 7.71636 19.9152 7.8565C19.96 7.90905 20.0283 8.06427 19.9883 8.51727Z" "/>
</svg>
