<svg  viewBox="0 0 24 24"  xmlns="http://www.w3.org/2000/svg">
<path d="M9.00159 4.43457C9.00159 4.15918 9.22473 3.93652 9.50012 3.93652C9.77551 3.93652 9.99866 4.15918 9.99866 4.43457V9.5C9.99866 9.77539 9.77551 9.99805 9.50012 9.99805H4.40295C4.12756 9.99805 3.90442 9.77539 3.90442 9.5C3.90442 9.22461 4.12756 9.00195 4.40295 9.00195H8.29742L3.64758 4.35254C3.45276 4.1582 3.45276 3.8418 3.64758 3.64746C3.84192 3.45215 4.15735 3.45215 4.35266 3.64746L9.00159 8.29596V4.43457Z" "/>
<path d="M19.5815 14.998H15.6935L20.3521 19.6475C20.5469 19.8418 20.5474 20.1572 20.353 20.3525C20.2554 20.4492 20.1279 20.498 20 20.498C19.8726 20.498 19.7451 20.4502 19.6479 20.3525L14.9985 15.7122V19.6113C14.9985 19.8867 14.7754 20.1094 14.5 20.1094C14.2246 20.1094 14.0015 19.8867 14.0015 19.6113V14.5C14.0015 14.2246 14.2246 14.002 14.5 14.002H19.5815C19.8569 14.002 20.0801 14.2246 20.0801 14.5C20.0801 14.7754 19.8569 14.998 19.5815 14.998Z" "/>
<path d="M14.5 9.99805H19.6113C19.8867 9.99805 20.1099 9.77539 20.1099 9.5C20.1099 9.22461 19.8867 9.00196 19.6113 9.00196H15.7127L20.353 4.35254C20.5474 4.15723 20.5469 3.8418 20.3521 3.64746C20.1567 3.45118 19.8418 3.45508 19.647 3.64746L14.9985 8.305V4.41797C14.9985 4.14258 14.7754 3.91993 14.5 3.91993C14.2246 3.91993 14.0015 4.14258 14.0015 4.41797V9.5C14.0015 9.77539 14.2246 9.99805 14.5 9.99805Z" "/>
<path d="M4.43469 14.002H9.50012C9.77551 14.002 9.99866 14.2246 9.99866 14.5V19.5977C9.99866 19.873 9.77551 20.0957 9.50012 20.0957C9.22473 20.0957 9.00159 19.873 9.00159 19.5977V15.7028L4.35266 20.3525C4.25549 20.4502 4.12756 20.498 4.00012 20.498C3.87268 20.498 3.74524 20.4502 3.64758 20.3525C3.45276 20.1582 3.45276 19.8418 3.64758 19.6475L8.29614 14.998H4.43469C4.1593 14.998 3.93616 14.7754 3.93616 14.5C3.93616 14.2246 4.1593 14.002 4.43469 14.002Z" "/>
</svg>
