<svg  viewBox="0 0 24 24"  xmlns="http://www.w3.org/2000/svg">
<path d="M15.479 15.8623C15.6743 15.667 15.9907 15.667 16.186 15.8623L18.3071 17.9834C18.5024 18.1787 18.5024 18.4951 18.3071 18.6904C18.2095 18.7881 18.0815 18.8369 17.9536 18.8369C17.8257 18.8369 17.6978 18.7881 17.6001 18.6904L15.479 16.5693C15.2837 16.374 15.2837 16.0576 15.479 15.8623Z" "/>
<path fill-rule="evenodd" clip-rule="evenodd" d="M17.4419 14.7441C18.0669 15.1348 18.6567 15.5039 19.0151 15.8623C20.084 16.9307 20.5693 17.7314 20.5889 18.458C20.6089 19.2184 20.1172 19.7095 19.7222 20.1039C19.3365 20.4906 18.8555 20.9726 18.1201 20.9726C17.3828 20.9726 16.5679 20.4873 15.479 19.3974C15.1244 19.0433 14.762 18.4663 14.3779 17.8546L14.3727 17.8463C13.8303 16.9822 13.0881 15.7997 12.5132 15.6562C12.3384 15.6123 12.2007 15.4775 12.1523 15.3047C12.1045 15.1308 12.1533 14.9443 12.2808 14.8174L12.9729 14.1252L12.3792 13.5315L7.26855 18.6435C6.88232 19.0293 6.37012 19.2412 5.8252 19.2412C5.27979 19.2412 4.76709 19.0293 4.38184 18.6435C3.57959 17.8408 3.57959 16.6767 4.38184 15.874C7.06543 13.1906 8.62805 11.6282 9.55243 10.7045L7.30133 8.45317C7.29713 8.45548 7.29339 8.45844 7.28965 8.4614C7.28529 8.46485 7.28094 8.46829 7.27588 8.47069C7.03467 8.583 6.79443 8.63866 6.57227 8.63866C6.27881 8.63866 6.01709 8.54198 5.82666 8.35106C5.82571 8.35011 5.82478 8.34918 5.82386 8.34825C5.78828 8.31239 5.75815 8.27113 4.56641 6.63915C4.4209 6.43993 4.44238 6.16454 4.6167 5.99071L5.58789 5.0205C5.7627 4.84471 6.03809 4.82567 6.23633 4.9702C7.86777 6.16107 7.90955 6.19157 7.94585 6.22758C7.94681 6.22853 7.94776 6.22948 7.94873 6.23046C8.3042 6.58544 8.35693 7.15966 8.0835 7.69237C8.07356 7.71206 8.05947 7.72895 8.04535 7.74586C8.03969 7.75265 8.03402 7.75943 8.02863 7.76641L10.2598 9.99779C10.8696 9.38915 10.884 9.37688 10.8979 9.36669L13.0522 7.20262C13.2008 7.04503 13.146 6.68541 13.1289 6.62108C12.9751 5.48583 13.3496 4.38182 14.1182 3.60448C14.4033 3.31493 14.9585 2.85985 15.4766 3.07225C15.7041 3.16551 15.9751 3.40721 15.9746 4.02831L15.9751 5.72606C15.9751 5.87987 16.0347 6.02489 16.1426 6.13378C16.2485 6.24071 16.3872 6.29979 16.5337 6.29979C16.897 6.29979 17.0869 6.01122 17.0869 5.72606V4.02782C17.0869 3.39891 17.3643 3.15282 17.5967 3.05712C18.1709 2.82128 18.8022 3.37694 19.0503 3.62548C20.4082 4.9951 20.4077 7.21434 19.0488 8.57323C18.5186 9.10497 17.835 9.44384 17.0728 9.55272C17.021 9.55907 16.9644 9.562 16.8965 9.56493C16.6646 9.57506 16.2792 9.59349 16.0677 9.84191L13.0861 12.8243L13.6799 13.4182L14.4253 12.6728C14.5537 12.5444 14.7397 12.4961 14.917 12.5459C15.0913 12.5957 15.2251 12.7368 15.2661 12.9141C15.392 13.4617 16.5761 14.2025 17.4408 14.7434L17.4419 14.7441ZM6.7832 7.59374L7.22363 7.16991C7.27295 7.04247 7.25928 6.95507 7.2417 6.93749C7.21289 6.91942 6.45264 6.36571 5.99219 6.02977L5.62646 6.39501C5.96484 6.85839 6.52881 7.62987 6.57568 7.69139C6.55683 7.66312 6.59271 7.6528 6.66029 7.63336C6.69424 7.6236 6.73618 7.61153 6.7832 7.59374ZM5.08887 17.9365C5.48242 18.3281 6.16748 18.3301 6.56201 17.9365L15.3647 9.13085C15.3798 9.11581 15.3974 9.1058 15.415 9.09577C15.4244 9.09045 15.4337 9.08512 15.4427 9.07903C15.9279 8.62865 16.5629 8.57872 16.853 8.56591C17.4775 8.48485 17.9648 8.24413 18.3413 7.86669C19.312 6.8955 19.3115 5.30956 18.3403 4.33007C18.2559 4.2451 18.166 4.17137 18.0869 4.11522V5.72606C18.0869 6.60839 17.4053 7.29979 16.5347 7.29979H16.5332C16.1182 7.29979 15.7271 7.13573 15.4316 6.83739C15.1372 6.54003 14.9751 6.1455 14.9751 5.72606L14.9746 4.1743C14.9277 4.21337 14.8784 4.2578 14.8296 4.30712C14.2764 4.86669 14.0068 5.65917 14.1079 6.42772C14.1209 6.4605 14.3179 7.29088 13.7943 7.86827L13.7911 7.86565C13.7868 7.87078 13.7837 7.87649 13.7805 7.88219C13.7767 7.88909 13.7729 7.89599 13.7671 7.90184L11.5513 10.1201C11.478 10.1929 5.08887 16.581 5.08887 16.581C4.68359 16.9863 4.68359 17.5312 5.08887 17.9365ZM18.1201 19.9726C18.418 19.9726 18.6675 19.7451 19.0142 19.3974C19.3774 19.0351 19.5972 18.793 19.5889 18.4844C19.5776 18.0517 19.1465 17.4072 18.3076 16.5693C18.0298 16.291 17.4868 15.9512 16.9116 15.5918C16.043 15.0488 15.1528 14.4922 14.6558 13.8564L13.4639 15.0488C14.1123 15.5498 14.6733 16.4433 15.2207 17.3154C15.5752 17.8808 15.9102 18.4141 16.186 18.6904C17.0366 19.541 17.6875 19.9726 18.1201 19.9726Z" "/>
</svg>
