<svg  viewBox="0 0 24 24"  xmlns="http://www.w3.org/2000/svg">
<path d="M19.8202 17H18.4936C18.2167 17 17.9927 17.2236 17.9927 17.5V21.5C17.9927 21.7764 18.2167 22 18.4936 22H19.8202C20.4938 22 21.0833 21.7065 21.481 21.1738C21.8156 20.7251 22 20.1309 22 19.5C22 18.2578 21.2511 17 19.8202 17ZM20.6778 20.5762C20.4679 20.8574 20.1793 21 19.8202 21H18.9945V18H19.8202C20.7502 18 20.9982 18.9429 20.9982 19.5C20.9982 19.9111 20.8813 20.3032 20.6778 20.5762ZM16.8433 12.3267C18.2297 11.7084 19.459 10.2709 19.6221 10.0728C19.6331 10.0594 19.6341 10.0416 19.6434 10.0275C19.6771 10.0071 19.7131 9.99109 19.7424 9.96191L21.8156 7.89307C22.0113 7.69775 22.0113 7.38135 21.8156 7.18604C21.6199 6.99072 21.3029 6.99072 21.1073 7.18604L19.087 9.20203C18.8035 9.13318 18.33 9.03088 17.762 8.94678C17.8811 8.85669 18.0027 8.76978 18.1096 8.66309C19.1672 7.60742 19.5788 5.64197 19.6811 5.05872L21.4526 3.29004C21.6483 3.09473 21.6483 2.77832 21.4526 2.58301C21.2569 2.3877 20.94 2.3877 20.7443 2.58301L18.9727 4.35168C18.3882 4.45374 16.419 4.86438 15.3624 5.92041C15.2432 6.03943 15.1439 6.17322 15.0454 6.30713C14.9576 5.68738 14.8436 5.17029 14.7712 4.87622L16.7976 2.85352C16.9933 2.6582 16.9933 2.3418 16.7976 2.14648C16.6019 1.95117 16.2849 1.95117 16.0893 2.14648L14.0161 4.21582C13.9763 4.25549 13.9503 4.30237 13.9269 4.34998C13.9198 4.3551 13.9105 4.35522 13.9036 4.36084C13.7048 4.52356 12.2639 5.75183 11.6449 7.13611C11.614 7.11865 11.5898 7.09192 11.5556 7.08105C11.3942 7.03174 11.2181 7.06396 11.087 7.17188C10.8896 7.33337 9.47022 8.54333 8.84334 9.91418C8.81913 9.90125 8.80127 9.87952 8.7751 9.87061C8.61661 9.81592 8.4454 9.84473 8.3143 9.94336C8.10688 10.0974 6.61269 11.2572 5.96209 12.6183C5.82169 12.5879 5.67396 12.609 5.55729 12.6953C5.30097 12.8862 3.05369 14.6079 2.90106 16.3555C2.7795 17.745 3.16522 19.4403 3.3039 19.9918L2.14675 21.1465C1.95108 21.3418 1.95108 21.6582 2.14675 21.8535C2.24459 21.9512 2.37275 22 2.50092 22C2.62908 22 2.75725 21.9512 2.85508 21.8535L4.04867 20.6622C4.55228 20.7679 5.71212 20.9824 6.85264 20.9824C7.07472 20.9824 7.29485 20.9741 7.51009 20.9556C9.24667 20.8042 11.0566 18.6621 11.2572 18.4185C11.3638 18.2896 11.399 18.1157 11.3501 17.9556C11.3421 17.9296 11.321 17.9117 11.309 17.8878C12.6653 17.2526 13.855 15.8616 14.0152 15.667C14.1218 15.5376 14.157 15.3638 14.1081 15.2036C14.0983 15.1718 14.0736 15.1495 14.058 15.1207C15.4313 14.4952 16.6435 13.0775 16.8054 12.8809C16.9121 12.752 16.9473 12.5781 16.8984 12.418C16.8876 12.3829 16.861 12.3579 16.8433 12.3267ZM16.0707 6.62744C16.7027 5.99609 17.8356 5.63574 18.5733 5.45752C18.3953 6.19385 18.0342 7.32471 17.4012 7.95605C16.7702 8.58594 15.74 8.82812 15.1021 8.92041C15.2048 8.23047 15.4719 7.22461 16.0707 6.62744ZM12.3588 8.18994C12.4312 7.37061 13.2628 6.36182 13.9271 5.69629C14.0641 6.38477 14.2138 7.39404 14.1384 8.25732C14.0768 8.95984 13.4323 9.80286 12.8162 10.4485C12.7091 10.5511 12.6134 10.6456 12.5215 10.7408C12.4063 10.0485 12.2837 9.04651 12.3588 8.18994ZM9.54311 11.0005C9.61453 10.1812 10.4461 9.17285 11.1104 8.50732C11.2474 9.19629 11.3971 10.2051 11.3218 11.0684C11.2503 11.8848 10.3923 12.8921 9.70649 13.5571C9.59007 12.8652 9.46778 11.8608 9.54311 11.0005ZM6.65599 13.6904C6.72838 12.8667 7.61575 11.8813 8.31038 11.2485C8.45029 11.939 8.6078 12.9746 8.53051 13.854V13.8545C8.45811 14.6802 7.58151 15.7012 6.89079 16.3657C6.85459 16.1877 6.81717 15.9874 6.78268 15.774C6.76287 15.2885 6.70857 14.8129 6.64009 14.3898C6.63275 14.1503 6.63642 13.9142 6.65599 13.6904ZM4.13379 19.1177C3.98802 18.3999 3.82169 17.3252 3.89898 16.4424C3.97138 15.6187 4.85973 14.6333 5.55338 14.001C5.69231 14.6899 5.8508 15.7246 5.77351 16.6064C5.70111 17.4321 4.82451 18.4531 4.13379 19.1177ZM7.42204 19.9595C6.56989 20.0361 5.57197 19.915 4.8793 19.7993C5.57295 19.1074 6.61881 18.2417 7.44356 18.1699C8.29473 18.0962 9.26623 18.2466 9.92956 18.3853C9.2633 19.0498 8.24679 19.8872 7.42204 19.9595ZM10.179 17.2075C9.32885 17.2808 8.33093 17.1621 7.63728 17.0474C8.33288 16.3555 9.37875 15.4897 10.2006 15.418C11.0566 15.3442 12.0242 15.4941 12.6875 15.6333C12.0203 16.2979 11.0038 17.1353 10.179 17.2075ZM12.9703 14.4219C12.1162 14.4966 11.1192 14.3765 10.4266 14.2612C11.1212 13.5698 12.1671 12.7036 12.9918 12.6318C13.843 12.5581 14.8145 12.7075 15.4778 12.8477C14.8115 13.5117 13.795 14.3496 12.9703 14.4219ZM15.786 11.6143C14.927 11.6904 13.9203 11.5669 13.2256 11.4507C13.8919 10.7661 14.9006 9.90967 15.7185 9.83838C16.5794 9.76318 17.594 9.91211 18.2847 10.0498C17.6194 10.7124 16.6098 11.542 15.786 11.6143Z" />
</svg>
