<svg  viewBox="0 0 24 24"  xmlns="http://www.w3.org/2000/svg">
<path d="M19.8165 13.9375C19.3233 13.4541 14.9844 9.19924 14.2793 8.72756C14.0357 8.56459 13.2647 8.32949 12.3428 8.16786C12.2168 7.93337 12.0367 7.70766 11.8255 7.48732C12.0862 7.17348 12.6873 6.37441 12.6636 5.72463C12.6441 5.19435 12.0953 4.46681 11.8604 4.17873C11.6846 3.96193 11.3702 3.93263 11.1573 4.10646C10.9429 4.28127 10.9107 4.59572 11.085 4.80959C11.3726 5.16408 11.649 5.61916 11.6646 5.76174C11.6722 5.96645 11.3733 6.45388 11.0721 6.82277C10.4725 6.36464 9.76226 5.928 9.05767 5.49904C8.93633 5.42531 8.81475 5.35121 8.69414 5.27724C8.25151 4.65956 8.89605 3.84938 8.93022 3.80763C9.10698 3.59572 9.07915 3.28127 8.86772 3.10451C8.65581 2.9258 8.34038 2.9551 8.16362 3.16603C7.92095 3.45473 7.63555 3.96767 7.55986 4.53737C7.23564 4.30275 6.98076 4.08339 6.86528 3.8965C6.70464 3.63576 6.92632 3.16799 7.22856 2.84084C7.41558 2.63771 7.40288 2.32228 7.19976 2.13478C6.9981 1.94728 6.68071 1.959 6.4937 2.1631C5.97564 2.72365 5.5396 3.65236 6.0147 4.42189C6.35649 4.97573 7.16387 5.50868 8.12285 6.09804C8.12822 6.10048 8.13237 6.10463 8.13774 6.10707C8.27129 6.18923 8.39849 6.26882 8.53765 6.35353C9.3626 6.85573 10.3135 7.43849 10.9292 8.00331C10.4217 7.97597 9.9251 7.9894 9.48394 8.06093C9.10381 7.74404 8.64629 7.4413 8.12554 7.1758C6.43511 6.31252 4.42095 7.00002 4.3355 7.03029C4.20171 7.07619 4.09429 7.17775 4.0396 7.30861C3.98442 7.43947 3.98784 7.58693 4.04839 7.71584C4.08135 7.78603 4.88018 9.44606 6.52593 10.2892L3.13579 13.6211C2.93901 13.8145 2.93608 14.1309 3.12993 14.3281C3.3001 14.5012 3.56133 14.5141 3.75811 14.3849C3.78423 14.3676 3.81353 14.3567 3.83696 14.334L7.57158 10.6625C7.95049 10.7693 8.1436 10.8432 8.28081 11.0733C8.37456 11.2295 8.54009 11.3164 8.7105 11.3164C8.7979 11.3164 8.88628 11.294 8.96636 11.2461C9.20366 11.1045 9.28081 10.7969 9.13921 10.5596C8.77837 9.95607 8.23101 9.80568 7.7481 9.67287C7.50054 9.60451 7.24468 9.5342 6.98784 9.40334C6.17534 8.9883 5.6021 8.30373 5.27544 7.82619C5.88579 7.71584 6.85356 7.65041 7.67095 8.06642C8.96099 8.72463 9.60601 9.52736 9.63579 9.86232C9.66021 10.1377 9.90581 10.336 10.1783 10.3164C10.4532 10.292 10.6563 10.0488 10.6319 9.77443C10.6092 9.52004 10.4947 9.24892 10.3179 8.9745C11.6124 8.9695 13.3631 9.32363 13.7227 9.55959C14.1983 9.87697 17.2081 12.7783 19.1397 14.6729C19.5264 15.0049 20.1387 15.6309 19.9043 16.1006C19.5811 16.7481 17.9522 17.1621 17.0518 16.9649C14.8458 16.4805 13.167 16.1387 12.0679 15.9502C11.8296 15.9082 11.2515 16.1875 11.1529 16.2959C10.4488 17.0801 9.07036 19.5029 8.40776 20.667C8.31768 20.8246 8.24883 20.9455 8.19365 21.0415C8.15215 21.1139 8.11602 21.1765 8.09819 21.2051C7.95317 21.4004 7.96978 21.6778 8.14702 21.8555C8.24468 21.9531 8.37261 22.002 8.50054 22.002C8.62847 22.002 8.7564 21.9531 8.85405 21.8555C8.91753 21.792 8.92144 21.7852 9.2769 21.1611C9.85356 20.1485 11.1802 17.8164 11.8355 17.0352C11.8897 17.0108 11.9615 16.9805 12.021 16.957C13.1104 17.1475 14.7295 17.4785 16.8379 17.9414C18.0245 18.2002 20.21 17.7295 20.7989 16.5469C21.0801 15.9824 21.1338 15.0684 19.8165 13.9375ZM14.1763 11.5163C14.1763 11.1297 13.8631 10.8163 13.4766 10.8163C13.0901 10.8163 12.7767 11.1297 12.7767 11.5163C12.7767 11.9027 13.0901 12.216 13.4766 12.216C13.8631 12.216 14.1763 11.9027 14.1763 11.5163Z" "/>
</svg>
