<svg  viewBox="0 0 24 24"  xmlns="http://www.w3.org/2000/svg">
<path d="M8.83184 17.4635C9.06388 17.5977 9.20675 17.8454 9.20663 18.1134C9.20652 18.3814 9.06342 18.629 8.83126 18.7629C8.5991 18.8968 8.31313 18.8967 8.08109 18.7626C7.72238 18.5552 7.59965 18.0964 7.80696 17.7377C8.01428 17.379 8.47313 17.2562 8.83184 17.4635Z" />
<path d="M16.7338 6.0253L15.0058 5.0278C14.8511 4.93844 14.6604 4.93842 14.5057 5.02775C14.3509 5.11707 14.2556 5.28218 14.2556 5.46087C14.2555 5.63956 14.3508 5.80469 14.5056 5.89405L16.2336 6.89155C16.4707 7.01076 16.7597 6.92432 16.8925 6.69446C17.0252 6.46461 16.9556 6.17112 16.7338 6.0253Z" />
<path fill-rule="evenodd" clip-rule="evenodd" d="M20.3218 6.49255C20.18 5.95802 19.8299 5.5026 19.3498 5.22805L14.1703 2.2783C13.1751 1.70493 11.9035 2.0459 11.3286 3.0403L3.88784 15.9275C3.31472 16.9239 3.65669 18.1961 4.65209 18.7708L9.83309 21.7213C10.3103 21.9976 10.878 22.0721 11.4103 21.9283C11.9438 21.7869 12.3986 21.438 12.6733 20.9593L20.1141 8.07205C20.3916 7.59055 20.4658 7.02955 20.3218 6.49255ZM10.7599 6.02487L17.8116 10.0588L13.2801 17.9083L6.22784 13.8748L10.7599 6.02487ZM11.8071 20.4583C11.6631 20.7081 11.4298 20.8873 11.1508 20.9616C10.8718 21.0358 10.5808 20.9983 10.3311 20.8535L5.14859 17.9023C4.63235 17.6035 4.45551 16.9431 4.75334 16.4263L5.72684 14.7395L12.7791 18.7731L11.8071 20.4583ZM18.3118 9.19255L19.2478 7.57105C19.392 7.32303 19.4321 7.02773 19.3577 6.75064C19.2834 6.47356 19.1016 6.23758 18.8526 6.09505L13.6731 3.1453C13.4248 3.00104 13.1292 2.96157 12.8517 3.03558C12.5742 3.1096 12.3376 3.29102 12.1941 3.5398L11.2596 5.1583L18.3118 9.19255Z" />
<path d="M4.48109 9.2503C4.63675 9.25056 4.78363 9.17824 4.87834 9.05471C4.97305 8.93118 5.00476 8.77055 4.96409 8.6203C4.31594 6.20624 5.74423 3.72308 8.15684 3.06955C8.32926 3.02306 8.46379 2.88811 8.50974 2.71554C8.55569 2.54297 8.50609 2.359 8.37962 2.23292C8.25314 2.10684 8.06901 2.05781 7.89659 2.1043C4.95359 2.8978 3.20459 5.9383 3.99809 8.8813C4.05809 9.1048 4.25984 9.25105 4.48034 9.25105L4.48109 9.2503Z" />
<path d="M8.41184 4.01455C7.50434 4.25905 6.74609 4.84255 6.27734 5.6578C5.80859 6.47305 5.68559 7.42105 5.93009 8.3293C6.0102 8.58566 6.27846 8.73301 6.53779 8.66309C6.79712 8.59317 6.95496 8.33094 6.89534 8.06905C6.71984 7.41955 6.80834 6.74005 7.14359 6.1573C7.47884 5.57455 8.02184 5.15605 8.67134 4.9813C8.9277 4.90119 9.07505 4.63292 9.00513 4.37359C8.93521 4.11426 8.67298 3.95643 8.41109 4.01605L8.41184 4.01455Z" />
<path d="M19.3948 14.8588C19.1284 14.9309 18.9707 15.205 19.0423 15.4715C19.3573 16.6393 19.1983 17.8603 18.5953 18.9081C17.9923 19.9558 17.0166 20.7073 15.8496 21.0223C15.5856 21.0965 15.4305 21.3693 15.5018 21.634C15.5732 21.8988 15.8443 22.0568 16.1098 21.9883C17.5356 21.6043 18.7266 20.6871 19.4623 19.4076C20.1981 18.128 20.3923 16.637 20.0076 15.212C19.9732 15.084 19.8892 14.9749 19.7743 14.9088C19.6594 14.8426 19.5228 14.8242 19.3948 14.8588Z" />
<path d="M17.7223 15.4096C17.8949 15.4556 18.0299 15.5901 18.0763 15.7626C18.5798 17.6388 17.4696 19.5693 15.5946 20.0773C15.3291 20.1458 15.0579 19.9878 14.9866 19.723C14.9153 19.4583 15.0704 19.1855 15.3343 19.1113C16.6768 18.7478 17.4717 17.3661 17.1111 16.0228C17.0646 15.8504 17.1136 15.6662 17.2397 15.5398C17.3658 15.4133 17.5498 15.3637 17.7223 15.4096Z" />
</svg>
