<svg  viewBox="0 0 24 24"  xmlns="http://www.w3.org/2000/svg">
<path fill-rule="evenodd" clip-rule="evenodd" d="M18.4824 19H15.4824C15.2061 19 14.9824 18.7764 14.9824 18.5V9.5C14.9824 9.22363 15.2061 9 15.4824 9H18.4824C18.7588 9 18.9824 9.22363 18.9824 9.5V18.5C18.9824 18.7764 18.7588 19 18.4824 19ZM17.9824 10H15.9824V18H17.9824V10Z" "/>
<path fill-rule="evenodd" clip-rule="evenodd" d="M5.48242 13H13.4824C13.7588 13 13.9824 12.7764 13.9824 12.5V9.5C13.9824 9.22363 13.7588 9 13.4824 9H5.48242C5.20605 9 4.98242 9.22363 4.98242 9.5V12.5C4.98242 12.7764 5.20605 13 5.48242 13ZM5.98242 10H12.9824V12H5.98242V10Z" "/>
<path fill-rule="evenodd" clip-rule="evenodd" d="M13.4824 19H5.48242C5.20605 19 4.98242 18.7764 4.98242 18.5V14.5C4.98242 14.2236 5.20605 14 5.48242 14H13.4824C13.7588 14 13.9824 14.2236 13.9824 14.5V18.5C13.9824 18.7764 13.7588 19 13.4824 19ZM12.9824 15H5.98242V18H12.9824V15Z" "/>
<path d="M4.50031 5.99792C4.77635 5.99792 5.00012 5.77415 5.00012 5.49811C5.00012 5.22207 4.77635 4.99829 4.50031 4.99829C4.22426 4.99829 4.00049 5.22207 4.00049 5.49811C4.00049 5.77415 4.22426 5.99792 4.50031 5.99792Z" "/>
<path d="M6.50031 5.99792C6.77635 5.99792 7.00012 5.77415 7.00012 5.49811C7.00012 5.22207 6.77635 4.99829 6.50031 4.99829C6.22426 4.99829 6.00049 5.22207 6.00049 5.49811C6.00049 5.77415 6.22426 5.99792 6.50031 5.99792Z" "/>
<path d="M9.00012 5.49811C9.00012 5.77415 8.77635 5.99792 8.50031 5.99792C8.22426 5.99792 8.00049 5.77415 8.00049 5.49811C8.00049 5.22207 8.22426 4.99829 8.50031 4.99829C8.77635 4.99829 9.00012 5.22207 9.00012 5.49811Z" "/>
<path fill-rule="evenodd" clip-rule="evenodd" d="M21.5 2.99805H2.5C2.22363 2.99805 2 3.22168 2 3.49805V20.543C2 20.8193 2.22363 21.043 2.5 21.043H17.25C17.293 21.043 17.3345 21.0371 17.3745 21.0273C17.4141 21.0371 17.4556 21.043 17.4985 21.043H21.5C21.7764 21.043 22 20.8193 22 20.543V3.49805C22 3.22168 21.7764 2.99805 21.5 2.99805ZM21 20.043H17.4985C17.4556 20.043 17.4141 20.0488 17.3745 20.0586C17.3345 20.0488 17.293 20.043 17.25 20.043H3V7.99805H21V20.043ZM21 6.99805H3V3.99805H21V6.99805Z" "/>
</svg>
