<svg width="24" height="24" viewBox="0 0 24 24" xmlns="http://www.w3.org/2000/svg">
<path d="M18.5 14C18.7764 14 19 13.7764 19 13.5V9.5C19 9.22363 18.7764 9 18.5 9C18.2236 9 18 9.22363 18 9.5V11H16V9.5C16 9.22363 15.7764 9 15.5 9C15.2236 9 15 9.22363 15 9.5V13.5C15 13.7764 15.2236 14 15.5 14C15.7764 14 16 13.7764 16 13.5V12H18V13.5C18 13.7764 18.2236 14 18.5 14ZM9 11.5C9 10.1216 7.87891 9 6.5 9C5.12109 9 4 10.1216 4 11.5C4 12.8784 5.12109 14 6.5 14C7.87891 14 9 12.8784 9 11.5ZM5 11.5C5 10.6729 5.67285 10 6.5 10C7.32715 10 8 10.6729 8 11.5C8 12.3271 7.32715 13 6.5 13C5.67285 13 5 12.3271 5 11.5ZM3 12C3 7.0376 7.0376 3 12 3C14.0729 3 16.0505 3.70886 17.6477 5H15.522C15.2456 5 15.022 5.22363 15.022 5.5C15.022 5.77637 15.2456 6 15.522 6H18.522C18.7983 6 19.022 5.77637 19.022 5.5V5.08398C19.0219 5.08136 19.0221 5.07892 19.022 5.07629V2.5C19.022 2.22363 18.7983 2 18.522 2C18.2456 2 18.022 2.22363 18.022 2.5V4.02319C16.2936 2.71503 14.1944 2 12 2C6.48584 2 2 6.48584 2 12C2 13.6318 2.40186 15.251 3.16211 16.6826C3.25195 16.8521 3.4248 16.9482 3.604 16.9482C3.68311 16.9482 3.76318 16.9297 3.83789 16.8896C4.08203 16.7603 4.1748 16.4575 4.04492 16.2139C3.36133 14.9258 3 13.4688 3 12ZM20.832 7.30566C20.7021 7.06201 20.3994 6.96826 20.1558 7.09912C19.9121 7.229 19.8193 7.53174 19.9492 7.77539C20.6367 9.06689 21 10.5278 21 12C21 16.9624 16.9624 21 12 21C9.93091 21 7.95496 20.2927 6.35931 19.0054H8.5C8.77637 19.0054 9 18.7817 9 18.5054C9 18.229 8.77637 18.0054 8.5 18.0054H5.5C5.36719 18.0054 5.24023 18.0581 5.14648 18.1519C5.05273 18.2456 5 18.373 5 18.5054L5.00012 18.934C5.00018 18.9388 4.99994 18.9434 5.00012 18.9483L5.00098 21.4946C5.00098 21.771 5.2251 21.9946 5.50098 21.9946C5.77734 21.9946 6.00098 21.7705 6.00098 21.4946L6.00037 19.9939C7.72449 21.291 9.81592 22 12 22C17.5142 22 22 17.5142 22 12C22 10.3643 21.5962 8.74121 20.832 7.30566ZM12.0869 10.0073C12.4326 10.0073 12.7715 10.0591 12.9102 10.1333C13.1533 10.2632 13.457 10.1733 13.5869 9.9292C13.7178 9.68555 13.626 9.38281 13.3828 9.25244C12.9854 9.03906 12.4004 9.00732 12.0869 9.00732C10.6582 9.00732 9.49512 10.1289 9.49512 11.5073C9.49512 12.8857 10.6582 14.0073 12.0869 14.0073C12.79 14.0073 13.3916 13.8066 13.8281 13.4272C13.9375 13.332 14 13.1943 14 13.0498V11.4927C14 11.2163 13.7764 10.9927 13.5 10.9927H12.5C12.2236 10.9927 12 11.2163 12 11.4927C12 11.769 12.2236 11.9927 12.5 11.9927H13V12.7959C12.7617 12.9365 12.4561 13.0073 12.0869 13.0073C11.209 13.0073 10.4951 12.3345 10.4951 11.5073C10.4951 10.6802 11.209 10.0073 12.0869 10.0073Z"/>
</svg>
