<svg  viewBox="0 0 24 24"  xmlns="http://www.w3.org/2000/svg">
<path fill-rule="evenodd" clip-rule="evenodd" d="M16.5 21C16.6406 21 16.7578 20.9531 16.8516 20.8594C16.9297 20.7812 16.9753 20.6868 16.9883 20.5762L16.9922 20.5078V17.0156H21.4922C21.6328 17.0156 21.7539 16.9648 21.8555 16.8633C21.9401 16.7786 21.9895 16.6804 22.0036 16.5687L22.0078 16.5V6.51562C22.0078 6.375 21.957 6.25391 21.8555 6.15234C21.7539 6.05078 21.6328 6 21.4922 6H18V3.51562C18 3.375 17.9531 3.25391 17.8594 3.15234C17.7812 3.06771 17.6868 3.01834 17.5762 3.00423L17.5078 3H6.49219C6.35156 3 6.23438 3.05078 6.14062 3.15234C6.0625 3.23698 6.01693 3.33518 6.00391 3.44694L6 3.51562V6H2.50781C2.36719 6 2.24609 6.05078 2.14453 6.15234C2.0599 6.23698 2.01053 6.33518 1.99642 6.44694L1.99219 6.51562V16.5C1.99219 16.6406 2.04297 16.7617 2.14453 16.8633C2.22917 16.9479 2.32737 16.9973 2.43913 17.0114L2.50781 17.0156H7.00781V20.5078C7.00781 20.6484 7.05469 20.7656 7.14844 20.8594C7.22656 20.9375 7.32096 20.9831 7.43164 20.9961L7.5 21H16.5ZM16.9922 6H7.00781V4.00781H16.9922V6ZM7.00781 16.0078H3V7.00781H21V16.0078H16.9922V12.5156C16.9922 12.375 16.9453 12.2539 16.8516 12.1523C16.7734 12.0677 16.679 12.0183 16.5684 12.0042L16.5 12H7.5C7.35938 12 7.24219 12.0508 7.14844 12.1523C7.07031 12.237 7.02474 12.3352 7.01172 12.4469L7.00781 12.5156V16.0078ZM18.4922 11.0156C18.9141 11.0156 19.2695 10.8672 19.5586 10.5703C19.8477 10.2734 19.9922 9.92188 19.9922 9.51562C19.9922 9.09375 19.8477 8.73828 19.5586 8.44922C19.2695 8.16016 18.9141 8.01562 18.4922 8.01562C18.0859 8.01562 17.7344 8.16016 17.4375 8.44922C17.1406 8.73828 16.9922 9.09375 16.9922 9.51562C16.9922 9.92188 17.1406 10.2734 17.4375 10.5703C17.7344 10.8672 18.0859 11.0156 18.4922 11.0156ZM18.4922 10.0078C18.3516 10.0078 18.2344 9.96094 18.1406 9.86719C18.0469 9.77344 18 9.65625 18 9.51562C18 9.375 18.0508 9.25391 18.1523 9.15234C18.2539 9.05078 18.3672 9 18.4922 9C18.6328 9 18.7539 9.05078 18.8555 9.15234C18.957 9.25391 19.0078 9.375 19.0078 9.51562C19.0078 9.65625 18.957 9.77344 18.8555 9.86719C18.7539 9.96094 18.6328 10.0078 18.4922 10.0078ZM16.0078 20.0156H7.99219V13.0078H16.0078V20.0156ZM14.5312 16.0078C14.6719 16.0078 14.7891 15.9609 14.8828 15.8672C14.9766 15.7734 15.0234 15.6562 15.0234 15.5156C15.0234 15.375 14.9766 15.2539 14.8828 15.1523C14.7891 15.0508 14.6719 15 14.5312 15H9.53906C9.39844 15 9.27734 15.0508 9.17578 15.1523C9.07422 15.2539 9.02344 15.375 9.02344 15.5156C9.02344 15.6562 9.07422 15.7734 9.17578 15.8672C9.27734 15.9609 9.39844 16.0078 9.53906 16.0078H14.5312ZM13.5469 18C13.6719 18 13.7852 17.9531 13.8867 17.8594C13.9883 17.7656 14.0391 17.6484 14.0391 17.5078C14.0391 17.3672 13.9883 17.25 13.8867 17.1562C13.7852 17.0625 13.6719 17.0156 13.5469 17.0156H9.53906C9.39844 17.0156 9.27734 17.0625 9.17578 17.1562C9.07422 17.25 9.02344 17.3672 9.02344 17.5078C9.02344 17.6484 9.07422 17.7656 9.17578 17.8594C9.27734 17.9531 9.39844 18 9.53906 18H13.5469Z" />
</svg>
