<svg  viewBox="0 0 24 24"  xmlns="http://www.w3.org/2000/svg">
<path d="M9.65203 8.02441C9.38771 7.94434 9.10825 8.08984 9.02665 8.35352C8.98366 8.49219 7.98599 11.7842 8.96607 15.625C9.02372 15.8516 9.22697 16.002 9.45025 16.002C9.49129 16.002 9.53282 15.9971 9.57435 15.9863C9.84208 15.918 10.0038 15.6465 9.9354 15.3789C9.02812 11.8203 9.97302 8.68066 9.98231 8.64941C10.0639 8.38574 9.91586 8.10645 9.65203 8.02441ZM15.5139 8.02637C15.2477 8.09863 15.0899 8.37402 15.1627 8.63965C15.171 8.6709 16.0001 11.7988 15.0874 15.3789C15.019 15.6465 15.1807 15.918 15.4485 15.9863C15.49 15.9971 15.5315 16.002 15.5726 16.002C15.7958 16.002 15.9991 15.8516 16.0567 15.625C17.0344 11.793 16.1657 8.51562 16.1281 8.37793C16.0558 8.11133 15.7802 7.95508 15.5139 8.02637ZM17.5914 3.71094C17.2122 3.28418 16.7652 3.05957 16.2624 3.04199C15.8408 3.04004 15.4426 3.23633 15.0053 3.66016C14.6577 3.99585 14.3079 4.46936 13.998 5.0127C13.9974 4.51233 13.9965 4.50281 13.9954 4.49023C13.9212 3.74902 13.4224 3.00195 12.475 3.00195C11.4265 3.00195 11.0176 3.92676 10.998 4.56445V5.01135C10.6895 4.47913 10.3429 4.01782 10.0018 3.68848C9.54259 3.24512 9.11313 3.04395 8.69149 3.04199C8.18875 3.05957 7.74317 3.2832 7.36697 3.70605C5.66673 5.61816 5.97747 11.0547 6.11329 12.6758C6.45041 16.71 7.09435 21.001 10.4557 21.001C10.5017 21.001 10.5486 21 10.596 20.999C11.5755 20.9658 11.8091 20.3594 11.9635 19.958C12.0695 19.6826 12.1535 19.4648 12.3973 19.2949C12.4462 19.2764 12.5776 19.2695 12.5766 19.2588C12.8639 19.4385 12.946 19.6611 13.0501 19.9424C13.2005 20.3496 13.4282 20.9648 14.4088 20.999C17.7189 21.085 18.5265 17.0664 18.8919 12.6748C19.0258 11.0654 19.3273 5.66211 17.5914 3.71094ZM17.8952 12.5928C17.4516 17.9229 16.4637 20.0566 14.443 19.999C14.1342 19.9883 14.1205 19.9512 13.9886 19.5957C13.8601 19.248 13.6842 18.7725 13.1087 18.4121C12.7667 18.1953 12.1506 18.2568 11.8692 18.4492C11.3322 18.8145 11.1573 19.2676 11.0298 19.5986C10.894 19.9512 10.8798 19.9883 10.5618 19.999C8.52684 20.0596 7.56191 17.9941 7.10998 12.5918C6.78068 8.6543 7.17496 5.42676 8.11498 4.37012C8.30454 4.15625 8.50437 4.0498 8.72618 4.04199C8.77846 4.04297 9.00076 4.1123 9.30661 4.40723C10.1382 5.20996 10.998 6.91602 10.998 8.38184V16.502C10.998 16.7783 11.2218 17.002 11.4983 17.002C11.7749 17.002 11.9986 16.7783 11.9986 16.502L11.9983 8.38342C11.9983 8.38293 11.9986 8.38245 11.9986 8.38184C11.9986 8.38025 11.9983 8.37854 11.9983 8.37695L11.9982 4.58398C12.005 4.44727 12.0592 4.00195 12.475 4.00195C12.8805 4.00195 12.9777 4.37012 12.9973 4.5459C12.9988 4.72363 12.9992 16.502 12.9992 16.502C12.9992 16.7783 13.2235 17.002 13.4995 17.002C13.7761 17.002 13.9998 16.7783 13.9998 16.502C13.9996 12.7357 13.9995 10.1555 13.9992 8.38464C13.9992 8.38367 13.9998 8.38281 13.9998 8.38184C13.9998 6.96973 14.8793 5.17188 15.7006 4.37891C15.982 4.10742 16.1598 4.05566 16.2282 4.04199C16.4496 4.0498 16.6508 4.1582 16.8433 4.375C17.7922 5.44141 18.2148 8.74414 17.8952 12.5928Z" />
</svg>
