<svg  viewBox="0 0 24 24"  xmlns="http://www.w3.org/2000/svg">
<path d="M20.25 8.94531H18.75C18.4736 8.94531 18.25 9.16895 18.25 9.44531C18.25 9.72168 18.4736 9.94531 18.75 9.94531H19V14.0547H18V13.5C18 13.2236 17.7764 13 17.5 13H17V2.5C17 2.22363 16.7764 2 16.5 2H8.5C8.22363 2 8 2.22363 8 2.5V13H7.5C7.22363 13 7 13.2236 7 13.5V14H6V10H6.25C6.52637 10 6.75 9.77637 6.75 9.5C6.75 9.22363 6.52637 9 6.25 9H4.75C4.47363 9 4.25 9.22363 4.25 9.5C4.25 9.77637 4.47363 10 4.75 10H5V14.5C5 14.7764 5.22363 15 5.5 15H7V15.5C7 15.7764 7.22363 16 7.5 16H12V17.049C10.3443 17.1627 8.96887 17.8201 8.22845 18.7756C8.19342 18.7734 8.1601 18.7651 8.12451 18.7651C7.22852 18.7651 6.49951 19.4941 6.49951 20.3901C6.49951 21.2861 7.22852 22.0151 8.12451 22.0151C9.02051 22.0151 9.74951 21.2861 9.74951 20.3901C9.74951 19.9086 9.53485 19.4801 9.20105 19.1823C9.8017 18.577 10.8229 18.1458 12 18.0471V18.8521C11.3495 19.0644 10.875 19.6697 10.875 20.3901C10.875 21.2861 11.604 22.0151 12.5 22.0151C13.3965 22.0151 14.125 21.2861 14.125 20.3901C14.125 19.6696 13.6508 19.0643 13 18.852V18.0471C14.1769 18.1458 15.198 18.5768 15.7988 19.1818C15.4647 19.4796 15.25 19.9084 15.25 20.3901C15.25 21.2861 15.9785 22.0151 16.875 22.0151C17.7715 22.0151 18.5 21.2861 18.5 20.3901C18.5 19.4941 17.7715 18.7651 16.875 18.7651C16.8397 18.7651 16.8066 18.7734 16.7719 18.7756C16.0313 17.82 14.6556 17.1627 13 17.049V16H17.5C17.7764 16 18 15.7764 18 15.5V15.0547H19.5C19.7764 15.0547 20 14.8311 20 14.5547V9.94531H20.25C20.5264 9.94531 20.75 9.72168 20.75 9.44531C20.75 9.16895 20.5264 8.94531 20.25 8.94531ZM8.12451 21.0151C7.77979 21.0151 7.49951 20.7349 7.49951 20.3901C7.49951 20.0454 7.77979 19.7651 8.12451 19.7651C8.46924 19.7651 8.74951 20.0454 8.74951 20.3901C8.74951 20.7349 8.46924 21.0151 8.12451 21.0151ZM16.875 19.7651C17.2197 19.7651 17.5 20.0454 17.5 20.3901C17.5 20.7349 17.2197 21.0151 16.875 21.0151C16.5303 21.0151 16.25 20.7349 16.25 20.3901C16.25 20.0454 16.5303 19.7651 16.875 19.7651ZM9 3H16V13H9V3ZM13.125 20.3901C13.125 20.7349 12.8447 21.0151 12.5 21.0151C12.1553 21.0151 11.875 20.7349 11.875 20.3901C11.875 20.0454 12.1553 19.7651 12.5 19.7651C12.8447 19.7651 13.125 20.0454 13.125 20.3901ZM17 15H8V14H8.5H16.5H17V15Z" "/>
</svg>
