<svg width="12" height="12" viewBox="0 0 12 12" xmlns="http://www.w3.org/2000/svg">
<path d="M5.5 4C5.22363 4 5 4.22363 5 4.5V8.5C5 8.77637 5.22363 9 5.5 9C5.77637 9 6 8.77637 6 8.5V4.5C6 4.22363 5.77637 4 5.5 4ZM5.5 0C2.46729 0 0 2.46729 0 5.5C0 8.53271 2.46729 11 5.5 11C8.53271 11 11 8.53271 11 5.5C11 2.46729 8.53271 0 5.5 0ZM5.5 10C3.01855 10 1 7.98145 1 5.5C1 3.01855 3.01855 1 5.5 1C7.98145 1 10 3.01855 10 5.5C10 7.98145 7.98145 10 5.5 10ZM5.5 1.75C5.08582 1.75 4.75 2.08575 4.75 2.5C4.75 2.91418 5.08582 3.25 5.5 3.25C5.91418 3.25 6.25 2.91418 6.25 2.5C6.25 2.08575 5.91418 1.75 5.5 1.75Z" fill="#222222"/>
</svg>
