<svg  viewBox="0 0 24 24"  xmlns="http://www.w3.org/2000/svg">
<path d="M18.0694 3.2339C17.9464 3.04543 17.713 2.96144 17.5006 3.0298C17.3104 3.08974 13.8673 4.19948 11.3716 6.50795C8.91975 4.25795 5.7652 3.15785 5.5904 3.09816C5.37653 3.02492 5.14216 3.10402 5.01569 3.28957C4.87556 3.49513 1.59626 8.37013 2.5572 12.7446C3.06501 15.0567 4.45417 17.0371 6.36774 18.1782C7.35163 18.7647 8.40534 19.0694 9.39167 19.0694C9.66608 19.0694 9.93232 19.0368 10.1934 18.9889L10.8135 20.6743C10.8858 20.8706 11.0733 21.0015 11.2828 21.0015H11.7906C12.001 21.0015 12.189 20.8696 12.2608 20.6719L12.8846 18.9501C13.1187 18.9865 13.3579 19.0069 13.6016 19.0069C14.6383 19.0069 15.7432 18.6797 16.7764 18.0479C18.7149 16.8633 20.0523 14.8599 20.4454 12.5508C21.2027 8.10207 18.1973 3.43019 18.0694 3.2339ZM6.87995 17.3194C5.20222 16.3194 3.98249 14.5737 3.53376 12.5298C2.79938 9.18703 4.93903 5.31984 5.63288 4.18263C6.51594 4.53359 8.8238 5.55348 10.6683 7.22963C10.171 7.78823 9.7331 8.3998 9.41169 9.07717C8.98933 9.96669 8.73322 10.8998 8.62665 11.8327L6.96979 7.32863C6.87458 7.06984 6.58893 6.93605 6.3277 7.03224C6.06892 7.12746 5.9361 7.41506 6.03132 7.67433L9.83637 18.0182C8.91413 18.1381 7.86848 17.9081 6.87995 17.3194ZM11.5352 19.7388L11.1502 18.6925C11.2803 18.6333 11.4068 18.5651 11.5318 18.4923C11.6588 18.5611 11.7886 18.6207 11.9204 18.6756L11.5352 19.7388ZM19.46 12.3828C19.1148 14.4068 17.9468 16.1607 16.2554 17.1944C15.2501 17.8085 14.1882 18.0657 13.2392 17.9713L14.5096 14.4649C14.6678 14.4867 14.8268 14.5054 14.9883 14.5054C16.0318 14.5054 17.1143 14.0537 17.8785 13.2427C18.0679 13.042 18.0587 12.7256 17.8575 12.5361C17.6573 12.3462 17.3404 12.3555 17.1509 12.5571C16.5595 13.1842 15.6934 13.528 14.8635 13.4882L15.838 10.7982C15.8868 10.8012 15.9348 10.8106 15.984 10.8106C16.6749 10.8106 17.3868 10.5191 17.8883 9.99416C18.0787 9.79445 18.0714 9.47804 17.8716 9.28713C17.6729 9.0967 17.357 9.10451 17.1646 9.30373C16.9114 9.56874 16.5644 9.72487 16.2086 9.77529L16.9708 7.67189C17.0645 7.41213 16.9307 7.12551 16.671 7.03127C16.4117 6.93947 16.1251 7.07179 16.0303 7.33107L15.2281 9.54531C14.8909 9.27968 14.6529 8.83949 14.6246 8.36672C14.6085 8.09084 14.3638 7.88478 14.0958 7.89748C13.8204 7.91359 13.6099 8.15041 13.6265 8.42629C13.6773 9.28395 14.1612 10.0529 14.8865 10.4879L13.8945 13.2265C13.1158 12.7912 12.5523 11.851 12.4996 10.8433C12.4849 10.5674 12.234 10.3428 11.9737 10.3701C11.6978 10.3848 11.4864 10.6201 11.5006 10.896C11.5753 12.3156 12.3922 13.6004 13.5518 14.1725L12.2652 17.7238C11.3326 17.32 10.5286 16.4552 10.0504 15.2915C9.31892 13.5103 9.41511 11.4014 10.315 9.50588C11.7994 6.37892 16.1378 4.58791 17.4327 4.11232C18.0811 5.22902 20.0421 8.96291 19.46 12.3828Z" "/>
</svg>
