<svg  viewBox="0 0 24 24"  xmlns="http://www.w3.org/2000/svg">
<path d="M20.8535 10.1501L19.9987 9.29535L20 5.50366C20 5.37134 19.9473 5.2439 19.8535 5.15015C19.7598 5.0564 19.6328 5.00366 19.5 5.00366H16.283L13.2852 2.45874C12.5752 1.84741 11.4648 1.8479 10.7588 2.45532L7.73682 5.00366H4.5C4.22363 5.00366 4 5.2273 4 5.50366V9.29663L3.14648 10.1501C3.04895 10.2477 3.00073 10.3756 3.00073 10.5037H3V21.5037C3 21.78 3.22363 22.0037 3.5 22.0037H20.5C20.7764 22.0037 21 21.78 21 21.5037V10.5037C20.9996 10.3717 20.9476 10.2438 20.8535 10.1501ZM11.4072 3.21655C11.7334 2.93433 12.3066 2.93579 12.6357 3.21899L14.738 5.00366H9.28802L11.4072 3.21655ZM5 6.00366H19L18.9981 11.1398C17.5357 12.4307 15.1407 14.5842 13.7789 15.811L13.3965 15.5227C13.0078 15.1907 12.5107 15.0076 11.998 15.0076C11.3926 15.0076 10.9229 15.2957 10.5459 15.575C10.4823 15.6215 10.361 15.7103 10.2159 15.8165C8.52704 14.3298 6.32904 12.3887 5 11.1981V6.00366ZM4 11.6436C5.3479 12.8576 7.89807 15.1075 9.3913 16.4218C7.88098 17.5319 5.34521 19.405 4 20.4509V11.6436ZM4.91907 21.0037C6.43811 19.8394 9.22815 17.7776 11.1387 16.3806C11.7207 15.949 12.2881 15.8933 12.7715 16.3025L19.0069 21.0037H4.91907ZM20 20.501L14.5922 16.4241C16.3044 14.8823 18.7353 12.7003 20 11.5894V20.501ZM12.6855 14.0017C13.2822 14.0017 13.8838 13.7107 14.2959 13.2229C14.4746 13.012 14.4473 12.696 14.2363 12.5183C14.0264 12.3401 13.7109 12.3669 13.5322 12.5774C13.3076 12.843 12.9912 13.0017 12.6855 13.0017C11.9019 13.0017 11.4783 12.5563 11.2479 12.0017H12.1602C12.4365 12.0017 12.6602 11.7781 12.6602 11.5017C12.6602 11.2253 12.4365 11.0017 12.1602 11.0017H11.0164C11.0002 10.8256 10.9902 10.6543 10.9902 10.5022C10.9902 10.3498 11.0002 10.1782 11.0165 10.0017H12.8154C13.0918 10.0017 13.3154 9.77808 13.3154 9.50171C13.3154 9.22534 13.0918 9.00171 12.8154 9.00171H11.2494C11.4811 8.44708 11.9071 8.00171 12.6953 8.00171C13.0303 8.00171 13.4043 8.24292 13.6104 8.46704C13.7979 8.67114 14.1152 8.68384 14.3164 8.49683C14.5205 8.30981 14.5332 7.99341 14.3467 7.79028C13.9961 7.40894 13.3779 7.00171 12.6953 7.00171C11.4584 7.00171 10.572 7.74139 10.1945 9.00171H9.49023C9.21387 9.00171 8.99023 9.22534 8.99023 9.50171C8.99023 9.77808 9.21387 10.0017 9.49023 10.0017H10.0213C10.0079 10.166 9.99023 10.3268 9.99023 10.5022C9.99023 10.6777 10.0074 10.8377 10.0201 11.0017H9.49023C9.21387 11.0017 8.99023 11.2253 8.99023 11.5017C8.99023 11.7781 9.21387 12.0017 9.49023 12.0017H10.1846C10.5524 13.2753 11.4299 14.0017 12.6855 14.0017Z" "/>
</svg>
