<svg  viewBox="0 0 24 24"  xmlns="http://www.w3.org/2000/svg">
<path fill-rule="evenodd" clip-rule="evenodd" d="M12.009 20.1283C11.8753 20.1283 11.7471 20.0752 11.6526 19.9806C11.5581 19.8861 11.505 19.7579 11.505 19.6243V7.625C11.5154 7.35441 11.7378 7.14044 12.0086 7.14044C12.2794 7.14044 12.5018 7.35441 12.5123 7.625V19.6243C12.5123 19.9025 12.2873 20.1283 12.009 20.1283ZM12.75 4.625C12.75 5.03921 12.4142 5.375 12 5.375C11.5858 5.375 11.25 5.03921 11.25 4.625C11.25 4.21079 11.5858 3.875 12 3.875C12.4142 3.875 12.75 4.21079 12.75 4.625Z" "/>
</svg>
