<svg width="24" height="24" viewBox="0 0 24 24" xmlns="http://www.w3.org/2000/svg">
<path d="M8.47581 5.31714L2.14621 11.6462C2.07736 11.7151 2.03195 11.8005 2.01144 11.8914C2.009 11.9041 2.00656 11.9172 2.00461 11.9299V11.9314C2.0051 11.9319 2.00412 11.9329 2.00412 11.9329V11.9353C2.00363 11.9358 2.00363 11.9363 2.00363 11.9363V11.9382C1.99484 12.0183 2.00266 12.1003 2.03293 12.1785C2.03325 12.1794 2.03342 12.1801 2.03342 12.1804C2.03342 12.1809 2.03391 12.1819 2.03439 12.1824L2.04025 12.197C2.04025 12.1975 2.04074 12.1975 2.04074 12.198C2.04025 12.1985 2.04172 12.199 2.04123 12.1995C2.0676 12.259 2.10422 12.3123 2.14914 12.3562L8.47581 18.6829C8.67112 18.8782 8.98753 18.8782 9.18284 18.6829C9.37815 18.4875 9.37815 18.1711 9.18284 17.9758L3.70676 12.4998H21.4997C21.7761 12.4998 21.9997 12.2761 21.9997 11.9998C21.9997 11.7234 21.7761 11.4998 21.4997 11.4998H3.70676L9.18284 6.02417C9.37815 5.82886 9.37815 5.51245 9.18284 5.31714C9.08518 5.21948 8.95725 5.17065 8.82932 5.17065C8.70139 5.17065 8.57346 5.21948 8.47581 5.31714Z" />
</svg>
