<svg  viewBox="0 0 24 24"  xmlns="http://www.w3.org/2000/svg">
<path fill-rule="evenodd" clip-rule="evenodd" d="M21.4922 8.99219C21.6484 8.99219 21.7734 8.94922 21.8672 8.86328C21.9609 8.77734 22.0078 8.65625 22.0078 8.5V2.5C22.0078 2.34375 21.9609 2.22266 21.8672 2.13672C21.7734 2.05078 21.6484 2.00781 21.4922 2.00781H15.4922C15.3516 2.00781 15.2344 2.05078 15.1406 2.13672C15.0469 2.22266 15 2.34375 15 2.5C15 2.65625 15.0469 2.77734 15.1406 2.86328C15.2344 2.94922 15.3516 2.99219 15.4922 2.99219H21V8.5C21 8.65625 21.0469 8.77734 21.1406 8.86328C21.2344 8.94922 21.3516 8.99219 21.4922 8.99219ZM2.50781 8.99219C2.64844 8.99219 2.76562 8.94922 2.85938 8.86328C2.95312 8.77734 3 8.65625 3 8.5V2.99219H8.50781C8.64844 2.99219 8.76562 2.94922 8.85938 2.86328C8.95312 2.77734 9 2.65625 9 2.5C9 2.34375 8.95312 2.22266 8.85938 2.13672C8.76562 2.05078 8.64844 2.00781 8.50781 2.00781H2.50781C2.35156 2.00781 2.22656 2.05078 2.13281 2.13672C2.03906 2.22266 1.99219 2.34375 1.99219 2.5V8.5C1.99219 8.65625 2.03906 8.77734 2.13281 8.86328C2.22656 8.94922 2.35156 8.99219 2.50781 8.99219ZM9.49219 10C9.64844 10 9.77344 9.95312 9.86719 9.85938C9.96094 9.76562 10.0078 9.64844 10.0078 9.50781V4.49219C10.0078 4.35156 9.96094 4.23438 9.86719 4.14062C9.77344 4.04688 9.64844 4 9.49219 4H4.5C4.34375 4 4.22266 4.04688 4.13672 4.14062C4.05078 4.23438 4.00781 4.35156 4.00781 4.49219V9.50781C4.00781 9.64844 4.05078 9.76562 4.13672 9.85938C4.22266 9.95312 4.34375 10 4.5 10H9.49219ZM19.5 10C19.6562 10 19.7773 9.95312 19.8633 9.85938C19.9492 9.76562 19.9922 9.64844 19.9922 9.50781V4.49219C19.9922 4.35156 19.9492 4.23438 19.8633 4.14062C19.7773 4.04688 19.6562 4 19.5 4H14.5078C14.3516 4 14.2266 4.04688 14.1328 4.14062C14.0391 4.23438 13.9922 4.35156 13.9922 4.49219V9.50781C13.9922 9.64844 14.0391 9.76562 14.1328 9.85938C14.2266 9.95312 14.3516 10 14.5078 10H19.5ZM12.4922 5.99219C12.6484 5.99219 12.7734 5.94922 12.8672 5.86328C12.9609 5.77734 13.0078 5.65625 13.0078 5.5V4.49219C13.0078 4.35156 12.9609 4.23438 12.8672 4.14062C12.7734 4.04688 12.6484 4 12.4922 4H11.5078C11.3516 4 11.2266 4.04688 11.1328 4.14062C11.0391 4.23438 10.9922 4.35156 10.9922 4.49219V5.5C10.9922 5.65625 11.0391 5.77734 11.1328 5.86328C11.2266 5.94922 11.3516 5.99219 11.5078 5.99219H12.4922ZM9 8.99219H4.99219V5.00781H9V8.99219ZM19.0078 8.99219H15V5.00781H19.0078V8.99219ZM7.5 8.00781C7.65625 8.00781 7.77734 7.96094 7.86328 7.86719C7.94922 7.77344 7.99219 7.64844 7.99219 7.49219V6.50781C7.99219 6.35156 7.94922 6.22656 7.86328 6.13281C7.77734 6.03906 7.65625 5.99219 7.5 5.99219H6.49219C6.35156 5.99219 6.23438 6.03906 6.14062 6.13281C6.04688 6.22656 6 6.35156 6 6.50781V7.49219C6 7.64844 6.04688 7.77344 6.14062 7.86719C6.23438 7.96094 6.35156 8.00781 6.49219 8.00781H7.5ZM17.5078 8.00781C17.6484 8.00781 17.7656 7.96094 17.8594 7.86719C17.9531 7.77344 18 7.64844 18 7.49219V6.50781C18 6.35156 17.9531 6.22656 17.8594 6.13281C17.7656 6.03906 17.6484 5.99219 17.5078 5.99219H16.5C16.3438 5.99219 16.2227 6.03906 16.1367 6.13281C16.0508 6.22656 16.0078 6.35156 16.0078 6.50781V7.49219C16.0078 7.64844 16.0508 7.77344 16.1367 7.86719C16.2227 7.96094 16.3438 8.00781 16.5 8.00781H17.5078ZM12.4922 10C12.6484 10 12.7734 9.95312 12.8672 9.85938C12.9609 9.76562 13.0078 9.64844 13.0078 9.50781V7.49219C13.0078 7.35156 12.9609 7.23438 12.8672 7.14062C12.7734 7.04688 12.6484 7 12.4922 7H11.5078C11.3516 7 11.2266 7.04688 11.1328 7.14062C11.0391 7.23438 10.9922 7.35156 10.9922 7.49219V9.50781C10.9922 9.64844 11.0391 9.76562 11.1328 9.85938C11.2266 9.95312 11.3516 10 11.5078 10H12.4922ZM5.50781 13C5.64844 13 5.76562 12.9531 5.85938 12.8594C5.95312 12.7656 6 12.6484 6 12.5078V11.5C6 11.3438 5.95312 11.2227 5.85938 11.1367C5.76562 11.0508 5.64844 11.0078 5.50781 11.0078H4.5C4.34375 11.0078 4.22266 11.0508 4.13672 11.1367C4.05078 11.2227 4.00781 11.3438 4.00781 11.5V12.5078C4.00781 12.6484 4.05078 12.7656 4.13672 12.8594C4.22266 12.9531 4.34375 13 4.5 13H5.50781ZM9.49219 13C9.64844 13 9.77344 12.9531 9.86719 12.8594C9.96094 12.7656 10.0078 12.6484 10.0078 12.5078V11.5C10.0078 11.3438 9.96094 11.2227 9.86719 11.1367C9.77344 11.0508 9.64844 11.0078 9.49219 11.0078H7.5C7.34375 11.0078 7.22266 11.0508 7.13672 11.1367C7.05078 11.2227 7.00781 11.3438 7.00781 11.5V12.5078C7.00781 12.6484 7.05078 12.7656 7.13672 12.8594C7.22266 12.9531 7.34375 13 7.5 13H9.49219ZM12.4922 13C12.6484 13 12.7734 12.9531 12.8672 12.8594C12.9609 12.7656 13.0078 12.6484 13.0078 12.5078V11.5C13.0078 11.3438 12.9609 11.2227 12.8672 11.1367C12.7734 11.0508 12.6484 11.0078 12.4922 11.0078H11.5078C11.3516 11.0078 11.2266 11.0508 11.1328 11.1367C11.0391 11.2227 10.9922 11.3438 10.9922 11.5V12.5078C10.9922 12.6484 11.0391 12.7656 11.1328 12.8594C11.2266 12.9531 11.3516 13 11.5078 13H12.4922ZM19.5 13C19.6562 13 19.7773 12.9531 19.8633 12.8594C19.9492 12.7656 19.9922 12.6484 19.9922 12.5078V11.5C19.9922 11.3438 19.9492 11.2227 19.8633 11.1367C19.7773 11.0508 19.6562 11.0078 19.5 11.0078H17.5078C17.3516 11.0078 17.2266 11.0508 17.1328 11.1367C17.0391 11.2227 16.9922 11.3438 16.9922 11.5V12.5078C16.9922 12.6484 17.0391 12.7656 17.1328 12.8594C17.2266 12.9531 17.3516 13 17.5078 13H19.5ZM15.4922 13C15.6484 13 15.7734 12.9531 15.8672 12.8594C15.9609 12.7656 16.0078 12.6484 16.0078 12.5078V11.5C16.0078 11.3438 15.9609 11.2227 15.8672 11.1367C15.7734 11.0508 15.6484 11.0078 15.4922 11.0078H14.5078C14.3516 11.0078 14.2266 11.0508 14.1328 11.1367C14.0391 11.2227 13.9922 11.3438 13.9922 11.5V12.5078C13.9922 12.6484 14.0391 12.7656 14.1328 12.8594C14.2266 12.9531 14.3516 13 14.5078 13H15.4922ZM9.49219 20.0078C9.64844 20.0078 9.77344 19.9609 9.86719 19.8672C9.96094 19.7734 10.0078 19.6484 10.0078 19.4922V14.5C10.0078 14.3438 9.96094 14.2227 9.86719 14.1367C9.77344 14.0508 9.64844 14.0078 9.49219 14.0078H4.5C4.34375 14.0078 4.22266 14.0508 4.13672 14.1367C4.05078 14.2227 4.00781 14.3438 4.00781 14.5V19.4922C4.00781 19.6484 4.05078 19.7734 4.13672 19.8672C4.22266 19.9609 4.34375 20.0078 4.5 20.0078H9.49219ZM19.5 16C19.6562 16 19.7773 15.9531 19.8633 15.8594C19.9492 15.7656 19.9922 15.6484 19.9922 15.5078V14.5C19.9922 14.3438 19.9492 14.2227 19.8633 14.1367C19.7773 14.0508 19.6562 14.0078 19.5 14.0078H18.4922C18.3516 14.0078 18.2344 14.0508 18.1406 14.1367C18.0469 14.2227 18 14.3438 18 14.5V15.5078C18 15.6484 18.0469 15.7656 18.1406 15.8594C18.2344 15.9531 18.3516 16 18.4922 16H19.5ZM12.4922 16C12.6484 16 12.7734 15.9531 12.8672 15.8594C12.9609 15.7656 13.0078 15.6484 13.0078 15.5078V14.5C13.0078 14.3438 12.9609 14.2227 12.8672 14.1367C12.7734 14.0508 12.6484 14.0078 12.4922 14.0078H11.5078C11.3516 14.0078 11.2266 14.0508 11.1328 14.1367C11.0391 14.2227 10.9922 14.3438 10.9922 14.5V15.5078C10.9922 15.6484 11.0391 15.7656 11.1328 15.8594C11.2266 15.9531 11.3516 16 11.5078 16H12.4922ZM16.5 16C16.6562 16 16.7773 15.9531 16.8633 15.8594C16.9492 15.7656 16.9922 15.6484 16.9922 15.5078V14.5C16.9922 14.3438 16.9492 14.2227 16.8633 14.1367C16.7773 14.0508 16.6562 14.0078 16.5 14.0078H15.4922C15.3516 14.0078 15.2344 14.0508 15.1406 14.1367C15.0469 14.2227 15 14.3438 15 14.5V15.5078C15 15.6484 15.0469 15.7656 15.1406 15.8594C15.2344 15.9531 15.3516 16 15.4922 16H16.5ZM8.50781 22C8.64844 22 8.76562 21.9531 8.85938 21.8594C8.95312 21.7656 9 21.6484 9 21.5078C9 21.3516 8.95312 21.2266 8.85938 21.1328C8.76562 21.0391 8.64844 20.9922 8.50781 20.9922H3V15.5078C3 15.3516 2.95312 15.2266 2.85938 15.1328C2.76562 15.0391 2.64844 14.9922 2.50781 14.9922C2.35156 14.9922 2.22656 15.0391 2.13281 15.1328C2.03906 15.2266 1.99219 15.3516 1.99219 15.5078V21.5078C1.99219 21.6484 2.03906 21.7656 2.13281 21.8594C2.22656 21.9531 2.35156 22 2.50781 22H8.50781ZM21.4922 22C21.6484 22 21.7734 21.9531 21.8672 21.8594C21.9609 21.7656 22.0078 21.6484 22.0078 21.5078V15.5078C22.0078 15.3516 21.9609 15.2266 21.8672 15.1328C21.7734 15.0391 21.6484 14.9922 21.4922 14.9922C21.3516 14.9922 21.2344 15.0391 21.1406 15.1328C21.0469 15.2266 21 15.3516 21 15.5078V20.9922H15.4922C15.3516 20.9922 15.2344 21.0391 15.1406 21.1328C15.0469 21.2266 15 21.3516 15 21.5078C15 21.6484 15.0469 21.7656 15.1406 21.8594C15.2344 21.9531 15.3516 22 15.4922 22H21.4922ZM9 19H4.99219V14.9922H9V19ZM7.5 17.9922C7.65625 17.9922 7.77734 17.9492 7.86328 17.8633C7.94922 17.7773 7.99219 17.6562 7.99219 17.5V16.4922C7.99219 16.3516 7.94922 16.2344 7.86328 16.1406C7.77734 16.0469 7.65625 16 7.5 16H6.49219C6.35156 16 6.23438 16.0469 6.14062 16.1406C6.04688 16.2344 6 16.3516 6 16.4922V17.5C6 17.6562 6.04688 17.7773 6.14062 17.8633C6.23438 17.9492 6.35156 17.9922 6.49219 17.9922H7.5ZM14.5078 17.9922C14.6484 17.9922 14.7656 17.9492 14.8594 17.8633C14.9531 17.7773 15 17.6562 15 17.5V16.4922C15 16.3516 14.9531 16.2344 14.8594 16.1406C14.7656 16.0469 14.6484 16 14.5078 16H13.5C13.3438 16 13.2227 16.0469 13.1367 16.1406C13.0508 16.2344 13.0078 16.3516 13.0078 16.4922V17.5C13.0078 17.6562 13.0508 17.7773 13.1367 17.8633C13.2227 17.9492 13.3438 17.9922 13.5 17.9922H14.5078ZM19.5 20.0078C19.6562 20.0078 19.7773 19.9609 19.8633 19.8672C19.9492 19.7734 19.9922 19.6484 19.9922 19.4922V17.5C19.9922 17.3438 19.9492 17.2227 19.8633 17.1367C19.7773 17.0508 19.6562 17.0078 19.5 17.0078H18.4922C18.3516 17.0078 18.2344 17.0508 18.1406 17.1367C18.0469 17.2227 18 17.3438 18 17.5V19.4922C18 19.6484 18.0469 19.7734 18.1406 19.8672C18.2344 19.9609 18.3516 20.0078 18.4922 20.0078H19.5ZM16.5 20.0078C16.6562 20.0078 16.7773 19.9609 16.8633 19.8672C16.9492 19.7734 16.9922 19.6484 16.9922 19.4922V18.5078C16.9922 18.3516 16.9492 18.2266 16.8633 18.1328C16.7773 18.0391 16.6562 17.9922 16.5 17.9922H15.4922C15.3516 17.9922 15.2344 18.0391 15.1406 18.1328C15.0469 18.2266 15 18.3516 15 18.5078V19.4922C15 19.6484 15.0469 19.7734 15.1406 19.8672C15.2344 19.9609 15.3516 20.0078 15.4922 20.0078H16.5ZM12.4922 20.0078C12.6484 20.0078 12.7734 19.9609 12.8672 19.8672C12.9609 19.7734 13.0078 19.6484 13.0078 19.4922V18.5078C13.0078 18.3516 12.9609 18.2266 12.8672 18.1328C12.7734 18.0391 12.6484 17.9922 12.4922 17.9922H11.5078C11.3516 17.9922 11.2266 18.0391 11.1328 18.1328C11.0391 18.2266 10.9922 18.3516 10.9922 18.5078V19.4922C10.9922 19.6484 11.0391 19.7734 11.1328 19.8672C11.2266 19.9609 11.3516 20.0078 11.5078 20.0078H12.4922Z" />
</svg>
