<svg  viewBox="0 0 24 24"  xmlns="http://www.w3.org/2000/svg">
<path d="M21 12.0921V10.1335L21.6992 9.82959C21.8838 9.74951 22.0024 9.56641 22 9.36523C21.9976 9.16406 21.875 8.98389 21.6885 8.9082L12.1885 5.03711C12.0684 4.9873 11.9316 4.9873 11.8115 5.03711L2.31153 8.9082C2.12501 8.98389 2.00245 9.16406 2.00001 9.36523C1.99757 9.56641 2.11622 9.74951 2.30079 9.82959L6.0116 11.4424C6.00922 11.4622 6.00001 11.4796 6.00001 11.5V14.6816C6.00001 16.1846 8.67628 18 12 18C15.3237 18 18 16.1846 18 14.6816V11.5C18 11.4796 17.9908 11.4622 17.9884 11.4424L20 10.5681V12.0921C19.4193 12.2992 19 12.849 19 13.5C19 13.5552 19.0104 13.6076 19.0163 13.6613C19.0117 13.6887 19 13.7135 19 13.7422V16.96C19 17.2363 19.2236 17.46 19.5 17.46C19.7764 17.46 20 17.2363 20 16.96V14.9079C20.1572 14.9639 20.3239 15 20.5 15C20.6762 15 20.8428 14.9639 21 14.9079V15.98C21 16.2563 21.2236 16.48 21.5 16.48C21.7764 16.48 22 16.2563 22 15.98V13.7422C22 13.7135 21.9883 13.6887 21.9837 13.6613C21.9896 13.6076 22 13.5552 22 13.5C22 12.849 21.5808 12.2992 21 12.0921ZM17 14.6816C17 15.4751 14.8887 17 12 17C9.11133 17 7.00001 15.4751 7.00001 14.6816V11.8719L11.8008 13.9585C11.8643 13.9863 11.9321 14 12 14C12.0679 14 12.1357 13.9863 12.1992 13.9585L17 11.8719V14.6816ZM12 12.9546L3.78858 9.38574L12 6.04004L20.1911 9.37744C20.1743 9.39105 20.1552 9.40106 20.1403 9.41669L12 12.9546Z" "/>
</svg>
