<svg  viewBox="0 0 24 24"  xmlns="http://www.w3.org/2000/svg">
<path fill-rule="evenodd" clip-rule="evenodd" d="M5.49525 5.26537C5.72474 5.32598 5.95753 5.32952 6.19093 5.29925C6.68446 5.23504 7.06007 4.9942 7.29554 4.54955C7.44434 4.26788 7.50825 3.96307 7.54096 3.64929C7.56855 3.38403 7.58204 3.11974 7.51514 2.8579C7.51412 2.85302 7.51433 2.84778 7.51459 2.84167L7.51484 2.83209H8.28584L8.2729 2.94642C8.26655 3.0029 8.26019 3.05939 8.25373 3.11468C8.23492 3.27614 8.21593 3.43756 8.19694 3.59896C8.15111 3.98842 8.1053 4.37781 8.06202 4.76769C8.02692 5.08086 8.19135 5.27258 8.50697 5.28668C8.58761 5.29029 8.66867 5.28496 8.74975 5.27964C8.78926 5.27704 8.82894 5.27444 8.86842 5.27288C8.91163 5.27136 8.92963 5.25396 8.93476 5.20745C8.95713 4.99262 8.9818 4.77796 9.00648 4.56322L9.06138 4.08169C9.10647 3.68493 9.15164 3.28753 9.19514 2.89056C9.20087 2.83984 9.21766 2.82635 9.26807 2.82696C9.45872 2.82894 9.64921 2.82886 9.83979 2.82877L10.0598 2.82879C10.0703 2.82879 10.0807 2.82949 10.0916 2.83022L10.1068 2.83117C10.1068 2.83642 10.107 2.841 10.1071 2.84514C10.1074 2.85235 10.1076 2.85826 10.1068 2.86419C10.0862 3.04084 10.0654 3.21747 10.0445 3.3941L10.0444 3.39511C10.0005 3.76728 9.95662 4.13961 9.91456 4.51208L9.91177 4.5371C9.89757 4.66431 9.88318 4.79311 9.88966 4.92004C9.89954 5.09918 10.0153 5.22039 10.1899 5.26507C10.3463 5.30487 10.5041 5.29077 10.6619 5.27667L10.6879 5.27435C10.7362 5.26983 10.7534 5.25128 10.759 5.20208C10.8022 4.81449 10.8461 4.42698 10.8899 4.03947C10.9338 3.65185 10.9777 3.26354 11.0209 2.87585C11.0258 2.83538 11.0407 2.82696 11.0773 2.82757C11.1565 2.82871 11.2356 2.82851 11.3147 2.8283C11.358 2.82819 11.4012 2.82807 11.4445 2.82818C11.5798 2.82848 11.7109 2.81164 11.8384 2.72888C11.8245 2.76129 11.8108 2.79205 11.7976 2.82184C11.7734 2.8761 11.7506 2.92731 11.7305 2.97936C11.6309 3.24035 11.5924 3.51367 11.5693 3.79028C11.5507 4.01165 11.551 4.23156 11.605 4.44879C11.7028 4.84118 11.9365 5.11175 12.3229 5.24108C12.5687 5.32324 12.8222 5.33196 13.0772 5.302C13.6213 5.23834 14.0162 4.96478 14.2481 4.46496C14.3768 4.18713 14.4296 3.8908 14.4578 3.58837C14.4775 3.3739 14.4871 3.16027 14.4457 2.94726C14.3707 2.55816 14.1701 2.26446 13.7963 2.10668C13.5545 2.005 13.3001 1.9876 13.0421 2.00585C12.6931 2.03014 12.3764 2.13818 12.1154 2.38116C12.1003 2.39518 12.0869 2.41129 12.0735 2.42741C12.0671 2.43507 12.0607 2.44274 12.0541 2.45019C12.0505 2.4472 12.0463 2.4439 12.0424 2.44116C12.0761 2.32031 12.0988 2.19848 12.0938 2.07037L12.0802 2.0689C12.0733 2.06807 12.0675 2.06738 12.0617 2.06738L11.7084 2.06733C11.2492 2.06723 10.7898 2.06713 10.3306 2.06854C10.21 2.0689 10.0942 2.09643 9.98896 2.16033C9.83771 2.25219 9.75196 2.39526 9.68562 2.55309C9.67933 2.56772 9.67354 2.58255 9.66773 2.5974L9.66193 2.61218L9.65083 2.60888L9.72016 2.06707H9.65357C9.11963 2.06707 8.58547 2.06707 8.05122 2.06738L8.02381 2.06729C7.99017 2.06714 7.95635 2.06698 7.92286 2.0689C7.65705 2.08325 7.47553 2.21948 7.38703 2.46935C7.38466 2.47561 7.38201 2.48187 7.37903 2.48892L7.37147 2.50713L7.36012 2.49326C7.35412 2.48606 7.34912 2.48005 7.34473 2.47357C7.21607 2.28845 7.04267 2.16277 6.83204 2.08685C6.56354 1.98998 6.28724 1.98339 6.00825 2.01843C5.76191 2.04968 5.53242 2.13006 5.32966 2.27764C5.05604 2.47625 4.89222 2.75048 4.78876 3.06579C4.70142 3.33068 4.67115 3.60516 4.65162 3.88146C4.63844 4.07617 4.64771 4.26934 4.69691 4.45898C4.8064 4.88256 5.07136 5.15319 5.49525 5.26537ZM12.6223 3.13775C12.6688 3.02105 12.7327 2.91607 12.8356 2.83929C13.0153 2.70489 13.2938 2.72643 13.4296 2.88726C13.5029 2.97399 13.5394 3.07897 13.5446 3.18969C13.561 3.5581 13.5299 3.92077 13.3688 4.25945C13.2958 4.41277 13.1782 4.52166 13.0028 4.54894C12.7346 4.59069 12.5425 4.45239 12.4967 4.18298C12.4879 4.13205 12.4841 4.08031 12.481 4.03741C12.4798 4.02118 12.4787 4.00621 12.4774 3.99304C12.4963 3.68676 12.5153 3.40478 12.6223 3.13775ZM5.72266 3.11224C5.77991 2.97094 5.86726 2.85009 6.01484 2.78857C6.28931 2.67425 6.55036 2.80596 6.61695 3.09545C6.63056 3.1532 6.63574 3.21276 6.63985 3.26006C6.64152 3.27934 6.64302 3.2966 6.64484 3.31085C6.62745 3.60638 6.60792 3.86614 6.52155 4.11486C6.47504 4.24835 6.41114 4.37164 6.29621 4.46166C6.09943 4.61559 5.78712 4.5769 5.66114 4.38244C5.60505 4.29638 5.57655 4.19915 5.57417 4.09869C5.56483 3.76147 5.59394 3.42846 5.72266 3.11224Z" "/>
<path d="M12.6746 9.49902C12.6746 9.8442 12.3948 10.124 12.0496 10.124C11.7044 10.124 11.4246 9.8442 11.4246 9.49902C11.4246 9.15385 11.7044 8.87402 12.0496 8.87402C12.3948 8.87402 12.6746 9.15385 12.6746 9.49902Z" "/>
<path d="M9.54962 10.124C9.8948 10.124 10.1746 9.8442 10.1746 9.49902C10.1746 9.15385 9.8948 8.87402 9.54962 8.87402C9.20444 8.87402 8.92462 9.15385 8.92462 9.49902C8.92462 9.8442 9.20444 10.124 9.54962 10.124Z" "/>
<path d="M7.67462 9.49902C7.67462 9.8442 7.3948 10.124 7.04962 10.124C6.70444 10.124 6.42462 9.8442 6.42462 9.49902C6.42462 9.15385 6.70444 8.87402 7.04962 8.87402C7.3948 8.87402 7.67462 9.15385 7.67462 9.49902Z" "/>
<path d="M12.0496 12.124C12.3948 12.124 12.6746 11.8442 12.6746 11.499C12.6746 11.1538 12.3948 10.874 12.0496 10.874C11.7044 10.874 11.4246 11.1538 11.4246 11.499C11.4246 11.8442 11.7044 12.124 12.0496 12.124Z" "/>
<path d="M10.1746 11.499C10.1746 11.8442 9.8948 12.124 9.54962 12.124C9.20444 12.124 8.92462 11.8442 8.92462 11.499C8.92462 11.1538 9.20444 10.874 9.54962 10.874C9.8948 10.874 10.1746 11.1538 10.1746 11.499Z" "/>
<path d="M7.04962 12.124C7.3948 12.124 7.67462 11.8442 7.67462 11.499C7.67462 11.1538 7.3948 10.874 7.04962 10.874C6.70444 10.874 6.42462 11.1538 6.42462 11.499C6.42462 11.8442 6.70444 12.124 7.04962 12.124Z" "/>
<path d="M12.6746 13.499C12.6746 13.8442 12.3948 14.124 12.0496 14.124C11.7044 14.124 11.4246 13.8442 11.4246 13.499C11.4246 13.1538 11.7044 12.874 12.0496 12.874C12.3948 12.874 12.6746 13.1538 12.6746 13.499Z" "/>
<path d="M9.54962 14.124C9.8948 14.124 10.1746 13.8442 10.1746 13.499C10.1746 13.1538 9.8948 12.874 9.54962 12.874C9.20444 12.874 8.92462 13.1538 8.92462 13.499C8.92462 13.8442 9.20444 14.124 9.54962 14.124Z" "/>
<path d="M7.67462 13.499C7.67462 13.8442 7.3948 14.124 7.04962 14.124C6.70444 14.124 6.42462 13.8442 6.42462 13.499C6.42462 13.1538 6.70444 12.874 7.04962 12.874C7.3948 12.874 7.67462 13.1538 7.67462 13.499Z" "/>
<path d="M12.0496 16.124C12.3948 16.124 12.6746 15.8442 12.6746 15.499C12.6746 15.1538 12.3948 14.874 12.0496 14.874C11.7044 14.874 11.4246 15.1538 11.4246 15.499C11.4246 15.8442 11.7044 16.124 12.0496 16.124Z" "/>
<path d="M9.54962 16.124C9.8948 16.124 10.1746 15.8442 10.1746 15.499C10.1746 15.1538 9.8948 14.874 9.54962 14.874C9.20444 14.874 8.92462 15.1538 8.92462 15.499C8.92462 15.8442 9.20444 16.124 9.54962 16.124Z" "/>
<path d="M7.67462 15.499C7.67462 15.8442 7.3948 16.124 7.04962 16.124C6.70444 16.124 6.42462 15.8442 6.42462 15.499C6.42462 15.1538 6.70444 14.874 7.04962 14.874C7.3948 14.874 7.67462 15.1538 7.67462 15.499Z" "/>
<path d="M17.6746 14.499C17.6746 14.8442 17.3948 15.124 17.0496 15.124C16.7044 15.124 16.4246 14.8442 16.4246 14.499C16.4246 14.1538 16.7044 13.874 17.0496 13.874C17.3948 13.874 17.6746 14.1538 17.6746 14.499Z" "/>
<path d="M17.0496 17.124C17.3948 17.124 17.6746 16.8442 17.6746 16.499C17.6746 16.1538 17.3948 15.874 17.0496 15.874C16.7044 15.874 16.4246 16.1538 16.4246 16.499C16.4246 16.8442 16.7044 17.124 17.0496 17.124Z" "/>
<path d="M17.6746 18.499C17.6746 18.8442 17.3948 19.124 17.0496 19.124C16.7044 19.124 16.4246 18.8442 16.4246 18.499C16.4246 18.1538 16.7044 17.874 17.0496 17.874C17.3948 17.874 17.6746 18.1538 17.6746 18.499Z" "/>
<path fill-rule="evenodd" clip-rule="evenodd" d="M21.5498 20.999H20.0054V11.4971C20.0054 11.2207 19.7817 10.9971 19.5054 10.9971H15.0054V6.49707C15.0054 6.2207 14.7817 5.99707 14.5054 5.99707H4.5498C4.27344 5.99707 4.0498 6.2207 4.0498 6.49707V20.999H2.5498C2.27344 20.999 2.0498 21.2227 2.0498 21.499C2.0498 21.7754 2.27344 21.999 2.5498 21.999H4.5401C4.54178 21.9991 4.54333 21.9995 4.54488 22C4.54648 22.0005 4.54807 22.001 4.5498 22.001C4.55154 22.001 4.55313 22.0005 4.55473 22C4.55628 21.9995 4.55783 21.9991 4.55951 21.999H21.5498C21.8262 21.999 22.0498 21.7754 22.0498 21.499C22.0498 21.2227 21.8262 20.999 21.5498 20.999ZM11.0498 20.999H8.0498V18.999H11.0498V20.999ZM14.0054 20.999H12.0498V18.499C12.0498 18.2227 11.8262 17.999 11.5498 17.999H7.5498C7.27344 17.999 7.0498 18.2227 7.0498 18.499V20.999H5.0498V6.99707H14.0054V20.999ZM19.0054 20.999H15.0054V11.9971H19.0054V20.999Z" "/>
</svg>
