<svg  viewBox="0 0 24 24"  xmlns="http://www.w3.org/2000/svg">
<path d="M12.499 9C12.2227 9 11.999 9.22363 11.999 9.5V14.5C11.999 14.7764 12.2227 15 12.499 15C12.7754 15 12.999 14.7764 12.999 14.5V9.5C12.999 9.22363 12.7754 9 12.499 9Z" />
<path d="M13.25 6.99902C13.25 7.41324 12.9142 7.74902 12.5 7.74902C12.0858 7.74902 11.75 7.41324 11.75 6.99902C11.75 6.58481 12.0858 6.24902 12.5 6.24902C12.9142 6.24902 13.25 6.58481 13.25 6.99902Z" />
<path fill-rule="evenodd" clip-rule="evenodd" d="M20.5 3H4.49414C4.21777 3 3.99414 3.22363 3.99414 3.5V17.5C3.99414 17.7764 4.21777 18 4.49414 18H7.00195V20.5C7.00195 20.6895 7.10938 20.8623 7.27832 20.9473C7.34863 20.9824 7.42578 21 7.50195 21C7.6084 21 7.71387 20.9663 7.80176 20.8999L11.6689 18H20.5C20.7764 18 21 17.7764 21 17.5V3.5C21 3.22363 20.7764 3 20.5 3ZM20 17H11.502C11.3936 17 11.2881 17.0352 11.2021 17.1001L8.00195 19.5V17.5C8.00195 17.2236 7.77832 17 7.50195 17H4.99414V4H20V17Z" />
</svg>
