<svg  viewBox="0 0 24 24"  xmlns="http://www.w3.org/2000/svg">
<path fill-rule="evenodd" clip-rule="evenodd" d="M7.49902 15C6.67188 15 5.99902 15.6729 5.99902 16.5C5.99902 17.3271 6.67188 18 7.49902 18C8.32617 18 8.99902 17.3271 8.99902 16.5C8.99902 15.6729 8.32617 15 7.49902 15ZM7.49902 17C7.22363 17 6.99902 16.7759 6.99902 16.5C6.99902 16.2241 7.22363 16 7.49902 16C7.77441 16 7.99902 16.2241 7.99902 16.5C7.99902 16.7759 7.77441 17 7.49902 17Z" "/>
<path fill-rule="evenodd" clip-rule="evenodd" d="M16.499 15C17.3262 15 17.999 15.6729 17.999 16.5C17.999 17.3271 17.3262 18 16.499 18C15.6719 18 14.999 17.3271 14.999 16.5C14.999 15.6729 15.6719 15 16.499 15ZM16.499 16C16.2236 16 15.999 16.2241 15.999 16.5C15.999 16.7759 16.2236 17 16.499 17C16.7744 17 16.999 16.7759 16.999 16.5C16.999 16.2241 16.7744 16 16.499 16Z" "/>
<path fill-rule="evenodd" clip-rule="evenodd" d="M21 7H20V4.5C20 3.69189 19.3574 3.03076 18.5566 3.00098C18.1777 2.92432 15.7529 2.46436 12 2.46436C8.27734 2.46436 5.82324 2.92529 5.44434 3.00098C4.64258 3.03027 4 3.69141 4 4.5V7H3C2.72363 7 2.5 7.22363 2.5 7.5V10.5C2.5 10.7764 2.72363 11 3 11H4V18.5C4 19.151 4.41925 19.7008 5 19.9079V21.5C5 21.7764 5.22363 22 5.5 22H7.5C7.77637 22 8 21.7764 8 21.5V20H16V21.5C16 21.7764 16.2236 22 16.5 22H18.5C18.7764 22 19 21.7764 19 21.5V19.9079C19.5807 19.7008 20 19.151 20 18.5V11H21C21.2764 11 21.5 10.7764 21.5 10.5V7.5C21.5 7.22363 21.2764 7 21 7ZM18.5 19H5.5C5.22461 19 5 18.7759 5 18.5V13.6099C5.26599 13.8497 5.61444 14 6 14H18C18.3856 14 18.734 13.8497 19 13.6099V18.5C19 18.7759 18.7754 19 18.5 19ZM12 3.46436C15.8423 3.46436 18.308 3.97081 18.3934 3.98834L18.3955 3.98877C18.4297 3.99609 18.4648 4 18.5 4C18.7754 4 19 4.22412 19 4.5V5.39014C18.734 5.15027 18.3856 5 18 5H6C5.61444 5 5.26599 5.15027 5 5.39014V4.5C5 4.22412 5.22461 4 5.5 4C5.53516 4 5.56934 3.99658 5.60352 3.98926C5.62793 3.98389 8.13281 3.46436 12 3.46436ZM5.5 6.5C5.5 6.22412 5.72461 6 6 6H18C18.2754 6 18.5 6.22412 18.5 6.5V12.5C18.5 12.7759 18.2754 13 18 13H6C5.72461 13 5.5 12.7759 5.5 12.5V6.5ZM3.5 10V8H4V10H3.5ZM7 21H6V20H7V21ZM17 21V20H18V21H17ZM20.5 10H20V8H20.5V10Z" "/>
</svg>
