<svg  viewBox="0 0 24 24"  xmlns="http://www.w3.org/2000/svg">
<path d="M14.0088 9.5C14.0088 9.77637 14.2324 10 14.5088 10H15.2032C15.571 11.2736 16.4487 12 17.7051 12C18.3008 12 18.9033 11.709 19.3154 11.2212C19.4941 11.0103 19.4678 10.6948 19.2568 10.5166C19.0449 10.3389 18.7314 10.3643 18.5518 10.5757C18.3271 10.8413 18.0107 11 17.7051 11C16.9209 11 16.4971 10.5546 16.2665 10H17.1797C17.4561 10 17.6797 9.77637 17.6797 9.5C17.6797 9.22363 17.4561 9 17.1797 9H16.0349C16.0187 8.82385 16.0088 8.65259 16.0088 8.50049C16.0088 8.34808 16.0188 8.17651 16.0351 8H17.835C18.1113 8 18.335 7.77637 18.335 7.5C18.335 7.22363 18.1113 7 17.835 7H16.2681C16.4999 6.44537 16.9261 6 17.7148 6C18.0498 6 18.4238 6.24121 18.6299 6.46533C18.8184 6.66943 19.1338 6.68213 19.3359 6.49512C19.54 6.30811 19.5527 5.9917 19.3662 5.78857C19.0156 5.40723 18.3975 5 17.7148 5C16.478 5 15.5909 5.73969 15.2131 7H14.5088C14.2324 7 14.0088 7.22363 14.0088 7.5C14.0088 7.77637 14.2324 8 14.5088 8H15.0399C15.0264 8.16431 15.0088 8.32513 15.0088 8.50049C15.0088 8.67603 15.0259 8.836 15.0387 9H14.5088C14.2324 9 14.0088 9.22363 14.0088 9.5ZM21.5 3H4.5C4.22363 3 4 3.22363 4 3.5V11.2609C2.77936 12.2704 2 13.7959 2 15.5C2 18.5327 4.46777 21 7.5 21C10.5322 21 13 18.5327 13 15.5C13 14.9795 12.9225 14.4776 12.7867 14H21.5C21.7764 14 22 13.7764 22 13.5V3.5C22 3.22363 21.7764 3 21.5 3ZM5 4H8V10.0253C7.83508 10.0104 7.66876 10 7.5 10C6.59943 10 5.7511 10.2218 5 10.6072V4ZM7.5 20C5.01855 20 3 17.9814 3 15.5C3 13.0186 5.01855 11 7.5 11C9.98145 11 12 13.0186 12 15.5C12 17.9814 9.98145 20 7.5 20ZM21 13H12.3928C11.7031 11.6561 10.4785 10.6335 9 10.2133V4H21V13ZM9.5 15H8V13.5C8 13.2236 7.77637 13 7.5 13C7.22363 13 7 13.2236 7 13.5V15H5.5C5.22363 15 5 15.2236 5 15.5C5 15.7764 5.22363 16 5.5 16H7V17.5C7 17.7764 7.22363 18 7.5 18C7.77637 18 8 17.7764 8 17.5V16H9.5C9.77637 16 10 15.7764 10 15.5C10 15.2236 9.77637 15 9.5 15Z" "/>
</svg>
