<svg width="24" height="24" viewBox="0 0 24 24"  xmlns="http://www.w3.org/2000/svg">
<path d="M21.5 4H2.5C2.36739 4 2.24021 4.05268 2.14645 4.14645C2.05268 4.24021 2 4.36739 2 4.5V16.511C2 16.6436 2.05268 16.7708 2.14645 16.8646C2.24021 16.9583 2.36739 17.011 2.5 17.011H9.492C9.452 17.654 9.269 18.157 8.928 18.492C8.418 18.995 7.712 19 7.683 19H6.5C6.36739 19 6.24021 19.0527 6.14645 19.1464C6.05268 19.2402 6 19.3674 6 19.5C6 19.6326 6.05268 19.7598 6.14645 19.8536C6.24021 19.9473 6.36739 20 6.5 20H17.5C17.6326 20 17.7598 19.9473 17.8536 19.8536C17.9473 19.7598 18 19.6326 18 19.5C18 19.3674 17.9473 19.2402 17.8536 19.1464C17.7598 19.0527 17.6326 19 17.5 19H16.39C16.385 18.994 15.661 19.004 15.142 18.492C14.801 18.157 14.617 17.654 14.577 17.012H21.5C21.6326 17.012 21.7598 16.9593 21.8536 16.8656C21.9473 16.7718 22 16.6446 22 16.512V4.5C22 4.36739 21.9473 4.24021 21.8536 4.14645C21.7598 4.05268 21.6326 4 21.5 4ZM12 8C12.1326 8 12.2598 7.94732 12.3536 7.85355C12.4473 7.75979 12.5 7.63261 12.5 7.5V7.05C13.2438 7.15845 13.9328 7.50416 14.4643 8.03569C14.9958 8.56722 15.3416 9.25616 15.45 10H14.5C14.3674 10 14.2402 10.0527 14.1464 10.1464C14.0527 10.2402 14 10.3674 14 10.5C14 10.6326 14.0527 10.7598 14.1464 10.8536C14.2402 10.9473 14.3674 11 14.5 11H15.45C15.3416 11.7438 14.9958 12.4328 14.4643 12.9643C13.9328 13.4958 13.2438 13.8416 12.5 13.95V13.5C12.5 13.3674 12.4473 13.2402 12.3536 13.1464C12.2598 13.0527 12.1326 13 12 13C11.8674 13 11.7402 13.0527 11.6464 13.1464C11.5527 13.2402 11.5 13.3674 11.5 13.5V13.95C10.7562 13.8416 10.0672 13.4958 9.53569 12.9643C9.00416 12.4328 8.65845 11.7438 8.55 11H9.5C9.63261 11 9.75979 10.9473 9.85355 10.8536C9.94732 10.7598 10 10.6326 10 10.5C10 10.3674 9.94732 10.2402 9.85355 10.1464C9.75979 10.0527 9.63261 10 9.5 10H8.55C8.65845 9.25616 9.00416 8.56722 9.53569 8.03569C10.0672 7.50416 10.7562 7.15845 11.5 7.05V7.5C11.5 7.63261 11.5527 7.75979 11.6464 7.85355C11.7402 7.94732 11.8674 8 12 8ZM3 16.011V5H11.5V6.05C10.4915 6.16367 9.55157 6.61637 8.83397 7.33397C8.11637 8.05157 7.66367 8.99155 7.55 10H6.5C6.36739 10 6.24021 10.0527 6.14645 10.1464C6.05268 10.2402 6 10.3674 6 10.5C6 10.6326 6.05268 10.7598 6.14645 10.8536C6.24021 10.9473 6.36739 11 6.5 11H7.55C7.66367 12.0085 8.11637 12.9484 8.83397 13.666C9.55157 14.3836 10.4915 14.8363 11.5 14.95V16.011H3ZM9.794 19C10.215 18.493 10.45 17.828 10.491 17.011H13.579C13.619 17.828 13.854 18.493 14.275 19H9.794ZM21 16.011H12.5V14.95C13.5085 14.8363 14.4484 14.3836 15.166 13.666C15.8836 12.9484 16.3363 12.0085 16.45 11H17.5C17.6326 11 17.7598 10.9473 17.8536 10.8536C17.9473 10.7598 18 10.6326 18 10.5C18 10.3674 17.9473 10.2402 17.8536 10.1464C17.7598 10.0527 17.6326 10 17.5 10H16.45C16.3363 8.99155 15.8836 8.05157 15.166 7.33397C14.4484 6.61637 13.5085 6.16367 12.5 6.05V5H21V16.011Z"/>
</svg>
