<svg  viewBox="0 0 24 24"  xmlns="http://www.w3.org/2000/svg">
<path d="M20.7724 10.1033L20.0002 9.44898L20.002 4.49854C20.002 4.36621 19.9492 4.23877 19.8555 4.14502C19.7617 4.05127 19.6348 3.99854 19.502 3.99854H15.1168L13.2876 2.45605C12.5747 1.84522 11.459 1.84668 10.75 2.45264L8.90492 3.99854H4.49465C4.21828 3.99854 3.99465 4.22217 3.99465 4.49854V9.41522L3.16799 10.1372C3.16213 10.1423 3.15975 10.1501 3.15413 10.1555C3.14083 10.1683 3.13271 10.1851 3.12087 10.1993C3.08998 10.2365 3.06026 10.2734 3.04134 10.3174C3.03914 10.3224 3.03932 10.3284 3.03731 10.3336C3.01723 10.3848 2.99977 10.4376 2.99758 10.4937C2.99727 10.5009 3.00099 10.5074 3.00099 10.5146V21.498C3.00099 21.7744 3.22463 21.998 3.50099 21.998H20.5029C20.7793 21.998 21.0029 21.7744 21.0029 21.498V10.5137C21.0029 10.3389 20.9081 10.1926 20.7724 10.1033ZM11.3965 3.21582C11.7276 2.93311 12.3071 2.93262 12.6402 3.21826L13.5655 3.99854H10.4624L11.3965 3.21582ZM4.99465 4.99854H19.002L18.9996 11.1335C17.5426 12.4185 15.1428 14.574 13.7758 15.8042L13.397 15.5186C13.0069 15.1865 12.5103 15.0039 11.9981 15.0039C11.3911 15.0039 10.9219 15.292 10.5464 15.5713C10.4821 15.6183 10.359 15.7085 10.2114 15.8167C8.52242 14.3324 6.32295 12.3931 4.99465 11.2047V4.99854ZM4.00099 11.6561C5.34981 12.8695 7.8962 15.1124 9.38674 16.4219C7.87593 17.5324 5.34474 19.402 4.00099 20.4468V11.6561ZM4.92171 20.998C6.44167 19.8334 9.22982 17.773 11.1397 16.3765C11.7193 15.9463 12.2886 15.8892 12.772 16.2988L19.004 20.998H4.92171ZM20.0029 20.4991L14.5892 16.4174C16.3068 14.8722 18.7461 12.6847 20.0029 11.5821V20.4991ZM15 13.5V9.5C15 9.22363 14.7764 9 14.5 9H11.0002C11.0004 8.56781 11.001 7.75934 11.001 7.71289C11.0293 7.31982 11.4785 7.00049 12.0025 7.00049C12.4859 7.00049 13 7.18604 13 7.5293C13 7.80566 13.2237 8.0293 13.5 8.0293C13.7764 8.0293 14 7.80566 14 7.5293C14 6.64356 13.1597 6.00049 12.0025 6.00049C10.9473 6.00049 10.0694 6.72119 10.0034 7.64795C10.0023 7.66687 10.0009 8.54443 10.0003 9H9.50002C9.22365 9 9.00002 9.22363 9.00002 9.5V13.5C9.00002 13.7764 9.22365 14 9.50002 14H14.5C14.7764 14 15 13.7764 15 13.5ZM14 13H10V10H14V13Z" />
</svg>
