<svg  viewBox="0 0 24 24"  xmlns="http://www.w3.org/2000/svg">
<path d="M6.498 20.5823C6.79934 20.5823 7.04362 20.3349 7.04362 20.0297C7.04362 19.7245 6.79934 19.4771 6.498 19.4771C6.19666 19.4771 5.95238 19.7245 5.95238 20.0297C5.95238 20.3349 6.19666 20.5823 6.498 20.5823Z" "/>
<path fill-rule="evenodd" clip-rule="evenodd" d="M4.5 17C4.22363 17 4 16.7764 4 16.5V14.5C4 14.2236 4.22363 14 4.5 14H8.5C8.77637 14 9 14.2236 9 14.5V16.5C9 16.7764 8.77637 17 8.5 17H4.5ZM8 15H5V16H8V15Z" "/>
<path fill-rule="evenodd" clip-rule="evenodd" d="M22.002 2.5C22.002 2.22363 21.7783 2 21.502 2H4.50195C4.22559 2 4.00195 2.22363 4.00195 2.5V7H3.71436C2.76953 7 2.00098 7.78662 2.00098 8.75391V20.3013C2.00098 21.2539 2.75342 22 3.71436 22H9.28809C10.2485 22 11.001 21.2539 11.001 20.3013V17H14.4208C14.6655 19.3532 14.6807 19.4183 14.6885 19.4478C14.7349 19.627 14.8799 19.77 15.0591 19.8135C15.3628 19.8872 15.439 19.9057 16.8979 18.2832L18.2959 20.7759C18.3628 20.8955 18.4766 20.9824 18.6099 21.0161C18.6499 21.0264 18.6909 21.0312 18.7319 21.0312C18.8262 21.0312 18.9189 21.0049 19 20.9531L20.9312 19.7271C21.1636 19.5796 21.2329 19.272 21.0864 19.0391L19.5586 16.6084L21.5654 16.1582C21.7573 16.1152 21.9062 15.9639 21.9458 15.7715C21.9854 15.5786 21.9087 15.3809 21.7495 15.2656L20.0021 14H21.502C21.7783 14 22.002 13.7764 22.002 13.5V2.5ZM10.001 20.3013C10.001 20.6929 9.68799 21 9.28809 21H3.71436C3.31445 21 3.00098 20.6929 3.00098 20.3013V19H10.001V20.3013ZM10.001 18H3.00098V10H10.001V18ZM10.001 9H3.00098V8.75391C3.00098 8.34521 3.32764 8 3.71436 8H9.28809C9.68115 8 10.001 8.32617 10.001 8.72656V9ZM14.3173 16H11.001V14H14.1118C14.1907 14.7704 14.2588 15.434 14.3173 16ZM20.2651 15.4253L18.6494 15.7876C18.4907 15.8232 18.3594 15.9331 18.2974 16.083C18.2349 16.2329 18.249 16.4038 18.3354 16.5415L19.9751 19.1499L18.9097 19.8262L17.4277 17.1836C17.3486 17.0425 17.2065 16.9487 17.0459 16.9312C17.0278 16.9292 17.0098 16.9282 16.9917 16.9282C16.8501 16.9282 16.7139 16.9888 16.6182 17.0957C16.2681 17.4888 15.8784 17.917 15.5581 18.2598C15.4023 16.7842 15.1089 13.9229 14.8633 11.5127L20.2651 15.4253ZM21.002 13H18.6215L17.2396 11.999H19.5C19.7754 11.999 19.999 11.7754 19.999 11.5V4.5C19.999 4.22461 19.7754 4.00098 19.5 4.00098H16.5C16.2246 4.00098 16.001 4.22461 16.001 4.5V11.1019L14.5464 10.0483C14.3853 9.93115 14.1733 9.92139 14.0034 10.02C13.8325 10.1182 13.7354 10.3076 13.7554 10.5039C13.8502 11.4368 13.9332 12.2524 14.0096 13H11.001V8.72656C11.001 7.77441 10.2324 7 9.28809 7H5.00195V3H21.002V13ZM16.999 4.99902H19.001V11.001H16.999V4.99902Z" "/>
</svg>
