<svg  viewBox="0 0 24 24"  xmlns="http://www.w3.org/2000/svg">
<path fill-rule="evenodd" clip-rule="evenodd" d="M15.0732 10.5459C14.9008 10.6575 14.7239 10.68 14.5418 10.68C14.4758 10.6797 14.4098 10.6799 14.3438 10.6801C14.2447 10.6803 14.1455 10.6806 14.046 10.6793C13.9965 10.6785 13.9763 10.6898 13.9703 10.7445C13.9182 11.2095 13.8657 11.6746 13.8131 12.1396C13.7473 12.7208 13.6816 13.302 13.617 13.8833C13.6095 13.95 13.5863 13.9748 13.521 13.9808L13.4917 13.9834C13.2771 14.0029 13.0621 14.0225 12.8498 13.968C12.6143 13.908 12.4575 13.7445 12.4448 13.5023C12.4356 13.3307 12.455 13.1566 12.4742 12.9841L12.4778 12.9518C12.5396 12.4059 12.6038 11.8608 12.6681 11.3154L12.7373 10.728C12.7382 10.7199 12.7379 10.7121 12.7376 10.7026C12.7375 10.697 12.7373 10.6909 12.7373 10.6838L12.7185 10.6824C12.7029 10.6812 12.688 10.68 12.6735 10.68L12.436 10.6802C12.1592 10.6804 11.8826 10.6807 11.6055 10.6778C11.5373 10.677 11.5148 10.695 11.5073 10.7633C11.4568 11.2233 11.4045 11.6831 11.3522 12.1429L11.2875 12.7133C11.274 12.8325 11.2604 12.9518 11.2467 13.071C11.2155 13.3435 11.1842 13.6165 11.1555 13.8893C11.1488 13.9523 11.124 13.9755 11.0663 13.9778C11.014 13.9799 10.9618 13.9834 10.9096 13.9869C10.7991 13.9942 10.6887 14.0016 10.5788 13.9965C10.1528 13.977 9.9315 13.719 9.978 13.296C10.033 12.8 10.0913 12.3047 10.1497 11.8094C10.1788 11.5617 10.208 11.314 10.2368 11.0663L10.2795 10.6845H9.24C9.24 10.6896 9.23971 10.6942 9.23945 10.6985C9.23897 10.7062 9.23856 10.7127 9.24 10.719C9.33 11.0723 9.312 11.4293 9.2745 11.787C9.23025 12.21 9.144 12.6218 8.943 13.002C8.625 13.602 8.11875 13.9268 7.45275 14.0138C7.13775 14.055 6.8235 14.0498 6.51375 13.968C5.9415 13.8165 5.5845 13.4513 5.43675 12.8798C5.37462 12.625 5.35411 12.3618 5.376 12.1005C5.40225 11.7278 5.4435 11.3573 5.5605 10.9995C5.7 10.5743 5.92125 10.2045 6.29025 9.936C6.56061 9.74314 6.87589 9.62281 7.206 9.5865C7.5825 9.53925 7.95525 9.54825 8.3175 9.67875C8.60175 9.7815 8.83575 9.951 9.00975 10.2008C9.0195 10.2143 9.03 10.227 9.04575 10.2458L9.05051 10.2347C9.05719 10.2192 9.06247 10.207 9.06675 10.1948C9.186 9.85725 9.43125 9.6735 9.78975 9.654C9.83785 9.6515 9.88595 9.65161 9.93448 9.65171L9.96375 9.65175H12.216L12.1223 10.3823L12.1373 10.3868L12.1695 10.3065C12.2588 10.0935 12.3743 9.90075 12.579 9.77625C12.7181 9.69329 12.8775 9.65045 13.0395 9.6525C13.6623 9.6507 14.2851 9.65082 14.9079 9.65094L15.375 9.651C15.3828 9.651 15.3902 9.65183 15.3991 9.65282C15.4048 9.65346 15.4112 9.65417 15.4185 9.65475C15.4253 9.82725 15.3945 9.99225 15.3495 10.155L15.3653 10.167C15.3742 10.1569 15.3828 10.1465 15.3913 10.1362C15.4094 10.1145 15.4274 10.0928 15.4478 10.074C15.8003 9.74625 16.227 9.60075 16.698 9.56775C17.046 9.543 17.3895 9.567 17.715 9.70425C18.2198 9.9165 18.4905 10.3133 18.5918 10.8383C18.6473 11.1255 18.6345 11.4143 18.6075 11.7038C18.5693 12.1118 18.498 12.5115 18.3248 12.8865C18.012 13.5608 17.4795 13.9305 16.7453 14.016C16.401 14.0565 16.059 14.0445 15.7275 13.9335C15.2063 13.7588 14.8905 13.3935 14.7593 12.8648C14.6865 12.5715 14.6858 12.2745 14.7113 11.976C14.7428 11.6033 14.7945 11.2343 14.9288 10.8818C14.9563 10.8103 14.9875 10.7402 15.0207 10.6654C15.0377 10.6271 15.0553 10.5874 15.0732 10.5459ZM15.9406 12.3085C15.939 12.2876 15.9376 12.2683 15.936 12.2513L15.9353 12.252C15.9608 11.8388 15.987 11.4578 16.131 11.0978C16.194 10.9403 16.2803 10.7985 16.419 10.695C16.662 10.5135 17.037 10.542 17.2208 10.7595C17.3168 10.8743 17.3714 11.0179 17.376 11.1675C17.3985 11.6648 17.3565 12.1538 17.139 12.6105C17.0408 12.8175 16.8825 12.9645 16.6455 13.0013C16.2833 13.0575 16.0245 12.8708 15.9623 12.507C15.9501 12.4375 15.9449 12.3667 15.9406 12.3085ZM8.06625 11.331C8.06391 11.3123 8.06194 11.2897 8.05972 11.2643C8.05413 11.2003 8.04702 11.119 8.02875 11.04C7.938 10.6493 7.587 10.4723 7.2165 10.626C7.017 10.7093 6.9 10.872 6.822 11.0625C6.64875 11.4893 6.609 11.9385 6.62175 12.3938C6.62473 12.5299 6.66549 12.6626 6.7395 12.777C6.90975 13.0395 7.3305 13.0913 7.59675 12.8835C7.752 12.762 7.83825 12.5963 7.9005 12.4155C8.01675 12.0795 8.04375 11.7293 8.067 11.3303L8.06625 11.331Z" "/>
<path fill-rule="evenodd" clip-rule="evenodd" d="M19.7385 21H4.26225C3.56576 20.9992 3.00124 20.435 3 19.7385V4.26225C3 3.56625 3.56625 3 4.26225 3H19.7385C20.4338 3 21 3.56625 21 4.26225V19.7385C21 20.4338 20.4338 21 19.7385 21ZM4.26225 3.99975C4.11728 3.99975 3.99975 4.11728 3.99975 4.26225V19.7385C4.00016 19.8832 4.11757 20.0003 4.26225 20.0003H19.7385C19.8831 20.0003 20.0003 19.8831 20.0003 19.7385V4.26225C20.0003 4.11757 19.8832 4.00016 19.7385 3.99975H4.26225Z" "/>
</svg>
