<svg  viewBox="0 0 24 24"  xmlns="http://www.w3.org/2000/svg">
<path d="M14.4298 3.99509H18.6367C20.4951 3.99509 22.0068 5.4531 22.0068 7.24509C22.0068 9.06736 20.583 10.4951 18.7646 10.4951C18.4883 10.4951 18.2646 10.2715 18.2646 9.99509C18.2646 9.71872 18.4883 9.49509 18.7646 9.49509C20.043 9.49509 21.0068 8.52732 21.0068 7.24509C21.0068 6.00486 19.9434 4.99509 18.6367 4.99509H14.4205L15.8164 6.10935C16.0322 6.28122 16.0684 6.59568 15.8955 6.8115C15.7969 6.93552 15.6514 6.99997 15.5049 6.99997C15.3955 6.99997 15.2852 6.96384 15.1934 6.8906L12.6836 4.88767C12.5645 4.79294 12.4951 4.64939 12.4951 4.49704C12.4951 4.3447 12.5645 4.20017 12.6836 4.10544L15.1934 2.10837C15.4092 1.93747 15.7246 1.97165 15.8965 2.18845C16.0684 2.40427 16.0322 2.7197 15.8164 2.89158L14.4298 3.99509Z" "/>
<path fill-rule="evenodd" clip-rule="evenodd" d="M18.9421 12.2532C18.9484 12.261 18.9548 12.2687 18.959 12.2783C18.9867 12.3426 18.9995 12.4095 18.9996 12.4753C18.9995 12.4751 18.9996 12.4755 18.9996 12.4753C18.9997 12.4755 19 12.4763 19 12.4765V18.4765C19 18.6758 18.8818 18.8555 18.6992 18.9346L11.6992 21.9805C11.6357 22.0088 11.5684 22.0224 11.5 22.0224C11.4297 22.0224 11.3604 22.0078 11.2949 21.9785L2.29492 17.9326C2.11523 17.8515 2 17.6738 2 17.4765V11.4765C2 11.4758 2.00031 11.4752 2.00061 11.4745C2.00092 11.4738 2.00122 11.4732 2.00122 11.4725C2.00177 11.4054 2.01465 11.3376 2.04395 11.2724C2.04801 11.2634 2.05408 11.2562 2.06017 11.249C2.06496 11.2433 2.06976 11.2376 2.07361 11.2309C2.08406 11.2127 2.0956 11.198 2.10823 11.1819C2.10992 11.1797 2.11162 11.1775 2.11334 11.1753C2.16016 11.1153 2.2157 11.0671 2.28168 11.0342C2.28577 11.0322 2.28877 11.0289 2.29177 11.0256C2.29498 11.0221 2.29819 11.0185 2.30273 11.0166L9.30273 8.01658C9.43164 7.96287 9.57617 7.96385 9.70312 8.01951L18.7031 12.0195C18.708 12.0217 18.7115 12.0255 18.7149 12.0294C18.7181 12.0329 18.7213 12.0365 18.7256 12.0387C18.7897 12.072 18.8437 12.1194 18.8892 12.1783L18.8923 12.1825C18.9055 12.1996 18.9175 12.2152 18.9283 12.2344C18.9322 12.2413 18.9372 12.2473 18.9421 12.2532ZM17.254 12.4702L9.49609 9.02244L7.55646 9.85374L14.9985 13.4445L17.254 12.4702ZM3 17.1533L11 20.7495V15.8238L3 12.2474V17.1533ZM3.74677 11.4866L11.5039 14.9541L13.7852 13.9686L6.33862 10.3757L3.74677 11.4866ZM12 20.7593L18 18.1484V13.2371L15.2711 14.4158C15.2623 14.4215 15.2529 14.4249 15.2435 14.4282C15.2365 14.4307 15.2295 14.4332 15.2227 14.4367L12 15.8287V20.7593Z" "/>
</svg>
