<svg width="12" height="12" viewBox="0 0 12 12" xmlns="http://www.w3.org/2000/svg">
<path d="M10.5 1H7.5C7.22363 1 7 1.22363 7 1.5C7 1.77637 7.22363 2 7.5 2H9.29169L5.90039 5.396C5.70557 5.5918 5.70557 5.9082 5.90088 6.10352C5.99854 6.20068 6.12646 6.24951 6.25439 6.24951C6.38232 6.24951 6.51074 6.20068 6.6084 6.10303L10 2.70673V4.5C10 4.77637 10.2236 5 10.5 5C10.7764 5 11 4.77637 11 4.5V1.5C11 1.22363 10.7764 1 10.5 1Z" fill="#222222"/>
<path d="M10.5 7C10.2236 7 10 7.22363 10 7.5V10H2V2H4.5C4.77637 2 5 1.77637 5 1.5C5 1.22363 4.77637 1 4.5 1H1.5C1.22363 1 1 1.22363 1 1.5V10.5C1 10.7764 1.22363 11 1.5 11H10.5C10.7764 11 11 10.7764 11 10.5V7.5C11 7.22363 10.7764 7 10.5 7Z" fill="#222222"/>
</svg>
