<svg  viewBox="0 0 24 24"  xmlns="http://www.w3.org/2000/svg">
<path d="M19.5 5.00146H4.5C4.22363 5.00146 4 5.2251 4 5.50146V15.5625C4 15.8389 4.22363 16.0625 4.5 16.0625H9.49158C9.44904 16.6967 9.26642 17.1938 8.92871 17.5264C8.41895 18.0293 7.71289 18.0342 7.68262 18.0342C7.6806 18.0341 7.67883 18.0352 7.67682 18.0352H6.88184C6.60547 18.0352 6.38184 18.2588 6.38184 18.5352C6.38184 18.8115 6.60547 19.0352 6.88184 19.0352H17.1182C17.3945 19.0352 17.6182 18.8115 17.6182 18.5352C17.6182 18.2588 17.3945 18.0352 17.1182 18.0352H16.3926C16.3905 18.0352 16.3888 18.0341 16.3867 18.0342C16.3809 18.0293 15.6709 18.042 15.1484 17.5342C14.8062 17.2021 14.6208 16.7014 14.5779 16.0625H19.5C19.7764 16.0625 20 15.8389 20 15.5625V5.50146C20 5.2251 19.7764 5.00146 19.5 5.00146ZM9.79443 18.0352C10.213 17.5317 10.4465 16.8711 10.4895 16.0625H13.5798C13.6229 16.8711 13.8563 17.5317 14.2749 18.0352H9.79443ZM19 15.0625H5V6.00146H19V15.0625Z" />
</svg>
