<svg  viewBox="0 0 24 24"  xmlns="http://www.w3.org/2000/svg">
<path fill-rule="evenodd" clip-rule="evenodd" d="M15.5 4H18.5C18.7764 4 19 4.22363 19 4.5V19.5C19 19.7764 18.7764 20 18.5 20H15.5C15.2236 20 15 19.7764 15 19.5V4.5C15 4.22363 15.2236 4 15.5 4ZM16 19H18V5H16V19Z" "/>
<path fill-rule="evenodd" clip-rule="evenodd" d="M13.5 8H10.5C10.2236 8 10 8.22363 10 8.5V19.5C10 19.7764 10.2236 20 10.5 20H13.5C13.7764 20 14 19.7764 14 19.5V8.5C14 8.22363 13.7764 8 13.5 8ZM13 19H11V9H13V19Z" "/>
<path fill-rule="evenodd" clip-rule="evenodd" d="M8.5 12H5.5C5.22363 12 5 12.2236 5 12.5V19.5C5 19.7764 5.22363 20 5.5 20H8.5C8.77637 20 9 19.7764 9 19.5V12.5C9 12.2236 8.77637 12 8.5 12ZM8 19H6V13H8V19Z" "/>
</svg>
