<svg  viewBox="0 0 24 24"  xmlns="http://www.w3.org/2000/svg">
<path fill-rule="evenodd" clip-rule="evenodd" d="M12.1664 19.4963C12.1664 19.9105 11.8306 20.2463 11.4164 20.2463C11.0022 20.2463 10.6664 19.9105 10.6664 19.4963C10.6664 19.082 11.0022 18.7463 11.4164 18.7463C11.8306 18.7463 12.1664 19.082 12.1664 19.4963ZM11.4157 16.4783C11.1394 16.4783 10.9154 16.2543 10.9154 15.978V14.8035C10.9154 13.0088 12.2204 12.123 13.3717 11.3415C14.5709 10.5278 15.6059 9.82575 15.6059 8.25075C15.6059 5.667 13.4602 4.74975 11.6227 4.74975C10.4002 4.74975 9.08017 5.3355 8.26117 6.24225C8.07543 6.44606 7.76015 6.46213 7.55467 6.27825C7.35005 6.0929 7.33395 5.77694 7.51867 5.57175C8.53492 4.44825 10.1069 3.75 11.6227 3.75C14.6024 3.75 16.6057 5.55825 16.6057 8.25075C16.6057 10.3553 15.1859 11.319 13.9327 12.1695C12.8497 12.9045 11.9144 13.539 11.9144 14.8035V15.978C11.9146 16.1107 11.862 16.2381 11.7681 16.332C11.6743 16.4258 11.5469 16.4785 11.4142 16.4783H11.4157Z" />
</svg>
