<svg  viewBox="0 0 24 24"  xmlns="http://www.w3.org/2000/svg">
<path d="M14.9405 7.51562C14.9171 7.51428 14.8958 7.52295 14.8729 7.52478C14.6068 7.29895 14.2884 7.06897 13.8709 6.82458C13.8499 6.8075 13.8348 6.78552 13.8106 6.77148C13.7315 6.7262 13.6307 6.68555 13.5418 6.64197C13.4988 6.61877 13.4627 6.59668 13.418 6.57324C13.4029 6.56531 13.3863 6.5658 13.3709 6.55945C12.6712 6.24573 11.7913 6 11.2691 6C10.4739 6 9.71198 6.57349 9.08478 7.06897L9.08405 7.06934C9.00836 7.12634 8.92975 7.18835 8.8504 7.25342C8.59601 7.45337 8.29181 7.68347 8.17194 7.7041C3.6734 8.36719 3.00153 11.1436 3.00153 12.7393C3.00153 14.7881 4.32965 17.2676 10.6553 17.4453C10.8848 17.4518 11.9551 17.5553 12.4273 17.625C12.8589 17.7653 13.2752 17.8461 13.6822 17.896C14.0931 17.9625 14.4998 18.002 14.8985 18.002C16.3165 18.002 17.6417 17.584 18.7598 16.7646C20.1358 15.7559 20.9737 14.2803 21.0001 12.8174C21.0557 9.77441 18.8467 7.8418 14.9405 7.51562ZM17.1788 15.3574C16.5464 16.4617 15.4866 17.0065 14.171 16.9486C14.0916 16.9397 14.0174 16.9386 13.9361 16.9264C13.9022 16.9232 13.8672 16.9169 13.8333 16.913C13.5396 16.8645 13.2344 16.7968 12.9161 16.7021C12.5552 16.5947 10.8941 16.4521 10.6841 16.4453C6.25006 16.3213 4.00153 15.0742 4.00153 12.7393C4.00153 10.6017 5.38654 9.23743 7.98566 8.76135C7.98907 8.78455 7.98615 8.80676 7.99127 8.83008C8.18512 9.71289 9.42535 9.97949 10.9957 10.3174C11.9346 10.5195 12.9986 10.748 13.586 11.1055C13.6671 11.1553 13.7569 11.1787 13.8458 11.1787C14.0137 11.1787 14.1788 11.0938 14.2725 10.9385C14.4161 10.7031 14.3419 10.3955 14.1055 10.252C13.3741 9.80566 12.272 9.56934 11.2061 9.33984C10.4175 9.16992 9.09821 8.88574 8.96881 8.62305C8.96881 8.62122 8.99127 8.422 9.5545 7.97205C9.57281 7.95764 9.58893 7.94531 9.60748 7.93066C10.1304 7.51562 10.7813 7 11.2691 7C11.619 7 12.3904 7.20691 12.9852 7.47546C14.1688 8.10107 14.5569 8.56165 15.0889 9.19531C15.4503 9.62598 15.9005 10.1621 16.6837 10.8477C17.8145 11.8369 18.0372 13.8594 17.1788 15.3574ZM18.169 15.958C18.0696 16.031 17.9544 16.1085 17.8279 16.1866C17.9029 16.0785 17.9793 15.9723 18.0469 15.8545C19.1475 13.9326 18.838 11.4033 17.3419 10.0957C16.6744 9.51184 16.282 9.05969 15.9446 8.65906C18.64 9.15027 20.0408 10.5645 20.0001 12.7998C19.9796 13.9346 19.2784 15.1445 18.169 15.958Z" "/>
</svg>
