<svg  viewBox="0 0 24 24"  xmlns="http://www.w3.org/2000/svg">
<path d="M17.5576 2.95605H15.0342C14.7578 2.95605 14.5342 3.17969 14.5342 3.45605C14.5342 3.73242 14.7578 3.95605 15.0342 3.95605H16.3511L13.4442 6.86249C12.5916 6.31927 11.5831 6 10.4995 6C7.46729 6 5 8.46729 5 11.5C5 14.3641 7.20123 16.7211 10 16.9747V19H8.83301C8.55664 19 8.33301 19.2236 8.33301 19.5C8.33301 19.7764 8.55664 20 8.83301 20H10V21.5C10 21.7764 10.2236 22 10.5 22C10.7764 22 11 21.7764 11 21.5V20H12.1665C12.4429 20 12.6665 19.7764 12.6665 19.5C12.6665 19.2236 12.4429 19 12.1665 19H11V16.9747C13.7988 16.7206 16 14.3638 16 11.5C16 9.91278 15.32 8.48468 14.2408 7.47986L17.0576 4.66357V5.97949C17.0576 6.25586 17.2812 6.47949 17.5576 6.47949C17.834 6.47949 18.0576 6.25586 18.0576 5.97949V3.45605C18.0576 3.17969 17.834 2.95605 17.5576 2.95605ZM15 11.5C15 13.9814 12.981 16 10.4995 16C8.01855 16 6 13.9814 6 11.5C6 9.01855 8.01855 7 10.4995 7C12.981 7 15 9.01855 15 11.5Z" "/>
</svg>
