<svg width="24" height="24" viewBox="0 0 24 24"  xmlns="http://www.w3.org/2000/svg">
<path d="M12 2.99365C7.0376 2.99365 3 7.03125 3 11.9937C3 16.9561 7.0376 20.9941 12 20.9941C16.9629 20.9941 21 16.9561 21 11.9937C21 7.03125 16.9629 2.99365 12 2.99365ZM12 19.9941C7.58887 19.9941 4 16.4053 4 11.9937C4 7.58252 7.58887 3.99365 12 3.99365C16.4111 3.99365 20 7.58252 20 11.9937C20 16.4053 16.4111 19.9941 12 19.9941Z"/>
<path fill-rule="evenodd" clip-rule="evenodd" d="M17.0008 11.5003H12.5008V7.00025C12.5008 6.72397 12.2768 6.5 12.0005 6.5C11.7242 6.5 11.5003 6.72397 11.5003 7.00025V11.5003H7.00025C6.72397 11.5003 6.5 11.7242 6.5 12.0005C6.5 12.2768 6.72397 12.5008 7.00025 12.5008H11.5003V17.0008C11.5003 17.277 11.7242 17.501 12.0005 17.501C12.2768 17.501 12.5008 17.277 12.5008 17.0008V12.5008H17.0008C17.277 12.5008 17.501 12.2768 17.501 12.0005C17.501 11.7242 17.277 11.5003 17.0008 11.5003Z"/>
</svg>
