<svg  viewBox="0 0 24 24"  xmlns="http://www.w3.org/2000/svg">
<path d="M18.0376 12L18.4992 9.80352C20.5295 9.66637 19.9657 12 19.9657 12H18.0376Z" "/>
<path fill-rule="evenodd" clip-rule="evenodd" d="M17.5957 7.44141C18.6709 7.44141 20.2968 7.44141 21.2656 8.63574C22.0351 9.5835 22.1992 11.0439 21.7666 13.0996L21.0078 16.606C20.958 16.8359 20.7549 17 20.5195 17H16.8405C16.5285 18.131 15.4458 19 14.2978 19C13.6924 19 13.164 18.7598 12.8105 18.3232C12.5176 17.9628 12.384 17.4935 12.4088 17H9.68649C9.68442 17 9.68066 16.9989 9.68066 16.9989L9.6752 16.9977C9.36411 18.1299 8.28055 19 7.13181 19C6.52731 19 5.99899 18.7593 5.6445 18.3228C5.35239 17.9628 5.21829 17.4935 5.24289 17H3.46677C3.1904 17 2.96677 16.7764 2.96677 16.5C2.96677 16.2236 3.1904 16 3.46677 16H5.52219C5.72836 15.6011 6.03006 15.2583 6.39328 15H2.49997C2.34958 15 2.207 14.9321 2.11227 14.8154C2.01657 14.6982 1.97946 14.5449 2.01071 14.3975L3.89548 5.39746C3.94431 5.16602 4.14841 5 4.38474 5H15.9209C16.0713 5 16.2138 5.06787 16.3086 5.18457C16.4043 5.30176 16.4414 5.45508 16.4101 5.60254L14.5346 14.5587C14.6987 14.5231 14.8653 14.5 15.0341 14.5C15.1781 14.5 15.3169 14.5156 15.4508 14.5423L16.8799 7.8374C16.9297 7.60645 17.1328 7.44141 17.3691 7.44141H17.5957ZM7.13181 18C7.84958 18 8.58688 17.3804 8.74118 16.647C8.81052 16.3193 8.7529 16.021 8.57907 15.8076C8.41794 15.6094 8.16599 15.5 7.86813 15.5C7.15036 15.5 6.41306 16.1196 6.25876 16.853C6.18942 17.1807 6.24704 17.479 6.42087 17.6924C6.582 17.8906 6.83395 18 7.13181 18ZM4.79099 6L3.1152 14H13.6299L15.3056 6H4.79099ZM9.72708 16H12.6882C12.8944 15.6011 13.1961 15.2583 13.5593 15H9.17392C9.18869 15.0137 9.20366 15.0271 9.21862 15.0406C9.26641 15.0835 9.31416 15.1264 9.35544 15.1772C9.54636 15.4125 9.66879 15.6954 9.72708 16ZM14.2978 18C15.0156 18 15.7529 17.3804 15.9072 16.647C15.9765 16.3193 15.9189 16.021 15.7451 15.8076C15.584 15.6094 15.332 15.5 15.0341 15.5C14.3164 15.5 13.5791 16.1196 13.4248 16.853C13.3554 17.1812 13.4131 17.4795 13.5869 17.6929C13.747 17.8911 14 18 14.2978 18ZM20.1162 16L20.789 12.8911C21.1494 11.1758 21.0488 9.95508 20.4892 9.26562C19.8613 8.49219 18.6914 8.44434 17.7734 8.44141L16.3699 15.0292C16.3864 15.0453 16.4034 15.0606 16.4204 15.076C16.4557 15.1078 16.4909 15.1396 16.5215 15.1772C16.7124 15.4125 16.8348 15.6954 16.8931 16H20.1162Z" "/>
</svg>
