<svg  viewBox="0 0 24 24"  xmlns="http://www.w3.org/2000/svg">
<path fill-rule="evenodd" clip-rule="evenodd" d="M4.5 3H19.5C19.7764 3 20 3.22363 20 3.5V7.5C20 7.77637 19.7764 8 19.5 8H4.5C4.22363 8 4 7.77637 4 7.5V3.5C4 3.22363 4.22363 3 4.5 3ZM5 7H19V4H5V7Z" "/>
<path fill-rule="evenodd" clip-rule="evenodd" d="M10.5 16H4.5C4.22363 16 4 15.7764 4 15.5V9.5C4 9.22363 4.22363 9 4.5 9H10.5C10.7764 9 11 9.22363 11 9.5V15.5C11 15.7764 10.7764 16 10.5 16ZM10 10H5V15H10V10Z" "/>
<path fill-rule="evenodd" clip-rule="evenodd" d="M7.5 17H4.5C4.22363 17 4 17.2236 4 17.5V20.5C4 20.7764 4.22363 21 4.5 21H7.5C7.77637 21 8 20.7764 8 20.5V17.5C8 17.2236 7.77637 17 7.5 17ZM7 20H5V18H7V20Z" "/>
<path fill-rule="evenodd" clip-rule="evenodd" d="M10.498 17H13.498C13.7744 17 13.998 17.2236 13.998 17.5V20.5C13.998 20.7764 13.7744 21 13.498 21H10.498C10.2217 21 9.99805 20.7764 9.99805 20.5V17.5C9.99805 17.2236 10.2217 17 10.498 17ZM10.998 20H12.998V18H10.998V20Z" "/>
<path fill-rule="evenodd" clip-rule="evenodd" d="M19.4961 17H16.4961C16.2197 17 15.9961 17.2236 15.9961 17.5V20.5C15.9961 20.7764 16.2197 21 16.4961 21H19.4961C19.7725 21 19.9961 20.7764 19.9961 20.5V17.5C19.9961 17.2236 19.7725 17 19.4961 17ZM18.9961 20H16.9961V18H18.9961V20Z" "/>
<path fill-rule="evenodd" clip-rule="evenodd" d="M13.5 9H19.5C19.7764 9 20 9.22363 20 9.5V15.5C20 15.7764 19.7764 16 19.5 16H13.5C13.2236 16 13 15.7764 13 15.5V9.5C13 9.22363 13.2236 9 13.5 9ZM14 15H19V10H14V15Z" "/>
</svg>
