<svg  viewBox="0 0 24 24"  xmlns="http://www.w3.org/2000/svg">
<path fill-rule="evenodd" clip-rule="evenodd" d="M19.5 10C19.7764 10 20 9.77637 20 9.5C20 4 13.9785 4 12 4C10.0215 4 4 4 4 9.5C4 9.77637 4.22363 10 4.5 10H19.5ZM12 5C16.5732 5 18.7529 6.23877 18.9805 9H5.02002C5.24658 6.23877 7.42627 5 12 5Z" "/>
<path fill-rule="evenodd" clip-rule="evenodd" d="M4.5 11C3.67285 11 3 11.6729 3 12.5C3 13.3271 3.67285 14 4.5 14H19.5C20.3271 14 21 13.3271 21 12.5C21 11.6729 20.3271 11 19.5 11H4.5ZM4.5 13C4.22412 13 4 12.7759 4 12.5C4 12.2241 4.22412 12 4.5 12H19.5C19.7754 12 20 12.2241 20 12.5C20 12.7759 19.7754 13 19.5 13H4.5Z" "/>
<path fill-rule="evenodd" clip-rule="evenodd" d="M4 15.5C4 15.2236 4.22363 15 4.5 15H19.5C19.7764 15 20 15.2236 20 15.5V16.5C20 17.9019 19.1992 19 18.1768 19H5.82373C4.80127 19 4 17.9019 4 16.5V15.5ZM18.1768 18C18.5654 18 19 17.3584 19 16.5V16L5 16.0483V16.5C5 17.3584 5.43506 18 5.82373 18H18.1768Z" "/>
</svg>
