<svg  viewBox="0 0 24 24"  xmlns="http://www.w3.org/2000/svg">
<path fill-rule="evenodd" clip-rule="evenodd" d="M9.4873 6.99414C7.92969 6.99414 6.66211 8.33984 6.66211 9.99414C6.66211 11.6484 7.92969 12.9941 9.4873 12.9941C11.0449 12.9941 12.3125 11.6484 12.3125 9.99414C12.3125 8.33984 11.0449 6.99414 9.4873 6.99414ZM9.4873 11.9941C8.48096 11.9941 7.66211 11.0972 7.66211 9.99414C7.66211 8.89111 8.48096 7.99414 9.4873 7.99414C10.4937 7.99414 11.3125 8.89111 11.3125 9.99414C11.3125 11.0972 10.4937 11.9941 9.4873 11.9941Z" />
<path d="M14.3993 9.2402C14.996 9.45016 15.8319 9.71676 16.0204 9.77584C17.0643 10.1054 17.329 11.0068 17.1278 11.7539C16.9608 12.3715 16.3632 13 15.1835 13C15.1073 13 15.0272 12.9975 14.9462 12.9922C13.8378 12.9174 13.3446 12.6152 13.2567 12.5556C13.0292 12.3999 12.9701 12.0888 13.1259 11.8608C13.2821 11.6323 13.5936 11.5766 13.8212 11.7295C13.8212 11.7295 14.1766 11.938 15.0126 11.9941C15.6415 12.0356 16.0663 11.8486 16.163 11.4936C16.2655 11.1123 16.1161 10.8549 15.7196 10.7299C15.5292 10.6699 14.6757 10.3974 14.0673 10.1836C13.4149 9.95455 12.9574 9.2275 13.0477 8.56295C13.1766 7.60397 13.9784 6.98727 14.9921 7.00045C15.7245 7.01803 16.5184 7.29147 16.5516 7.30319C16.8124 7.39401 16.9501 7.67867 16.8593 7.93942C16.7694 8.20065 16.4872 8.33883 16.2235 8.24752C16.2235 8.24752 16.2219 8.24698 16.2194 8.24617C16.1619 8.22703 15.5185 8.0131 14.9686 8.00045C14.7343 7.98629 14.1249 8.04879 14.038 8.69723C14.0097 8.91158 14.2128 9.17477 14.3993 9.2402Z" />
<path fill-rule="evenodd" clip-rule="evenodd" d="M22.4442 18.2705L20.9999 15.4747V4.5C20.9999 4.22363 20.7763 4 20.4999 4H3.49941C3.22304 4 2.99941 4.22363 2.99941 4.5V15.3818L1.55214 18.2764C1.47451 18.4316 1.48281 18.6152 1.57412 18.7627C1.66543 18.9102 1.82607 19 1.99941 19H21.9999C22.1747 19 22.3358 18.9092 22.4267 18.7598C22.5175 18.6113 22.5243 18.4258 22.4442 18.2705ZM3.99941 5H19.9999V15H3.99941V5ZM2.80849 18L3.80849 16H20.1454L21.1786 18H2.80849Z" />
</svg>
