<svg  viewBox="0 0 24 24"  xmlns="http://www.w3.org/2000/svg">
<path d="M19.9953 12.9052C19.9829 12.827 19.9582 12.7503 19.9073 12.6826C19.4255 12.0443 18.8752 11.4915 18.2701 11.0151L19.2372 9.58302C19.3916 9.3545 19.3315 9.04396 19.1023 8.88966C18.872 8.73341 18.5617 8.79493 18.4072 9.02442L17.4525 10.4383C16.6115 9.9192 15.6725 9.54603 14.6568 9.30714L15.0068 7.59767C15.0626 7.32716 14.8876 7.06251 14.6168 7.00685C14.346 6.95314 14.0816 7.12599 14.0264 7.39649L13.6719 9.12745C13.1334 9.05244 12.5821 9.00105 12.0053 9.00056C12.0035 9.00056 12.0017 9.00001 11.9999 9.00001C11.9992 9.00001 11.9987 9.00019 11.998 9.00019C11.9967 9.00019 11.9954 9.00001 11.994 9.00001C11.4163 9.00001 10.8641 9.05226 10.3241 9.12818L9.95489 7.41896C9.89624 7.14942 9.63083 6.9795 9.36005 7.03614C9.08976 7.09376 8.9182 7.36036 8.97637 7.62989L9.33928 9.31007C8.33968 9.5478 7.41395 9.91822 6.58102 10.4307L5.6449 9.06153C5.48898 8.83497 5.17861 8.77735 4.94889 8.93067C4.72063 9.08692 4.66198 9.39747 4.81789 9.62599L5.76165 11.0064C5.14592 11.4887 4.58463 12.049 4.09305 12.6983C4.08718 12.706 4.08626 12.7154 4.08095 12.7234C4.06158 12.7521 4.04997 12.783 4.03708 12.8147C4.02523 12.844 4.01166 12.8717 4.00562 12.902C3.99945 12.9326 4.00103 12.9628 4.00061 12.994C4.00024 13.0272 3.99822 13.0592 4.00439 13.0918C4.00983 13.1209 4.02242 13.1475 4.03317 13.1757C4.0457 13.2086 4.05736 13.2407 4.07698 13.2706C4.08217 13.2787 4.0829 13.2881 4.08865 13.2959C5.86582 15.7188 8.59757 17 11.9896 17C11.992 17 11.9942 16.9997 11.9966 16.9997C11.9977 16.9997 11.9988 17 11.9999 17C12.0031 17 12.006 16.9991 12.0091 16.9991C15.4227 16.9941 18.1555 15.7141 19.9126 13.2949C19.9261 13.2764 19.9294 13.2546 19.94 13.235C19.9406 13.2341 19.9408 13.233 19.9414 13.2321C19.9688 13.1802 19.9888 13.1278 19.9966 13.0719C20.0018 13.0433 19.9994 13.0152 19.9996 12.9862C19.9987 12.9588 20.0006 12.9321 19.9953 12.9052ZM8.94961 15.5606C7.41492 15.0859 6.13226 14.2215 5.14537 13.0036C6.16617 11.7715 7.43582 10.9098 8.95052 10.4384C8.36369 11.1343 7.99589 12.0206 7.99589 13C7.99589 13.9788 8.36332 14.8647 8.94961 15.5606ZM12.0089 15.9991C12.0047 15.9991 12.0009 15.9997 11.9967 15.9997C10.3422 15.9979 8.9969 14.6532 8.9969 13C8.9969 11.3464 10.343 10.0013 11.998 10.0002C12.0005 10.0002 12.0027 10.0006 12.0052 10.0006C13.6587 10.0035 15.0029 11.3475 15.0029 13C15.0029 14.6513 13.6607 15.9941 12.0089 15.9991ZM15.0492 15.5618C15.6361 14.8657 16.0039 13.9794 16.0039 13C16.0039 12.0253 15.6394 11.143 15.0575 10.4483C16.5785 10.9251 17.8608 11.7878 18.8626 12.9971C17.8827 14.2196 16.5969 15.0866 15.0492 15.5618ZM11.9999 11C10.8958 11 9.9979 11.8975 9.9979 13C9.9979 14.1025 10.8958 15 11.9999 15C13.104 15 14.0019 14.1025 14.0019 13C14.0019 11.8975 13.104 11 11.9999 11ZM11.9999 14C11.4481 14 10.9989 13.5518 10.9989 13C10.9989 12.4483 11.4481 12 11.9999 12C12.5517 12 13.0009 12.4483 13.0009 13C13.0009 13.5518 12.5517 14 11.9999 14Z" />
</svg>
