<svg  viewBox="0 0 24 24"  xmlns="http://www.w3.org/2000/svg">
<path fill-rule="evenodd" clip-rule="evenodd" d="M21.9943 8.64991C21.9927 8.57653 21.9745 8.50447 21.941 8.43916C21.938 8.43391 21.9328 8.43091 21.9305 8.42566C21.9185 8.40466 21.9013 8.39041 21.887 8.37091C21.8507 8.32273 21.8056 8.28178 21.7543 8.25016C21.7415 8.24266 21.7363 8.22766 21.7228 8.22166L10.862 2.82241C10.7223 2.75278 10.558 2.7525 10.418 2.82166L2.279 6.83416C2.267 6.84016 2.26175 6.85366 2.24975 6.86041C2.19357 6.89333 2.1448 6.9375 2.1065 6.99016C2.0945 7.00591 2.08025 7.01791 2.0705 7.03591C2.066 7.04416 2.05775 7.04866 2.054 7.05691C2.02184 7.1231 2.00468 7.19558 2.00375 7.26916C2.00375 7.27366 2 7.27741 2 7.28191V15.1524C2 15.3407 2.10575 15.5124 2.27375 15.5987L13.2628 21.1787C13.4071 21.2514 13.5776 21.2503 13.721 21.1757L21.7318 17.0027C21.8969 16.9165 22.0004 16.7457 22.0003 16.5594V8.66866C22.0003 8.66116 21.995 8.65591 21.9943 8.64841V8.64991ZM10.6378 3.82891L20.3953 8.67991L17.5895 10.1387L7.8725 5.19241L10.637 3.82966L10.6378 3.82891ZM13.4863 12.2717L3.62 7.28866L6.7535 5.74366L16.4998 10.7049L13.4863 12.2717ZM2.99975 8.09566L12.989 13.1417V19.9187L2.99975 14.8472V8.09566ZM13.9888 19.9097V13.1379L20.9998 9.49291V16.2579L13.9888 19.9097Z" "/>
</svg>
