<svg width="24" height="24" viewBox="0 0 24 24" xmlns="http://www.w3.org/2000/svg">
<path d="M3 12C3 7.0376 7.0376 3 12 3C14.0729 3 16.0505 3.70886 17.6477 5H15.522C15.2456 5 15.022 5.22363 15.022 5.5C15.022 5.77637 15.2456 6 15.522 6H18.522C18.7983 6 19.022 5.77637 19.022 5.5V5.08398C19.0219 5.08136 19.0221 5.07892 19.022 5.07629V2.5C19.022 2.22363 18.7983 2 18.522 2C18.2456 2 18.022 2.22363 18.022 2.5V4.02319C16.2936 2.71503 14.1944 2 12 2C6.48584 2 2 6.48584 2 12C2 13.6318 2.40186 15.251 3.16211 16.6826C3.25195 16.8521 3.4248 16.9482 3.604 16.9482C3.68311 16.9482 3.76318 16.9297 3.83789 16.8896C4.08203 16.7603 4.1748 16.4575 4.04492 16.2139C3.36133 14.9258 3 13.4688 3 12ZM20.832 7.30566C20.7021 7.06201 20.3994 6.96826 20.1558 7.09912C19.9121 7.229 19.8193 7.53174 19.9492 7.77539C20.6367 9.06689 21 10.5278 21 12C21 16.9624 16.9624 21 12 21C9.93091 21 7.95496 20.2927 6.35931 19.0054H8.5C8.77637 19.0054 9 18.7817 9 18.5054C9 18.229 8.77637 18.0054 8.5 18.0054H5.5C5.36719 18.0054 5.24023 18.0581 5.14648 18.1519C5.05273 18.2456 5 18.373 5 18.5054L5.00012 18.934C5.00018 18.9388 4.99994 18.9434 5.00012 18.9483L5.00098 21.4946C5.00098 21.771 5.2251 21.9946 5.50098 21.9946C5.77734 21.9946 6.00098 21.7705 6.00098 21.4946L6.00037 19.9939C7.72449 21.291 9.81592 22 12 22C17.5142 22 22 17.5142 22 12C22 10.3643 21.5962 8.74121 20.832 7.30566ZM6.80634 14.2338C7.5498 14.1371 8.11566 13.7742 8.47046 13.1044C8.69464 12.68 8.79089 12.2208 8.84015 11.748C8.88171 11.3484 8.9021 10.9503 8.80127 10.5558C8.79901 10.5449 8.80084 10.5327 8.80084 10.5169H9.9624C9.94568 10.6633 9.9303 10.8034 9.914 10.9426C9.81732 11.7729 9.71741 12.6022 9.62524 13.433C9.57233 13.9048 9.82001 14.1936 10.2955 14.2148C10.4763 14.223 10.6584 14.2013 10.8401 14.194C10.9052 14.1918 10.9323 14.1656 10.94 14.0955C10.9857 13.6575 11.0376 13.22 11.0873 12.7821C11.1696 12.0567 11.2527 11.3309 11.3323 10.605C11.3409 10.5286 11.3662 10.5082 11.4421 10.5092C11.8398 10.5133 12.2371 10.5115 12.6348 10.5119C12.6579 10.5119 12.6805 10.5142 12.7058 10.5155C12.7058 10.5372 12.7076 10.5513 12.7058 10.5652C12.6091 11.3928 12.5096 12.2199 12.4161 13.0479C12.3935 13.2517 12.3682 13.4587 12.3786 13.6625C12.3935 13.9324 12.5679 14.115 12.831 14.1823C13.0796 14.2455 13.3304 14.2185 13.5812 14.1963C13.654 14.1895 13.6798 14.1615 13.6884 14.0874C13.8185 12.9191 13.9528 11.7512 14.0829 10.5829C14.0901 10.5219 14.1128 10.5092 14.1679 10.5101C14.3523 10.5128 14.5367 10.5106 14.7211 10.511C14.9249 10.5115 15.1224 10.4861 15.3145 10.3614C15.2553 10.4993 15.1989 10.6172 15.1519 10.7388C15.0018 11.132 14.9439 11.5437 14.9091 11.9604C14.8811 12.294 14.8815 12.6253 14.9629 12.9525C15.1102 13.5437 15.4623 13.9514 16.0444 14.1462C16.4146 14.27 16.7965 14.2831 17.1807 14.2379C18.0005 14.1421 18.5953 13.7299 18.9447 12.9769C19.1386 12.5583 19.2181 12.1119 19.2606 11.6562C19.2905 11.3331 19.3049 11.0113 19.2426 10.6904C19.1296 10.1042 18.8272 9.6618 18.264 9.42407C17.8998 9.27081 17.5165 9.24463 17.1278 9.27216C16.6022 9.30878 16.1249 9.4715 15.7317 9.83752C15.6982 9.86877 15.6702 9.90674 15.6395 9.94153C15.6341 9.93701 15.6277 9.93207 15.6219 9.92798C15.6725 9.74585 15.7068 9.56238 15.6992 9.36938C15.6788 9.36755 15.6648 9.36487 15.6508 9.36487C14.7817 9.36487 13.9121 9.36389 13.043 9.36664C12.8613 9.36713 12.6868 9.40863 12.5282 9.50494C12.3004 9.64325 12.1711 9.85883 12.0712 10.0966C12.0586 10.1259 12.0473 10.1558 12.0355 10.1855C12.0297 10.1838 12.0242 10.1824 12.0188 10.1806C12.0532 9.91168 12.0875 9.64325 12.1232 9.36432H12.0229C11.2184 9.36432 10.4139 9.36432 9.60895 9.36487C9.5448 9.36487 9.47968 9.36346 9.41553 9.36713C9.01508 9.38879 8.74164 9.59399 8.60834 9.97046C8.60199 9.98718 8.5943 10.0039 8.58478 10.0274C8.56763 10.0057 8.55499 9.99213 8.54456 9.97681C8.35071 9.69794 8.08948 9.50854 7.77216 9.39417C7.36768 9.24823 6.95142 9.23828 6.53107 9.29114C6.16003 9.33813 5.81427 9.45929 5.50873 9.68164C5.09656 9.98083 4.84979 10.394 4.69385 10.869C4.56232 11.268 4.51666 11.6816 4.4873 12.0978C4.46741 12.3912 4.48145 12.6823 4.55554 12.9678C4.72052 13.606 5.11957 14.0137 5.75824 14.1827C6.104 14.274 6.45471 14.2794 6.80634 14.2338ZM16.4955 10.9774C16.5656 10.8016 16.6619 10.6434 16.8168 10.5278C17.0876 10.3253 17.507 10.3578 17.7117 10.6C17.822 10.7307 17.8772 10.8889 17.8848 11.0556C17.9097 11.6107 17.8627 12.157 17.62 12.6674C17.5102 12.8983 17.333 13.0623 17.0686 13.1035C16.6646 13.1663 16.3753 12.9579 16.3062 12.5521C16.2881 12.4464 16.284 12.3383 16.2772 12.266C16.3057 11.8045 16.3342 11.3797 16.4955 10.9774ZM6.10083 10.939C6.18713 10.7261 6.31866 10.544 6.54102 10.4514C6.95459 10.2791 7.34778 10.4775 7.44812 10.9137C7.47705 11.0362 7.48065 11.1641 7.49017 11.2382C7.46393 11.6834 7.43457 12.0748 7.30438 12.4495C7.23431 12.6506 7.13806 12.8363 6.96497 12.9719C6.66846 13.2039 6.198 13.1455 6.00818 12.8526C5.92365 12.7229 5.88074 12.5765 5.87708 12.4251C5.8631 11.9171 5.90692 11.4154 6.10083 10.939Z" />
</svg>
