<svg  viewBox="0 0 24 24"  xmlns="http://www.w3.org/2000/svg">
<path d="M12 3C7.03711 3 3 7.03711 3 12C3 16.9629 7.03711 21 12 21C16.9629 21 21 16.9629 21 12C21 7.03711 16.9629 3 12 3ZM14.6544 12.0989C14.3805 11.7328 14.1083 11.3766 13.8367 11.0301C15.3401 9.83618 16.9518 8.60504 18.5726 7.45111C19.3938 8.63391 19.8974 10.0481 19.9784 11.574C18.0434 10.8278 16.3052 10.962 14.8066 11.9824C14.754 12.0184 14.7059 12.0612 14.6544 12.0989ZM17.3117 17.9655C15.9016 19.2225 14.0507 19.9943 12.0187 19.999C12.0195 19.9865 12.0256 19.9756 12.0254 19.9629C12.0033 18.7299 12.7026 15.4896 14.4945 13.5701C15.4797 14.9414 16.4494 16.4189 17.3117 17.9655ZM17.9479 6.66895C16.3276 7.82397 14.7178 9.05371 13.2156 10.2466C12.928 9.89117 12.6459 9.55017 12.369 9.2215C12.4167 9.18085 12.4713 9.14764 12.5176 9.10547C13.8293 7.90936 14.3627 6.28949 14.1249 4.29547C15.6209 4.7088 16.9391 5.54474 17.9479 6.66895ZM13.1012 4.0849C13.1022 4.0976 13.0976 4.10931 13.0996 4.12207C13.3867 5.91699 12.9648 7.34473 11.8438 8.36621C11.8055 8.401 11.7624 8.43048 11.723 8.46405C10.1414 6.64185 8.86725 5.36664 8.36945 4.88037C9.46051 4.32166 10.6923 4 12 4C12.3745 4 12.7402 4.03485 13.1012 4.0849ZM7.47681 5.4082C7.62189 5.54578 9.03827 6.90265 10.9011 9.04138C8.70587 10.2917 5.56256 10.2749 4.26361 9.99872C4.75317 8.1087 5.91064 6.48633 7.47681 5.4082ZM4.07269 10.9788C4.57672 11.0852 5.24298 11.1553 6.00781 11.1553C7.7287 11.1553 9.88934 10.804 11.5526 9.80255C11.8412 10.1441 12.1352 10.4981 12.4359 10.8697C8.91113 13.7076 6.1424 16.194 5.5578 16.7232C4.58325 15.3977 4 13.7676 4 12C4 11.6533 4.02966 11.314 4.07269 10.9788ZM6.19897 17.4926C6.71826 17.0215 9.50531 14.5132 13.0569 11.6532C13.3359 12.0093 13.6156 12.3756 13.897 12.7526C11.8685 14.8234 11.0137 18.325 11.0263 19.9346C9.13397 19.7035 7.44708 18.8101 6.19897 17.4926ZM18.0398 17.23C17.177 15.7089 16.2196 14.2538 15.246 12.9042C15.2881 12.8734 15.3271 12.838 15.3701 12.8086C16.6211 11.9541 18.1094 11.873 19.7891 12.5674C19.8481 12.5927 19.9092 12.6025 19.9694 12.6041C19.8368 14.3666 19.1331 15.9691 18.0398 17.23Z" "/>
</svg>
