<svg  viewBox="0 0 24 24"  xmlns="http://www.w3.org/2000/svg">
<path d="M22.0029 10.0054C22.0029 9.25824 21.6328 8.61304 21.0915 8.26801C21.3455 7.92279 21.5029 7.48541 21.5029 7.00195C21.5029 6.09308 20.9568 5.33258 20.2151 5.08905C20.3958 4.77539 20.5029 4.40259 20.5029 4.00098C20.5029 2.89795 19.7119 2 18.7393 2H15.6416H15.5029H10.1895C9.65527 2 9.04883 2.25928 8.40723 2.5332C7.89453 2.75195 7.31445 3 6.96094 3H5.99902V2.49219C5.99902 2.21582 5.77539 1.99219 5.49902 1.99219H2.56738C2.29102 1.99219 2.06738 2.21582 2.06738 2.49219C2.06738 2.76855 2.29102 2.99219 2.56738 2.99219H4.99902V11.3843C4.99902 13.6836 4.39844 14 3.75 14H2.56738C2.29102 14 2.06738 14.2236 2.06738 14.5C2.06738 14.7764 2.29102 15 2.56738 15H3.75C4.51581 15 5.0166 14.6921 5.34967 14.2513C5.40894 14.276 5.47375 14.29 5.54199 14.29H5.76172C5.76172 14.29 5.76172 14.29 5.7627 14.29C5.80664 14.29 8.53906 14.3105 9.73145 16.458C10.499 17.8418 10.5508 18.9277 10.5918 19.7998C10.6289 20.5752 10.6611 21.2451 11.2295 21.7119C11.4619 21.9023 11.75 21.999 12.0586 21.999C12.2754 21.999 12.5029 21.9512 12.7266 21.8545C13.4893 21.5234 14.3447 20.5684 14.457 18.8799C14.54 17.6182 14.293 15.8975 14.1426 15H19.624C19.6398 15 19.6531 14.9924 19.6685 14.991C19.6838 14.9924 19.6971 15 19.7129 15C20.7002 15 21.5029 14.1025 21.5029 12.998C21.5029 12.5156 21.3469 12.0804 21.0949 11.7361C21.6373 11.3945 22.0029 10.7541 22.0029 10.0054ZM20.2371 10.9995H19.7812C19.7783 10.9995 19.7759 11.0011 19.7729 11.0012C19.7701 11.001 19.7675 11.0001 19.7646 11C19.7588 11 19.7529 10.9995 19.748 10.9995C19.4795 10.9995 19.2568 11.2129 19.248 11.4834C19.2393 11.7598 19.4551 11.9907 19.7314 12C20.1562 12.0142 20.5029 12.4619 20.5029 12.998C20.5029 13.5508 20.1484 14 19.7129 14C19.6971 14 19.6838 14.0076 19.6685 14.009C19.6531 14.0076 19.6398 14 19.624 14H13.5439C13.3945 14 13.2529 14.0674 13.1572 14.1826C13.0625 14.2988 13.0244 14.4502 13.0537 14.5977C13.0586 14.623 13.5645 17.2012 13.459 18.8145C13.3818 19.9756 12.8359 20.7168 12.3291 20.9365C12.2363 20.9766 12.0078 21.0576 11.8643 20.9385C11.6484 20.7617 11.6221 20.4102 11.5908 19.752C11.5469 18.8271 11.4873 17.5615 10.6064 15.9727C9.18347 13.4104 6.19043 13.3045 5.80255 13.2916C5.99805 12.5814 5.99902 11.8223 5.99902 11.3843V4H6.96094C7.51855 4 8.16992 3.72168 8.7998 3.45312C9.32129 3.23047 9.86035 3 10.1895 3H15.5029H15.6416H18.7393C19.1533 3 19.5029 3.4585 19.5029 4.00098C19.5029 4.54248 19.1533 5 18.7393 5C18.4629 5 18.2393 5.22363 18.2393 5.5C18.2393 5.77637 18.4629 6 18.7393 6H19.7168C20.1504 6 20.5029 6.44971 20.5029 7.00195C20.5029 7.53369 20.1621 7.98047 19.7432 7.99854C19.741 7.9986 19.7394 7.99988 19.7372 8H19.5029C19.2266 8 19.0029 8.22363 19.0029 8.5C19.0029 8.77637 19.2266 9 19.5029 9H20.2158C20.6426 9 21.0029 9.46045 21.0029 10.0054C21.0029 10.5402 20.6591 10.9856 20.2371 10.9995Z" "/>
</svg>
