<svg  viewBox="0 0 24 24"  xmlns="http://www.w3.org/2000/svg">
<path fill-rule="evenodd" clip-rule="evenodd" d="M19.461 10.2983C19.3812 10.1158 19.2011 9.99779 19.002 9.9975H16.002V3.50025C16.0022 3.36752 15.9495 3.24016 15.8557 3.1463C15.7618 3.05244 15.6344 2.9998 15.5017 3H8.50195C8.22567 3 8.0017 3.22397 8.0017 3.50025V9.9975H5.0017C4.80196 9.99632 4.62078 10.1144 4.54125 10.2977C4.46172 10.4809 4.49918 10.6939 4.63645 10.839L11.6362 18.3345C11.7307 18.4358 11.863 18.4933 12.0015 18.4933C12.14 18.4933 12.2722 18.4358 12.3667 18.3345L19.3665 10.839C19.5021 10.6932 19.5396 10.4812 19.461 10.2983ZM12.0022 17.2613L6.15295 10.9973H8.50195C8.77823 10.9973 9.0022 10.7733 9.0022 10.497V3.99975H15.0022V10.497C15.0022 10.773 15.2257 10.9973 15.5025 10.9973H17.8507L12.0022 17.2613ZM17.502 19.9988H6.5017C6.22542 19.9988 6.00145 20.2227 6.00145 20.499C6.00145 20.7753 6.22542 20.9993 6.5017 20.9993H17.502C17.7782 20.9993 18.0022 20.7753 18.0022 20.499C18.0022 20.2227 17.7782 19.9988 17.502 19.9988Z" />
</svg>
