<svg width="24" height="24" viewBox="0 0 24 24" xmlns="http://www.w3.org/2000/svg">
<path d="M20.5098 7H18.707L13.8535 2.14648C13.6582 1.95117 13.3418 1.95117 13.1465 2.14648L10.5 4.79297L9.85352 4.14648C9.6582 3.95117 9.3418 3.95117 9.14648 4.14648L6.29297 7H3.50977C3.2334 7 3.00977 7.22363 3.00977 7.5C3.00977 7.77637 3.2334 8 3.50977 8H5.09021L6.00977 12.5977C6.02051 12.6543 6.04199 12.708 6.07129 12.7568L9.07129 17.7568C9.11438 17.8292 9.17603 17.8844 9.24622 17.9261C9.27026 17.9405 9.29663 17.9438 9.32251 17.9539C9.36102 17.969 9.39661 17.991 9.43848 17.9961C9.45013 17.9979 9.46094 17.9919 9.4726 17.9929C9.48212 17.9934 9.49048 18 9.5 18C9.51813 18 9.53485 17.9872 9.55298 17.9853C9.61169 17.9792 9.66589 17.9663 9.71851 17.9393C9.73083 17.9332 9.74487 17.936 9.75684 17.9287C9.77716 17.9166 9.78918 17.8974 9.80713 17.883C9.82159 17.8713 9.84021 17.8668 9.85352 17.8535L10.3174 17.3896L12.0361 21.6855C12.1045 21.8584 12.2637 21.9785 12.4482 21.9971C12.4658 21.999 12.4824 22 12.5 22C12.666 22 12.8223 21.917 12.916 21.7773L14.916 18.7773C14.9404 18.7402 14.96 18.7002 14.9746 18.6582L15.9375 15.7705L18.8535 12.8535C18.9238 12.7842 18.9707 12.6953 18.9902 12.5977L19.9098 8H20.5098C20.7861 8 21.0098 7.77637 21.0098 7.5C21.0098 7.22363 20.7861 7 20.5098 7ZM18.0391 12.2539L15.1465 15.1465C15.0918 15.2012 15.0498 15.2686 15.0254 15.3418L14.0469 18.2783L12.6113 20.4316L10.9639 16.3145C10.9014 16.1582 10.7656 16.0439 10.6006 16.0098C10.4355 15.9756 10.2656 16.0273 10.1465 16.1465L9.59961 16.6934L7.86249 13.799L6.97363 12.3174L6.1098 8H15.5098C15.7861 8 16.0098 7.77637 16.0098 7.5C16.0098 7.22363 15.7861 7 15.5098 7H7.70703L9.5 5.20703L10.1465 5.85352C10.3418 6.04883 10.6582 6.04883 10.8535 5.85352L13.5 3.20703L18.1465 7.85352C18.2441 7.95117 18.3721 8 18.5 8L18.5049 7.99902L18.5098 8H18.8902L18.0391 12.2539Z" />
</svg>
