<svg  viewBox="0 0 24 24"  xmlns="http://www.w3.org/2000/svg">
<path d="M16.502 4.69141C16.7783 4.69141 17.002 4.46777 17.002 4.19141V2.73535C17.002 2.45898 16.7783 2.23535 16.502 2.23535C16.2256 2.23535 16.002 2.45898 16.002 2.73535V4.19141C16.002 4.46777 16.2256 4.69141 16.502 4.69141Z" "/>
<path d="M15.3125 7.0459C15.1729 7.28516 14.8633 7.36523 14.6299 7.22852C14.3906 7.08984 14.3086 6.78418 14.4473 6.54492C14.8281 5.88672 15.5381 5.47754 16.2988 5.47754C17.4785 5.47754 18.4385 6.4375 18.4385 7.61719C18.4385 8.42969 17.9668 9.18555 17.2363 9.54004C17.166 9.57422 17.0918 9.59082 17.0176 9.59082C16.833 9.59082 16.6543 9.4873 16.5684 9.30957C16.4473 9.06152 16.5508 8.76172 16.7988 8.6416C17.1934 8.44922 17.4385 8.05664 17.4385 7.61719C17.4385 6.98926 16.9268 6.47754 16.2988 6.47754C15.8936 6.47754 15.5156 6.69531 15.3125 7.0459Z" "/>
<path d="M12.2451 10.3555C12.2451 9.36426 11.4619 8.51758 10.4404 8.56641C10.1787 8.56641 9.87207 8.36914 9.85059 8.10938C9.79688 7.46191 9.24512 6.95508 8.59473 6.95508C7.93945 6.95508 7.38672 7.4668 7.33789 8.11914C7.32715 8.25488 7.26172 8.37988 7.15723 8.4668C7.05273 8.55371 6.91699 8.59277 6.78125 8.57812C5.75781 8.4541 4.79395 9.30176 4.79395 10.3555C4.79395 10.6543 4.86523 10.9375 5.00488 11.1973C5.06836 11.3154 5.08203 11.4531 5.04199 11.5811C5.00293 11.709 4.91406 11.8154 4.7959 11.8779C3.89746 12.3477 3.33887 13.2686 3.33887 14.2803C3.33887 15.7744 4.55469 16.9893 6.04883 16.9893H8.5C8.77637 16.9893 9 17.2129 9 17.4893C9 17.4955 8.99835 17.5011 8.99669 17.5067C8.99527 17.5116 8.99384 17.5164 8.99347 17.5217C8.99536 17.5322 8.99818 17.5425 9.00099 17.5527C9.00587 17.5704 9.01074 17.5881 9.01074 17.6074V21.5322C9.01074 21.8086 8.78711 22.0322 8.51074 22.0322C8.23438 22.0322 8.01074 21.8086 8.01074 21.5322V17.9893H6.04883C4.00293 17.9893 2.33887 16.3252 2.33887 14.2803C2.33887 13.0508 2.94043 11.9199 3.93555 11.2314C3.8418 10.9502 3.79395 10.6543 3.79395 10.3555C3.79395 8.86914 4.96191 7.65137 6.42773 7.57031C6.70898 6.63477 7.58301 5.95508 8.59473 5.95508C9.60742 5.95508 10.4873 6.6416 10.7646 7.58301C12.1582 7.7373 13.2451 8.92188 13.2451 10.3555C13.2451 10.6455 13.1992 10.9336 13.1113 11.209C13.542 11.457 13.8691 11.7266 14.1533 12.3154C14.2734 12.5645 14.1689 12.8633 13.9209 12.9834C13.6729 13.1045 13.374 13.001 13.2529 12.751C13.0295 12.2886 12.8402 12.1897 12.2791 11.8964L12.2773 11.8955C12.1592 11.834 12.0537 11.7188 12.0137 11.5908C11.9746 11.4629 11.9707 11.3164 12.0342 11.1982C12.1738 10.9365 12.2451 10.6523 12.2451 10.3555Z" "/>
<path d="M19.7188 6.9707H21.1748C21.4512 6.9707 21.6748 7.19434 21.6748 7.4707C21.6748 7.74707 21.4512 7.9707 21.1748 7.9707H19.7188C19.4424 7.9707 19.2188 7.74707 19.2188 7.4707C19.2188 7.19434 19.4424 6.9707 19.7188 6.9707Z" "/>
<path d="M18.3984 9.2998C18.2031 9.49512 18.2031 9.81152 18.3984 10.0068L19.4287 11.0371C19.5264 11.1348 19.6543 11.1836 19.7822 11.1836C19.9102 11.1836 20.0381 11.1348 20.1357 11.0371C20.3311 10.8418 20.3311 10.5254 20.1357 10.3301L19.1055 9.2998C18.9102 9.10449 18.5938 9.10449 18.3984 9.2998Z" "/>
<path d="M19.1055 5.49805C19.0078 5.5957 18.8799 5.64453 18.752 5.64453C18.624 5.64453 18.4961 5.5957 18.3984 5.49805C18.2031 5.30273 18.2031 4.98633 18.3984 4.79102L19.4287 3.76074C19.624 3.56543 19.9404 3.56543 20.1357 3.76074C20.3311 3.95605 20.3311 4.27246 20.1357 4.46777L19.1055 5.49805Z" "/>
<path d="M13.8516 5.49805C13.9492 5.5957 14.0771 5.64453 14.2051 5.64453C14.333 5.64453 14.4609 5.5957 14.5586 5.49805C14.7539 5.30273 14.7539 4.98633 14.5586 4.79102L13.5283 3.76074C13.333 3.56543 13.0166 3.56543 12.8213 3.76074C12.626 3.95605 12.626 4.27246 12.8213 4.46777L13.8516 5.49805Z" "/>
<path fill-rule="evenodd" clip-rule="evenodd" d="M15.1719 13.0908C15.3535 12.9482 15.6094 12.9482 15.791 13.0908L20.8721 17.0986C21.0889 17.2695 21.126 17.584 20.9551 17.8008C20.8564 17.9258 20.71 17.9912 20.5625 17.9912C20.4541 17.9912 20.3447 17.9561 20.2529 17.8838L19.9912 17.6774V21.5156C19.9912 21.792 19.7676 22.0156 19.4912 22.0156H16.5049C16.2285 22.0156 16.0049 21.792 16.0049 21.5156V19.0059H15.0088V21.5156C15.0088 21.792 14.7852 22.0156 14.5088 22.0156H11.4687C11.1924 22.0156 10.9687 21.792 10.9687 21.5156V17.6797L10.71 17.8838C10.4922 18.0537 10.1787 18.0176 10.0078 17.8008C9.83691 17.584 9.87402 17.2695 10.0908 17.0986L15.1719 13.0908ZM17.0049 21.0156H18.9912V16.8885L15.4814 14.1201L11.9687 16.8909V21.0156H14.0088V18.5059C14.0088 18.2295 14.2324 18.0059 14.5088 18.0059H16.5049C16.7812 18.0059 17.0049 18.2295 17.0049 18.5059V21.0156Z" "/>
</svg>
