<svg width="24" height="24" viewBox="0 0 24 24"  xmlns="http://www.w3.org/2000/svg">
<path d="M12 12C11.173 12 10.5 12.673 10.5 13.5C10.5 14.327 11.173 15 12 15C12.827 15 13.5 14.327 13.5 13.5C13.5 12.673 12.827 12 12 12ZM12 14C11.9343 13.9999 11.8692 13.9869 11.8085 13.9617C11.7478 13.9365 11.6927 13.8996 11.6462 13.8531C11.5998 13.8065 11.563 13.7513 11.5379 13.6906C11.5128 13.6298 11.4999 13.5647 11.5 13.499C11.5001 13.4333 11.5131 13.3682 11.5383 13.3075C11.5635 13.2468 11.6004 13.1917 11.6469 13.1452C11.6935 13.0988 11.7487 13.062 11.8094 13.0369C11.8702 13.0118 11.9353 12.9989 12.001 12.999C12.1337 12.9991 12.261 13.052 12.3548 13.1459C12.4485 13.2399 12.5011 13.3673 12.501 13.5C12.5009 13.6327 12.448 13.76 12.3541 13.8538C12.2601 13.9475 12.1327 14.0001 12 14ZM21.5 4H2.5C2.36739 4 2.24021 4.05268 2.14645 4.14645C2.05268 4.24021 2 4.36739 2 4.5V16.511C2 16.6436 2.05268 16.7708 2.14645 16.8646C2.24021 16.9583 2.36739 17.011 2.5 17.011H9.492C9.452 17.654 9.269 18.157 8.928 18.492C8.418 18.995 7.712 19 7.683 19H6.5C6.36739 19 6.24021 19.0527 6.14645 19.1464C6.05268 19.2402 6 19.3674 6 19.5C6 19.6326 6.05268 19.7598 6.14645 19.8536C6.24021 19.9473 6.36739 20 6.5 20H17.5C17.6326 20 17.7598 19.9473 17.8536 19.8536C17.9473 19.7598 18 19.6326 18 19.5C18 19.3674 17.9473 19.2402 17.8536 19.1464C17.7598 19.0527 17.6326 19 17.5 19H16.39C16.392 18.994 15.661 19.004 15.142 18.492C14.801 18.157 14.617 17.654 14.577 17.012H21.5C21.6326 17.012 21.7598 16.9593 21.8536 16.8656C21.9473 16.7718 22 16.6446 22 16.512V4.5C22 4.36739 21.9473 4.24021 21.8536 4.14645C21.7598 4.05268 21.6326 4 21.5 4ZM9.794 19C10.215 18.493 10.45 17.828 10.491 17.011H13.579C13.619 17.828 13.854 18.493 14.275 19H9.794ZM21 16.011H3V5H21V16.011ZM12.009 10C10.694 10 9.456 10.569 8.697 11.522C8.65464 11.5732 8.6229 11.6323 8.60365 11.6959C8.58439 11.7595 8.57801 11.8263 8.58487 11.8924C8.59172 11.9585 8.61168 12.0225 8.64358 12.0808C8.67548 12.1391 8.71867 12.1905 8.77064 12.2319C8.82261 12.2733 8.88231 12.3039 8.94625 12.3219C9.01019 12.34 9.0771 12.3452 9.14305 12.3371C9.209 12.329 9.27268 12.3078 9.33036 12.2749C9.38804 12.2419 9.43857 12.1977 9.479 12.145C10.051 11.428 10.996 11 12.009 11C13 11 13.94 11.43 14.523 12.148C14.6065 12.2512 14.7276 12.3169 14.8597 12.3308C14.9917 12.3447 15.1238 12.3055 15.227 12.222C15.3302 12.1385 15.3959 12.0174 15.4098 11.8853C15.4237 11.7533 15.3845 11.6212 15.301 11.518C14.528 10.568 13.298 10 12.009 10ZM12.012 8C10.178 8 8.452 8.82 7.397 10.196C7.35403 10.2478 7.32196 10.3077 7.30269 10.3722C7.28343 10.4366 7.27738 10.5043 7.2849 10.5712C7.29242 10.638 7.31336 10.7027 7.34646 10.7613C7.37956 10.8199 7.42415 10.8712 7.47754 10.9121C7.53094 10.953 7.59205 10.9828 7.65721 10.9995C7.72237 11.0163 7.79025 11.0197 7.85677 11.0096C7.92329 10.9996 7.9871 10.9761 8.04435 10.9408C8.10161 10.9055 8.15115 10.8589 8.19 10.804C9.058 9.674 10.486 9 12.012 9C13.507 9 14.928 9.676 15.812 10.808C15.8524 10.8598 15.9027 10.903 15.9598 10.9354C16.017 10.9677 16.08 10.9884 16.1452 10.9964C16.2104 11.0044 16.2765 10.9995 16.3398 10.9819C16.4031 10.9643 16.4623 10.9345 16.514 10.894C16.5658 10.8536 16.609 10.8033 16.6414 10.7462C16.6737 10.689 16.6944 10.626 16.7024 10.5608C16.7104 10.4956 16.7055 10.4295 16.6879 10.3662C16.6703 10.3029 16.6405 10.2437 16.6 10.192C15.527 8.819 13.812 8 12.012 8ZM6.5 9.667C6.57762 9.667 6.65418 9.64893 6.72361 9.61421C6.79303 9.5795 6.85343 9.5291 6.9 9.467C8.061 7.922 9.974 7 12.015 7C14.015 7 15.917 7.924 17.103 9.47C17.1863 9.56691 17.3036 9.62823 17.4307 9.64137C17.5579 9.65451 17.6852 9.61846 17.7866 9.54063C17.888 9.4628 17.9557 9.3491 17.9759 9.22289C17.996 9.09668 17.9671 8.96754 17.895 8.862C16.523 7.07 14.326 6 12.016 6C9.662 6 7.45 7.071 6.1 8.866C6.04434 8.94022 6.01042 9.02846 6.00204 9.12085C5.99366 9.21324 6.01116 9.30614 6.05256 9.38916C6.09397 9.47218 6.15765 9.54204 6.2365 9.59093C6.31534 9.63982 6.40623 9.66581 6.499 9.666"/>
</svg>
