<svg  viewBox="0 0 24 24"  xmlns="http://www.w3.org/2000/svg">
<path d="M20.928 12.6337C20.8161 12.332 20.5735 12.1288 20.2615 12.078C19.9822 12.0321 19.6711 11.9882 19.136 11.913L17.9928 11.7507C17.8576 10.5889 17.3772 9.46708 16.598 8.44499C17.8642 7.0518 18.2875 5.38115 18.3078 5.29582C18.343 5.14445 18.3069 4.98625 18.2097 4.86613C18.112 4.74601 17.991 4.68449 17.8098 4.68058C17.7109 4.68266 16.0067 4.731 14.3056 5.27397C14.828 4.50248 15.0989 3.82817 15.114 3.78898C15.1682 3.65031 15.1575 3.49504 15.0852 3.36418C15.0129 3.2343 14.8869 3.14348 14.7405 3.11613C14.6413 3.09562 12.281 2.67082 10.2937 3.7714C10.1448 3.85405 9.90855 4.00859 9.67601 4.16508C7.07323 3.39592 6.00316 3.13066 3.52659 2.99992C3.25169 2.96379 3.01536 3.19719 3.00072 3.47258C2.98607 3.74797 3.19798 3.98332 3.47386 3.99797C3.81822 4.01628 4.12681 4.03788 4.42137 4.06193C6.14036 4.20268 7.19847 4.47197 9.739 5.22648C10.6617 5.50077 11.5193 5.85307 12.3042 6.26103C12.1467 6.42985 12.115 6.68559 12.2532 6.88273C12.4118 7.1093 12.7229 7.16398 12.9494 7.0048C14.1921 6.13371 16.0862 5.83293 17.112 5.73137C16.8152 6.4843 16.1902 7.70793 15.0539 8.50383C13.1457 9.84172 11.5251 10.0683 11.279 9.74406C11.2473 9.70207 11.2351 9.65324 11.2034 9.48234C11.1477 9.18254 11.0637 8.73039 10.6438 7.99894C10.6374 7.98808 10.6269 7.9821 10.6201 7.97184C10.475 7.75639 10.1899 7.68388 9.96116 7.81437C9.72191 7.95207 9.6389 8.25676 9.77659 8.49699C10.1116 9.08098 10.1716 9.40422 10.22 9.66496C10.261 9.88566 10.3035 10.1132 10.4831 10.3495C10.7615 10.7148 11.2082 10.873 11.7507 10.873C12.4892 10.873 13.4056 10.5755 14.3174 10.1097C14.7624 9.88212 15.2065 9.61784 15.6282 9.32219C15.708 9.26616 15.7718 9.19975 15.8474 9.14079C16.4595 9.96147 16.8528 10.8416 16.9839 11.7391C17.0017 11.8608 17.0215 11.9822 17.0295 12.1044C17.0325 12.1504 17.0487 12.1913 17.0631 12.233C17.0715 12.3348 17.1039 12.4295 17.166 12.5061C17.2425 12.6006 17.3508 12.6698 17.4807 12.6884L18.9968 12.9032C19.4607 12.9687 19.7527 13.0097 20.0036 13.0487C20.0256 13.3642 19.7131 14.2695 19.0349 15.078C18.2605 15.9999 17.9343 16.0009 17.2619 16.0019C16.6404 16.0048 15.8367 16.0038 14.9514 16.0028L13.7004 16.0019H13.4729C13.1965 16.0019 12.9729 16.2255 12.9729 16.5019C12.9729 16.7782 13.1965 17.0019 13.4729 17.0019H13.6902C13.7453 17.0038 13.7634 17.0204 13.7839 17.0458C13.9016 17.1894 13.9275 17.5458 13.9099 17.6728C13.843 17.7607 13.4812 17.8993 13.2156 17.8486C13.1033 17.83 12.9861 17.8476 12.886 17.9013C12.8711 17.9102 11.4457 18.6548 9.81346 18.4632C9.67332 18.4468 9.53416 18.4357 9.39183 18.4042C9.3723 18.4001 9.35387 18.4053 9.33446 18.4034C9.26512 18.373 9.19078 18.3554 9.11156 18.3681C8.49974 18.3974 8.11302 18.6855 7.73851 18.9638C7.48326 19.1535 7.18126 19.3716 6.73558 19.5601C6.46287 19.6755 6.12926 19.7769 5.71617 19.8543C5.15379 19.9598 4.44969 20.021 3.51243 19.9941C3.26048 19.9833 3.00706 20.205 3.00023 20.4814C2.99339 20.7577 3.21165 20.9872 3.48802 20.9941C3.63011 20.997 3.76732 20.9989 3.90111 20.9989C6.67601 20.9989 7.66868 20.2616 8.33519 19.7655C8.67869 19.5108 8.86058 19.386 9.14744 19.3682C9.1577 19.3711 9.16539 19.3785 9.17601 19.3808C9.58421 19.4706 9.98314 19.5077 10.3635 19.5077C11.717 19.5077 12.8274 19.0409 13.2175 18.8534C13.8635 18.8945 14.7395 18.5771 14.8728 17.9169C14.9123 17.7196 14.9328 17.3612 14.843 17.0028H14.9504C15.8367 17.0028 16.6418 17.0028 17.344 17.0019C18.1794 16.9999 18.802 16.9101 19.8005 15.7206C20.5647 14.8114 21.2195 13.4198 20.928 12.6337ZM12.9056 5.43937C12.2954 5.1165 11.6438 4.82463 10.9497 4.57377C11.999 4.05449 13.1745 3.99687 13.8923 4.03117C13.6792 4.42827 13.3454 4.95854 12.9056 5.43937ZM15.4402 12.1338C15.7843 12.1338 16.0633 11.866 16.0633 11.5358C16.0633 11.2056 15.7843 10.9379 15.4402 10.9379C15.0959 10.9379 14.8169 11.2056 14.8169 11.5358C14.8169 11.866 15.0959 12.1338 15.4402 12.1338Z" />
</svg>
