<svg  viewBox="0 0 24 24"  xmlns="http://www.w3.org/2000/svg">
<path d="M21.5 9H12.2565L12.8203 8.521C12.9736 8.39014 13.0342 8.17969 12.9717 7.9873C12.9102 7.79492 12.7393 7.65869 12.5371 7.64209L9.23341 7.36719L7.96974 4.30908C7.89259 4.12256 7.71095 4.00049 7.50977 4C7.5088 4 7.5088 4 7.50782 4C7.30665 4 7.12501 4.12061 7.04688 4.30615L5.76368 7.35693L2.45802 7.61133C2.25587 7.62695 2.08399 7.76221 2.02052 7.9541C1.95802 8.146 2.01661 8.35742 2.16993 8.48877L4.68165 10.6484L3.90235 13.8638C3.85548 14.0601 3.93067 14.2656 4.09376 14.3848C4.25587 14.5044 4.47364 14.5142 4.64747 14.4092L7.00001 12.9846V19.5C7.00001 19.7764 7.22364 20 7.50001 20H21.5C21.7764 20 22 19.7764 22 19.5V9.5C22 9.22363 21.7764 9 21.5 9ZM7.48438 11.6069C7.39454 11.6069 7.3047 11.6309 7.22559 11.6792L5.15724 12.9316L5.72559 10.5864C5.76954 10.4038 5.70802 10.2119 5.56544 10.0898L3.73536 8.51611L6.14454 8.33057C6.33204 8.31641 6.49513 8.19873 6.56739 8.02588L7.50391 5.79932L8.42579 8.03125C8.49708 8.20459 8.65919 8.32324 8.84669 8.33838L11.2549 8.53857L9.41505 10.1016C9.27247 10.2231 9.20997 10.4146 9.25294 10.5972L9.80567 12.9453L7.7461 11.6807C7.66602 11.6313 7.5752 11.6069 7.48438 11.6069ZM21 19H8.00001V13.0101L10.3066 14.4263C10.3877 14.4756 10.4775 14.5 10.5684 14.5C10.6709 14.5 10.7744 14.4683 10.8613 14.4053C11.0254 14.2871 11.1016 14.082 11.0547 13.8853L10.2959 10.6655L11.0794 10H21V19ZM14.0088 15.5C14.0088 15.7764 14.2324 16 14.5088 16H15.2032C15.5711 17.2736 16.4487 18 17.7051 18C18.3008 18 18.9033 17.709 19.3154 17.2212C19.4942 17.0103 19.4678 16.6948 19.2568 16.5166C19.0449 16.3384 18.7305 16.3643 18.5518 16.5757C18.3272 16.8413 18.0108 17 17.7051 17C16.9209 17 16.4971 16.5546 16.2665 16H17.1797C17.4561 16 17.6797 15.7764 17.6797 15.5C17.6797 15.2236 17.4561 15 17.1797 15H16.0349C16.0187 14.8239 16.0088 14.6526 16.0088 14.5005C16.0088 14.3481 16.0188 14.1765 16.0351 14H17.835C18.1113 14 18.335 13.7764 18.335 13.5C18.335 13.2236 18.1113 13 17.835 13H16.2681C16.4999 12.4454 16.9262 12 17.7149 12C18.0498 12 18.4238 12.2412 18.6299 12.4653C18.8174 12.6694 19.1348 12.6821 19.3359 12.4951C19.54 12.3081 19.5527 11.9917 19.3662 11.7886C19.0156 11.4072 18.3975 11 17.7149 11C16.478 11 15.591 11.7397 15.2131 13H14.5088C14.2324 13 14.0088 13.2236 14.0088 13.5C14.0088 13.7764 14.2324 14 14.5088 14H15.0399C15.0264 14.1643 15.0088 14.3251 15.0088 14.5005C15.0088 14.676 15.0259 14.836 15.0387 15H14.5088C14.2324 15 14.0088 15.2236 14.0088 15.5Z" />
</svg>
