<svg  viewBox="0 0 24 24"  xmlns="http://www.w3.org/2000/svg">
<path d="M18 16H19.5C19.7764 16 20 16.2236 20 16.5C20 16.7764 19.7764 17 19.5 17H18V18.5C18 18.7764 17.7764 19 17.5 19C17.2236 19 17 18.7764 17 18.5V17H15.5C15.2236 17 15 16.7764 15 16.5C15 16.2236 15.2236 16 15.5 16H17V14.5C17 14.2236 17.2236 14 17.5 14C17.7764 14 18 14.2236 18 14.5V16Z" "/>
<path fill-rule="evenodd" clip-rule="evenodd" d="M17.9642 6.67792C17.9947 7.34857 18.1255 9.68695 18.5295 12.1301C20.5143 12.5984 22 14.3742 22 16.5C22 18.9814 19.9814 21 17.5 21C16.6358 21 15.8354 20.7432 15.1492 20.3193C11.9173 20.7069 8.75482 20.98 8.54248 20.998C8.52832 20.999 8.51416 21 8.5 21C8.31885 21 8.15039 20.9014 8.06201 20.7412C8.00305 20.634 7.94043 20.4954 7.87634 20.3424C7.76758 20.0828 7.65295 19.756 7.53558 19.3681C6.87268 17.1771 6.13702 12.9787 6.01459 7.18427C5.85803 7.23743 5.68524 7.29639 5.5011 7.35925C5.5119 13.6318 5.948 18.321 6.30652 19.473C6.33765 19.5729 6.36835 19.6558 6.39795 19.7012C6.54492 19.9268 6.49707 20.2402 6.27783 20.3955C6.18652 20.4609 6.08203 20.4922 5.97998 20.4922C5.91296 20.4922 5.8476 20.4756 5.78638 20.4484C5.77728 20.4444 5.76918 20.4387 5.76101 20.4331C5.75558 20.4293 5.75012 20.4255 5.74432 20.4222C5.70184 20.3975 5.66284 20.3659 5.62811 20.3269C5.62434 20.3227 5.61984 20.3197 5.61534 20.3167C5.61022 20.3133 5.6051 20.3099 5.60107 20.3047C5.59655 20.2988 5.59228 20.2897 5.58799 20.2806C5.58424 20.2726 5.58047 20.2646 5.57654 20.2587C5.56965 20.2484 5.56295 20.235 5.55626 20.2216C5.55169 20.2124 5.54711 20.2032 5.54248 20.1951L5.53771 20.1867C5.50634 20.1314 5.47506 20.0762 5.44543 20C5.35107 19.7574 5.26495 19.4166 5.18628 19C4.71857 16.5231 4.52106 11.3424 4.50232 7.69977C4.29388 7.77051 4.12384 7.82782 4 7.86871V19.5C4 19.7764 3.77637 20 3.5 20C3.22363 20 3 19.7764 3 19.5V7.53711C3 7.5337 3.00093 7.53059 3.00187 7.52749C3.00274 7.5246 3.00361 7.5217 3.00372 7.51855C3.00361 7.51541 3.00274 7.51251 3.00187 7.50962C3.00093 7.50652 3 7.50341 3 7.5V4.5C3 4.2627 3.16553 4.06396 3.38721 4.0127C3.47208 3.98711 3.76024 3.88825 4.12447 3.76329C4.19822 3.73799 4.27508 3.71162 4.354 3.68457C6.34961 3 6.37549 3 6.5 3H17.5C17.7764 3 18 3.22363 18 3.5V6.5C18 6.56311 17.9855 6.62231 17.9642 6.67792ZM4.98193 6.47998C5.47424 6.31189 5.78729 6.20508 6 6.13409V4.18042C5.60784 4.3119 5.10434 4.48448 4.72634 4.61405L4.62091 4.65023C4.34805 4.74397 4.14841 4.81256 4 4.86279V6.81445C4.28711 6.71777 4.63965 6.59717 4.98193 6.47998ZM17 4H7V6H17V4ZM7.01068 7C7.14417 14.0518 8.18951 18.5203 8.80176 19.9717C9.61841 19.8986 11.7791 19.6984 14.1143 19.4319C13.4294 18.6422 13 17.625 13 16.5C13 14.0204 15.0157 12.0036 17.4946 12.0005C17.1594 9.87585 17.0251 7.89325 16.9787 7H7.01068ZM14 16.5C14 18.4297 15.5703 20 17.5 20C19.4297 20 21 18.4297 21 16.5C21 14.5703 19.4297 13 17.5 13C15.5703 13 14 14.5703 14 16.5Z" "/>
</svg>
