<svg  viewBox="0 0 24 24"  xmlns="http://www.w3.org/2000/svg">
<path fill-rule="evenodd" clip-rule="evenodd" d="M21.8556 19.5536C21.3135 17.7706 17.9178 16.6924 15.5177 16.403C15.4906 16.3942 15.4621 16.3906 15.4337 16.3925C15.2763 16.3745 15.1233 16.3602 14.9756 16.349L14.9778 14.7827C15.2925 14.2635 15.5346 13.7037 15.6976 13.1189C16.5644 12.7927 16.7158 11.3659 16.7166 10.5756C17.4844 9.12627 17.6268 7.55022 17.2527 5.96442C16.952 4.68903 16.3237 3.06424 15.1323 2.35869C14.8586 2.19673 14.546 2.09851 14.225 2.124C13.9221 2.148 13.6687 2.32495 13.3718 2.36768C13.1064 2.40517 12.8327 2.3272 12.5688 2.30245C12.1639 2.26482 11.7563 2.27035 11.3526 2.31895C9.69708 2.52364 8.16226 3.50361 7.35699 4.9762C6.44825 6.63848 6.6117 8.59992 7.27451 10.3139L7.29476 10.3657C7.27301 10.8515 7.31725 11.3486 7.44621 11.818C7.57518 12.2874 7.80611 12.9277 8.30547 13.1174C8.46895 13.6981 8.71193 14.2535 9.02752 14.7677L9.02977 16.349C8.87955 16.3603 8.72956 16.3746 8.57989 16.3917C8.54545 16.3893 8.51086 16.3933 8.47792 16.4037C7.20628 16.5582 5.93314 16.8686 4.74998 17.3634C3.79625 17.7631 2.64907 18.3562 2.21944 19.3631C1.97126 19.9442 1.97276 20.6363 2.03499 21.2556C2.04999 21.4011 2.05599 21.572 2.12047 21.7062C2.18828 21.8448 2.31599 21.9445 2.46687 21.9767C2.61774 22.0089 2.77504 21.97 2.8935 21.8712C3.22491 21.5893 2.98947 20.8447 3.00822 20.4691C3.03671 19.8872 3.22116 19.4793 3.66953 19.1105C4.88569 18.108 6.67393 17.6731 8.196 17.4452C8.66462 19.1892 10.024 20.643 11.4561 21.68C11.783 21.9162 12.0492 22.0234 12.4121 21.7722C12.9729 21.3802 13.4942 20.9344 13.9686 20.4413C14.7859 19.5978 15.4937 18.5908 15.8019 17.4444C16.9738 17.6191 18.1517 17.9355 19.2261 18.4416C19.9204 18.7685 20.7842 19.2267 20.9469 20.0477C21.0331 20.4833 20.9851 20.9077 20.9506 21.3433C20.9207 21.7182 21.1681 22.1201 21.6045 21.9604C21.9359 21.8397 21.9486 21.4783 21.9749 21.1821C22.0228 20.6415 22.0123 20.0762 21.8526 19.5536H21.8556ZM7.73863 8.02484C7.60967 6.53651 8.11578 5.5138 8.61213 4.88997C8.49517 5.03693 8.42319 5.12765 8.61288 4.88922C9.33343 3.98423 10.4304 3.41514 11.5775 3.30042C12.1046 3.24794 12.5973 3.34541 13.1184 3.37465C13.3418 3.3874 13.557 3.3604 13.7722 3.30042C14.0683 3.21794 14.297 3.04324 14.5962 3.2007C15.4075 3.62808 15.8656 4.81349 16.1228 5.62776C16.4362 6.61973 16.5981 7.74067 16.3454 8.76488C16.1204 7.79459 15.6785 6.8879 15.0528 6.11288C14.9029 5.92768 14.7342 5.672 14.4852 5.62176C14.2865 5.58128 14.1088 5.69 13.9296 5.75598C13.5434 5.89708 13.1408 5.98829 12.7315 6.0274C11.687 6.13312 10.6598 6.04465 9.64309 6.3738C8.80708 6.64448 8.04829 7.16858 7.73863 8.02484ZM8.62788 12.0984C8.61778 12.0819 8.60901 12.0646 8.60164 12.0467C8.28823 11.4746 8.13677 10.5209 8.3797 9.91055C8.65112 9.7456 8.61438 9.46518 8.59264 9.19525C8.56715 8.8721 8.58439 8.54894 8.72535 8.25127C8.97503 7.72417 9.52388 7.44825 10.0585 7.29154C11.4321 6.88966 12.8852 7.20157 14.2468 6.70446C14.7 7.25953 15.0438 7.89562 15.2598 8.57893C15.3287 8.79187 15.3902 9.01156 15.4202 9.23349C15.4532 9.47718 15.406 9.72386 15.6332 9.89406C15.6729 9.99528 15.7089 10.2135 15.7186 10.4811C15.7381 11.0157 15.6669 11.6298 15.3872 12.0984C14.9328 12.0325 14.8459 12.4463 14.7566 12.7747C14.6167 13.3078 14.3992 13.8173 14.1111 14.2871C14.0727 14.3283 14.0416 14.3757 14.0189 14.4273C13.5532 15.1081 12.8522 15.6254 11.9997 15.6284C11.1262 15.6314 10.4236 15.0796 9.9625 14.3778C9.65164 13.89 9.41654 13.3578 9.2652 12.7995C9.17223 12.4681 9.092 12.0287 8.62788 12.0984ZM12.0012 20.8357C11.3534 20.3559 9.73382 19.0212 9.20897 17.338C9.56362 17.3177 10.033 17.3057 10.0322 16.8236L10.0307 15.9209C11.1826 16.8433 12.8187 16.8489 13.9769 15.9344L13.9754 16.8228C13.9746 17.302 14.4395 17.317 14.7934 17.3372C14.2678 19.0205 12.649 20.3551 12.0004 20.835L12.0012 20.8357Z" />
</svg>
