<svg viewBox="0 0 24 24" fill="none" xmlns="http://www.w3.org/2000/svg">
<rect x="0" y="0" width="32" height="32" fill="#FFCC01"/>
<g clip-path="url(#clip0_1022_15)">
<path d="M1 13.775H3.61L3.46 13.985H1V13.775Z" fill="#D40511"/>
<path d="M22.525 13.985H19.33L19.495 13.775H22.54V13.985H22.525Z" fill="#D40511"/>
<path d="M1 13.385H3.91L3.745 13.595H1V13.385Z" fill="#D40511"/>
<path d="M1 12.995H4.21L4.045 13.205H1V12.995Z" fill="#D40511"/>
<path d="M22.525 13.595H19.63L19.795 13.385H22.54V13.595H22.525Z" fill="#D40511"/>
<path d="M20.08 12.995H22.525V13.205H19.915L20.08 12.995Z" fill="#D40511"/>
<path d="M3.82001 13.985L5.20001 12.14C5.20001 12.14 6.73001 12.14 6.91001 12.14C7.10501 12.14 7.10501 12.215 7.00001 12.335C6.91001 12.455 6.74501 12.68 6.65501 12.8C6.61001 12.875 6.52001 12.98 6.80501 12.98C7.12001 12.98 9.10001 12.98 9.10001 12.98C8.92001 13.25 8.29001 14 7.18001 14C6.28001 13.985 3.82001 13.985 3.82001 13.985Z" fill="#D40511"/>
<path d="M11.725 12.995L10.975 14H9.01001L9.76001 12.995H11.725Z" fill="#D40511"/>
<path d="M14.59 12.995L13.84 14H11.86L12.61 12.995H14.59Z" fill="#D40511"/>
<path d="M15.235 12.995C15.235 12.995 15.085 13.19 15.025 13.28C14.77 13.61 14.995 14 15.805 14C16.735 14 18.985 14 18.985 14L19.735 12.995H15.235Z" fill="#D40511"/>
<path d="M4.79501 11L4.10501 11.915C4.10501 11.915 7.66001 11.915 7.85501 11.915C8.05001 11.915 8.05001 11.99 7.94501 12.11C7.85501 12.23 7.69001 12.455 7.60001 12.575C7.55501 12.635 7.46501 12.755 7.75001 12.755C8.06501 12.755 9.28001 12.755 9.28001 12.755C9.28001 12.755 9.53501 12.425 9.73001 12.14C10.015 11.765 9.76001 10.985 8.75501 10.985C7.85501 11 4.79501 11 4.79501 11Z" fill="#D40511"/>
<path d="M14.755 12.755H9.92499L11.245 11H13.225L12.475 12.005H13.36L14.11 11H16.09L14.755 12.755Z" fill="#D40511"/>
<path d="M18.82 11L17.5 12.755H15.4L16.72 11H18.82Z" fill="#D40511"/>
</g>
<defs>
<clipPath id="clip0_1022_15">
<rect width="21.525" height="3" fill="white" transform="translate(1 11)"/>
</clipPath>
</defs>
</svg>
