<svg  viewBox="0 0 24 24"  xmlns="http://www.w3.org/2000/svg">
<path d="M8.50003 5H14.5C14.7764 5 15 4.77637 15 4.5C15 4.22363 14.7764 4 14.5 4H8.50003C8.22366 4 8.00003 4.22363 8.00003 4.5C8.00003 4.77637 8.22366 5 8.50003 5Z" "/>
<path d="M8.50003 14C8.7764 14 9.00003 13.7764 9.00003 13.5V11C9.00003 10.7236 8.7764 10.5 8.50003 10.5C8.22366 10.5 8.00003 10.7236 8.00003 11V13.5C8.00003 13.7764 8.22366 14 8.50003 14Z" "/>
<path d="M11 9C11 8.72363 11.2237 8.5 11.5 8.5C11.7764 8.5 12 8.72363 12 9V13.5C12 13.7764 11.7764 14 11.5 14C11.2237 14 11 13.7764 11 13.5V9Z" "/>
<path d="M14.5 6.5C14.2237 6.5 14 6.72363 14 7V13.5C14 13.7764 14.2237 14 14.5 14C14.7764 14 15 13.7764 15 13.5V7C15 6.72363 14.7764 6.5 14.5 6.5Z" "/>
<path fill-rule="evenodd" clip-rule="evenodd" d="M18 2.49658V15.9966C18 16.2729 17.7764 16.4966 17.5 16.4966H15.2943L17.937 21.2539C18.0713 21.4951 17.9844 21.7998 17.7427 21.9336C17.666 21.9766 17.5825 21.9966 17.5005 21.9966C17.3247 21.9966 17.1543 21.9038 17.063 21.7393L14.1506 16.4966H12V19.9966C12 20.2729 11.7764 20.4966 11.5 20.4966C11.2237 20.4966 11 20.2729 11 19.9966V16.4966H8.84945L5.93703 21.7393C5.84573 21.9038 5.67532 21.9966 5.49953 21.9966C5.4175 21.9966 5.33401 21.9766 5.25735 21.9336C5.01565 21.7998 4.92873 21.4951 5.06301 21.2539L7.70577 16.4966H5.50002C5.22366 16.4966 5.00002 16.2729 5.00002 15.9966V2.49658C5.00002 2.22021 5.22366 1.99658 5.50002 1.99658H17.5C17.7764 1.99658 18 2.22021 18 2.49658ZM6.00002 15.4966H17V2.99658H6.00002V15.4966Z" "/>
</svg>
