<svg  viewBox="0 0 24 24"  xmlns="http://www.w3.org/2000/svg">
<path d="M21.5088 7.01074H18.4902C18.2139 7.01074 17.9902 7.23438 17.9902 7.51074V7.97656H15.8633L14.3203 7.30225C12.9414 6.81299 12.0264 7.27637 11.5117 7.74268L11.3287 7.89923L11.1455 7.72314C10.457 7.10596 9.68262 6.94922 8.83301 7.25684L6.91797 7.97656H6.02051V7.51074C6.02051 7.23438 5.79688 7.01074 5.52051 7.01074H2.50879C2.23242 7.01074 2.00879 7.23438 2.00879 7.51074V14.502C2.00879 14.7783 2.23242 15.002 2.50879 15.002H5.52051C5.79688 15.002 6.02051 14.7783 6.02051 14.502V13.7246H6.79688L9.41602 16.4224C9.63965 16.6738 10.0312 16.9189 10.4639 16.9189C10.7168 16.9189 10.9844 16.8345 11.2393 16.6187C11.3311 16.5415 11.4307 16.4404 11.5166 16.3159C11.958 16.5972 12.5664 16.6519 13.0576 16.2358C13.2031 16.1133 13.3164 15.9805 13.3975 15.8384C13.7998 16.0361 14.3604 16.0762 14.8291 15.6655C15.0049 15.5112 15.1299 15.3403 15.2041 15.1558C15.6338 15.3545 16.1943 15.4165 16.6709 14.9556C16.9443 14.6909 17.0859 14.3906 17.0918 14.0625C17.0935 13.95 17.0735 13.8375 17.0419 13.7246H17.9902V14.502C17.9902 14.7783 18.2139 15.002 18.4902 15.002H21.5088C21.7852 15.002 22.0088 14.7783 22.0088 14.502V7.51074C22.0088 7.23438 21.7852 7.01074 21.5088 7.01074ZM5.02051 14.002H3.00879V8.01074H5.02051V14.002ZM15.9756 14.2363C15.7705 14.4375 15.374 14.0845 15.3643 14.0752L14.4307 13.2368C14.2275 13.0562 13.9199 13.0679 13.7334 13.2651C13.5469 13.4619 13.5518 13.7715 13.7432 13.9629C14.2373 14.4551 14.2852 14.6748 14.2822 14.7466C14.2812 14.793 14.2432 14.8491 14.1689 14.9136C13.9746 15.085 13.7617 14.8911 13.7588 14.8896C13.6465 14.7798 13.2998 14.4146 13.0918 14.1899C13.0332 14.1182 12.9697 14.0449 12.9004 13.9702C12.7764 13.8374 12.5908 13.7827 12.4141 13.8257C12.2383 13.8691 12.0986 14.0049 12.0518 14.1802C11.999 14.373 11.9736 14.4673 12.3984 14.9312C12.542 15.1362 12.5518 15.2437 12.5498 15.2783C12.5459 15.333 12.5 15.3979 12.4121 15.4722C12.2217 15.6338 12.0068 15.4399 11.9844 15.418C11.7627 15.2026 11.4043 14.7852 11.3516 14.7217C11.2637 14.6108 11.1328 14.5415 10.9902 14.5327C10.8594 14.5244 10.7002 14.5791 10.5977 14.6855C10.3623 14.9316 10.4209 15.1738 10.6553 15.4741C10.7861 15.6919 10.7178 15.7495 10.5928 15.8555C10.4258 15.9946 10.251 15.8516 10.1484 15.7422L7.36719 12.8765C7.27344 12.7793 7.14355 12.7246 7.00879 12.7246H6.02051V8.97656H7.00879C7.06934 8.97656 7.12891 8.96582 7.18457 8.94482L9.17969 8.19482C9.67578 8.01416 10.0645 8.09619 10.4648 8.45557L10.5655 8.55243L9.35547 9.58789C9.04492 9.83887 8.85059 10.2109 8.82227 10.6089C8.79297 11.0068 8.93164 11.4028 9.20215 11.6968C9.72656 12.2637 10.6006 12.3218 11.1709 11.8442L12.7568 10.6714L15.7678 13.5555C15.7809 13.5703 15.7947 13.583 15.8095 13.5961C16.0659 13.8613 16.0928 13.9998 16.0918 14.0469C16.0908 14.1123 16.0283 14.186 15.9756 14.2363ZM17.9902 12.7246H16.3447L13.1445 9.65771C12.9697 9.48779 12.6943 9.47168 12.502 9.6167L10.5537 11.0586C10.3691 11.2109 10.0986 11.1943 9.9375 11.0186C9.85254 10.9263 9.81055 10.8066 9.81934 10.6816C9.82812 10.5562 9.8877 10.4434 9.99512 10.356L12.1719 8.49316C12.6572 8.05469 13.2324 7.97803 13.9521 8.23145L15.5586 8.93457C15.6211 8.9624 15.6895 8.97656 15.7588 8.97656H17.9902V12.7246ZM21.0088 14.002H18.9902V8.01074H21.0088V14.002Z" "/>
</svg>
