<svg  viewBox="0 0 24 24"  xmlns="http://www.w3.org/2000/svg">
<path d="M13 9H11C10.7236 9 10.5 8.77637 10.5 8.5C10.5 8.22363 10.7236 8 11 8H13C13.2764 8 13.5 8.22363 13.5 8.5C13.5 8.77637 13.2764 9 13 9Z" "/>
<path fill-rule="evenodd" clip-rule="evenodd" d="M15.995 13.4297C15.9999 13.4629 16.0008 13.4971 15.9989 13.5313L15.5018 21.5313C15.5011 21.5432 15.4974 21.554 15.4938 21.5647C15.4911 21.5726 15.4884 21.5805 15.4869 21.5888C15.4477 21.8259 15.2511 22.0098 15.0028 22.0098H8.98083C8.72558 22.0098 8.52349 21.8162 8.49285 21.5693C8.49191 21.5631 8.4897 21.5573 8.4875 21.5516C8.48488 21.5447 8.48227 21.5378 8.48181 21.5303L8.00085 13.5303C7.9989 13.4961 8.00036 13.4629 8.00476 13.4297L9.00476 6.42973C9.01287 6.37266 9.0324 6.32011 9.05761 6.27134C9.02184 6.21385 8.99432 6.15055 8.98425 6.07914L8.50476 2.6602C8.50339 2.65063 8.50467 2.64155 8.50595 2.63243C8.50696 2.6252 8.50798 2.61796 8.50768 2.61045C8.50634 2.57591 8.50799 2.54319 8.51373 2.50913C8.5191 2.47703 8.52691 2.44743 8.53826 2.41752C8.54907 2.38865 8.56207 2.3621 8.57836 2.33531C8.5968 2.30485 8.61773 2.27824 8.64215 2.25242C8.64719 2.24707 8.65108 2.24106 8.65497 2.23506C8.65982 2.22756 8.66466 2.22008 8.67175 2.21391C8.67781 2.20851 8.68481 2.20524 8.69182 2.20195C8.69758 2.19925 8.70335 2.19655 8.70861 2.19267C8.73498 2.17332 8.76257 2.15818 8.79272 2.14414C8.82604 2.12858 8.85851 2.11631 8.89385 2.10862C8.89983 2.1073 8.90523 2.10488 8.91063 2.10246C8.91698 2.09961 8.92331 2.09677 8.93054 2.09574C8.93866 2.09471 8.94638 2.09585 8.95412 2.09699C8.96051 2.09794 8.96691 2.09889 8.97357 2.09861C9.01348 2.09648 9.05145 2.09904 9.09075 2.10649C9.1159 2.11131 9.13928 2.11747 9.16308 2.12589C9.19805 2.13822 9.23004 2.15391 9.26202 2.17411C9.28814 2.19047 9.31097 2.2086 9.33367 2.22941C9.33959 2.23488 9.34617 2.23918 9.35274 2.24347C9.36127 2.24906 9.36979 2.25463 9.37683 2.26273L11.9962 5.27073L14.6229 2.26176C14.6324 2.25095 14.6439 2.2435 14.6554 2.23603C14.6633 2.2309 14.6712 2.22576 14.6785 2.21952C14.6949 2.20561 14.7108 2.19297 14.7289 2.18119C14.7667 2.15641 14.8049 2.13749 14.8469 2.12394C14.8671 2.11711 14.8867 2.11241 14.9076 2.10807C14.946 2.10087 14.9829 2.09757 15.0218 2.09934C15.029 2.09951 15.036 2.09843 15.043 2.09736C15.0516 2.09602 15.0603 2.09469 15.0692 2.09574C15.0778 2.09695 15.0854 2.10034 15.093 2.10373C15.0992 2.10651 15.1054 2.10929 15.1122 2.11088C15.1444 2.11826 15.174 2.1295 15.2045 2.14329C15.2352 2.15733 15.2634 2.17234 15.2902 2.19193C15.2958 2.19592 15.3018 2.19873 15.3078 2.20153C15.3152 2.20496 15.3226 2.20837 15.329 2.21391C15.3367 2.2206 15.3419 2.22874 15.3472 2.23689C15.3513 2.24324 15.3554 2.2496 15.3607 2.25529C15.3832 2.27952 15.4025 2.3043 15.4198 2.33244C15.4374 2.36106 15.4514 2.38957 15.4628 2.42063C15.4732 2.44883 15.4805 2.47672 15.4857 2.50688C15.4919 2.54234 15.4936 2.57646 15.4921 2.61247C15.4918 2.61971 15.4928 2.62669 15.4938 2.63366C15.495 2.64236 15.4963 2.65104 15.495 2.6602L15.0155 6.07914C15.0054 6.15055 14.9779 6.21385 14.9421 6.27134C14.9673 6.32011 14.9869 6.37266 14.995 6.42973L15.995 13.4297ZM11.4999 16C11.4999 15.7237 11.7235 15.5 11.9999 15.5C12.2762 15.5 12.4999 15.7237 12.4999 16V21.0098H14.5323L14.9979 13.5205L14.7807 12H9.21905L9.00183 13.5205L9.4522 21.0098H11.4999V16ZM12.6871 6.00004H14.0289C14.029 5.99143 14.0279 5.98307 14.0267 5.97472C14.0252 5.96348 14.0236 5.95227 14.0253 5.94047L14.2714 4.18589L12.6871 6.00004ZM11.306 6.00004L9.72882 4.189L9.97448 5.94047C9.97613 5.95228 9.9746 5.9635 9.97306 5.97475C9.97193 5.98309 9.97079 5.99144 9.97094 6.00004H11.306ZM14.0663 7.00004H9.93347L9.36193 11H14.6378L14.0663 7.00004Z" "/>
</svg>
