<svg  viewBox="0 0 24 24"  xmlns="http://www.w3.org/2000/svg">
<path d="M5.93121 10.5547H5.92926C5.7276 10.5605 5.49908 10.5859 5.33355 10.7392C4.74176 11.2851 3.98785 13.4033 3.9981 14.9043C4.00641 16.1582 4.72223 16.875 5.96344 16.875H5.98443C6.53668 16.8711 6.98687 16.7275 7.32184 16.4482C7.73932 16.0986 7.94879 15.5713 7.94391 14.8789C7.93365 13.3496 7.07916 11.249 6.54986 10.7412C6.41656 10.6123 6.23101 10.5547 5.93121 10.5547ZM6.68072 15.6806C6.52838 15.8076 6.29205 15.873 5.9776 15.875C5.28082 15.8945 5.0025 15.5967 4.9981 14.8984C4.9898 13.6533 5.61871 12.0146 5.93805 11.5625C6.27447 12.0439 6.9356 13.6865 6.94391 14.8857C6.94684 15.2646 6.85797 15.5322 6.68072 15.6806ZM12.1153 6.1445C12.1622 5.96481 12.1216 5.77439 11.9791 5.51853C11.836 5.27146 11.7027 5.14157 11.5294 5.082C10.7657 4.83005 8.54303 5.18747 7.2315 5.91794C6.62603 6.25583 6.26959 6.69821 6.17193 7.23337C6.09332 7.66208 6.19 8.12399 6.45953 8.60642C6.8565 9.31638 7.4107 9.68161 8.0523 9.68161C8.39752 9.68161 8.76812 9.57614 9.15387 9.3613C10.4893 8.61716 11.9219 6.85837 12.1153 6.1445ZM7.33258 8.11814C7.17926 7.8447 7.11969 7.60739 7.15533 7.41306C7.19684 7.18552 7.38629 6.97653 7.71832 6.79099C8.69732 6.24606 10.2061 5.99899 10.898 5.99899C10.9761 5.99899 11.0445 6.00192 11.0997 6.00778C10.8384 6.53415 9.7149 7.90427 8.66705 8.48825C8.05572 8.82712 7.66803 8.72067 7.33258 8.11814ZM17.9927 10.0058C18.6251 10.0058 19.1724 9.64743 19.5665 8.94919V8.94821C19.835 8.47165 19.9322 8.01462 19.855 7.58884C19.7593 7.05856 19.4063 6.61814 18.8067 6.28122C17.4844 5.53708 15.2559 5.23435 14.5606 5.43649C14.3306 5.50192 14.2017 5.6904 14.1089 5.85739C13.9815 6.08493 13.9068 6.27927 13.9556 6.48728C14.1373 7.26364 15.5933 8.95212 16.8907 9.68161C17.2764 9.89841 17.647 10.0058 17.9927 10.0058ZM14.9747 6.37595C15.5689 6.33981 17.2867 6.57321 18.3165 7.15231C18.6441 7.33689 18.8306 7.54392 18.8712 7.76657C18.9053 7.957 18.8462 8.18942 18.6954 8.45798C18.3629 9.04587 17.9815 9.14743 17.3809 8.81052C16.314 8.20993 15.2188 6.88083 14.9747 6.37595ZM9.36676 13.0879C9.60601 13.1894 10.003 13.2392 10.4766 13.2392C11.4571 13.2392 12.7667 13.0254 13.6802 12.6103C14.2481 12.3535 14.6231 11.9931 14.794 11.539C14.9639 11.0869 14.9224 10.5761 14.6705 10.0205L14.67 10.0195C14.1568 8.8906 13.2086 8.5361 12.0684 9.05759C10.6866 9.68259 9.12457 11.2998 8.87506 11.9834C8.79303 12.2099 8.87555 12.4336 8.95025 12.5937C9.05914 12.831 9.17193 13.0058 9.36676 13.0879ZM12.481 9.96774C13.1099 9.68454 13.4796 9.81735 13.7598 10.4336C13.898 10.7392 13.9312 10.9922 13.858 11.1865C13.7842 11.3838 13.5855 11.5566 13.2676 11.7002C12.1529 12.205 10.4322 12.3017 9.87945 12.2002C10.1915 11.6982 11.4048 10.455 12.481 9.96774ZM19.9688 13.08C19.8946 12.3906 19.626 11.8906 19.171 11.5918C18.8067 11.3525 18.3448 11.2617 17.7945 11.3203C17.1793 11.3857 16.712 11.6123 16.4063 11.9922C16.0997 12.372 15.9781 12.8808 16.0455 13.5029C16.2095 15.0215 17.2706 17.0263 17.8506 17.4814C17.9844 17.5859 18.1387 17.6103 18.2652 17.6103C18.336 17.6103 18.398 17.6025 18.4429 17.5967C18.668 17.5752 18.9009 17.539 19.0582 17.3593C19.5923 16.7549 20.1295 14.5713 19.9688 13.08ZM18.3755 16.5986C18.3746 16.5996 18.3736 16.5996 18.3731 16.5996C17.9893 16.1513 17.168 14.5859 17.0396 13.3955C17.002 13.0468 17.0508 12.7851 17.1846 12.6191C17.3184 12.4541 17.5591 12.3515 17.9009 12.3144H17.9014C17.9752 12.3066 18.0455 12.3027 18.1114 12.3027C18.3243 12.3027 18.4957 12.3447 18.6221 12.4277C18.815 12.5537 18.9337 12.8095 18.9747 13.1875C19.1104 14.4463 18.6544 16.1103 18.3755 16.5986ZM14.3629 14.3515C13.5987 14.1084 11.3795 14.5009 10.0782 15.2529C8.98639 15.8838 8.72027 16.8672 9.34674 17.9521C9.34706 17.9521 9.34723 17.9524 9.34723 17.9531C9.74957 18.6474 10.2994 19.0039 10.9297 19.0039C11.2828 19.0039 11.6607 18.8916 12.0528 18.665C13.3765 17.9013 14.7818 16.1211 14.9634 15.4072C15.0294 15.1474 14.8931 14.9228 14.8301 14.8193C14.7237 14.6299 14.5914 14.4228 14.3629 14.3515ZM11.5523 17.7998C10.9473 18.1484 10.5587 18.0488 10.2129 17.4521C9.86773 16.8545 9.9732 16.4677 10.5782 16.1181C11.6544 15.497 13.3902 15.2353 13.9449 15.2842L13.9454 15.2851C13.69 15.8174 12.5899 17.2011 11.5523 17.7998Z" />
</svg>
