<svg  viewBox="0 0 24 24"  xmlns="http://www.w3.org/2000/svg">
<path d="M9.5 11.5195C10.603 11.5195 11.5 10.5103 11.5 9.26953C11.5 8.02881 10.603 7.01953 9.5 7.01953C8.39697 7.01953 7.5 8.02881 7.5 9.26953C7.5 10.5103 8.39697 11.5195 9.5 11.5195ZM9.5 8.01953C10.0513 8.01953 10.5 8.58008 10.5 9.26953C10.5 9.95898 10.0513 10.5195 9.5 10.5195C8.94873 10.5195 8.5 9.95898 8.5 9.26953C8.5 8.58008 8.94873 8.01953 9.5 8.01953ZM14.5 12.5005C13.397 12.5005 12.5 13.5098 12.5 14.7505C12.5 15.9912 13.397 17.0005 14.5 17.0005C15.603 17.0005 16.5 15.9912 16.5 14.7505C16.5 13.5098 15.603 12.5005 14.5 12.5005ZM14.5 16.0005C13.9487 16.0005 13.5 15.4399 13.5 14.7505C13.5 14.061 13.9487 13.5005 14.5 13.5005C15.0513 13.5005 15.5 14.061 15.5 14.7505C15.5 15.4399 15.0513 16.0005 14.5 16.0005ZM15.8071 7.10596C15.5889 6.93555 15.2754 6.97607 15.1055 7.19336L8.10547 16.1934C7.93555 16.4116 7.9751 16.7256 8.19287 16.895C8.28418 16.9663 8.39258 17.0005 8.49951 17.0005C8.64844 17.0005 8.7959 16.9341 8.89453 16.8076L15.8945 7.80762C16.0645 7.58936 16.0249 7.27539 15.8071 7.10596ZM12 3C7.0376 3 3 7.0376 3 12C3 16.9624 7.0376 21 12 21C16.9624 21 21 16.9624 21 12C21 7.0376 16.9624 3 12 3ZM12 20C7.58887 20 4 16.4111 4 12C4 7.58887 7.58887 4 12 4C16.4111 4 20 7.58887 20 12C20 16.4111 16.4111 20 12 20Z" />
</svg>
