<svg  viewBox="0 0 24 24"  xmlns="http://www.w3.org/2000/svg">
<path d="M17.6879 8.70699C17.4323 8.60371 17.1411 8.72706 17.0377 8.98355L12.7338 19.673C12.4577 20.3597 11.9929 20.7841 11.3515 20.9344C10.7359 21.0798 9.96481 20.976 9.11613 20.6329C8.28073 20.2942 6.42003 19.3034 7.17653 17.4204C7.17659 17.4202 7.17677 17.4201 7.17683 17.4199L12.6031 3.94232C12.9128 3.17383 13.7878 2.80035 14.5536 3.11117C14.9228 3.26096 15.2125 3.5478 15.3696 3.91932C15.5266 4.29035 15.5305 4.69858 15.3818 5.06863L10.1428 18.0812C10.0394 18.3381 10.1628 18.6304 10.4184 18.7337C10.4799 18.7586 10.5433 18.7704 10.6057 18.7704C10.8033 18.7704 10.9901 18.6519 11.0686 18.4571L16.3075 5.44456C16.5568 4.82585 16.5499 4.14497 16.289 3.52724C16.0276 2.9095 15.5442 2.43176 14.9282 2.18213C13.6507 1.66572 12.1929 2.28492 11.6773 3.5664L6.25133 17.0433C6.25114 17.0438 6.25078 17.044 6.25059 17.0444C5.50238 18.9045 6.45691 20.6358 8.74934 21.5648C9.46097 21.8536 10.1472 22 10.7735 22C11.0549 22 11.3252 21.9701 11.5793 21.9104C12.5416 21.6848 13.261 21.0406 13.66 20.0484L17.9634 9.35948C18.0668 9.1025 17.9434 8.81027 17.6879 8.70699Z" />
</svg>
