<svg  viewBox="0 0 24 24"  xmlns="http://www.w3.org/2000/svg">
<path d="M21.5 21H18.5961C18.2515 20.2545 17.1135 18.3826 14.2715 17.7139L14.0468 10.6202C15.1118 11.8475 16.2716 13.522 17.3223 15.7978C17.3273 15.8087 17.3389 15.8129 17.3446 15.8232C17.3845 15.8961 17.436 15.9614 17.5067 16.007C17.5087 16.0082 17.5097 16.0105 17.5117 16.0117C17.5673 16.0465 17.6304 16.0712 17.6992 16.082C17.7252 16.0859 17.7501 16.0876 17.776 16.0878C17.7761 16.0878 17.7762 16.0879 17.7764 16.0879C17.7764 16.0879 17.7766 16.0878 17.7766 16.0878C17.7769 16.0878 17.7771 16.0879 17.7773 16.0879C17.8455 16.0879 17.9096 16.0711 17.9698 16.0456C17.9752 16.0433 17.981 16.0444 17.9863 16.042C18.0024 16.0345 18.0126 16.0207 18.0275 16.0118C18.062 15.9913 18.0943 15.9697 18.1229 15.9416C18.1412 15.9236 18.1555 15.9044 18.1706 15.8841C18.1923 15.8554 18.2108 15.8259 18.226 15.7925C18.2373 15.7676 18.2454 15.743 18.2525 15.7167C18.2574 15.6988 18.2675 15.6838 18.2705 15.665C18.5137 14.1064 18.9502 11.3125 16.9658 8.55762C18.3818 8.41894 19.7246 8.49023 20.8838 8.7666C21.0635 8.80664 21.2637 8.74609 21.3848 8.59961C21.5068 8.45215 21.5342 8.24902 21.4561 8.07519C20.4873 5.91894 17.5654 4.93164 14.5527 5.68262C13.0947 2.98144 9.65869 1.36328 6.96973 2.19433C6.76855 2.25586 6.62744 2.43847 6.61768 2.64844C6.60791 2.85937 6.73145 3.05371 6.92627 3.13379C7.77783 3.48602 8.8183 4.10443 9.6861 4.93744C9.69055 4.94476 9.69714 4.95086 9.70203 4.95801C6.98877 4.44269 3.86627 5.63629 2.56494 7.93652C2.46533 8.1123 2.48145 8.33008 2.60547 8.48926C2.72949 8.64941 2.93604 8.71582 3.13184 8.66504C4.83594 8.20019 6.08691 8.04101 7.42139 8.0498C5.55518 9.46289 4.0498 11.8193 4.38672 15.0254C4.40918 15.2393 4.56543 15.415 4.7749 15.4619C4.98486 15.5068 5.20068 15.416 5.31152 15.2324C6.75604 12.8417 8.58862 11.2178 10.9669 10.2258L10.7251 17.4834C10.7242 17.5113 10.7349 17.5357 10.7383 17.5625C7.24042 18.0267 5.81946 20.2061 5.41632 21H2.5C2.22363 21 2 21.2236 2 21.5C2 21.7764 2.22363 22 2.5 22H21.5C21.7764 22 22 21.7764 22 21.5C22 21.2236 21.7764 21 21.5 21ZM17.467 13.8646C15.4895 10.2095 13.3043 8.28943 11.9996 7.39392C12.2412 7.37951 12.4885 7.37738 12.7397 7.39453C14.2527 7.49817 15.039 7.94128 15.6996 8.57782C17.2524 10.3707 17.5544 12.1855 17.467 13.8646ZM13.265 17.5391C12.8945 17.4967 12.5088 17.4668 12.0894 17.4668C11.9623 17.4668 11.848 17.4785 11.7253 17.4826L11.9797 9.8446C12.3115 9.73749 12.6605 9.64862 13.0123 9.56256L13.265 17.5391ZM19.8857 7.57715C18.7325 7.44061 17.4704 7.46936 16.1686 7.65179C15.7623 7.29815 15.2488 6.96521 14.5408 6.72656C16.6306 6.1286 18.7347 6.49908 19.8857 7.57715ZM8.81885 3.00097C10.7217 3.1543 12.8892 4.39648 13.833 6.48047C13.8448 6.5069 13.8649 6.52606 13.8806 6.54931C13.556 6.48022 13.2074 6.42395 12.8081 6.39648C12.644 6.38592 12.4858 6.39337 12.3255 6.39471C11.7327 5.51159 10.8818 4.70459 10.5635 4.4176C10.023 3.86633 9.42273 3.3847 8.81885 3.00097ZM4.32666 7.35156C5.93262 5.92969 8.74072 5.2539 10.9546 6.43847C11.0128 6.4696 11.0773 6.46301 11.1404 6.4696C11.1453 6.47565 11.1499 6.48193 11.1548 6.48797C10.2349 6.63843 9.47296 6.9173 9.01984 7.11224C7.3429 7.00146 6.0166 7.01282 4.32666 7.35156ZM5.38672 13.3428C5.68958 10.7906 7.40625 9.03515 9.15179 8.14862C9.35077 8.05212 9.84119 7.83685 10.4874 7.65692C10.6449 7.73144 11.2717 8.05383 12.1435 8.7594C9.34869 9.56842 7.11731 11.0736 5.38672 13.3428ZM6.57648 21C7.20453 20.0692 8.76514 18.4668 12.0894 18.4668C15.4205 18.4668 16.8909 20.0782 17.4614 21H6.57648Z" "/>
</svg>
