<svg  viewBox="0 0 24 24"  xmlns="http://www.w3.org/2000/svg">
<path d="M7.63041 4.9668C7.88307 4.86886 8.01181 4.58754 7.92077 4.33231C7.82973 4.07708 7.55202 3.94074 7.29441 4.0248C5.42563 4.69799 3.89728 6.08029 3.04041 7.8723C2.93478 8.11928 3.04306 8.4056 3.28569 8.52087C3.52832 8.63614 3.81868 8.53921 3.94341 8.3013C4.68619 6.74827 6.0108 5.55031 7.63041 4.9668Z" "/>
<path d="M20.9437 7.8723C20.0866 6.08044 18.5583 4.69821 16.6897 4.0248C16.432 3.94074 16.1543 4.07708 16.0633 4.33231C15.9723 4.58754 16.101 4.86886 16.3537 4.9668C17.9734 5.55002 19.2981 6.74807 20.0407 8.3013C20.1128 8.46995 20.2714 8.58559 20.4541 8.60266C20.6367 8.61973 20.814 8.53549 20.9161 8.38314C21.0183 8.23078 21.0288 8.03475 20.9437 7.8723Z" "/>
<path d="M11.4914 8.17755C11.4914 7.90127 11.7154 7.6773 11.9917 7.6773C12.1243 7.6773 12.2516 7.72926 12.3454 7.82307C12.4392 7.91689 12.4919 8.04413 12.4919 8.1768V13.1673C12.4917 13.3031 12.4365 13.4329 12.3389 13.5273L9.92466 15.8553C9.7967 15.9829 9.60989 16.0315 9.43597 15.9825C9.26205 15.9336 9.12803 15.7947 9.08538 15.6191C9.04274 15.4435 9.09808 15.2586 9.23016 15.1353L11.4914 12.9551V8.17755Z" "/>
<path fill-rule="evenodd" clip-rule="evenodd" d="M4.21941 13.1673C4.21941 8.88205 7.70575 5.39546 11.9909 5.39505C16.2761 5.39546 19.7624 8.88205 19.7624 13.1673C19.7635 15.048 19.0796 16.8647 17.8387 18.2778L19.5922 20.0313C19.787 20.2268 19.787 20.543 19.5922 20.7386C19.4986 20.8324 19.3715 20.8852 19.2389 20.8852C19.1064 20.8852 18.9792 20.8324 18.8857 20.7386L17.1344 18.9873C15.7627 20.2008 13.9619 20.9396 11.9909 20.9396C10.0199 20.9396 8.21916 20.2008 6.84741 18.9873L5.09616 20.7386C4.89753 20.9116 4.5988 20.9013 4.41261 20.7149C4.22642 20.5285 4.21639 20.2298 4.38966 20.0313L6.14316 18.2778C4.94691 16.9106 4.21941 15.1226 4.21941 13.1673ZM5.21991 13.1673C5.21991 9.43305 8.25816 6.39555 11.9917 6.39555C15.7252 6.39555 18.7634 9.43305 18.7634 13.1673C18.7634 16.9016 15.7259 19.9391 11.9917 19.9391C8.25741 19.9391 5.21991 16.9016 5.21991 13.1673Z" "/>
</svg>
