<svg  viewBox="0 0 24 24"  xmlns="http://www.w3.org/2000/svg">
<path d="M20.2377 12.5419C19.8884 11.9604 19.2761 11.5151 18.6004 11.3515C18.1273 11.2366 17.6595 11.2827 17.2517 11.4637C16.7594 11.0461 15.9065 10.4757 14.9075 10.1801C13.9411 9.89485 13.0462 9.75349 12.2147 9.7187C12.0931 9.58796 11.9711 9.45759 11.8323 9.33637C10.542 8.21052 9.19601 7.8736 8.07386 8.0351C8.37904 7.65485 8.70471 7.27668 9.05721 6.90278C10.1969 5.69428 11.4835 5.00337 12.592 5.00337C12.6017 5.00337 12.6115 5.00337 12.6213 5.00385C12.973 5.00752 13.2834 5.08869 13.5274 5.22468C13.0297 6.28986 13.559 7.61848 14.4474 8.23774C15.3451 8.86372 16.7786 9.19038 17.7148 9.19038C17.7412 9.19038 17.767 9.19038 17.7929 9.18989C17.9666 9.18647 18.1261 9.09272 18.2139 8.94282C18.3018 8.79243 18.3052 8.60737 18.2232 8.45405C18.0881 8.20112 17.97 7.88813 17.9285 7.69233C18.1613 7.73481 18.5721 7.8979 18.9053 8.09028C19.099 8.20063 19.3405 8.17133 19.5015 8.01704C19.6615 7.86274 19.7006 7.62104 19.5971 7.42426C18.9131 6.12544 18.0754 5.12446 17.1079 4.44917C16.5673 4.07172 15.8013 3.91792 15.1071 4.04682C14.7555 4.11189 14.4435 4.25227 14.1762 4.44343C13.7611 4.1645 13.2298 4.01032 12.632 4.00385C12.6198 4.00337 12.6071 4.00337 12.5939 4.00337C11.7631 4.00337 10.1379 4.29975 8.33025 6.21626C2.60192 12.2919 2.99272 19.2416 3.01224 19.5346C3.0298 19.7988 3.24935 20.0009 3.51037 20.0009C3.52111 20.0009 3.53233 20.0009 3.54355 19.9999C3.81872 19.9819 4.02705 19.7441 4.00949 19.4687C4.00729 19.4371 3.93313 17.9266 4.40566 15.7481C4.73425 15.0157 6.87463 10.7471 11.7552 10.7186C12.3998 11.588 12.5356 12.5489 12.5148 13.3198C12.1969 13.335 11.876 13.4171 11.5723 13.583C10.961 13.9174 10.4833 14.5068 10.2945 15.1596C9.98127 16.2451 10.1403 17.7763 10.4496 18.6655C10.5072 18.831 10.6468 18.954 10.818 18.9902C10.9873 19.0273 11.1669 18.9711 11.2864 18.8427C11.4771 18.6391 11.7274 18.4321 11.8958 18.3305C11.9299 18.5693 11.906 19.019 11.8294 19.4033C11.786 19.622 11.8919 19.8432 12.0899 19.9453C12.1626 19.9829 12.2412 20.0014 12.3192 20.0014C12.4534 20.0014 12.5856 19.9472 12.6822 19.8447C13.6844 18.7841 14.3601 17.6669 14.6909 16.5248C14.9957 15.4693 14.5365 14.0748 13.4904 13.5342C13.5437 12.5037 13.3702 11.5894 12.9689 10.7977C13.496 10.8668 14.0409 10.9666 14.6245 11.1391C15.421 11.3746 16.0706 11.8015 16.4628 12.1115C15.8567 12.94 15.8452 14.1796 16.3443 15.0097C16.9552 16.0263 17.8944 16.9301 19.1361 17.6953C19.2171 17.7451 19.3073 17.7695 19.3976 17.7695C19.5191 17.7695 19.6396 17.725 19.7342 17.6391C19.8986 17.4897 19.9445 17.2485 19.8464 17.0488C19.6586 16.666 19.5112 16.1938 19.4683 16.0146C19.6532 16.06 19.9728 16.2031 20.226 16.3603C20.3753 16.4526 20.5607 16.4599 20.7163 16.3818C20.872 16.3022 20.9754 16.1474 20.9881 15.9731C21.0584 15.0317 20.8188 13.5092 20.2377 12.5419ZM14.4972 5.50825C14.7089 5.19477 15.0451 5.07514 15.289 5.03022C15.392 5.01118 15.4983 5.0019 15.6047 5.0019C15.9462 5.0019 16.2897 5.09712 16.5361 5.26948C17.0445 5.62397 17.5255 6.10444 17.9602 6.68842C17.6387 6.6601 17.3372 6.727 17.1235 6.96284C16.8566 7.25874 16.884 7.70698 17.0079 8.1313C16.2731 8.01557 15.4852 7.74262 15.0188 7.41743C14.4601 7.02778 14.1025 6.0893 14.4972 5.50825ZM5.39071 12.5889C5.77773 11.6469 6.27855 10.6647 6.91 9.67378C7.64818 8.84382 9.19065 8.65534 10.7521 9.77131C8.32757 10.0645 6.57323 11.3258 5.39071 12.5889ZM13.7307 16.247C13.5585 16.8422 13.2623 17.4497 12.8574 18.0444C12.7818 17.7304 12.6271 17.4672 12.3436 17.3369C12.2412 17.29 12.1343 17.269 12.0265 17.269C11.7518 17.269 11.4669 17.4033 11.2083 17.5825C11.0859 16.8364 11.0951 15.9897 11.2547 15.437C11.3674 15.0473 11.6801 14.664 12.0514 14.4609C12.2451 14.3549 12.5437 14.2485 12.8657 14.3442C13.5673 14.5527 13.9278 15.5649 13.7307 16.247ZM18.817 15.1831C18.5769 15.3828 18.4955 15.6782 18.5042 16.0024C17.9602 15.5332 17.5187 15.0239 17.2006 14.4941C16.8347 13.8852 16.9235 12.8105 17.5485 12.4238C17.7173 12.3193 17.8963 12.2851 18.0583 12.2851C18.1715 12.2851 18.2769 12.3017 18.3652 12.3232C18.774 12.4223 19.1731 12.7109 19.3815 13.0576C19.6776 13.5502 19.904 14.3691 19.9767 15.124C19.5649 14.9765 19.1248 14.9257 18.817 15.1831Z" "/>
</svg>
