<svg  viewBox="0 0 24 24"  xmlns="http://www.w3.org/2000/svg">
<path d="M5 10C3.89746 10 3 10.897 3 12C3 13.103 3.89746 14 5 14C6.10254 14 7 13.103 7 12C7 10.897 6.10254 10 5 10ZM5 13C4.44824 13 4 12.5513 4 12C4 11.4487 4.44824 11 5 11C5.55176 11 6 11.4487 6 12C6 12.5513 5.55176 13 5 13ZM19 10C17.8975 10 17 10.897 17 12C17 13.103 17.8975 14 19 14C20.1025 14 21 13.103 21 12C21 10.897 20.1025 10 19 10ZM19 13C18.4482 13 18 12.5513 18 12C18 11.4487 18.4482 11 19 11C19.5518 11 20 11.4487 20 12C20 12.5513 19.5518 13 19 13ZM12 10C10.8975 10 10 10.897 10 12C10 13.103 10.8975 14 12 14C13.1025 14 14 13.103 14 12C14 10.897 13.1025 10 12 10ZM12 13C11.4482 13 11 12.5513 11 12C11 11.4487 11.4482 11 12 11C12.5518 11 13 11.4487 13 12C13 12.5513 12.5518 13 12 13Z" />
</svg>
