<svg  viewBox="0 0 24 24"  xmlns="http://www.w3.org/2000/svg">
<path fill-rule="evenodd" clip-rule="evenodd" d="M13.0371 8.49951C13.0371 9.53027 11.4819 10 10.0371 10C8.59229 10 7.03711 9.53027 7.03711 8.49951C7.03711 7.46924 8.59229 7 10.0371 7C11.4819 7 13.0371 7.46924 13.0371 8.49951ZM12.0415 8.47217C11.9746 8.37646 11.2803 8 10.0371 8C8.79443 8 8.09961 8.37646 8.03271 8.52637C8.1001 8.62256 8.7959 9 10.0371 9C11.2788 9 11.9741 8.62256 12.0415 8.47217Z" "/>
<path fill-rule="evenodd" clip-rule="evenodd" d="M18 12.4512C19.6187 12.7588 20.9834 13.2764 21.8535 14.1465C21.9473 14.2402 22 14.3672 22 14.5V19.5C22 19.7021 21.8784 19.8848 21.6914 19.9619C21.6294 19.9878 21.5645 20 21.5 20C21.3701 20 21.2422 19.9492 21.1465 19.8535C19.293 18 14.3555 18 9.99902 18C5.21436 18 2 15.772 2 13.6914C2 13.6587 2.00293 13.6265 2.00928 13.5957C2.00293 13.5649 2 13.5327 2 13.5V8.48193C2 6.09424 5.74268 4 10.0098 4C14.2661 4 18 6.09424 18 8.48193V12.4512ZM17 8.48193C17 6.69238 13.603 5 10.0098 5C6.06201 5 3 6.87158 3 8.48193C3 9.95117 5.6626 12 9.99902 12C14.3364 12 17 9.95117 17 8.48193ZM17 12.2905V10.6118C16.4541 11.1748 15.6987 11.6846 14.7705 12.0879C15.5376 12.1309 16.2866 12.1948 17 12.2905ZM20 18.0034C20.3613 18.1445 20.6958 18.3052 21 18.4883V14.7163C19.0435 13 14.2451 13 9.99902 13C6.80078 13 4.30371 12.0044 3 10.7231V13.5C3 13.5327 2.99707 13.5649 2.99072 13.5957C2.99707 13.6265 3 13.6587 3 13.6914C3 14.1758 3.35156 14.7388 4 15.2617V14C4 13.7236 4.22363 13.5 4.5 13.5C4.77637 13.5 5 13.7236 5 14V15.9062C5.56299 16.1992 6.23438 16.4565 7 16.6475V15.25C7 14.9736 7.22363 14.75 7.5 14.75C7.77637 14.75 8 14.9736 8 15.25V16.8491C8.61963 16.9458 9.28809 17 9.99902 17L10 15.5C10 15.2236 10.2236 15 10.5 15C10.7764 15 11 15.2236 11 15.5V17.001C11.6631 17.0024 12.3335 17.0073 13 17.0215V15.5C13 15.2236 13.2236 15 13.5 15C13.7764 15 14 15.2236 14 15.5V17.0513C14.6802 17.0776 15.3506 17.1177 16 17.1782V15.7002C16 15.4238 16.2236 15.2002 16.5 15.2002C16.7764 15.2002 17 15.4238 17 15.7002V17.2905C17.7075 17.3857 18.3799 17.5117 19 17.6787V16.25C19 15.9736 19.2236 15.75 19.5 15.75C19.7764 15.75 20 15.9736 20 16.25V18.0034Z" "/>
</svg>
