<svg  viewBox="0 0 24 24"  xmlns="http://www.w3.org/2000/svg">
<path fill-rule="evenodd" clip-rule="evenodd" d="M14.2847 9.98624C14.4499 9.9866 14.61 9.96607 14.7657 9.86498C14.7485 9.90491 14.7316 9.94279 14.7153 9.97947C14.6859 10.0454 14.6583 10.1075 14.6338 10.1708C14.5122 10.4895 14.4653 10.8232 14.4371 11.1609C14.4144 11.4312 14.4148 11.6997 14.4807 11.9649C14.6001 12.444 14.8854 12.7744 15.3572 12.9322C15.6572 13.0326 15.9667 13.0432 16.278 13.0066C16.9425 12.9289 17.4245 12.5949 17.7076 11.9846C17.8648 11.6455 17.9292 11.2836 17.9637 10.9144C17.9878 10.6525 17.9996 10.3917 17.949 10.1316C17.8574 9.65658 17.6124 9.29798 17.156 9.10532C16.8608 8.98115 16.5502 8.95991 16.2352 8.98223C15.8092 9.01191 15.4224 9.14377 15.1037 9.44044C15.0855 9.45748 15.0692 9.477 15.0529 9.49655C15.045 9.50603 15.0371 9.51551 15.029 9.52472C15.0246 9.52105 15.0195 9.51703 15.0147 9.51372C15.0557 9.36613 15.0836 9.21741 15.0774 9.06101C15.0711 9.06045 15.0656 9.05979 15.0606 9.05919C15.0523 9.05819 15.0452 9.05734 15.0382 9.05734C14.8939 9.05734 14.7496 9.05731 14.6053 9.05728C14.0451 9.05716 13.4848 9.05703 12.9247 9.05877C12.7775 9.05918 12.6361 9.09284 12.5075 9.17087C12.3229 9.28296 12.2182 9.4577 12.1372 9.65036C12.1294 9.66858 12.1221 9.68704 12.1149 9.70553C12.1127 9.71118 12.1105 9.71683 12.1083 9.72248L12.1031 9.72099C12.1003 9.72018 12.0975 9.71939 12.0947 9.71846L12.1793 9.05694H12.098C11.446 9.05694 10.7941 9.05694 10.1417 9.05734C10.1305 9.05734 10.1193 9.05729 10.1081 9.05724C10.067 9.05705 10.0258 9.05686 9.98494 9.05918C9.66042 9.07675 9.43882 9.24303 9.33077 9.54815C9.32791 9.55571 9.3247 9.56328 9.32109 9.5718C9.31823 9.57854 9.31512 9.58588 9.31172 9.59429C9.30655 9.58777 9.30188 9.58215 9.29763 9.57702C9.29043 9.56835 9.28441 9.5611 9.27912 9.55329C9.12199 9.32727 8.91027 9.17382 8.65315 9.08113C8.32532 8.96282 7.98797 8.95477 7.64733 8.99761C7.34661 9.0357 7.06641 9.13389 6.81881 9.31408C6.48475 9.55655 6.28476 9.89136 6.1584 10.2763C6.0518 10.5997 6.01482 10.9349 5.99101 11.2723C5.97489 11.5099 5.98624 11.7458 6.04631 11.9773C6.18 12.4945 6.50343 12.8249 7.021 12.9619C7.3012 13.0359 7.58543 13.0403 7.8704 13.0033C8.47293 12.9249 8.93151 12.6308 9.21905 12.0879C9.40072 11.744 9.47874 11.3719 9.51867 10.9887C9.55236 10.6649 9.56885 10.3422 9.48716 10.0225C9.48594 10.0166 9.4862 10.0102 9.4865 10.0027C9.48665 9.99908 9.4868 9.99519 9.4868 9.99098H10.4281C10.4229 10.037 10.4178 10.0823 10.4128 10.1271C10.4048 10.1977 10.397 10.267 10.389 10.336C10.3659 10.5342 10.3426 10.7324 10.3192 10.9305C10.2634 11.4049 10.2076 11.8793 10.1549 12.3542C10.112 12.7366 10.3128 12.9707 10.6981 12.9879C10.7967 12.9923 10.8958 12.9858 10.995 12.9793C11.0432 12.9761 11.0913 12.973 11.1395 12.971C11.1922 12.9692 11.2142 12.948 11.2204 12.8912C11.2475 12.631 11.2774 12.371 11.3073 12.1109C11.3182 12.0162 11.3291 11.9215 11.3398 11.8268C11.3525 11.7152 11.3651 11.6037 11.3778 11.4921C11.432 11.0157 11.4861 10.539 11.5383 10.0624C11.5453 10.0005 11.5658 9.984 11.6274 9.98476C11.8604 9.98715 12.0932 9.98705 12.3262 9.98694C12.4154 9.9869 12.5047 9.98685 12.594 9.98695C12.6065 9.98695 12.6189 9.98778 12.6319 9.98865C12.6383 9.98907 12.6447 9.98951 12.6515 9.98986C12.6515 9.99629 12.6517 10.0019 12.6518 10.0069C12.6522 10.0158 12.6524 10.023 12.6515 10.0302C12.6267 10.2422 12.6017 10.4543 12.5767 10.6663C12.5226 11.1248 12.4685 11.5833 12.4167 12.0421C12.4155 12.0525 12.4144 12.0629 12.4132 12.0733C12.3959 12.2284 12.3784 12.3855 12.3863 12.5403C12.3984 12.759 12.5398 12.907 12.7529 12.9615C12.944 13.0102 13.1367 12.9929 13.3295 12.9757C13.34 12.9747 13.3505 12.9738 13.361 12.9729C13.4199 12.9674 13.4408 12.9447 13.4478 12.8846C13.5005 12.4112 13.5541 11.9379 13.6077 11.4645C13.6612 10.9912 13.7148 10.5179 13.7675 10.0445C13.7734 9.995 13.7917 9.98476 13.8364 9.98548C13.9325 9.98689 14.0285 9.98663 14.1246 9.98638C14.178 9.98624 14.2313 9.98609 14.2847 9.98624ZM15.5501 11.4626C15.5487 11.4428 15.5473 11.4245 15.5458 11.4085C15.5689 11.0345 15.592 10.6902 15.7228 10.3642C15.7795 10.2217 15.8576 10.0935 15.9832 9.99979C16.2026 9.83569 16.5425 9.86203 16.7084 10.0584C16.7978 10.1642 16.8425 10.2924 16.8487 10.4276C16.8689 10.8774 16.8308 11.3202 16.6341 11.7338C16.5451 11.9209 16.4015 12.0539 16.1872 12.0872C15.8597 12.1381 15.6253 11.9693 15.5693 11.6404C15.5586 11.5781 15.554 11.5149 15.5501 11.4626ZM8.41846 10.5133C8.42051 10.537 8.42235 10.5581 8.42459 10.5755C8.40334 10.9364 8.37953 11.2536 8.27404 11.5572C8.21727 11.7202 8.13925 11.8707 7.99896 11.9806C7.75868 12.1686 7.37739 12.1213 7.22354 11.8839C7.15505 11.7788 7.12026 11.6601 7.11733 11.5374C7.10597 11.1257 7.14149 10.7192 7.29864 10.3331C7.36859 10.1606 7.47518 10.013 7.65539 9.93786C7.99053 9.79831 8.30921 9.9591 8.39052 10.3126C8.40715 10.383 8.41345 10.4556 8.41846 10.5133Z" "/>
<path fill-rule="evenodd" clip-rule="evenodd" d="M21.0185 16.4167L21.9639 18.2729C22.043 18.4282 22.0361 18.6128 21.9453 18.7612C21.8535 18.9097 21.6924 19 21.5185 19H2.51855C2.3457 19 2.18554 18.9111 2.09423 18.7646C2.00292 18.6182 1.99365 18.4346 2.06982 18.2798L3.01855 16.3464V5.47852C3.01855 5.20215 3.24218 4.97852 3.51855 4.97852H20.5185C20.7949 4.97852 21.0185 5.20215 21.0185 5.47852V16.4167ZM20.0185 5.97852H4.01855V15.9785H20.0185V5.97852ZM3.81152 17L3.32079 18H20.7031L20.1934 17H3.81152Z" "/>
</svg>
