<svg  viewBox="0 0 24 24"  xmlns="http://www.w3.org/2000/svg">
<path d="M11.0085 5H13.0043C13.183 5 13.3481 4.90465 13.4375 4.74988C13.5268 4.5951 13.5268 4.4044 13.4375 4.24963C13.3481 4.09485 13.183 3.9995 13.0043 3.9995H11.0085C10.7322 3.9995 10.5083 4.22347 10.5083 4.49975C10.5083 4.77603 10.7322 5 11.0085 5Z" />
<path d="M12.7583 19.5043C12.7583 19.9175 12.4215 20.2528 12.0068 20.2528C11.8078 20.2532 11.6169 20.1745 11.476 20.0341C11.335 19.8938 11.2556 19.7032 11.2553 19.5043C11.2553 19.091 11.592 18.7558 12.0068 18.7558C12.4215 18.7558 12.7583 19.091 12.7583 19.5043Z" />
<path fill-rule="evenodd" clip-rule="evenodd" d="M15.8325 2H8.16825C6.97275 2 6 2.98775 6 4.202V19.8733C6 21.0658 6.9525 22.0003 8.16825 22.0003H15.8325C17.0483 22.0003 18.0008 21.0658 18.0008 19.8733V4.1645C17.9983 2.96864 17.0284 2.00041 15.8325 2ZM6.99975 6.9995H17.0003V16.9925H6.99975V6.9995ZM15.8325 2.99975H8.16825C7.53525 2.99975 6.99975 3.5495 6.99975 4.20125V5.99975H17.0003V4.1645C17.0003 3.5225 16.476 2.99975 15.8325 2.99975ZM15.8325 20.9998H8.16825C7.5135 20.9998 7.0005 20.5048 7.0005 19.8725V17.993H17.001V19.8725C17.001 20.504 16.4873 20.9998 15.8325 20.9998Z" />
</svg>
