<svg  viewBox="0 0 24 24"  xmlns="http://www.w3.org/2000/svg">
<path d="M11.8768 11.4724C11.8768 11.8177 12.1566 12.0974 12.5018 12.0974C12.5086 12.0974 12.5145 12.0938 12.5213 12.0935C12.8568 12.0826 13.1268 11.8107 13.1268 11.4724C13.1268 11.1275 12.847 10.8477 12.5018 10.8476V10.8474C12.1566 10.8474 11.8768 11.1274 11.8768 11.4724ZM20.1778 14.4794L15.4952 10.1991C15.4893 10.1939 15.4818 10.1925 15.4759 10.1875C15.3626 9.01481 14.6292 8.17802 13.5723 8.02628C13.3548 7.60697 12.8599 7.15116 12.0049 7.04545C12.5543 6.79276 13.1216 6.46854 13.5245 6.07218C14.2715 5.33683 14.8721 3.0712 14.9844 2.62394C15.0391 2.40909 14.9454 2.18449 14.754 2.0712C14.5616 1.95695 14.3214 1.98527 14.1583 2.13663C13.8038 2.46866 12.7764 3.3964 12.2921 3.70011C10.7755 4.65128 9.40533 4.95792 9.32233 4.98038C9.05573 5.07999 8.84186 5.28214 8.71979 5.54972C8.65289 5.69633 8.61798 5.85648 8.61407 6.01884C6.88751 5.00541 4.82745 5.32072 4.73737 5.33683C4.59381 5.36027 4.46686 5.4462 4.39166 5.5712C4.31647 5.6962 4.29889 5.84757 4.34479 5.98624C4.35675 6.0236 4.5047 6.44559 4.79913 7.00187H3.50006C3.22369 7.00187 3.00006 7.2255 3.00006 7.50187C3.00006 7.77824 3.22369 8.00187 3.50006 8.00187H5.43121C5.76324 8.45194 6.16925 8.908 6.67975 9.29191C7.51276 9.91886 7.9151 10.2089 8.51276 10.5829C8.59576 10.6347 8.68756 10.6591 8.77838 10.6591C8.9444 10.6591 9.10748 10.5761 9.20221 10.4247C9.29401 10.2777 9.29156 10.105 9.22589 9.95792C9.18683 9.8704 9.13092 9.78983 9.04401 9.73527C8.47272 9.37784 8.1026 9.11124 7.28131 8.49308C6.40631 7.83488 5.84576 6.88859 5.54987 6.27726C6.25201 6.27824 7.32623 6.36124 8.23248 6.94523C9.33795 7.65519 9.95514 8.49992 9.9942 8.96769C9.99811 9.01456 9.99713 9.07706 9.96881 9.10245C9.80499 9.25223 9.76935 9.48283 9.85529 9.67496C9.87653 9.72208 9.89899 9.76908 9.93561 9.80949C10.1221 10.0146 10.4366 10.0282 10.6426 9.84269C10.8995 9.60831 11.0235 9.26749 10.9913 8.8837C10.9678 8.60697 10.8563 8.30741 10.6844 8.00187H11.669C12.543 8.00187 12.7051 8.50382 12.7266 8.59464C12.7706 8.83097 12.9776 9.00187 13.2178 9.00187C14.1299 9.00187 14.4722 9.72501 14.4981 10.4837C14.5196 10.5022 14.5482 10.5089 14.5684 10.5292L15.8526 11.8124C15.9029 11.8631 15.9256 11.9278 15.9661 11.9839L19.5469 15.2577C19.5782 15.287 19.6143 15.3114 19.6524 15.3319C19.9698 15.498 20.0928 15.8925 19.9268 16.2109L18.7872 18.3876C18.6661 18.6181 18.0694 18.7177 17.4551 18.6132C16.5616 18.4579 13.962 18.4405 13.3956 18.4386L13.3987 18.4247L7.21295 17.9862C6.06354 17.9862 4.69342 19.414 3.38873 20.8769L3.12897 21.1669C2.9444 21.371 2.96002 21.6874 3.1651 21.873C3.2608 21.9589 3.37994 22.0019 3.50006 22.0019C3.63678 22.0019 3.77252 21.9462 3.87115 21.8368L4.13483 21.5429C4.87506 20.7128 6.41608 18.9862 7.1778 18.9853L13.1287 19.4071C13.178 19.4234 13.2283 19.4384 13.2833 19.4384C13.2889 19.4384 13.4031 19.4385 13.5901 19.4397L13.7491 19.4511C13.7801 19.4511 13.8089 19.443 13.8397 19.4419C14.773 19.451 16.6199 19.4829 17.2842 19.5976C17.4991 19.6357 17.7256 19.6571 17.9512 19.6571C18.6592 19.6571 19.3614 19.4462 19.6739 18.8505L20.8135 16.6737C21.2237 15.8876 20.9376 14.9189 20.1778 14.4794ZM10.0235 6.70304C10.0059 6.70792 9.92584 6.70499 9.90924 6.71183C9.85846 6.68839 9.81451 6.63859 9.79205 6.57706L9.62994 6.14347C9.60748 6.08195 9.60651 6.01456 9.6026 5.93839C9.6651 5.92472 11.1495 5.59659 12.8233 4.54777C13.0108 4.43058 13.2471 4.24991 13.4922 4.0507C13.2715 4.63956 13.0303 5.15616 12.8233 5.35929C11.9815 6.18839 10.043 6.69816 10.0235 6.70304Z" "/>
</svg>
