<svg  viewBox="0 0 24 24"  xmlns="http://www.w3.org/2000/svg">
<path fill-rule="evenodd" clip-rule="evenodd" d="M22.999 6.51025C23.0028 6.37426 22.9504 6.24271 22.8543 6.1465L20.0005 3.29425V1.50025C20.0007 1.36752 19.9481 1.24016 19.8542 1.1463C19.7603 1.05244 19.633 0.999802 19.5003 1H4.50025C4.36752 0.999802 4.24016 1.05244 4.1463 1.1463C4.05244 1.24016 3.9998 1.36752 4 1.50025V3.292L1.147 6.14575C1.05297 6.23988 1.0001 6.36746 1 6.5005V8.485C1 9.7255 2.0095 10.735 3.25 10.735C3.95575 10.735 4.58725 10.408 4.99975 9.89725C5.42599 10.4272 6.06942 10.7354 6.7495 10.7354C7.42958 10.7354 8.07302 10.4272 8.49925 9.89725C8.92549 10.4272 9.56892 10.7354 10.249 10.7354C10.9291 10.7354 11.5725 10.4272 11.9988 9.89725C12.425 10.4272 13.0684 10.7354 13.7485 10.7354C14.4286 10.7354 15.072 10.4272 15.4983 9.89725C15.9248 10.4267 16.5681 10.7345 17.248 10.7345C17.9279 10.7345 18.5712 10.4267 18.9978 9.89725C19.2558 10.216 19.6038 10.45 19.9968 10.591V21.9978H18.997V12.4998C18.9972 12.367 18.9446 12.2397 18.8507 12.1458C18.7568 12.0519 18.6295 11.9993 18.4968 11.9995H14.497C14.3643 11.9993 14.2369 12.0519 14.1431 12.1458C14.0492 12.2397 13.9966 12.367 13.9968 12.4998V21.9978H3.997V11.9995C3.997 11.7232 3.77303 11.4993 3.49675 11.4993C3.22047 11.4993 2.9965 11.7232 2.9965 11.9995V22.4973C2.9965 22.774 3.22 22.9975 3.49675 22.9975H14.4873L14.492 22.9986L14.497 22.9998H18.4968L18.5065 22.9975H20.497C20.6297 22.9977 20.7571 22.9451 20.851 22.8512C20.9448 22.7573 20.9975 22.63 20.9973 22.4973V10.7088C22.1193 10.5828 22.9983 9.63925 22.9983 8.4835L22.996 6.50875L22.999 6.51025ZM18.0003 21.9985H15.0003V13.0008H18.0003V21.9985ZM19.0015 2.0005H5.00125V3.00025H19.0015V2.0005ZM20.7513 9.73525C20.0609 9.73484 19.5014 9.17533 19.501 8.485C19.501 8.20872 19.277 7.98475 19.0008 7.98475C18.7245 7.98475 18.5005 8.20872 18.5005 8.485C18.4772 9.15865 17.9243 9.69269 17.2503 9.69269C16.5762 9.69269 16.0233 9.15865 16 8.485C16 8.30628 15.9047 8.14114 15.7499 8.05177C15.5951 7.96241 15.4044 7.96241 15.2496 8.05177C15.0949 8.14114 14.9995 8.30628 14.9995 8.485C14.9762 9.15865 14.4233 9.69269 13.7493 9.69269C13.0752 9.69269 12.5223 9.15865 12.499 8.485C12.499 8.20872 12.275 7.98475 11.9988 7.98475C11.7225 7.98475 11.4985 8.20872 11.4985 8.485C11.4752 9.15865 10.9223 9.69269 10.2483 9.69269C9.5742 9.69269 9.02134 9.15865 8.998 8.485C8.998 8.20872 8.77403 7.98475 8.49775 7.98475C8.22147 7.98475 7.9975 8.20872 7.9975 8.485C7.97416 9.15865 7.4213 9.69269 6.74725 9.69269C6.0732 9.69269 5.52034 9.15865 5.497 8.485C5.497 8.20872 5.27303 7.98475 4.99675 7.98475C4.72047 7.98475 4.4965 8.20872 4.4965 8.485C4.47316 9.15865 3.9203 9.69269 3.24625 9.69269C2.5722 9.69269 2.01934 9.15865 1.996 8.485V7H19.4943C19.7705 7 19.9945 6.77603 19.9945 6.49975C19.9945 6.22347 19.7705 5.9995 19.4943 5.9995H2.70325L4.70275 3.99925H19.2888L21.9948 6.7045L21.9963 8.48425C21.9963 9.1735 21.436 9.7345 20.746 9.7345L20.7513 9.73525Z" "/>
<path fill-rule="evenodd" clip-rule="evenodd" d="M12.4998 20.0005C12.6325 20.0007 12.7598 19.9481 12.8537 19.8542C12.9476 19.7603 13.0002 19.633 13 19.5003V12.5005C13.0002 12.3678 12.9476 12.2404 12.8537 12.1466C12.7598 12.0527 12.6325 12.0001 12.4998 12.0003H5.5C5.36727 12.0001 5.23991 12.0527 5.14605 12.1466C5.05219 12.2404 4.99955 12.3678 4.99975 12.5005V19.5003C4.99975 19.777 5.22325 20.0005 5.5 20.0005H12.4998ZM6.00025 13H12.0003V19H6.00025V13Z" "/>
</svg>
