<svg  viewBox="0 0 24 24"  xmlns="http://www.w3.org/2000/svg">
<path fill-rule="evenodd" clip-rule="evenodd" d="M17.013 18.0005H18.986V9.0005H17.013V18.0005ZM4 20.0005H20V19.0005H4V20.0005ZM5.014 18.0005H6.986V9.0005H5.014V18.0005ZM11.014 18.0005H12.986V9.0005H11.014V18.0005ZM8.014 18.0005H9.986V9.0005H8.014V18.0005ZM14.014 18.0005H15.987V9.0005H14.014V18.0005ZM4 6.8545L12 4.0305L20 6.8545V8.0005H4V6.8545ZM20.5 9.0005C20.776 9.0005 21 8.7765 21 8.5005V6.5005C21 6.2885 20.867 6.0995 20.667 6.0285L12.167 3.0285C12.059 2.9905 11.941 2.9905 11.833 3.0285L3.333 6.0285C3.133 6.0995 3 6.2885 3 6.5005V8.5005C3 8.7765 3.224 9.0005 3.5 9.0005H3.986V18.0005H3.5C3.224 18.0005 3 18.2245 3 18.5005V20.5005C3 20.7765 3.224 21.0005 3.5 21.0005H20.5C20.776 21.0005 21 20.7765 21 20.5005V18.5005C21 18.2245 20.776 18.0005 20.5 18.0005H20.014V9.0005H20.5Z" "/>
</svg>
