<svg  viewBox="0 0 24 24"  xmlns="http://www.w3.org/2000/svg">
<path fill-rule="evenodd" clip-rule="evenodd" d="M21.2998 4.06736C21.2991 3.84384 21.2462 3.67496 21.1688 3.52927C21.1451 3.46109 21.1099 3.3964 21.0557 3.34177C21.0553 3.3414 21.0548 3.34117 21.0544 3.34094C21.0539 3.34072 21.0535 3.34049 21.0531 3.34012C21.0529 3.33995 21.0532 3.34035 21.0531 3.34012C21.053 3.33995 21.0525 3.33917 21.0524 3.33899C21.0522 3.33858 21.0521 3.33817 21.0518 3.33786C21.0023 3.28897 20.9451 3.25284 20.8842 3.22873C20.7404 3.13913 20.5721 3.07633 20.3213 3.09372C18.8984 3.09372 15.1875 4.70261 11.7275 8.16257C11.6303 8.2598 11.5303 8.36734 11.4299 8.47702H8.72266C8.58985 8.47702 8.46289 8.52976 8.36914 8.62351L3.78907 13.2031C3.62891 13.3628 3.59668 13.6098 3.70899 13.8056C3.79981 13.9638 3.9668 14.0566 4.14258 14.0566C4.18457 14.0566 4.22754 14.0512 4.27051 14.04L8.14435 13.017C7.60895 13.8659 7.2442 14.4868 7.20508 14.5537C7.20285 14.5575 7.20266 14.5617 7.20246 14.5659C7.20228 14.5699 7.2021 14.5739 7.2002 14.5775C7.15552 14.6629 7.13697 14.7546 7.14496 14.8483C7.14599 14.8606 7.1485 14.8713 7.15112 14.8825C7.15237 14.8878 7.15364 14.8933 7.15479 14.8991C7.17292 14.994 7.20966 15.0861 7.28321 15.1596L7.90509 15.7814L7.34375 16.3427C7.14844 16.5381 7.14844 16.8545 7.34375 17.0498C7.44141 17.1474 7.56934 17.1963 7.69727 17.1963C7.8252 17.1963 7.95313 17.1474 8.05078 17.0498L8.61225 16.4883L9.25586 17.1318C9.35352 17.2295 9.48145 17.2783 9.60938 17.2783C9.68811 17.2783 9.76404 17.2533 9.8357 17.2163C9.84004 17.2141 9.84473 17.2134 9.84942 17.2127C9.85453 17.212 9.85964 17.2112 9.86426 17.2085C9.92853 17.1703 10.5095 16.8242 11.3105 16.315L10.3408 20.1123C10.2852 20.33 10.3818 20.5586 10.5772 20.6699C10.6543 20.7143 10.7402 20.7358 10.8252 20.7358C10.9541 20.7358 11.082 20.686 11.1777 20.5903L15.8369 15.956C15.9316 15.8618 15.9844 15.7339 15.9844 15.6001L15.9769 12.9068L16.016 12.8705C16.0902 12.8015 16.1644 12.7325 16.2314 12.6655C19.6953 9.20212 21.3037 5.48728 21.2998 4.06736ZM20.3012 4.09268C20.2994 4.91257 19.1013 8.38163 15.5244 11.9585C14.0332 13.4492 10.7412 15.5049 9.68653 16.1479L9.31946 15.7811L13.7236 11.3769C13.9189 11.1816 13.9189 10.8652 13.7236 10.6699C13.5283 10.4746 13.2119 10.4746 13.0166 10.6699L8.61231 15.0742L8.26563 14.7275C8.90137 13.6709 10.9434 10.3613 12.4346 8.8696C16.0095 5.2938 19.4871 4.09696 20.3012 4.09268ZM5.80664 12.6001L8.92969 9.47702H10.5898C10.0266 10.1974 9.4599 11.0077 8.95313 11.7691L5.80664 12.6001ZM14.9834 15.394L11.7588 18.6025L12.5486 15.5074C13.3521 14.9695 14.219 14.3598 14.9791 13.7583L14.9834 15.394Z" "/>
<path d="M6.54004 16.4595C6.34473 16.2642 6.02832 16.2642 5.83301 16.4595L2.94629 19.3462C2.75098 19.5415 2.75098 19.8579 2.94629 20.0532C3.04395 20.1509 3.17188 20.1997 3.2998 20.1997C3.42773 20.1997 3.55566 20.1509 3.65332 20.0532L6.54004 17.1665C6.73535 16.9712 6.73535 16.6548 6.54004 16.4595Z" "/>
<path d="M5.66992 19.3853L7.2168 17.8379C7.41211 17.6426 7.72852 17.6426 7.92383 17.8379C8.11914 18.0332 8.11914 18.3496 7.92383 18.5449L6.37695 20.0923C6.2793 20.1899 6.15137 20.2388 6.02344 20.2388C5.89551 20.2388 5.76758 20.1899 5.66992 20.0923C5.47461 19.897 5.47461 19.5806 5.66992 19.3853Z" "/>
</svg>
