<svg  viewBox="0 0 24 24"  xmlns="http://www.w3.org/2000/svg">
<path d="M9.49316 6.5C9.49316 6.77637 9.7168 7 9.99316 7H10.6876C11.0554 8.27356 11.9328 9 13.1885 9C13.7861 9 14.3877 8.7085 14.7998 8.2207C14.9775 8.00928 14.9502 7.69385 14.7393 7.51611C14.5293 7.33936 14.2148 7.36426 14.0342 7.57617C13.8115 7.8418 13.4951 8 13.1885 8C12.4048 8 11.9813 7.55463 11.7509 7H12.6631C12.9395 7 13.1631 6.77637 13.1631 6.5C13.1631 6.22363 12.9395 6 12.6631 6H11.5193C11.5031 5.82385 11.4932 5.65259 11.4932 5.50049C11.4932 5.34808 11.5032 5.17651 11.5195 5H13.3193C13.5957 5 13.8193 4.77637 13.8193 4.5C13.8193 4.22363 13.5957 4 13.3193 4H11.7524C11.9843 3.44537 12.4105 3 13.1992 3C13.5342 3 13.9082 3.24121 14.1143 3.46533C14.3018 3.66992 14.6191 3.68213 14.8203 3.49512C15.0244 3.30811 15.0371 2.9917 14.8506 2.78857C14.5 2.40723 13.8818 2 13.1992 2C11.9623 2 11.0753 2.73969 10.6975 4H9.99316C9.7168 4 9.49316 4.22363 9.49316 4.5C9.49316 4.77637 9.7168 5 9.99316 5H10.5242C10.5107 5.16431 10.4932 5.32513 10.4932 5.50049C10.4932 5.67603 10.5103 5.836 10.5231 6H9.99316C9.7168 6 9.49316 6.22363 9.49316 6.5ZM17.7109 14C18.0459 14 18.4199 14.2412 18.626 14.4653C18.8135 14.6699 19.1309 14.6821 19.332 14.4951C19.5361 14.3081 19.5488 13.9917 19.3623 13.7886C19.0117 13.4072 18.3936 13 17.7109 13C16.4741 13 15.587 13.7397 15.2092 15H14.5049C14.2285 15 14.0049 15.2236 14.0049 15.5C14.0049 15.7764 14.2285 16 14.5049 16H15.0359C15.0225 16.1643 15.0049 16.3251 15.0049 16.5005C15.0049 16.676 15.022 16.836 15.0348 17H14.5049C14.2285 17 14.0049 17.2236 14.0049 17.5C14.0049 17.7764 14.2285 18 14.5049 18H15.1993C15.5671 19.2736 16.4445 20 17.7002 20C18.2959 20 18.8984 19.709 19.3105 19.2212C19.4893 19.0103 19.4629 18.6948 19.252 18.5166C19.04 18.3394 18.7256 18.3647 18.5469 18.5757C18.3223 18.8413 18.0059 19 17.7002 19C16.9165 19 16.493 18.5546 16.2626 18H17.1748C17.4512 18 17.6748 17.7764 17.6748 17.5C17.6748 17.2236 17.4512 17 17.1748 17H16.031C16.0148 16.8239 16.0049 16.6526 16.0049 16.5005C16.0049 16.3481 16.0149 16.1765 16.0312 16H17.8311C18.1074 16 18.3311 15.7764 18.3311 15.5C18.3311 15.2236 18.1074 15 17.8311 15H16.2642C16.496 14.4454 16.9222 14 17.7109 14ZM23 16.5C23 16.4999 22.9999 16.4999 22.9999 16.4998C22.9996 13.467 20.532 11 17.499 11C17.2189 11 16.9459 11.0278 16.6769 11.0684C17.4997 10.1068 18 8.86163 18 7.5C18 7.46448 17.9868 7.43329 17.9798 7.3999C17.9868 7.36652 18 7.33533 18 7.2998V5.5C18 5.49994 17.9999 5.49988 17.9999 5.49982C17.9996 2.46698 15.532 0 12.499 0C9.46704 0 7.00043 2.46698 7.00006 5.49982C7.00006 5.49988 7 5.49994 7 5.5V7.2998C7 7.33533 7.01318 7.36652 7.0202 7.3999C7.01318 7.43329 7 7.46448 7 7.5C7 7.6778 7.01013 7.85321 7.02667 8.02673C6.85284 8.01007 6.67712 8 6.49902 8C3.46704 8 1.00043 10.467 1.00006 13.4998C1.00006 13.4999 1 13.4999 1 13.5V15.2998C1 15.3353 1.01318 15.3665 1.0202 15.3999C1.01318 15.4333 1 15.4645 1 15.5C1 18.5327 3.4668 21 6.49902 21C9.53223 21 12 18.5327 12 15.5C12 15.4645 11.9868 15.4333 11.9798 15.3999C11.9868 15.3665 12 15.3353 12 15.2998V13.5C12 13.4999 11.9999 13.4999 11.9999 13.4998C11.9999 13.3221 11.9899 13.1468 11.9733 12.9734C12.1465 12.9899 12.3216 13 12.499 13C12.7797 13 13.0534 12.9722 13.3229 12.9315C12.5004 13.8929 12.0002 15.1381 12.0001 16.4998C12.0001 16.4999 12 16.4999 12 16.5V18.2998C12 18.3353 12.0132 18.3665 12.0202 18.3999C12.0132 18.4333 12 18.4645 12 18.5C12 21.5327 14.4668 24 17.499 24C20.5322 24 23 21.5327 23 18.5C23 18.4645 22.9868 18.4333 22.9798 18.3999C22.9868 18.3665 23 18.3353 23 18.2998V16.5ZM12.499 1C14.9805 1 17 3.01904 17 5.50049C17 7.98145 14.9805 10 12.499 10C10.0186 10 8 7.98145 8 5.50049C8 3.01904 10.0186 1 12.499 1ZM6.49902 20C4.5567 20 2.91315 18.7553 2.28473 17.0269C3.29425 18.2316 4.80804 19 6.49902 19C8.19086 19 9.70544 18.2313 10.7153 17.0262C10.0868 18.755 8.44232 20 6.49902 20ZM6.49902 18C4.01855 18 2 15.9814 2 13.5005C2 11.019 4.01855 9 6.49902 9C8.98047 9 11 11.019 11 13.5005C11 15.9814 8.98047 18 6.49902 18ZM12.499 12C12.2485 12 12.007 11.9656 11.7676 11.926C11.6572 11.5573 11.5111 11.204 11.3298 10.872C11.707 10.9541 12.0975 11 12.499 11C14.1909 11 15.7054 10.2313 16.7153 9.02618C16.0868 10.755 14.4423 12 12.499 12ZM17.499 23C15.5567 23 13.9131 21.7553 13.2847 20.0269C14.2943 21.2316 15.808 22 17.499 22C19.1909 22 20.7054 21.2313 21.7153 20.0262C21.0868 21.755 19.4423 23 17.499 23ZM17.499 21C15.0186 21 13 18.9814 13 16.5005C13 14.019 15.0186 12 17.499 12C19.9805 12 22 14.019 22 16.5005C22 18.9814 19.9805 21 17.499 21ZM6.71094 11C7.0459 11 7.41992 11.2412 7.62598 11.4653C7.81348 11.6699 8.13086 11.6826 8.33203 11.4951C8.53613 11.3081 8.54883 10.9917 8.3623 10.7886C8.01172 10.4072 7.39355 10 6.71094 10C5.47406 10 4.58704 10.7397 4.20923 12H3.50488C3.22852 12 3.00488 12.2236 3.00488 12.5C3.00488 12.7764 3.22852 13 3.50488 13H4.03595C4.02246 13.1643 4.00488 13.3251 4.00488 13.5005C4.00488 13.676 4.02203 13.836 4.03479 14H3.50488C3.22852 14 3.00488 14.2236 3.00488 14.5C3.00488 14.7764 3.22852 15 3.50488 15H4.19928C4.56708 16.2736 5.44452 17 6.7002 17C7.2959 17 7.89844 16.709 8.31055 16.2212C8.48926 16.0103 8.46289 15.6948 8.25195 15.5166C8.04004 15.3389 7.72559 15.3647 7.54688 15.5757C7.32227 15.8413 7.00586 16 6.7002 16C5.9165 16 5.49298 15.5546 5.26257 15H6.1748C6.45117 15 6.6748 14.7764 6.6748 14.5C6.6748 14.2236 6.45117 14 6.1748 14H5.03101C5.01483 13.8239 5.00488 13.6526 5.00488 13.5005C5.00488 13.3481 5.01489 13.1765 5.03119 13H6.83105C7.10742 13 7.33105 12.7764 7.33105 12.5C7.33105 12.2236 7.10742 12 6.83105 12H5.26416C5.49603 11.4454 5.92224 11 6.71094 11Z" "/>
</svg>
