<svg  viewBox="0 0 24 24"  xmlns="http://www.w3.org/2000/svg">
<path fill-rule="evenodd" clip-rule="evenodd" d="M6.75197 20.59C6.59896 20.59 6.45436 20.52 6.35947 20.4C6.26459 20.2799 6.22985 20.1231 6.26517 19.9742L7.62054 14.282L3.17566 10.4776C3.0217 10.3465 2.96199 10.1355 3.02441 9.94315C3.08683 9.7508 3.25907 9.61505 3.46068 9.59931L9.29244 9.12902L11.5374 3.72556C11.616 3.54043 11.7977 3.42018 11.9988 3.42001C12.1999 3.41985 12.3817 3.53981 12.4607 3.72481L14.7102 9.12602L20.5427 9.59106C20.7436 9.60753 20.9151 9.74304 20.9775 9.93478C21.0399 10.1265 20.9812 10.337 20.8284 10.4686L16.3865 14.2767L17.7464 19.9675C17.7948 20.1643 17.7192 20.3708 17.5553 20.4899C17.3914 20.6091 17.1716 20.6172 16.9994 20.5105L12.0047 17.463L7.01299 20.515C6.93433 20.5629 6.84405 20.5883 6.75197 20.5885V20.59ZM4.73954 10.5001L8.50337 13.7209C8.64588 13.8424 8.70814 14.0344 8.66463 14.2167L7.51703 19.0359L11.7436 16.4519C11.9035 16.3537 12.1051 16.3537 12.2649 16.4519L16.4938 19.0321L15.3425 14.2137C15.299 14.0313 15.3613 13.8399 15.5037 13.7179L19.2645 10.4934L14.3261 10.0996C14.1392 10.0847 13.9762 9.96658 13.9038 9.79358L11.9994 5.22043L10.0988 9.79508C10.0268 9.96826 9.86412 10.0867 9.67722 10.1019L4.73954 10.5001Z" "/>
</svg>
