<svg  viewBox="0 0 24 24"  xmlns="http://www.w3.org/2000/svg">
<path fill-rule="evenodd" clip-rule="evenodd" d="M18.0737 10.9885C18.3127 10.8492 18.6165 10.932 18.7539 11.1731L21.6537 16.262C21.8818 16.6616 22.0013 17.1137 22.0013 17.5739C22.0003 19.0189 20.8431 20.1915 19.4161 20.1905H13.5935L14.5584 21.133C14.7546 21.3277 14.7596 21.6446 14.5704 21.8444C14.3802 22.0462 14.0645 22.0523 13.8663 21.8595L12.028 20.0623C11.8308 19.8686 11.8249 19.5497 12.0161 19.3499L13.7906 17.4871C13.9848 17.2853 14.2995 17.2802 14.4967 17.474C14.6949 17.6697 14.6988 17.9876 14.5067 18.1874L13.5596 19.1824H19.4161C19.6949 19.1824 19.9688 19.1067 20.2108 18.9664C20.9696 18.5214 21.2305 17.5375 20.7924 16.7666L17.8925 11.6777C17.7551 11.4365 17.8357 11.1287 18.0737 10.9885ZM11.6165 7.51274C11.8416 7.52585 12.0388 7.67217 12.1165 7.88711C12.3495 8.5733 11.5269 12.8408 8.83419 14.9579C8.12515 15.5361 7.24484 15.854 6.33564 15.861C5.54395 15.8429 4.7692 15.6188 4.08805 15.2071C3.69071 15.8308 3.41188 16.3575 3.26848 16.6461C3.19777 16.7884 3.15595 16.8772 3.15296 16.8832C3.04441 17.1052 2.99064 17.3474 2.99163 17.5926C2.99562 18.4746 3.70465 19.186 4.57501 19.182H10.4823C10.7571 19.182 10.9802 19.408 10.9802 19.6865C10.9802 19.964 10.7571 20.1911 10.4823 20.1911H4.57501C4.19759 20.1921 3.82415 20.1103 3.48258 19.9489C2.19995 19.3444 1.64328 17.8015 2.23878 16.5008C2.24376 16.4887 2.24177 16.4746 2.24775 16.4635C2.25372 16.4493 2.27463 16.4049 2.30252 16.3464C2.31646 16.3171 2.3304 16.2869 2.34932 16.2475L2.38218 16.1829C2.66201 15.6229 2.97172 15.079 3.3113 14.5522C3.42383 14.3776 3.54631 14.197 3.67478 14.0124C4.56107 12.6551 5.74511 11.5239 7.1343 10.7086C7.37828 10.5804 7.67902 10.6763 7.80549 10.9235C7.93196 11.1717 7.83636 11.4755 7.59238 11.6036C6.42029 12.2949 5.41549 13.2414 4.6487 14.3746C5.76503 15.079 7.19704 14.9932 8.22275 14.1607C9.81807 12.6864 10.8517 10.6924 11.1435 8.52587C7.14725 8.60559 5.27608 9.68331 4.40572 10.5945C3.85502 11.1183 3.5244 11.8377 3.48258 12.6016C3.48855 12.7994 3.381 12.9811 3.20673 13.0699C3.144 13.1032 3.07429 13.1213 3.00358 13.1254C2.73172 13.1385 2.50069 12.9245 2.48774 12.6491C2.51463 11.6218 2.93388 10.646 3.65785 9.9265C4.5999 8.99813 5.77399 8.34928 7.05463 8.05059C7.48682 7.93353 7.924 7.83867 8.36615 7.76602C9.44065 7.59245 10.5281 7.50668 11.6165 7.51274ZM10.7018 2.35058C11.9376 1.62806 13.518 2.05693 14.231 3.31024L17.1737 8.47481L17.4973 7.15894C17.4973 7.15794 17.4973 7.15693 17.4983 7.15693C17.5651 6.88649 17.8359 6.722 18.1028 6.79062C18.3697 6.85823 18.531 7.13271 18.4643 7.40315L17.8469 9.9148C17.814 10.045 17.7324 10.157 17.6198 10.2256L17.6099 10.2286C17.5352 10.272 17.4495 10.2962 17.3629 10.2972C17.345 10.2962 17.3261 10.2942 17.3081 10.2912C17.2852 10.2902 17.2643 10.2872 17.2424 10.2831L14.7648 9.65647C14.4979 9.58886 14.3356 9.31539 14.4023 9.04495C14.468 8.77451 14.7389 8.61003 15.0058 8.67663L16.3302 9.01165L13.3686 3.81479C13.2302 3.56957 13.029 3.36574 12.787 3.22446C12.0272 2.78046 11.0563 3.04484 10.6181 3.81479L9.06861 6.5333C8.93118 6.77448 8.62646 6.85722 8.38845 6.71797C8.15045 6.57871 8.06879 6.26993 8.20621 6.02875L9.75573 3.31024C9.98278 2.91164 10.3084 2.58066 10.7018 2.35058Z" />
</svg>
