<svg  viewBox="0 0 24 24"  xmlns="http://www.w3.org/2000/svg">
<path d="M2.49952 20.5C2.43263 20.5 2.36476 20.4864 2.29981 20.458C2.0464 20.3477 1.93116 20.0528 2.042 19.7998L5.542 11.7998C5.6172 11.627 5.78321 11.5117 5.9712 11.501C6.15919 11.4864 6.33692 11.585 6.43214 11.7481L9.28175 16.6328L12.0112 3.89553C12.0581 3.67581 12.2451 3.51467 12.4692 3.501C12.689 3.47854 12.8984 3.62405 12.9722 3.83596L16.6152 14.3096L19.5679 9.24807C19.6631 9.08499 19.8394 8.98245 20.0308 9.001C20.2192 9.01272 20.3853 9.12991 20.4595 9.30276L21.9595 12.8028C22.0684 13.0567 21.9507 13.3506 21.6968 13.46C21.4439 13.5664 21.1484 13.4512 21.0405 13.1973L19.9317 10.6094L16.9321 15.752C16.8335 15.9199 16.6465 16.0108 16.4517 15.9981C16.2573 15.9785 16.0918 15.8487 16.0278 15.6641L12.6148 5.85159L9.98878 18.1045C9.94581 18.3067 9.78272 18.461 9.57911 18.4942C9.3672 18.5235 9.17188 18.4297 9.06788 18.252L6.06397 13.1016L2.95802 20.2002C2.87599 20.3877 2.69239 20.5 2.49952 20.5Z" "/>
</svg>
