<svg  viewBox="0 0 24 24"  xmlns="http://www.w3.org/2000/svg">
<path d="M13.4928 8.0005H18.493C18.7693 8.0005 18.9933 7.77653 18.9933 7.50025C18.9933 7.22397 18.7693 7 18.493 7H13.4928C13.2165 7 12.9925 7.22397 12.9925 7.50025C12.9925 7.77653 13.2165 8.0005 13.4928 8.0005Z" "/>
<path d="M13.993 10.5003C13.993 10.7763 14.2165 11.0005 14.4933 11.0005H19.4853C19.7615 11.0005 19.9855 10.7765 19.9855 10.5003C19.9855 10.224 19.7615 10 19.4853 10H14.4933C14.3605 9.9998 14.2332 10.0524 14.1393 10.1463C14.0454 10.2402 13.9928 10.3675 13.993 10.5003Z" "/>
<path fill-rule="evenodd" clip-rule="evenodd" d="M10.4928 4H22.4965C22.6292 3.9998 22.7566 4.05244 22.8505 4.1463C22.9443 4.24016 22.997 4.36752 22.9968 4.50025V14.5053C22.997 14.638 22.9443 14.7653 22.8505 14.8592C22.7566 14.9531 22.6292 15.0057 22.4965 15.0055H19.9968V17.5008C19.9967 17.6955 19.8834 17.8724 19.7065 17.9538C19.5301 18.0361 19.3219 18.0083 19.1733 17.8825L15.775 15.0055L12.997 15.0033V17.5008C12.9972 17.6335 12.9446 17.7608 12.8507 17.8547C12.7568 17.9486 12.6295 18.0012 12.4968 18.001H6.7405L3.78175 19.921C3.62799 20.021 3.43182 20.0286 3.27073 19.941C3.10965 19.8533 3.00956 19.6844 3.01 19.501V18.001H1.50025C1.2235 18.001 1 17.7775 1 17.5008V8.50075C0.999802 8.36802 1.05244 8.24066 1.1463 8.1468C1.24016 8.05294 1.36752 8.0003 1.50025 8.0005H9.99251V4.50025C9.99251 4.22397 10.2165 4 10.4928 4ZM6.59275 17.0005H11.9965V15.0018L10.4913 15.0003C10.2153 15.0003 9.99175 14.7768 9.99175 14.5V9.00025H1.99975V17.0005H3.5095C3.64224 17.0003 3.76959 17.0529 3.86345 17.1468C3.95731 17.2407 4.00995 17.368 4.00975 17.5008V18.5808L6.3205 17.0808C6.40174 17.0286 6.49621 17.0007 6.59275 17.0005ZM21.9978 14.005H19.498C19.3653 14.0048 19.2379 14.0574 19.1441 14.1513C19.0502 14.2452 18.9976 14.3725 18.9978 14.5053V16.4223L16.2828 14.1235C16.1924 14.0471 16.0779 14.0051 15.9595 14.005L10.993 14.0005V5.0005H21.9978V14.005Z" "/>
</svg>
