<svg  viewBox="0 0 24 24"  xmlns="http://www.w3.org/2000/svg">
<path d="M20.9615 6.30908C20.9109 6.18665 20.8134 6.08911 20.6909 6.03845C20.6298 6.01318 20.5651 6 20.5 6H15.5C15.2236 6 15 6.22363 15 6.5C15 6.77637 15.2236 7 15.5 7H19.293L13.5 12.793L10.8535 10.1465C10.6582 9.95117 10.3418 9.95117 10.1465 10.1465L3.14648 17.1465C2.95117 17.3418 2.95117 17.6582 3.14648 17.8535C3.24414 17.9512 3.37207 18 3.5 18C3.62793 18 3.75586 17.9512 3.85352 17.8535L10.5 11.207L13.1465 13.8535C13.2441 13.9512 13.3721 14 13.5 14C13.6279 14 13.7559 13.9512 13.8535 13.8535L20 7.70703V11.5C20 11.7764 20.2236 12 20.5 12C20.7764 12 21 11.7764 21 11.5V6.5C21 6.43494 20.9868 6.37018 20.9615 6.30908Z" "/>
</svg>
