<svg  viewBox="0 0 24 24"  xmlns="http://www.w3.org/2000/svg">
<path fill-rule="evenodd" clip-rule="evenodd" d="M12 12.724C16.291 17.109 16.491 17.421 16.499 21H7.501C7.509 17.421 7.709 17.109 12 12.724ZM16.499 3C16.491 6.615 16.294 6.907 12 11.293C7.706 6.907 7.509 6.615 7.501 3H16.499ZM18.5 21H17.499C17.484 17.01 17.209 16.617 12.699 12.009C17.213 7.398 17.485 7.027 17.499 3H18.5C18.776 3 19 2.777 19 2.5C19 2.224 18.776 2 18.5 2H5.5C5.224 2 5 2.224 5 2.5C5 2.777 5.224 3 5.5 3H6.501C6.515 7.027 6.787 7.398 11.301 12.009C6.791 16.617 6.516 17.01 6.501 21H5.5C5.224 21 5 21.224 5 21.5C5 21.777 5.224 22 5.5 22H18.5C18.776 22 19 21.777 19 21.5C19 21.224 18.776 21 18.5 21Z" "/>
</svg>
