<svg  viewBox="0 0 24 24"  xmlns="http://www.w3.org/2000/svg">
<path d="M20.6739 7.92092C18.9747 5.19582 17.7403 4.04738 15.7804 3.36818L14.7901 3.02736C14.7105 3.00032 14.6289 2.9991 14.5491 3.01192C14.4624 3.00319 14.3739 3.00832 14.2892 3.04641C13.9903 3.18557 12.9879 3.17775 12.4508 3.17238L12.0289 3.17092L11.5982 3.17238C11.0436 3.17873 10.0108 3.18605 9.71055 3.04641C9.61961 3.00368 9.52433 3.00008 9.43199 3.01326C9.39689 3.01632 9.36161 3.0121 9.32725 3.02248L8.20713 3.37258C6.51915 4.00539 5.15391 5.27492 3.33897 7.90139C3.21641 8.07863 3.22129 8.31398 3.35069 8.48635L5.55821 11.4214C5.64463 11.5366 5.77745 11.6089 5.921 11.6192C6.06211 11.627 6.20665 11.5772 6.30918 11.4761L6.91612 10.8755L6.19395 19.647C6.19395 19.9912 6.19346 20.9038 11.5768 20.9951C11.5973 20.9981 11.6183 20.9995 11.6398 20.9995H11.9981H12.3605C12.3819 20.9995 12.4024 20.9981 12.423 20.9951C17.8058 20.9038 17.8058 19.9912 17.8038 19.606L17.0841 10.8755L17.6915 11.4761C17.7931 11.5772 17.9356 11.6299 18.0792 11.6192C18.2237 11.6089 18.3556 11.5366 18.4425 11.4209L20.6495 8.48586C20.7735 8.32082 20.7833 8.09621 20.6739 7.92092ZM11.2023 4.17434C11.3331 4.17434 11.4679 4.17385 11.6065 4.17238L12.0289 4.17092L12.442 4.17238C13.0556 4.17983 13.579 4.17122 14.0101 4.11879C13.7841 5.32247 13.2449 7.56057 12.0001 7.56057C10.7765 7.56057 10.2951 5.33986 10.0887 4.13466C10.4104 4.16597 10.7853 4.17434 11.2023 4.17434ZM17.9874 10.3623L16.8263 9.21389C16.6778 9.0674 16.4532 9.02834 16.2638 9.11623C16.0733 9.20461 15.9591 9.40187 15.9767 9.61037L16.7931 19.4903C16.3585 19.6895 14.8028 19.9575 12.3487 19.9961C12.3316 19.9966 12.3146 19.9976 12.298 19.9995H11.9981H11.7023C11.6856 19.9976 11.6686 19.9966 11.6515 19.9961C9.2003 19.9575 7.64512 19.69 7.2086 19.4912L8.02403 9.61037C8.04112 9.40187 7.92637 9.20461 7.73692 9.11623C7.54747 9.02736 7.32334 9.06642 7.17393 9.21389L6.0128 10.3623L4.36778 8.17482C5.9503 5.9341 7.14073 4.84035 8.53135 4.31838L9.07676 4.14846C9.32042 5.63185 9.89805 8.56057 12.0001 8.56057C14.0987 8.56057 14.7569 5.62307 15.0187 4.16359L15.4532 4.3135C17.1163 4.88967 18.1622 5.84035 19.6437 8.16066L17.9874 10.3623Z" "/>
</svg>
