<svg  viewBox="0 0 24 24"  xmlns="http://www.w3.org/2000/svg">
<path d="M10 13H3C2.44769 13 2 13.4477 2 14V21C2 21.5522 2.44769 22 3 22H10C10.5523 22 11 21.5522 11 21V14C11 13.4477 10.5523 13 10 13ZM10 21H3V14H10V21ZM20.3696 14.6445L16.458 18.8027L14.5713 17.0791C14.3672 16.8926 14.0513 16.9062 13.8647 17.1113C13.6787 17.3145 13.6929 17.6309 13.8965 17.8174L16.147 19.873C16.2432 19.9609 16.3638 20.0039 16.4844 20.0039C16.6172 20.0039 16.75 19.9512 16.8486 19.8467L21.0981 15.3301C21.2871 15.1289 21.2778 14.8125 21.0767 14.623C20.876 14.4346 20.5591 14.4434 20.3696 14.6445ZM21 2H14C13.4477 2 13 2.44769 13 3V10C13 10.5522 13.4477 11 14 11H21C21.5523 11 22 10.5522 22 10V3C22 2.44769 21.5523 2 21 2ZM21 10H14V3H21V10ZM10 2H3C2.44769 2 2 2.44769 2 3V10C2 10.5522 2.44769 11 3 11H10C10.5523 11 11 10.5522 11 10V3C11 2.44769 10.5523 2 10 2ZM10 10H3V3H10V10Z" "/>
</svg>
