<svg  viewBox="0 0 24 24"  xmlns="http://www.w3.org/2000/svg">
<path d="M12.75 7.0305C12.75 7.44471 12.4142 7.7805 12 7.7805C11.5858 7.7805 11.25 7.44471 11.25 7.0305C11.25 6.61629 11.5858 6.2805 12 6.2805C12.4142 6.2805 12.75 6.61629 12.75 7.0305Z" />
<path d="M12 17.5283C11.8673 17.5285 11.7399 17.4758 11.6461 17.382C11.5522 17.2881 11.4996 17.1607 11.4998 17.028V10.0283C11.4998 9.75197 11.7237 9.528 12 9.528C12.2763 9.528 12.5003 9.75197 12.5003 10.0283V17.028C12.5005 17.1607 12.4478 17.2881 12.354 17.382C12.2601 17.4758 12.1327 17.5285 12 17.5283Z" />
<path fill-rule="evenodd" clip-rule="evenodd" d="M12 21.0008C7.03725 21.0008 3 16.9628 3 12C3 7.03725 7.03725 3 12 3C16.9628 3 21 7.03725 21 12C21 16.9628 16.9628 21.0008 12 21.0008ZM12 4.0005C7.58925 4.0005 3.99975 7.58925 3.99975 12.0008C3.99975 16.4123 7.5885 20.001 12 20.001C16.4115 20.001 20.0003 16.4123 20.0003 12.0008C20.0003 7.58925 16.4115 4.0005 12 4.0005Z" />
</svg>
