<svg  viewBox="0 0 24 24"  xmlns="http://www.w3.org/2000/svg">
<path fill-rule="evenodd" clip-rule="evenodd" d="M3.75 15.751C4.164 15.751 4.5 16.087 4.5 16.501C4.5 16.915 4.164 17.251 3.75 17.251C3.336 17.251 3 16.915 3 16.501C3 16.087 3.336 15.751 3.75 15.751ZM20.501 16C20.777 16 21.001 16.224 21.001 16.5C21.001 16.776 20.777 17 20.501 17H6.501C6.224 17 6 16.776 6 16.5C6 16.224 6.224 16 6.5 16H20.501ZM3.75 11.251C4.164 11.251 4.5 11.586 4.5 12.001C4.5 12.415 4.164 12.75 3.75 12.75C3.336 12.75 3 12.415 3 12.001C3 11.586 3.336 11.251 3.75 11.251ZM20.5 11.5C20.776 11.5 21 11.724 21 12.001C21 12.276 20.776 12.501 20.5 12.501H6.5C6.223 12.501 5.999 12.277 5.999 12.001C5.999 11.725 6.223 11.501 6.499 11.5H20.5ZM3.75 6.75C4.164 6.75 4.5 7.086 4.5 7.5C4.5 7.914 4.164 8.25 3.75 8.25C3.336 8.25 3 7.914 3 7.5C3 7.086 3.336 6.75 3.75 6.75ZM20.5 6.999C20.776 6.999 21 7.223 21 7.499C21 7.775 20.776 7.999 20.5 7.999H6.5C6.223 7.999 5.999 7.776 5.999 7.499C5.999 7.223 6.223 6.999 6.499 6.999H20.5Z" "/>
</svg>
