<svg width="24" height="24" viewBox="0 0 24 24" xmlns="http://www.w3.org/2000/svg">
<path d="M20.6519 9.51367C20.5762 9.24805 20.2988 9.09473 20.0337 9.1709C19.7681 9.24658 19.6147 9.52393 19.6909 9.78906C19.896 10.5049 20 11.249 20 12C20 16.4111 16.4111 20 12 20C7.58887 20 4 16.4111 4 12C4 7.58887 7.58887 4 12 4C14.5463 4 16.9436 5.1405 18.4336 7H15.5C15.2236 7 15 7.22363 15 7.5C15 7.77637 15.2236 8 15.5 8H19.5C19.7764 8 20 7.77637 20 7.5V3.5C20 3.22363 19.7764 3 19.5 3C19.2236 3 19 3.22363 19 3.5V6.09821C17.3117 4.16534 14.7232 3 12 3C7.0376 3 3 7.0376 3 12C3 16.9629 7.0376 21 12 21C16.9624 21 21 16.9629 21 12C21 11.1558 20.8828 10.3188 20.6519 9.51367Z"/>
</svg>
