<svg  viewBox="0 0 24 24"  xmlns="http://www.w3.org/2000/svg">
<path d="M20.375 13.3296L11.9727 4.92773V4.92725C11.6611 4.61719 11.249 4.44629 10.8125 4.44629H9.45312C9.35413 3.36981 9.0741 1.87347 8.27832 1.59033C8.27722 1.5899 8.27606 1.59021 8.27496 1.58984C8.27405 1.58954 8.27338 1.58868 8.27246 1.58838C8.18555 1.55859 8.0957 1.54346 8.00781 1.54346C7.00195 1.54346 6.67023 3.25195 6.5611 4.44629H4.65137C3.74414 4.44629 3.00586 5.18408 3.00586 6.09082V12.252C3.00586 12.688 3.17676 13.0996 3.4873 13.4126L11.8896 21.8145C12.2881 22.2139 12.8213 22.4336 13.3887 22.4336C13.9561 22.4336 14.4893 22.2139 14.8877 21.8145L20.375 16.3271C21.2012 15.501 21.2012 14.1558 20.375 13.3296ZM19.668 15.6201L14.1807 21.1074C13.7607 21.5283 13.0166 21.5283 12.5967 21.1074L4.19531 12.7061C4.07324 12.583 4.00586 12.4219 4.00586 12.252V6.09082C4.00586 5.73535 4.2959 5.44629 4.65137 5.44629H6.50854C6.50806 5.4859 6.50781 5.52136 6.50781 5.54346C6.50781 5.77142 6.52155 6.98676 6.78534 8.01874C6.74823 8.05042 6.70673 8.07544 6.67188 8.11035C5.8916 8.89014 5.8916 10.1592 6.67188 10.939C7.04883 11.3164 7.55078 11.5244 8.08594 11.5244C8.62012 11.5244 9.12207 11.3164 9.5 10.939C10.2803 10.1592 10.2803 8.89014 9.5 8.11035C9.02924 7.6405 8.34131 7.46405 7.70721 7.5788C7.59515 7.07507 7.50781 6.39539 7.50781 5.54346C7.50781 5.50934 7.51007 5.47992 7.51031 5.44629H10.8125C10.9824 5.44629 11.1436 5.51318 11.2656 5.63525L19.668 14.0366C20.1045 14.4731 20.1045 15.1836 19.668 15.6201ZM8.79297 10.2319C8.41602 10.6099 7.75586 10.6099 7.37891 10.2319C7.06042 9.91309 7.0166 9.43756 7.21875 9.05908C7.42017 9.35156 7.67578 9.54346 8.00781 9.54346C8.28418 9.54346 8.55273 9.33057 8.55273 9.05469C8.55273 8.77832 8.37305 8.56592 8.09766 8.56592C8.08807 8.55902 8.07635 8.53992 8.06598 8.52881C8.07294 8.52869 8.07898 8.5249 8.08594 8.5249C8.35254 8.5249 8.60352 8.62891 8.79297 8.81738C9.18262 9.20752 9.18262 9.8418 8.79297 10.2319ZM7.97894 2.59253C8.13593 2.80627 8.35388 3.44135 8.45349 4.44629H7.56061C7.66022 3.40765 7.87567 2.76984 7.97894 2.59253Z" "/>
</svg>
