<svg  viewBox="0 0 24 24"  xmlns="http://www.w3.org/2000/svg">
<path fill-rule="evenodd" clip-rule="evenodd" d="M21.0039 1.52148C21.0039 1.24707 20.7832 1.02441 20.5088 1.02148L18.5059 1H18.501C18.3691 1 18.2432 1.05176 18.1494 1.14453C18.0547 1.23828 18.001 1.36621 18.001 1.5V2H16.9951V1.5C16.9951 1.22363 16.7715 1 16.4951 1H14.5137C14.2373 1 14.0137 1.22363 14.0137 1.5V2H10.0127V1.5C10.0127 1.22363 9.78906 1 9.5127 1H7.53027C7.25391 1 7.03027 1.22363 7.03027 1.5V2H6.02539V1.5C6.02539 1.22363 5.80176 1 5.52539 1H3.5C3.22363 1 3 1.22363 3 1.5V2H2.48438C2.20801 2 1.98438 2.22363 1.98438 2.5C1.98438 2.77637 2.20801 3 2.48438 3H3V22.2822C3 22.4121 3.05078 22.5371 3.1416 22.6309C3.5293 23.0303 4.64941 23.084 5.13867 22.7217L5.35352 22.5635C5.5 22.4541 5.78809 22.4541 5.93457 22.5635L6.14941 22.7227C6.39844 22.9062 6.7168 22.998 7.03516 22.998C7.35352 22.998 7.67188 22.9062 7.91992 22.7227L8.13672 22.5635C8.2832 22.4541 8.82031 22.4541 8.96875 22.5635L9.18457 22.7227C9.33691 22.835 9.54199 22.8525 9.70605 22.7666C9.875 22.6816 9.98145 22.5098 9.98145 22.3213L10.0127 4.5293V3H14.0137V22.3203C14.0137 22.5029 14.1133 22.6719 14.2744 22.7598C14.4346 22.8457 14.6309 22.8408 14.7842 22.7402L15.0586 22.5635C15.2051 22.4541 15.6641 22.4541 15.8125 22.5635L16.0273 22.7227C16.2764 22.9062 16.5947 22.998 16.9131 22.998C17.2314 22.998 17.5508 22.9062 17.7988 22.7217L18.0127 22.5635C18.1592 22.4541 18.4482 22.4551 18.5947 22.5625L18.8096 22.7227C19.3076 23.0879 20.4766 23.0508 20.8623 22.6533C20.9531 22.5596 21.0039 22.4346 21.0039 22.3047V3H21.4844C21.7607 3 21.9844 2.77637 21.9844 2.5C21.9844 2.22363 21.7607 2 21.4844 2H21.0039V1.52148ZM7.03027 3H6.02539V4.3418C6.14941 4.44336 6.2793 4.47754 6.49121 4.47754C6.69141 4.47754 6.91113 4.42676 7.03027 4.37695V3ZM16.9951 4.37695V3H18.001V4.3418C17.877 4.44336 17.7471 4.47754 17.5352 4.47754C17.334 4.47754 17.1143 4.42676 16.9951 4.37695ZM20.0039 21.9629C19.7949 21.9883 19.5 21.9785 19.4053 21.9189L19.1895 21.7588C18.6846 21.3848 17.9229 21.3867 17.418 21.7598L17.2031 21.918C17.0566 22.0273 16.7686 22.0273 16.6221 21.918L16.4072 21.7588C16.1543 21.5723 15.7871 21.4795 15.4248 21.4795C15.2842 21.4795 15.1455 21.4932 15.0137 21.5205V2H15.9951V4.5293C15.9951 5.22461 16.916 5.47754 17.5352 5.47754C18.1055 5.47754 18.5205 5.29102 18.8799 4.87305C18.958 4.78223 19.001 4.66699 19.001 4.54688V2.00586L20.0039 2.0166V21.9629ZM7.54199 21.7588C7.8877 21.5029 8.48438 21.4238 8.98242 21.5225L9.0127 2H8.03027V4.5293C8.03027 5.22461 7.11035 5.47754 6.49121 5.47754C5.9209 5.47754 5.50586 5.29102 5.14648 4.87305C5.06836 4.78223 5.02539 4.66699 5.02539 4.54688V2H4V21.9619C4.17871 21.9795 4.45117 21.9775 4.5459 21.917L4.75781 21.7598C5.00586 21.5752 5.3252 21.4834 5.64355 21.4834C5.96191 21.4834 6.28027 21.5752 6.5293 21.7588L6.74414 21.918C6.89062 22.0273 7.17871 22.0273 7.3252 21.918L7.54199 21.7588Z" />
</svg>
