<svg  viewBox="0 0 24 24"  xmlns="http://www.w3.org/2000/svg">
<path d="M19.5 8C19.3288 8 19.1616 8.01758 19 8.05054V4C19 2.89746 18.103 2 17 2H7C5.89697 2 5 2.89746 5 4V8.05054C4.83838 8.01758 4.6712 8 4.5 8C3.12158 8 2 9.12109 2 10.5C2 11.3138 2.39655 12.0306 3 12.4874V18.4922C3 19.1432 3.41925 19.693 4 19.9001V21.1748C4 21.6299 4.37012 22 4.8252 22H6.1748C6.62988 22 7 21.6299 7 21.1748V19.9922H17V21.1748C17 21.6299 17.3701 22 17.8252 22H19.1748C19.6299 22 20 21.6299 20 21.1748V19.9001C20.5807 19.693 21 19.1432 21 18.4922V15.5996V13.6533V12.4874C21.6035 12.0306 22 11.3138 22 10.5C22 9.12109 20.8784 8 19.5 8ZM6 21H5V20H6V21ZM6 13.0059V18.1764V18.9922H4.5C4.22412 18.9922 4 18.7676 4 18.4922V18.1764V11.9079C3.41925 11.7008 3 11.151 3 10.5C3 9.67285 3.67285 9 4.5 9C5.32715 9 6 9.67285 6 10.5V13.0059ZM17 18.9922H7V15.5996V14H17V18.9922ZM17.0204 10.2981C17.0132 10.3319 17 10.3635 17 10.3994V13H7V10.3994C7 10.3635 6.98676 10.3319 6.97955 10.2981C6.92004 9.5686 6.55219 8.9306 6 8.51263V4C6 3.44824 6.44873 3 7 3H17C17.5513 3 18 3.44824 18 4V8.51263C17.4478 8.9306 17.08 9.5686 17.0204 10.2981ZM19 21H18V20H19V21ZM20.0036 11.9067V17.9764H20V18.4922C20 18.7676 19.7759 18.9922 19.5 18.9922H18V13.0059V12.4874C18.0013 12.4883 18.0024 12.4894 18.0036 12.4904V10.5356C18.0033 10.5235 18 10.5122 18 10.5C18 10.4878 18.0033 10.4765 18.0036 10.4644V10.3H18.0202C18.1191 9.56805 18.7413 9 19.5 9C20.3271 9 21 9.67285 21 10.5C21 11.1497 20.5825 11.6987 20.0036 11.9067Z" "/>
</svg>
