<svg  viewBox="0 0 24 24"  xmlns="http://www.w3.org/2000/svg">
<path d="M13.9985 5.22644C14.9014 4.86205 15.9308 5.01501 16.6888 5.62619H16.2095C15.5645 5.62619 15.566 6.62594 16.2095 6.62594H17.8468C18.123 6.62594 18.347 6.40197 18.347 6.12569V4.48319C18.347 3.83819 17.3473 3.83969 17.3473 4.48319V4.87244C16.3003 4.01069 14.8138 3.77819 13.5478 4.33094C12.2248 4.90919 11.363 6.25094 11.363 7.69169H12.3628C12.3628 6.62519 13.0115 5.63444 14 5.22644H13.9985Z" />
<path d="M18.6703 7.69169H17.6705C17.6705 8.82269 16.928 9.86144 15.854 10.2214C14.9855 10.5054 14.0321 10.3252 13.3273 9.74369H13.8148C14.4598 9.74369 14.4583 8.74394 13.8148 8.74394H12.1783C11.902 8.74394 11.678 8.96791 11.678 9.24419V10.8867C11.678 11.163 11.902 11.3869 12.1783 11.3869C12.4545 11.3869 12.6785 11.163 12.6785 10.8867V10.5117C13.3337 11.0609 14.1621 11.3605 15.017 11.3577C17.0323 11.3577 18.671 9.71294 18.671 7.69244L18.6703 7.69169Z" />
<path d="M19.6115 8.16644H21.5008L21.5 8.16569C21.6327 8.16569 21.7599 8.21839 21.8537 8.31221C21.9475 8.40602 22.0003 8.53326 22.0003 8.66594V15.9237C22.0003 16.0564 21.9475 16.1836 21.8537 16.2774C21.7599 16.3712 21.6327 16.4239 21.5 16.4239H17C16.724 16.4239 16.4998 16.1997 16.4998 15.9237V12.0852C16.5133 12.0806 16.527 12.0762 16.5407 12.0718C16.5604 12.0655 16.5801 12.0593 16.5995 12.0522C16.9158 11.9361 17.2179 11.7846 17.5003 11.6007V15.4242H21.0005V9.16619H19.3918C19.502 8.84217 19.5757 8.50684 19.6115 8.16644Z" />
<path fill-rule="evenodd" clip-rule="evenodd" d="M3.0005 15.9139H13.5005L13.5013 15.9154V12.0664C13.8251 12.1794 14.1604 12.2566 14.501 12.2967V16.4149C14.501 16.5476 14.4483 16.6749 14.3545 16.7687C14.2607 16.8625 14.1334 16.9152 14.0008 16.9152H10.2748L10.2793 16.9474C10.364 17.4537 10.628 17.9614 11.1478 18.1227C11.2127 18.1426 11.2823 18.1511 11.3518 18.1596C11.3621 18.1608 11.3725 18.1621 11.3828 18.1634C11.392 18.1645 11.4011 18.1657 11.4103 18.1669H12.0005C12.644 18.1669 12.6455 19.1667 12.0005 19.1667H4.5005C3.857 19.1667 3.8555 18.1669 4.5005 18.1669H5.14025C5.1965 18.1594 5.25275 18.1519 5.309 18.1384C5.79125 18.0252 6.0965 17.6179 6.22025 17.1559C6.23914 17.0766 6.25093 16.9958 6.2555 16.9144H2.50025C2.2235 16.9144 2 16.6902 2 16.4142V8.66669C2 8.39041 2.22397 8.16644 2.50025 8.16644H10.427C10.462 8.50636 10.5334 8.84153 10.64 9.16619H3.0005V15.9139ZM6.857 18.1662C7.09625 17.7942 7.2305 17.3562 7.28 16.9137H9.2675C9.31922 17.358 9.46771 17.7855 9.7025 18.1662H6.857Z" />
</svg>
