<svg  viewBox="0 0 24 24"  xmlns="http://www.w3.org/2000/svg">
<path d="M9.38965 11.4023C9.58496 11.207 9.90137 11.207 10.0967 11.4023L12 13.3049V3.5C12 3.22363 12.2236 3 12.5 3C12.7764 3 13 3.22363 13 3.5V13.2988L14.9033 11.3955C15.0986 11.2002 15.415 11.2002 15.6104 11.3955C15.8057 11.5908 15.8057 11.9072 15.6104 12.1025L12.8602 14.8527C12.8115 14.9037 12.7532 14.9443 12.6867 14.9711C12.6629 14.9809 12.6378 14.9843 12.6127 14.9877C12.6027 14.989 12.5927 14.9904 12.5828 14.9921C12.5724 14.9939 12.5624 14.9967 12.5523 14.9995C12.5354 15.0041 12.5184 15.0088 12.5 15.0088L12.4985 15.0085L12.4971 15.0088C12.3691 15.0088 12.2412 14.96 12.1436 14.8623L9.38965 12.1094C9.19434 11.9141 9.19434 11.5977 9.38965 11.4023Z" "/>
<path d="M14.9951 9H18.5C18.7764 9 19 9.22363 19 9.5V20.5C19 20.7764 18.7764 21 18.5 21H6.5C6.22363 21 6 20.7764 6 20.5V9.5C6 9.22363 6.22363 9 6.5 9H10.001C10.2773 9 10.501 9.22363 10.501 9.5C10.501 9.77637 10.2773 10 10.001 10H7V20H18V10H14.9951C14.7188 10 14.4951 9.77637 14.4951 9.5C14.4951 9.22363 14.7188 9 14.9951 9Z" "/>
</svg>
