<svg width="24" height="24" viewBox="0 0 24 24" xmlns="http://www.w3.org/2000/svg">
<path d="M18.6826 8.47604L12.3535 2.14645C12.2847 2.07761 12.1992 2.0322 12.1084 2.01169C12.0957 2.00925 12.0825 2.00681 12.0698 2.00485H12.0684C12.0679 2.00534 12.0669 2.00436 12.0669 2.00436H12.0645C12.064 2.00388 12.0635 2.00388 12.0635 2.00388H12.0615C11.9814 1.99509 11.8994 2.0029 11.8213 2.03317C11.8203 2.0335 11.8197 2.03366 11.8193 2.03366C11.8188 2.03366 11.8179 2.03415 11.8174 2.03464L11.8027 2.0405C11.8022 2.0405 11.8022 2.04099 11.8018 2.04099C11.8013 2.0405 11.8008 2.04196 11.8003 2.04147C11.7407 2.06784 11.6875 2.10446 11.6436 2.14938L5.31689 8.47604C5.12158 8.67136 5.12158 8.98776 5.31689 9.18308C5.51221 9.37839 5.82861 9.37839 6.02393 9.18308L11.5 3.707V21.5C11.5 21.7763 11.7236 22 12 22C12.2764 22 12.5 21.7763 12.5 21.5V3.707L17.9756 9.18308C18.1709 9.37839 18.4873 9.37839 18.6826 9.18308C18.7803 9.08542 18.8291 8.95749 18.8291 8.82956C18.8291 8.70163 18.7803 8.5737 18.6826 8.47604Z" />
</svg>
