<svg  viewBox="0 0 24 24"  xmlns="http://www.w3.org/2000/svg">
<path fill-rule="evenodd" clip-rule="evenodd" d="M4.80975 4.062H8.63325C8.92651 4.062 9.16425 3.82426 9.16425 3.531C9.16425 3.23774 8.92651 3 8.63325 3H3.53625C3.24299 3 3.00525 3.23774 3.00525 3.531V8.65875C3.00525 8.95201 3.24299 9.18975 3.53625 9.18975C3.82951 9.18975 4.06725 8.95201 4.06725 8.65875V4.82325L8.67675 9.4245C8.88653 9.61901 9.21259 9.61269 9.41468 9.4102C9.61676 9.20772 9.62243 8.88164 9.4275 8.67225L4.80975 4.062ZM20.526 14.9025C20.2329 14.9029 19.9954 15.1404 19.995 15.4335V19.2428L15.4035 14.622C15.2699 14.4874 15.0747 14.4342 14.8913 14.4826C14.7079 14.5309 14.5642 14.6734 14.5144 14.8564C14.4646 15.0394 14.5162 15.2351 14.6498 15.3698L19.2503 19.9988H15.4298C15.1474 20.0138 14.9262 20.247 14.9262 20.5298C14.9262 20.8125 15.1474 21.0457 15.4298 21.0608H20.5275C20.8206 21.0603 21.0581 20.8228 21.0585 20.5298V15.4328C21.0581 15.1397 20.8206 14.9022 20.5275 14.9018L20.526 14.9025ZM8.6715 14.634L4.062 19.2525V15.4283C4.062 15.135 3.82426 14.8973 3.531 14.8973C3.23774 14.8973 3 15.135 3 15.4283V20.526C3 20.8193 3.23775 21.057 3.531 21.057H8.65875C8.94106 21.042 9.16227 20.8087 9.16227 20.526C9.16227 20.2433 8.94106 20.01 8.65875 19.995H4.8225L9.4245 15.3848C9.61482 15.1744 9.60652 14.8517 9.40564 14.6514C9.20475 14.4511 8.88203 14.4438 8.67225 14.6348L8.6715 14.634ZM20.5305 3.00525H15.4335C15.1402 3.00525 14.9025 3.24299 14.9025 3.53625C14.9025 3.82951 15.1402 4.06725 15.4335 4.06725H19.242L14.622 8.65875C14.4139 8.86544 14.4127 9.20173 14.6194 9.40988C14.8261 9.61802 15.1624 9.61919 15.3705 9.4125L19.9995 4.812V8.6325C20.0145 8.91481 20.2478 9.13602 20.5305 9.13602C20.8132 9.13602 21.0465 8.91481 21.0615 8.6325V3.5355C21.0611 3.24241 20.8236 3.00566 20.5305 3.00525Z" />
</svg>
