<svg  viewBox="0 0 24 24"  xmlns="http://www.w3.org/2000/svg">
<path fill-rule="evenodd" clip-rule="evenodd" d="M5.5 17H8.5C8.77637 17 9 16.7764 9 16.5V13.5C9 13.2236 8.77637 13 8.5 13H5.5C5.22363 13 5 13.2236 5 13.5V16.5C5 16.7764 5.22363 17 5.5 17ZM6 14H8V16H6V14Z" "/>
<path d="M18.5 15H11.5C11.2236 15 11 14.7764 11 14.5C11 14.2236 11.2236 14 11.5 14H18.5C18.7764 14 19 14.2236 19 14.5C19 14.7764 18.7764 15 18.5 15Z" "/>
<path d="M11.5 17H14.5C14.7764 17 15 16.7764 15 16.5C15 16.2236 14.7764 16 14.5 16H11.5C11.2236 16 11 16.2236 11 16.5C11 16.7764 11.2236 17 11.5 17Z" "/>
<path d="M16.5 16H18.5C18.7764 16 19 16.2236 19 16.5C19 16.7764 18.7764 17 18.5 17H16.5C16.2236 17 16 16.7764 16 16.5C16 16.2236 16.2236 16 16.5 16Z" "/>
<path fill-rule="evenodd" clip-rule="evenodd" d="M20.3682 5H3.63135C2.73193 5 2 5.72559 2 6.61768V17.3823C2 18.2744 2.73193 19 3.63135 19H20.3682C21.2681 19 22 18.2744 22 17.3823V6.61768C22 5.72559 21.2681 5 20.3682 5ZM21 17.3823C21 17.7231 20.7168 18 20.3682 18H3.63135C3.2832 18 3 17.7231 3 17.3823V11H21V17.3823ZM21 10H3V9H21V10ZM21 8H3V6.61768C3 6.27686 3.2832 6 3.63135 6H20.3682C20.7168 6 21 6.27686 21 6.61768V8Z" "/>
</svg>
