<svg  viewBox="0 0 24 24"  xmlns="http://www.w3.org/2000/svg">
<path d="M9.01666 14.0341C10.5289 14.0341 11.0074 9.5722 11.0118 9.5263C11.0386 9.25091 10.8375 9.00677 10.5626 8.97943C10.2891 8.95989 10.043 9.15423 10.0167 9.42864C9.86334 10.998 9.35064 12.539 9.02691 12.9589C8.76324 12.5312 8.43755 11.0214 8.58355 9.51849C8.74127 7.90521 9.32037 7.95989 9.53961 7.97552C9.81207 7.98821 10.0567 7.79486 10.0806 7.52044C10.1045 7.24505 9.90044 7.00286 9.62554 6.97943C8.95806 6.914 7.80865 7.16204 7.58843 9.42083C7.44634 10.8818 7.70464 12.9374 8.31548 13.6718C8.54156 13.9433 8.78521 14.0175 8.94927 14.0312C8.97222 14.0331 8.99419 14.0341 9.01666 14.0341ZM14.1348 8.49346C14.1348 8.14825 13.8549 7.86846 13.5098 7.86846C13.1646 7.86846 12.8848 8.14825 12.8848 8.49346C12.8848 8.83868 13.1646 9.11846 13.5098 9.11846C13.8549 9.11846 14.1348 8.83868 14.1348 8.49346ZM18.8765 9.90423C18.3126 8.52044 17.5684 7.45501 16.7169 6.8095C16.6221 6.52337 16.503 6.25286 16.3545 5.98529C15.6573 4.73138 14.7803 4.45013 13.792 4.20794C13.4742 3.36614 12.5054 2.88568 11.3267 3.02337C10.6558 3.1015 10.1236 3.40716 9.79156 3.89154C9.14996 3.55755 8.24615 3.58099 7.49322 4.02435C6.74664 4.46282 6.48101 4.997 6.38921 5.36712C6.36822 5.45306 6.35406 5.53997 6.34673 5.62591C5.76714 5.6054 5.21246 5.8095 4.77837 6.22943C3.90093 7.07806 3.75543 8.09466 4.39898 8.88177C4.5733 9.09466 4.88824 9.12689 5.10259 8.95208C5.31646 8.77728 5.3482 8.46282 5.17339 8.24896C4.86724 7.87493 4.96832 7.43743 5.47418 6.94818C5.9107 6.52337 6.4273 6.59271 6.78521 6.72552C6.98834 6.79876 7.24224 6.74505 7.37652 6.57513C7.50738 6.41009 7.52056 6.17962 7.40923 6.00091C7.34185 5.89251 7.32427 5.75189 7.36041 5.60638C7.42437 5.34661 7.65142 5.09075 7.99957 4.88665C8.61285 4.52532 9.33697 4.63568 9.54986 4.96771C9.65679 5.13568 9.85552 5.22259 10.0494 5.19232C10.2457 5.16107 10.4136 4.98822 10.4639 4.79583C10.5836 4.34075 10.9127 4.07904 11.4419 4.01751C12.1998 3.92474 12.7916 4.19525 12.8887 4.67669C12.9473 4.93743 13.2002 5.09173 13.421 5.14642C14.3736 5.37689 14.9488 5.51556 15.4805 6.47161C15.6207 6.72454 15.7281 6.98138 15.8086 7.25677C15.8409 7.36614 15.9097 7.46185 16.0035 7.52728C16.5279 7.89056 17.2911 8.664 17.9507 10.2822C18.71 12.1417 19.0495 13.4701 18.9898 14.3242L18.9556 14.2577C18.8287 14.0126 18.5284 13.915 18.2818 14.0429C18.0367 14.1699 17.9405 14.4716 18.0669 14.7167L18.4129 15.3873C18.2669 15.4752 18.0953 15.553 17.8741 15.6201C17.71 15.6738 17.1094 15.5917 15.2842 13.7079C15.1812 13.6015 15.0333 13.5439 14.8873 13.5566C14.7393 13.5683 14.6036 13.6445 14.5176 13.7665C14.1871 14.2314 13.7701 14.5263 13.2037 14.6933C12.6309 14.8642 12.3018 15.5156 11.8458 16.4169C11.2862 17.5234 10.5201 19.039 9.04937 20.0937C8.82476 20.2548 8.773 20.5663 8.93414 20.7909C9.03179 20.9277 9.18511 20.9999 9.34087 20.9999C9.44146 20.9999 9.54351 20.9697 9.6314 20.9062C11.3018 19.7099 12.1319 18.0673 12.7383 16.8681C12.983 16.3837 13.3184 15.7206 13.4883 15.6523C14.0709 15.4794 14.5543 15.1982 14.9537 14.7968C16.0992 15.9355 17.2549 16.8525 18.1631 16.5771C18.6714 16.4238 19.3892 16.1298 19.7574 15.3583C20.2588 14.3066 19.9874 12.624 18.8765 9.90423Z" "/>
</svg>
