<?xml version="1.0" encoding="utf-8"?>
<svg version="1.1" id="Ebene_1" xmlns="http://www.w3.org/2000/svg" xmlns:xlink="http://www.w3.org/1999/xlink" x="0px" y="0px"
	 viewBox="0 0 24 24" style="enable-background:new 0 0 24 24;" xml:space="preserve">
<style type="text/css">
</style>
<path class="st0" d="M20.5,11H4.7070312l5.1464844-5.1464844c0.1953125-0.1953125,0.1953125-0.5117188,0-0.7070312
	s-0.5117188-0.1953125-0.7070312,0L3.1470947,11.145874c-0.0463867,0.0462646-0.0831909,0.1016846-0.1086426,0.163208
	c-0.0505371,0.1221924-0.0505371,0.2596436,0,0.3818359c0.0254517,0.0615234,0.0622559,0.1169434,0.1086426,0.163208
	l5.9993896,5.9993896C9.2441406,17.9511719,9.3720703,18,9.5,18s0.2558594-0.0488281,0.3535156-0.1464844
	c0.1953125-0.1953125,0.1953125-0.5117188,0-0.7070312L4.7070312,12H20.5c0.2763672,0,0.5-0.2236328,0.5-0.5S20.7763672,11,20.5,11z
	"/>
</svg>
