<svg  viewBox="0 0 24 24"  xmlns="http://www.w3.org/2000/svg">
<path d="M19.7759 6.56207V6.12158C19.7759 6.08649 19.7628 6.05573 19.756 6.02271C19.6531 4.66656 18.536 3.59131 17.1622 3.59131C16.7585 3.59131 16.3675 3.69391 16.0107 3.87C15.4337 2.73218 14.2769 2 12.9659 2C11.182 2 9.72954 3.38184 9.57201 5.13312C9.22826 5.05029 8.87785 4.99268 8.5186 4.99268C6.03423 4.99268 4.01323 7.0127 4.01323 9.49609C4.01323 10.7567 4.5374 11.8944 5.37541 12.7126C4.74339 13.0657 4.2003 13.4777 3.76323 13.9585C2.42387 15.4312 2.5518 16.9541 2.55815 17.0181C2.58354 17.2915 2.82231 17.4902 3.09917 17.4668C3.14934 17.4624 3.19371 17.4437 3.23814 17.4257C3.43608 17.3459 3.5717 17.1505 3.55376 16.9272C3.54985 16.8794 3.47319 15.7456 4.52593 14.606C5.48442 13.5684 7.59184 12.3384 12.2051 12.2607C12.0684 13.4136 11.2085 16.8896 8.84136 18.7266C7.59868 19.6928 6.13506 19.7652 4.67278 18.9639L6.51946 16.8079C6.99315 16.3896 7.50359 16.0168 8.04887 15.7344C8.29399 15.6074 8.3897 15.3057 8.26274 15.0605C8.1353 14.8154 7.8355 14.7183 7.58891 14.8467C5.95897 15.691 4.62969 17.1871 3.67955 18.5269C2.67137 19.9485 2.09044 21.194 2.04546 21.2925C1.93071 21.5435 2.04057 21.8403 2.29204 21.9551C2.35942 21.9858 2.43022 22.0005 2.49956 22.0005C2.6895 22.0005 2.87065 21.8921 2.95464 21.7085C2.96343 21.6894 3.35869 20.8386 4.05785 19.7568C4.91582 20.254 5.79234 20.5181 6.64653 20.5181C7.63628 20.5181 8.59477 20.1841 9.45464 19.5166C11.2857 18.0958 12.3429 15.7719 12.8459 13.999H17.0381C17.3145 13.999 17.5381 13.7754 17.5381 13.499C17.5381 13.2227 17.3145 12.999 17.0381 12.999H13.0857C13.2148 12.3245 13.2414 11.8193 13.1778 11.6333C13.1084 11.4312 12.8843 11.2568 12.6705 11.2568C10.097 11.2568 7.9973 11.5917 6.36992 12.2432C5.55034 11.6015 5.01323 10.6149 5.01323 9.49609C5.01323 7.56445 6.5855 5.99268 8.5186 5.99268C9.37749 5.99268 10.2037 6.30615 10.8448 6.87549C11.0499 7.05811 11.3677 7.04004 11.5508 6.8335C11.7339 6.62695 11.7154 6.31055 11.5088 6.12744C11.2132 5.86499 10.8794 5.66125 10.5317 5.48688C10.5333 5.47076 10.5411 5.45691 10.5411 5.44043C10.5411 4.09473 11.629 3 12.9659 3C14.042 3 14.9747 3.6958 15.2862 4.73096C15.3091 4.80695 15.3515 4.86957 15.4023 4.92371C15.4037 4.92535 15.4039 4.92755 15.4053 4.9292C15.4266 4.95386 15.4547 4.96716 15.4794 4.98663C15.4975 4.99957 15.5121 5.01697 15.5319 5.02734C15.7115 5.13354 15.9432 5.12457 16.1104 4.98193C16.4029 4.72998 16.7764 4.59131 17.1622 4.59131C18.0518 4.59131 18.7759 5.32227 18.7759 6.22119V6.97119C18.7759 7.1142 18.8373 7.24115 18.9333 7.33228C19.025 7.44165 19.1575 7.51514 19.3116 7.51514C20.2857 7.51514 21.0489 8.27734 21.0489 9.25049C21.0489 10.2178 20.2671 11.0049 19.3062 11.0054C19.0298 11.0054 18.8062 11.2295 18.8062 11.5054C18.8062 11.7817 19.0303 12.0054 19.3062 12.0054C20.8184 12.0049 22.0489 10.769 22.0489 9.25049C22.0489 7.90106 21.0638 6.784 19.7759 6.56207Z" "/>
</svg>
