<svg  viewBox="0 0 24 24"  xmlns="http://www.w3.org/2000/svg">
<path d="M17.5 8.99998H5.92804L9.83447 5.89109C10.0503 5.71922 10.0859 5.40476 9.91406 5.18846C9.74219 4.97215 9.42773 4.93601 9.21143 5.10887L4.18848 9.10642C4.06934 9.20115 4 9.34519 4 9.49705C4 9.64939 4.06934 9.79344 4.18799 9.88816L9.21045 13.8955C9.30273 13.9692 9.4126 14.0049 9.52197 14.0049C9.66895 14.0049 9.81445 13.9404 9.91309 13.8169C10.0854 13.6011 10.0503 13.2861 9.83447 13.1142L5.93134 9.99998H17.5C18.3271 9.99998 19 10.6728 19 11.5V18.5C19 18.7763 19.2236 19 19.5 19C19.7764 19 20 18.7763 20 18.5V11.5C20 10.1216 18.8784 8.99998 17.5 8.99998Z" />
</svg>
