<svg  viewBox="0 0 24 24"  xmlns="http://www.w3.org/2000/svg">
<path d="M21.6973 4.63764C21.2891 3.7519 21.6895 3.10053 21.7041 3.07807C21.8281 2.89155 21.8115 2.64594 21.666 2.47553C21.5186 2.30414 21.2754 2.25287 21.0732 2.34858C21.042 2.36371 20.2656 2.71723 19.3809 2.30951C18.3164 1.8183 16.6123 1.66987 14.54 3.74311C13.6553 4.62836 13.2871 5.33149 12.9912 5.89594C12.7861 6.28754 12.624 6.59711 12.3369 6.8808C12.0527 7.16108 11.7529 7.31537 11.373 7.51118C10.8232 7.79389 10.1377 8.14594 9.27246 9.01166C8.3623 9.92182 8.04688 10.6494 7.79395 11.2338C7.62207 11.6293 7.48633 11.9423 7.19727 12.2285C6.89258 12.5297 6.46582 12.7622 5.9707 13.0307C5.27148 13.4116 4.40039 13.8852 3.52734 14.7582C2.14941 16.1372 1.71289 17.5058 2.19336 18.9418C2.35059 19.4117 2.61841 19.8687 2.98608 20.3067L2.14648 21.145C1.95117 21.3403 1.95117 21.6567 2.14648 21.852C2.24414 21.9501 2.37207 21.999 2.5 21.999C2.62793 21.999 2.75586 21.9501 2.85352 21.853L3.6936 21.0143C4.12793 21.3792 4.5813 21.6458 5.04785 21.8037C5.42676 21.9316 5.80078 21.996 6.17188 21.996C7.20996 21.996 8.22266 21.4916 9.24121 20.4731C10.1143 19.6 10.5879 18.7289 10.9688 18.0288C11.2373 17.5346 11.4697 17.1074 11.7705 16.8027C12.0566 16.5131 12.3691 16.3774 12.7646 16.206C13.3496 15.9526 14.0771 15.6367 14.9863 14.7265C15.8604 13.853 16.1885 13.1376 16.4531 12.5624C16.6318 12.1733 16.7725 11.8657 17.0459 11.5893C17.3203 11.31 17.6367 11.1616 18.0371 10.9736C18.627 10.6962 19.3604 10.3515 20.2539 9.45795C22.3271 7.38422 22.1826 5.69233 21.6973 4.63764ZM19.5469 8.75092C18.7773 9.52094 18.1582 9.81147 17.6123 10.0683C17.1602 10.2807 16.7344 10.4809 16.334 10.8872C15.9375 11.2885 15.7461 11.7045 15.5439 12.145C15.3008 12.6738 15.0264 13.2729 14.2793 14.0195C13.5039 14.7954 12.9004 15.0571 12.3672 15.2885C11.9121 15.4863 11.4814 15.6728 11.0596 16.0996C10.6582 16.5053 10.3818 17.0131 10.0898 17.5512C9.72168 18.228 9.30469 18.9956 8.53418 19.7661C7.10352 21.1967 6.08984 21.1 5.36816 20.8564C4.91504 20.7031 4.46484 20.4052 4.03027 19.9706C3.59277 19.5331 3.29395 19.0805 3.14258 18.6249C2.90039 17.9042 2.80664 16.8935 4.23438 15.4653C5.00488 14.6948 5.77246 14.2773 6.44922 13.9096C6.98633 13.6166 7.49512 13.3408 7.90039 12.9394C8.32715 12.517 8.51367 12.0869 8.71094 11.6318C8.94238 11.0986 9.2041 10.4941 9.97949 9.71869C10.7344 8.96381 11.3164 8.6645 11.8301 8.40034C12.25 8.18451 12.6465 7.98041 13.04 7.59223C13.4375 7.19916 13.6514 6.79145 13.877 6.35981C14.1553 5.82905 14.4707 5.22748 15.2471 4.45014C16.2109 3.4853 17.1309 3.00092 17.9922 3.00092C18.3242 3.00092 18.6484 3.07319 18.9629 3.21772C19.5459 3.48578 20.1006 3.52778 20.5381 3.49116C20.4814 3.91694 20.5127 4.45698 20.7891 5.0561C21.3018 6.17035 20.8838 7.41303 19.5469 8.75092ZM5.62695 15.6196C4.9082 16.3378 4.49707 16.9829 4.36816 17.5922C4.24121 18.1953 4.40039 18.7412 4.83008 19.1699C5.15918 19.4999 5.56836 19.6743 6.01562 19.6743C6.73242 19.6743 7.50586 19.2485 8.37988 18.3735C10.1191 16.6342 9.73535 15.52 9.10742 14.892C8.47852 14.2636 7.3623 13.8823 5.62695 15.6196ZM7.67285 17.6664C6.84082 18.4995 6.3125 18.6743 6.01562 18.6743C5.83301 18.6743 5.68066 18.6074 5.53711 18.4638V18.4633C5.34863 18.2748 5.29004 18.0698 5.34668 17.7988C5.40625 17.5185 5.625 17.0351 6.33398 16.3266C7.08887 15.5717 7.57715 15.3666 7.89648 15.3666C8.16797 15.3666 8.31641 15.5151 8.40039 15.5991C8.58398 15.7822 9.07031 16.269 7.67285 17.6664ZM15.79 5.45405C14.0518 7.19233 14.4346 8.30659 15.0625 8.935V8.93549C15.3535 9.22602 15.748 9.4643 16.2598 9.4643C16.8545 9.4643 17.6084 9.14252 18.543 8.20795C20.4336 6.31684 19.8545 5.17133 19.3408 4.65668C18.8281 4.14252 17.6816 3.56293 15.79 5.45405ZM17.8359 7.50092C16.4395 8.89741 15.9531 8.41157 15.7695 8.22846C15.5869 8.04487 15.1006 7.55756 16.4971 6.16108C17.166 5.49164 18.0791 4.81098 18.6338 5.36323C19.1865 5.91742 18.5049 6.83149 17.8359 7.50092ZM10.7959 10.4497C8.90527 12.3408 9.48438 13.4863 9.99805 14.0004V14.0009C10.2432 14.246 10.6318 14.5063 11.1768 14.5063C11.7744 14.5063 12.5596 14.1928 13.5488 13.2036C15.2871 11.4653 14.9043 10.351 14.2764 9.72211C13.6465 9.09321 12.5322 8.71186 10.7959 10.4497ZM12.8418 12.4965C12.1719 13.1645 11.2588 13.8466 10.7051 13.2939C10.1523 12.7397 10.834 11.8256 11.5029 11.1567C12.9004 9.75922 13.3867 10.246 13.5693 10.4287C13.752 10.6122 14.2383 11.0996 12.8418 12.4965Z" />
</svg>
