<svg  viewBox="0 0 24 24"  xmlns="http://www.w3.org/2000/svg">
<path d="M16.9927 10.0601C16.9956 9.71582 16.9825 9.09375 16.8597 8.79736C16.6659 8.33203 16.2702 7.93359 15.8511 7.51221C15.1455 6.80273 14.4162 6.06885 14.4045 4.90674C14.7042 4.78418 14.9746 4.50488 14.9746 3.89502V3.07178C14.9746 2.48096 14.4968 2 13.9093 2H10.0688C9.4812 2 9.00338 2.48096 9.00338 3.07178V3.89502C9.00338 4.41699 9.24763 4.79443 9.64921 4.93408C9.61911 6.06787 8.8815 6.7959 8.16769 7.5C7.73649 7.92578 7.32909 8.32812 7.1334 8.79736C7.01054 9.09375 6.99743 9.71582 7.00035 10.0562L7.00763 21.4966C7.00763 21.7725 7.23051 21.9961 7.50487 21.9961H16.5028C16.6348 21.9961 16.7611 21.9434 16.8543 21.8496C16.9476 21.7559 17 21.6284 17 21.4956L16.9927 10.0601ZM9.99786 3.07178C9.99786 3.03369 10.0309 3 10.0688 3H13.9093C13.9471 3 13.9801 3.03369 13.9801 3.07178V3.89502C13.9801 3.94141 13.9782 3.97412 13.9806 3.9917C13.9653 3.99377 13.943 3.99475 13.9181 3.99512H10.0117C10.006 3.97742 9.99786 3.95569 9.99786 3.89502V3.07178ZM8.00162 20.9961L7.99482 10.0513C7.99458 10.0389 7.99531 10.0262 7.99519 10.0137H12.991C13.2659 10.0137 13.4882 9.79004 13.4882 9.51367C13.4882 9.2373 13.2659 9.01367 12.991 9.01367H8.1479C8.30536 8.77039 8.5751 8.49927 8.86451 8.21387C9.63428 7.45398 10.5795 6.50867 10.6343 4.99512H13.4189C13.467 6.51733 14.3936 7.46069 15.148 8.21924C15.4957 8.56934 15.8239 8.89941 15.9395 9.17676C15.974 9.2793 16.0012 9.68848 15.9982 10.0562L16.005 20.9961H8.00162Z" "/>
</svg>
