<svg  viewBox="0 0 24 24"  xmlns="http://www.w3.org/2000/svg">
<path fill-rule="evenodd" clip-rule="evenodd" d="M9.303 8.01109C9.40516 7.96673 9.51849 7.95833 9.62484 7.98578L9.703 8.01309L18.703 12.0085L18.722 12.0245C18.7662 12.0475 18.8064 12.077 18.8415 12.112L18.9102 12.1945L18.959 12.2672C18.9769 12.3084 18.989 12.3518 18.9952 12.396L19 12.463V18.4581C19.0003 18.6285 18.9137 18.7852 18.7741 18.8766L18.7 18.9166L11.7 21.9581C11.5966 22.0031 11.4818 22.0117 11.3741 21.9838L11.295 21.9561L2.295 17.9147C2.14113 17.8456 2.0343 17.7048 2.00692 17.5421L2 17.4592L2.001 11.4621C2.00122 11.3933 2.01587 11.3252 2.044 11.2624L2.112 11.1665C2.14262 11.1257 2.17931 11.0901 2.22066 11.0608L2.2945 11.0143L2.303 11.0077L9.303 8.01109ZM18 18.1315V13.2231L15.2474 14.4141L15.223 14.4237L12 15.8141V20.7395L18 18.1315ZM3 12.2362V17.1366L11 20.7285V15.8081L3 12.2362ZM6.338 10.3674L3.747 11.4761L11.503 14.9391L13.785 13.9553L6.338 10.3674ZM17.254 12.458L9.497 9.01394L7.556 9.84499L14.999 13.4309L17.254 12.458ZM21.4851 2.00001C21.6178 1.99607 21.7465 2.04493 21.843 2.13584C21.9397 2.22654 21.9964 2.35193 22.0005 2.48438C22.0038 2.59034 21.9733 2.69387 21.9144 2.78047L21.865 2.84202L17.615 7.35285C17.449 7.53098 17.1827 7.5603 16.984 7.43434L16.913 7.37982L14.663 5.32717C14.5242 5.2087 14.4611 5.0241 14.4984 4.84559C14.5357 4.66709 14.6673 4.52305 14.842 4.46984C14.9875 4.4255 15.1435 4.4501 15.2671 4.53321L15.337 4.59002L17.224 6.31004L21.136 2.15681C21.2269 2.06035 21.3525 2.00394 21.4851 2.00001Z" />
</svg>
