<svg width="24" height="24" viewBox="0 0 24 24" xmlns="http://www.w3.org/2000/svg">
<path d="M12.1484 16.1445L9.10889 19.1523C7.93408 20.3262 6.02246 20.3271 4.84766 19.1523C3.67285 17.9775 3.67285 16.0659 4.84766 14.8911L8.48779 11.251C9.66162 10.0757 11.5732 10.0757 12.749 11.251C12.8071 11.3096 12.979 11.5615 13.0449 11.7065C13.1587 11.958 13.4541 12.0713 13.7065 11.9551C13.958 11.8413 14.0693 11.5449 13.9551 11.2935C13.8569 11.0767 13.6279 10.7153 13.4561 10.5439C11.8916 8.979 9.34521 8.979 7.78076 10.5439L4.14062 14.1841C2.57568 15.7485 2.57568 18.2949 4.14062 19.8594C4.92334 20.6421 5.95117 21.0332 6.979 21.0332C8.00586 21.0332 9.0332 20.6426 9.81396 19.8613L12.8516 16.8555C13.0479 16.6611 13.0498 16.3447 12.8555 16.1484C12.6616 15.9512 12.3447 15.9502 12.1484 16.1445ZM19.8594 4.14063C18.2944 2.57617 15.749 2.5752 14.186 4.13867L11.1484 7.14453C10.9521 7.33887 10.9502 7.65527 11.1445 7.85156C11.2422 7.95068 11.3711 8 11.5 8C11.627 8 11.7544 7.95166 11.8516 7.85547L14.8911 4.84766C16.0649 3.67285 17.9766 3.67188 19.1523 4.84766C20.3271 6.02246 20.3271 7.93408 19.1523 9.10889L15.5122 12.749C14.3369 13.9229 12.4253 13.9238 11.251 12.749C11.2056 12.7036 11.0693 12.5049 10.9414 12.2651C10.8115 12.0215 10.5093 11.9292 10.2651 12.0586C10.021 12.1885 9.92871 12.4912 10.0586 12.7349C10.1035 12.8193 10.3379 13.25 10.5439 13.4561C11.3262 14.2383 12.354 14.6294 13.3818 14.6294C14.4092 14.6294 15.437 14.2383 16.2192 13.4561L19.8594 9.81592C21.4243 8.25147 21.4243 5.70508 19.8594 4.14063Z" />
</svg>
