<svg  viewBox="0 0 24 24"  xmlns="http://www.w3.org/2000/svg">
<path fill-rule="evenodd" clip-rule="evenodd" d="M12.0008 8.49975C10.071 8.49975 8.5005 10.0695 8.5005 12C8.5005 13.9305 10.0703 15.5003 12.0008 15.5003C13.9313 15.5003 15.501 13.9305 15.501 12C15.501 10.0695 13.9313 8.49975 12.0008 8.49975ZM12.0008 14.4998C10.6223 14.4998 9.501 13.3785 9.501 12C9.501 10.6215 10.6223 9.50025 12.0008 9.50025C13.3793 9.50025 14.5005 10.6215 14.5005 12C14.5005 13.3785 13.3793 14.4998 12.0008 14.4998Z" "/>
<path fill-rule="evenodd" clip-rule="evenodd" d="M20.5005 10.086H18.6503C18.5065 9.58705 18.3067 9.10599 18.0548 8.652L19.3643 7.3425C19.559 7.14725 19.559 6.83125 19.3643 6.636L17.3648 4.6365C17.1662 4.44916 16.856 4.44916 16.6575 4.6365L15.348 5.946C14.8943 5.69388 14.4135 5.4941 13.9148 5.3505V3.50025C13.9148 3.22397 13.6908 3 13.4145 3H10.587C10.3107 3 10.0868 3.22397 10.0868 3.50025V5.3505C9.5878 5.49423 9.10674 5.69401 8.65275 5.946L7.34325 4.6365C7.14774 4.44169 6.83151 4.44169 6.636 4.6365L4.6365 6.636C4.44178 6.83125 4.44178 7.14725 4.6365 7.3425L5.946 8.652C5.69369 9.10584 5.4939 9.58694 5.3505 10.086H3.50025C3.22397 10.086 3 10.31 3 10.5863V13.4138C3 13.6898 3.2235 13.914 3.50025 13.914H5.3505C5.49423 14.4129 5.69401 14.894 5.946 15.348L4.6365 16.6575C4.44169 16.853 4.44169 17.1692 4.6365 17.3648L6.636 19.3643C6.831 19.5593 7.14825 19.5593 7.34325 19.3643L8.65275 18.0548C9.10644 18.3074 9.58757 18.5072 10.0868 18.6503V20.5005C10.0868 20.7765 10.311 21.0008 10.587 21.0008H13.4145C13.6908 21.0008 13.9148 20.7768 13.9148 20.5005V18.6503C14.4135 18.5065 14.8943 18.3067 15.348 18.0548L16.6575 19.3643C16.8525 19.5593 17.169 19.5593 17.3648 19.3643L19.3643 17.3648C19.5591 17.1692 19.5591 16.853 19.3643 16.6575L18.0548 15.348C18.3067 14.894 18.5065 14.4129 18.6503 13.914H20.5005C20.6332 13.914 20.7604 13.8613 20.8542 13.7675C20.948 13.6737 21.0008 13.5464 21.0008 13.4138V10.5863C21.0008 10.31 20.7768 10.086 20.5005 10.086ZM20.0003 12.9135H18.2625C18.0288 12.9134 17.8262 13.0755 17.775 13.3035C17.6269 13.9615 17.3663 14.5889 17.0048 15.1583C16.8795 15.3559 16.9081 15.614 17.0738 15.7793L18.3045 17.01L17.0123 18.3023L15.7815 17.0715C15.6161 16.9062 15.3582 16.8775 15.1605 17.0025C14.5911 17.364 13.9637 17.6246 13.3058 17.7728C13.0777 17.824 12.9157 18.0265 12.9158 18.2603V19.9988H11.088V18.2603C11.0883 18.0262 10.9258 17.8234 10.6973 17.7728C10.0393 17.6245 9.41189 17.3639 8.8425 17.0025C8.64482 16.8775 8.38692 16.9062 8.2215 17.0715L6.99075 18.3023L5.6985 17.01L6.92925 15.7793C7.09486 15.614 7.12354 15.3559 6.99825 15.1583C6.6365 14.589 6.37591 13.9615 6.228 13.3035C6.17676 13.0755 5.97423 12.9134 5.7405 12.9135H4.002V11.0858H5.7405C5.97423 11.0858 6.17676 10.9238 6.228 10.6958C6.37625 10.0376 6.63681 9.40991 6.99825 8.84025C7.12354 8.64264 7.09486 8.38454 6.92925 8.21925L5.6985 6.9885L6.99075 5.69625L8.2215 6.927C8.38679 7.09261 8.64489 7.12129 8.8425 6.996C9.41183 6.63444 10.0393 6.37387 10.6973 6.22575C10.9253 6.17451 11.0873 5.97198 11.0873 5.73825V4.0005H12.915V5.73825C12.915 5.97225 13.077 6.17475 13.305 6.22575C13.9629 6.37405 14.5903 6.63461 15.1598 6.996C15.3574 7.12129 15.6155 7.09261 15.7808 6.927L17.0115 5.69625L18.3038 6.9885L17.073 8.21925C16.9074 8.38454 16.8787 8.64264 17.004 8.84025C17.3678 9.41475 17.6265 10.0388 17.7743 10.695C17.8254 10.9232 18.0279 11.0855 18.2618 11.0858H20.0003V12.9135Z" "/>
</svg>
