<svg  viewBox="0 0 24 24"  xmlns="http://www.w3.org/2000/svg">
<path d="M8.49975 16.995C8.33548 16.9945 8.18188 16.9136 8.08867 16.7783C7.99545 16.643 7.97447 16.4707 8.0325 16.317C8.55825 14.931 10.1528 14.0003 12 14.0003C13.7348 14.0003 15.3615 14.9423 15.957 16.2923C16.0686 16.5447 15.9545 16.8399 15.702 16.9515C15.4495 17.0631 15.1544 16.949 15.0428 16.6965C14.601 15.6975 13.3508 15 12 15C10.566 15 9.34725 15.672 8.967 16.6718C8.89342 16.8659 8.70739 16.9951 8.49975 16.995Z" "/>
<path d="M8.00025 11.001C7.76849 11.0008 7.56719 10.8415 7.5138 10.616C7.46041 10.3905 7.56891 10.1578 7.776 10.0538L9.77625 9.054C9.93608 8.97402 10.1264 8.98538 10.2756 9.08381C10.4248 9.18223 10.5102 9.35277 10.4995 9.53118C10.4889 9.70959 10.3838 9.86877 10.224 9.94875L8.22375 10.9485C8.15439 10.9832 8.07783 11.0012 8.00025 11.001Z" "/>
<path d="M15.9998 11.001C15.9222 11.0008 15.8458 10.9828 15.7763 10.9485L13.776 9.94875C13.5448 9.81693 13.457 9.52733 13.5761 9.28932C13.6952 9.05131 13.9796 8.94796 14.2238 9.054L16.224 10.0538C16.4296 10.1587 16.5369 10.3904 16.4839 10.6151C16.4309 10.8397 16.2306 10.9991 15.9998 11.001Z" "/>
<path fill-rule="evenodd" clip-rule="evenodd" d="M3 12.0008C3 16.9635 7.03725 21.0015 12 21.0015C16.9628 21.0015 21 16.9643 21 12.0008C21 7.03725 16.9628 3 12 3C7.03725 3 3 7.038 3 12.0008ZM3.99975 12.0008C3.99975 7.58925 7.58925 4.0005 12 4.0005C16.4115 4.0005 20.0003 7.58925 20.0003 12.0008C20.0003 16.413 16.4115 20.0018 12 20.0018C7.5885 20.0018 3.99975 16.4123 3.99975 12.0008Z" "/>
</svg>
