<svg  viewBox="0 0 24 24"  xmlns="http://www.w3.org/2000/svg">
<path d="M17.4678 5.45552C17.065 5.06391 16.6934 5.01423 16.6451 5.01033C16.3038 4.96065 15.9542 5.09216 15.6627 5.3844C15.3892 5.65716 14.858 6.0478 14.2432 6.4998C13.1946 7.27145 12.007 8.15451 11.1572 9.08799C10.7068 8.60774 10.2726 8.20395 9.91608 7.92011C9.49567 7.585 9.13971 7.55773 9.0528 7.55773H9.05182C8.70367 7.53337 8.3653 7.71067 8.10748 8.03506C7.52203 8.77054 6.73444 9.38523 5.97223 9.97946C4.51129 11.1182 3.00055 12.296 3.00055 14.3222C3.00055 17.9178 5.2569 18.3917 6.89044 18.5056C6.89679 18.5065 6.90326 18.5092 6.90973 18.5101C6.93121 18.513 6.9527 18.514 6.97369 18.514C6.9776 18.514 6.9809 18.5119 6.9848 18.5119C7.13483 18.5213 7.28107 18.5292 7.41705 18.5354C7.47809 18.5539 7.65924 18.6542 7.76715 18.7146C8.09283 18.8968 8.28766 19.0001 8.50055 19.0001C8.72565 19.0001 8.94928 18.8958 9.29547 18.7254C9.42535 18.6611 9.64313 18.5539 9.69586 18.5412C11.1754 18.4706 13.3034 18.362 13.8598 15.7564C13.9109 15.7641 13.9642 15.7723 14.0132 15.7795C14.0723 15.8039 14.2422 15.9218 14.3438 15.9929C14.649 16.2062 14.8321 16.328 15.045 16.3494C15.0694 16.3514 15.0938 16.3523 15.1182 16.3523C15.3204 16.3523 15.5406 16.2744 15.8624 16.1546C15.9981 16.1039 16.2256 16.0192 16.2794 16.0114C17.9913 16.101 20.5826 16.2354 20.9849 12.2434C21.2149 9.9551 18.6666 6.62449 17.4678 5.45552ZM9.6485 17.5457C9.40973 17.5564 9.15192 17.684 8.85309 17.8301C8.7569 17.8778 8.60992 17.9499 8.51862 17.986C8.44489 17.9509 8.33551 17.8895 8.25592 17.8447C7.93707 17.6665 7.73102 17.5573 7.51666 17.5466C7.35577 17.5387 7.19489 17.53 7.03448 17.5195C6.80109 17.4885 6.36566 17.1174 6.15143 16.4975C5.97272 15.9822 5.83453 14.9554 6.91266 13.8653C7.2403 13.5331 7.69098 13.1562 8.16754 12.7558C8.7525 12.2658 9.35699 11.7592 9.79987 11.2799C9.98737 11.0783 9.97467 10.7627 9.77203 10.5756C9.56891 10.3886 9.25201 10.4003 9.06549 10.6039C8.6651 11.0364 8.08502 11.5225 7.52399 11.993C7.02887 12.408 6.5611 12.7996 6.20074 13.1649C5.13629 14.2414 4.7735 15.575 5.20612 16.8228C5.2486 16.9457 5.29938 17.0636 5.35516 17.1778C4.56012 16.8071 4.00055 16.0284 4.00055 14.3222C4.00055 12.7831 5.19977 11.8479 6.58795 10.7656C7.39606 10.1353 8.23199 9.48362 8.89069 8.65462C8.95026 8.58058 8.9942 8.55623 9.01471 8.55428C9.0191 8.55525 9.12897 8.56889 9.29254 8.69943C10.6231 9.7593 13.0005 12.5454 13.0005 14.3222C13.0005 17.384 11.3721 17.4629 9.6485 17.5457ZM14.6558 15.0053C14.4952 14.9038 14.3509 14.826 14.211 14.8054C14.1346 14.7939 14.0582 14.7821 13.9818 14.7704C13.9897 14.6236 14.0005 14.4811 14.0005 14.3222C14.0005 12.9256 12.9532 11.208 11.8211 9.84174C12.6264 8.93493 13.8853 8.00255 14.837 7.3025C15.2532 6.99662 15.6248 6.72057 15.93 6.47338L15.489 9.42651C15.4877 9.42736 15.4866 9.42724 15.4854 9.42809L15.3775 9.49725C14.6505 9.959 13.8692 10.5055 13.8043 11.1523C13.6807 12.3765 14.5408 12.619 15.0002 12.6999L14.6558 15.0053ZM15.2764 11.7349C14.8321 11.6667 14.7598 11.6443 14.7979 11.2614C14.8238 11.1679 14.9942 10.9312 15.8321 10.3905C16.0723 10.7013 16.3135 11.1806 16.2916 11.4017C16.2501 11.8079 16.2032 11.8021 15.7725 11.7836C15.6763 11.7729 15.6002 11.7953 15.5108 11.8235C15.4439 11.7836 15.3682 11.7485 15.2764 11.7349ZM16.3306 15.0158C16.1221 14.9959 15.8945 15.0785 15.6418 15.174L15.9986 12.7846C16.4698 12.7715 17.1754 12.5995 17.2867 11.5011C17.3564 10.806 16.8072 9.97544 16.4733 9.60538L16.9567 6.36841C18.1647 7.62579 20.1627 10.4294 19.9898 12.144C19.6827 15.1902 18.0528 15.1015 16.3306 15.0158Z" "/>
</svg>
