<svg  viewBox="0 0 24 24"  xmlns="http://www.w3.org/2000/svg">
<path fill-rule="evenodd" clip-rule="evenodd" d="M19.4973 7.99975H4.50016C4.36745 7.99995 4.24011 7.94732 4.14627 7.85348C4.05243 7.75964 3.9998 7.6323 4 7.49959V4.50016C4 4.22346 4.22346 4 4.50016 4H19.4973C19.774 4 19.9975 4.22346 19.9975 4.50016V7.49959C19.9975 7.77582 19.7736 7.99975 19.4973 7.99975ZM5.00031 6.99944H18.9979V4.99956H5.00031V6.99944ZM19.4973 13.9986H4.50016C4.36745 13.9988 4.24011 13.9462 4.14627 13.8524C4.05243 13.7585 3.9998 13.6312 4 13.4985V10.499C4 10.2231 4.22346 9.99887 4.50016 9.99887H19.4973C19.774 9.99887 19.9975 10.2223 19.9975 10.499V13.4985C19.9977 13.6312 19.9451 13.7585 19.8512 13.8524C19.7574 13.9462 19.6301 13.9988 19.4973 13.9986ZM5.00031 12.9983H18.9979V10.9984H5.00031V12.9983ZM19.4973 19.9975H4.50016C4.36745 19.9977 4.24011 19.9451 4.14627 19.8512C4.05243 19.7574 3.9998 19.6301 4 19.4973V16.4979C4 16.2212 4.22346 15.9977 4.50016 15.9977H19.4973C19.774 15.9977 19.9975 16.2212 19.9975 16.4979V19.4973C19.9977 19.6301 19.9451 19.7574 19.8512 19.8512C19.7574 19.9451 19.6301 19.9977 19.4973 19.9975ZM5.00031 18.9972H18.9979V16.9973H5.00031V18.9972Z" />
</svg>
