<svg  viewBox="0 0 24 24"  xmlns="http://www.w3.org/2000/svg">
<path fill-rule="evenodd" clip-rule="evenodd" d="M11.9845 21.5335C11.8757 21.5331 11.77 21.4976 11.683 21.4322C3.1585 14.989 2.5 12.5815 2.5 9.88298C2.5 6.90323 4.741 4.47998 7.495 4.47998C10.0383 4.47998 11.3748 6.07973 12.01 7.24523C12.622 6.07673 13.9293 4.47998 16.5055 4.47998C19.2595 4.47998 21.4998 6.90398 21.4998 9.88298C21.4998 12.481 20.821 14.9815 12.2853 21.4322C12.1985 21.498 12.0934 21.5336 11.9845 21.5335ZM7.495 5.47898C5.2915 5.47898 3.49975 7.45373 3.49975 9.88223C3.49975 12.259 4.114 14.4152 11.9845 20.4055C19.8663 14.4047 20.5 12.1697 20.5 9.88223C20.5 7.45373 18.7083 5.47898 16.5055 5.47898C13.2565 5.47898 12.541 8.53598 12.5118 8.66648C12.4611 8.89223 12.2623 9.05382 12.031 9.05723C11.752 9.06323 11.596 8.90423 11.5383 8.67998C11.5053 8.54948 10.6848 5.47823 7.49425 5.47823L7.495 5.47898Z" />
</svg>
