<svg  viewBox="0 0 24 24"  xmlns="http://www.w3.org/2000/svg">
<path d="M20.9342 10.507C20.9254 10.4914 20.0352 8.91589 19.6529 7.4921C19.0552 5.26884 15.2431 3.58867 12.727 3.10527C11.1117 2.79604 9.70275 3.17083 8.65162 4.19341C7.75503 5.06628 7.11051 6.4245 6.78678 8.12229C6.63516 8.91699 6.58518 9.66338 6.61821 10.3557C5.69603 11.0314 4.9718 11.8172 4.63283 12.6588C4.01073 14.203 3.08149 15.7471 3.07222 15.7628C2.944 15.9751 2.99032 16.2501 3.18094 16.4077C3.19606 16.4204 4.67915 17.6592 5.58061 18.9284C6.60152 20.3659 9.19327 21 11.7158 21C12.4427 21 13.1643 20.9472 13.8405 20.8454C17.184 20.3454 18.7646 17.7874 18.1767 13.8272C18.1752 13.8176 18.1723 13.8093 18.1708 13.7997C18.2993 13.6904 18.4265 13.5799 18.5311 13.4554C19.5408 12.2537 20.8142 11.146 20.8269 11.1352C21.0078 10.9787 21.0527 10.7154 20.9342 10.507ZM9.34685 4.91362C9.63669 4.63144 9.96188 4.42129 10.3144 4.26986C11.3597 5.31446 11.4767 6.90938 11.308 8.28289C10.7312 8.40864 10.1363 8.58624 9.54674 8.80752C9.55746 8.76189 9.58074 8.72238 9.58964 8.67615C9.82366 7.44807 9.33905 6.27772 8.53119 6.12213C8.52181 6.1203 8.50986 6.11956 8.49987 6.11785C8.74352 5.64411 9.02202 5.22957 9.34685 4.91362ZM7.76771 8.31017C7.91251 7.54984 8.22453 7.16429 8.34886 7.11145C8.48244 7.19658 8.75059 7.74457 8.60871 8.48827C8.52729 8.9154 8.34764 9.21325 8.18236 9.40504C8.06633 9.464 7.95322 9.5259 7.83974 9.58779C7.74601 9.4426 7.63437 9.00604 7.76771 8.31017ZM13.6933 19.8551C10.986 20.2592 7.42497 19.7983 6.39382 18.3472C5.67422 17.3334 4.65477 16.3734 4.13993 15.9155C4.46317 15.3489 5.08576 14.2079 5.55818 13.0346C6.22172 11.3877 9.29566 9.57054 12.1365 9.14487C13.5758 8.93351 14.7488 9.29655 15.6249 10.236C16.4098 11.0785 16.951 12.3712 17.1889 13.974C17.4795 15.9321 17.4117 19.2983 13.6933 19.8551ZM17.9278 12.6286C17.5955 11.3651 17.0635 10.3124 16.3538 9.55195C15.328 8.4512 13.9392 7.96389 12.3295 8.12045C12.49 6.42658 12.1779 5.03925 11.4223 4.02058C11.4996 4.01593 11.572 4.00064 11.6514 4.00064C11.9342 4.00064 12.2302 4.02999 12.5388 4.08969H12.5393C15.1149 4.58385 18.2742 6.2102 18.6886 7.7524C18.9938 8.88849 19.571 10.0686 19.8733 10.646C19.4497 11.0308 18.6547 11.7895 17.9278 12.6286ZM15.7185 13.3419C15.4586 12.0717 14.9799 9.70362 11.3828 10.2438C9.57794 10.5129 8.70768 11.8887 7.86619 13.2196C7.43228 13.9055 6.98423 14.614 6.40748 15.1747C6.12568 15.4487 6.00721 15.7765 6.06961 16.074C6.08277 16.165 6.15444 16.486 6.53424 16.8079C7.55514 17.669 10.1605 19.0214 12.1595 19.0214C12.3525 19.0214 12.5397 19.0087 12.7196 18.9813C16.2972 18.446 16.1178 16.5525 15.9852 15.1835C15.992 15.1258 16.0549 14.9545 16.0924 14.8518C16.1934 14.5758 16.2801 14.339 16.2475 14.1149C16.2153 13.8996 16.0676 13.7255 15.8808 13.5043C15.8082 13.4172 15.7346 13.3438 15.7185 13.3419ZM15.1554 14.5063C15.0554 14.7784 14.9696 15.0142 14.993 15.2647C15.1213 16.6181 15.2139 17.5956 12.5724 17.991C10.9489 18.2278 8.1553 16.8656 7.1773 16.0417C7.07687 15.9566 7.05103 15.8949 7.09686 15.8949H7.10173C7.76381 15.251 8.24403 14.4917 8.70915 13.7568C9.49652 12.5121 10.1766 11.4366 11.53 11.2341C12.8106 11.0455 13.5318 11.2715 13.9736 11.6995C13.3777 11.5823 11.9452 11.5021 10.7217 12.973C10.2278 13.5669 9.90898 14.1981 9.65253 14.705C9.47166 15.0631 9.30102 15.4017 9.16061 15.527C8.95487 15.7109 8.93683 16.028 9.12063 16.2345C9.21911 16.345 9.35611 16.4018 9.49311 16.4018C9.61158 16.4018 9.73005 16.3597 9.82561 16.2746C10.1064 16.0231 10.3088 15.6229 10.5433 15.1581C10.789 14.6727 11.0669 14.1208 11.4881 13.6149C12.3901 12.5307 13.4129 12.606 13.8108 12.6872C14.3305 12.7945 14.6203 13.0539 14.6596 13.1679C14.6875 13.2927 14.7148 13.4178 14.7405 13.5435C14.7814 13.7441 14.9111 13.9055 15.1188 14.1521C15.1588 14.1991 15.1993 14.2441 15.2324 14.2862C15.211 14.3547 15.1793 14.4408 15.1554 14.5063Z" />
</svg>
