<svg  viewBox="0 0 24 24"  xmlns="http://www.w3.org/2000/svg">
<path d="M18.0376 12L18.4993 9.80355C20.5295 9.6664 19.9657 12 19.9657 12H18.0376Z" "/>
<path fill-rule="evenodd" clip-rule="evenodd" d="M17.5957 7.44141C18.6714 7.44141 20.2964 7.44141 21.2661 8.63574C22.0352 9.5835 22.1992 11.0439 21.7671 13.0996L21.0088 16.606C20.959 16.8359 20.7554 17 20.52 17H16.8405C16.5285 18.131 15.4458 19 14.2979 19C13.6929 19 13.1641 18.7593 12.8096 18.3228C12.5175 17.9628 12.3834 17.4935 12.4083 17H9.68701C9.68488 17 9.68293 16.9994 9.68098 16.9988C9.67912 16.9982 9.67725 16.9977 9.67523 16.9976C9.36414 18.1298 8.28064 19 7.13232 19C6.52734 19 5.99854 18.7593 5.64404 18.3228C5.35193 17.9628 5.21783 17.4935 5.24274 17H4.46729C4.19092 17 3.96729 16.7764 3.96729 16.5C3.96729 16.2236 4.19092 16 4.46729 16H5.52216C5.72833 15.6011 6.03009 15.2583 6.39319 15H3.5C3.34961 15 3.20703 14.9321 3.11182 14.8154C3.01709 14.6982 2.97998 14.5449 3.01074 14.3975L3.30341 13H4.32513L4.11572 14H13.6299L15.3052 6H5.79102L5.5816 7H6C6.27637 7 6.5 7.22363 6.5 7.5C6.5 7.77637 6.27637 8 6 8H3.5C3.22363 8 3 7.77637 3 7.5C3 7.22363 3.22363 7 3.5 7H4.55994L4.89551 5.39746C4.94385 5.16602 5.14795 5 5.38477 5H15.9209C16.0713 5 16.2139 5.06787 16.3091 5.18457C16.4038 5.30176 16.4409 5.45508 16.4102 5.60254L14.5346 14.5585C14.6985 14.5229 14.865 14.5 15.0337 14.5C15.1777 14.5 15.3168 14.5156 15.4509 14.5423L16.8794 7.8374C16.9287 7.60645 17.1328 7.44141 17.3687 7.44141H17.5957ZM7.13232 18C7.8501 18 8.58691 17.3804 8.74121 16.647C8.81006 16.3193 8.75244 16.021 8.57959 15.8076C8.41846 15.6094 8.16553 15.5 7.86768 15.5C7.1499 15.5 6.41309 16.1196 6.25879 16.853C6.18994 17.1807 6.24756 17.479 6.42041 17.6924C6.58154 17.8906 6.83447 18 7.13232 18ZM9.72748 16H12.6877C12.8939 15.6011 13.1956 15.2583 13.5588 15H9.17444C9.18919 15.0137 9.20414 15.0271 9.21908 15.0405C9.26687 15.0835 9.31468 15.1264 9.35596 15.1772C9.54688 15.4125 9.66925 15.6954 9.72748 16ZM14.2979 18C15.0161 18 15.7529 17.3804 15.9072 16.647C15.9761 16.3193 15.9185 16.021 15.7456 15.8076C15.5845 15.6094 15.3315 15.5 15.0337 15.5C14.3154 15.5 13.5786 16.1196 13.4243 16.853C13.3555 17.1807 13.4131 17.479 13.5864 17.6924C13.7471 17.8906 14 18 14.2979 18ZM20.1167 16L20.7891 12.8911C21.1494 11.1758 21.0488 9.95508 20.4893 9.26562C19.8618 8.49219 18.6909 8.44434 17.7734 8.44141L16.37 15.0289C16.3864 15.0448 16.4034 15.0602 16.4204 15.0755C16.4558 15.1075 16.4913 15.1395 16.522 15.1772C16.7129 15.4125 16.8353 15.6954 16.8935 16H20.1167Z" "/>
<path d="M6.5 10C6.77637 10 7 9.77637 7 9.5C7 9.22363 6.77637 9 6.5 9H2.5C2.22363 9 2 9.22363 2 9.5C2 9.77637 2.22363 10 2.5 10H6.5Z" "/>
<path d="M5 11C5.27637 11 5.5 11.2236 5.5 11.5C5.5 11.7764 5.27637 12 5 12H3C2.72363 12 2.5 11.7764 2.5 11.5C2.5 11.2236 2.72363 11 3 11H5Z" "/>
</svg>
