<svg  viewBox="0 0 24 24"  xmlns="http://www.w3.org/2000/svg">
<path d="M16.8436 12.3281C18.23 11.7098 19.4593 10.2723 19.6224 10.0742C19.6334 10.0609 19.6344 10.0431 19.6437 10.0289C19.6775 10.0085 19.7134 9.99255 19.7428 9.96338L21.8159 7.89453C22.0116 7.69922 22.0116 7.38281 21.8159 7.1875C21.6203 6.99219 21.3033 6.99219 21.1076 7.1875L19.0873 9.20349C18.8038 9.13464 18.3302 9.03235 17.7623 8.94824C17.8814 8.85815 18.003 8.77124 18.1099 8.66455C19.1675 7.60889 19.5791 5.64343 19.6814 5.06018L21.453 3.2915C21.6486 3.09619 21.6486 2.77979 21.453 2.58447C21.2573 2.38916 20.9403 2.38916 20.7446 2.58447L18.973 4.35315C18.3885 4.4552 16.4192 4.86584 15.3626 5.92188C15.2435 6.04089 15.1442 6.17468 15.0456 6.30859C14.9578 5.68884 14.8438 5.17175 14.7714 4.87769L16.7979 2.85498C16.9935 2.65967 16.9935 2.34326 16.7979 2.14795C16.6022 1.95264 16.2852 1.95264 16.0895 2.14795L14.0164 4.21729C13.9765 4.25696 13.9506 4.30383 13.9271 4.35144C13.92 4.35657 13.9107 4.35669 13.9038 4.3623C13.705 4.52502 12.2641 5.7533 11.645 7.13757C11.6142 7.12012 11.59 7.09338 11.5558 7.08252C11.3943 7.0332 11.2182 7.06543 11.0871 7.17334C10.8897 7.33484 9.47036 8.5448 8.84347 9.91565C8.81925 9.90271 8.8014 9.88098 8.77522 9.87207C8.61673 9.81738 8.44551 9.84619 8.31441 9.94482C8.107 10.0989 6.61278 11.2587 5.96216 12.6198C5.82176 12.5894 5.67403 12.6105 5.55736 12.6968C5.30103 12.8877 3.05371 14.6094 2.90108 16.3569C2.77952 17.7465 3.16524 19.4418 3.30392 19.9933L2.14676 21.1479C1.95108 21.3433 1.95108 21.6597 2.14676 21.855C2.24459 21.9526 2.37276 22.0015 2.50093 22.0015C2.62909 22.0015 2.75726 21.9526 2.8551 21.855L4.04871 20.6637C4.55233 20.7694 5.71219 20.9839 6.85272 20.9839C7.07481 20.9839 7.29495 20.9756 7.51019 20.957C9.2468 20.8057 11.0568 18.6636 11.2574 18.4199C11.364 18.291 11.3992 18.1172 11.3503 17.957C11.3422 17.931 11.3212 17.9132 11.3092 17.8893C12.6655 17.254 13.8552 15.863 14.0154 15.6685C14.122 15.5391 14.1572 15.3652 14.1083 15.2051C14.0985 15.1732 14.0738 15.151 14.0582 15.1222C15.4316 14.4967 16.6438 13.079 16.8057 12.8823C16.9123 12.7534 16.9476 12.5796 16.8986 12.4194C16.8879 12.3844 16.8612 12.3594 16.8436 12.3281ZM16.0709 6.62891C16.703 5.99756 17.8359 5.63721 18.5736 5.45898C18.3956 6.19531 18.0345 7.32617 17.4015 7.95752C16.7705 8.5874 15.7403 8.82959 15.1024 8.92188C15.2051 8.23193 15.4722 7.22607 16.0709 6.62891ZM12.359 8.19141C12.4314 7.37207 13.263 6.36328 13.9273 5.69775C14.0643 6.38623 14.214 7.39551 14.1387 8.25879C14.077 8.9613 13.4325 9.80432 12.8164 10.45C12.7093 10.5526 12.6136 10.6471 12.5217 10.7423C12.4065 10.0499 12.2839 9.04797 12.359 8.19141ZM9.54325 11.002C9.61467 10.1826 10.4463 9.17432 11.1106 8.50879C11.2476 9.19775 11.3973 10.2065 11.3219 11.0698C11.2505 11.8862 10.3925 12.8936 9.70663 13.5586C9.59021 12.8667 9.46791 11.8623 9.54325 11.002ZM6.65607 13.6919C6.72847 12.8682 7.61585 11.8828 8.3105 11.25C8.4504 11.9404 8.60792 12.9761 8.53063 13.8555V13.856C8.45823 14.6816 7.58161 15.7026 6.89088 16.3672C6.85468 16.1892 6.81726 15.9889 6.78277 15.7755C6.76296 15.2899 6.70866 14.8143 6.64017 14.3912C6.63283 14.1517 6.6365 13.9156 6.65607 13.6919ZM4.13383 19.1191C3.98805 18.4014 3.82173 17.3267 3.89902 16.4438C3.97142 15.6201 4.85978 14.6348 5.55345 14.0024C5.69237 14.6914 5.85087 15.7261 5.77358 16.6079C5.70118 17.4336 4.82456 18.4546 4.13383 19.1191ZM7.42214 19.9609C6.56997 20.0376 5.57204 19.9165 4.87935 19.8008C5.57301 19.1089 6.61889 18.2432 7.44366 18.1714C8.29484 18.0977 9.26637 18.248 9.9297 18.3867C9.26343 19.0513 8.2469 19.8887 7.42214 19.9609ZM10.1792 17.209C9.32898 17.2822 8.33104 17.1636 7.63738 17.0488C8.333 16.3569 9.37888 15.4912 10.2007 15.4194C11.0568 15.3457 12.0244 15.4956 12.6877 15.6348C12.0205 16.2993 11.004 17.1367 10.1792 17.209ZM12.9705 14.4233C12.1164 14.498 11.1194 14.3779 10.4267 14.2627C11.1214 13.5713 12.1672 12.7051 12.992 12.6333C13.8432 12.5596 14.8147 12.709 15.478 12.8491C14.8118 13.5132 13.7952 14.3511 12.9705 14.4233ZM15.7862 11.6157C14.9272 11.6919 13.9205 11.5684 13.2258 11.4521C13.8921 10.7676 14.9008 9.91113 15.7187 9.83984C16.5797 9.76465 17.5943 9.91357 18.285 10.0513C17.6197 10.7139 16.61 11.5435 15.7862 11.6157ZM20.7979 18.9689L21.8629 17.8447C22.0527 17.6445 22.0439 17.3276 21.8433 17.1382C21.6418 16.9487 21.3258 16.9565 21.135 17.1582L18.9943 19.4182V17.5015C18.9943 17.2251 18.7703 17.0015 18.4934 17.0015C18.2165 17.0015 17.9925 17.2251 17.9925 17.5015V21.5015C17.9925 21.7778 18.2165 22.0015 18.4934 22.0015C18.7703 22.0015 18.9943 21.7778 18.9943 21.5015V20.8732L20.0639 19.7439L21.0499 21.7241C21.1379 21.8999 21.315 22.0015 21.4989 22.0015C21.5743 22.0015 21.6506 21.9849 21.722 21.9492C21.9695 21.8262 22.0703 21.5264 21.948 21.2788L20.7979 18.9689Z" "/>
</svg>
