<svg  viewBox="0 0 24 24"  xmlns="http://www.w3.org/2000/svg">
<path fill-rule="evenodd" clip-rule="evenodd" d="M17.2825 20.59C17.384 20.59 17.4739 20.5588 17.552 20.4963C17.6301 20.4339 17.6887 20.3558 17.7277 20.2621C17.7668 20.1684 17.7707 20.0747 17.7394 19.981L16.3803 14.2889L20.8326 10.4707C20.9107 10.4083 20.9615 10.3302 20.9849 10.2365C21.0084 10.1428 21.0045 10.0413 20.9732 9.93196C20.942 9.83827 20.8873 9.76019 20.8092 9.69772C20.7311 9.63526 20.6452 9.60402 20.5514 9.60402L14.7166 9.13554L12.467 3.74795C12.4201 3.65426 12.3576 3.57618 12.2795 3.51371C12.2014 3.45125 12.1077 3.42001 11.9983 3.42001C11.9046 3.42001 11.8148 3.45125 11.7288 3.51371C11.6429 3.57618 11.5843 3.65426 11.5531 3.74795L9.30351 9.13554L3.46866 9.60402C3.37493 9.61964 3.2851 9.65868 3.19918 9.72115C3.11326 9.78361 3.05468 9.86169 3.02343 9.95539C2.99219 10.0491 2.99219 10.1428 3.02343 10.2365C3.05468 10.3302 3.10935 10.4161 3.18747 10.4941L7.61633 14.2889L6.28064 19.981C6.2494 20.0747 6.2533 20.1684 6.29236 20.2621C6.33141 20.3558 6.38999 20.4339 6.4681 20.4963C6.51497 20.5275 6.56184 20.551 6.6087 20.5666C6.65557 20.5822 6.70244 20.59 6.7493 20.59C6.79617 20.59 6.84304 20.5822 6.8899 20.5666L7.0305 20.5197L11.9983 17.4746L17.013 20.5197C17.0911 20.5666 17.181 20.59 17.2825 20.59Z" "/>
</svg>
