<svg width="24" height="24" viewBox="0 0 24 24" xmlns="http://www.w3.org/2000/svg">
<path d="M11.9973 20.2546C12.4124 20.2546 12.749 19.9188 12.749 19.5046C12.749 19.0904 12.4124 18.7546 11.9973 18.7546C11.5821 18.7546 11.2455 19.0904 11.2455 19.5046C11.2455 19.9188 11.5821 20.2546 11.9973 20.2546ZM12.9951 4H10.9995C10.7231 4 10.4995 4.22363 10.4995 4.5C10.4995 4.77637 10.7231 5 10.9995 5H12.9951C13.2715 5 13.4951 4.77637 13.4951 4.5C13.4951 4.22363 13.2715 4 12.9951 4ZM15.8232 2H8.15869C6.96338 2 5.99072 2.98779 5.99072 4.20166V19.873C5.99072 21.0659 6.94287 22 8.15869 22H15.8232C17.0391 22 17.9917 21.0659 17.9917 19.873V4.16455C17.9917 2.97119 17.019 2 15.8232 2ZM16.9917 19.873C16.9917 20.5049 16.4785 21 15.8232 21H8.15869C7.50391 21 6.99072 20.5049 6.99072 19.873V17.9927H16.9917V19.873ZM16.9917 16.9927H6.99072V7H16.9917V16.9927ZM16.9917 6H6.99072V4.20166C6.99072 3.55029 7.52539 3 8.15869 3H15.8232C16.4678 3 16.9917 3.52246 16.9917 4.16455V6ZM10.2578 14.9375C10.333 14.979 10.4165 15 10.5 15C10.5923 15 10.6841 14.9746 10.7651 14.9238L14.7651 12.4238C14.9111 12.3325 15 12.1724 15 12C15 11.8276 14.9111 11.6675 14.7651 11.5762L10.7651 9.07617C10.6099 8.979 10.416 8.97412 10.2578 9.0625C10.0986 9.15088 10 9.31836 10 9.5V14.5C10 14.6816 10.0986 14.8491 10.2578 14.9375ZM11 10.4023L13.5566 12L11 13.5977V10.4023Z" />
</svg>
