<svg  viewBox="0 0 24 24"  xmlns="http://www.w3.org/2000/svg">
<path d="M21.4986 3.06C21.6311 3.06005 21.7582 3.11265 21.8519 3.20625C21.9456 3.2999 21.9983 3.42625 21.9981 3.55875L21.9966 13.5592C21.9966 13.6919 21.9439 13.8192 21.8501 13.913C21.7563 14.0068 21.6291 14.0595 21.4964 14.0595H13.8164V13.0597H20.9969L20.9984 4.05975H9.99514V5.57025H8.99539V3.56025C8.99539 3.42757 9.04809 3.30033 9.14191 3.20652C9.23572 3.1127 9.36296 3.06 9.49564 3.06H21.4986Z" "/>
<path d="M18.3261 7.701C18.3555 7.67484 18.3667 7.63376 18.3545 7.59634C18.3423 7.55893 18.3091 7.5323 18.2699 7.5285L16.5314 7.36425C16.4954 7.36077 16.4641 7.3381 16.4496 7.305L15.7559 5.70225C15.7402 5.66615 15.7045 5.64281 15.6651 5.64281C15.6258 5.64281 15.5901 5.66615 15.5744 5.70225L14.8806 7.305C14.8663 7.33788 14.8353 7.36051 14.7996 7.36425L13.0604 7.5285C13.021 7.53189 12.9874 7.55862 12.9753 7.5963C12.9632 7.63397 12.9748 7.67525 13.0049 7.701L14.3151 8.856C14.342 8.87977 14.354 8.91614 14.3466 8.95125L13.9656 10.656C13.9568 10.6946 13.9718 10.7347 14.0038 10.7581C14.0358 10.7814 14.0786 10.7834 14.1126 10.7632L15.6156 9.87375C15.6467 9.8558 15.685 9.8558 15.7161 9.87375L17.2191 10.7632C17.2532 10.7834 17.296 10.7814 17.328 10.7581C17.36 10.7347 17.375 10.6946 17.3661 10.656L16.9851 8.95125C16.9771 8.91626 16.9889 8.87966 17.0159 8.856L18.3261 7.701Z" "/>
<path fill-rule="evenodd" clip-rule="evenodd" d="M11.7111 16.533V15.5933C11.9939 15.165 12.1994 14.631 12.3134 13.9972C12.4544 13.9245 12.6044 13.7872 12.7401 13.5435C12.8729 13.3035 12.9779 12.9825 13.0364 12.6405C13.0934 12.3022 13.1001 11.9212 13.0551 11.5957C13.0184 11.3302 12.9479 11.1217 12.8444 10.9725C12.8676 9.5775 12.5369 8.51475 11.8619 7.8105C11.2701 7.194 10.4444 6.88125 9.40789 6.88125C8.37139 6.88125 7.54564 7.194 6.95389 7.8105C6.27814 8.514 5.94814 9.5775 5.97064 10.9725C5.86714 11.1217 5.79664 11.3302 5.75989 11.5957C5.71489 11.9212 5.72164 12.3015 5.77864 12.6405C5.83639 12.9832 5.94139 13.3035 6.07489 13.5435C6.21364 13.7933 6.36739 13.9305 6.51139 14.0025C6.63214 14.5868 6.83389 15.0885 7.10314 15.5018V16.5338C5.32414 16.7153 2.49514 17.643 2.10289 19.0005C1.91914 19.6643 2.03464 20.4368 2.04889 20.5223C2.10613 20.7811 2.35514 20.9506 2.61696 20.9088C2.87878 20.8671 3.06275 20.6286 3.03664 20.3648C3.00889 20.19 2.96089 19.6515 3.06589 19.2728C3.22714 18.7155 4.70839 18.0165 6.19189 17.688C6.72214 19.1393 7.99189 20.1203 9.41164 20.1203C10.8284 20.1203 12.1004 19.1385 12.6314 17.6888C14.1134 18.0173 15.5916 18.7148 15.7514 19.2668C15.8579 19.6508 15.8091 20.1885 15.7821 20.364C15.7386 20.6366 15.9243 20.8928 16.1969 20.9363C16.4694 20.9797 16.7256 20.7941 16.7691 20.5215C16.7834 20.436 16.8989 19.6635 16.7136 18.9938C16.3229 17.6415 13.4939 16.7138 11.7149 16.533H11.7111ZM6.76264 12.474C6.79196 12.6644 6.84801 12.8497 6.92914 13.0245L6.92764 13.0252C7.17607 13.0219 7.38905 13.202 7.42714 13.4475L7.43239 13.4843C7.52989 14.178 7.92214 15.7913 9.45139 15.7913C10.0686 15.7913 10.4946 15.5355 10.7879 15.1605C10.795 15.1492 10.8035 15.1384 10.812 15.1277L10.8186 15.1193C11.1516 14.6708 11.3069 14.0655 11.3729 13.515L11.3819 13.4475C11.42 13.202 11.633 13.0219 11.8814 13.0252C11.9629 12.8506 12.0189 12.6653 12.0479 12.4747C12.1086 12.1147 12.0779 11.76 12.0381 11.6017C11.9474 11.5305 11.8791 11.4292 11.8499 11.313C11.8388 11.2669 11.834 11.2194 11.8356 11.172L11.8371 11.1427C11.8866 9.92625 11.6519 9.03825 11.1381 8.5035C10.7421 8.091 10.1594 7.88175 9.40564 7.88175C8.65189 7.88175 8.06914 8.091 7.67314 8.5035C7.16014 9.03825 6.92464 9.92625 6.97414 11.1427L6.97564 11.172C6.97879 11.3389 6.90356 11.4977 6.77239 11.601C6.73264 11.7592 6.70189 12.1147 6.76264 12.474ZM9.40864 19.1198C8.47114 19.1198 7.61989 18.4853 7.20064 17.5268C7.34089 17.514 7.47889 17.5043 7.61164 17.5013C7.88381 17.4955 8.10145 17.2732 8.10139 17.001V16.4528C8.51572 16.6795 8.98136 16.7959 9.45364 16.791C9.92089 16.791 10.3424 16.6935 10.7106 16.5068V17.001C10.7106 17.2733 10.9281 17.4953 11.2004 17.5013C11.3346 17.5043 11.4741 17.514 11.6159 17.5268C11.1959 18.4845 10.3431 19.119 9.40789 19.119L9.40864 19.1198Z" "/>
</svg>
