<svg  viewBox="0 0 24 24"  xmlns="http://www.w3.org/2000/svg">
<path d="M20.7896 10.3242C20.5933 10.1289 20.2764 10.1328 20.0825 10.3281L19.0991 11.3218L19.1019 11.3072C19.1095 11.2665 19.1172 11.2258 19.1128 11.1826C19.0503 10.571 18.913 9.98566 18.7233 9.42596C18.7135 9.39723 18.7041 9.36834 18.6947 9.33946C18.6779 9.28775 18.6611 9.23611 18.6421 9.18555C18.6413 9.18345 18.64 9.18176 18.6387 9.18008C18.6375 9.17849 18.6362 9.17688 18.6354 9.17493C17.9689 7.40497 16.6993 5.95319 15.0799 5.04205L15.0654 5.0332L15.0636 5.03259C15.063 5.03246 15.0624 5.03234 15.0618 5.03204C14.429 4.6781 13.7444 4.40839 13.0211 4.23419C13.0159 4.23255 13.0114 4.22991 13.0068 4.22728C13.0016 4.22425 12.9964 4.22123 12.9902 4.21973C12.9509 4.21021 12.911 4.2028 12.8711 4.19539C12.8444 4.19044 12.8178 4.1855 12.7913 4.17993L12.7646 4.1743C12.6851 4.15754 12.6059 4.14081 12.5255 4.12671C12.5118 4.12433 12.4983 4.12141 12.4848 4.11848C12.4696 4.11519 12.4544 4.1119 12.439 4.10938C12.4332 4.1083 12.4276 4.10894 12.4221 4.10958C12.4172 4.11014 12.4124 4.11071 12.4073 4.11011C11.9835 4.04218 11.5511 4 11.1084 4C10.8098 4 10.5159 4.01904 10.2256 4.05072C10.2239 4.05087 10.2223 4.05056 10.2208 4.05025C10.2192 4.04994 10.2176 4.04962 10.2158 4.0498C10.0278 4.06934 9.84277 4.09668 9.65967 4.12988C9.65419 4.13089 9.64947 4.13329 9.64474 4.13569C9.64056 4.13781 9.63638 4.13994 9.63165 4.14111C8.91791 4.2735 8.23981 4.50226 7.60522 4.80914C7.59662 4.81204 7.58787 4.81362 7.57915 4.8152C7.56708 4.81738 7.55504 4.81956 7.54346 4.8252C7.49357 4.84985 7.44507 4.87671 7.39662 4.90355C7.36915 4.91877 7.34164 4.934 7.31396 4.94879C7.28992 4.96161 7.26605 4.97443 7.24219 4.98749C7.21739 5.00109 7.1923 5.01418 7.16721 5.02727C7.12789 5.04779 7.08856 5.06832 7.05029 5.09082C7.0399 5.09686 7.03197 5.10506 7.02402 5.11328C7.01815 5.11936 7.01227 5.12544 7.00537 5.13068C6.39209 5.4942 5.8299 5.93243 5.33582 6.43933C5.3301 6.44418 5.3238 6.44786 5.31752 6.45152C5.30957 6.45616 5.30164 6.46079 5.29492 6.46777C5.16602 6.60254 5.04199 6.74023 4.92285 6.88281C4.92015 6.88602 4.91856 6.8897 4.91696 6.89338C4.91549 6.89676 4.91402 6.90016 4.91168 6.9032C4.44958 7.45752 4.06628 8.07727 3.76654 8.74219C3.76339 8.74786 3.75932 8.75267 3.75526 8.75749C3.75035 8.76329 3.74546 8.76909 3.74219 8.77637C3.73507 8.79258 3.7287 8.80909 3.72234 8.82559C3.7167 8.84022 3.71106 8.85484 3.7049 8.86926C3.69943 8.88192 3.69443 8.89477 3.68943 8.90763C3.68522 8.91846 3.68101 8.92929 3.67651 8.94L3.65583 8.98955C3.61344 9.09095 3.57106 9.19234 3.53369 9.2959C3.53015 9.30569 3.52948 9.31555 3.5288 9.32542C3.52827 9.33309 3.52775 9.34077 3.52588 9.34845C3.29138 10.009 3.1424 10.7075 3.09088 11.4341C3.08974 11.4413 3.08738 11.448 3.08503 11.4547C3.0821 11.463 3.07919 11.4713 3.07861 11.4805C3.06787 11.6523 3.06201 11.8252 3.0625 11.9824L3.06226 11.9948L3.06201 12L3.06213 12.0021L3.06152 12.0371C3.06152 12.0409 3.06255 12.0442 3.06358 12.0476C3.06452 12.0507 3.06547 12.0537 3.06561 12.0571C3.07086 12.795 3.1825 13.5131 3.37964 14.2015C3.381 14.2085 3.38105 14.2154 3.3811 14.2223C3.38116 14.2308 3.38122 14.2394 3.38379 14.248C3.43701 14.4268 3.49561 14.6025 3.56006 14.7764C3.56147 14.7802 3.56423 14.7828 3.56699 14.7854C3.56959 14.7879 3.57219 14.7904 3.57367 14.7938C3.836 15.4959 4.19189 16.1575 4.64075 16.759C4.74738 16.9022 4.85754 17.0416 4.97266 17.1758C4.9789 17.1831 4.98665 17.188 4.99442 17.1928C5.0007 17.1967 5.007 17.2006 5.01251 17.2059C5.47028 17.7341 5.9986 18.2067 6.5954 18.6097C6.60225 18.6157 6.60808 18.6224 6.61389 18.6292C6.62204 18.6386 6.63018 18.648 6.64111 18.6553C6.66263 18.6695 6.6848 18.6828 6.70696 18.696C6.72457 18.7066 6.74223 18.7172 6.75952 18.7282C6.76701 18.733 6.77396 18.7383 6.78092 18.7437C6.78815 18.7493 6.79539 18.7548 6.80322 18.7598C6.80547 18.7612 6.80797 18.7616 6.81048 18.7619C6.81287 18.7622 6.81527 18.7626 6.81744 18.7639L6.8844 18.8061C6.961 18.8545 7.03773 18.903 7.1167 18.9482C7.19482 18.9922 7.27979 19.0137 7.36377 19.0137C7.5376 19.0137 7.70654 18.9229 7.79834 18.7617C7.93555 18.5215 7.85205 18.2158 7.61182 18.0791C7.50481 18.0183 7.40112 17.952 7.29744 17.8857L7.29498 17.8841C5.27087 16.5864 4.06201 14.392 4.06201 12C4.06201 11.0509 4.255 10.1462 4.60114 9.32007C4.60493 9.31107 4.60848 9.30196 4.61204 9.29284C4.61615 9.28229 4.62027 9.27173 4.62476 9.26135C5.24811 7.81061 6.35083 6.61035 7.73413 5.8573L7.76048 5.84318L7.77521 5.83533C8.76831 5.30322 9.9032 5 11.1084 5C11.5351 5 11.9523 5.04034 12.3586 5.11206C12.427 5.12414 12.4946 5.13861 12.5623 5.15309L12.5839 5.15771C13.2999 5.30804 13.9746 5.56671 14.593 5.9151C14.7292 5.99213 14.8627 6.07312 14.9937 6.15918L14.9946 6.1596C14.9952 6.15968 14.9966 6.15989 14.9971 6.16022C15.5419 6.51752 16.0325 6.948 16.4571 7.4397C16.4582 7.44098 16.4588 7.44245 16.4594 7.4439C16.4601 7.44542 16.4608 7.44693 16.4619 7.44824C16.5688 7.57129 16.6709 7.69922 16.7686 7.83008C16.77 7.83207 16.772 7.83334 16.774 7.83462C16.7759 7.83586 16.7779 7.8371 16.7794 7.83899C17.2032 8.40997 17.5396 9.0495 17.7745 9.74011C17.7828 9.76428 17.7913 9.78837 17.7997 9.81246C17.8219 9.87544 17.8441 9.93848 17.8633 10.0029C17.8635 10.0036 17.864 10.0041 17.8644 10.0045C17.8649 10.005 17.8653 10.0055 17.8655 10.0062C17.9868 10.4167 18.0727 10.8436 18.1177 11.2842C18.1231 11.337 18.1429 11.3836 18.163 11.4296L17.062 10.3525C16.8657 10.1611 16.5488 10.1631 16.355 10.3604C16.1621 10.5576 16.1655 10.874 16.3628 11.0674L18.2407 12.9043C18.3379 12.999 18.4644 13.0469 18.5903 13.0469C18.6652 13.0469 18.7379 13.0251 18.8066 12.9916C18.9059 12.9554 18.9857 12.8859 19.0443 12.799L20.7935 11.0312C20.9878 10.835 20.9858 10.5186 20.7896 10.3242Z" />
<path d="M14.8306 8.7793C14.9951 8.55762 14.9478 8.24415 14.7261 8.08008C14.5034 7.917 14.1899 7.96387 14.0264 8.18555L11.0161 12.2578L8.59961 10.4941C8.37598 10.332 8.0625 10.3818 7.90088 10.6035C7.73779 10.8272 7.78711 11.1397 8.00976 11.3027L10.8281 13.3594C10.917 13.4238 11.0205 13.4551 11.1226 13.4551C11.2759 13.4551 11.4272 13.3848 11.5249 13.252L14.8306 8.7793Z" />
<path d="M17.731 14.3975C17.8262 14.1378 18.1123 14.0079 18.3726 14.0997C18.6318 14.1954 18.7647 14.4825 18.6694 14.7413C18.605 14.9181 18.5347 15.0909 18.4575 15.2608C18.3745 15.4464 18.1924 15.5557 18.0015 15.5557C17.9331 15.5557 17.8633 15.5421 17.7964 15.5118C17.5449 15.3985 17.4326 15.1016 17.5464 14.8507C17.6128 14.7022 17.6743 14.5509 17.731 14.3975Z" />
<path d="M16.5049 16.5019C16.3999 16.626 16.2905 16.7471 16.1768 16.8633C15.9839 17.0615 15.9878 17.3779 16.1856 17.5703C16.2827 17.666 16.4087 17.7129 16.5347 17.7129C16.6646 17.7129 16.7944 17.6621 16.8926 17.5625C17.023 17.4287 17.1489 17.29 17.2695 17.1465C17.4473 16.9355 17.4204 16.6201 17.2095 16.4424C16.9981 16.2637 16.6826 16.291 16.5049 16.5019Z" />
<path d="M11.8613 18.9599C12.0234 18.9433 12.1846 18.9209 12.3437 18.8925C12.6123 18.8369 12.875 19.0263 12.9228 19.2978C12.9712 19.5693 12.7895 19.8291 12.5176 19.8769C12.334 19.9091 12.1484 19.9355 11.9609 19.9541C11.9443 19.956 11.9272 19.957 11.9106 19.957C11.6567 19.957 11.4394 19.7646 11.4136 19.5068C11.3862 19.2324 11.5864 18.9873 11.8613 18.9599Z" />
<path d="M14.6339 18.0625C14.4933 18.1435 14.3497 18.2197 14.2032 18.291C13.9542 18.4111 13.8502 18.7099 13.9703 18.959C14.0568 19.1377 14.235 19.2412 14.421 19.2412C14.4938 19.2412 14.568 19.2256 14.6378 19.1914C14.8068 19.1103 14.9718 19.0224 15.1329 18.9297C15.3722 18.792 15.4547 18.4853 15.3165 18.2461C15.1793 18.0078 14.8732 17.9258 14.6339 18.0625Z" />
<path d="M9.42872 18.7998C9.58546 18.8389 9.74415 18.8711 9.90528 18.8984C10.1773 18.9443 10.3609 19.2031 10.315 19.4746C10.2734 19.7187 10.062 19.8916 9.82228 19.8916C9.79493 19.8916 9.76661 19.8896 9.73829 19.8848C9.55275 19.8535 9.36866 19.8154 9.18751 19.7705C8.91945 19.7041 8.75636 19.4326 8.82277 19.165C8.88966 18.8965 9.15919 18.7324 9.42872 18.7998Z" />
</svg>
