<svg  viewBox="0 0 24 24"  xmlns="http://www.w3.org/2000/svg">
<path fill-rule="evenodd" clip-rule="evenodd" d="M22.1196 16.7245L22.2085 16.7393C22.4751 16.8106 22.6333 17.085 22.562 17.3516C22.1797 18.7778 21.2651 19.9702 19.9863 20.7085C19.1343 21.2002 18.189 21.4517 17.2314 21.4517C16.751 21.4517 16.2676 21.3882 15.7915 21.2607C15.5249 21.1895 15.3667 20.915 15.438 20.6484C15.5098 20.3814 15.7847 20.2236 16.0503 20.2949C17.2197 20.6079 18.4395 20.4473 19.4863 19.8423C20.5337 19.2378 21.2832 18.2612 21.5962 17.0928C21.668 16.8267 21.9419 16.6704 22.2085 16.7393L22.1196 16.7245ZM20.172 16.2331L20.2607 16.2481C20.5273 16.3193 20.6856 16.5938 20.6143 16.8604C20.3711 17.7686 19.7886 18.5274 18.9746 18.9976C18.4321 19.3106 17.8306 19.4707 17.2207 19.4707C16.915 19.4707 16.6074 19.4302 16.3042 19.3491C16.0376 19.2778 15.8789 19.0034 15.9507 18.7368C16.0225 18.4697 16.2969 18.312 16.563 18.3833C17.2134 18.5576 17.8926 18.4688 18.4746 18.1314C19.0571 17.7949 19.4741 17.2515 19.6484 16.6016C19.7197 16.335 19.9946 16.1787 20.2607 16.2481L20.172 16.2331ZM17.4272 5.20948C17.6953 5.13673 17.9683 5.29591 18.0396 5.563L20.4522 14.5669C20.4863 14.6948 20.4688 14.8316 20.4023 14.9463C20.3359 15.061 20.2266 15.145 20.0986 15.1792L6.57862 18.8018C6.53516 18.8135 6.4917 18.8189 6.44873 18.8189C6.22803 18.8189 6.02588 18.6719 5.96631 18.4482L3.55371 9.44434C3.53925 9.39027 3.54029 9.33649 3.5437 9.28352C3.54438 9.26563 3.53351 9.24989 3.53614 9.23194C3.54077 9.20014 3.56476 9.17793 3.57508 9.14832C3.58893 9.11012 3.60297 9.07355 3.62555 9.03986C3.65192 8.9994 3.67957 8.96662 3.71637 8.93537C3.73767 8.9173 3.76325 8.90577 3.78778 8.89136C3.82648 8.86841 3.85651 8.83332 3.90137 8.8213L17.4224 5.19874L17.4255 5.21033C17.4262 5.21015 17.4266 5.20966 17.4272 5.20948ZM13.8821 12.3727C13.7582 12.57 13.6369 12.7633 13.521 12.9482C13.2642 13.334 12.8897 13.604 12.459 13.7192C12.3145 13.7578 12.1738 13.7744 12.0386 13.7744C11.6968 13.7744 11.3862 13.6704 11.1152 13.5586C11.0676 13.5344 10.8651 13.4305 10.5747 13.2813L7.58484 17.497L18.5472 14.5597L13.8821 12.3727ZM4.81745 10.2974L6.64038 17.1007L9.67688 12.8194C8.24646 12.0828 6.10468 10.9764 4.81745 10.2974ZM17.3575 6.88111C16.6623 7.96094 15.4818 9.82844 14.4182 11.5196L19.2013 13.7619L17.3575 6.88111ZM16.4106 6.50489L5.37549 9.46143C7.04248 10.3389 10.1426 11.9365 11.5347 12.6514C11.7676 12.7461 11.9922 12.8076 12.2002 12.7534C12.3989 12.7002 12.5649 12.5801 12.6807 12.4058L12.7643 12.2723C13.082 11.7656 13.9782 10.3379 14.8805 8.91062L15.1807 8.43616C15.6289 7.72828 16.0628 7.04613 16.4106 6.50489ZM5.02539 5.00245C5.84033 4.53223 6.78809 4.40821 7.6958 4.65089C7.96241 4.72218 8.1211 4.99659 8.04932 5.26319C7.97803 5.53077 7.70362 5.68897 7.43702 5.61671C6.7876 5.44337 6.1084 5.53223 5.52539 5.86866C4.94287 6.20509 4.52588 6.74854 4.35157 7.39844C4.292 7.62208 4.08985 7.76905 3.86914 7.76905C3.82617 7.76905 3.78272 7.76368 3.73926 7.75196C3.47266 7.68067 3.31446 7.40626 3.38575 7.13966C3.62891 6.23145 4.21143 5.47266 5.02539 5.00245ZM4.01367 3.29151C5.29297 2.55323 6.78321 2.35792 8.2085 2.73927C8.4751 2.81055 8.6333 3.08497 8.56201 3.35157C8.49121 3.61915 8.21924 3.77735 7.94971 3.70509C6.78077 3.39259 5.56104 3.55225 4.51367 4.15772C3.46631 4.76221 2.7168 5.73878 2.40381 6.90723C2.34424 7.13038 2.14209 7.27784 1.92139 7.27784C1.87842 7.27784 1.83496 7.27247 1.79151 7.26075C1.52491 7.18946 1.3667 6.91505 1.43799 6.64844C1.82032 5.22218 2.73487 4.02979 4.01367 3.29151Z" />
</svg>
