<svg  viewBox="0 0 24 24"  xmlns="http://www.w3.org/2000/svg">
<path fill-rule="evenodd" clip-rule="evenodd" d="M16.5049 12.5621C16.2696 12.5495 16.0342 12.5855 15.8134 12.6679C15.6459 12.296 15.3367 12.0066 14.9547 11.8639C14.6313 11.7467 14.2805 11.7284 13.9467 11.8114V6.52613C13.9459 4.62938 11.2774 4.53113 10.9737 6.22763C10.1344 5.91338 8.94719 6.42938 8.94719 7.75088C8.94719 8.47238 8.95094 9.19388 8.95544 9.91613C8.96294 11.3539 8.97119 12.7931 8.94719 14.2294C8.94419 14.4109 8.91494 14.6464 8.79569 14.7281C8.68769 14.8031 8.56769 14.8864 8.06594 14.3749C7.81619 14.1191 6.82694 12.9671 6.76694 12.8959C6.07094 12.0596 5.07719 12.1204 4.49669 12.6026C3.91694 13.0834 3.68444 13.9991 4.36469 14.8226L10.2394 21.8224C10.3543 21.9592 10.5333 22.0243 10.7092 21.9933C10.8851 21.9622 11.031 21.8397 11.0921 21.6719C11.1531 21.5041 11.12 21.3164 11.0052 21.1796L5.13269 14.1829C4.84094 13.8296 4.94219 13.5326 5.13494 13.3721C5.33369 13.2101 5.68019 13.1524 5.99894 13.5349L6.00344 13.5319C6.17069 13.8026 6.54794 14.2519 7.35194 15.0739C7.65044 15.3784 8.44019 16.1884 9.36344 15.5516C9.74069 15.2921 9.93719 14.8526 9.94769 14.2466C9.97244 12.8021 9.96344 11.3554 9.95594 9.90938C9.95144 9.18938 9.94769 8.47013 9.94769 7.75013C9.94694 7.04213 10.5394 7.02488 10.7832 7.26638C10.8912 7.37363 10.9474 7.54088 10.9474 7.75013V12.7249C10.9474 12.9036 11.0428 13.0687 11.1976 13.1581C11.3523 13.2475 11.543 13.2475 11.6978 13.1581C11.8526 13.0687 11.9479 12.9036 11.9479 12.7249V6.53663C11.9479 6.01388 12.4137 5.99888 12.4669 5.99888C12.5794 5.99888 12.9477 6.03713 12.9477 6.52538V12.7249C12.9457 12.9495 13.0942 13.1478 13.3103 13.2091C13.5265 13.2704 13.7569 13.1796 13.8732 12.9874C13.9939 12.7894 14.3397 12.7024 14.6134 12.8021C14.8902 12.9026 14.9877 13.2259 14.9877 13.4734C14.9884 13.6808 15.1168 13.8664 15.3108 13.9401C15.5047 14.0137 15.7239 13.9603 15.8622 13.8056C16.0069 13.6414 16.2349 13.5544 16.4532 13.5596C16.6078 13.5623 16.7526 13.6362 16.8454 13.7599C16.9932 13.9669 16.9819 14.3029 16.9707 14.6591L16.9639 14.9996C16.9639 15.8906 16.9639 17.3794 16.4554 19.3766C16.0737 20.4109 15.5674 20.9134 15.2517 21.0311C15.0776 21.0877 14.9485 21.235 14.9151 21.415C14.8816 21.5949 14.9493 21.7788 15.0915 21.8941C15.2337 22.0094 15.4275 22.0377 15.5967 21.9679C16.3077 21.7061 16.9632 20.8879 17.4079 19.6729C17.9637 17.5046 17.9637 15.9364 17.9637 14.9524L17.9697 14.6906C17.9847 14.2316 18.0042 13.6601 17.6592 13.1779C17.3967 12.8104 16.9767 12.5854 16.5057 12.5606L16.5049 12.5621ZM21.6469 4.14413L19.6257 2.14388C19.4265 1.969 19.1255 1.97958 18.939 2.16801C18.7526 2.35645 18.7452 2.65752 18.9222 2.85488L20.0787 3.99938H15.2952C15.1165 3.99938 14.9513 4.09472 14.862 4.2495C14.7726 4.40428 14.7726 4.59497 14.862 4.74975C14.9513 4.90453 15.1165 4.99988 15.2952 4.99988H20.0787L18.9222 6.14438C18.7901 6.26897 18.7359 6.45534 18.7806 6.63132C18.8253 6.8073 18.9618 6.94527 19.1373 6.9918C19.3128 7.03833 19.4997 6.98611 19.6257 6.85538L21.6469 4.85513C21.7413 4.76088 21.7943 4.63299 21.7943 4.49963C21.7943 4.36627 21.7413 4.23838 21.6469 4.14413ZM4.74269 6.99938C4.94508 6.99856 5.1271 6.87605 5.20405 6.68885C5.281 6.50165 5.23775 6.28654 5.09444 6.14363L3.93719 4.99913H8.72069C8.89941 4.99913 9.06455 4.90378 9.15392 4.749C9.24328 4.59422 9.24328 4.40353 9.15392 4.24875C9.06455 4.09397 8.89941 3.99863 8.72069 3.99863H3.93719L5.09444 2.85413C5.2265 2.72953 5.28069 2.54317 5.23602 2.36719C5.19136 2.1912 5.05485 2.05324 4.87935 2.00671C4.70385 1.96018 4.51692 2.01239 4.39094 2.14313L2.36894 4.14338C2.27366 4.23713 2.22 4.36521 2.22 4.49888C2.22 4.63255 2.27366 4.76062 2.36894 4.85438L4.39094 6.85463C4.48844 6.95063 4.61519 6.99938 4.74269 6.99938Z" "/>
</svg>
