<svg width="12" height="12" viewBox="0 0 12 12" xmlns="http://www.w3.org/2000/svg">
<path d="M8.5 4H3.70703L4.85352 2.85352C5.04883 2.6582 5.04883 2.3418 4.85352 2.14648C4.6582 1.95117 4.3418 1.95117 4.14648 2.14648L2.14648 4.14648C1.95117 4.3418 1.95117 4.6582 2.14648 4.85352L4.14648 6.85352C4.24414 6.95117 4.37207 7 4.5 7C4.62793 7 4.75586 6.95117 4.85352 6.85352C5.04883 6.6582 5.04883 6.3418 4.85352 6.14648L3.70703 5H8.5C8.71484 5 9 5.28516 9 5.5V9.5C9 9.77637 9.22363 10 9.5 10C9.77637 10 10 9.77637 10 9.5V5.5C10 4.729 9.271 4 8.5 4Z" fill="#222222"/>
</svg>
