<svg  viewBox="0 0 24 24"  xmlns="http://www.w3.org/2000/svg">
<path fill-rule="evenodd" clip-rule="evenodd" d="M9.56114 12.4688C9.1544 12.4688 8.71885 12.3945 8.25547 12.2471C6.74961 11.7647 6.23936 10.752 6.07627 9.98731C5.81358 8.75208 6.29771 7.33624 6.70951 6.78406C6.83665 6.27356 7.01304 5.72809 7.2418 5.17578C7.6168 4.27051 8.07432 3.45508 8.52989 2.88184C9.12559 2.13184 9.67295 1.85449 10.1588 2.05469C10.6432 2.25488 10.8341 2.83985 10.7247 3.79102C10.6412 4.51856 10.3883 5.41895 10.0133 6.32422C9.85148 6.71478 9.67253 7.08307 9.4868 7.42792C11.0135 8.31976 11.7096 9.31281 12.0001 9.87689C12.2905 9.31299 12.9864 8.32044 14.5122 7.42877C14.3163 7.0636 14.1372 6.68628 13.9874 6.32422C13.6124 5.41895 13.3595 4.51953 13.2755 3.79102C13.1661 2.83985 13.3565 2.25488 13.8419 2.05469C14.3312 1.85645 14.8751 2.13184 15.4708 2.88184C15.9259 3.45508 16.3839 4.26953 16.7589 5.17578C16.9876 5.7284 17.1639 6.27338 17.2909 6.78351C17.7023 7.33478 18.1867 8.75086 17.9239 9.98633C17.7608 10.752 17.2511 11.7647 15.7442 12.2471C15.2814 12.3945 14.8448 12.4688 14.4386 12.4688C13.9581 12.4688 13.5177 12.3652 13.1231 12.1582C13.0408 12.1149 12.9685 12.0654 12.8962 12.016C12.8903 12.012 12.8844 12.0079 12.8785 12.0039H11.1214C11.1156 12.0078 11.1099 12.0118 11.1041 12.0157C11.0316 12.0652 10.9591 12.1148 10.8766 12.1582C10.482 12.3652 10.0421 12.4688 9.56114 12.4688ZM14.2579 3.05762C14.1944 3.44824 14.3106 4.49219 14.9112 5.94141C15.0724 6.33093 15.2373 6.67139 15.3991 6.97095C15.6534 6.85455 15.9277 6.74304 16.2183 6.63562C16.1209 6.30841 15.9968 5.94977 15.8351 5.5586C15.2345 4.1084 14.5782 3.28809 14.2579 3.05762ZM16.9171 9.89649C17.1554 9.01856 16.8204 7.99512 16.5987 7.55567C13.8849 8.54785 13.0362 10.0039 12.8297 10.46C12.9039 10.6162 13.0528 10.8711 13.3067 11.083C13.8194 11.5117 14.5353 11.583 15.4396 11.2939C16.2491 11.0352 16.7315 10.5781 16.9171 9.89649ZM10.6935 11.083C10.9469 10.8711 11.0963 10.6162 11.1705 10.46C10.964 10.0039 10.1158 8.54785 7.40196 7.55567C7.18028 7.99512 6.84434 9.01758 7.08311 9.89649C7.26768 10.5781 7.75108 11.0352 8.56016 11.2939C9.4625 11.583 10.1808 11.5117 10.6935 11.083ZM9.74278 3.05762C9.42198 3.28809 8.76622 4.10938 8.16563 5.5586C8.0037 5.94965 7.8795 6.30823 7.78202 6.6355C8.07255 6.74292 8.3469 6.85443 8.60118 6.97083C8.76298 6.67133 8.92802 6.33087 9.08946 5.94141C9.68956 4.49219 9.80577 3.44727 9.74278 3.05762Z" "/>
<path fill-rule="evenodd" clip-rule="evenodd" d="M17.1622 14.5039C17.3263 14.5566 17.4513 14.6894 17.4933 14.8564L18.0001 16.8672C18.0499 17.0625 17.9767 17.2685 17.8155 17.3896C17.7325 17.4512 17.5724 17.5449 17.3546 17.6689C16.4493 18.1846 14.3292 19.3926 13.4649 21.4053C13.4269 21.4951 13.3634 21.5713 13.2823 21.625C12.9566 21.8408 12.6368 22.0195 12.0206 22.0195C11.3629 22.0195 11.0431 21.8408 10.7174 21.625C10.6363 21.5713 10.5729 21.4951 10.5343 21.4053C9.66514 19.3818 7.56456 18.1592 6.66807 17.6377C6.46006 17.5166 6.30625 17.4248 6.22569 17.3642C6.06748 17.2461 5.99424 17.0449 6.03868 16.8515L6.49327 14.8896C6.53379 14.7158 6.66368 14.5771 6.83457 14.5244C7.00645 14.4726 7.19102 14.5156 7.32188 14.6377C7.34132 14.655 8.8595 16.0058 11.9005 16.0058C14.9669 16.0058 16.67 14.6103 16.6866 14.5967C16.8194 14.4853 17.0021 14.4512 17.1622 14.5039ZM12.61 20.8681C13.6388 18.6357 15.8878 17.3545 16.8605 16.8008C16.8878 16.7842 16.9151 16.7685 16.9405 16.7549L16.6983 15.792C15.8683 16.2803 14.2423 17.0058 11.9005 17.0058C9.62217 17.0058 8.09727 16.3281 7.29893 15.8437L7.09385 16.7285C7.10731 16.7366 7.12121 16.7446 7.13539 16.7529C7.14694 16.7596 7.15868 16.7664 7.17051 16.7734C8.13291 17.333 10.3595 18.6289 11.3898 20.8681C11.5597 20.9726 11.692 21.0195 11.9791 21.0195C12.3004 21.0195 12.4391 20.9726 12.61 20.8681Z" "/>
</svg>
