<svg  viewBox="0 0 24 24"  xmlns="http://www.w3.org/2000/svg">
<path d="M21.9156 6.56201C21.8882 6.33447 21.7105 6.15479 21.4835 6.12549C21.2153 6.09021 14.9947 5.32776 11.0066 8.18591C10.4512 5.57263 8.80694 3.00146 7.00103 3.00146C4.99664 3.00146 2.79595 6.65381 2.79595 9.98047C2.79595 9.98804 2.79754 9.9939 2.79754 10.0015H2.50054C2.22417 10.0015 2.00054 10.2251 2.00054 10.5015C2.00054 12.7186 3.26788 14.6777 5.03191 15.5375C4.20171 16.0116 3.61919 16.7408 3.61919 17.5015C3.61919 17.7778 3.84283 18.0015 4.11919 18.0015H7.471C7.64874 18.4215 7.88116 18.8021 8.15655 19.1447L7.16363 20.1382C6.96832 20.3335 6.96832 20.6504 7.16363 20.8452C7.26128 20.9429 7.38921 20.9917 7.51714 20.9917C7.64507 20.9917 7.773 20.9429 7.87066 20.8452L8.88189 19.8334C9.83184 20.5813 11.1056 21.0093 12.5372 21.0093C12.7286 21.0093 12.9224 21.002 13.1177 20.9873C15.6622 20.7964 18.0396 19.4468 19.6407 17.2852C22.668 13.1982 21.9478 6.83105 21.9156 6.56201ZM7.00103 4.00146C8.16021 4.00146 9.74712 6.37317 10.1233 8.90149C9.74639 9.24597 9.40093 9.61353 9.08636 10.0015H3.79717C3.79717 9.99402 3.79595 9.98792 3.79595 9.98047C3.79595 7.15088 5.7066 4.00146 7.00103 4.00146ZM4.81207 17.0015C5.16998 16.502 5.99273 16.0015 7.00103 16.0015C7.01006 16.0015 7.01775 16.0045 7.02679 16.0045C7.04717 16.3488 7.09124 16.6819 7.1607 17.0015H4.81207ZM7.03326 14.9561C7.03204 14.9703 7.03265 14.9839 7.03155 14.9982C7.02117 14.9982 7.01141 15.0015 7.00103 15.0015C4.98248 15.0015 3.25542 13.2158 3.02642 11.0015H8.3764C7.61968 12.2196 7.14483 13.5696 7.03326 14.9561ZM18.837 16.6904C17.4302 18.5898 15.2642 19.8232 13.043 19.9902C11.6795 20.0973 10.4698 19.7657 9.59527 19.1194L12.4913 16.2213C13.1586 16.7076 13.9992 16.9785 14.8702 16.9785C15.419 16.9785 15.9752 16.8765 16.4976 16.6646C16.7535 16.5605 16.8765 16.269 16.773 16.0132C16.6695 15.7568 16.376 15.6333 16.1216 15.7378C15.1705 16.1235 14.0488 16.0236 13.2125 15.4996L15.439 13.2716C15.8677 13.546 16.3891 13.6919 16.919 13.6919C17.271 13.6919 17.626 13.6279 17.9595 13.4951C18.2159 13.3931 18.3414 13.1021 18.2388 12.8457C18.1368 12.5894 17.8453 12.4634 17.5894 12.5664C17.1374 12.7458 16.6153 12.7218 16.1838 12.5264L17.8541 10.855C18.0494 10.6597 18.0494 10.3428 17.8541 10.1479C17.6587 9.95264 17.3423 9.95264 17.147 10.1479L15.4756 11.8204C15.3041 11.4169 15.2878 10.9161 15.46 10.4722C15.5596 10.2144 15.4317 9.9248 15.1744 9.8252C14.9161 9.7251 14.6275 9.85352 14.5274 10.1108C14.2154 10.9163 14.3148 11.8163 14.7585 12.5381L12.4859 14.8121C11.9717 14.0297 11.8765 12.9283 12.2657 11.9434C12.3672 11.687 12.2413 11.3965 11.9844 11.2949C11.73 11.1934 11.438 11.3184 11.336 11.5762C10.8003 12.9313 10.9881 14.4677 11.7748 15.5238L8.88226 18.4183C8.24297 17.5651 7.92254 16.3665 8.02984 15.0366C8.20855 12.8228 9.40728 10.6899 11.3194 9.18604C13.6602 7.34375 17.1226 7.01318 19.3077 7.01318C20.0215 7.01318 20.5997 7.04834 20.9571 7.07764C21.0591 8.50928 21.2149 13.4795 18.837 16.6904Z" />
</svg>
