<svg  viewBox="0 0 24 24"  xmlns="http://www.w3.org/2000/svg">
<path fill-rule="evenodd" clip-rule="evenodd" d="M12 21C13.25 21 14.4219 20.7656 15.5156 20.2969C16.6094 19.8281 17.5625 19.1875 18.375 18.375C19.1875 17.5625 19.8281 16.6094 20.2969 15.5156C20.7656 14.4219 21 13.25 21 12C21 10.7656 20.7656 9.60156 20.2969 8.50781C19.8281 7.41406 19.1875 6.46094 18.375 5.64844C17.5625 4.83594 16.6094 4.19531 15.5156 3.72656C14.4219 3.24219 13.25 3 12 3C10.7656 3 9.60156 3.24219 8.50781 3.72656C7.41406 4.19531 6.46094 4.83594 5.64844 5.64844C4.83594 6.46094 4.1875 7.41406 3.70312 8.50781C3.23438 9.60156 3 10.7656 3 12C3 13.25 3.23438 14.4219 3.70312 15.5156C4.1875 16.6094 4.83594 17.5625 5.64844 18.375C6.46094 19.1875 7.41406 19.8281 8.50781 20.2969C9.60156 20.7656 10.7656 21 12 21ZM12 20.0156C10.9062 20.0156 9.875 19.8047 8.90625 19.3828C7.92188 18.9609 7.07031 18.3867 6.35156 17.6602C5.63281 16.9336 5.0625 16.0859 4.64062 15.1172C4.21875 14.1484 4.00781 13.1094 4.00781 12C4.00781 10.9062 4.21875 9.875 4.64062 8.90625C5.0625 7.92188 5.63281 7.07031 6.35156 6.35156C7.07031 5.63281 7.92188 5.0625 8.90625 4.64062C9.875 4.21875 10.9062 4.00781 12 4.00781C13.1094 4.00781 14.1484 4.21875 15.1172 4.64062C16.0859 5.0625 16.9336 5.63281 17.6602 6.35156C18.3867 7.07031 18.9609 7.92188 19.3828 8.90625C19.8047 9.875 20.0156 10.9062 20.0156 12C20.0156 13.1094 19.8047 14.1484 19.3828 15.1172C18.9609 16.0859 18.3867 16.9336 17.6602 17.6602C16.9336 18.3867 16.0859 18.9609 15.1172 19.3828C14.1484 19.8047 13.1094 20.0156 12 20.0156ZM9.51562 11.0156C9.64062 11.0156 9.75391 10.9648 9.85547 10.8633C9.95703 10.7617 10.0078 10.6406 10.0078 10.5V9.51562C10.0078 9.375 9.95703 9.25391 9.85547 9.15234C9.75391 9.05078 9.64062 9 9.51562 9C9.375 9 9.25391 9.05078 9.15234 9.15234C9.05078 9.25391 9 9.375 9 9.51562V10.5C9 10.6406 9.05078 10.7617 9.15234 10.8633C9.25391 10.9648 9.375 11.0156 9.51562 11.0156ZM14.5078 11.0156C14.6484 11.0156 14.7656 10.9648 14.8594 10.8633C14.9531 10.7617 15 10.6406 15 10.5V9.51562C15 9.375 14.9531 9.25391 14.8594 9.15234C14.7656 9.05078 14.6484 9 14.5078 9C14.3672 9 14.25 9.05078 14.1562 9.15234C14.0625 9.25391 14.0156 9.375 14.0156 9.51562V10.5C14.0156 10.6406 14.0625 10.7617 14.1562 10.8633C14.25 10.9648 14.3672 11.0156 14.5078 11.0156ZM12 17.9531C12.875 17.9531 13.6836 17.6523 14.4258 17.0508C15.168 16.4492 15.6875 15.6641 15.9844 14.6953C15.9844 14.6641 15.9883 14.6367 15.9961 14.6133C16.0039 14.5898 16.0078 14.5625 16.0078 14.5312V14.5078C16.0078 14.3672 15.957 14.25 15.8555 14.1562C15.7539 14.0625 15.6328 14.0156 15.4922 14.0156H8.50781C8.36719 14.0156 8.24609 14.0625 8.14453 14.1562C8.04297 14.25 7.99219 14.3672 7.99219 14.5078V14.5312C7.99219 14.5625 7.99609 14.5898 8.00391 14.6133C8.01172 14.6367 8.01562 14.6641 8.01562 14.6953C8.26562 15.6641 8.75781 16.4492 9.49219 17.0508C10.2266 17.6523 11.0625 17.9531 12 17.9531ZM12 16.9688C11.3906 16.9688 10.832 16.7891 10.3242 16.4297C9.81641 16.0703 9.4375 15.5938 9.1875 15H14.7891C14.5078 15.5938 14.1133 16.0703 13.6055 16.4297C13.0977 16.7891 12.5625 16.9688 12 16.9688Z" />
</svg>
