<svg width="12" height="12" viewBox="0 0 12 12" xmlns="http://www.w3.org/2000/svg">
<path d="M9.96338 1.43604C9.93115 1.18652 9.71875 1 9.46729 1H2.5332C2.28174 1 2.06934 1.18652 2.03711 1.43604L1.00391 9.43604C0.98584 9.57861 1.02979 9.72217 1.12451 9.83008C1.21924 9.93799 1.35645 10 1.5 10H10.5C10.6436 10 10.7808 9.93799 10.8755 9.83008C10.9702 9.72217 11.0142 9.57861 10.9961 9.43604L9.96338 1.43604ZM2.06885 9L2.97266 2H9.02783L9.93115 9H2.06885Z" fill="#222222"/>
<path d="M7.50049 3C7.22412 3 7.00049 3.22363 7.00049 3.5C7.00049 4.23828 6.46191 4.5 6.00049 4.5C5.53906 4.5 5.00049 4.23828 5.00049 3.5C5.00049 3.22363 4.77686 3 4.50049 3C4.22412 3 4.00049 3.22363 4.00049 3.5C4.00049 4.271 4.34668 4.74072 4.63721 4.99854C5.00049 5.32178 5.48486 5.5 6.00049 5.5C6.99414 5.5 8.00049 4.81299 8.00049 3.5C8.00049 3.22363 7.77686 3 7.50049 3Z" fill="#222222"/>
</svg>
