<svg  viewBox="0 0 24 24"  xmlns="http://www.w3.org/2000/svg">
<path fill-rule="evenodd" clip-rule="evenodd" d="M12 5C14.8066 5 16.5635 6.04004 16.5811 6.05078C16.8359 6.20508 16.9971 6.49316 16.9971 6.80078L17 11.4326C17 16.2031 12.584 18.4941 12.0049 18.5H12.001C11.5068 18.5 10.1387 17.5459 9.33105 16.7529C7.80664 15.2559 7 13.416 7 11.4326L7.00293 6.80078C7.00293 6.49316 7.16406 6.20508 7.42383 6.04785C7.43652 6.04004 9.19336 5 12 5ZM10.0322 16.04C10.8076 16.8018 11.6748 17.3281 11.9854 17.4717C12.5918 17.1846 16 15.375 16 11.4326L15.9971 6.86914C15.6875 6.70508 14.2256 6 12 6C9.77344 6 8.31055 6.70605 8.00293 6.86914L8 11.4326C8 13.1416 8.70215 14.7354 10.0322 16.04Z" "/>
<path fill-rule="evenodd" clip-rule="evenodd" d="M18.7598 4.64355C18.9062 4.73535 18.9951 4.89551 18.9951 5.06836L19 11.3604C19 18.04 12.2607 20.9326 12.1924 20.9609C12.1309 20.9873 12.0654 21 12 21C11.9326 21 11.8652 20.9863 11.8018 20.959C11.5234 20.8389 5 17.9404 5 11.3594L5.00488 5.06836C5.00488 4.89551 5.09375 4.73535 5.24023 4.64355C5.34766 4.57715 7.9248 3 12 3C16.0752 3 18.6523 4.57715 18.7598 4.64355ZM6 11.3594C6 16.6855 10.9482 19.4248 12.0029 19.9482C13.0576 19.4365 18 16.7529 18 11.3604L17.9951 5.3623C17.2979 4.99902 15.1006 4 12 4C8.89941 4 6.70215 4.99902 6.00488 5.3623L6 11.3594Z" "/>
</svg>
