<svg  viewBox="0 0 24 24"  xmlns="http://www.w3.org/2000/svg">
<path d="M20.577 17.0054C19.2028 16.8011 17.619 16.3077 17.2754 16.1514C17.2489 16.1323 17.2271 16.1083 17.1962 16.0942C17.1815 16.0876 17.1657 16.089 17.1508 16.0839C13.7598 14.2325 9.25319 7.06298 7.76455 4.69286L7.42177 4.1494C6.70888 3.02929 5.84267 2.94042 5.25185 3.05761C3.64541 3.37841 2.23037 5.5996 2.08779 6.41405C1.7831 8.16161 2.12294 9.74462 3.12392 11.2539C4.01259 12.5937 4.00869 15.605 4.0038 18.793L4.00283 20.5C4.00283 20.7764 4.22646 21 4.50283 21H6.4999C6.77626 21 6.9999 20.7764 6.9999 20.5V19.5C6.9999 18.5239 6.99501 17.6406 6.98915 16.7773C6.98232 15.5644 6.97451 14.3931 6.9833 13.0615C9.71767 16.9385 12.7587 21 13.4999 21H20.494C21.3036 21 21.9247 20.248 22.0038 19.1709C22.0878 18.0337 21.5019 17.1431 20.577 17.0054ZM5.82705 4.23241C5.86513 4.19872 5.95693 4.10985 6.20302 4.25731C6.21187 4.26275 6.22213 4.26275 6.23122 4.26757C6.34359 4.36699 6.45967 4.5009 6.57802 4.687L6.91787 5.2246C8.54445 7.81511 12.7531 14.5056 16.3037 16.7395C16.1884 16.8946 16.0482 17.0288 15.8778 17.0835C15.6483 17.1572 15.3632 17.0962 15.0282 16.9033C11.7645 15.0205 6.18154 5.8164 5.78701 5.06151C5.5956 4.69481 5.69521 4.35595 5.82705 4.23241ZM20.494 20H13.6093C12.8427 19.4189 9.24013 14.5615 6.91005 11.2143C6.78603 11.0361 6.56239 10.958 6.35341 11.022C6.14638 11.0854 6.00283 11.2754 5.9999 11.4927C5.96962 13.5239 5.97939 15.1152 5.98915 16.7837C5.99501 17.6445 5.9999 18.5264 5.9999 19.5V20H5.00283L5.0038 18.7944C5.00869 15.4512 5.01357 12.293 3.9579 10.7012C3.10439 9.41503 2.81435 8.06884 3.07216 6.58641C3.14138 6.19243 3.87551 5.02678 4.70119 4.41118C4.65322 4.77556 4.71499 5.16918 4.90029 5.5244C4.95009 5.62011 10.7597 15.5952 14.5282 17.7695C14.9267 17.9995 15.3104 18.1147 15.6747 18.1147C15.8495 18.1147 16.0194 18.0884 16.1835 18.0356C16.5881 17.9056 16.9298 17.622 17.2061 17.1944C17.9265 17.4493 19.2674 17.8215 20.4306 17.9946C20.9442 18.0708 21.0341 18.7236 21.0067 19.0972C20.9696 19.5952 20.7401 20 20.494 20Z" "/>
</svg>
