<svg  viewBox="0 0 24 24"  xmlns="http://www.w3.org/2000/svg">
<path d="M10.2635 7.27449C10.396 7.27477 10.5232 7.22212 10.6167 7.12824L13.991 3.75399L13.9902 5.37624C13.9902 5.65252 14.2142 5.87649 14.4905 5.87649C14.7668 5.87649 14.9907 5.65252 14.9907 5.37624L14.9915 2.51949C14.9911 2.24379 14.7677 2.0204 14.492 2.01999H11.663C11.4843 2.01999 11.3191 2.11534 11.2298 2.27011C11.1404 2.42489 11.1404 2.61559 11.2298 2.77036C11.3191 2.92514 11.4843 3.02049 11.663 3.02049H13.3122L9.91099 6.42174C9.76909 6.56505 9.72695 6.77949 9.80408 6.96584C9.88121 7.1522 10.0626 7.27413 10.2642 7.27524L10.2635 7.27449Z" "/>
<path d="M6.31999 13.0225H4.67074L8.07274 9.62049C8.2486 9.42219 8.23958 9.12123 8.05217 8.93382C7.86475 8.7464 7.56379 8.73738 7.36549 8.91324L3.99124 12.2875V10.666C3.99124 10.3897 3.76727 10.1657 3.49099 10.1657C3.21471 10.1657 2.99074 10.3897 2.99074 10.666L2.98999 13.5227C2.98979 13.6553 3.04235 13.7824 3.13607 13.8762C3.22979 13.9699 3.35696 14.0224 3.48949 14.0222H6.31774C6.49647 14.0222 6.66161 13.9269 6.75097 13.7721C6.84033 13.6173 6.84033 13.4266 6.75097 13.2719C6.66161 13.1171 6.49647 13.0217 6.31774 13.0217L6.31999 13.0225Z" "/>
<path d="M19.4817 12.5665C19.9487 12.589 20.3796 12.8242 20.651 13.2047L20.6532 13.204C21.0162 13.714 21.011 14.3507 21.0065 14.8622L21.0057 15.0197C21.0057 17.1422 20.834 18.715 20.495 19.6922C20.0592 20.8667 19.4052 21.6857 18.695 21.9467C18.5258 22.0166 18.332 21.9882 18.1898 21.8729C18.0477 21.7576 17.98 21.5738 18.0134 21.3938C18.0468 21.2139 18.1759 21.0666 18.35 21.01C18.6657 20.893 19.1712 20.3897 19.5537 19.3547C19.7577 18.7652 20.006 17.5247 20.006 15.0197L20.0067 14.854C20.0105 14.4685 20.0142 14.0312 19.8395 13.786C19.7447 13.6536 19.5942 13.5722 19.4315 13.5655C19.2328 13.5567 19.0409 13.639 18.9102 13.789C18.817 13.8931 18.6847 13.9539 18.545 13.957C18.4061 13.9555 18.2733 13.9001 18.1745 13.8025C18.0787 13.7029 18.0217 13.5722 18.014 13.4342C18.014 13.1867 17.9615 12.8725 17.7125 12.7817C17.4387 12.6827 17.093 12.7682 16.9722 12.9662C16.8542 13.1557 16.6251 13.2442 16.4104 13.1834C16.1956 13.1225 16.0471 12.9269 16.046 12.7037V12.532C16.0295 12.2965 15.599 12.274 15.5802 12.2732C15.392 12.268 15.056 12.3235 14.9915 12.5905V12.7037C14.9915 12.98 14.7675 13.204 14.4912 13.204C14.215 13.204 13.991 12.98 13.991 12.7037V8.24949C13.991 8.04024 13.934 7.87299 13.8267 7.76574C13.5852 7.52574 12.9905 7.54074 12.9905 8.24949C12.9911 8.94225 12.9941 9.635 12.9995 10.3277L13.0002 10.4535C13.0075 11.6793 13.0144 12.8475 12.9905 14.2255C12.98 14.7707 12.599 15.274 12.2255 15.5305C11.3033 16.166 10.5148 15.3596 10.2165 15.0545L10.2147 15.0527C9.40999 14.2307 9.03274 13.7815 8.86549 13.5107L8.86174 13.513C8.54149 13.1305 8.19724 13.1867 7.99774 13.351C7.80499 13.5115 7.70299 13.807 7.99549 14.1617L13.8687 21.1585C13.9836 21.2953 14.0167 21.4829 13.9556 21.6508C13.8946 21.8186 13.7486 21.9411 13.5728 21.9721C13.3969 22.0032 13.2178 21.938 13.103 21.8012L7.22749 14.8015C6.54724 13.978 6.77974 13.0622 7.35949 12.5815C7.93999 12.0992 8.93449 12.0377 9.62974 12.874C9.68974 12.9452 10.679 14.098 10.9287 14.3537C11.4305 14.8667 11.552 14.7812 11.6585 14.7062C11.8535 14.5727 11.987 14.3402 11.9892 14.2082C12.0132 12.7922 12.0057 11.5982 11.9975 10.3345C11.9971 10.2571 11.9966 10.1794 11.9962 10.1014C11.9928 9.51218 11.9892 8.90452 11.9892 8.24949C11.9892 6.62574 13.7345 6.26424 14.5302 7.05624C14.7395 7.26474 14.9892 7.64124 14.9892 8.24949V11.3545C15.1943 11.2905 15.4092 11.2636 15.6237 11.275C16.1405 11.2982 16.5687 11.521 16.8155 11.8637C17.2106 11.7038 17.651 11.696 18.0515 11.842C18.43 11.9782 18.7299 12.2734 18.872 12.6497C19.068 12.5829 19.275 12.5547 19.4817 12.5665Z" "/>
</svg>
