<svg  viewBox="0 0 24 24"  xmlns="http://www.w3.org/2000/svg">
<path fill-rule="evenodd" clip-rule="evenodd" d="M21.4995 14H20.9992C20.9987 13.529 20.9979 12.5864 20.9995 12.5C20.9995 12.1152 20.767 11.4771 20.0024 11.1729V5.51367C20.0024 5.2373 19.7788 5.01367 19.5024 5.01367C19.5014 5.01367 19.5005 5.01428 19.4995 5.01428V5H2.49658C2.44403 5 2.40051 5.02814 2.35211 5.04358C2.3324 5.0498 2.31195 5.05273 2.29333 5.06128C2.24561 5.08325 2.20715 5.10968 2.16858 5.14539C2.14362 5.16785 2.12531 5.1947 2.10529 5.22168C2.08368 5.25165 2.05042 5.27069 2.03564 5.30566C2.026 5.32861 2.03412 5.35309 2.02808 5.37671C2.0152 5.42114 2.00049 5.46509 2.00049 5.51367V16.498C2.00049 16.7744 2.22412 16.998 2.50049 16.998H15.9995V18.5C15.9995 18.7764 16.2231 19 16.4995 19H21.4995C21.7759 19 21.9995 18.7764 21.9995 18.5V14.5C21.9995 14.2236 21.7759 14 21.4995 14ZM20.001 12.4609C19.9987 12.4884 19.9977 12.5192 19.9993 14H17.9994L17.999 13.3955C17.9985 12.9595 17.998 12.5933 17.999 12.5229C17.9995 12.5166 17.9995 12.5103 17.9995 12.5039C18.0088 12.4067 18.1011 12.0005 19.002 12.0005C19.9307 12.0005 19.9961 12.4209 20.001 12.4609ZM18.1504 6C16.1323 7.77588 11.9609 11.5376 11.7476 11.73C11.5391 11.9082 11.2725 12.0063 10.9976 12.0063C10.7017 12.0063 10.4404 11.8574 10.1709 11.6597C8.38428 10.0884 5.3252 7.39014 3.7793 6H18.1504ZM3.00049 6.64355C4.28552 7.80164 6.65503 9.89441 8.16589 11.2255L3.00049 15.3791V6.64355ZM15.9995 14.5V15.998H3.82684L8.92786 11.8962C9.26099 12.1893 9.49194 12.392 9.54297 12.4365C9.92236 12.7183 10.3921 13.0063 10.9976 13.0063C11.5103 13.0063 12.0073 12.8232 12.4072 12.4814C12.6014 12.3063 12.8348 12.096 13.0864 11.8694L16.0486 14.2906C16.0188 14.3547 15.9995 14.4246 15.9995 14.5ZM13.8386 11.1926C15.5364 9.66577 17.806 7.63171 19.0024 6.58209V11.0005C19.0023 11.0005 19.0021 11.0005 19.002 11.0005C18.0522 11.0005 17.563 11.3579 17.3198 11.6572C17.0146 12.0337 16.9995 12.4219 16.9995 12.4961C16.9995 12.522 17.0015 12.5474 17.0049 12.5723C16.998 12.7417 16.9985 12.9966 16.999 13.3965L16.9992 13.776L13.8386 11.1926ZM20.9995 18H16.9995V15H20.9995V18Z" "/>
</svg>
