<svg  viewBox="0 0 24 24"  xmlns="http://www.w3.org/2000/svg">
<path d="M15.4844 5.26757C15.0176 4.91504 14.6251 4.99902 14.4337 5.08105C14.3057 5.13574 14.2071 5.24023 14.1602 5.37011C14.1341 5.44177 13.8704 6.18017 13.5672 7.2948C13.3148 6.55847 13.2215 6.38342 13.0714 6.2666C12.8077 6.0625 12.544 5.95996 12.0626 5.875C11.8052 5.82629 11.3985 5.76049 10.607 7.43982C10.3282 6.25061 10.0801 5.4563 10.0567 5.38183C10.0137 5.24804 9.91706 5.13769 9.78913 5.0791C9.6114 4.99609 9.24811 4.9082 8.80085 5.22656C7.38581 6.2373 5.71979 11.1094 6.04304 14.3174C6.24909 16.3721 7.32819 18.0625 8.85944 18.7285C9.27741 18.9102 9.70612 19 10.127 19C10.7706 19 11.3956 18.79 11.9405 18.377C12.003 18.3291 12.0352 18.3145 12.0372 18.3096C12.0499 18.3145 12.0909 18.3301 12.1729 18.3877C13.0782 19.0234 14.1339 19.1279 15.1387 18.6855C16.586 18.0498 17.6524 16.3828 17.9239 14.334C18.3536 11.0811 16.8673 6.31738 15.4844 5.26757ZM11.5518 17.4557C11.4798 17.4938 11.408 17.5248 11.335 17.5801C10.7217 18.0449 9.98444 18.125 9.25788 17.8115C8.07722 17.2978 7.20515 15.8867 7.03718 14.2178C6.72175 11.0811 8.45124 6.81445 9.22272 6.08691C9.5489 7.23144 10.4307 10.6211 10.4307 13.8057C10.4307 14.6094 10.4307 15.2441 10.6007 15.7422C10.7676 16.2336 11.087 16.5436 11.5518 16.6693V17.4557ZM12.0743 15.7344C11.6827 15.7344 11.6114 15.6103 11.5469 15.4199C11.4307 15.0781 11.4307 14.4883 11.4307 13.7793C11.4307 12.1791 11.221 10.5543 10.9659 9.16198C11.3131 8.26281 11.8008 7.21789 12.0606 6.89355C12.2471 6.93554 12.337 6.97558 12.3966 7.01172C12.4991 7.23437 12.7247 7.91894 12.8507 8.30175C12.9769 8.68591 13.0604 8.93884 13.1304 9.11194C12.8365 10.5126 12.5938 12.1548 12.5938 13.7793C12.5938 15.583 12.4669 15.7344 12.0743 15.7344ZM16.9317 14.2031C16.7071 15.9072 15.8653 17.2744 14.7364 17.7705C14.0518 18.0684 13.3633 18.002 12.7481 17.5693C12.6812 17.5225 12.617 17.4982 12.5518 17.464V16.6728C13.5906 16.3887 13.5938 15.118 13.5938 13.7793C13.5938 10.6103 14.5938 7.24902 14.9639 6.1123C15.7911 6.83593 17.3546 11.0107 16.9317 14.2031Z" "/>
</svg>
