<svg  viewBox="0 0 24 24"  xmlns="http://www.w3.org/2000/svg">
<path d="M10.4828 9.11921C10.828 9.11921 11.1078 8.8393 11.1078 8.49421C11.1078 8.149 10.828 7.86921 10.4828 7.86921C10.1375 7.86921 9.85775 8.149 9.85775 8.49421C9.85775 8.8393 10.1375 9.11921 10.4828 9.11921ZM13.4928 9.11921C13.8377 9.11921 14.1178 8.8393 14.1178 8.49421C14.1178 8.149 13.8377 7.86921 13.4928 7.86921C13.1475 7.86921 12.8678 8.149 12.8678 8.49421C12.8678 8.8393 13.1475 9.11921 13.4928 9.11921ZM21.7696 13.0805C21.5401 12.9321 21.2296 12.998 21.0792 13.2319C20.9007 13.5096 19.4078 14.561 17.3741 14.4735C17.482 14.2259 17.567 13.9768 17.6246 13.7279C20.8365 12.4217 22.233 10.4754 21.9591 7.62348C21.8585 6.58393 21.3819 5.6352 20.5811 4.87885C19.3145 3.68305 17.6964 2.64253 14.421 3.11909C14.2198 3.14839 14.0557 3.29731 14.0079 3.49507C13.9591 3.69282 14.0352 3.90034 14.2013 4.01948L16.2891 5.52339L14.8634 6.25581C14.6974 6.34077 14.5929 6.51118 14.5919 6.6977C14.5909 6.88374 14.6934 7.05512 14.8575 7.14253C16.3097 7.91108 19.627 8.14253 20.9874 8.03657C21.0731 9.60212 20.6204 11.3026 17.6915 12.6251C17.3924 10.0091 13.6226 10.0014 11.9708 10.0014C10.3236 10.0014 6.57015 10.0086 6.25179 12.6022C3.36825 11.283 2.92172 9.59309 3.00692 8.03657C4.37118 8.14009 7.68466 7.91108 9.13583 7.14253C9.29989 7.05512 9.40243 6.88374 9.40145 6.6977C9.40048 6.51118 9.29598 6.34126 9.12997 6.25581L7.70516 5.52339L9.79208 4.01948C9.95809 3.90034 10.0343 3.69282 9.98544 3.49507C9.93758 3.29731 9.77352 3.14839 9.57235 3.11909C6.30184 2.63862 4.6788 3.68305 3.41219 4.87934C2.61239 5.6352 2.13583 6.58393 2.03524 7.62348C1.76278 10.4583 3.14144 12.3983 6.31234 13.7044C6.36971 13.9608 6.4559 14.2175 6.56698 14.4727C4.56258 14.5374 3.0975 13.5064 2.92098 13.2314C2.77059 12.998 2.46102 12.9311 2.22958 13.0805C1.99715 13.2299 1.92977 13.5395 2.07919 13.7714C2.45516 14.3564 4.14852 15.4843 6.37606 15.4843C6.61776 15.4843 6.8663 15.4691 7.11947 15.4404C7.25033 15.6225 7.38973 15.8011 7.54452 15.9722C6.03304 16.0982 4.87411 16.4235 4.17196 16.9335C3.6036 17.3476 3.29403 17.5976 3.02548 18.3286C2.92977 18.5878 3.06258 18.8749 3.32137 18.9707C3.37801 18.9916 3.43661 19.0014 3.49423 19.0014C3.69735 19.0014 3.88876 18.8764 3.96298 18.6743C4.13387 18.2124 4.26864 18.1 4.75985 17.7426C5.1534 17.457 6.17391 16.9697 8.59481 16.9155C8.60262 16.9154 8.60922 16.911 8.61678 16.9105C8.85555 17.0772 9.10751 17.2283 9.37191 17.3624C7.98202 17.5517 7.10922 17.8967 6.65341 18.4365C6.01766 19.1918 5.87411 19.7666 6.10751 20.6313C6.1788 20.8979 6.45712 21.0571 6.71981 20.9843C6.98641 20.9125 7.14462 20.6381 7.07235 20.3715C6.93368 19.8549 6.962 19.6225 7.41805 19.081C7.71493 18.729 8.65731 18.2905 11.4425 18.2006L12.5431 18.2001C15.3438 18.2905 16.2862 18.729 16.5821 19.081C17.0391 19.6225 17.0675 19.8549 16.9288 20.3715C16.8565 20.6381 17.0147 20.9125 17.2813 20.9843C17.3243 20.996 17.3682 21.0014 17.4112 21.0014C17.6319 21.0014 17.8341 20.8544 17.8936 20.6313C18.127 19.7666 17.9845 19.1918 17.3468 18.4365C16.887 17.8912 16.0023 17.5445 14.5824 17.3563C14.8468 17.2215 15.0985 17.0689 15.3372 16.9014C15.3585 16.9046 15.3773 16.915 15.3995 16.9155C17.8214 16.9697 18.8419 17.457 19.2345 17.7421C19.7247 18.0991 19.8604 18.2114 20.0313 18.6743C20.1056 18.8764 20.297 19.0014 20.5001 19.0014C20.5577 19.0014 20.6163 18.9916 20.6729 18.9707C20.9317 18.8749 21.0645 18.5878 20.9688 18.3286C20.6993 17.5961 20.3907 17.3466 19.8223 16.9335C19.1131 16.418 17.9373 16.0909 16.401 15.9678C16.557 15.7955 16.6969 15.6151 16.828 15.4315C17.0999 15.4644 17.3673 15.4843 17.6261 15.4843C19.8546 15.4843 21.546 14.3559 21.921 13.7709C22.0704 13.5385 22.002 13.2294 21.7696 13.0805ZM16.337 6.623L17.4727 6.03999C17.627 5.9604 17.7296 5.8061 17.7432 5.63276C17.7559 5.45893 17.6778 5.29096 17.5362 5.1894L15.8878 4.0019C15.9054 4.0019 15.9239 4.00141 15.9425 4.00141C17.9952 4.00141 19.0557 4.81343 19.8946 5.60591C20.337 6.02339 20.6515 6.51313 20.8243 7.04682C19.8839 7.10591 17.7989 6.99897 16.337 6.623ZM4.09969 5.60591C4.94637 4.8061 6.00204 4.02192 8.10653 4.0019L6.45809 5.1894C6.31649 5.29145 6.23837 5.45893 6.25106 5.63276C6.26473 5.8061 6.36727 5.9604 6.52157 6.03999L7.65633 6.623C6.1954 6.99897 4.11532 7.1103 3.17001 7.04682C3.34286 6.51313 3.65731 6.02339 4.09969 5.60591ZM11.9708 17.0014C9.41219 17.0014 7.22079 14.7778 7.22079 12.9575C7.22079 11.5864 8.64169 11.0014 11.9708 11.0014C15.2999 11.0014 16.7208 11.5864 16.7208 12.9575C16.7208 14.7778 14.5294 17.0014 11.9708 17.0014Z" />
</svg>
