<svg  viewBox="0 0 24 24"  xmlns="http://www.w3.org/2000/svg">
<path d="M9.55078 7C9.41357 7.15125 9.22028 7.25 9 7.25C8.58582 7.25 8.25 6.91418 8.25 6.5C8.25 6.08575 8.58582 5.75 9 5.75C9.22028 5.75 9.41357 5.84882 9.55078 6H12.5C12.7764 6 13 6.22363 13 6.5C13 6.77637 12.7764 7 12.5 7H9.55078Z" />
<path fill-rule="evenodd" clip-rule="evenodd" d="M20.0015 11.9951H21.5C21.7764 11.9951 22 12.2188 22 12.4951V13.9839C22 15.7637 20.3384 16.8815 18.7275 16.9689C18.254 17.4706 17.6678 17.833 17 17.9551V19H17.0293C18.1719 19 19.1362 20.5356 19.1362 21.5C19.1362 21.7764 18.9126 22 18.6362 22H2.5C2.22363 22 2 21.7764 2 21.5V19.5015C2 19.2881 2.13525 19.0981 2.33691 19.0288C2.38525 19.0117 3.57324 18.5757 3.79199 17.3667C4.02045 16.1041 4.71509 11.4033 4.93573 9.90253C3.17145 9.53766 2 8.10645 2 6.16406C2 3.86816 3.79883 2 6.01025 2H15.5C16.7759 2 17.7437 2.81543 17.9561 4H18.5088C18.7852 4 19.0088 4.22363 19.0088 4.5V7.5C19.0088 7.77637 18.7852 8 18.5088 8H18V9.5C18 9.77637 17.7764 10 17.5 10H15.5V11H19.5015C19.7778 11 20.0015 11.2236 20.0015 11.5V11.9951ZM6.01025 3C4.35059 3 3 4.41943 3 6.16406C3 7.86035 4.14062 9 5.83887 9H8.05469C8.21094 8.35059 8.69678 8 9.46143 8H12.4966C12.7729 8 12.9966 8.22363 12.9966 8.5V9H17V7.5C17 7.22363 17.2236 7 17.5 7H18.0088V5H17.5C17.2236 5 17 4.77637 17 4.5C17 3.6167 16.3833 3 15.5 3H6.01025ZM12.999 18.9996V17.9551C11.3521 17.6577 10 15.9302 10 13.9858V11.5C10 11.2236 10.2236 11 10.5 11H14.5V10H12.4966C12.2202 10 11.9966 9.77637 11.9966 9.5V9H9.46143C9.09326 9 9 9.04932 9 9.5V14.2461C9 16.439 9.93213 18.9995 12.5586 18.9995L12.999 18.9996ZM18.0171 21C17.8042 20.501 17.3516 20 17.0293 20L12.5586 19.9995C9.40967 19.9995 8 17.1099 8 14.2461V10H5.93201C5.71735 11.4628 5.01251 16.2371 4.77637 17.5449C4.53564 18.8721 3.53418 19.5513 3 19.8252V21H18.0171ZM16.5 17C17.9316 17 19.0015 15.2676 19.0015 13.7188V12H11V13.9858C11 15.5352 12.2144 17 13.499 17C13.7754 17 13.999 17.2236 13.999 17.5V18.9997L16 18.9999V17.5C16 17.2236 16.2236 17 16.5 17ZM19.5142 15.8066C20.3313 15.5147 21 14.8743 21 13.9839V12.9951H20.0015V13.7188C20.0015 14.4218 19.8269 15.1519 19.5142 15.8066Z" />
</svg>
