<svg  viewBox="0 0 24 24"  xmlns="http://www.w3.org/2000/svg">
<path d="M14.0583 15.1222C15.4317 14.4967 16.644 13.079 16.8059 12.8823C16.9125 12.7534 16.9477 12.5796 16.8988 12.4194C16.8881 12.3844 16.8614 12.3594 16.8438 12.3281C18.2302 11.7098 19.4595 10.2723 19.6226 10.0742C19.6336 10.0609 19.6346 10.0431 19.6439 10.0289C19.6777 10.0085 19.7136 9.99255 19.743 9.96338L21.8162 7.89453C22.0119 7.69922 22.0119 7.38281 21.8162 7.1875C21.6205 6.99219 21.3035 6.99219 21.1078 7.1875L19.0875 9.20349C18.804 9.13464 18.3304 9.03235 17.7625 8.94824C17.8816 8.85815 18.0032 8.77124 18.1101 8.66455C19.1677 7.60889 19.5793 5.64343 19.6816 5.06018L21.4532 3.2915C21.6489 3.09619 21.6489 2.77979 21.4532 2.58447C21.2575 2.38916 20.9405 2.38916 20.7448 2.58447L18.9732 4.35315C18.3887 4.4552 16.4194 4.86584 15.3628 5.92188C15.2436 6.04089 15.1443 6.17468 15.0458 6.30859C14.958 5.68884 14.844 5.17175 14.7716 4.87769L16.798 2.85498C16.9937 2.65967 16.9937 2.34326 16.798 2.14795C16.6024 1.95264 16.2854 1.95264 16.0897 2.14795L14.0165 4.21729C13.9766 4.25696 13.9507 4.30383 13.9272 4.35144C13.9201 4.35657 13.9108 4.35669 13.904 4.3623C13.7051 4.52502 12.2642 5.7533 11.6451 7.13757C11.6143 7.12012 11.5901 7.09338 11.5559 7.08252C11.3944 7.0332 11.2183 7.06543 11.0872 7.17334C10.8898 7.33484 9.47045 8.5448 8.84355 9.91565C8.81933 9.90271 8.80148 9.88098 8.77531 9.87207C8.61681 9.81738 8.44559 9.84619 8.31449 9.94482C8.10707 10.0989 6.61283 11.2587 5.96221 12.6198C5.82181 12.5894 5.67407 12.6105 5.5574 12.6968C5.30107 12.8877 3.05372 14.6094 2.90109 16.3569C2.77953 17.7465 3.16525 19.4418 3.30394 19.9933L2.14676 21.1479C1.95108 21.3433 1.95108 21.6597 2.14676 21.855C2.2446 21.9526 2.37276 22.0015 2.50093 22.0015C2.6291 22.0015 2.75727 21.9526 2.85511 21.855L4.04873 20.6637C4.55236 20.7694 5.71223 20.9839 6.85278 20.9839C7.07487 20.9839 7.29501 20.9756 7.51026 20.957C9.24689 20.8057 11.0569 18.6636 11.2575 18.4199C11.3641 18.291 11.3993 18.1172 11.3504 17.957C11.3423 17.931 11.3213 17.9132 11.3093 17.8893C12.6656 17.254 13.8553 15.863 14.0155 15.6685C14.1222 15.5391 14.1574 15.3652 14.1085 15.2051C14.0987 15.1732 14.074 15.151 14.0583 15.1222ZM16.0711 6.62891C16.7031 5.99756 17.8361 5.63721 18.5738 5.45898C18.3958 6.19531 18.0347 7.32617 17.4017 7.95752C16.7707 8.5874 15.7404 8.82959 15.1025 8.92188C15.2052 8.23193 15.4723 7.22607 16.0711 6.62891ZM15.7189 9.83984C16.5799 9.76465 17.5945 9.91357 18.2852 10.0513C17.6199 10.7139 16.6102 11.5435 15.7864 11.6157C14.9274 11.6919 13.9206 11.5684 13.226 11.4521C13.8923 10.7676 14.901 9.91113 15.7189 9.83984ZM12.3591 8.19141C12.4315 7.37207 13.2632 6.36328 13.9275 5.69775C14.0644 6.38623 14.2141 7.39551 14.1388 8.25879C14.0772 8.9613 13.4327 9.80432 12.8165 10.45C12.7094 10.5526 12.6137 10.6471 12.5218 10.7423C12.4066 10.0499 12.284 9.04797 12.3591 8.19141ZM9.54334 11.002C9.61476 10.1826 10.4464 9.17432 11.1107 8.50879C11.2477 9.19775 11.3974 10.2065 11.322 11.0698C11.2506 11.8862 10.3926 12.8936 9.70673 13.5586C9.5903 12.8667 9.468 11.8623 9.54334 11.002ZM6.65613 13.6919C6.72853 12.8682 7.61592 11.8828 8.31057 11.25C8.45048 11.9404 8.608 12.9761 8.53071 13.8555V13.856C8.45831 14.6816 7.58168 15.7026 6.89094 16.3672C6.85474 16.1892 6.81732 15.9889 6.78283 15.7755C6.76302 15.2899 6.70871 14.8143 6.64023 14.3912C6.63289 14.1517 6.63656 13.9156 6.65613 13.6919ZM4.13385 19.1191C3.98808 18.4014 3.82175 17.3267 3.89904 16.4438C3.97144 15.6201 4.85981 14.6348 5.55349 14.0024C5.69242 14.6914 5.85092 15.7261 5.77363 16.6079C5.70122 17.4336 4.82459 18.4546 4.13385 19.1191ZM7.4222 19.9609C6.57003 20.0376 5.57208 19.9165 4.87938 19.8008C5.57306 19.1089 6.61895 18.2432 7.44373 18.1714C8.29492 18.0977 9.26645 18.248 9.9298 18.3867C9.26352 19.0513 8.24698 19.8887 7.4222 19.9609ZM10.1793 17.209C9.32907 17.2822 8.33112 17.1636 7.63745 17.0488C8.33308 16.3569 9.37897 15.4912 10.2008 15.4194C11.0569 15.3457 12.0245 15.4956 12.6879 15.6348C12.0206 16.2993 11.0041 17.1367 10.1793 17.209ZM12.9706 14.4233C12.1165 14.498 11.1195 14.3779 10.4268 14.2627C11.1215 13.5713 12.1674 12.7051 12.9921 12.6333C13.8433 12.5596 14.8149 12.709 15.4782 12.8491C14.8119 13.5132 13.7954 14.3511 12.9706 14.4233ZM21.6499 17.0244C21.3876 16.9419 21.1049 17.0879 21.0217 17.3511L20.0991 20.2695L19.063 17.3511C18.9916 17.1514 18.8028 17.0181 18.5904 17.0181H18.4134C18.2011 17.0181 18.0112 17.1523 17.9408 17.3525L16.9057 20.2954L15.9654 17.3657C15.8803 17.1025 15.5966 16.959 15.3354 17.042C15.0712 17.126 14.9264 17.4077 15.0105 17.6704L16.2893 21.6538C16.3558 21.8608 16.5486 22.0015 16.7667 22.0015H17.0123C17.2246 22.0015 17.4144 21.8672 17.4849 21.667L18.5034 18.7705L19.5326 21.6685C19.6041 21.8682 19.7929 22.0015 20.0052 22.0015H20.2351C20.4533 22.0015 20.647 21.8599 20.7126 21.6519L21.9766 17.6519C22.0598 17.3887 21.914 17.1079 21.6499 17.0244Z" "/>
</svg>
