<svg  viewBox="0 0 24 24"  xmlns="http://www.w3.org/2000/svg">
<path d="M17.5 19.9997H6.49997C6.2236 19.9997 5.99997 20.2234 5.99997 20.4998C5.99997 20.7763 6.2236 21 6.49997 21H17.5C17.7763 21 18 20.7763 18 20.4998C18 20.2234 17.7763 19.9997 17.5 19.9997ZM19.3657 10.1548L12.3657 2.65239C12.1762 2.4492 11.8237 2.4492 11.6342 2.65239L4.63425 10.1548C4.4985 10.3003 4.46188 10.5123 4.54147 10.695C4.62057 10.8777 4.80075 10.9959 4.99997 10.9959L7.99997 10.9949V17.494C7.99997 17.7705 8.2236 17.9942 8.49997 17.9942H15.5C15.7763 17.9942 16 17.7705 16 17.494V10.9949L19 10.9959C19.1992 10.9959 19.3794 10.8777 19.4585 10.695C19.5381 10.5123 19.5014 10.3003 19.3657 10.1548ZM15.5 9.99456C15.3672 9.99456 15.2402 10.0473 15.1465 10.1411C15.0527 10.2349 15 10.3619 15 10.4947V16.9938H8.99997V10.4947C8.99997 10.3619 8.94724 10.2349 8.85349 10.1411C8.75974 10.0473 8.63229 9.99456 8.49997 9.99456L6.15085 9.99554L12 3.72597L17.8491 9.99554L15.5 9.99456Z" />
</svg>
