<svg  viewBox="0 0 24 24"  xmlns="http://www.w3.org/2000/svg">
<path d="M9.7005 15.9518C9.79406 16.0456 9.92122 16.0983 10.0538 16.098H10.0553C10.1878 16.0981 10.3149 16.0455 10.4085 15.9518L17.6048 8.7555C17.7806 8.5572 17.7716 8.25624 17.5842 8.06883C17.3968 7.88141 17.0958 7.87239 16.8975 8.04825L10.0545 14.8913L7.104 11.9408C6.9057 11.7649 6.60474 11.7739 6.41733 11.9613C6.22991 12.1487 6.22089 12.4497 6.39675 12.648L9.7005 15.9518Z" "/>
<path fill-rule="evenodd" clip-rule="evenodd" d="M12 21C7.03725 21 3 16.9628 3 12C3 7.03725 7.03725 3 12 3C16.9628 3 21 7.03725 21 12C21 16.9628 16.9628 21 12 21ZM12 3.99975C7.5885 3.99975 3.99975 7.5885 3.99975 12C3.99975 16.4115 7.5885 20.0003 12 20.0003C16.4108 20.0003 20.0003 16.4115 20.0003 12C20.0003 7.5885 16.4115 3.99975 12 3.99975Z" "/>
</svg>
