<svg  viewBox="0 0 24 24"  xmlns="http://www.w3.org/2000/svg">
<path d="M8.5 4H6.5C6.22363 4 6 4.22363 6 4.5C6 4.77637 6.22363 5 6.5 5H8.5C8.77637 5 9 4.77637 9 4.5C9 4.22363 8.77637 4 8.5 4Z" />
<path fill-rule="evenodd" clip-rule="evenodd" d="M9 13C9 11.3457 10.3457 10 12 10C12.6484 10 13.2715 10.2119 13.8018 10.6123C13.9268 10.7065 14 10.8545 14 11.0112V14.9888C14 15.1455 13.9268 15.2935 13.8018 15.3877C13.2715 15.7881 12.6484 16 12 16C10.3457 16 9 14.6543 9 13ZM12 15C12.3516 15 12.6924 14.9048 13 14.7231V11.2769C12.6924 11.0952 12.3516 11 12 11C10.8975 11 10 11.897 10 13C10 14.103 10.8975 15 12 15Z" />
<path fill-rule="evenodd" clip-rule="evenodd" d="M12 8C9.24316 8 7 10.2432 7 13C7 15.7568 9.24316 18 12 18C14.7568 18 17 15.7568 17 13C17 10.2432 14.7568 8 12 8ZM12 17C9.79395 17 8 15.2056 8 13C8 10.7944 9.79395 9 12 9C14.2061 9 16 10.7944 16 13C16 15.2056 14.2061 17 12 17Z" />
<path d="M18 4.5C18 4.91421 17.6642 5.25 17.25 5.25C16.8358 5.25 16.5 4.91421 16.5 4.5C16.5 4.08579 16.8358 3.75 17.25 3.75C17.6642 3.75 18 4.08579 18 4.5Z" />
<path fill-rule="evenodd" clip-rule="evenodd" d="M19.5 2H4.5C4.22363 2 4 2.22363 4 2.5V21.5C4 21.7764 4.22363 22 4.5 22H19.5C19.7764 22 20 21.7764 20 21.5V2.5C20 2.22363 19.7764 2 19.5 2ZM5 3H10V6H5V3ZM5 21V7H18.8428C18.8986 7 18.9499 6.98517 19 6.96832V21H5ZM19 6.03168C18.9499 6.01483 18.8986 6 18.8428 6H11V3H19V6.03168Z" />
</svg>
