<svg width="24" height="24" viewBox="0 0 24 24" xmlns="http://www.w3.org/2000/svg">
<path d="M11.25 16.9702C11.25 16.556 11.5858 16.2202 12 16.2202C12.4142 16.2202 12.75 16.556 12.75 16.9702C12.75 17.3844 12.4142 17.7202 12 17.7202C11.5858 17.7202 11.25 17.3844 11.25 16.9702Z"/>
<path d="M12 6.47248C12.1327 6.47228 12.2601 6.52492 12.3539 6.61878C12.4478 6.71264 12.5004 6.83999 12.5002 6.97273V13.9725C12.5002 14.2488 12.2763 14.4727 12 14.4727C11.7237 14.4727 11.4997 14.2488 11.4997 13.9725V6.97273C11.4995 6.83999 11.5522 6.71264 11.646 6.61878C11.7399 6.52492 11.8673 6.47228 12 6.47248Z"/>
<path fill-rule="evenodd" clip-rule="evenodd" d="M12 2.99998C16.9627 2.99998 21 7.03798 21 12.0007C21 16.9635 16.9627 21.0007 12 21.0007C7.03725 21.0007 3 16.9635 3 12.0007C3 7.03798 7.03725 2.99998 12 2.99998ZM12 20.0002C16.4107 20.0002 20.0002 16.4115 20.0002 12C20.0002 7.58848 16.4115 3.99973 12 3.99973C7.5885 3.99973 3.99975 7.58848 3.99975 12C3.99975 16.4115 7.5885 20.0002 12 20.0002Z"/>
</svg>
