<svg  viewBox="0 0 24 24"  xmlns="http://www.w3.org/2000/svg">
<path d="M21.8535 5.14648C21.7598 5.05273 21.6323 5 21.5 5L5.4729 5.00763L4.9917 2.40918C4.94775 2.17187 4.74121 2 4.5 2H2.5C2.22363 2 2 2.22363 2 2.5C2 2.77637 2.22363 3 2.5 3H4.08398L6.48163 15.9482C6.48151 15.9492 6.48151 15.9501 6.48138 15.9512L5.65613 18.0349C4.71716 18.1992 4 19.015 4 20C4 21.103 4.89746 22 6.00098 22C7.10303 22 8 21.103 8 20C8 19.6345 7.89429 19.2961 7.72247 19.001H16.2777C16.1058 19.2961 16 19.6345 16 20C16 21.103 16.8975 22 18.0005 22C19.103 22 20 21.103 20 20C20 18.897 19.103 18 18.0005 18C17.9972 18 17.9941 18.001 17.9908 18.001H6.74512L7.35431 16.4631L21.5513 14.9976C21.8062 14.9712 22 14.7563 22 14.5V5.5C22 5.36719 21.9473 5.24023 21.8535 5.14648ZM17.9957 19.001H18.0053C18.5543 19.0038 19 19.4504 19 20C19 20.5513 18.5518 21 18.0005 21C17.4487 21 17 20.5513 17 20C17 19.4504 17.4462 19.0038 17.9957 19.001ZM7 20C7 20.5513 6.55176 21 6.00098 21C5.44922 21 5 20.5513 5 20C5 19.4487 5.44922 19 6.00098 19C6.55176 19 7 19.4487 7 20ZM21 14.0488L7.40704 15.452L5.65808 6.00751L21 6V14.0488ZM10.7075 11.4893C10.7075 11.7656 10.9312 11.9893 11.2075 11.9893H11.9019C12.2698 13.2628 13.1473 13.9893 14.4033 13.9893C15.0005 13.9893 15.6025 13.6978 16.0137 13.21C16.1914 12.999 16.1646 12.6836 15.9536 12.5054C15.7412 12.3262 15.4263 12.3535 15.249 12.5654C15.0254 12.8311 14.709 12.9893 14.4033 12.9893C13.6191 12.9893 13.1956 12.5439 12.9651 11.9893H13.8779C14.1543 11.9893 14.3779 11.7656 14.3779 11.4893C14.3779 11.2129 14.1543 10.9893 13.8779 10.9893H12.7336C12.7174 10.8131 12.7075 10.6418 12.7075 10.4897C12.7075 10.3373 12.7175 10.1658 12.7338 9.98926H14.5337C14.8101 9.98926 15.0337 9.76562 15.0337 9.48926C15.0337 9.21289 14.8101 8.98926 14.5337 8.98926H12.9668C13.1987 8.43463 13.6249 7.98926 14.4136 7.98926C14.7485 7.98926 15.1226 8.23047 15.3286 8.45459C15.5161 8.65918 15.8325 8.67139 16.0352 8.48438C16.2383 8.29736 16.252 7.98096 16.0649 7.77783C15.7144 7.39648 15.0967 6.98926 14.4136 6.98926C13.1767 6.98926 12.2897 7.72894 11.9119 8.98926H11.2075C10.9312 8.98926 10.7075 9.21289 10.7075 9.48926C10.7075 9.76562 10.9312 9.98926 11.2075 9.98926H11.7386C11.7251 10.1536 11.7075 10.3144 11.7075 10.4897C11.7075 10.6653 11.7247 10.8253 11.7374 10.9893H11.2075C10.9312 10.9893 10.7075 11.2129 10.7075 11.4893Z" />
</svg>
