<svg  viewBox="0 0 24 24"  xmlns="http://www.w3.org/2000/svg">
<path fill-rule="evenodd" clip-rule="evenodd" d="M10.0396 5.49902C10.0396 7.42871 8.46924 8.99902 6.53955 8.99902C4.60986 8.99902 3.03955 7.42871 3.03955 5.49902C3.03955 3.56934 4.60986 1.99902 6.53955 1.99902C7.93079 1.99902 9.12518 2.82129 9.68903 4H11.502C11.7783 4 12.002 4.22363 12.002 4.5C12.002 4.77637 11.7783 5 11.502 5H9.98907C9.99138 5.01594 9.99372 5.03187 9.99605 5.0478C10.0178 5.19623 10.0396 5.34469 10.0396 5.49902ZM8.52777 4C8.07098 3.39587 7.35358 2.99902 6.53955 2.99902C5.72552 2.99902 5.00812 3.39587 4.55133 4H8.52777ZM8.98907 5H4.09003C4.05719 5.16132 4.03955 5.32812 4.03955 5.49902C4.03955 6.87793 5.16113 7.99902 6.53955 7.99902C7.91797 7.99902 9.03955 6.87793 9.03955 5.49902C9.03955 5.32812 9.02191 5.16132 8.98907 5Z" />
<path fill-rule="evenodd" clip-rule="evenodd" d="M19 11H20.5C20.7764 11 21 11.2236 21 11.5V15.5C21 15.7764 20.7764 16 20.5 16H20V20.5C20 20.7764 19.7764 21 19.5 21H14.101C13.9592 21.3166 13.7269 21.5828 13.4219 21.7627C13.1587 21.9189 12.8643 21.998 12.5654 21.998C12.4243 21.998 12.2817 21.9805 12.1416 21.9443C11.7041 21.832 11.3369 21.5557 11.1074 21.168L10 19.4438V21.498C10 21.7744 9.77637 21.998 9.5 21.998C9.22363 21.998 9 21.7744 9 21.498V17.8869L6.46143 13.9346C6.3125 13.7021 6.37988 13.3926 6.6123 13.2432C6.84375 13.0928 7.15332 13.1611 7.30322 13.3936L11.9585 20.6426C12.062 20.8174 12.2119 20.9297 12.3906 20.9756C12.5693 21.0234 12.7549 20.9971 12.9131 20.9014C13.0728 20.8076 13.1855 20.6582 13.2314 20.4795C13.2773 20.3008 13.251 20.1143 13.1567 19.9551L8.00342 11.7666C7.75928 11.4131 7.22021 11 6.85693 11C5.83301 11 5 11.833 5 12.8574V21.498C5 21.7744 4.77637 21.998 4.5 21.998C4.22363 21.998 4 21.7744 4 21.498V12.8574C4 11.2822 5.28174 10 6.85693 10C7.69434 10 8.50049 10.7275 8.83789 11.2158L9.00409 11.4799C9.01526 11.2134 9.23077 11 9.5 11H11V7.5C11 7.22363 11.2236 7 11.5 7H18.5C18.7764 7 19 7.22363 19 7.5V11ZM18 8H12V11H18V8ZM14.2193 20H19V16H11.8491L14.0107 19.4346C14.1167 19.6141 14.1827 19.8053 14.2193 20ZM20 15V12H10V12.9727C10 12.9869 9.99635 13 9.9927 13.0131C9.99018 13.022 9.98767 13.031 9.98633 13.0405L11.2625 15.0681C11.3341 15.0285 11.4123 15 11.5 15H20Z" />
</svg>
