<svg  viewBox="0 0 24 24"  xmlns="http://www.w3.org/2000/svg">
<path fill-rule="evenodd" clip-rule="evenodd" d="M7.5857 17.718L7.67416 17.7328C7.84993 17.7786 7.98708 17.916 8.03248 18.0919C8.07787 18.2677 8.02438 18.4544 7.89273 18.5795L7.10898 19.3625H13.9662C14.2425 19.361 14.4665 19.585 14.4665 19.8613C14.4665 20.1375 14.2425 20.3615 13.9662 20.3615H7.10898L7.89273 21.1445C8.08815 21.3396 8.08849 21.6562 7.89348 21.8518C7.79997 21.946 7.67275 21.999 7.54001 21.9992C7.40726 21.9993 7.27994 21.9465 7.18623 21.8525L5.54748 20.216C5.35217 20.0204 5.35217 19.7036 5.54748 19.508L7.18623 17.8715C7.31163 17.7401 7.49839 17.687 7.67416 17.7328L7.5857 17.718ZM16.1457 15.7063C16.3408 15.5107 16.6575 15.5104 16.853 15.7055V15.707L18.4925 17.3435C18.6878 17.5391 18.6878 17.8559 18.4925 18.0515L16.853 19.688C16.6545 19.8637 16.3535 19.8543 16.1663 19.6667C15.9791 19.4791 15.9704 19.1781 16.1465 18.98L16.9302 18.197H10.073C9.7967 18.197 9.57273 17.973 9.57273 17.6968C9.57273 17.4205 9.7967 17.1965 10.073 17.1965H16.9302L16.1465 16.4135C15.951 16.2184 15.9506 15.9018 16.1457 15.7063ZM8.54298 2C9.82248 2 10.9332 2.46425 11.7552 3.344C12.7085 4.36325 13.2365 5.95025 13.133 7.48475L13.1232 7.62875C13.0692 8.4455 13.031 9.03575 12.7512 10.112C12.7339 10.1782 12.7033 10.2402 12.6612 10.2943C12.2682 10.7975 11.366 11.2925 10.6115 11.4628V12.209C11.3105 12.2872 11.9985 12.4434 12.6627 12.6748C12.6707 12.6355 12.68 12.5964 12.6905 12.5578C12.9477 11.681 14.4462 10.958 15.734 10.8005V10.1083C15.4407 9.665 15.2217 9.041 15.1355 8.19725C14.8085 7.71875 14.6795 7.07225 14.678 7.0655C14.5145 6.19925 14.7035 5.3855 15.209 4.77575C15.7205 4.17043 16.4729 3.8214 17.2655 3.82175C17.4822 3.82175 17.621 3.842 17.7215 3.85625C17.8362 3.872 17.8355 3.872 17.9765 3.81425C18.1617 3.73775 18.5345 3.662 18.9537 4.01C19.6565 4.5935 20.1222 6.107 19.9122 7.12475C19.8552 7.45625 19.7037 7.7975 19.4877 8.10275C19.4562 8.63 19.3317 9.48425 18.8855 10.1375V10.8005C20.174 10.958 21.6717 11.6803 21.9267 12.5518C22.0535 12.9965 21.977 13.499 21.968 13.5545C21.916 13.8194 21.6632 13.9952 21.3968 13.9519C21.1304 13.9085 20.9464 13.6617 20.981 13.394C20.9945 13.3078 21.0207 13.0183 20.9675 12.8278C20.9105 12.6313 20.4455 12.3035 19.8312 12.0643C19.3677 12.9403 18.3972 13.5193 17.3112 13.5193C16.2252 13.5193 15.2547 12.9395 14.7912 12.0643C14.177 12.3035 13.7112 12.6335 13.6527 12.833C13.6332 12.902 13.625 12.989 13.6227 13.0783C14.312 13.4315 14.8527 13.8763 15.0027 14.3938C15.1677 14.9878 15.0657 15.707 15.0537 15.7873C15.0269 15.9638 14.908 16.1127 14.7417 16.1778C14.5753 16.2429 14.3869 16.2143 14.2474 16.1028C14.1079 15.9913 14.0384 15.8138 14.0652 15.6373C14.0885 15.4768 14.1305 14.99 14.0405 14.666C13.9347 14.303 12.968 13.79 11.8812 13.4713C11.3727 14.4973 10.0625 15.2008 8.54748 15.2008C7.03248 15.2008 5.72298 14.498 5.21448 13.472C4.12773 13.7908 3.16023 14.3053 3.05373 14.672C2.96523 14.9923 3.00873 15.4888 3.03123 15.6365C3.05815 15.8131 2.98883 15.9906 2.84938 16.1022C2.70992 16.2138 2.52151 16.2426 2.35513 16.1776C2.18874 16.1126 2.06965 15.9638 2.04273 15.7873C2.03073 15.707 1.92798 14.9878 2.09223 14.399C2.44548 13.1833 4.92423 12.365 6.48423 12.2083V11.4658C5.72823 11.3 4.83573 10.8088 4.43298 10.2943C4.38941 10.2387 4.35821 10.1746 4.34148 10.106C4.06098 8.96675 4.02273 8.4035 3.96573 7.55075L3.96123 7.48475C3.85773 5.94725 4.38498 4.35875 5.33748 3.34025C6.15723 2.4635 7.26573 2 8.54298 2ZM7.48323 11.411V12.6808C7.48323 12.957 7.25926 13.181 6.98298 13.181C6.73406 13.1834 6.48565 13.2039 6.23973 13.2425C6.65673 13.8118 7.54623 14.201 8.54673 14.201C9.54648 14.2018 10.4367 13.8125 10.8545 13.2433C10.598 13.205 10.346 13.1818 10.1112 13.1818C9.83523 13.1818 9.61098 12.9575 9.61098 12.6815V11.42C9.29073 11.6383 8.95098 11.7613 8.61123 11.7613C8.18823 11.7613 7.81323 11.6293 7.48323 11.411ZM17.8857 10.9115C17.6937 10.9745 17.489 11.0075 17.2737 11.0075C17.0937 11.0075 16.9122 10.9775 16.7337 10.9175V11.2685C16.7337 11.5448 16.5098 11.7688 16.2335 11.7688C16.0895 11.7688 15.944 11.78 15.7992 11.7988C16.1262 12.2383 16.6872 12.5188 17.3097 12.5188C17.9322 12.518 18.494 12.2383 18.8202 11.798C18.6755 11.7793 18.53 11.768 18.386 11.768C18.11 11.768 17.8857 11.5438 17.8857 11.2678V10.9115ZM9.89298 6.0215C9.26823 6.59075 8.49423 6.8285 7.84323 7.02875C7.05123 7.2725 6.80448 7.38725 6.80448 7.6295C6.80523 8.7215 7.42548 10.76 8.61198 10.76C8.97423 10.76 9.44073 10.3475 9.77148 9.7325C10.2485 8.846 10.5177 7.4075 9.89298 6.0215ZM8.54148 2.99975C7.53423 2.99975 6.70173 3.344 6.06648 4.02275C5.29698 4.84625 4.87248 6.14675 4.95798 7.41725L4.96248 7.48325C5.01648 8.2805 5.04948 8.774 5.28348 9.7505C5.53473 10.0145 6.04098 10.2905 6.48273 10.4308V10.2748C6.03573 9.47 5.80398 8.4725 5.80398 7.631C5.80398 6.611 6.73023 6.326 7.54848 6.07475C8.30823 5.84075 9.09423 5.59925 9.56148 4.88C9.65315 4.73818 9.81036 4.65238 9.97923 4.652C10.1486 4.6518 10.3053 4.73608 10.3977 4.87625C11.6667 6.79925 11.327 8.95025 10.6505 10.208C10.6377 10.2313 10.6227 10.2523 10.61 10.2755V10.4233C11.0517 10.2778 11.5655 10.0003 11.81 9.74825C12.0402 8.83475 12.0732 8.32325 12.1235 7.5635L12.1332 7.418C12.2195 6.14975 11.7935 4.85075 11.0232 4.0265C10.3865 3.3455 9.55173 2.99975 8.54148 2.99975ZM18.1955 6.72575C17.9645 6.79325 17.6817 6.8405 17.3007 6.8405C16.3625 6.8405 16.0992 7.1675 16.0925 7.36025L16.0926 7.37502C16.0954 7.59333 16.1527 10.007 17.2737 10.007C17.5467 10.007 17.7575 9.91925 17.9367 9.731C18.4512 9.19025 18.515 8.03525 18.497 7.673C18.5066 7.33222 18.4003 6.99825 18.1955 6.72575ZM18.2975 4.76225C17.9705 4.88825 17.7987 4.877 17.5797 4.8455C17.4972 4.8335 17.411 4.8215 17.2655 4.8215C16.7696 4.81992 16.2989 5.03636 15.9777 5.41325C15.77 5.66375 15.653 5.96975 15.6267 6.31325C16.0137 6.0005 16.5747 5.84075 17.3007 5.84075C17.696 5.84075 17.921 5.7785 18.1557 5.678C18.3466 5.59641 18.568 5.64117 18.7122 5.7905C18.7778 5.85893 18.8406 5.92999 18.9005 6.0035C18.7715 5.41325 18.4805 4.87925 18.2975 4.76225Z" "/>
</svg>
