<svg  viewBox="0 0 24 24"  xmlns="http://www.w3.org/2000/svg">
<path fill-rule="evenodd" clip-rule="evenodd" d="M15.7978 12.8624C16.0205 13.0889 16.2314 13.3282 16.4316 13.5557L16.6816 13.8379C16.8027 13.9727 16.8418 14.1622 16.7842 14.334C16.4951 15.1836 15.9482 15.8409 15.2441 16.1846C14.8984 16.3536 14.5254 16.4385 14.1475 16.4385C13.8633 16.4385 13.5762 16.3897 13.2969 16.293C10.3218 15.2559 8.40429 13.4034 7.43358 10.629C7.21093 9.99028 7.29589 9.23833 7.66747 8.56352C8.0869 7.8018 8.80907 7.23833 9.59911 7.05473C9.76317 7.01665 9.93505 7.06352 10.0561 7.17973L11.3218 8.38286C11.7676 8.81352 11.8174 9.3897 11.4556 9.92681C11.2433 10.2413 11.1268 10.4093 10.9443 10.6562C11.4104 11.4065 12.3338 12.4165 13.2462 12.8634L13.3945 12.7452C14.458 11.918 14.8857 11.9366 15.7978 12.8624ZM13.625 15.3487C14.0273 15.4883 14.4355 15.4659 14.8057 15.2862C15.1973 15.0948 15.5205 14.7403 15.7334 14.2754L15.6807 14.2159C15.6693 14.203 15.6579 14.19 15.6464 14.177C15.4683 13.9748 15.2822 13.7636 15.085 13.5635C14.8262 13.3008 14.6621 13.1602 14.5967 13.1456C14.498 13.1543 14.1347 13.4362 14.0093 13.5335L14.0058 13.5362L13.6671 13.8058C13.5749 13.8922 13.4643 13.9541 13.3369 13.9541C13.2803 13.9541 13.2226 13.9444 13.166 13.9239C11.7661 13.4151 10.4253 11.8428 9.9204 10.8897C9.84728 10.7517 9.85174 10.5979 9.90789 10.4643C9.92168 10.3917 9.94732 10.3209 9.99462 10.2579C10.2676 9.8936 10.3725 9.74419 10.6265 9.36821C10.735 9.20668 10.6951 9.16829 10.6286 9.10425L9.58007 8.10649C9.15868 8.27446 8.7827 8.61235 8.54345 9.04595C8.30858 9.47173 8.24852 9.92876 8.37792 10.2989C9.24071 12.7666 10.9575 14.419 13.625 15.3487Z" />
<path fill-rule="evenodd" clip-rule="evenodd" d="M10.3569 4.17975C12.4683 3.72955 14.6865 4.15827 16.4433 5.35455C19.0303 7.11725 20.2451 9.71393 19.958 12.8663C19.7666 14.9708 18.7842 16.7618 17.0391 18.1876C15.5742 19.3839 13.8555 19.9932 11.9307 19.9971H11.9155C10.5264 19.9971 9.16259 19.6026 7.85839 18.8233L5.07714 19.8067C4.89403 19.8692 4.68749 19.8243 4.55175 19.6827L4.48095 19.6094C4.36571 19.4913 4.24804 19.251 4.28124 19.0889L4.30517 18.9571C4.3286 18.8174 4.35497 18.6788 4.40233 18.5469C4.48409 18.32 4.56993 18.0939 4.65575 17.8678C4.66373 17.8468 4.67171 17.8258 4.67968 17.8048L4.68721 17.7849C4.85951 17.3316 5.03187 16.8781 5.17528 16.4151C5.21435 16.2881 5.1997 16.0958 5.15966 16.0264C3.56054 13.2667 3.61132 10.4698 5.31005 7.71393C6.43603 5.88873 8.22802 4.63385 10.3569 4.17975ZM16.4062 17.4122C17.9355 16.1631 18.7959 14.6026 18.9619 12.7755C19.2187 9.96686 18.1816 7.74909 15.8808 6.18073C14.3476 5.13678 12.4131 4.76276 10.5654 5.15729C8.70653 5.55377 7.14208 6.6485 6.16161 8.23932C4.6494 10.6905 4.60497 13.0743 6.02538 15.5255C6.23778 15.8936 6.23095 16.3858 6.13036 16.711C5.97899 17.2003 5.79687 17.6798 5.61474 18.1592C5.55663 18.3116 5.49853 18.4639 5.44189 18.6173L7.71142 17.8145C7.77685 17.7911 7.84374 17.7803 7.90917 17.7872C7.91942 17.7862 7.92919 17.7862 7.93944 17.7862C8.03026 17.7862 8.12206 17.8106 8.20507 17.8624C9.40282 18.6153 10.6514 18.9971 11.916 18.9971H11.9287C13.6172 18.9932 15.124 18.46 16.4062 17.4122Z" />
</svg>
