<svg  viewBox="0 0 24 24"  xmlns="http://www.w3.org/2000/svg">
<path d="M12.4468 15.5053C12.314 15.5055 12.1867 15.4528 12.0928 15.359C11.9989 15.2651 11.9463 15.1377 11.9465 15.005V8.50325C11.9465 8.22697 12.1705 8.003 12.4468 8.003C12.723 8.003 12.947 8.22697 12.947 8.50325V15.005C12.9472 15.1377 12.8946 15.2651 12.8007 15.359C12.7068 15.4528 12.5795 15.5055 12.4468 15.5053Z" "/>
<path d="M13.1968 18.0035C13.1968 18.4177 12.861 18.7535 12.4468 18.7535C12.0325 18.7535 11.6968 18.4177 11.6968 18.0035C11.6968 17.5893 12.0325 17.2535 12.4468 17.2535C12.861 17.2535 13.1968 17.5893 13.1968 18.0035Z" "/>
<path fill-rule="evenodd" clip-rule="evenodd" d="M22.8928 22.0018H2L12.4475 2L22.8928 22.0018ZM3.64325 21.0058H21.2503L12.4468 4.15025L3.64325 21.0058Z" "/>
</svg>
