<svg  viewBox="0 0 24 24"  xmlns="http://www.w3.org/2000/svg">
<path d="M16.8433 12.3189C18.2297 11.701 19.459 10.2646 19.6221 10.0666C19.6331 10.0534 19.6341 10.0355 19.6434 10.0214C19.6771 10.001 19.7131 9.98505 19.7424 9.95589L21.8156 7.88861C22.0113 7.69344 22.0113 7.37728 21.8156 7.18211C21.6199 6.98695 21.3029 6.98695 21.1073 7.18211L19.087 9.19658C18.8035 9.12778 18.33 9.02557 17.762 8.94152C17.8811 8.8515 18.0027 8.76466 18.1096 8.65805C19.1672 7.60318 19.5788 5.63921 19.6811 5.0564L21.4526 3.28906C21.6483 3.0939 21.6483 2.77773 21.4526 2.58257C21.2569 2.3874 20.94 2.3874 20.7443 2.58257L18.9727 4.34991C18.3882 4.45188 16.419 4.86221 15.3624 5.91745C15.2432 6.03637 15.1439 6.17006 15.0454 6.30387C14.9576 5.68459 14.8436 5.16789 14.7712 4.87405L16.7976 2.85287C16.9933 2.65771 16.9933 2.34154 16.7976 2.14637C16.6019 1.95121 16.2849 1.95121 16.0893 2.14637L14.0161 4.21414C13.9763 4.25379 13.9503 4.30063 13.9269 4.3482C13.9198 4.35332 13.9105 4.35344 13.9036 4.35905C13.7048 4.52165 12.2639 5.74899 11.6449 7.13222C11.614 7.11478 11.5898 7.08807 11.5556 7.07721C11.3942 7.02793 11.2181 7.06014 11.087 7.16796C10.8896 7.32934 9.47022 8.53839 8.84334 9.9082C8.81913 9.89527 8.80127 9.87356 8.7751 9.86465C8.61661 9.81001 8.4454 9.83879 8.3143 9.93735C8.10688 10.0913 6.61269 11.2502 5.96209 12.6103C5.82169 12.5799 5.67396 12.601 5.55729 12.6872C5.30097 12.878 3.05369 14.5984 2.90106 16.3446C2.7795 17.7331 3.16522 19.4271 3.3039 19.9782L2.14675 21.132C1.95108 21.3272 1.95108 21.6433 2.14675 21.8385C2.24459 21.9361 2.37275 21.9849 2.50092 21.9849C2.62908 21.9849 2.75725 21.9361 2.85508 21.8385L4.04867 20.6481C4.55228 20.7538 5.71212 20.9681 6.85264 20.9681C7.07472 20.9681 7.29485 20.9598 7.51009 20.9412C9.24667 20.79 11.0566 18.6495 11.2572 18.406C11.3638 18.2772 11.399 18.1035 11.3501 17.9435C11.3421 17.9175 11.321 17.8997 11.309 17.8758C12.6653 17.241 13.855 15.8511 14.0152 15.6567C14.1218 15.5274 14.157 15.3537 14.1081 15.1936C14.0983 15.1618 14.0736 15.1396 14.058 15.1108C15.4313 14.4858 16.6435 13.0691 16.8054 12.8726C16.9121 12.7438 16.9473 12.5701 16.8984 12.4101C16.8876 12.3751 16.861 12.3501 16.8433 12.3189ZM16.0707 6.62394C16.7027 5.99307 17.8356 5.63299 18.5733 5.4549C18.3953 6.19068 18.0342 7.32068 17.4012 7.95155C16.7702 8.58096 15.74 8.82296 15.1021 8.91518C15.2048 8.22576 15.4719 7.22066 16.0707 6.62394ZM12.3588 8.18526C12.4312 7.36654 13.2628 6.35852 13.9271 5.69349C14.0641 6.38145 14.2138 7.38996 14.1384 8.25259C14.0768 8.95458 13.4323 9.79696 12.8162 10.4421C12.7091 10.5447 12.6134 10.6391 12.5215 10.7342C12.4063 10.0424 12.2837 9.04118 12.3588 8.18526ZM9.54311 10.9937C9.61453 10.175 10.4461 9.16743 11.1104 8.5024C11.2474 9.19085 11.3971 10.1989 11.3218 11.0615C11.2503 11.8773 10.3923 12.8839 9.70649 13.5484C9.59007 12.857 9.46778 11.8534 9.54311 10.9937ZM6.65599 13.6816C6.72838 12.8585 7.61575 11.8739 8.31038 11.2415C8.45029 11.9314 8.6078 12.9663 8.53051 13.845V13.8455C8.45811 14.6706 7.58151 15.6908 6.89079 16.3549C6.85459 16.177 6.81717 15.9768 6.78268 15.7636C6.76287 15.2784 6.70857 14.8032 6.64009 14.3804C6.63275 14.1411 6.63642 13.9052 6.65599 13.6816ZM4.13379 19.1047C3.98802 18.3875 3.82169 17.3136 3.89898 16.4315C3.97138 15.6084 4.85973 14.6237 5.55338 13.9919C5.69231 14.6803 5.8508 15.7142 5.77351 16.5954C5.70111 17.4205 4.82451 18.4407 4.13379 19.1047ZM7.42204 19.9459C6.56989 20.0225 5.57197 19.9015 4.8793 19.7859C5.57295 19.0945 6.61881 18.2294 7.44356 18.1577C8.29473 18.084 9.26623 18.2343 9.92956 18.3729C9.2633 19.0369 8.24679 19.8737 7.42204 19.9459ZM10.179 17.196C9.32885 17.2692 8.33093 17.1506 7.63728 17.036C8.33288 16.3446 9.37875 15.4795 10.2006 15.4078C11.0566 15.3341 12.0242 15.4839 12.6875 15.623C12.0203 16.287 11.0038 17.1238 10.179 17.196ZM12.9703 14.4125C12.1162 14.4871 11.1192 14.3671 10.4266 14.252C11.1212 13.5611 12.1671 12.6955 12.9918 12.6238C13.843 12.5501 14.8145 12.6994 15.4778 12.8395C14.8115 13.503 13.795 14.3403 12.9703 14.4125ZM15.786 11.607C14.927 11.6831 13.9203 11.5597 13.2256 11.4435C13.8919 10.7595 14.9006 9.90369 15.7185 9.83245C16.5794 9.75731 17.594 9.90613 18.2847 10.0437C17.6194 10.7058 16.6098 11.5348 15.786 11.607ZM21.4991 18.9871H20.4972C20.2204 18.9871 19.9963 19.2106 19.9963 19.4868C19.9963 19.7629 20.2204 19.9864 20.4972 19.9864H20.9982V20.7895C20.7594 20.9295 20.4527 21.0008 20.0829 21.0008C19.2039 21.0008 18.4887 20.3284 18.4887 19.5019C18.4887 18.6754 19.2039 18.003 20.0829 18.003C20.4297 18.003 20.7692 18.0547 20.9082 18.1289C21.1523 18.2587 21.456 18.1679 21.5862 17.924C21.7168 17.6805 21.6243 17.3775 21.3807 17.2477C20.9825 17.0355 20.3965 17.0038 20.0829 17.0038C18.6516 17.0038 17.4869 18.1245 17.4869 19.5019C17.4869 20.8793 18.6516 22 20.0829 22C20.7976 22 21.3851 21.8048 21.8283 21.4194C21.9374 21.3247 22 21.1871 22 21.0427V19.4868C22 19.2106 21.776 18.9871 21.4991 18.9871Z" "/>
</svg>
