<?xml version="1.0" encoding="utf-8"?>
<svg version="1.1" id="Ebene_1" xmlns="http://www.w3.org/2000/svg" xmlns:xlink="http://www.w3.org/1999/xlink" x="0px" y="0px"
	 viewBox="0 0 24 24" style="enable-background:new 0 0 24 24;" xml:space="preserve">
<style type="text/css">
</style>
<path class="st0" d="M20.9615479,11.309082c-0.0254517-0.0615234-0.0622559-0.1169434-0.1086426-0.163208l-5.9993896-5.9993896
	c-0.1953125-0.1953125-0.5117188-0.1953125-0.7070312,0s-0.1953125,0.5117188,0,0.7070312L19.2929688,11H3.5
	C3.2236328,11,3,11.2236328,3,11.5S3.2236328,12,3.5,12h15.7929688l-5.1464844,5.1464844
	c-0.1953125,0.1953125-0.1953125,0.5117188,0,0.7070312C14.2441406,17.9511719,14.3720703,18,14.5,18
	s0.2558594-0.0488281,0.3535156-0.1464844l5.9993896-5.9993896c0.0463867-0.0462646,0.0831909-0.1016846,0.1086426-0.163208
	C21.012085,11.5687256,21.012085,11.4312744,20.9615479,11.309082z"/>
</svg>
