<?xml version="1.0" encoding="UTF-8"?>
<svg xmlns="http://www.w3.org/2000/svg" version="1.1" viewBox="0 0 24 24">
  <g id="chatbot_test">
    <path fill-rule="evenodd" clip-rule="evenodd" d="M20,9h-1v-.5c0-1.378418-1.1210938-2.5-2.5-2.5h-4.5v-1.0004883c0-.0305786-.012146-.0571899-.017395-.0862427.5896606-.2021484,1.017395-.7559204,1.017395-1.413269,0-.8271484-.6728516-1.5-1.5-1.5s-1.5.6728516-1.5,1.5c0,.6573486.4277344,1.2111206,1.017395,1.413269-.005249.0290527-.017395.0556641-.017395.0862427v1.0004883h-4.5c-1.3789062,0-2.5,1.121582-2.5,2.5v.5h-1c-.5517578,0-1,.4487305-1,1v4c0,.5512695.4482422,1,1,1h1v1.5c0,1.378418,1.1210938,2.5,2.5,2.5h3.9980469l1.2851562.0043945,3.3984375,2.8774414c.0917969.0776367.2070312.1181641.3232422.1181641.0712891,0,.1435547-.0151367.2099609-.0463867.1767578-.0820312.2900391-.2587891.2900391-.4536133v-2.4951172h.5v-.0053711c1.3766479-.0026855,2.4951172-1.1227417,2.4951172-2.4995117v-1.5h1c.5517578,0,1-.4487305,1-1v-4c0-.5512695-.4482422-1-1-1ZM3.9990234,14h-.9990234v-4h1l-.0009766,4ZM11,3.5c0-.2758789.2246094-.5.5-.5s.5.2241211.5.5-.2246094.5-.5.5-.5-.2241211-.5-.5ZM18,10v6.5c0,.8271484-.6728516,1.5-1.5,1.5h-1v.0058594c-.2740479.0028076-.4951172.2243652-.4951172.4990234v1.9165039l-2.7148438-2.2983398c-.0898438-.0756836-.2041016-.1176758-.3212891-.1181641l-1.4667969-.0048828-.0019531.5v-.5h-4c-.8271484,0-1.5-.6728516-1.5-1.5v-8c0-.8271484.6728516-1.5,1.5-1.5h10c.8271484,0,1.5.6728516,1.5,1.5v1.5ZM19.9990234,14h-.9990234v-4h1l-.0009766,4ZM9.5,11c.2763672,0,.5-.2236328.5-.5v-1c0-.2763672-.2236328-.5-.5-.5s-.5.2236328-.5.5v1c0,.2763672.2236328.5.5.5ZM13.5,9c-.2763672,0-.5.2236328-.5.5v1c0,.2763672.2236328.5.5.5s.5-.2236328.5-.5v-1c0-.2763672-.2236328-.5-.5-.5ZM13.7246094,14.0532227c-.2470703-.1240234-.5478516-.0253906-.671875.222168-.1757812.3515625-.7802734.7246094-1.5527344.7246094-.7294922,0-1.3632812-.2875977-1.5410156-.6987305-.109375-.253418-.4023438-.3696289-.6582031-.2602539-.2529297.1098633-.3691406.4042969-.2597656.6577148.3427734.7905273,1.3076172,1.3012695,2.4589844,1.3012695,1.0800781,0,2.0634766-.5126953,2.4472656-1.2753906.1230469-.2470703.0234375-.5473633-.2226562-.6713867Z"/>
  </g>
</svg>
