<svg  viewBox="0 0 24 24"  xmlns="http://www.w3.org/2000/svg">
<path d="M10.4375 17.4653C10.6695 17.5994 10.8124 17.8471 10.8123 18.1151C10.8122 18.3832 10.6691 18.6307 10.4369 18.7646C10.2048 18.8985 9.9188 18.8984 9.68675 18.7643C9.45471 18.6302 9.31184 18.3825 9.31196 18.1145C9.31208 17.8465 9.45517 17.5989 9.68733 17.465C9.91949 17.3311 10.2055 17.3312 10.4375 17.4653Z" "/>
<path d="M18.3388 6.02706L16.6108 5.02956C16.456 4.9402 16.2654 4.94018 16.1106 5.02951C15.9558 5.11883 15.8605 5.28394 15.8605 5.46263C15.8605 5.64132 15.9558 5.80645 16.1105 5.89581L17.8385 6.89331C18.0757 7.01252 18.3646 6.92608 18.4974 6.69622C18.6301 6.46637 18.5605 6.17288 18.3388 6.02706Z" "/>
<path fill-rule="evenodd" clip-rule="evenodd" d="M20.9548 5.22981C21.4348 5.50436 21.7849 5.95978 21.9268 6.49431L21.9275 6.49506C22.0715 7.03206 21.9973 7.59231 21.7198 8.07381L14.279 20.9611C13.7038 21.9551 12.4326 22.296 11.4373 21.7231L6.25625 18.7726C5.7725 18.4928 5.42825 18.0443 5.28425 17.5073C5.14025 16.9703 5.21375 16.4101 5.492 15.9286L12.9328 3.04131C13.211 2.56056 13.6595 2.21706 14.1965 2.07231C14.7335 1.92756 15.2938 2.00181 15.7753 2.28006L20.9548 5.22981ZM12.365 6.02631L19.4165 10.0606L14.885 17.9101L7.83275 13.8758L12.365 6.02631ZM11.9368 20.8553C12.4536 21.1531 13.1139 20.9763 13.4128 20.4601L14.3848 18.7756L7.3325 14.7413L6.359 16.4281C6.21425 16.6778 6.17675 16.9688 6.251 17.2478C6.32525 17.5268 6.5045 17.7601 6.75425 17.9041L11.9368 20.8553ZM20.8528 7.57281L19.9168 9.19431L12.8653 5.16006L13.7998 3.54081C13.994 3.20716 14.3504 3.00139 14.7365 3.00006C14.924 3.00006 15.11 3.04956 15.278 3.14631L20.4575 6.09606C20.7073 6.24006 20.8865 6.47331 20.9608 6.75231C21.035 7.03131 20.9975 7.32306 20.8528 7.57281Z" "/>
<path d="M7.34 5.25231C4.9448 5.25479 3.00373 7.19586 3.00125 9.59106C3.0014 10.8458 3.54383 12.0391 4.49 12.8633C4.59018 12.9502 4.65163 13.0734 4.66078 13.2057C4.66993 13.338 4.62602 13.4685 4.53875 13.5683C4.45207 13.6691 4.32866 13.7309 4.19606 13.7401C4.06346 13.7493 3.93271 13.7049 3.833 13.6171C2.66825 12.6023 2 11.1353 2 9.59106C2 6.64656 4.3955 4.25181 7.33925 4.25181H8.99225L7.64075 2.84856C7.46769 2.64702 7.48202 2.34543 7.67341 2.16121C7.8648 1.97699 8.16671 1.97418 8.3615 2.15481L10.529 4.40556C10.7149 4.59915 10.7149 4.90496 10.529 5.09856L8.3615 7.35231C8.16649 7.53027 7.86685 7.52637 7.67654 7.34339C7.48624 7.16041 7.47058 6.86115 7.64075 6.65931L8.99375 5.25231H7.34Z" "/>
</svg>
