<svg  viewBox="0 0 24 24"  xmlns="http://www.w3.org/2000/svg">
<path fill-rule="evenodd" clip-rule="evenodd" d="M12.0043 17.003C9.5225 17.003 7.50425 14.9848 7.50425 12.503C7.50425 10.0213 9.5225 8.003 12.0043 8.003C14.486 8.003 16.5043 10.0213 16.5043 12.503C16.5043 14.9848 14.486 17.003 12.0043 17.003ZM12.0043 9.00275C10.0745 9.00275 8.504 10.5733 8.504 12.503C8.504 14.4328 10.0745 16.0033 12.0043 16.0033C13.934 16.0033 15.5045 14.4328 15.5045 12.503C15.5045 10.5733 13.934 9.00275 12.0043 9.00275Z" />
<path fill-rule="evenodd" clip-rule="evenodd" d="M20.7155 18.995H3.2825C2.57525 18.995 2 18.4198 2 17.714L2.00675 8.2775C2.00675 7.57175 2.582 6.9965 3.28925 6.9965H7.772L8.38175 5.3285C8.45364 5.1312 8.64126 4.99992 8.85125 5H15.1783C15.3883 5 15.5758 5.13125 15.6478 5.3285L16.2575 6.9965H20.7223C21.4303 6.9965 22.0055 7.571 22.0055 8.2775L21.9988 17.7133C21.9988 18.419 21.4235 18.9943 20.7163 18.9943L20.7155 18.995ZM3.2885 7.99625C3.21378 7.99605 3.14205 8.0256 3.08914 8.07836C3.03623 8.13113 3.0065 8.20278 3.0065 8.2775L2.99975 17.7133C2.99975 17.8685 3.1265 17.9945 3.2825 17.9945H20.7155C20.871 17.9945 20.9971 17.8687 20.9975 17.7133L21.0043 8.27675C21.0039 8.20196 20.9738 8.13039 20.9206 8.07779C20.8674 8.02518 20.7955 7.99585 20.7208 7.99625H15.9065C15.6965 7.99633 15.5089 7.86506 15.437 7.66775L14.8273 5.99975H9.2L8.59025 7.66775C8.51836 7.86506 8.33074 7.99633 8.12075 7.99625H3.2885Z" />
</svg>
