<svg  viewBox="0 0 24 24"  xmlns="http://www.w3.org/2000/svg">
<path fill-rule="evenodd" clip-rule="evenodd" d="M14.7656 9.00562C15.1406 9.00562 15.4258 8.80249 15.6211 8.39624C15.8164 7.98999 15.9375 7.52124 15.9844 6.98999H19.5C19.6406 6.98999 19.7578 6.94312 19.8516 6.84937C19.9453 6.75562 19.9922 6.63843 19.9922 6.4978C19.9922 6.35718 19.9453 6.23999 19.8516 6.14624C19.7578 6.05249 19.6406 6.00562 19.5 6.00562H15.9844C15.9375 5.47437 15.8164 5.00562 15.6211 4.59937C15.4258 4.19312 15.1406 3.98999 14.7656 3.98999H12.2578C11.8828 3.98999 11.5938 4.19312 11.3906 4.59937C11.1875 5.00562 11.0625 5.47437 11.0156 6.00562H4.5C4.35938 6.00562 4.24219 6.05249 4.14844 6.14624C4.05469 6.23999 4.00781 6.35718 4.00781 6.4978C4.00781 6.63843 4.05469 6.75562 4.14844 6.84937C4.24219 6.94312 4.35938 6.98999 4.5 6.98999H11.0156C11.0625 7.52124 11.1875 7.98999 11.3906 8.39624C11.5938 8.80249 11.8828 9.00562 12.2578 9.00562H14.7656ZM14.683 7.9978H12.3281C12.2188 7.8103 12.1367 7.60327 12.082 7.37671C12.0273 7.15015 12 6.91968 12 6.6853V6.3103C12 6.07593 12.0273 5.84546 12.082 5.6189C12.1367 5.39233 12.2188 5.17749 12.3281 4.97437V4.9978H14.6953C14.7891 5.1853 14.8633 5.39233 14.918 5.6189C14.9727 5.84546 15 6.07593 15 6.3103V6.6853C15 6.91968 14.9727 7.15015 14.918 7.37671C14.8815 7.52775 14.8329 7.67358 14.7721 7.81421L14.683 7.9978ZM9.77344 15.0056C10.1328 15.0056 10.4102 14.8025 10.6055 14.3962C10.8008 13.99 10.9219 13.5212 10.9688 12.99H19.5C19.6406 12.99 19.7578 12.9431 19.8516 12.8494C19.9453 12.7556 19.9922 12.6384 19.9922 12.4978C19.9922 12.3572 19.9453 12.24 19.8516 12.1462C19.7578 12.0525 19.6406 12.0056 19.5 12.0056H10.9688C10.9219 11.4744 10.8008 11.0056 10.6055 10.5994C10.4102 10.1931 10.1328 9.98999 9.77344 9.98999H7.26562C6.89062 9.98999 6.60156 10.1931 6.39844 10.5994C6.19531 11.0056 6.07031 11.4744 6.02344 12.0056H4.5C4.35938 12.0056 4.24219 12.0525 4.14844 12.1462C4.05469 12.24 4.00781 12.3572 4.00781 12.4978C4.00781 12.6384 4.05469 12.7556 4.14844 12.8494C4.24219 12.9431 4.35938 12.99 4.5 12.99H6.02344C6.07031 13.5212 6.19531 13.99 6.39844 14.3962C6.60156 14.8025 6.89062 15.0056 7.26562 15.0056H9.77344ZM9.67969 14.0212V13.9978H7.33594C7.22656 13.8103 7.14062 13.6033 7.07812 13.3767C7.01562 13.1501 6.98438 12.9197 6.98438 12.6853C6.98438 12.6541 6.98828 12.6228 6.99609 12.5916C7.00391 12.5603 7.00781 12.5291 7.00781 12.4978C7.00781 12.4666 7.00391 12.4353 6.99609 12.4041C6.98828 12.3728 6.98438 12.3416 6.98438 12.3103C6.98438 12.0759 7.01562 11.8455 7.07812 11.6189C7.14062 11.3923 7.22656 11.1775 7.33594 10.9744V10.9978H9.67969C9.78906 11.1853 9.87109 11.3923 9.92578 11.6189C9.98047 11.8455 10.0078 12.0759 10.0078 12.3103V12.6853C10.0078 12.9197 9.98047 13.1501 9.92578 13.3767C9.87109 13.6033 9.78906 13.8181 9.67969 14.0212ZM16.7578 21.0056C17.1328 21.0056 17.418 20.8025 17.6133 20.3962C17.8086 19.99 17.9297 19.5212 17.9766 18.99H19.5C19.6406 18.99 19.7578 18.9431 19.8516 18.8494C19.9453 18.7556 19.9922 18.6384 19.9922 18.4978C19.9922 18.3572 19.9453 18.24 19.8516 18.1462C19.7578 18.0525 19.6406 18.0056 19.5 18.0056H17.9766C17.9297 17.4744 17.8086 17.0056 17.6133 16.5994C17.418 16.1931 17.1328 15.99 16.7578 15.99H14.25C13.8906 15.99 13.6094 16.1931 13.4062 16.5994C13.2031 17.0056 13.0781 17.4744 13.0312 18.0056H4.5C4.35938 18.0056 4.24219 18.0525 4.14844 18.1462C4.05469 18.24 4.00781 18.3572 4.00781 18.4978C4.00781 18.6384 4.05469 18.7556 4.14844 18.8494C4.24219 18.9431 4.35938 18.99 4.5 18.99H13.0312C13.0781 19.5212 13.2031 19.99 13.4062 20.3962C13.6094 20.8025 13.8906 21.0056 14.25 21.0056H16.7578ZM16.6875 20.0212V19.9978H14.3203C14.2266 19.8103 14.1484 19.6033 14.0859 19.3767C14.0234 19.1501 13.9922 18.9197 13.9922 18.6853V18.3103C13.9922 18.0759 14.0234 17.8455 14.0859 17.6189C14.1276 17.4679 14.1797 17.322 14.2422 17.1814L14.332 16.9978H16.6875C16.7812 17.1853 16.8594 17.3923 16.9219 17.6189C16.9844 17.8455 17.0156 18.0759 17.0156 18.3103C17.0156 18.3416 17.0117 18.3728 17.0039 18.4041C16.9961 18.4353 16.9922 18.4666 16.9922 18.4978C16.9922 18.5291 16.9961 18.5603 17.0039 18.5916C17.0117 18.6228 17.0156 18.6541 17.0156 18.6853C17.0156 18.9197 16.9844 19.1501 16.9219 19.3767C16.8594 19.6033 16.7812 19.8181 16.6875 20.0212Z" "/>
</svg>
