<svg  viewBox="0 0 24 24"  xmlns="http://www.w3.org/2000/svg">
<path d="M19.4955 12.0017C19.4955 11.7246 19.7202 11.5 19.9973 11.5C20.2744 11.5 20.499 11.7246 20.499 12.0017C20.499 12.2787 20.2744 12.5034 19.9973 12.5034C19.7202 12.5034 19.4955 12.2787 19.4955 12.0017Z" "/>
<path fill-rule="evenodd" clip-rule="evenodd" d="M4.16455 3.99854H19.873C21.0654 3.99854 22 4.95068 22 6.1665V17.835C22 19.0508 21.0654 20.0029 19.873 20.0029H4.20166C2.98779 20.0029 2 19.0303 2 17.835V6.1665C2 4.97119 2.97119 3.99854 4.16455 3.99854ZM3 17.835C3 18.4017 3.44781 18.8675 4.00732 18.9637V5.03046C3.44263 5.11072 3 5.57837 3 6.1665V17.835ZM5.00732 19.0029H17.9971V4.99854H5.00732V19.0029ZM19.873 19.0029C20.5049 19.0029 21 18.4897 21 17.835V6.1665C21 5.51172 20.5049 4.99854 19.873 4.99854H18.9971V19.0029H19.873Z" "/>
</svg>
