<svg width="12" height="12" viewBox="0 0 12 12" xmlns="http://www.w3.org/2000/svg">
<path d="M10.9766 4.84863C10.9165 4.65918 10.7495 4.52344 10.5518 4.50244L7.60352 4.19678L6.46484 1.31641C6.38965 1.12549 6.20508 1 6 1C5.79492 1 5.61084 1.125 5.53516 1.31592L4.39356 4.19775L1.44873 4.50244C1.25049 4.52295 1.08399 4.65869 1.02344 4.84814C0.96338 5.03809 1.021 5.24512 1.17041 5.37598L3.40479 7.33301L2.52002 10.3599C2.4624 10.5571 2.53125 10.7695 2.69385 10.8955C2.85645 11.0215 3.0791 11.0337 3.25586 10.9297L6 9.29492L8.74414 10.9297C8.82324 10.9766 8.91162 11 9 11C9.1084 11 9.21631 10.9648 9.30615 10.8955C9.46875 10.7695 9.5376 10.5571 9.47998 10.3599L8.59375 7.33105L10.8291 5.37646C10.979 5.24561 11.0366 5.03809 10.9766 4.84863ZM7.69531 6.78857C7.54883 6.91699 7.48975 7.11865 7.54443 7.30566L8.16309 9.41943L6.25586 8.2832C6.17725 8.23633 6.08862 8.21289 6 8.21289V2.86011L6.78516 4.84619C6.85352 5.02002 7.0127 5.14062 7.19824 5.16016L9.30713 5.37891L7.69531 6.78857Z" fill="#222222"/>
</svg>
