<svg  viewBox="0 0 24 24"  xmlns="http://www.w3.org/2000/svg">
<path d="M15.5 14C15.2236 14 15 14.2237 15 14.5C15 14.7764 15.2236 15 15.5 15C16.8789 15 18 13.6543 18 12C18 10.3457 16.8789 9.00005 15.5 9.00005C15.2236 9.00005 15 9.22368 15 9.50005C15 9.77641 15.2236 10 15.5 10C16.3271 10 17 10.897 17 12C17 13.1031 16.3271 14 15.5 14ZM15.5 6.00005C15.2236 6.00005 15 6.22368 15 6.50005C15 6.77641 15.2236 7.00005 15.5 7.00005C17.9814 7.00005 20 9.24321 20 12C20 14.7569 17.9814 17 15.5 17C15.2236 17 15 17.2237 15 17.5C15 17.7764 15.2236 18 15.5 18C18.5322 18 21 15.3086 21 12C21 8.69145 18.5322 6.00005 15.5 6.00005ZM12.7358 4.05913C12.5737 3.97221 12.376 3.98198 12.2227 4.08403L6.34863 8.00005H3.5C3.22363 8.00005 3 8.22368 3 8.50005V15.5C3 15.7764 3.22363 16 3.5 16H6.34863L12.2227 19.9161C12.3062 19.9717 12.4028 20 12.5 20C12.5811 20 12.6621 19.9805 12.7358 19.941C12.8984 19.8541 13 19.6846 13 19.5V4.50005C13 4.31548 12.8984 4.14604 12.7358 4.05913ZM6 15H4V9.00005H6V15ZM12 18.566L7 15.2325V8.76762L12 5.43413V18.566Z" />
</svg>
