<svg viewBox="0 0 24 24" xmlns="http://www.w3.org/2000/svg">
<path d="M12.8711 13.1748C12.7354 13.0146 12.5142 12.9561 12.3174 13.0283C12.1201 13.1006 11.9893 13.2881 11.9893 13.498V17.498C11.9893 17.7744 12.2129 17.998 12.4893 17.998C12.7656 17.998 12.9893 17.7744 12.9893 17.498V14.8633L14.1074 16.1855C14.2979 16.4102 14.6807 16.4102 14.8711 16.1855L15.9893 14.8633V17.4482C15.9893 17.7246 16.2129 17.9482 16.4893 17.9482C16.7656 17.9482 16.9893 17.7246 16.9893 17.4482V13.498C16.9893 13.2881 16.8584 13.1006 16.6611 13.0283C16.4629 12.9551 16.2432 13.0146 16.1074 13.1748L14.4893 15.0879L12.8711 13.1748ZM8.95697 18.0078C10.1196 18.0078 10.7783 17.2441 10.7783 16.3125C10.7783 15.3252 10.1269 14.7578 9.22308 14.7578C8.75385 14.7578 8.3476 14.9326 8.05365 15.1572C8.05365 14.4539 8.48871 13.9833 9.17523 13.9833C9.4588 13.9833 9.72131 14.0081 9.93921 14.0814L9.94153 14.0739C9.98865 14.0886 10.0361 14.1034 10.088 14.1034C10.3641 14.1034 10.5878 13.8796 10.5878 13.6036C10.5878 13.379 10.437 13.1961 10.2332 13.1331L10.236 13.124C9.91333 13.0065 9.55615 12.9365 9.20209 12.9365C8.01166 12.9365 6.97504 13.7139 6.97504 15.6055C6.97504 16.9502 7.57709 18.0078 8.95697 18.0078ZM8.97113 15.7598C9.45453 15.7598 9.75531 15.8018 9.75531 16.334C9.75531 16.6539 9.4472 16.9833 8.96381 16.9833C8.45416 16.9833 8.05365 16.6345 8.05365 16.1875C8.25677 15.9629 8.61371 15.7598 8.97113 15.7598ZM9.5 11.001H14.5C14.7762 11.001 15 10.7771 15 10.501V8.50098C15 8.22479 14.7762 8.00098 14.5 8.00098H9.5C9.22388 8.00098 9 8.22479 9 8.50098V10.501C9 10.7771 9.22388 11.001 9.5 11.001ZM10 9.00098H14V10.001H10V9.00098ZM20.5 3.00098H3.5C3.22388 3.00098 3 3.22479 3 3.50098V6.50098C3 6.7771 3.22388 7.00098 3.5 7.00098H4V20.501C4 20.7771 4.22388 21.001 4.5 21.001H19.5C19.7762 21.001 20 20.7771 20 20.501V7.00098H20.5C20.7762 7.00098 21 6.7771 21 6.50098V3.50098C21 3.22479 20.7762 3.00098 20.5 3.00098ZM19 20.001H5V7.00098H19V20.001ZM20 6.00098H19.5H4.5H4V4.00098H20V6.00098Z" />
</svg>
