<svg  viewBox="0 0 24 24"  xmlns="http://www.w3.org/2000/svg">
<path d="M15.4985 6H8.49854C8.22217 6 7.99854 5.77637 7.99854 5.5C7.99854 5.22363 8.22217 5 8.49854 5H15.4985C15.7749 5 15.9985 5.22363 15.9985 5.5C15.9985 5.77637 15.7749 6 15.4985 6Z" />
<path d="M8.49854 8H15.4985C15.7749 8 15.9985 7.77637 15.9985 7.5C15.9985 7.22363 15.7749 7 15.4985 7H8.49854C8.22217 7 7.99854 7.22363 7.99854 7.5C7.99854 7.77637 8.22217 8 8.49854 8Z" />
<path d="M12 10H8.49854C8.22217 10 7.99854 9.77637 7.99854 9.5C7.99854 9.22363 8.22217 9 8.49854 9H12C12.2764 9 12.5 9.22363 12.5 9.5C12.5 9.77637 12.2764 10 12 10Z" />
<path fill-rule="evenodd" clip-rule="evenodd" d="M5.5 2H18.5C18.7764 2 19 2.22363 19 2.5V18.5C19 18.7764 18.7764 19 18.5 19H16.5V21.5C16.5 21.6963 16.3853 21.8745 16.2061 21.9556C16.0278 22.0366 15.8174 22.0059 15.6704 21.876L14.4609 20.8149L13.3423 21.8647C13.2476 21.9531 13.1245 22 13 22C12.9326 22 12.8652 21.9863 12.8013 21.959C12.6187 21.8799 12.5 21.6992 12.5 21.5V19H5.5C5.22363 19 5 18.7764 5 18.5V2.5C5 2.22363 5.22363 2 5.5 2ZM14.7793 19.7637L15.5 20.396V17.0552C15.1892 17.1772 14.8536 17.25 14.5 17.25C14.1464 17.25 13.8108 17.1772 13.5 17.0552V20.3452L14.1074 19.7749C14.2949 19.5991 14.5864 19.5942 14.7793 19.7637ZM12.75 14.5C12.75 15.4648 13.5352 16.25 14.5 16.25C15.4648 16.25 16.25 15.4648 16.25 14.5C16.25 13.5352 15.4648 12.75 14.5 12.75C13.5352 12.75 12.75 13.5352 12.75 14.5ZM16.5 18H18V3H6V18H12.5V16.4375C12.5 16.4276 12.5026 16.4186 12.5052 16.4096C12.5072 16.4024 12.5092 16.3953 12.51 16.3877C12.0419 15.8945 11.75 15.2322 11.75 14.5C11.75 12.9834 12.9834 11.75 14.5 11.75C16.0166 11.75 17.25 12.9834 17.25 14.5C17.25 15.2322 16.9581 15.8945 16.49 16.3877C16.4908 16.3953 16.4928 16.4024 16.4948 16.4096C16.4974 16.4186 16.5 16.4276 16.5 16.4375V18Z" />
</svg>
