<svg  viewBox="0 0 24 24"  xmlns="http://www.w3.org/2000/svg">
<path d="M11.6804 9.55129L13.8784 7.75373C13.9301 7.81326 13.9703 7.87949 14.0269 7.93597L16.0635 9.97165C16.1257 10.0339 16.1976 10.0802 16.2635 10.1366L14.4611 12.33L15.1715 13.0399L17.1123 10.678C17.4979 10.8386 17.9139 10.9221 18.3438 10.9221C18.3999 10.9221 18.4565 10.9212 18.5132 10.9182C19.3848 10.8734 20.2163 10.4986 20.8535 9.86137C21.0488 9.6662 21.0488 9.35001 20.8535 9.15484L14.8535 3.15907C14.6582 2.96389 14.3418 2.96389 14.1465 3.15907C13.5088 3.79631 13.1318 4.62483 13.085 5.49141C13.0579 5.98721 13.1511 6.46411 13.3378 6.90459L10.9698 8.84122L11.6804 9.55129ZM14.5332 4.25205L19.7593 9.47493C19.3696 9.73841 18.9165 9.8965 18.4624 9.91992C17.8218 9.95115 17.2251 9.71889 16.7705 9.26511L14.7339 7.22944C14.1523 6.64879 14.0591 5.99301 14.083 5.54606C14.1079 5.09423 14.2676 4.64142 14.5332 4.25205ZM3.8501 3.14638C3.65479 2.95121 3.33838 2.95121 3.14307 3.14638C2.94775 3.34156 2.94775 3.65774 3.14307 3.85291L9.41077 10.1162L8.36584 10.9708C7.98004 10.7334 7.56805 10.5206 7.12256 10.3962C5.98877 10.078 4.95996 10.3405 4.14648 11.1534C3.95117 11.3486 3.95117 11.6648 4.14648 11.86L7.79297 15.5039L3.14648 20.1471C2.95117 20.3423 2.95117 20.6584 3.14648 20.8536C3.24414 20.9512 3.37207 21 3.5 21C3.62793 21 3.75586 20.9512 3.85352 20.8536L8.5 16.2104L12.1465 19.8543C12.2441 19.9519 12.3721 20.0007 12.5 20.0007C12.6279 20.0007 12.7559 19.9519 12.8535 19.8543C13.9838 18.7249 14.0229 17.2126 13.0437 15.6294L13.8932 14.5955L20.1431 20.8409C20.2407 20.9385 20.3687 20.9873 20.4966 20.9873C20.6245 20.9873 20.7524 20.9385 20.8501 20.8409C21.0454 20.6458 21.0454 20.3296 20.8501 20.1344L3.8501 3.14638ZM12.4614 18.7555L5.24414 11.5438C5.71338 11.2471 6.24414 11.1895 6.85303 11.3584C7.57227 11.5594 8.35693 12.0698 9.12207 12.8349L11.1704 14.8822C11.8911 15.6024 13.3521 17.3307 12.4614 18.7555ZM12.4343 14.7967C12.2613 14.5898 12.0845 14.3826 11.8774 14.1757L9.8291 12.1283C9.65259 11.9518 9.4408 11.7614 9.21143 11.5705L10.1214 10.8263L13.1829 13.8856L12.4343 14.7967Z" />
</svg>
