<svg  viewBox="0 0 24 24"  xmlns="http://www.w3.org/2000/svg">
<path fill-rule="evenodd" clip-rule="evenodd" d="M19.5005 2C19.6067 2 19.7094 2.03383 19.7941 2.09547L19.854 2.14682L21.854 4.14534C22.0485 4.33994 22.0485 4.65481 21.854 4.84941C21.7606 4.94394 21.6331 4.99716 21.5 4.99716C21.3935 4.99716 21.2906 4.9631 21.2059 4.90108L21.146 4.84941L20.01 3.71353L20.0094 4.18153L20.0017 4.62927C19.9565 6.1612 19.694 7.3251 18.313 8.16532C17.6409 8.57737 16.8669 8.79426 16.078 8.7916L15.9156 8.7827L15.594 8.74273C15.4082 9.26929 15.1355 9.74778 14.7436 10.0836L14.591 10.2027L18.703 12.0247L18.727 12.0447C18.7694 12.0671 18.8081 12.0957 18.842 12.1293L18.9101 12.2108L18.959 12.283C18.9769 12.3244 18.9891 12.3679 18.9953 12.4123L19 12.4795V18.4641C19.0001 18.6344 18.9132 18.7909 18.7733 18.882L18.699 18.9218L11.699 21.9585C11.5958 22.0033 11.4814 22.0118 11.3739 21.9841L11.295 21.9565L2.29501 17.9216C2.14114 17.8526 2.03431 17.7119 2.00692 17.5496L2 17.4668V11.4792C2 11.4332 2.00616 11.3875 2.01865 11.3435L2.04201 11.2788L2.11201 11.183C2.14164 11.1441 2.17689 11.1099 2.21649 11.0815L2.29013 11.0344L2.30201 11.0255L9.30201 8.03368C9.40425 7.98978 9.51746 7.98147 9.62381 8.00864L9.70201 8.03567L12.758 9.38996C13.273 9.60836 13.678 9.61933 13.988 9.41688C14.25 9.24735 14.449 8.93022 14.601 8.54129C13.916 8.32588 13.292 8.00177 12.806 7.6238L12.761 7.57294L12.7 7.53704C12.0659 6.99332 11.8375 6.11382 12.1272 5.3315C12.417 4.54917 13.1637 4.02885 14 4.02667C15.0529 4.02667 15.918 4.84174 15.9945 5.87254L16 6.0212C15.9979 6.61133 15.9453 7.19521 15.843 7.7714C16.525 7.82769 17.2074 7.66784 17.793 7.31465C18.7405 6.7379 18.9561 5.98593 18.9993 4.60341L19.0076 4.16928L19.009 3.69458L17.854 4.84742C17.7275 4.97337 17.5433 5.02246 17.3707 4.9762C17.1981 4.92995 17.0633 4.79537 17.0172 4.62317C16.9787 4.47967 17.0067 4.32821 17.0903 4.20882L17.147 4.14135L19.147 2.14682C19.2405 2.05285 19.3678 2 19.5005 2ZM18 13.2394L12 15.8243V20.7408L18 18.138V13.2394ZM3.00001 12.2521V17.1447L11 20.7309V15.8183L3.00001 12.2521ZM6.33801 10.3852L3.74701 11.4932L11.504 14.9507L13.785 13.9684L6.33801 10.3852ZM9.49601 9.03493L7.55601 9.86466L15 13.4458L17.254 12.4745L12.3315 10.294L12.313 10.2875L12.299 10.2775L9.49601 9.03493ZM13.1078 5.57023C12.8991 5.98137 13.0001 6.48152 13.352 6.78012L13.382 6.81801L13.42 6.83696C13.8563 7.16355 14.3448 7.41409 14.865 7.57793C14.9394 7.16307 14.9812 6.72842 14.9949 6.31892L15 6.01721C14.998 5.55543 14.6797 5.15602 14.23 5.05004C13.7804 4.94406 13.3164 5.1591 13.1078 5.57023Z" "/>
</svg>
