<svg width="24" height="24" viewBox="0 0 24 24"  xmlns="http://www.w3.org/2000/svg">
<path d="M11 6.90311C11 6.51018 11.4324 6.2708 11.7654 6.47936L13.522 7.5795C13.8351 7.77562 13.8347 8.23195 13.5212 8.4275L11.7646 9.52311C11.4316 9.73083 11 9.49137 11 9.09886V6.90311Z"/>
<path d="M5.26539 13.2294C4.93238 13.0208 4.5 13.2602 4.5 13.6531V15.3489C4.5 15.7414 4.93157 15.9808 5.26461 15.7731L6.62121 14.927C6.93472 14.7314 6.93515 14.2751 6.62199 14.079L5.26539 13.2294Z"/>
<path fill-rule="evenodd" clip-rule="evenodd" d="M22.913 16.218L21 13.418V2.5C21 2.36739 20.9473 2.24021 20.8535 2.14645C20.7598 2.05268 20.6326 2 20.5 2H3.49998C3.36737 2 3.24019 2.05268 3.14642 2.14645C3.05266 2.24021 2.99998 2.36739 2.99998 2.5V7H2.71398C1.76998 7 1.00098 7.787 1.00098 8.754V20.3C1.00098 21.253 1.75298 21.999 2.71398 21.999H8.28798C9.24798 21.999 10.001 21.253 10.001 20.3V17H22.5C22.591 17 22.6802 16.9752 22.7582 16.9283C22.8361 16.8813 22.8997 16.814 22.9422 16.7335C22.9847 16.653 23.0044 16.5625 22.9993 16.4717C22.9941 16.3808 22.9643 16.2931 22.913 16.218ZM9.00098 20.3C9.00086 20.3929 8.98223 20.4849 8.94619 20.5706C8.91014 20.6563 8.85739 20.7339 8.79102 20.799C8.72465 20.864 8.64598 20.9152 8.55962 20.9496C8.47325 20.9839 8.38091 21.0007 8.28798 20.999H2.71398C2.62105 21.0007 2.5287 20.9839 2.44234 20.9496C2.35597 20.9152 2.2773 20.864 2.21093 20.799C2.14456 20.7339 2.09181 20.6563 2.05577 20.5706C2.01972 20.4849 2.00109 20.3929 2.00098 20.3V20H9.00098V20.3ZM9.00098 18.999H2.00098V17.1966C2.20675 17.4658 2.48884 17.6849 2.84061 17.8003L2.85061 17.8035C3.07126 17.8733 3.34862 17.9064 3.56108 17.9266C3.80058 17.9493 4.0687 17.9646 4.32088 17.9751C4.8267 17.9961 5.30916 17.9994 5.45284 18L5.53973 18L5.54347 18C5.68752 17.9995 6.17126 17.9962 6.67768 17.9758C6.93017 17.9657 7.1982 17.9509 7.43713 17.9289C7.64893 17.9093 7.92491 17.8774 8.1434 17.8098L8.1514 17.8073L8.15937 17.8047C8.50982 17.6898 8.79397 17.4717 9.00098 17.1995V18.999ZM2.00098 11.8031V9.999H9.00098V11.8072C8.79441 11.5353 8.5091 11.3145 8.15172 11.2017C7.92916 11.13 7.65216 11.0962 7.44265 11.0757C7.20228 11.0522 6.93311 11.0365 6.68012 11.0257C6.17261 11.004 5.68802 11.0006 5.5437 11L5.45666 11L5.45288 11C5.3091 11.0005 4.82624 11.0038 4.32063 11.0242C4.06855 11.0343 3.8009 11.0491 3.56224 11.0712C3.35063 11.0907 3.07496 11.1227 2.85659 11.1902L2.84651 11.1934L2.83649 11.1967C2.48774 11.3127 2.20652 11.5332 2.00098 11.8031ZM9.00098 8.999H2.00098V8.753C2.00098 8.344 2.32798 7.999 2.71398 7.999H8.28798C8.38253 7.99991 8.47598 8.01945 8.56298 8.05648C8.64999 8.09351 8.72884 8.14731 8.79505 8.21482C8.86126 8.28233 8.91353 8.36222 8.94886 8.44993C8.98419 8.53764 9.0019 8.63145 9.00098 8.726V8.999ZM7.03065 6.999H3.99998V3H20V13H10.001V11.9505C10.1492 11.9584 10.2991 11.9649 10.4459 11.9704C11.1123 11.9953 11.7493 11.9993 11.9388 12L12.053 12L12.0564 12C12.2465 11.9994 12.8854 11.9955 13.5529 11.9713C13.8859 11.9593 14.2351 11.9418 14.5432 11.9163C14.8263 11.8928 15.1538 11.8569 15.3987 11.7887L15.4061 11.7866L15.4135 11.7845C16.1086 11.5793 16.6324 11.0096 16.8031 10.3071C16.9061 9.89473 16.9505 9.34477 16.9728 8.9359C16.9964 8.50195 16.9996 8.12857 17 8.03305L17 8.02859L17 7.9625L17 7.95863C16.9995 7.82704 16.996 7.45158 16.972 7.02659C16.9494 6.62593 16.9049 6.09736 16.802 5.69398C16.6329 5.00925 16.1158 4.42524 15.4065 4.22412C15.1573 4.15162 14.8287 4.11372 14.5481 4.08904C14.2387 4.06182 13.8886 4.0433 13.555 4.03048C12.8866 4.00481 12.2469 4.00069 12.0566 4.00002L12.0531 4.00001L11.9422 4L11.9388 4.00001C11.7491 4.00065 11.1114 4.00452 10.445 4.0287C10.1125 4.04076 9.76385 4.05818 9.45611 4.08375C9.17325 4.10724 8.84616 4.14314 8.60135 4.21131L8.59203 4.21391L8.58276 4.21668C7.88583 4.42538 7.36889 5.00963 7.1945 5.68838L7.1912 5.7016C7.09746 6.08821 7.05364 6.5975 7.03065 6.999ZM8.03241 6.999H8.28798C9.23198 6.999 10.001 7.774 10.001 8.727V10.949C10.7962 10.9933 11.711 10.9992 11.9423 11L12.0531 11C12.425 10.9988 14.5582 10.9847 15.1304 10.8254C15.4714 10.7247 15.7431 10.4388 15.8321 10.0681C15.9881 9.44846 15.9992 8.20323 16 8.0285L16 7.96242C15.9991 7.71668 15.9865 6.53774 15.8321 5.93723C15.7431 5.57181 15.4714 5.28058 15.1304 5.18525C14.5582 5.01624 12.425 5.00133 12.0531 5.00001L11.9422 5.00001C11.5709 5.00125 9.44181 5.01531 8.86963 5.17465C8.53361 5.27527 8.25693 5.57181 8.16304 5.93723C8.09517 6.21716 8.05554 6.62187 8.03241 6.999ZM10.001 16V14H20.187L21.553 16H10.001ZM8.37402 16.2234C8.49104 15.707 8.4994 14.6694 8.5 14.5237L8.5 14.4687C8.4993 14.2639 8.48984 13.2814 8.37402 12.781C8.30731 12.4765 8.10351 12.2338 7.84779 12.1544C7.41866 12.0135 5.81876 12.0011 5.53977 12L5.45659 12C5.17814 12.001 3.58134 12.0128 3.1522 12.1455C2.90019 12.2294 2.69267 12.4765 2.62226 12.781C2.50869 13.3015 2.50058 14.3395 2.5 14.4851V14.5194C2.50058 14.6655 2.50869 15.7067 2.62226 16.219C2.69267 16.5235 2.89648 16.7662 3.1522 16.85C3.58472 16.9869 5.17874 16.9989 5.45667 17L5.53977 17C5.81876 16.999 7.41866 16.9872 7.84779 16.8545C8.10351 16.7706 8.30731 16.5323 8.37402 16.2234Z"/>
</svg>
