<svg width="24" height="24" viewBox="0 0 24 24" xmlns="http://www.w3.org/2000/svg">
<path d="M18 7C14.9937 7 13.2627 9.39453 11.5889 11.71C9.99414 13.916 8.48779 16 6 16C3.79443 16 2 14.2061 2 12C2 9.79395 3.79443 8 6 8C7.45557 8 9.02734 8.87598 10.1025 10.2861C10.269 10.5068 10.5825 10.5498 10.8032 10.3809C11.0229 10.2139 11.0649 9.90039 10.8975 9.68066C9.6377 8.02734 7.76074 7 6 7C3.24316 7 1 9.24316 1 12C1 14.7568 3.24316 17 6 17C8.99902 17 10.7275 14.6084 12.3994 12.2959C13.9966 10.0869 15.5049 8 18 8C20.2056 8 22 9.79395 22 12C22 14.2061 20.2056 16 18 16C16.5472 16 15.2485 14.823 14.5956 14H16.5C16.7764 14 17 13.7764 17 13.5C17 13.2236 16.7764 13 16.5 13H13.5C13.2236 13 13 13.2236 13 13.5V16.5C13 16.7764 13.2236 17 13.5 17C13.7764 17 14 16.7764 14 16.5V14.842C14.8451 15.826 16.2991 17 18 17C20.7568 17 23 14.7568 23 12C23 9.24316 20.7568 7 18 7Z"/>
</svg>
