<svg  viewBox="0 0 24 24"  xmlns="http://www.w3.org/2000/svg">
<path d="M4.85325 15.3184L6.82775 17.2929V5.49991C6.82775 5.22391 7.05175 4.99991 7.32775 4.99991C7.60375 4.99991 7.82775 5.22391 7.82775 5.49991V17.2931L9.80335 15.3182C9.99735 15.1232 10.3154 15.1232 10.5104 15.3182C10.7053 15.5132 10.7053 15.8302 10.5104 16.0252L7.68715 18.8474C7.6852 18.8494 7.68324 18.8514 7.68125 18.8534C7.65602 18.8786 7.62875 18.9006 7.59996 18.9193C7.52161 18.9703 7.42812 18.9999 7.32775 18.9999C7.22738 18.9999 7.13389 18.9703 7.05554 18.9193C7.02676 18.9006 6.99948 18.8786 6.97425 18.8534L4.14625 16.0254C3.95125 15.8304 3.95125 15.5134 4.14625 15.3184C4.34125 15.1234 4.65825 15.1234 4.85325 15.3184Z" "/>
<path d="M12 5.50001C12 5.77615 12.2239 6.00001 12.5 6.00001H19.5C19.7761 6.00001 20 5.77615 20 5.50001C20 5.22387 19.7761 5.00001 19.5 5.00001H12.5C12.2239 5.00001 12 5.22387 12 5.50001Z" "/>
<path d="M12 9.83334C12 10.1095 12.2239 10.3333 12.5 10.3333H17.4535C17.7296 10.3333 17.9535 10.1095 17.9535 9.83334C17.9535 9.5572 17.7296 9.33334 17.4535 9.33334H12.5C12.2239 9.33334 12 9.5572 12 9.83334Z" "/>
<path d="M12.5 14.6667C12.2239 14.6667 12 14.4428 12 14.1667C12 13.8905 12.2239 13.6667 12.5 13.6667H15.5C15.7761 13.6667 16 13.8905 16 14.1667C16 14.4428 15.7761 14.6667 15.5 14.6667H12.5Z" "/>
<path d="M12 18.5C12 18.7762 12.2239 19 12.5 19H13.8256C14.1017 19 14.3256 18.7762 14.3256 18.5C14.3256 18.2239 14.1017 18 13.8256 18H12.5C12.2239 18 12 18.2239 12 18.5Z" "/>
</svg>
