<svg  viewBox="0 0 24 24"  xmlns="http://www.w3.org/2000/svg">
<path fill-rule="evenodd" clip-rule="evenodd" d="M6.14141 5.30027C5.90801 5.33054 5.67522 5.32694 5.44573 5.26633C5.02184 5.15421 4.75695 4.88358 4.64745 4.45993C4.5982 4.27036 4.58892 4.07718 4.6021 3.88248C4.62163 3.60618 4.65191 3.33164 4.73925 3.06681C4.8427 2.7515 5.00652 2.47727 5.28014 2.27866C5.4829 2.13108 5.71239 2.05063 5.95873 2.01944C6.23772 1.98435 6.51403 1.99094 6.78252 2.08786C6.99316 2.16379 7.16656 2.28946 7.29522 2.47458C7.29952 2.48095 7.30442 2.48683 7.31027 2.49386C7.3138 2.49809 7.31766 2.50274 7.32195 2.50815L7.32951 2.48995C7.33247 2.48296 7.33516 2.47659 7.33752 2.47037C7.42602 2.22049 7.60753 2.08426 7.87334 2.06986C7.9067 2.068 7.94044 2.06815 7.97393 2.06831L8.0017 2.06839C8.536 2.06803 9.07006 2.06803 9.60406 2.06803H9.67065L9.60131 2.60984L9.60852 2.61201L9.61242 2.61313L9.61772 2.59963C9.6237 2.58437 9.62966 2.56915 9.63616 2.55411C9.70244 2.39628 9.7882 2.25315 9.93944 2.16135C10.0447 2.09745 10.1605 2.06986 10.2811 2.06955C10.7403 2.06815 11.1997 2.06824 11.6589 2.06834L12.0121 2.06839C12.018 2.06839 12.0238 2.06909 12.0307 2.06991L12.0442 2.07139C12.0493 2.1995 12.0265 2.32126 11.9929 2.44217C11.9968 2.44486 12.001 2.44816 12.0046 2.45121C12.0112 2.44375 12.0176 2.43609 12.024 2.42842C12.0374 2.4123 12.0508 2.3962 12.0658 2.38218C12.3268 2.1392 12.6436 2.03116 12.9925 2.00687C13.2505 1.98856 13.5049 2.00596 13.7468 2.1077C14.1205 2.26548 14.3212 2.55918 14.3962 2.94828C14.4376 3.16129 14.428 3.37485 14.4083 3.58939C14.3801 3.89176 14.3273 4.18815 14.1985 4.46598C13.9667 4.96579 13.5718 5.23935 13.0276 5.30295C12.7726 5.33298 12.5192 5.32425 12.2734 5.2421C11.887 5.11277 11.6533 4.8422 11.5555 4.4498C11.5015 4.23258 11.5012 4.01267 11.5198 3.79123C11.543 3.51468 11.5814 3.24137 11.681 2.98038C11.7011 2.92838 11.7238 2.87736 11.7479 2.82317C11.7611 2.79348 11.7751 2.76218 11.7889 2.72989C11.6614 2.81266 11.5303 2.8295 11.395 2.8292C11.3504 2.82906 11.3057 2.82918 11.2611 2.8293C11.1834 2.82951 11.1056 2.82971 11.0278 2.82859C10.9912 2.82798 10.9762 2.83634 10.9714 2.87687C10.9282 3.26469 10.8843 3.65244 10.8405 4.04019C10.7966 4.4278 10.7527 4.81541 10.7095 5.2031C10.7038 5.25223 10.6867 5.27085 10.6384 5.27536L10.6124 5.27769C10.4545 5.29179 10.2968 5.30589 10.1404 5.26609C9.96581 5.22141 9.85003 5.10019 9.84014 4.92106C9.83367 4.7941 9.84806 4.6652 9.86227 4.53796L9.86504 4.51304C9.90708 4.14084 9.95094 3.76889 9.9948 3.39695L9.99596 3.38713C10.0164 3.21339 10.037 3.03897 10.0573 2.86521C10.0581 2.85928 10.0579 2.85337 10.0576 2.84615C10.0575 2.842 10.0573 2.83741 10.0573 2.83213L10.0408 2.83111C10.0303 2.83041 10.0203 2.82975 10.0102 2.82975L9.79846 2.82975C9.60515 2.82985 9.41194 2.82994 9.21856 2.82798C9.16814 2.82737 9.15136 2.84086 9.14562 2.89158C9.1023 3.28689 9.05738 3.68216 9.01248 4.07729L8.95697 4.56423C8.93229 4.77898 8.90762 4.99364 8.88524 5.20847C8.88012 5.25498 8.86211 5.27237 8.8189 5.27384C8.77954 5.27541 8.74014 5.27801 8.70075 5.2806C8.61949 5.28596 8.53826 5.29131 8.45745 5.28769C8.14184 5.27359 7.97741 5.08188 8.0125 4.76865C8.05577 4.37897 8.10156 3.98975 8.14737 3.60045L8.14768 3.59774C8.16656 3.43733 8.18552 3.27617 8.20421 3.1157C8.21075 3.05976 8.21707 3.00361 8.2235 2.94643L8.23632 2.83304H7.46532L7.46507 2.84268C7.46482 2.8488 7.4646 2.85402 7.46563 2.85886C7.53252 3.12076 7.51903 3.38504 7.49145 3.65024C7.45873 3.96409 7.39483 4.26889 7.24602 4.55057C7.01055 4.99515 6.63494 5.23606 6.14141 5.30027ZM12.7861 2.84031C12.6832 2.91709 12.6193 3.02207 12.5728 3.13877C12.4657 3.4058 12.4468 3.68778 12.4279 3.99405C12.4291 4.00723 12.4302 4.0222 12.4314 4.03843C12.4346 4.08133 12.4384 4.13307 12.4471 4.184C12.493 4.45334 12.685 4.59171 12.9532 4.54996C13.1287 4.52268 13.2463 4.41379 13.3193 4.26047C13.4803 3.92179 13.5115 3.55906 13.495 3.19065C13.4899 3.07999 13.4534 2.97495 13.3801 2.88828C13.2443 2.72745 12.9658 2.70591 12.7861 2.84031ZM5.96532 2.78959C5.81774 2.85111 5.7304 2.97196 5.67315 3.11326C5.54442 3.42948 5.51531 3.76249 5.52465 4.09971C5.52703 4.20017 5.55553 4.29734 5.61162 4.38346C5.7376 4.57785 6.04992 4.61661 6.2467 4.46268C6.36162 4.37265 6.42553 4.24936 6.47204 4.11588C6.5584 3.86716 6.57793 3.6074 6.59533 3.31186C6.59351 3.29763 6.59201 3.2804 6.59034 3.26113C6.58623 3.21384 6.58105 3.15421 6.56743 3.09647C6.50085 2.80698 6.2398 2.67527 5.96532 2.78959Z" "/>
<path fill-rule="evenodd" clip-rule="evenodd" d="M17.999 21H21.5C21.7764 21 22 21.2236 22 21.5C22 21.7764 21.7764 22 21.5 22H4.5097C4.50802 22 4.50647 22.0005 4.50492 22.001C4.50333 22.0015 4.50173 22.002 4.5 22.002C4.49827 22.002 4.49667 22.0015 4.49508 22.001C4.49353 22.0005 4.49198 22 4.4903 22H2.5C2.22363 22 2 21.7764 2 21.5C2 21.2236 2.22363 21 2.5 21H4V6.49805C4 6.22168 4.22363 5.99805 4.5 5.99805H14.5C14.7764 5.99805 15 6.22168 15 6.49805V10.502C15 10.7783 14.7764 11.002 14.5 11.002C14.2236 11.002 14 10.7783 14 10.502V6.99805H5V21H7V18.5C7 18.2236 7.22363 18 7.5 18H11.5C11.7764 18 12 18.2236 12 18.5V21H16.999V19.5C16.999 19.2236 17.2227 19 17.4992 19H19.25C20.1992 19 21.002 18.1587 21.002 17.1626C21.002 16.479 20.6455 15.8594 20.0703 15.5449C19.833 15.415 19.7422 15.1196 19.8652 14.8784C19.9512 14.7104 19.9971 14.5195 19.9971 14.3262C19.9971 13.6465 19.4209 13.1123 18.7979 13.1787C18.665 13.1963 18.5264 13.1548 18.4209 13.0679C18.3154 12.981 18.251 12.8545 18.2402 12.7183C18.2119 12.3198 17.8984 12.0073 17.5273 12.0073C17.1582 12.0073 16.8457 12.3174 16.8135 12.7129C16.793 12.98 16.5576 13.1978 16.2959 13.1729C15.6309 13.1982 15.1611 13.6899 15.1611 14.3262C15.1611 14.5195 15.207 14.7104 15.293 14.8784C15.4189 15.124 15.3213 15.4253 15.0762 15.5513C15.0059 15.5878 14.9312 15.601 14.8568 15.6022C14.3309 15.9292 14.002 16.5128 14.002 17.1626C14.002 18.1797 14.7715 19.0073 15.7178 19.0073C15.9941 19.0073 16.2178 19.231 16.2178 19.5073C16.2178 19.7837 15.9941 20.0073 15.7178 20.0073H15.4971C15.4375 20.0073 15.3809 19.9971 15.3281 19.978C14.0146 19.7798 13.002 18.5928 13.002 17.1626C13.002 16.2137 13.4733 15.3598 14.2219 14.8397C14.1823 14.6722 14.1611 14.4996 14.1611 14.3262C14.1611 13.2563 14.918 12.3662 15.9062 12.1992C16.1416 11.5049 16.7871 11.0073 17.5273 11.0073C18.2637 11.0073 18.9033 11.4971 19.1426 12.1841C20.1836 12.3013 20.9971 13.2173 20.9971 14.3262C20.9971 14.5239 20.9707 14.7207 20.9189 14.9102C21.5957 15.438 22.002 16.2661 22.002 17.1626C22.002 18.7271 20.7676 20 19.25 20H17.999V21ZM8 19V21H11V19H8Z" "/>
<path d="M12 10.125C12.3452 10.125 12.625 9.84518 12.625 9.5C12.625 9.15482 12.3452 8.875 12 8.875C11.6548 8.875 11.375 9.15482 11.375 9.5C11.375 9.84518 11.6548 10.125 12 10.125Z" "/>
<path d="M10.125 9.5C10.125 9.84518 9.84518 10.125 9.5 10.125C9.15482 10.125 8.875 9.84518 8.875 9.5C8.875 9.15482 9.15482 8.875 9.5 8.875C9.84518 8.875 10.125 9.15482 10.125 9.5Z" "/>
<path d="M7 10.125C7.34518 10.125 7.625 9.84518 7.625 9.5C7.625 9.15482 7.34518 8.875 7 8.875C6.65482 8.875 6.375 9.15482 6.375 9.5C6.375 9.84518 6.65482 10.125 7 10.125Z" "/>
<path d="M12.625 11.5C12.625 11.8452 12.3452 12.125 12 12.125C11.6548 12.125 11.375 11.8452 11.375 11.5C11.375 11.1548 11.6548 10.875 12 10.875C12.3452 10.875 12.625 11.1548 12.625 11.5Z" "/>
<path d="M9.5 12.125C9.84518 12.125 10.125 11.8452 10.125 11.5C10.125 11.1548 9.84518 10.875 9.5 10.875C9.15482 10.875 8.875 11.1548 8.875 11.5C8.875 11.8452 9.15482 12.125 9.5 12.125Z" "/>
<path d="M7.625 11.5C7.625 11.8452 7.34518 12.125 7 12.125C6.65482 12.125 6.375 11.8452 6.375 11.5C6.375 11.1548 6.65482 10.875 7 10.875C7.34518 10.875 7.625 11.1548 7.625 11.5Z" "/>
<path d="M12 14.125C12.3452 14.125 12.625 13.8452 12.625 13.5C12.625 13.1548 12.3452 12.875 12 12.875C11.6548 12.875 11.375 13.1548 11.375 13.5C11.375 13.8452 11.6548 14.125 12 14.125Z" "/>
<path d="M10.125 13.5C10.125 13.8452 9.84518 14.125 9.5 14.125C9.15482 14.125 8.875 13.8452 8.875 13.5C8.875 13.1548 9.15482 12.875 9.5 12.875C9.84518 12.875 10.125 13.1548 10.125 13.5Z" "/>
<path d="M7 14.125C7.34518 14.125 7.625 13.8452 7.625 13.5C7.625 13.1548 7.34518 12.875 7 12.875C6.65482 12.875 6.375 13.1548 6.375 13.5C6.375 13.8452 6.65482 14.125 7 14.125Z" "/>
<path d="M12.625 15.5C12.625 15.8452 12.3452 16.125 12 16.125C11.6548 16.125 11.375 15.8452 11.375 15.5C11.375 15.1548 11.6548 14.875 12 14.875C12.3452 14.875 12.625 15.1548 12.625 15.5Z" "/>
<path d="M9.5 16.125C9.84518 16.125 10.125 15.8452 10.125 15.5C10.125 15.1548 9.84518 14.875 9.5 14.875C9.15482 14.875 8.875 15.1548 8.875 15.5C8.875 15.8452 9.15482 16.125 9.5 16.125Z" "/>
<path d="M7.625 15.5C7.625 15.8452 7.34518 16.125 7 16.125C6.65482 16.125 6.375 15.8452 6.375 15.5C6.375 15.1548 6.65482 14.875 7 14.875C7.34518 14.875 7.625 15.1548 7.625 15.5Z" "/>
</svg>
