<svg  viewBox="0 0 24 24"  xmlns="http://www.w3.org/2000/svg">
<path d="M14.1396 8.51009C14.1396 8.13558 13.8453 7.83211 13.482 7.83211C13.119 7.83211 12.8245 8.13558 12.8245 8.51009C12.8245 8.8846 13.119 9.18831 13.482 9.18831C13.8453 9.18831 14.1396 8.8846 14.1396 8.51009ZM18.1905 9.86031C17.9129 9.71297 17.6259 9.60054 17.3377 9.52498C17.1141 8.26729 16.6534 7.08626 15.8292 6.32613C15.5726 6.08919 15.3003 5.88607 15.0154 5.71468C15.3937 4.80282 15.3837 3.95565 14.9483 3.31636C14.4156 2.53511 13.4502 2.38961 12.5411 2.95797C12.5059 2.98043 12.4683 3.00679 12.4302 3.03414C12.1807 2.76851 11.837 2.59859 11.441 2.54976C10.8985 2.4775 10.3282 2.64742 9.9483 2.98238C9.72515 3.17867 9.5982 3.42574 9.52642 3.65914C9.12554 3.57515 8.69634 3.61519 8.33209 3.78609C7.54693 4.1523 7.26128 5.08199 7.60308 6.15523C7.70001 6.45882 7.87054 6.70662 8.07232 6.91976C7.00445 7.75667 5.97344 8.83651 5.05962 10.1347C4.78179 10.5293 4.55914 10.9033 4.25005 11.4238L4.07085 11.7255C3.92925 11.9628 4.00689 12.2695 4.24371 12.4111C4.43682 12.5257 4.66924 12.4913 4.82745 12.3502C4.8648 12.3167 4.90215 12.2828 4.92925 12.2373L5.10992 11.9345C5.40289 11.4404 5.61334 11.0849 5.87701 10.7109C7.76324 8.03121 10.1241 6.29976 12.1929 6.07906C13.3184 5.9609 14.3155 6.29 15.1514 7.06051C15.7487 7.61214 16.1087 8.48861 16.3082 9.44625C16.1185 9.51717 15.9825 9.69661 15.9825 9.91109C15.9825 10.1875 16.2061 10.4111 16.4825 10.4111C16.8775 10.4111 17.3179 10.5293 17.7227 10.7441C18.2364 11.0156 18.6397 11.5273 18.8492 12.0068H16.7696C16.3714 12.0068 16.0899 12.0387 15.8071 12.146L15.8105 12.1345C15.7711 12.1518 15.7326 12.1671 15.6919 12.1873C15.6811 12.1922 15.6697 12.1969 15.6589 12.202C15.6006 12.2319 15.5381 12.2719 15.4773 12.3081C15.4261 12.3386 15.3785 12.3604 15.3243 12.3974C15.3226 12.3985 15.3218 12.4005 15.3201 12.4017C15.3146 12.4054 15.3097 12.4073 15.3043 12.4111C13.6802 13.4951 12.0005 16.2568 12.0005 19.0019V21.0019C12.0005 21.2783 12.2242 21.5019 12.5005 21.5019C12.7769 21.5019 13.0005 21.2783 13.0005 21.0019V19.0019C13.0005 18.2508 13.16 17.4964 13.4056 16.78L13.4727 16.9795C13.6417 17.4814 13.9942 17.8837 14.4654 18.1113C14.7266 18.2382 15.0059 18.3017 15.2862 18.3017C15.4986 18.3017 15.712 18.2656 15.9175 18.1914C16.9097 17.8359 17.4385 16.7197 17.0967 15.7031L16.313 13.374C16.277 13.2674 16.2287 13.168 16.1768 13.0714C16.3172 13.0221 16.4744 13.0068 16.7696 13.0068H19.5001C19.6407 13.0068 19.775 12.9472 19.8697 12.8437C19.9644 12.7392 20.0113 12.5996 19.9976 12.4599C19.9185 11.6211 19.2579 10.4238 18.1905 9.86031ZM14.1205 5.30037C13.4842 5.08516 12.8013 5.00972 12.087 5.08492C11.0475 5.19539 9.95538 5.64217 8.88189 6.33992V6.3398C8.73785 6.2314 8.62212 6.05758 8.55621 5.85054C8.41949 5.42281 8.3897 4.86324 8.75591 4.69137C8.98199 4.5859 9.37261 4.57906 9.64996 4.7773C9.80816 4.89058 10.0171 4.90133 10.1861 4.80465C10.3555 4.70894 10.4542 4.52242 10.439 4.32906C10.4288 4.19234 10.4566 3.86715 10.6099 3.73238C10.773 3.58785 11.0635 3.50777 11.3165 3.54195C11.4517 3.55855 11.6363 3.61324 11.7496 3.77926C11.7916 3.84078 11.8277 3.90816 11.857 3.98043C11.9195 4.1357 12.0552 4.24801 12.2183 4.28219C12.3838 4.31441 12.5513 4.26656 12.6705 4.15035C12.7794 4.04293 12.9766 3.86519 13.0718 3.80562C13.2828 3.67281 13.8072 3.41793 14.1216 3.87886C14.4202 4.31771 14.2813 4.89974 14.1205 5.30037ZM15.5806 17.25C15.358 17.3291 15.1168 17.3164 14.9014 17.2119C14.6739 17.1015 14.503 16.9062 14.421 16.6611L14.0044 15.4227C14.3958 14.7179 14.8616 14.1012 15.3431 13.6544C15.3484 13.6683 15.3599 13.6781 15.3648 13.6923L16.1485 16.0214C16.3184 16.5263 16.0635 17.0771 15.5806 17.25Z" "/>
</svg>
