<svg  viewBox="0 0 24 24"  xmlns="http://www.w3.org/2000/svg">
<path d="M21.7339 11.058L4.73389 2.058C4.56055 1.96523 4.35205 1.98329 4.19678 2.10243C4.04199 2.2206 3.96973 2.41786 4.01172 2.60829L5.98779 11.4999L4.01172 20.3915C3.96973 20.5819 4.04199 20.7792 4.19678 20.8974C4.28564 20.9652 4.39258 20.9999 4.5 20.9999C4.58008 20.9999 4.66064 20.9809 4.73389 20.9418L21.7339 11.9418C21.8975 11.8554 22 11.685 22 11.4999C22 11.3148 21.8975 11.1444 21.7339 11.058ZM5.22314 19.5512L6.90125 11.9999H19.4867L5.22314 19.5512ZM6.90125 10.9999L5.22314 3.44862L19.4867 10.9999H6.90125Z" "/>
</svg>
