<svg width="24" height="24" viewBox="0 0 24 24" xmlns="http://www.w3.org/2000/svg">
<path d="M4.13672 11.8628C4.23438 11.9604 4.3623 12.0093 4.49023 12.0093C4.61816 12.0093 4.74609 11.9604 4.84375 11.8628L6.49023 10.2163L8.13672 11.8628C8.23438 11.9604 8.3623 12.0093 8.49023 12.0093C8.61816 12.0093 8.74609 11.9604 8.84375 11.8628C9.03906 11.6675 9.03906 11.3511 8.84375 11.1558L7.19727 9.50928L8.84375 7.86279C9.03906 7.66748 9.03906 7.35107 8.84375 7.15576C8.64844 6.96045 8.33203 6.96045 8.13672 7.15576L6.49023 8.80225L4.84375 7.15576C4.64844 6.96045 4.33203 6.96045 4.13672 7.15576C3.94141 7.35107 3.94141 7.66748 4.13672 7.86279L5.7832 9.50928L4.13672 11.1558C3.94141 11.3511 3.94141 11.6675 4.13672 11.8628ZM20.8525 6.14063L17.8525 3.15137C17.6572 2.95605 17.3408 2.95605 17.1455 3.15234C16.9512 3.34814 16.9512 3.66455 17.1475 3.85938L19.2952 6H14.5C12.5703 6 11 7.57031 11 9.5V17.5C11 18.9019 9.90234 20 8.5 20H3.5C3.22363 20 3 20.2236 3 20.5C3 20.7764 3.22363 21 3.5 21H8.5C10.4297 21 12 19.4297 12 17.5V9.5C12 8.09814 13.0977 7 14.5 7H19.2907L17.1562 9.1416C16.9619 9.3374 16.9619 9.65381 17.1582 9.84863C17.2559 9.94629 17.3828 9.99463 17.5107 9.99463C17.6387 9.99463 17.7676 9.9458 17.8652 9.84766L20.8545 6.84766C21.0488 6.65186 21.0488 6.33545 20.8525 6.14063ZM17 13C15.3457 13 14 14.3457 14 16C14 17.6543 15.3457 19 17 19C18.6543 19 20 17.6543 20 16C20 14.3457 18.6543 13 17 13ZM17 18C15.8975 18 15 17.103 15 16C15 14.897 15.8975 14 17 14C18.1025 14 19 14.897 19 16C19 17.103 18.1025 18 17 18Z"/>
</svg>
