<svg width="24" height="24" viewBox="0 0 24 24" xmlns="http://www.w3.org/2000/svg">
<path d="M21.5 2.99805H2.5C2.22363 2.99805 2 3.22168 2 3.49805V19.498C2 19.7744 2.22363 19.998 2.5 19.998H16.0042L16.2871 20.6895C16.3667 20.8828 16.5532 21 16.75 21C16.813 21 16.8774 20.9883 16.9395 20.9629L18.7905 20.2061C18.8898 20.1657 18.9654 20.0887 19.0206 19.998H21.5C21.7764 19.998 22 19.7744 22 19.498V3.49805C22 3.22168 21.7764 2.99805 21.5 2.99805ZM10.9965 18.998H3.02838C3.00549 18.6044 3.00629 18.1719 3.04932 18.0303C3.16895 17.6367 4.63916 17.0488 5.85205 17.0225C6.12402 17.0166 6.3418 16.7939 6.34131 16.5215L6.34039 15.6819C6.54724 15.753 6.77051 15.7939 7.01221 15.7939C7.25385 15.7939 7.47736 15.7532 7.68427 15.6818L7.68359 16.5225C7.68359 16.7939 7.90088 17.0166 8.17285 17.0225C9.38574 17.0488 10.8555 17.6367 10.9751 18.0303C11.0181 18.1719 11.0192 18.6044 10.9965 18.998ZM8.48145 12.249C8.50146 12.2812 8.52441 12.3105 8.55078 12.3379C8.56689 12.4346 8.5752 12.6143 8.54541 12.7891C8.52832 12.8906 8.50391 12.9736 8.48193 13.0322C8.47949 13.0332 8.47705 13.0342 8.47461 13.0342C8.27832 13.0879 8.13135 13.2725 8.10693 13.4746C8.00195 14.3495 7.63391 14.7938 7.01239 14.7939C7.01233 14.7939 7.01245 14.7939 7.01239 14.7939C6.38983 14.7939 6.02148 14.3496 5.91113 13.4238C5.88037 13.2266 5.73584 13.0664 5.54248 13.0156C5.54053 13.0156 5.53809 13.0146 5.53613 13.0146C5.51562 12.957 5.49414 12.8809 5.479 12.7891C5.4502 12.6182 5.45752 12.4424 5.47266 12.3438C5.53516 12.2803 5.58203 12.1992 5.60449 12.1084C5.61621 12.0625 5.62012 11.9922 5.61816 11.9443C5.5874 11.2051 5.72217 10.6738 6.01855 10.3643C6.24316 10.1299 6.56787 10.0166 7.01221 10.0166C7.45599 10.0166 7.78131 10.1299 8.00537 10.3643C8.30176 10.6729 8.43652 11.2031 8.40576 11.9658V11.9678C8.40186 12.0723 8.42969 12.1689 8.48145 12.249ZM13.7101 18.998L15.1924 18.0146L15.5948 18.998H13.7101ZM17.0234 19.8477L15.8872 17.0713C15.8306 16.9326 15.7144 16.8271 15.5713 16.7832C15.5229 16.7676 15.4736 16.7607 15.4243 16.7607C15.3271 16.7607 15.231 16.7891 15.1479 16.8438L13.8223 17.7236L13.9785 11.0967L18.7412 15.7109L17.1807 16.0117C17.0337 16.04 16.9067 16.1328 16.8354 16.2646C16.7642 16.3965 16.7559 16.5537 16.8125 16.6924L17.9487 19.4697L17.0234 19.8477ZM21 18.998H18.8366L17.9692 16.8779L19.8735 16.5107C20.0566 16.4756 20.2046 16.3408 20.2578 16.1621C20.311 15.9834 20.2607 15.79 20.127 15.6602L13.854 9.58301C13.7114 9.44531 13.499 9.40723 13.3164 9.47949C13.1323 9.55469 13.0107 9.73242 13.0059 9.93066L12.7998 18.6582C12.7967 18.7906 12.8595 18.9042 12.9467 18.998H11.9999C12.0202 18.6259 12.0299 18.061 11.9321 17.7393C11.6235 16.7266 9.87598 16.1943 8.68408 16.0576L8.68494 14.8502C8.84589 14.5873 8.9715 14.2796 9.04639 13.9199C9.2793 13.7568 9.45312 13.4219 9.53174 12.9551C9.5791 12.6729 9.60352 12.1299 9.41162 11.7979C9.42041 11.3066 9.37207 10.3428 8.72705 9.67188C8.31006 9.2373 7.73291 9.0166 7.01221 9.0166C6.29102 9.0166 5.71436 9.2373 5.29688 9.67188C4.65869 10.3379 4.60498 11.2881 4.61328 11.7969C4.42188 12.1279 4.44531 12.6719 4.49268 12.9551C4.56934 13.4102 4.74316 13.7451 4.97559 13.9121C5.04932 14.2764 5.17596 14.5882 5.33948 14.8542L5.34082 16.0576C4.6153 16.1408 3.68738 16.3729 3 16.7681V7.99805H21V18.998ZM21 6.99805H3V3.99805H21V6.99805ZM4.50018 5.99786C4.77618 5.99786 5 5.77411 5 5.49805C5 5.22198 4.77618 4.99823 4.50018 4.99823C4.22418 4.99823 4.00037 5.22198 4.00037 5.49805C4.00037 5.77411 4.22418 5.99786 4.50018 5.99786ZM6.50018 5.99786C6.77618 5.99786 7 5.77411 7 5.49805C7 5.22198 6.77618 4.99823 6.50018 4.99823C6.22418 4.99823 6.00037 5.22198 6.00037 5.49805C6.00037 5.77411 6.22418 5.99786 6.50018 5.99786ZM8.50018 5.99786C8.77618 5.99786 9 5.77411 9 5.49805C9 5.22198 8.77618 4.99823 8.50018 4.99823C8.22418 4.99823 8.00037 5.22198 8.00037 5.49805C8.00037 5.77411 8.22418 5.99786 8.50018 5.99786Z" />
</svg>
