<svg  viewBox="0 0 24 24"  xmlns="http://www.w3.org/2000/svg">
<path fill-rule="evenodd" clip-rule="evenodd" d="M8.48242 17H5.48242C5.20605 17 4.98242 16.7764 4.98242 16.5V9.5C4.98242 9.22363 5.20605 9 5.48242 9H8.48242C8.75879 9 8.98242 9.22363 8.98242 9.5V16.5C8.98242 16.7764 8.75879 17 8.48242 17ZM7.98242 10H5.98242V16H7.98242V10Z" />
<path d="M4.50031 5.99792C4.77635 5.99792 5.00012 5.77415 5.00012 5.49811C5.00012 5.22207 4.77635 4.99829 4.50031 4.99829C4.22426 4.99829 4.00049 5.22207 4.00049 5.49811C4.00049 5.77415 4.22426 5.99792 4.50031 5.99792Z" />
<path d="M6.50031 5.99792C6.77635 5.99792 7.00012 5.77415 7.00012 5.49811C7.00012 5.22207 6.77635 4.99829 6.50031 4.99829C6.22426 4.99829 6.00049 5.22207 6.00049 5.49811C6.00049 5.77415 6.22426 5.99792 6.50031 5.99792Z" />
<path d="M9.00012 5.49811C9.00012 5.77415 8.77635 5.99792 8.50031 5.99792C8.22426 5.99792 8.00049 5.77415 8.00049 5.49811C8.00049 5.22207 8.22426 4.99829 8.50031 4.99829C8.77635 4.99829 9.00012 5.22207 9.00012 5.49811Z" />
<path fill-rule="evenodd" clip-rule="evenodd" d="M21.5 2.99805H2.5C2.22363 2.99805 2 3.22168 2 3.49805V18.543C2 18.8193 2.22363 19.043 2.5 19.043H11.8428C11.9829 20.3698 11.9948 20.4236 12.0015 20.4497C12.0483 20.6284 12.1934 20.771 12.373 20.814C12.6782 20.8867 12.7534 20.9033 14.2109 19.2832L15.6074 21.7759C15.6748 21.8955 15.7881 21.9824 15.9219 22.0161C15.9619 22.0264 16.0029 22.0312 16.0439 22.0312C16.1377 22.0312 16.2314 22.0049 16.3115 21.9536L18.2432 20.7275C18.4756 20.5796 18.5449 20.272 18.3984 20.0391L17.7725 19.043H21.5C21.7764 19.043 22 18.8193 22 18.543V3.49805C22 3.22168 21.7764 2.99805 21.5 2.99805ZM16.2217 20.8262L14.7412 18.1836C14.6621 18.043 14.5195 17.9487 14.3584 17.9312C14.3408 17.9292 14.3223 17.9282 14.3047 17.9282C14.1631 17.9282 14.0264 17.9888 13.9316 18.0957C13.5811 18.4888 13.1914 18.917 12.8711 19.2598C12.7153 17.7847 12.4219 14.9229 12.1758 12.5127L17.5771 16.4253L15.9619 16.7876C15.8037 16.8232 15.6719 16.9331 15.6094 17.083C15.5469 17.2329 15.5615 17.4038 15.6484 17.5415L17.2871 20.1499L16.2217 20.8262ZM21 18.043H17.1442L16.8711 17.6084L18.8779 17.1582C19.0693 17.1152 19.2188 16.9639 19.2578 16.7715C19.2979 16.5786 19.2207 16.3809 19.0615 16.2656L11.8589 11.0483C11.6978 10.9312 11.4858 10.9209 11.3159 11.02C11.145 11.1182 11.0479 11.3076 11.0679 11.5039C11.3922 14.6926 11.6013 16.728 11.7382 18.043H3V7.99805H21V18.043ZM21 6.99805H3V3.99805H21V6.99805Z" />
</svg>
