<svg  viewBox="0 0 24 24"  xmlns="http://www.w3.org/2000/svg">
<path fill-rule="evenodd" clip-rule="evenodd" d="M8.5 13H6.5C6.22363 13 6 13.2236 6 13.5V15.5C6 15.7764 6.22363 16 6.5 16H8.5C8.77637 16 9 15.7764 9 15.5V13.5C9 13.2236 8.77637 13 8.5 13ZM8 15H7V14H8V15Z" "/>
<path fill-rule="evenodd" clip-rule="evenodd" d="M11.5 13H13.5C13.7764 13 14 13.2236 14 13.5V15.5C14 15.7764 13.7764 16 13.5 16H11.5C11.2236 16 11 15.7764 11 15.5V13.5C11 13.2236 11.2236 13 11.5 13ZM12 15H13V14H12V15Z" "/>
<path fill-rule="evenodd" clip-rule="evenodd" d="M8.5 9H6.5C6.22363 9 6 9.22363 6 9.5V11.5C6 11.7764 6.22363 12 6.5 12H8.5C8.77637 12 9 11.7764 9 11.5V9.5C9 9.22363 8.77637 9 8.5 9ZM8 11H7V10H8V11Z" "/>
<path fill-rule="evenodd" clip-rule="evenodd" d="M11.5 9H13.5C13.7764 9 14 9.22363 14 9.5V11.5C14 11.7764 13.7764 12 13.5 12H11.5C11.2236 12 11 11.7764 11 11.5V9.5C11 9.22363 11.2236 9 11.5 9ZM12 11H13V10H12V11Z" "/>
<path fill-rule="evenodd" clip-rule="evenodd" d="M8.5 5H6.5C6.22363 5 6 5.22363 6 5.5V7.5C6 7.77637 6.22363 8 6.5 8H8.5C8.77637 8 9 7.77637 9 7.5V5.5C9 5.22363 8.77637 5 8.5 5ZM8 7H7V6H8V7Z" "/>
<path fill-rule="evenodd" clip-rule="evenodd" d="M11.5 5H13.5C13.7764 5 14 5.22363 14 5.5V7.5C14 7.77637 13.7764 8 13.5 8H11.5C11.2236 8 11 7.77637 11 7.5V5.5C11 5.22363 11.2236 5 11.5 5ZM12 7H13V6H12V7Z" "/>
<path fill-rule="evenodd" clip-rule="evenodd" d="M21 21H18.9937V4.49121C18.9937 4.21484 18.77 3.99121 18.4937 3.99121H15.9951V2.5C15.9951 2.22363 15.7715 2 15.4951 2H4.49707C4.2207 2 3.99707 2.22363 3.99707 2.5V21H3C2.72363 21 2.5 21.2236 2.5 21.5C2.5 21.7764 2.72363 22 3 22H21C21.2764 22 21.5 21.7764 21.5 21.5C21.5 21.2236 21.2764 21 21 21ZM12 21H8V18.9785H12V21ZM13 21V18.4785C13 18.2021 12.7764 17.9785 12.5 17.9785H7.5C7.22363 17.9785 7 18.2021 7 18.4785V21H4.99707V3H14.9951V21H13ZM15.9951 21V4.99121H17.9937V21H15.9951Z" "/>
</svg>
