<svg width="24" height="24" viewBox="0 0 24 24"  xmlns="http://www.w3.org/2000/svg">
<path d="M20.5 8.9999H6C6 8.9239 5.989 8.8499 5.977 8.7769L20.18 5.9519C20.2444 5.93911 20.3057 5.91375 20.3603 5.87727C20.4149 5.8408 20.4618 5.79392 20.4983 5.73931C20.5348 5.68471 20.5602 5.62345 20.573 5.55904C20.5858 5.49462 20.5858 5.42831 20.573 5.3639L20.183 3.4019C20.1569 3.27198 20.0804 3.15772 19.9701 3.08422C19.8599 3.01072 19.7249 2.98399 19.595 3.0099L16.655 3.5939L16.648 3.5959L12.732 4.3749H12.726L8.809 5.1549L8.802 5.1559L3.902 6.1309C3.77208 6.15696 3.65782 6.23353 3.58432 6.34378C3.51082 6.45403 3.48409 6.58895 3.51 6.7189L3.71 7.7289C3.287 7.9959 3 8.4639 3 8.9999C3 9.6509 3.42 10.1999 4 10.4079V20.4999C4 20.6325 4.05268 20.7597 4.14645 20.8535C4.24021 20.9472 4.36739 20.9999 4.5 20.9999H20.5C20.6326 20.9999 20.7598 20.9472 20.8536 20.8535C20.9473 20.7597 21 20.6325 21 20.4999V9.4999C21 9.36729 20.9473 9.24011 20.8536 9.14634C20.7598 9.05258 20.6326 8.9999 20.5 8.9999ZM13.707 9.9999H16.293L15.293 10.9999H12.707L13.707 9.9999ZM9.707 9.9999H12.293L11.293 10.9999H8.707L9.707 9.9999ZM8.293 9.9999L7.293 10.9999H5V10.4079C5.237 10.3229 5.445 10.1829 5.61 9.9999H8.293ZM17.051 4.5349L19.299 4.0879L19.495 5.0689L16.265 5.7119L17.051 4.5349ZM13.128 5.3149L15.664 4.8109L14.878 5.9869L12.342 6.4919L13.128 5.3149ZM9.204 6.0949L11.741 5.5909L10.955 6.7679L8.419 7.2719L9.204 6.0949ZM7.818 6.3709L7.032 7.5479L5.463 7.8599C5.24277 7.67417 4.97372 7.55578 4.688 7.5189L4.588 7.0139L7.818 6.3709ZM4.5 9.4999C4.36726 9.49977 4.24001 9.44691 4.14624 9.35295C4.05247 9.259 3.99987 9.13164 4 8.9989C4.00013 8.86616 4.05299 8.73891 4.14695 8.64514C4.2409 8.55137 4.36826 8.49876 4.501 8.4989C4.56673 8.49896 4.6318 8.51197 4.69249 8.53719C4.75319 8.5624 4.80833 8.59932 4.85476 8.64584C4.90119 8.69237 4.938 8.74758 4.96309 8.80833C4.98819 8.86908 5.00107 8.93417 5.001 8.9999C5.00093 9.06562 4.98792 9.13069 4.96271 9.19139C4.9375 9.25209 4.90058 9.30723 4.85405 9.35366C4.80753 9.40009 4.75232 9.4369 4.69157 9.46199C4.63082 9.48708 4.56573 9.49996 4.5 9.4999ZM20 19.9999H5V11.9999H20V19.9999ZM20 10.9999H16.707L17.707 9.9999H20V10.9999ZM10.258 18.9379C10.3361 18.981 10.4243 19.0024 10.5134 19C10.6026 18.9975 10.6894 18.9712 10.765 18.9239L14.765 16.4239C14.8369 16.379 14.8962 16.3165 14.9373 16.2423C14.9784 16.1681 15 16.0847 15 15.9999C15 15.9151 14.9784 15.8317 14.9373 15.7575C14.8962 15.6833 14.8369 15.6208 14.765 15.5759L10.765 13.0759C10.6893 13.0286 10.6023 13.0024 10.5131 13.0001C10.4239 12.9977 10.3357 13.0193 10.2576 13.0626C10.1796 13.1058 10.1145 13.1692 10.0692 13.2461C10.0239 13.323 10 13.4106 10 13.4999V18.4999C9.99992 18.5893 10.0238 18.6771 10.0692 18.7541C10.1146 18.8312 10.1798 18.8946 10.258 18.9379ZM11 14.4019L13.557 15.9999L11 17.5979V14.4019Z"/>
</svg>
