<svg  viewBox="0 0 24 24"  xmlns="http://www.w3.org/2000/svg">
<path fill-rule="evenodd" clip-rule="evenodd" d="M5.97067 7.59131C5.97067 4.8999 7.38278 3.09131 9.48483 3.09131C11.5215 3.09131 12.9995 4.98389 12.9995 7.59131C12.9995 10.2407 11.5542 12.0913 9.48483 12.0913C7.31735 12.0913 5.97067 10.3672 5.97067 7.59131ZM6.97067 7.59131C6.97067 8.64355 7.21579 11.0913 9.48483 11.0913C11.2124 11.0913 11.9995 9.27686 11.9995 7.59131C11.9995 5.90576 11.2124 4.09131 9.48483 4.09131C7.74802 4.09131 6.97067 5.84912 6.97067 7.59131Z" />
<path d="M4.01511 4.49114V11.4458C4.01511 11.7222 4.23875 11.9458 4.51511 11.9458C4.79148 11.9458 5.01511 11.7222 5.01511 11.4458V3.81005C5.01511 3.66472 4.95115 3.53667 4.85233 3.44536C4.71805 3.29686 4.50297 3.23577 4.30613 3.31151L1.77097 4.27391C1.51267 4.37157 1.38279 4.66063 1.48093 4.91844C1.55662 5.11864 1.74656 5.2412 1.94822 5.2412C2.0073 5.2412 2.06736 5.23094 2.12546 5.20848L4.01511 4.49114Z" />
<path d="M6.50436 14H4.50479L4.49997 13.999L4.49515 14H2.49557C2.21921 14 1.99557 14.2236 1.99557 14.5C1.99557 14.7764 2.21921 15 2.49557 15H3.99997V19.501C3.99997 19.7773 4.2236 20.001 4.49997 20.001C4.77634 20.001 4.99997 19.7773 4.99997 19.501V15H6.50436C6.78073 15 7.00436 14.7764 7.00436 14.5C7.00436 14.2236 6.78073 14 6.50436 14Z" />
<path fill-rule="evenodd" clip-rule="evenodd" d="M10.9961 18.8984C10.9956 18.9463 11.0122 19.0259 11.0288 19.0503C11.3042 19.0669 11.4926 19.29 11.4755 19.5654C11.4594 19.8301 11.2212 20.0205 10.958 20.0205C10.9472 20.0205 10.936 20.02 10.9248 20.0195C10.5939 19.9992 10.3552 19.8318 10.2009 19.6016C9.84029 19.7689 9.24099 19.9995 8.66647 19.9995C8.45846 19.9995 8.25484 19.9692 8.06686 19.895C7.71529 19.7553 7.46529 19.4829 7.34371 19.1064C7.15719 18.5302 7.30025 18.1142 7.45309 17.8672C7.93307 17.0893 9.10934 16.9092 9.81246 16.8017C9.87753 16.7918 9.92484 16.7837 9.9729 16.7753L9.99532 16.7715L9.99654 16.5674C9.99899 16.1894 9.87301 16.1079 9.8315 16.0815C9.51217 15.875 8.66988 16.0957 8.20113 16.3095C7.95016 16.4262 7.65328 16.3149 7.53854 16.0644C7.42281 15.8139 7.53219 15.5176 7.78219 15.4018C7.95113 15.3227 9.46285 14.6543 10.3725 15.2402C10.6601 15.4258 11.0019 15.8071 10.9965 16.5742C10.9848 18.3496 10.9907 18.7373 10.9931 18.8203C10.9961 18.8462 10.997 18.872 10.9961 18.8984ZM8.29488 18.7988C8.33297 18.916 8.38717 18.9463 8.43502 18.9653C8.77706 19.1006 9.57162 18.8175 10.0053 18.5816C9.99618 18.3782 9.99227 18.1114 9.99178 17.7856L9.97816 17.788C9.97378 17.7888 9.96942 17.7896 9.96334 17.7905C9.53805 17.8554 8.54147 18.0078 8.30367 18.3926C8.26412 18.4565 8.22066 18.5678 8.29488 18.7988Z" />
<path fill-rule="evenodd" clip-rule="evenodd" d="M21.2871 17.4268C21.2973 16.7295 21.0405 16.062 20.5815 15.5967C20.1997 15.2085 19.7114 14.9946 19.207 14.9946C18.1508 14.9946 17.0112 15.9204 17.0112 17.416C17.0112 18.8726 17.9912 20.0137 19.2426 20.0137C19.9521 20.0137 20.2744 19.9185 20.7715 19.6909C21.0224 19.5762 21.1328 19.2793 21.018 19.0283C20.9028 18.7773 20.6059 18.6655 20.3554 18.7817C19.9951 18.9468 19.8252 19.0137 19.2426 19.0137C18.7118 19.0137 18.272 18.597 18.0959 17.998H20.7729C21.0493 17.998 21.2729 17.7744 21.2729 17.498L21.2724 17.4957C21.2739 17.4862 21.2765 17.4772 21.2791 17.4682C21.283 17.4548 21.2869 17.4415 21.2871 17.4268ZM18.0622 16.998C18.2941 16.0638 19.2839 15.7041 19.8691 16.2983C20.0514 16.4828 20.1737 16.7283 20.2368 16.998H18.0622Z" />
<path fill-rule="evenodd" clip-rule="evenodd" d="M17.5 12.0913C19.5688 12.0913 21.0141 10.2407 21.0141 7.59131C21.0141 4.98389 19.5361 3.09131 17.5 3.09131C15.3979 3.09131 13.9858 4.8999 13.9858 7.59131C13.9858 10.3672 15.3325 12.0913 17.5 12.0913ZM17.5 4.09131C19.2275 4.09131 20.0141 5.90576 20.0141 7.59131C20.0141 9.27686 19.2275 11.0913 17.5 11.0913C15.2309 11.0913 14.9858 8.64355 14.9858 7.59131C14.9858 5.84912 15.7632 4.09131 17.5 4.09131Z" />
<path fill-rule="evenodd" clip-rule="evenodd" d="M15.3178 15.4099C15.5346 15.2998 15.9392 15.1155 16.3852 15.0371C16.6562 14.9868 16.9165 15.1699 16.9643 15.4424C17.0127 15.7144 16.831 15.9736 16.5591 16.0215C16.3269 16.0624 16.0997 16.1486 15.9304 16.2242C15.9806 16.3727 16.0161 16.5264 16.0161 16.6885C16.0161 17.627 15.1133 18.3906 14.0039 18.3906C13.9712 18.3906 13.9397 18.387 13.9082 18.3833C13.8879 18.3809 13.8677 18.3786 13.8471 18.3772C13.8382 18.3835 13.8298 18.3902 13.8214 18.397C13.8028 18.4118 13.7842 18.4267 13.7612 18.4365C13.3647 18.6069 13.2983 18.731 13.2983 18.731C13.3574 18.7925 13.7378 19.0034 13.9536 18.9976C14.0237 18.9879 14.0916 18.9931 14.1551 19.0099C14.169 19.0096 14.1823 19.0084 14.1957 19.0072C14.2113 19.0058 14.2268 19.0044 14.2431 19.0044C15.5561 19.0044 16.5459 19.6553 16.5459 20.5186C16.5459 21.3818 15.5561 22.0327 14.2431 22.0327C12.9301 22.0327 11.9399 21.3818 11.9399 20.5186C11.9399 20.0753 12.2038 19.69 12.6357 19.4181C12.5005 19.2809 12.3934 19.1231 12.3413 18.9424C12.2736 18.7087 12.266 18.3256 12.6681 17.9517C12.2563 17.6398 11.9917 17.1917 11.9917 16.6885C11.9917 15.75 12.8945 14.9863 14.0039 14.9863C14.5081 14.9863 14.9642 15.1496 15.3178 15.4099ZM15.5459 20.5186C15.5459 20.3691 15.0893 20.0044 14.2431 20.0044C13.3965 20.0044 12.9399 20.3691 12.9399 20.5186C12.9399 20.668 13.3965 21.0327 14.2431 21.0327C15.0893 21.0327 15.5459 20.668 15.5459 20.5186ZM12.9917 16.6885C12.9917 17.0688 13.455 17.3906 14.0039 17.3906C14.5527 17.3906 15.0161 17.0688 15.0161 16.6885C15.0161 16.3081 14.5527 15.9863 14.0039 15.9863C13.455 15.9863 12.9917 16.3081 12.9917 16.6885Z" />
</svg>
