<svg width="24" height="24" viewBox="0 0 24 24" xmlns="http://www.w3.org/2000/svg">
<path d="M8.50002 9H15.5C15.7764 9 16 8.77637 16 8.5C16 8.22363 15.7764 8 15.5 8H8.50002C8.22366 8 8.00002 8.22363 8.00002 8.5C8.00002 8.77637 8.22366 9 8.50002 9ZM21 10.5254C21.0039 10.374 20.9278 10.2285 20.8115 10.1299L19.9987 9.4408L20 5.5C20 5.36719 19.9473 5.24023 19.8535 5.14648C19.7598 5.05273 19.6328 5 19.5 5H16.3112L13.293 2.4541C12.5791 1.84277 11.4649 1.84668 10.7549 2.4502L7.71047 5H4.50002C4.22366 5 4.00002 5.22363 4.00002 5.5V9.41199L3.17287 10.1348C3.06936 10.2256 3.00783 10.3545 3.00198 10.4922C3.00161 10.5026 2.99978 10.5121 3.00002 10.5225V21.4961C3.00002 21.7725 3.22366 21.9961 3.50002 21.9961H20.5C20.7764 21.9961 21 21.7725 21 21.4961V10.5391H20.9961C20.9964 10.5342 20.9998 10.5302 21 10.5254ZM11.4014 3.21387C11.7315 2.93066 12.3115 2.93066 12.6455 3.21582L14.7612 5H9.26931L11.4014 3.21387ZM5.00002 6H19L18.9981 11.1375C17.539 12.4242 15.1414 14.5777 13.7769 15.8055L13.3975 15.5195C13.0078 15.1865 12.5117 15.0039 11.9981 15.0039C11.3946 15.0039 10.9239 15.291 10.5459 15.5713C10.4822 15.6178 10.3605 15.7068 10.2149 15.8134C8.52633 14.3295 6.32815 12.3914 5.00002 11.2028V6ZM4.00002 11.6487C5.34689 12.8603 7.89706 15.1066 9.38998 16.4186C7.87954 17.5286 5.34481 19.4012 4.00002 20.4472V11.6487ZM4.92391 20.9961C6.44399 19.8314 9.22994 17.7725 11.1377 16.377C11.7383 15.9316 12.2881 15.8887 12.7715 16.2988L19.0012 20.9961H4.92391ZM20 20.4969L14.5901 16.4186C16.3047 14.8761 18.7403 12.6921 20 11.587V20.4969ZM16 11.5C16 11.2236 15.7764 11 15.5 11H8.50002C8.22366 11 8.00002 11.2236 8.00002 11.5C8.00002 11.7764 8.22366 12 8.50002 12H15.5C15.7764 12 16 11.7764 16 11.5Z"/>
</svg>
