<svg width="24" height="24" viewBox="0 0 24 24" xmlns="http://www.w3.org/2000/svg">
<path d="M21.8672 5.16067C21.7725 5.05813 21.6392 5.00002 21.5 5.00002C16.938 5.00002 11.5 6.04104 11.5 11C11.5 11.2764 11.7236 11.5 12 11.5C12.2764 11.5 12.5 11.2764 12.5 11C12.5 7.7886 15.3364 6.10989 20.9336 6.0054C20.7344 7.3301 20.0098 10.7495 17.6875 12.6099C16.4544 13.5986 14.9684 13.6754 13.6311 12.8628C14.7107 11.2719 16.0563 9.84231 17.7275 8.98928C17.9732 8.86379 18.0708 8.56252 17.9453 8.31643C17.8198 8.07131 17.5195 7.97268 17.2725 8.09866C13.8721 9.83438 11.7351 13.5918 10.4862 16.6752C10.4587 14.3017 10.0306 11.3992 8.59058 8.70535C7.91566 7.44283 7.02656 6.22457 5.83839 5.13186C5.63624 4.94534 5.31983 4.95803 5.13184 5.16165C4.94483 5.36477 4.9585 5.68118 5.16163 5.86819C6.22993 6.85061 7.03059 7.95602 7.6482 9.10684C6.69257 9.46792 5.42243 9.60775 4.51075 8.40432C3.32325 6.83547 3.06837 4.21877 3.01417 3.07327C6.66651 3.60745 8.11427 4.74026 8.68262 5.61868C9.26368 6.51565 9.03858 7.29885 9.02442 7.34573C8.95673 7.55343 9.03669 7.76956 9.20222 7.89468C9.24451 7.92666 9.28876 7.95693 9.3418 7.97463C9.60694 8.06106 9.8877 7.91995 9.97462 7.65823C9.99122 7.60793 10.3726 6.41897 9.54346 5.10842C8.5171 3.48635 6.16749 2.44192 2.56007 2.00344C2.42139 1.98538 2.27784 2.0303 2.17139 2.12356C2.06446 2.21682 2.00196 2.3511 2.00001 2.4927C1.99757 2.66311 1.95899 6.68997 3.71387 9.00784C4.39014 9.90139 5.32227 10.3609 6.39356 10.3609C6.92744 10.3609 7.49714 10.239 8.08515 10.0072C9.39936 12.9735 9.55207 16.1235 9.41395 18.3608C5.65601 19.1305 3.2212 21.0813 3.18262 21.1138C2.96925 21.2886 2.93848 21.6035 3.11329 21.8169C3.21241 21.9375 3.35596 21.9995 3.5005 21.9995C3.61182 21.9995 3.72413 21.9629 3.8169 21.8867C3.85261 21.8581 5.99873 20.1563 9.32697 19.4057C9.23481 20.2519 9.12244 20.8712 9.06043 21.1677C9.03425 21.2849 9.01569 21.3716 9.00977 21.4009C9.00361 21.4314 9.01032 21.4603 9.00977 21.4903C9.00922 21.5233 9.00397 21.5562 9.00977 21.5881C9.01575 21.6214 9.03132 21.6504 9.04377 21.6814C9.05524 21.7099 9.06245 21.7397 9.07887 21.7656C9.09675 21.794 9.12232 21.8153 9.14552 21.8396C9.16669 21.8618 9.18427 21.8863 9.20948 21.9044C9.23847 21.9253 9.27369 21.9362 9.30732 21.9507C9.33198 21.9613 9.35249 21.9782 9.3794 21.9849C9.38355 21.9859 9.3877 21.9856 9.39185 21.9865C9.39515 21.9872 9.39753 21.9896 9.40089 21.9903C9.43458 21.9966 9.46778 22 9.5005 22C9.55762 22 9.61323 21.9896 9.6656 21.9712C9.68336 21.965 9.69782 21.9529 9.71467 21.9447C9.74751 21.9288 9.78089 21.914 9.80958 21.8914C9.82716 21.8775 9.83955 21.8586 9.85517 21.8424C9.87812 21.8187 9.90235 21.7966 9.92042 21.7683C9.93336 21.7481 9.93977 21.724 9.94984 21.7017C9.96192 21.6749 9.97791 21.6507 9.98536 21.6211C9.99311 21.5901 10.0156 21.4925 10.0436 21.3629C10.1282 20.9969 10.3237 20.2102 10.6596 19.1684C12.6161 18.9188 14.8814 19.0423 17.3228 19.9678C17.5825 20.0655 17.8691 19.9356 17.9678 19.6773C18.0654 19.419 17.9356 19.1304 17.6773 19.0323C15.2589 18.1154 13.0032 17.9365 11.0186 18.1255C11.5073 16.7747 12.1908 15.2021 13.0949 13.7014C13.9025 14.1995 14.7086 14.4214 15.4644 14.4214C16.5723 14.4214 17.5728 13.9834 18.3125 13.3902C21.5542 10.7935 21.9819 5.75198 21.9985 5.53909C22.0093 5.39993 21.9614 5.26272 21.8672 5.16067Z"/>
</svg>
