<svg xmlns="http://www.w3.org/2000/svg" viewBox="0 0 32 32"><path d="M6.372 5.375h5.098a.708.708 0 0 0 0-1.416H4.674a.708.708 0 0 0-.708.708v6.837a.708.708 0 0 0 1.416 0V6.39l6.146 6.135a.709.709 0 0 0 1.001-1.003L6.372 5.376zM27.327 19.829a.709.709 0 0 0-.708.708v5.079l-6.122-6.161a.707.707 0 1 0-1.005.997l6.134 6.172h-5.094a.709.709 0 0 0 0 1.416h6.797a.709.709 0 0 0 .708-.708v-6.796a.709.709 0 0 0-.708-.708zM11.521 19.471l-6.146 6.158V20.53a.708.708 0 0 0-1.416 0v6.797c0 .391.317.708.708.708h6.837a.709.709 0 0 0 0-1.416H6.389l6.136-6.147a.709.709 0 0 0-1.003-1zM27.333 3.966h-6.796a.708.708 0 0 0 0 1.416h5.078l-6.16 6.122a.707.707 0 1 0 .998 1.005l6.172-6.134v5.094a.709.709 0 0 0 1.416 0V4.673a.709.709 0 0 0-.708-.708z"/></svg>