<svg  viewBox="0 0 24 24"  xmlns="http://www.w3.org/2000/svg">
<path d="M19.0966 6.42181L19.9102 8.24896C19.9634 8.36859 19.967 8.50458 19.9199 8.62689C19.873 8.74933 19.7793 8.84796 19.6597 8.9013L17.8309 9.71551L16.8165 7.43695L14.5342 8.45306L13.5174 6.16919L15.7996 5.15307L14.7852 2.87469L16.614 2.06048C16.7336 2.00714 16.8696 2.00384 16.9919 2.05047C17.1142 2.09747 17.2128 2.1911 17.2663 2.31085L18.0798 4.13788L15.8013 5.15234L16.8181 7.43622L19.0966 6.42181Z" />
<path d="M12.5013 3.89154L13.5157 6.16992L11.2335 7.18603L12.2504 9.46991L14.5326 8.45379L15.5471 10.7324L13.2632 11.7491L12.2487 9.47064L9.96649 10.4868L8.94965 8.20288L11.2319 7.18677L10.2175 4.90838L12.5013 3.89154Z" />
<path d="M9.15375 13.5788C9.08856 13.6078 9.0202 13.6215 8.95306 13.6215C8.76385 13.6215 8.58344 13.5123 8.5014 13.3283L7.68793 11.5013L9.96484 10.4875L10.9792 12.7661L9.15375 13.5788Z" />
<path d="M6.67107 9.21747L8.94798 8.20367L7.93358 5.92529L6.10802 6.73804C5.98839 6.79126 5.89464 6.88989 5.84776 7.01233C5.80064 7.13464 5.80431 7.27063 5.85753 7.39026L6.67107 9.21747Z" />
<path d="M4.2754 7.53806C4.52784 7.42429 4.82374 7.53953 4.93506 7.79148L10.9648 21.3349C11.0776 21.5869 10.9639 21.8823 10.7114 21.9946C10.6455 22.0244 10.5767 22.0381 10.5088 22.0381C10.3169 22.0381 10.1343 21.9277 10.0518 21.7412L4.02198 8.19773C3.90967 7.94578 4.02295 7.65037 4.2754 7.53806Z" />
</svg>
