<svg  viewBox="0 0 24 24"  xmlns="http://www.w3.org/2000/svg">
<path d="M21.5 16.0039H20V5.50391C20 5.22754 19.7764 5.00391 19.5 5.00391H4.5C4.22363 5.00391 4 5.22754 4 5.50391V16.0039H2.5C2.22363 16.0039 2 16.2275 2 16.5039C2 18.0181 3.17773 18.9961 5 18.9961H19C20.8223 18.9961 22 18.0181 22 16.5039C22 16.2275 21.7764 16.0039 21.5 16.0039ZM5 6.00391H19V16.0039H18V7.49609C18 7.21973 17.7764 6.99609 17.5 6.99609H6.5C6.22363 6.99609 6 7.21973 6 7.49609V16.0039H5V6.00391ZM7 15.9961V7.99609H17V15.9961H7ZM19 17.9961H5C4.4834 17.9961 3.37793 17.8887 3.07715 17.0039H4.5H19.5H20.9229C20.6221 17.8887 19.5166 17.9961 19 17.9961Z" "/>
</svg>
