<svg  viewBox="0 0 24 24"  xmlns="http://www.w3.org/2000/svg">
<path d="M7.03716 15.9778C7.48198 15.9778 9.00151 15.8917 9.88237 14.789C10.0547 14.5728 10.0196 14.2577 9.80376 14.0845C9.58941 13.9133 9.27398 13.9485 9.10112 14.1628C8.48394 14.9367 7.27349 14.9759 7.03716 14.9759C6.76079 14.9759 6.53716 15.1999 6.53716 15.4768C6.53716 15.7537 6.76079 15.9778 7.03716 15.9778ZM11.1216 15.15C9.5645 16.963 7.0562 17.103 6.63628 16.9983C6.36577 16.9278 6.09624 17.0912 6.02837 17.3603C5.9605 17.6284 6.12261 17.9014 6.39019 17.9689C6.50249 17.9972 6.68853 18.0168 6.92925 18.0168C8.04448 18.0168 10.3321 17.6059 11.8794 15.8036C12.0596 15.5942 12.0362 15.2772 11.8267 15.0972C11.6163 14.9172 11.3008 14.9387 11.1216 15.15ZM21.0054 5.31693C19.3687 3.54012 16.2388 3.56458 14.0284 5.37074C13.4932 5.80809 13.1763 6.32372 12.897 6.77966C12.6285 7.21702 12.397 7.59371 12.0674 7.81092C11.9644 7.8481 11.5445 7.89408 11.1744 7.9342C9.66997 8.09857 6.87017 8.40384 5.10259 9.84701C3.30278 11.3166 2.14751 13.3302 2.01323 15.2322C1.92192 16.5296 2.29692 17.6744 3.09868 18.5432C4.002 19.5236 5.40825 20.001 6.9522 20.0001C8.86431 20.0001 10.9883 19.2692 12.629 17.8554C13.7251 16.9112 14.4312 15.5228 14.9468 14.5102C15.1705 14.0699 15.4493 13.5219 15.5723 13.4261C16.0484 13.1413 16.6241 13.0415 17.2334 12.9369C18.0938 12.7891 19.0684 12.6218 19.959 11.8939C21.1534 10.9184 21.8931 9.57599 21.9893 8.21109C22.0665 7.11526 21.7168 6.08792 21.0054 5.31693ZM19.3272 11.117C18.6402 11.6786 17.8746 11.8097 17.0645 11.9496C16.3912 12.0651 15.6949 12.1854 15.0582 12.567C14.7042 12.7803 14.4463 13.2871 14.0557 14.0552C13.5782 14.9935 12.9239 16.2801 11.9766 17.0961C9.44097 19.2799 5.48345 19.6537 3.83306 17.8642C3.22368 17.2028 2.93901 16.3173 3.01079 15.3027C3.12603 13.6716 4.14409 11.9222 5.73442 10.6239C7.27251 9.36758 9.88091 9.08286 11.2823 8.93023C12.0762 8.84413 12.3614 8.80793 12.565 8.67682C13.1294 8.31383 13.4444 7.80016 13.7486 7.3041C14.0098 6.87848 14.2564 6.47733 14.6602 6.14761C15.5992 5.38053 16.7286 4.99405 17.7779 4.99405C18.75 4.99405 19.6529 5.32573 20.271 5.99693C20.8008 6.57028 21.0503 7.31192 20.9917 8.13967C20.9151 9.2306 20.3082 10.3157 19.3272 11.117ZM18.6412 5.96171C18.2769 5.85897 16.4737 5.98715 15.6006 7.16516C15.4361 7.38726 15.482 7.70036 15.7037 7.86571C15.7935 7.93224 15.898 7.96453 16.0015 7.96453C16.1543 7.96453 16.3052 7.89506 16.4034 7.762C16.9346 7.04384 18.1666 6.89805 18.3917 6.9323C18.6519 6.99198 18.9131 6.83935 18.9859 6.58007C19.0611 6.31394 18.9068 6.03704 18.6412 5.96171Z" />
</svg>
