<svg width="24" height="24" viewBox="0 0 24 24" xmlns="http://www.w3.org/2000/svg">
<path d="M12.5 5.99994C13.3413 5.99994 14 5.12153 14 3.99994C14 2.87836 13.3413 1.99994 12.5 1.99994C11.6587 1.99994 11 2.87836 11 3.99994C11 5.12153 11.6587 5.99994 12.5 5.99994ZM12.5 2.99994C12.7041 2.99994 13 3.38959 13 3.99994C13 4.6103 12.7041 4.99994 12.5 4.99994C12.2959 4.99994 12 4.6103 12 3.99994C12 3.38959 12.2959 2.99994 12.5 2.99994ZM17.708 3.38569L17.9912 3.26264V5.49994C17.9912 5.77631 18.2149 5.99994 18.4912 5.99994C18.7676 5.99994 18.9912 5.77631 18.9912 5.49994V2.49994C18.9912 2.33149 18.9063 2.17426 18.7651 2.08198C18.624 1.9892 18.4453 1.97358 18.292 2.04145L17.3096 2.46869C17.0562 2.57905 16.94 2.87348 17.0503 3.12641C17.1607 3.37934 17.4546 3.49653 17.708 3.38569ZM18.5 10.9999C19.3413 10.9999 20 10.1215 20 8.99994C20 7.87836 19.3413 6.99994 18.5 6.99994C17.6587 6.99994 17 7.87836 17 8.99994C17 10.1215 17.6587 10.9999 18.5 10.9999ZM18.5 7.99994C18.7041 7.99994 19 8.38959 19 8.99994C19 9.6103 18.7041 9.99994 18.5 9.99994C18.2959 9.99994 18 9.6103 18 8.99994C18 8.38959 18.2959 7.99994 18.5 7.99994ZM20.9702 13.3295C20.8985 13.1318 20.7105 12.9999 20.5 12.9999H4.50001C4.28956 12.9999 4.10158 13.1318 4.0298 13.3295C3.95802 13.5278 4.01808 13.7495 4.1797 13.8842L10 18.7343V21.4999C10 21.7763 10.2236 21.9999 10.5 21.9999H14.5C14.7764 21.9999 15 21.7763 15 21.4999V18.7343L20.8203 13.8842C20.9819 13.7495 21.042 13.5278 20.9702 13.3295ZM14.1797 18.1157C14.0659 18.2109 14 18.3515 14 18.4999V20.9999H11V18.4999C11 18.3515 10.9341 18.2109 10.8203 18.1157L5.88087 13.9999H19.1192L14.1797 18.1157ZM6.50001 10.9999C7.34132 10.9999 8.00001 10.1215 8.00001 8.99994C8.00001 7.87836 7.34132 6.99994 6.50001 6.99994C5.6587 6.99994 5.00001 7.87836 5.00001 8.99994C5.00001 10.1215 5.6587 10.9999 6.50001 10.9999ZM6.50001 7.99994C6.70411 7.99994 7.00001 8.38959 7.00001 8.99994C7.00001 9.6103 6.70411 9.99994 6.50001 9.99994C6.29591 9.99994 6.00001 9.6103 6.00001 8.99994C6.00001 8.38959 6.29591 7.99994 6.50001 7.99994ZM12.4912 10.9999C12.7676 10.9999 12.9912 10.7763 12.9912 10.4999V7.49994C12.9912 7.33149 12.9063 7.17426 12.7651 7.08197C12.624 6.9892 12.4453 6.97309 12.292 7.04145L11.3096 7.46869C11.0562 7.57905 10.94 7.87348 11.0503 8.12641C11.1607 8.37983 11.4541 8.49701 11.708 8.38569L11.9912 8.26264V10.4999C11.9912 10.7763 12.2149 10.9999 12.4912 10.9999ZM5.70802 3.38569L5.99122 3.26264V5.49994C5.99122 5.77631 6.21486 5.99994 6.49122 5.99994C6.76759 5.99994 6.99122 5.77631 6.99122 5.49994V2.49994C6.99122 2.33149 6.90626 2.17426 6.76515 2.08198C6.62355 1.9892 6.44435 1.97358 6.292 2.04145L5.30958 2.46869C5.05616 2.57905 4.93995 2.87348 5.05031 3.12641C5.16115 3.37934 5.45363 3.49653 5.70802 3.38569Z"/>
</svg>
