<svg  viewBox="0 0 24 24"  xmlns="http://www.w3.org/2000/svg">
<path fill-rule="evenodd" clip-rule="evenodd" d="M11.3185 11.0574C11.4652 11.0096 11.6234 10.9832 11.7914 10.9832C12.6365 10.9832 13.2498 11.6281 13.2498 12.5166C13.2498 12.5236 13.2493 12.5305 13.2488 12.5373C13.2484 12.5429 13.248 12.5484 13.2479 12.554L13.248 12.5583L13.2484 12.5638C13.2487 12.5677 13.249 12.5717 13.2488 12.5757C13.2484 12.5824 13.2476 12.589 13.2468 12.5956C13.2461 12.6009 13.2454 12.6062 13.245 12.6116C13.227 12.896 13.1297 13.1582 12.9745 13.3765L12.9678 13.3856C12.9455 13.4165 12.9225 13.4467 12.898 13.4757C12.884 13.4924 12.869 13.5082 12.8543 13.5243L12.843 13.5367C12.8329 13.5478 12.8227 13.5589 12.812 13.5695C12.7852 13.5964 12.7572 13.6218 12.7284 13.6464C12.7241 13.6501 12.72 13.6541 12.7157 13.6577C12.5735 13.7768 12.409 13.8684 12.2286 13.9252L12.2239 13.9268C12.1909 13.9371 12.1571 13.9452 12.1232 13.9531C12.1173 13.9545 12.1115 13.956 12.1057 13.9576C12.1014 13.9587 12.0971 13.9599 12.0928 13.961C12.0885 13.962 12.0843 13.963 12.08 13.9639C12.0716 13.9656 12.0631 13.9668 12.0545 13.9679L12.0462 13.9691L12.0363 13.9706C11.9565 13.9844 11.875 13.9932 11.7914 13.9932C11.0153 13.9932 10.3808 13.3759 10.3372 12.601C10.337 12.5984 10.3365 12.5959 10.3359 12.5934L10.3352 12.5897L10.3346 12.5854C10.3004 12.1547 10.2815 11.276 10.3365 10.8146C10.4651 9.73499 11.3104 9.24316 12.0414 9.24316C12.2776 9.24316 12.572 9.31311 12.7573 9.41321C13.0002 9.54443 13.0908 9.84766 12.9597 10.0907C12.8289 10.3335 12.5254 10.4243 12.2822 10.2931C12.2437 10.2738 12.1221 10.2432 12.0414 10.2432C11.9363 10.2432 11.4077 10.2764 11.3295 10.9329C11.3252 10.9688 11.3217 11.0123 11.3185 11.0574ZM12.0686 12.8936C12.1727 12.8071 12.2337 12.675 12.2474 12.5405C12.2476 12.5369 12.2481 12.5334 12.2486 12.5299C12.2492 12.5255 12.2498 12.5212 12.2498 12.5166C12.2498 12.1826 12.0784 11.9832 11.7914 11.9832C11.5001 11.9832 11.333 12.1776 11.333 12.5166C11.356 12.7545 11.5188 12.9924 11.7914 12.9924C11.8254 12.9924 11.8574 12.9886 11.8879 12.9821C11.9013 12.9791 11.914 12.9745 11.9267 12.9699L11.937 12.9662L11.9494 12.9622C11.9572 12.9598 11.9651 12.9574 11.9724 12.9541C11.9851 12.9484 11.9969 12.9412 12.0087 12.934L12.0182 12.9282L12.03 12.9213C12.038 12.9167 12.046 12.9122 12.0533 12.9067C12.0561 12.9046 12.0586 12.9023 12.0612 12.9C12.0636 12.8978 12.066 12.8956 12.0686 12.8936Z" />
<path d="M9.83168 10.4629C9.74257 9.6991 9.19509 9.24316 8.3672 9.24316C8.05922 9.24316 7.65126 9.40955 7.47511 9.52979C7.24977 9.68347 7.19557 9.98535 7.34548 10.2133C7.49501 10.4414 7.80654 10.5031 8.03688 10.3571C8.10085 10.3165 8.29689 10.2465 8.3672 10.2432C8.79931 10.2432 8.82106 10.4293 8.83852 10.5787C8.85121 10.6877 8.84731 10.8391 8.75698 10.9406C8.68428 11.0223 8.55403 11.0677 8.39058 11.072C8.38806 11.0719 8.38557 11.0718 8.38309 11.0717C8.38189 11.0716 8.38069 11.0715 8.3795 11.0714C8.37712 11.0713 8.37474 11.0711 8.37234 11.071C8.37064 11.071 8.36893 11.0709 8.3672 11.0709H8.22096C7.94484 11.0709 7.72096 11.2948 7.72096 11.5709L7.7211 11.5723L7.72096 11.5736C7.72096 11.8497 7.94484 12.0736 8.22096 12.0736H8.3672C8.37123 12.0736 8.37516 12.0734 8.37909 12.0731C8.38264 12.0729 8.38619 12.0726 8.3898 12.0726C8.57994 12.0769 8.73334 12.1318 8.83241 12.2349C8.91677 12.3228 8.96034 12.4431 8.95522 12.574C8.94521 12.8286 8.76723 12.9932 8.50173 12.9932C8.25466 12.9932 7.90541 12.9209 7.72353 12.8538C7.46474 12.7588 7.17702 12.8909 7.08156 13.1501C6.98598 13.4092 7.11867 13.6968 7.37782 13.7922C7.64052 13.8889 8.10439 13.9932 8.50173 13.9932C9.29897 13.9932 9.92348 13.3999 9.95449 12.6135C9.97046 12.2084 9.82807 11.8281 9.55379 11.5425C9.78017 11.2536 9.87969 10.8744 9.83168 10.4629Z" />
<path fill-rule="evenodd" clip-rule="evenodd" d="M13.6606 10.6407C13.741 9.81787 14.3398 9.24316 15.1167 9.24316C15.8801 9.24316 16.5 9.82776 16.5908 10.6333C16.6394 11.0664 16.6482 12.0994 16.5908 12.6033C16.499 13.4084 15.8789 13.9932 15.1167 13.9932C14.3674 13.9932 13.7556 13.4094 13.6616 12.605C13.6018 12.0912 13.6196 11.0593 13.6606 10.6407ZM15.1167 12.9932C15.4075 12.9932 15.5696 12.7324 15.5972 12.4902C15.646 12.0604 15.6384 11.1127 15.5972 10.7451C15.571 10.5137 15.4294 10.2432 15.1167 10.2432C14.8125 10.2432 14.6792 10.4988 14.6558 10.738C14.6206 11.0986 14.6057 12.0663 14.6548 12.489C14.6841 12.74 14.8384 12.9932 15.1167 12.9932Z" />
<path fill-rule="evenodd" clip-rule="evenodd" d="M0.5 12C0.5 5.65894 5.65894 0.5 12 0.5C18.3411 0.5 23.5 5.65894 23.5 12C23.5 18.3411 18.3411 23.5 12 23.5C5.65894 23.5 0.5 18.3411 0.5 12ZM18 12C18 11.8205 17.9973 11.642 17.9922 11.4646C17.393 11.2841 16.9553 10.7298 16.9553 10.0751C16.9553 9.52657 17.2624 9.04832 17.7144 8.80138C17.6191 8.28162 17.5009 7.78004 17.3626 7.29884C15.7818 6.79379 13.9426 6.5 12 6.5C10.0574 6.5 8.21817 6.79381 6.63741 7.29887C6.23056 8.71432 6 10.3105 6 12C6 13.6895 6.23055 15.2857 6.63737 16.7011C8.21814 17.2062 10.0574 17.5 12 17.5C13.9426 17.5 15.7818 17.2062 17.3626 16.7011C17.7694 15.2857 18 13.6895 18 12ZM18.4136 9.62305C18.1609 9.62305 17.9553 9.82581 17.9553 10.0751C17.9553 10.3242 18.1609 10.527 18.4136 10.527C18.6663 10.527 18.8718 10.3242 18.8718 10.0751C18.8718 9.82581 18.6663 9.62305 18.4136 9.62305ZM18.9908 11.4078C18.9969 11.604 19 11.8014 19 12C19 13.5139 18.8193 14.9589 18.4943 16.2839C20.9169 15.2662 22.5 13.7097 22.5 12C22.5 10.2902 20.9168 8.7337 18.4943 7.71606C18.5692 8.02173 18.6373 8.33302 18.6964 8.65096C19.3656 8.78247 19.8718 9.37077 19.8718 10.0751C19.8718 10.6715 19.5085 11.1847 18.9908 11.4078ZM18.1372 6.47519C19.7241 7.03156 21.0403 7.80118 21.9721 8.7188C20.9657 5.66821 18.5987 3.23077 15.5905 2.13275C16.6555 3.18268 17.5373 4.68398 18.1372 6.47519ZM16.9669 6.11617C15.8867 3.33255 14.0634 1.5 12 1.5C9.93654 1.5 8.1133 3.33255 7.03311 6.11617C8.52933 5.72057 10.2105 5.5 12 5.5C13.7895 5.5 15.4706 5.72057 16.9669 6.11617ZM5.86284 6.47517C6.46266 4.68398 7.34445 3.18268 8.40945 2.13277C5.40138 3.23079 3.03429 5.6682 2.02789 8.71875C2.95966 7.80115 4.27596 7.03152 5.86284 6.47517ZM5 12C5 10.4861 5.18073 9.04108 5.50574 7.71608C3.08318 8.73372 1.5 10.2902 1.5 12C1.5 13.7097 3.08318 15.2662 5.50572 16.2839C5.18071 14.9589 5 13.5139 5 12ZM5.86282 17.5248C4.27589 16.9684 2.95963 16.1988 2.02785 15.2811C3.03421 18.3318 5.40134 20.7692 8.40947 21.8672C7.34447 20.8173 6.46266 19.316 5.86282 17.5248ZM7.03308 17.8838C8.11327 20.6675 9.93652 22.5 12 22.5C14.0634 22.5 15.8867 20.6674 16.9669 17.8838C15.4707 18.2794 13.7895 18.5 12 18.5C10.2105 18.5 8.52931 18.2794 7.03308 17.8838ZM18.1372 17.5248C17.5373 19.316 16.6555 20.8174 15.5905 21.8673C18.5987 20.7693 20.9658 18.3318 21.9722 15.2811C21.0404 16.1987 19.7241 16.9684 18.1372 17.5248Z" />
</svg>
