<svg  viewBox="0 0 24 24"  xmlns="http://www.w3.org/2000/svg">
<path d="M20.9175 18.7246C20.9038 18.7041 19.5474 16.626 18.9819 14.3594C18.2128 11.2783 18.004 7.55414 17.9642 6.67792C17.9855 6.62231 18 6.56311 18 6.5V3.5C18 3.22363 17.7764 3 17.5 3H6.5C6.37549 3 6.34961 3 4.354 3.68457C3.88525 3.84521 3.48926 3.98193 3.38721 4.0127C3.16553 4.06396 3 4.2627 3 4.5V7.5C3 7.50659 3.00348 7.51202 3.00372 7.51855C3.00348 7.52509 3 7.53052 3 7.53711V19.5C3 19.7764 3.22363 20 3.5 20C3.77637 20 4 19.7764 4 19.5V19V7.86871C4.12384 7.82782 4.29388 7.77051 4.50232 7.69977C4.52106 11.3424 4.71857 16.5231 5.18628 19C5.26495 19.4166 5.35107 19.7574 5.44543 20C5.47656 20.0801 5.50952 20.1369 5.54248 20.1951C5.55389 20.2152 5.56494 20.2413 5.57654 20.2587C5.58496 20.2713 5.59259 20.2936 5.60107 20.3047C5.60864 20.3146 5.62006 20.3178 5.62811 20.3269C5.66284 20.3659 5.70184 20.3975 5.74432 20.4222C5.75885 20.4306 5.77124 20.4417 5.78638 20.4484C5.8476 20.4756 5.91296 20.4922 5.97998 20.4922C6.08203 20.4922 6.18652 20.4609 6.27783 20.3955C6.49707 20.2402 6.54492 19.9268 6.39795 19.7012C6.36835 19.6558 6.33765 19.5729 6.30652 19.473C5.948 18.321 5.5119 13.6318 5.5011 7.35925C5.68524 7.29639 5.85803 7.23743 6.01459 7.18427C6.13702 12.9787 6.87268 17.1771 7.53558 19.3681C7.65295 19.756 7.76758 20.0828 7.87634 20.3424C7.94043 20.4954 8.00305 20.634 8.06201 20.7412C8.15039 20.9014 8.31885 21 8.5 21C8.51416 21 8.52832 20.999 8.54248 20.998C8.88818 20.9688 17.0503 20.2646 20.6064 19.4883C20.7676 19.4531 20.9009 19.3408 20.9629 19.1885C21.0249 19.0361 21.0083 18.8623 20.9175 18.7246ZM6 6.13409C5.78729 6.20508 5.47424 6.31189 4.98193 6.47998C4.63965 6.59717 4.28711 6.71777 4 6.81445V4.86279C4.15869 4.80908 4.37598 4.73438 4.67871 4.63037C5.06122 4.49927 5.59113 4.3175 6 4.18042V6.13409ZM7 4H17V6H7V4ZM8.80176 19.9717C8.18951 18.5203 7.14417 14.0518 7.01068 7H16.9787C17.044 8.25732 17.2811 11.6762 18.0112 14.6016C18.4307 16.2822 19.229 17.8252 19.7031 18.6504C16.3813 19.2715 10.3081 19.8369 8.80176 19.9717Z" />
</svg>
