<svg  viewBox="0 0 24 24"  xmlns="http://www.w3.org/2000/svg">
<path fill-rule="evenodd" clip-rule="evenodd" d="M15.4995 7C15.6323 7 15.7598 7.05273 15.8535 7.14648C15.9478 7.24023 16 7.36816 16 7.50098L15.9966 9.96094C15.9966 9.97266 15.9961 9.98438 15.9951 9.99609C15.9961 10.0205 15.9966 10.0439 15.9966 10.0479C15.9946 11.3994 14.873 12.499 13.4961 12.5H13.4937C12.8179 12.5 12.186 12.2393 11.7129 11.7666C11.2524 11.3057 10.999 10.6963 11 10.0498C11 10.0459 11.0005 10.0225 11.0015 9.99707C11.0005 9.98535 11 9.97363 11 9.96094L11.0034 7.50098C11.0039 7.22559 11.2275 7.00195 11.5029 7.00195L15.4995 7ZM13.4951 11.5C14.3218 11.499 14.9956 10.8477 14.9966 10.0469C14.9966 10.0186 14.999 9.98828 15.0039 9.95898H14.9966L14.9995 8L12.0029 8.00195L12 9.91406C12.0024 9.93848 12.0029 9.96289 12.002 9.9873C11.9995 10.4297 12.1489 10.7881 12.4204 11.0596C12.7041 11.3438 13.0855 11.5 13.4937 11.5H13.4951Z" "/>
<path fill-rule="evenodd" clip-rule="evenodd" d="M18.0001 3.51562L18.0168 5.0423L19.047 13.9424C19.0529 13.9932 19.0509 14.0439 19.0416 14.0928L17.8078 20.5928C17.7628 20.8291 17.5568 21 17.3165 21H9.49867C9.27662 21 9.09486 20.8532 9.02955 20.6531C9.02922 20.6522 9.0285 20.6515 9.02778 20.6508C9.02707 20.6501 9.02635 20.6494 9.02601 20.6484L5.06703 9.17285C4.97719 8.91309 5.11488 8.62891 5.37465 8.53809L8.99867 7.26898V3.52148C8.99867 3.24512 9.2223 3.02148 9.49867 3.02148H17.5001C17.7741 3.02148 17.9972 3.24219 18.0001 3.51562ZM14.9897 4.99896L17.0162 4.99744L17.0055 4.02148H14.9912L14.9897 4.99896ZM11.9828 5.00116L13.9897 4.99969L13.9912 4.02148H11.984L11.9828 5.00116ZM10.984 4.02148H9.99867V5.00262L10.9828 5.00189L10.984 4.02148ZM8.99867 17.5031V8.32819L6.17445 9.31738L8.99867 17.5031ZM9.99867 20H16.9025L18.0451 13.9814L17.1208 5.99738L9.99867 6.00262V20Z" "/>
</svg>
