<svg  viewBox="0 0 24 24"  xmlns="http://www.w3.org/2000/svg">
<path fill-rule="evenodd" clip-rule="evenodd" d="M17.8625 16.2918C17.3451 15.9915 16.7292 15.9104 16.1517 16.0668C15.7482 16.1743 15.3828 16.3928 15.0972 16.6975L8.84524 13.0345C8.9686 12.7031 9.03209 12.3524 9.03274 11.9988C9.03274 11.6328 8.96374 11.284 8.84374 10.9593L15.098 7.30079C15.3815 7.60229 15.7422 7.82129 16.1517 7.93079C16.7292 8.08687 17.345 8.00588 17.8625 7.70579C18.3837 7.40504 18.7572 6.91829 18.9132 6.33704C19.0692 5.75579 18.989 5.14829 18.6882 4.62629C18.0645 3.54959 16.6872 3.1806 15.6087 3.80129C15.09 4.09902 14.7119 4.59188 14.5587 5.17004C14.446 5.58762 14.4567 6.0289 14.5895 6.44054L8.34874 10.0908C7.77849 9.39509 6.92628 8.99184 6.02674 8.99204C4.36849 8.99204 3.01999 10.3413 3.01999 11.9988C3.01999 13.6563 4.36849 15.0055 6.02674 15.0055C6.92752 15.0055 7.78069 14.601 8.35099 13.9038L14.5887 17.5585C14.4563 17.9697 14.4456 18.4104 14.558 18.8275C14.7112 19.4057 15.0893 19.8985 15.608 20.1963C16.6863 20.8179 18.0643 20.4487 18.6875 19.3713C19.3081 18.2927 18.9395 16.9152 17.8625 16.2918ZM15.5232 5.42879C15.6683 4.88023 16.1648 4.49832 16.7322 4.49879C17.27 4.49823 17.7483 4.84038 17.9214 5.34947C18.0946 5.85856 17.9241 6.4214 17.4976 6.74884C17.071 7.07628 16.4833 7.09552 16.0362 6.79668C15.5892 6.49784 15.3822 5.94736 15.5217 5.42804L15.5232 5.42879ZM6.02599 14.0058C4.91974 14.0058 4.01899 13.1058 4.01899 11.9988C4.01899 10.8918 4.91899 9.99179 6.02599 9.99179C7.13299 9.99179 8.03299 10.8918 8.03299 11.9988C8.03299 13.1058 7.13299 14.0058 6.02599 14.0058ZM17.8212 18.871C17.602 19.2697 17.1843 19.5185 16.7294 19.5215C16.2745 19.5245 15.8536 19.2812 15.6291 18.8855C15.4046 18.4899 15.4118 18.0037 15.6477 17.6148C16.002 17.0309 16.7581 16.8373 17.3494 17.179C17.9407 17.5208 18.1504 18.2726 17.8212 18.871Z" "/>
</svg>
