<svg  viewBox="0 0 24 24"  xmlns="http://www.w3.org/2000/svg">
<path fill-rule="evenodd" clip-rule="evenodd" d="M16.9331 2.14844L21.8828 7.10352C21.9766 7.19727 22.0293 7.3252 22.0293 7.45703C22.0293 7.58984 21.9766 7.7168 21.8828 7.81055L16.9473 12.7393C16.8496 12.8369 16.7217 12.8857 16.5938 12.8857C16.4658 12.8857 16.3379 12.8369 16.2402 12.7393L14.437 10.9365C14.3896 10.8887 14.3521 10.833 14.3271 10.7705C14.2529 10.5879 14.2788 10.3418 14.4165 10.1992C14.708 9.89746 14.9248 9.80273 15.1582 9.71777C15.3014 9.66613 15.4056 9.62858 15.6182 9.4082C15.8413 9.17676 15.9316 8.7832 15.6016 8.46387C15.272 8.14746 14.8813 8.25 14.6567 8.48145C14.4609 8.68405 14.4206 8.79727 14.3652 8.95291L14.3647 8.9541C14.2954 9.14941 14.2085 9.39355 13.9092 9.70312C13.7173 9.90137 13.4019 9.9082 13.2036 9.71582L13.1304 9.64551L11.2827 7.79785C11.189 7.7041 11.1362 7.57715 11.1362 7.44434C11.1362 7.31152 11.189 7.18457 11.2827 7.09082L12.6627 5.71088C12.4667 5.63812 12.2288 5.5329 11.9111 5.22559C11.2271 4.56543 11.2095 3.55078 11.8696 2.86719C12.5303 2.18555 13.5435 2.16602 14.228 2.8252C14.5797 3.16541 14.6898 3.41901 14.7606 3.61395L16.2261 2.14844C16.3198 2.05469 16.4473 2.00195 16.5796 2.00195C16.7124 2.00195 16.8394 2.05469 16.9331 2.14844ZM15.5532 10.6387L16.5938 11.6787L20.8223 7.45703L16.5796 3.20898L15.063 4.72559C15.0586 4.72993 15.0535 4.73273 15.0483 4.73555C15.0439 4.73799 15.0394 4.74043 15.0354 4.7439C15.0343 4.74509 15.0336 4.74648 15.0329 4.74786C15.0322 4.7493 15.0315 4.75074 15.0303 4.75195C14.8403 4.9502 14.5229 4.95605 14.3232 4.76367C13.9951 4.44629 13.9097 4.2041 13.8408 4.00879C13.7876 3.85645 13.752 3.75586 13.5337 3.54492C13.3032 3.32324 12.9092 3.2334 12.5889 3.5625C12.2705 3.89258 12.3745 4.2832 12.606 4.50684C12.8068 4.70092 12.9184 4.74129 13.0695 4.79598L13.0747 4.79785C13.269 4.86621 13.5103 4.95215 13.8198 5.25C14.0186 5.44238 14.0244 5.75879 13.8325 5.95703C13.83 5.95968 13.8269 5.96139 13.8238 5.96309C13.821 5.96468 13.8181 5.96627 13.8157 5.96863C13.8147 5.96965 13.814 5.97085 13.8134 5.97205C13.8128 5.97329 13.8121 5.97453 13.811 5.97559L12.3433 7.44434L13.4478 8.54883C13.5205 8.35059 13.6284 8.10645 13.9375 7.78613C14.5996 7.10156 15.6143 7.08496 16.2959 7.74512C16.98 8.40527 16.9976 9.41895 16.3374 10.1035C15.9966 10.4561 15.7437 10.5674 15.5532 10.6387Z" "/>
<path fill-rule="evenodd" clip-rule="evenodd" d="M16.4985 13.9995C16.4993 13.9993 16.5001 13.999 16.501 13.999C16.7773 13.999 17.001 14.2227 17.001 14.499V21.5068C17.001 21.7832 16.7773 22.0068 16.501 22.0068H2.50732C2.23096 22.0068 2.00732 21.7832 2.00732 21.5068V7.49023C2.00732 7.21387 2.23096 6.99023 2.50732 6.99023H9.51611C9.79248 6.99023 10.0161 7.21387 10.0161 7.49023V10.043C10.0161 10.3193 9.79248 10.5986 9.51611 10.5986C9.0376 10.5986 8.79297 10.4502 8.61475 10.3418C8.47852 10.2588 8.396 10.209 8.11426 10.209C7.79248 10.209 7.44629 10.418 7.44629 10.877C7.44629 11.3359 7.79248 11.5449 8.11426 11.5449C8.38721 11.5449 8.48828 11.4941 8.6416 11.417L8.64415 11.4157C8.83707 11.3193 9.07713 11.1992 9.51611 11.1992C9.79248 11.1992 10.0161 11.4229 10.0161 11.6992V14.002H11.4541C11.3599 13.8057 11.248 13.5371 11.248 13.0752C11.248 12.124 11.9653 11.4072 12.9165 11.4072C13.8672 11.4072 14.5845 12.124 14.5845 13.0752C14.5845 13.5508 14.4771 13.8135 14.3804 14.002L16.4961 14C16.4969 14 16.4977 13.9998 16.4985 13.9995ZM9.01611 9.41895V7.99023H3.00732V14.002H5.19922C5.47559 14.002 5.69922 14.2256 5.69922 14.502C5.69922 14.9697 5.56592 15.2109 5.46826 15.3857L5.46776 15.3866C5.39333 15.5219 5.34375 15.612 5.34375 15.9033C5.34375 16.2246 5.55273 16.5713 6.01172 16.5713C6.4707 16.5713 6.67969 16.2246 6.67969 15.9033C6.67969 15.6318 6.62842 15.5303 6.55078 15.3779C6.45318 15.1847 6.33105 14.9429 6.33105 14.502C6.33105 14.2256 6.55469 14.002 6.83105 14.002H9.01611V12.3477C8.8252 12.4404 8.56299 12.5449 8.11426 12.5449C7.16357 12.5449 6.44629 11.8281 6.44629 10.877C6.44629 9.92578 7.16357 9.20898 8.11426 9.20898C8.55029 9.20898 8.80322 9.30176 9.01611 9.41895ZM9.01611 18.6729C9.01611 18.54 9.06885 18.4131 9.1626 18.3193C9.25635 18.2256 9.3833 18.1729 9.51611 18.1729C9.94043 18.1729 10.1606 18.2676 10.3853 18.3828C10.5244 18.4541 10.6162 18.501 10.9175 18.501C11.2393 18.501 11.5859 18.292 11.5859 17.833C11.5859 17.374 11.2393 17.165 10.9175 17.165C10.6476 17.165 10.5469 17.2165 10.3947 17.2943L10.3936 17.2949C10.2105 17.3887 9.95868 17.5176 9.51611 17.5176C9.23975 17.5176 9.01611 17.2939 9.01611 17.0176V15.002H7.48096C7.57422 15.1924 7.67969 15.4551 7.67969 15.9033C7.67969 16.8545 6.9624 17.5713 6.01172 17.5713C5.06104 17.5713 4.34375 16.8545 4.34375 15.9033C4.34375 15.4434 4.44482 15.1855 4.53955 15.002H3.00732V21.0068H9.01611V18.6729ZM10.0161 19.3164V21.0068H16.001V15H13.7505C13.5044 14.9648 13.23 14.7461 13.23 14.4971C13.23 14.0334 13.3612 13.7882 13.4569 13.6096C13.5334 13.4663 13.5845 13.3707 13.5845 13.0752C13.5845 12.7539 13.3755 12.4072 12.9165 12.4072C12.457 12.4072 12.248 12.7539 12.248 13.0752C12.248 13.3496 12.2999 13.4553 12.3786 13.6155L12.3794 13.6172C12.4761 13.8135 12.5962 14.0586 12.5962 14.4971C12.5962 14.6934 12.4814 14.8711 12.3032 14.9521C12.2383 14.9814 12.1567 15.002 12.0854 15.002H10.0161V16.3652C10.207 16.2705 10.4702 16.165 10.9175 16.165C11.8687 16.165 12.5859 16.8818 12.5859 17.833C12.5859 18.7842 11.8687 19.501 10.9175 19.501C10.4536 19.501 10.1978 19.4043 10.0161 19.3164Z" "/>
</svg>
