<svg width="24" height="24" viewBox="0 0 24 24"  xmlns="http://www.w3.org/2000/svg">
<path d="M21.5 4H2.5C2.36739 4 2.24021 4.05268 2.14645 4.14645C2.05268 4.24021 2 4.36739 2 4.5V16.511C2 16.6436 2.05268 16.7708 2.14645 16.8646C2.24021 16.9583 2.36739 17.011 2.5 17.011H9.492C9.452 17.654 9.268 18.157 8.928 18.492C8.409 19.004 7.66 18.98 7.682 19H6.5C6.36739 19 6.24021 19.0527 6.14645 19.1464C6.05268 19.2402 6 19.3674 6 19.5C6 19.6326 6.05268 19.7598 6.14645 19.8536C6.24021 19.9473 6.36739 20 6.5 20H17.5C17.6326 20 17.7598 19.9473 17.8536 19.8536C17.9473 19.7598 18 19.6326 18 19.5C18 19.3674 17.9473 19.2402 17.8536 19.1464C17.7598 19.0527 17.6326 19 17.5 19H16.39C16.378 18.994 15.661 19.004 15.142 18.492C14.801 18.157 14.617 17.654 14.577 17.012H21.5C21.6326 17.012 21.7598 16.9593 21.8536 16.8656C21.9473 16.7718 22 16.6446 22 16.512V4.5C22 4.36739 21.9473 4.24021 21.8536 4.14645C21.7598 4.05268 21.6326 4 21.5 4ZM9.793 19C10.2157 18.492 10.448 17.829 10.49 17.011H13.579C13.619 17.828 13.854 18.493 14.275 19H9.793ZM21 16.011H3V5H21V16.011Z"/>
</svg>
