<svg width="24" height="24" viewBox="0 0 24 24" fill="none" xmlns="http://www.w3.org/2000/svg">
<path d="M21.5 9H14V7.5C14 6.67285 13.3271 6 12.5 6H11.5C11.2246 6 11 5.77539 11 5.49951V4.5C11 4.22363 10.7764 4 10.5 4C10.2236 4 10 4.22363 10 4.5V5.49951C10 6.32666 10.6729 7 11.5 7H12.5C12.7754 7 13 7.22412 13 7.5V9H2.5C2.22363 9 2 9.22363 2 9.5V19.5C2 19.7764 2.22363 20 2.5 20H21.5C21.7764 20 22 19.7764 22 19.5V9.5C22 9.22363 21.7764 9 21.5 9ZM21 19H3V10H21V19ZM6.5 15H4.5C4.22363 15 4 15.2236 4 15.5V17.5C4 17.7764 4.22363 18 4.5 18H6.5C6.77637 18 7 17.7764 7 17.5V15.5C7 15.2236 6.77637 15 6.5 15ZM6 17H5V16H6V17ZM8.5 14H10.5C10.7764 14 11 13.7764 11 13.5V11.5C11 11.2236 10.7764 11 10.5 11H8.5C8.22363 11 8 11.2236 8 11.5V13.5C8 13.7764 8.22363 14 8.5 14ZM9 12H10V13H9V12ZM16.5 14H19.5C19.7764 14 20 13.7764 20 13.5V11.5C20 11.2236 19.7764 11 19.5 11H16.5C16.2236 11 16 11.2236 16 11.5V13.5C16 13.7764 16.2236 14 16.5 14ZM17 12H19V13H17V12ZM12 11.5V13.5C12 13.7764 12.2236 14 12.5 14H14.5C14.7764 14 15 13.7764 15 13.5V11.5C15 11.2236 14.7764 11 14.5 11H12.5C12.2236 11 12 11.2236 12 11.5ZM13 12H14V13H13V12ZM19.5 15H17.5C17.2236 15 17 15.2236 17 15.5V17.5C17 17.7764 17.2236 18 17.5 18H19.5C19.7764 18 20 17.7764 20 17.5V15.5C20 15.2236 19.7764 15 19.5 15ZM19 17H18V16H19V17ZM6.5 11H4.5C4.22363 11 4 11.2236 4 11.5V13.5C4 13.7764 4.22363 14 4.5 14H6.5C6.77637 14 7 13.7764 7 13.5V11.5C7 11.2236 6.77637 11 6.5 11ZM6 13H5V12H6V13ZM8 15.5V17.5C8 17.7764 8.22363 18 8.5 18H15.5C15.7764 18 16 17.7764 16 17.5V15.5C16 15.2236 15.7764 15 15.5 15H8.5C8.22363 15 8 15.2236 8 15.5ZM9 16H15V17H9V16Z" fill="#212121"/>
</svg>
