<svg  viewBox="0 0 24 24"  xmlns="http://www.w3.org/2000/svg">
<path fill-rule="evenodd" clip-rule="evenodd" d="M21.854 19.5655C21.338 17.8698 18.239 16.8108 15.872 16.462L15.8645 16.4605H15.8608C15.5661 16.4165 15.2699 16.3832 14.9728 16.3608L14.975 14.803C15.371 14.215 15.6515 13.4718 15.7993 12.586C15.9845 12.514 16.1945 12.3498 16.3858 12.0048C16.5583 11.6943 16.6948 11.2758 16.7705 10.8265C16.8703 10.2348 16.8898 9.175 16.5358 8.67926L16.5043 8.63801C16.532 7.7395 16.5073 5.71525 15.218 4.372C14.4463 3.568 13.3633 3.16 11.999 3.16C10.6348 3.16 9.55177 3.568 8.78002 4.372C7.49077 5.71525 7.46602 7.74025 7.49377 8.63801C7.48291 8.65148 7.4724 8.66523 7.46227 8.67926C7.10827 9.17576 7.12852 10.2355 7.22827 10.8265C7.30402 11.2758 7.44052 11.6935 7.61227 12.004C7.80277 12.3483 8.01202 12.5125 8.19877 12.5845C8.34652 13.471 8.62777 14.215 9.02377 14.803L9.02602 16.3615C6.63127 16.5408 2.72902 17.6448 2.14477 19.567C1.87402 20.458 2.06452 21.5478 2.07277 21.5935C2.13134 21.8547 2.38518 22.0235 2.64873 21.9765C2.91228 21.9295 3.09211 21.6834 3.05677 21.418C3.05527 21.409 2.90077 20.5165 3.10102 19.8588C3.40252 18.8673 5.62252 17.92 7.77877 17.527C8.22277 19.4748 9.95227 20.8878 11.999 20.8878C14.0458 20.8878 15.7753 19.4748 16.2193 17.527C18.3748 17.92 20.5948 18.8673 20.897 19.8588C21.0973 20.5158 20.9428 21.409 20.9413 21.418C20.8993 21.6868 21.0799 21.9399 21.3478 21.9876C21.6156 22.0353 21.8725 21.8603 21.926 21.5935C21.9343 21.5478 22.1248 20.458 21.854 19.567V19.5655ZM8.75377 11.5825C8.67784 11.5632 8.59842 11.5622 8.52202 11.5795C8.42527 11.4258 8.28952 11.1063 8.21452 10.66C8.12227 10.111 8.17552 9.56126 8.24527 9.33626C8.37144 9.26173 8.46004 9.13715 8.48902 8.99351C8.50013 8.94788 8.50493 8.90094 8.50327 8.854L8.50102 8.80525C8.47477 8.16475 8.39452 6.21625 9.50152 5.06275C10.0775 4.46275 10.9175 4.15825 11.999 4.15825C13.0805 4.15825 13.9213 4.46275 14.4973 5.06275C15.605 6.217 15.524 8.1655 15.4978 8.80525L15.4955 8.854C15.4935 8.9012 15.4983 8.94844 15.5098 8.99426C15.5392 9.13751 15.6277 9.26169 15.7535 9.33626C15.8233 9.56126 15.8765 10.111 15.7843 10.66C15.7093 11.1063 15.5735 11.4265 15.4768 11.5795C15.3418 11.549 15.2002 11.5759 15.0859 11.6539C14.9715 11.7318 14.8947 11.8537 14.8738 11.9905L14.8625 12.0783C14.7748 12.8185 14.588 13.4545 14.309 13.969C13.802 14.902 13.0468 15.355 11.9998 15.355C10.9528 15.355 10.1983 14.9013 9.69127 13.969C9.41227 13.4553 9.22552 12.8185 9.13777 12.0783C9.13471 12.0487 9.13096 12.0192 9.12652 11.9898C9.09551 11.7916 8.94827 11.6313 8.75377 11.5825ZM11.9998 19.8858C10.4783 19.8891 9.14922 18.8582 8.77402 17.3838C9.02804 17.3578 9.28299 17.3418 9.53827 17.3358C9.81044 17.3296 10.0277 17.107 10.0273 16.8348L10.0258 15.8028C10.5823 16.1643 11.2453 16.354 11.9998 16.354C12.7543 16.354 13.4173 16.1643 13.9738 15.8028L13.9723 16.8348C13.9718 17.1073 14.1896 17.33 14.462 17.3358C14.708 17.341 14.9645 17.3575 15.2263 17.3838C14.8511 18.8582 13.5212 19.8891 11.9998 19.8858Z" />
</svg>
