<svg width="24" height="24" viewBox="0 0 24 24" fill="none" xmlns="http://www.w3.org/2000/svg">
<path d="M11.5 7C9.57031 7 8 5.42969 8 3.5C8 3.22363 7.77637 3 7.5 3C7.22363 3 7 3.22363 7 3.5C7 5.42969 5.42969 7 3.5 7C3.22363 7 3 7.22363 3 7.5C3 7.77637 3.22363 8 3.5 8C5.42969 8 7 9.57031 7 11.5C7 11.7764 7.22363 12 7.5 12C7.77637 12 8 11.7764 8 11.5C8 9.57031 9.57031 8 11.5 8C11.7764 8 12 7.77637 12 7.5C12 7.22363 11.7764 7 11.5 7ZM8.5 14C8.22363 14 8 14.2236 8 14.5V15.5C8 15.7764 8.22363 16 8.5 16C8.77637 16 9 15.7764 9 15.5V14.5C9 14.2236 8.77637 14 8.5 14ZM4.5 12C3.67285 12 3 11.3271 3 10.5C3 10.2236 2.77637 10 2.5 10C2.22363 10 2 10.2236 2 10.5C2 11.3271 1.32715 12 0.5 12C0.223633 12 0 12.2236 0 12.5C0 12.7764 0.223633 13 0.5 13C1.32715 13 2 13.6729 2 14.5C2 14.7764 2.22363 15 2.5 15C2.77637 15 3 14.7764 3 14.5C3 13.6729 3.67285 13 4.5 13C4.77637 13 5 12.7764 5 12.5C5 12.2236 4.77637 12 4.5 12ZM11.5 12C11.2236 12 11 12.2236 11 12.5V18.5C11 18.7764 11.2236 19 11.5 19C11.7764 19 12 18.7764 12 18.5V12.5C12 12.2236 11.7764 12 11.5 12ZM20.5 7C20.2236 7 20 7.22363 20 7.5V19.5C20 19.7764 20.2236 20 20.5 20C20.7764 20 21 19.7764 21 19.5V7.5C21 7.22363 20.7764 7 20.5 7ZM23.5 11C23.2236 11 23 11.2236 23 11.5V15.5C23 15.7764 23.2236 16 23.5 16C23.7764 16 24 15.7764 24 15.5V11.5C24 11.2236 23.7764 11 23.5 11ZM14.5 6C14.2236 6 14 6.22363 14 6.5V20.5C14 20.7764 14.2236 21 14.5 21C14.7764 21 15 20.7764 15 20.5V6.5C15 6.22363 14.7764 6 14.5 6ZM17.5 9C17.2236 9 17 9.22363 17 9.5V17.5C17 17.7764 17.2236 18 17.5 18C17.7764 18 18 17.7764 18 17.5V9.5C18 9.22363 17.7764 9 17.5 9Z" fill="#212121"/>
</svg>
