<svg  viewBox="0 0 24 24"  xmlns="http://www.w3.org/2000/svg">
<path fill-rule="evenodd" clip-rule="evenodd" d="M10.5 9.0005H4.50023C4.3675 9.0007 4.24015 8.94806 4.14629 8.85421C4.05244 8.76035 3.9998 8.633 4 8.50027V3.50023C4 3.22349 4.22349 3 4.50023 3H10.5C10.776 3 11.0002 3.22349 11.0002 3.50023V8.50027C11.0002 8.77654 10.7762 9.0005 10.5 9.0005ZM5.00046 8.00079H10.0005V4.00121H5.00046V8.00079ZM10.5 21H4.50023C4.3675 21.0002 4.24015 20.9476 4.14629 20.8537C4.05244 20.7599 3.9998 20.6325 4 20.4998V11.4941C4 11.2182 4.22349 10.9939 4.50023 10.9939H10.5C10.776 10.9939 11.0002 11.2174 11.0002 11.4941V20.4998C11.0004 20.6325 10.9478 20.7599 10.8539 20.8537C10.7601 20.9476 10.6327 21.0002 10.5 21ZM5.00046 20.0003H10.0005V11.9951H5.00046V20.0003ZM19.4996 21H13.4999C13.3671 21.0002 13.2398 20.9476 13.1459 20.8537C13.0521 20.7599 12.9994 20.6325 12.9996 20.4998V15.4997C12.9996 15.223 13.2231 14.9995 13.4999 14.9995H19.4996C19.7763 14.9995 19.9998 15.223 19.9998 15.4997V20.4998C20 20.6325 19.9474 20.7599 19.8535 20.8537C19.7597 20.9476 19.6323 21.0002 19.4996 21ZM14.0001 20.0003H19.0001V16.0007H14.0001V20.0003ZM19.4996 13.0001H13.4999C13.3671 13.0003 13.2398 12.9476 13.1459 12.8538C13.0521 12.7599 12.9994 12.6326 12.9996 12.4999V3.50023C12.9996 3.22349 13.2231 3 13.4999 3H19.4996C19.7763 3 19.9998 3.22349 19.9998 3.50023V12.4999C20 12.6326 19.9474 12.7599 19.8535 12.8538C19.7597 12.9476 19.6323 13.0003 19.4996 13.0001ZM14.0001 12.0004H19.0001V4.00046H14.0001V12.0004Z" />
</svg>
