<svg width="24" height="24" viewBox="0 0 24 24" fill="none" xmlns="http://www.w3.org/2000/svg">
<path d="M5.5 13C5.22363 13 5 13.2236 5 13.5C5 13.7764 5.22363 14 5.5 14H10.5C10.7764 14 11 13.7764 11 13.5C11 13.2236 10.7764 13 10.5 13H5.5ZM15.5 20H3V4H15V9.96631C15 10.2427 15.2236 10.4663 15.5 10.4663C15.7764 10.4663 16 10.2427 16 9.96631V3.5C16 3.22363 15.7764 3 15.5 3H2.5C2.22363 3 2 3.22363 2 3.5V20.5C2 20.7764 2.22363 21 2.5 21H15.5C15.7764 21 16 20.7764 16 20.5C16 20.2236 15.7764 20 15.5 20ZM13 10.5C13 10.2236 12.7764 10 12.5 10H5.5C5.22363 10 5 10.2236 5 10.5C5 10.7764 5.22363 11 5.5 11H12.5C12.7764 11 13 10.7764 13 10.5ZM20.8037 12.647C20.6084 12.4517 20.292 12.4517 20.0967 12.647C19.9014 12.8423 19.9014 13.1587 20.0967 13.354C21.2798 14.5376 21.2798 16.4634 20.0967 17.647C19.9014 17.8423 19.9014 18.1587 20.0967 18.354C20.1943 18.4517 20.3223 18.5005 20.4502 18.5005C20.5781 18.5005 20.7061 18.4517 20.8037 18.354C22.377 16.7803 22.377 14.2202 20.8037 12.647ZM19.4536 14.147C19.2583 13.9517 18.9419 13.9517 18.7466 14.147C18.5513 14.3423 18.5513 14.6587 18.7466 14.854C19.103 15.2104 19.103 15.7905 18.7466 16.147C18.5513 16.3423 18.5513 16.6587 18.7466 16.854C18.8442 16.9517 18.9722 17.0005 19.1001 17.0005C19.228 17.0005 19.356 16.9517 19.4536 16.854C19.8149 16.4927 20.0142 16.0117 20.0142 15.5005C20.0142 14.9893 19.8149 14.5083 19.4536 14.147ZM17.7358 11.0596C17.5742 10.9722 17.3755 10.9829 17.2227 11.0845L14.3486 13.0005H12.5C12.2236 13.0005 12 13.2241 12 13.5005V17.5005C12 17.7769 12.2236 18.0005 12.5 18.0005H14.3486L17.2227 19.9165C17.3062 19.9722 17.4028 20.0005 17.5 20.0005C17.5811 20.0005 17.6621 19.981 17.7358 19.9414C17.8984 19.8545 18 19.6851 18 19.5005V11.5005C18 11.3159 17.8984 11.1465 17.7358 11.0596ZM14 17.0005H13V14.0005H14V17.0005ZM17 18.5664L15 17.2329V13.7681L17 12.4346V18.5664ZM12.5 7H5.5C5.22363 7 5 7.22363 5 7.5C5 7.77637 5.22363 8 5.5 8H12.5C12.7764 8 13 7.77637 13 7.5C13 7.22363 12.7764 7 12.5 7Z" fill="#212121"/>
</svg>
