<svg  viewBox="0 0 24 24"  xmlns="http://www.w3.org/2000/svg">
<path d="M11.0303 10.0303H13.2803C13.5566 10.0303 13.7803 10.2539 13.7803 10.5303C13.7803 10.8066 13.5566 11.0303 13.2803 11.0303H11.0303V13.2803C11.0303 13.5566 10.8066 13.7803 10.5303 13.7803C10.2539 13.7803 10.0303 13.5566 10.0303 13.2803V11.0303H7.78027C7.50391 11.0303 7.28027 10.8066 7.28027 10.5303C7.28027 10.2539 7.50391 10.0303 7.78027 10.0303H10.0303V7.78027C10.0303 7.50391 10.2539 7.28027 10.5303 7.28027C10.8066 7.28027 11.0303 7.50391 11.0303 7.78027V10.0303Z" />
<path fill-rule="evenodd" clip-rule="evenodd" d="M15.5037 14.7504L19.8564 19.1377C20.0518 19.334 20.0498 19.6504 19.8545 19.8447C19.7568 19.9424 19.6289 19.9902 19.502 19.9902C19.373 19.9902 19.2451 19.9414 19.1475 19.8428L14.7987 15.4595C13.6525 16.4533 12.1618 17.0596 10.5293 17.0596C6.92871 17.0596 4 14.1309 4 10.5303C4 6.92969 6.92871 4 10.5293 4C14.1299 4 17.0596 6.92969 17.0596 10.5303C17.0596 12.139 16.4719 13.6111 15.5037 14.7504ZM5 10.5303C5 13.5791 7.48047 16.0596 10.5293 16.0596C13.5791 16.0596 16.0596 13.5791 16.0596 10.5303C16.0596 7.48047 13.5791 5 10.5293 5C7.48047 5 5 7.48047 5 10.5303Z" />
</svg>
