<svg  viewBox="0 0 24 24"  xmlns="http://www.w3.org/2000/svg">
<path d="M16.0001 15.0019C15.7317 15.0019 15.4764 15.0487 15.2286 15.1151C15.2098 15.0936 15.1976 15.0683 15.1749 15.0498L12.8289 13.1473C13.0484 12.4098 13.046 11.6285 12.837 10.8978L15.1944 8.95407C15.2147 8.93734 15.2249 8.9144 15.242 8.89535C15.3958 8.93539 15.5513 8.97177 15.713 8.98727C15.8106 8.99704 15.9083 9.00192 16.0059 9.00192C16.6993 9.00192 17.3663 8.76364 17.9092 8.31637C18.5274 7.80661 18.9102 7.08688 18.9864 6.28903C19.0635 5.49118 18.8253 4.71188 18.3155 4.09274C17.2608 2.81637 15.3653 2.63473 14.0919 3.68649C13.3128 4.32956 12.9471 5.28671 13.0157 6.22519C12.9988 6.23593 12.9796 6.23983 12.9639 6.2529L10.4752 8.30392C8.89215 7.67502 7.02276 8.0914 5.89361 9.48141C5.22076 10.3115 4.91119 11.3535 5.02154 12.416C5.13287 13.4785 5.65045 14.4345 6.47955 15.1084C7.19928 15.6914 8.07818 16.0019 8.99225 16.0019C9.13287 16.0019 9.2735 15.9951 9.41412 15.9804C9.7713 15.943 10.1092 15.8438 10.4359 15.7181L12.9688 17.7734C12.9847 17.7862 13.0032 17.7915 13.0203 17.8021C13.0157 17.8694 13.0001 17.9334 13.0001 18.0019C13.0001 19.6562 14.3458 21.0019 16.0001 21.0019C17.6544 21.0019 19.0001 19.6562 19.0001 18.0019C19.0001 16.3476 17.6544 15.0019 16.0001 15.0019ZM14.7286 4.45797C15.5772 3.7568 16.8409 3.8779 17.544 4.72946C18.2452 5.58004 18.1241 6.84372 17.2725 7.54489C16.4219 8.24704 15.1573 8.12594 14.4571 7.2734C13.7559 6.42282 13.878 5.16012 14.7286 4.45797ZM13.2957 7.2756C13.3997 7.49728 13.5228 7.71261 13.6856 7.91012C13.8528 8.11313 14.0496 8.28024 14.2576 8.43002L12.4156 9.94882C12.1824 9.55966 11.8924 9.19735 11.5206 8.89547V8.8945C11.4871 8.86752 11.449 8.85116 11.4153 8.82553L13.2957 7.2756ZM7.11041 14.331C5.82525 13.289 5.62799 11.3965 6.67096 10.1123C7.17584 9.48922 7.89264 9.10055 8.68951 9.01754C8.79596 9.0068 8.90143 9.00094 9.0069 9.00094C9.69147 9.00094 10.3506 9.23434 10.8897 9.67087C12.1749 10.7138 12.3712 12.6074 11.3292 13.8916C10.2872 15.1767 8.39459 15.373 7.11041 14.331ZM13.2867 16.7422L11.3834 15.1977C11.6461 15.0013 11.8943 14.7835 12.1065 14.5224C12.2191 14.3836 12.3033 14.232 12.3943 14.0836L14.242 15.5824C13.8323 15.8808 13.503 16.2784 13.2867 16.7422ZM16.0001 20.0019C14.8975 20.0019 14.0001 19.1045 14.0001 18.0019C14.0001 16.8994 14.8975 16.0019 16.0001 16.0019C17.1026 16.0019 18.0001 16.8994 18.0001 18.0019C18.0001 19.1045 17.1026 20.0019 16.0001 20.0019Z" />
</svg>
