<svg viewBox="0 0 24 24" xmlns="http://www.w3.org/2000/svg">
<path d="M11.5252 10.9225C11.111 10.9225 10.7752 11.2583 10.7752 11.6725C10.7752 12.0867 11.111 12.4225 11.5252 12.4225C11.9395 12.4225 12.2752 12.0867 12.2752 11.6725C12.2752 11.2583 11.9395 10.9225 11.5252 10.9225ZM11.5 13C11.2236 13 11 13.2236 11 13.5V15.5C11 15.7764 11.2236 16 11.5 16C11.7764 16 12 15.7764 12 15.5V13.5C12 13.2236 11.7764 13 11.5 13ZM21.5 2.99805H2.5C2.22363 2.99805 2 3.22168 2 3.49805V19.498C2 19.7744 2.22363 19.998 2.5 19.998H17.4901C17.4935 19.9981 17.4966 20 17.5 20C17.5034 20 17.5067 19.9981 17.5101 19.998H21.5C21.7764 19.998 22 19.7744 22 19.498V3.49805C22 3.22168 21.7764 2.99805 21.5 2.99805ZM21 18.998H17.7062L15.0105 16.2807C15.6203 15.5128 16 14.5546 16 13.5C16 11.0186 13.9814 9 11.4995 9C9.01855 9 7 11.0186 7 13.5C7 15.9814 9.01855 18 11.4995 18C12.5659 18 13.5336 17.6119 14.3056 16.9899L16.2978 18.998H3V7.99805H21V18.998ZM15 13.5C15 14.4334 14.6272 15.2779 14.0294 15.9061C14.0107 15.9202 13.9887 15.9272 13.9717 15.9443C13.9513 15.9646 13.9419 15.9905 13.9257 16.0131C13.2957 16.6213 12.4423 17 11.4995 17C9.56982 17 8 15.4297 8 13.5C8 11.5703 9.56982 10 11.4995 10C13.4297 10 15 11.5703 15 13.5ZM21 6.99805H3V3.99805H21V6.99805ZM8.50018 5.99786C8.77618 5.99786 9 5.77411 9 5.49805C9 5.22198 8.77618 4.99823 8.50018 4.99823C8.22418 4.99823 8.00037 5.22198 8.00037 5.49805C8.00037 5.77411 8.22418 5.99786 8.50018 5.99786ZM4.50018 5.99786C4.77618 5.99786 5 5.77411 5 5.49805C5 5.22198 4.77618 4.99823 4.50018 4.99823C4.22418 4.99823 4.00037 5.22198 4.00037 5.49805C4.00037 5.77411 4.22418 5.99786 4.50018 5.99786ZM6.50018 5.99786C6.77618 5.99786 7 5.77411 7 5.49805C7 5.22198 6.77618 4.99823 6.50018 4.99823C6.22418 4.99823 6.00037 5.22198 6.00037 5.49805C6.00037 5.77411 6.22418 5.99786 6.50018 5.99786Z" />
</svg>
