<svg  viewBox="0 0 24 24"  xmlns="http://www.w3.org/2000/svg">
<path d="M21.4994 3.06C21.6319 3.05989 21.759 3.11251 21.8526 3.20625C21.9464 3.2999 21.9998 3.427 21.9996 3.5595L21.9989 13.5592C21.9991 13.692 21.9465 13.8193 21.8526 13.9132C21.7587 14.0071 21.6314 14.0597 21.4986 14.0595H13.8179V13.0598H20.9984L20.9991 4.05975H9.99589V5.57025H8.99614V3.56025C8.99614 3.42757 9.04884 3.30033 9.14266 3.20652C9.23647 3.1127 9.36371 3.06 9.49639 3.06H21.4994Z" />
<path fill-rule="evenodd" clip-rule="evenodd" d="M17.2491 6.58425C17.2491 6.16725 16.7796 6.05625 16.5014 6.05625C16.1039 6.05591 15.7748 6.36521 15.7506 6.762L15.7499 7.9155H18.4994C18.7757 7.9155 18.9996 8.13947 18.9996 8.41575V11.5545C18.9998 11.6872 18.9472 11.8146 18.8533 11.9085C18.7595 12.0023 18.6321 12.0549 18.4994 12.0548H14.4996C14.2229 12.0548 13.9994 11.8305 13.9994 11.5545V8.41575C13.9992 8.28301 14.0518 8.15566 14.1457 8.0618C14.2395 7.96794 14.3669 7.9153 14.4996 7.9155H14.7501L14.7516 6.7125C14.8041 5.784 15.5714 5.05745 16.5014 5.05575C17.5146 5.05575 18.2496 5.6985 18.2496 6.58425C18.2496 6.86053 18.0257 7.0845 17.7494 7.0845C17.4731 7.0845 17.2491 6.86053 17.2491 6.58425ZM17.9991 11.0542H14.9991V8.91525H17.9991V11.0542Z" />
<path fill-rule="evenodd" clip-rule="evenodd" d="M11.7119 15.5798V16.533C13.4909 16.7145 16.3206 17.6415 16.7121 18.9938C16.8974 19.6635 16.7819 20.436 16.7669 20.5223C16.7138 20.7856 16.4622 20.9599 16.197 20.9172C15.9318 20.8745 15.7476 20.6299 15.7799 20.3633C15.8084 20.1885 15.8564 19.6508 15.7506 19.2668C15.5909 18.7133 14.1074 18.015 12.6224 17.6873C12.0906 19.1363 10.8269 20.1203 9.41089 20.1203C7.99339 20.1203 6.73039 19.137 6.19939 17.6873C4.71364 18.015 3.22714 18.7148 3.06589 19.272C2.94394 19.7126 3.02994 20.3169 3.03628 20.3614L3.03664 20.364C3.07508 20.6341 2.88994 20.8853 2.62051 20.9284C2.35108 20.9716 2.09677 20.7909 2.04889 20.5223C2.03464 20.436 1.91914 19.6635 2.10289 18.9998C2.49514 17.643 5.32414 16.7153 7.10314 16.5338V15.4875C6.81514 15.0334 6.61445 14.5295 6.51139 14.0017C6.47614 13.9845 6.44164 13.9635 6.40864 13.9403C5.98789 13.6425 5.82814 12.9323 5.77864 12.6413C5.72164 12.3022 5.71489 11.9213 5.75989 11.5965C5.79739 11.3302 5.86789 11.1217 5.97139 10.9725C5.95189 9.5655 6.28189 8.511 6.95314 7.81125C7.54564 7.19475 8.37139 6.882 9.40789 6.882C10.4444 6.882 11.2694 7.194 11.8611 7.8105C12.8196 8.80875 12.8631 10.2802 12.8459 10.9755C13.1256 11.373 13.1136 12.1882 13.0364 12.6405C12.9876 12.9315 12.8279 13.641 12.4071 13.9395C12.3764 13.9613 12.3449 13.9808 12.3126 13.9972C12.1964 14.6272 11.9901 15.1538 11.7119 15.5798ZM6.76414 12.4733C6.79298 12.6638 6.84906 12.8492 6.93064 13.0238L6.93214 13.0245C7.18035 13.0225 7.39269 13.2024 7.43164 13.4475C7.53364 14.178 7.92664 15.792 9.45589 15.792C10.8164 15.792 11.2514 14.5538 11.3766 13.515C11.4014 13.3117 11.5499 13.119 11.7479 13.0665C11.7891 13.0553 11.8313 13.0485 11.8739 13.0463C11.9301 12.939 12.0051 12.7448 12.0509 12.474C12.1116 12.1147 12.0816 11.76 12.0419 11.6017C11.9496 11.529 11.8806 11.4262 11.8521 11.3085C11.8409 11.2639 11.8364 11.2179 11.8386 11.172C11.8881 9.92475 11.6526 9.03675 11.1396 8.50275C10.7436 8.09025 10.1624 7.881 9.40789 7.881C8.65339 7.881 8.07064 8.09025 7.67464 8.50275C7.16089 9.0375 6.92614 9.9255 6.97564 11.142C6.97832 11.1991 6.97379 11.2563 6.96214 11.3122C6.93267 11.4263 6.86653 11.5275 6.77389 11.6002C6.73414 11.7585 6.70339 12.1132 6.76414 12.4733ZM9.40864 19.1198C8.47414 19.1198 7.62814 18.4875 7.20739 17.5343C7.24496 17.5309 7.28281 17.5272 7.32065 17.5234C7.41955 17.5135 7.51834 17.5036 7.61164 17.502C7.88381 17.4963 8.10145 17.274 8.10139 17.0018V16.4445C8.49889 16.6658 8.95039 16.7918 9.45364 16.7918H9.45514C9.92464 16.7918 10.3416 16.683 10.7114 16.4933V17.0018C10.7114 17.274 10.9289 17.496 11.2011 17.502C11.3009 17.5043 11.4072 17.5149 11.513 17.5255C11.5457 17.5287 11.5783 17.532 11.6106 17.535C11.1891 18.4875 10.3409 19.1198 9.40864 19.1198Z" />
</svg>
