<svg width="24" height="24" viewBox="0 0 24 24" fill="none" xmlns="http://www.w3.org/2000/svg">
<path d="M17 20.25C16.5858 20.25 16.25 20.5858 16.25 21C16.25 21.4142 16.5858 21.75 17 21.75C17.4142 21.75 17.75 21.4142 17.75 21C17.75 20.5858 17.4142 20.25 17 20.25ZM19.75 19C19.75 18.5858 19.4142 18.25 19 18.25C18.5858 18.25 18.25 18.5858 18.25 19C18.25 19.4142 18.5858 19.75 19 19.75C19.4142 19.75 19.75 19.4142 19.75 19ZM20 20.25C19.5858 20.25 19.25 20.5858 19.25 21C19.25 21.4142 19.5858 21.75 20 21.75C20.4142 21.75 20.75 21.4142 20.75 21C20.75 20.5858 20.4142 20.25 20 20.25ZM19 4.3371V2.5C19 2.22363 18.7764 2 18.5 2H7.50002C7.22365 2 7.00002 2.22363 7.00002 2.5V4.32837C6.55513 4.90265 5.00002 7.0141 5.00002 8.5V12.6848C4.55452 12.977 4.15022 13.2976 3.81447 13.665C2.41017 15.2031 2.53957 16.8242 2.54543 16.8926C2.57033 17.167 2.81251 17.3809 3.08498 17.3438C3.13307 17.3398 3.17537 17.3215 3.21828 17.3051C3.41981 17.228 3.55885 17.0319 3.54152 16.8057C3.53761 16.7539 3.45705 15.5225 4.57375 14.3174C5.92287 12.8604 8.47951 12.0615 11.9844 11.9971C11.8594 13.1738 11.0308 16.7598 8.68703 18.6689C7.4615 19.669 6.01686 19.7274 4.57674 18.8722C5.42958 17.6359 6.57906 16.3022 7.94142 15.5615C8.1841 15.4297 8.27394 15.126 8.14211 14.8828C8.00978 14.6416 7.70607 14.5518 7.46388 14.6826C5.87599 15.5463 4.58076 17.0721 3.65242 18.4426C2.65871 19.9095 2.08595 21.1983 2.04152 21.2998C1.93117 21.5527 2.04689 21.8477 2.29982 21.958C2.36525 21.9863 2.43312 22 2.49953 22C2.6924 22 2.87599 21.8877 2.95802 21.7002C2.96681 21.6805 3.35139 20.8121 4.03139 19.7059C4.8683 20.2103 5.72267 20.4785 6.55617 20.4785C7.5298 20.4785 8.47267 20.1338 9.31886 19.4443C9.54689 19.2585 9.7585 19.0549 9.9623 18.8438C10.0057 18.9881 10.0334 19.1342 10.0923 19.2764C10.7236 20.8008 12.126 21.8662 13.666 21.9902C13.7539 21.998 13.8501 22 13.9468 22C14.25 22 14.5542 21.9736 14.5972 21.9697C14.7778 21.9531 14.9351 21.8398 15.0088 21.6738C15.082 21.5088 15.0601 21.3154 14.9512 21.1709C14.8916 21.0918 14.7793 20.9219 14.7305 20.8047C14.5879 20.46 14.7525 20.0635 15.0947 19.9219C15.1831 19.8887 15.5039 19.8662 15.6416 19.8809C15.8262 19.9082 16.0518 19.8174 16.1597 19.665C16.2456 19.543 16.3179 19.3379 16.1738 19.0596C16.1289 18.9512 16.1289 18.8311 16.1738 18.7217C16.2193 18.6133 16.3037 18.5283 16.4126 18.4834C16.6934 18.3662 16.9732 18.4805 17.0386 18.5713C17.1616 18.7441 17.3779 18.8154 17.5811 18.7598C17.7837 18.7031 17.9292 18.5225 17.9448 18.3115C17.9522 18.2119 17.9976 18.0918 18.0264 18.0693C18.0918 18.042 18.1724 18.0371 18.1997 18.0293C18.3472 18.0615 18.5015 18.0254 18.6187 17.9307C18.7363 17.8369 18.8052 17.6943 18.8057 17.543C18.8074 17.1634 18.7336 16.8063 18.6372 16.4813L20.6211 15.9854C20.8438 15.9297 21 15.7295 21 15.5V8.5C21 7.17438 19.4258 4.92242 19 4.3371ZM8.00002 3H18V4H8.00002V3ZM6.00002 12.1292V8.5C6.00002 7.50195 7.14894 5.78418 7.74464 5H17.5401C16.9126 5.94629 16 7.49512 16 8.5V13.4144C14.9993 12.9913 13.8505 12.9429 12.7599 13.3268C12.9834 12.3494 13.0354 11.597 12.9512 11.3604C12.8804 11.1611 12.6597 10.9932 12.4483 10.9932C9.78096 10.9932 7.63033 11.3785 6.00002 12.1292ZM17.6426 17.1465C17.4361 17.2314 17.2905 17.3691 17.1885 17.5195C16.8272 17.4014 16.4048 17.4043 16.0303 17.5596C15.6748 17.7061 15.3975 17.9834 15.25 18.3389C15.1768 18.5166 15.1397 18.7031 15.1441 18.8984C14.9893 18.916 14.835 18.9473 14.7139 18.9971C13.9243 19.3242 13.5171 20.1895 13.7398 20.9932C12.5733 20.8965 11.5044 20.0732 11.0161 18.8936C10.8764 18.5561 10.8107 18.2094 10.7803 17.8634C11.5233 16.8257 12.0501 15.657 12.404 14.593C12.5651 14.4925 12.7296 14.3954 12.9107 14.3203C13.3472 14.1396 13.7993 14.0547 14.2451 14.0547C15.6192 14.0547 16.9258 14.8682 17.4834 16.2148C17.6265 16.5596 17.7173 16.8438 17.7652 17.1016C17.7207 17.1152 17.6797 17.1309 17.6426 17.1465ZM20 15.1094L18.2534 15.546C17.9451 14.9321 17.5158 14.4189 17 14.0192V8.5C17 7.80206 17.8056 6.39136 18.5 5.36761C19.1945 6.39136 20 7.80206 20 8.5V15.1094Z" fill="#212121"/>
</svg>
