<svg xmlns="http://www.w3.org/2000/svg" viewBox="0 0 32 32"><path d="M26.667 6.667H20v-2A.666.666 0 0 0 19.333 4H14a.667.667 0 0 0-.667.667v2H6.666a.666.666 0 1 0 0 1.334h1.333v19.362c0 .369.298.667.667.667h16a.666.666 0 0 0 .667-.667V8.001h1.333a.666.666 0 1 0 0-1.334zm-12-1.334h4v1.333h-4V5.333zM24 26.695H9.333V8.029H24v18.666z"/><path d="M12.667 22.68a.667.667 0 0 0 .667-.667v-9.334a.667.667 0 1 0-1.334 0v9.334c0 .369.298.667.667.667zM16.667 22.68a.666.666 0 0 0 .667-.667v-9.334a.667.667 0 1 0-1.334 0v9.334c0 .369.298.667.667.667zM20.667 22.68a.666.666 0 0 0 .667-.667v-9.334a.667.667 0 1 0-1.334 0v9.334c0 .369.298.667.667.667z"/></svg>