<svg  viewBox="0 0 24 24"  xmlns="http://www.w3.org/2000/svg">
<path fill-rule="evenodd" clip-rule="evenodd" d="M4.18164 12C4.18164 9.61865 6.11914 7.68164 8.5 7.68164C10.8809 7.68164 12.8184 9.61865 12.8184 12C12.8184 14.3813 10.8809 16.3184 8.5 16.3184C6.11914 16.3184 4.18164 14.3813 4.18164 12ZM5.18164 12C5.18164 13.8296 6.66992 15.3184 8.5 15.3184C10.3301 15.3184 11.8184 13.8296 11.8184 12C11.8184 10.1704 10.3301 8.68164 8.5 8.68164C6.66992 8.68164 5.18164 10.1704 5.18164 12Z" />
<path fill-rule="evenodd" clip-rule="evenodd" d="M2 12C2 8.41602 4.91602 5.5 8.5 5.5C12.084 5.5 15 8.41602 15 12C15 15.584 12.084 18.5 8.5 18.5C4.91602 18.5 2 15.584 2 12ZM3 12C3 15.0327 5.46777 17.5 8.5 17.5C11.5322 17.5 14 15.0327 14 12C14 8.96729 11.5322 6.5 8.5 6.5C5.46777 6.5 3 8.96729 3 12Z" />
<path d="M20.9961 6.05225C20.4473 6.05225 20 6.49951 20 7.04883V11.2378C20 11.7808 20.4414 12.2275 20.9902 12.2334L20.9922 17.5522C20.9922 17.8286 21.2158 18.0522 21.4922 18.0522C21.7686 18.0522 21.9922 17.8286 21.9922 17.5522V7.04883C21.9922 6.49951 21.5449 6.05225 20.9961 6.05225Z" />
<path d="M18.4961 6.00488C18.7725 6.00488 18.9961 6.22852 18.9961 6.50488V8.78027H19V9.21533C19 9.78424 18.6042 10.2887 18.0166 10.4844V17.5581C18.0166 17.8345 17.793 18.0581 17.5166 18.0581C17.2402 18.0581 17.0166 17.8345 17.0166 17.5581V10.499C16.4059 10.3079 16 9.79309 16 9.21533V6.5C16 6.22363 16.2236 6 16.5 6C16.7764 6 17 6.22363 17 6.5V9.21533C17 9.35107 17.126 9.48584 17.3076 9.54248C17.3096 9.54297 17.7051 9.53955 17.707 9.53809C17.873 9.48584 18 9.35156 18 9.21533V9.01941C17.9999 9.01614 17.999 9.01313 17.9981 9.01013C17.9971 9.00686 17.9961 9.0036 17.9961 9V6.50488C17.9961 6.22852 18.2197 6.00488 18.4961 6.00488Z" />
</svg>
