<svg  viewBox="0 0 24 24"  xmlns="http://www.w3.org/2000/svg">
<path fill-rule="evenodd" clip-rule="evenodd" d="M9.303 8.0112C9.43118 7.95775 9.57564 7.95883 9.703 8.0142L18.703 12.0097L18.723 12.0257C18.7887 12.0601 18.8458 12.1089 18.89 12.1685C18.904 12.1875 18.917 12.2035 18.929 12.2234C18.937 12.2384 18.952 12.2504 18.959 12.2684C18.986 12.3298 19 12.3971 19 12.4652V18.4584C19 18.6582 18.882 18.8379 18.699 18.9179L11.699 21.9584C11.57 22.0145 11.4234 22.0138 11.295 21.9564L2.295 17.916C2.11549 17.8354 2 17.6571 2 17.4605L2.001 11.4623C2.00091 11.3935 2.01521 11.3255 2.043 11.2625C2.051 11.2465 2.065 11.2366 2.073 11.2216C2.085 11.2006 2.098 11.1846 2.113 11.1666C2.15797 11.1066 2.21613 11.0578 2.283 11.0238L2.303 11.0078L9.303 8.0112ZM18 13.2263L15.27 14.403C15.256 14.413 15.241 14.415 15.226 14.4229L12 15.8144V20.7388L18 18.1318V13.2263ZM3 12.2364V17.1369L11 20.7288V15.8084L3 12.2364ZM6.34 10.3675L3.747 11.4763L11.504 14.9394L13.786 13.9555L6.34 10.3675ZM9.496 9.01406L7.558 9.84512L14.999 13.4311L17.254 12.4582L9.496 9.01406ZM18.5 2C19.902 2 21 2.98688 21 4.24746C21 5.1834 20.493 6.29714 19.976 7.18913C20.904 7.54373 21.5 8.22296 21.5 8.99209C21.5 10.1308 20.21 10.9898 18.5 10.9898C16.79 10.9898 15.5 10.1308 15.5 8.99209C15.5 8.22695 16.085 7.54672 17.012 7.19113C16.5 6.30912 16 5.20637 16 4.24746C16 2.98688 17.098 2 18.5 2ZM17.565 8.05914C16.947 8.24294 16.5 8.6285 16.5 8.99209C16.5 9.46455 17.321 9.99096 18.5 9.99096C19.679 9.99096 20.5 9.46455 20.5 8.99209C20.5 8.62351 20.045 8.25293 19.425 8.06614C19.138 8.48866 18.92 8.76834 18.893 8.8023C18.797 8.92217 18.685 9.01606 18.5 8.99209C18.3489 8.99206 18.2059 8.92376 18.111 8.8063C18.1032 8.79641 18.077 8.76315 18.0364 8.71005L17.875 8.49475C17.7874 8.37575 17.681 8.22775 17.565 8.05914ZM18.5 2.99887C17.66 2.99887 17 3.54725 17 4.24746C17 5.29827 17.878 6.7756 18.496 7.6536C19.116 6.76061 20 5.26431 20 4.24746C20 3.54725 19.34 2.99887 18.5 2.99887ZM18.5 3.99974C18.7761 3.99974 19 4.22334 19 4.49917C19 4.775 18.7761 4.99861 18.5 4.99861C18.2239 4.99861 18 4.775 18 4.49917C18 4.22334 18.2239 3.99974 18.5 3.99974Z" />
</svg>
