<svg  viewBox="0 0 24 24"  xmlns="http://www.w3.org/2000/svg">
<path d="M14.5 12.5C13.397 12.5 12.5 13.5098 12.5 14.75C12.5 15.9902 13.397 17 14.5 17C15.603 17 16.5 15.9902 16.5 14.75C16.5 13.5098 15.603 12.5 14.5 12.5ZM14.5 16C13.9487 16 13.5 15.4395 13.5 14.75C13.5 14.0605 13.9487 13.5 14.5 13.5C15.0513 13.5 15.5 14.0605 15.5 14.75C15.5 15.4395 15.0513 16 14.5 16ZM9.50002 11.5186C10.603 11.5186 11.5 10.5088 11.5 9.26855C11.5 8.02832 10.603 7.01855 9.50002 7.01855C8.39699 7.01855 7.50002 8.02832 7.50002 9.26855C7.50002 10.5088 8.39699 11.5186 9.50002 11.5186ZM9.50002 8.01855C10.0513 8.01855 10.5 8.5791 10.5 9.26855C10.5 9.95801 10.0513 10.5186 9.50002 10.5186C8.94875 10.5186 8.50002 9.95801 8.50002 9.26855C8.50002 8.5791 8.94875 8.01855 9.50002 8.01855ZM15.8071 7.10547C15.5889 6.93555 15.2754 6.97559 15.1055 7.19336L8.10549 16.1934C7.93557 16.4111 7.97512 16.7256 8.19289 16.8945C8.2842 16.9658 8.3926 17 8.49953 17C8.64846 17 8.79592 16.9336 8.89455 16.8066L15.8946 7.80664C16.0645 7.58887 16.0249 7.27441 15.8071 7.10547ZM18.999 4.4668C18.9815 4.2041 18.7632 4 18.5 4H5.50002C5.23684 4 5.01857 4.2041 5.001 4.4668L4.001 19.4668C3.99172 19.6045 4.04055 19.7402 4.13478 19.8418C4.22951 19.9424 4.36184 20 4.50002 20H19.5C19.6382 20 19.7705 19.9424 19.8653 19.8418C19.9595 19.7402 20.0083 19.6045 19.999 19.4668L18.999 4.4668ZM5.03469 19L5.96779 5H18.0322L18.9654 19H5.03469Z" />
</svg>
