<svg  viewBox="0 0 24 24"  xmlns="http://www.w3.org/2000/svg">
<path d="M9.5 8C9.77614 8 10 7.77614 10 7.5C10 7.22386 9.77614 7 9.5 7C9.22386 7 9 7.22386 9 7.5C9 7.77614 9.22386 8 9.5 8Z" />
<path d="M15 7.5C15 7.77614 14.7761 8 14.5 8C14.2239 8 14 7.77614 14 7.5C14 7.22386 14.2239 7 14.5 7C14.7761 7 15 7.22386 15 7.5Z" />
<path fill-rule="evenodd" clip-rule="evenodd" d="M16.4585 11.6885C16.4415 11.6697 16.4212 11.6568 16.4009 11.6438C16.3918 11.638 16.3827 11.6322 16.3738 11.6259C17.1087 10.7161 17.5838 9.58875 17.6387 8.34424C18.8359 7.82959 19.6445 6.62891 19.6445 5.30518C19.6445 3.48291 18.1616 2 16.3394 2C15.5171 2 14.728 2.30762 14.123 2.854C12.7749 2.30225 11.2202 2.29932 9.87012 2.84766C9.2666 2.30518 8.47949 2 7.66064 2C5.83838 2 4.35547 3.48291 4.35547 5.30518C4.35547 6.64062 5.13867 7.81641 6.33936 8.33594C6.39288 9.59277 6.87537 10.7302 7.62134 11.6451L4.92383 14.4678C4.25391 15.1377 4.25391 16.2275 4.92432 16.8975C5.0611 17.0342 5.21991 17.1404 5.38953 17.223C5.17316 17.6654 5.06647 18.1664 5.11084 18.7041C5.17822 19.5195 5.55566 20.3086 6.17334 20.9268C6.79102 21.5449 7.58057 21.9219 8.39648 21.9893C8.48438 21.9961 8.57129 22 8.65771 22C9.40137 22 10.0752 21.7324 10.5752 21.2314C10.6939 21.1129 10.7925 20.98 10.8845 20.8433C11.2438 20.9463 11.6161 21.0059 12 21.0059C12.3798 21.0059 12.7483 20.9479 13.104 20.847C13.1954 20.9822 13.2927 21.1141 13.4102 21.2314C13.9102 21.7324 14.584 22 15.3276 22C15.4141 22 15.501 21.9961 15.5889 21.9893C16.4048 21.9219 17.1943 21.5449 17.812 20.9268C18.4297 20.3086 18.8071 19.5195 18.8745 18.7041C18.9202 18.1506 18.8074 17.6353 18.5771 17.184C18.7133 17.1066 18.8442 17.0158 18.9624 16.8975C19.2871 16.5732 19.4658 16.1416 19.4658 15.6826C19.4658 15.2236 19.2871 14.792 18.9805 14.4863L16.4585 11.6885ZM7.33691 8.00146C7.34326 7.77637 7.19873 7.5752 6.9834 7.50928C6.00977 7.21045 5.35547 6.32471 5.35547 5.30518C5.35547 4.03418 6.38965 3 7.66064 3C8.31885 3 8.94678 3.28271 9.38428 3.77539C9.53223 3.94238 9.7749 3.99023 9.97461 3.89404C11.2422 3.28516 12.7515 3.28662 14.0166 3.90088C14.2188 4.00049 14.4619 3.95068 14.6099 3.78174C15.0479 3.28516 15.6782 3 16.3394 3C17.6104 3 18.6445 4.03418 18.6445 5.30518C18.6445 6.31689 17.9678 7.2251 16.999 7.51416C16.7866 7.57715 16.644 7.87109 16.644 8.09229C16.644 10.4868 14.8204 12.4413 12.4927 12.6962V11.6769C13.0341 11.4391 13.9951 10.8904 13.9951 9.98389C13.9951 8.5 12.5405 8.5 11.9927 8.5C11.4463 8.5 9.99512 8.5 9.99512 9.99316C9.99512 10.8998 10.9513 11.443 11.4927 11.6786V12.6968C9.16168 12.4447 7.33417 10.4831 7.33691 8.00146ZM11.9907 10.8047C11.5391 10.626 10.9951 10.2793 10.9951 9.99316C10.9951 9.70703 10.9951 9.5 11.9927 9.5C12.9951 9.5 12.9951 9.69238 12.9951 9.98389C12.9951 10.2681 12.4458 10.6211 11.9907 10.8047ZM5.63086 16.1904C5.35107 15.9102 5.35107 15.4551 5.63867 15.167L7.08099 13.6572C7.03094 14.0118 7 14.3747 7 14.7471C7 15.127 7.03156 15.4972 7.08362 15.8586C6.69788 15.9554 6.34766 16.1316 6.04596 16.3843C5.8905 16.364 5.74353 16.3027 5.63086 16.1904ZM9.86816 20.5244C9.521 20.8721 9.02441 21.0391 8.47852 20.9922C7.89844 20.9443 7.33105 20.6699 6.88037 20.2197C6.42969 19.7695 6.15527 19.2012 6.10742 18.6221C6.0625 18.0723 6.22852 17.5791 6.57568 17.2324C6.88525 16.9229 7.31152 16.7568 7.78955 16.7568C7.84717 16.7568 7.90625 16.7598 7.96533 16.7646C8.54492 16.8125 9.1123 17.0869 9.56299 17.5371C10.0137 17.9873 10.2881 18.5557 10.3359 19.1357C10.3813 19.6846 10.2153 20.1777 9.86816 20.5244ZM12.6528 19.0527C12.6423 19.1806 12.6496 19.304 12.6569 19.4273L12.66 19.4805H11.3254L11.3285 19.4258C11.3358 19.3029 11.343 19.1801 11.3325 19.0527C11.2651 18.2373 10.8877 17.4482 10.27 16.8301C9.6604 16.22 8.88348 15.8477 8.07892 15.7732C8.02869 15.4409 8 15.0984 8 14.7471C8 13.918 8.15997 13.1436 8.4212 12.4454C9.3974 13.2469 10.6304 13.7471 11.9893 13.7471C13.3555 13.7471 14.595 13.242 15.5735 12.4325C15.8378 13.134 16 13.9127 16 14.7471C16 15.0975 15.9713 15.4391 15.9213 15.7706C15.1113 15.8417 14.3282 16.2162 13.7148 16.8301C13.0972 17.4482 12.7202 18.2373 12.6528 19.0527ZM17.105 20.2197C16.6543 20.6699 16.0869 20.9443 15.5068 20.9922C14.9614 21.0371 14.4644 20.8721 14.1172 20.5244C13.77 20.1777 13.604 19.6846 13.6494 19.1348C13.6973 18.5557 13.9717 17.9873 14.4219 17.5371C14.8726 17.0869 15.4399 16.8125 16.02 16.7646C16.0791 16.7598 16.1377 16.7568 16.1958 16.7568C16.6738 16.7568 17.1001 16.9229 17.4097 17.2324C17.7568 17.5791 17.9229 18.0723 17.8779 18.6221C17.8301 19.2012 17.5557 19.7695 17.105 20.2197ZM18.2549 16.1904C18.1535 16.2925 18.0445 16.3477 17.9285 16.3757C17.6329 16.1306 17.2916 15.958 16.916 15.8615C16.9683 15.4991 17 15.1279 17 14.7471C17 14.3891 16.9705 14.0403 16.9241 13.6986L18.2554 15.1748C18.3911 15.3105 18.4658 15.4912 18.4658 15.6826C18.4658 15.874 18.3911 16.0547 18.2549 16.1904Z" />
</svg>
