<svg viewBox="0 0 24 24"  xmlns="http://www.w3.org/2000/svg">
<path d="M17.146 12.146L15.146 14.146C15.0995 14.1925 15.0626 14.2477 15.0375 14.3084C15.0123 14.3692 14.9994 14.4343 14.9994 14.5C14.9994 14.5657 15.0123 14.6308 15.0375 14.6916C15.0626 14.7523 15.0995 14.8075 15.146 14.854C15.1925 14.9005 15.2477 14.9374 15.3084 14.9625C15.3692 14.9877 15.4343 15.0006 15.5 15.0006C15.5657 15.0006 15.6308 14.9877 15.6916 14.9625C15.7523 14.9374 15.8075 14.9005 15.854 14.854L17.854 12.854C17.9005 12.8075 17.9374 12.7523 17.9625 12.6916C17.9877 12.6308 18.0006 12.5657 18.0006 12.5C18.0006 12.4343 17.9877 12.3692 17.9625 12.3084C17.9374 12.2477 17.9005 12.1925 17.854 12.146C17.8075 12.0995 17.7523 12.0626 17.6916 12.0375C17.6308 12.0123 17.5657 11.9994 17.5 11.9994C17.4343 11.9994 17.3692 12.0123 17.3084 12.0375C17.2477 12.0626 17.1925 12.0995 17.146 12.146ZM8.854 4.146C8.80755 4.09944 8.75238 4.06249 8.69163 4.03729C8.63089 4.01208 8.56577 3.99911 8.5 3.99911C8.43423 3.99911 8.36911 4.01208 8.30837 4.03729C8.24762 4.06249 8.19245 4.09944 8.146 4.146L6.146 6.146C6.09951 6.19249 6.06264 6.24768 6.03748 6.30842C6.01232 6.36916 5.99937 6.43426 5.99937 6.5C5.99937 6.56574 6.01232 6.63084 6.03748 6.69158C6.06264 6.75232 6.09951 6.80751 6.146 6.854C6.19249 6.90049 6.24768 6.93736 6.30842 6.96252C6.36916 6.98768 6.43426 7.00063 6.5 7.00063C6.56574 7.00063 6.63084 6.98768 6.69158 6.96252C6.75232 6.93736 6.80751 6.90049 6.854 6.854L8.854 4.854C8.90056 4.80755 8.93751 4.75238 8.96271 4.69163C8.98792 4.63089 9.00089 4.56577 9.00089 4.5C9.00089 4.43423 8.98792 4.36911 8.96271 4.30837C8.93751 4.24762 8.90056 4.19245 8.854 4.146ZM17.146 9.146L15.146 11.146C15.0995 11.1925 15.0626 11.2477 15.0375 11.3084C15.0123 11.3692 14.9994 11.4343 14.9994 11.5C14.9994 11.5657 15.0123 11.6308 15.0375 11.6916C15.0626 11.7523 15.0995 11.8075 15.146 11.854C15.1925 11.9005 15.2477 11.9374 15.3084 11.9625C15.3692 11.9877 15.4343 12.0006 15.5 12.0006C15.5657 12.0006 15.6308 11.9877 15.6916 11.9625C15.7523 11.9374 15.8075 11.9005 15.854 11.854L17.854 9.854C17.9005 9.80751 17.9374 9.75232 17.9625 9.69158C17.9877 9.63084 18.0006 9.56574 18.0006 9.5C18.0006 9.43426 17.9877 9.36916 17.9625 9.30842C17.9374 9.24768 17.9005 9.19249 17.854 9.146C17.8075 9.09951 17.7523 9.06264 17.6916 9.03748C17.6308 9.01232 17.5657 8.99937 17.5 8.99937C17.4343 8.99937 17.3692 9.01232 17.3084 9.03748C17.2477 9.06264 17.1925 9.09951 17.146 9.146ZM9.146 6.146L7.146 8.146C7.09951 8.19249 7.06264 8.24768 7.03748 8.30842C7.01232 8.36916 6.99937 8.43426 6.99937 8.5C6.99937 8.56574 7.01232 8.63084 7.03748 8.69158C7.06264 8.75232 7.09951 8.80751 7.146 8.854C7.23989 8.94789 7.36722 9.00063 7.5 9.00063C7.56574 9.00063 7.63084 8.98768 7.69158 8.96252C7.75232 8.93736 7.80751 8.90049 7.854 8.854L9.854 6.854C9.90049 6.80751 9.93736 6.75232 9.96252 6.69158C9.98768 6.63084 10.0006 6.56574 10.0006 6.5C10.0006 6.43426 9.98768 6.36916 9.96252 6.30842C9.93736 6.24768 9.90049 6.19249 9.854 6.146C9.80751 6.09951 9.75232 6.06264 9.69158 6.03748C9.63084 6.01232 9.56574 5.99937 9.5 5.99937C9.43426 5.99937 9.36916 6.01232 9.30842 6.03748C9.24768 6.06264 9.19249 6.09951 9.146 6.146ZM19.5 6H14V3.5C14 2.773 13.475 2 12.5 2H4.5C3.525 2 3 2.773 3 3.5V10.5C3 11.227 3.525 12 4.5 12H7V19.5C7 20.148 6.835 20.595 6.509 20.828C6.278 20.992 6.036 20.999 6.022 21H6C5.989 21 5.98 21.006 5.969 21.006C5.90876 21.0061 5.84919 21.0186 5.79397 21.0427C5.73876 21.0668 5.68907 21.1019 5.648 21.146C5.64333 21.1513 5.639 21.1573 5.635 21.164C5.59794 21.2035 5.56754 21.2488 5.545 21.298C5.531 21.328 5.528 21.362 5.521 21.395C5.514 21.425 5.501 21.453 5.5 21.485C5.50067 21.487 5.501 21.4897 5.501 21.493L5.5 21.5C5.5 21.53 5.512 21.554 5.517 21.582C5.523 21.618 5.524 21.655 5.537 21.687C5.549 21.717 5.57 21.739 5.587 21.765C5.605 21.793 5.619 21.823 5.642 21.847C5.664 21.87 5.693 21.885 5.72 21.903C5.746 21.921 5.769 21.943 5.798 21.956C5.83 21.97 5.867 21.973 5.902 21.98C5.93 21.986 5.955 21.999 5.984 22H11.004L11.016 21.999C11.041 21.999 11.062 21.987 11.086 21.983C11.126 21.975 11.166 21.972 11.202 21.956C11.22 21.948 11.233 21.934 11.25 21.924C11.29 21.9 11.328 21.877 11.36 21.844L11.361 21.842C11.4294 21.7718 11.4754 21.6829 11.4933 21.5865C11.5112 21.4901 11.5001 21.3906 11.4615 21.3005C11.4229 21.2104 11.3584 21.1338 11.2763 21.0803C11.1942 21.0268 11.098 20.9989 11 21H10.992C10.761 20.9898 10.5421 20.8939 10.378 20.731C10.127 20.481 10 20.066 10 19.5V12H12V17.5C12 18.383 12.617 19 13.5 19H14V19.5C14 20.148 13.835 20.595 13.509 20.828C13.278 20.992 13.036 20.999 13.022 21H13C12.99 21 12.98 21.005 12.97 21.006C12.8781 21.0078 12.7888 21.0366 12.7131 21.0887C12.6374 21.1407 12.5786 21.2139 12.544 21.299C12.531 21.327 12.529 21.36 12.522 21.392C12.515 21.423 12.501 21.452 12.5 21.484C12.5007 21.4873 12.501 21.4903 12.501 21.493L12.5 21.5C12.5 21.53 12.512 21.554 12.517 21.582C12.523 21.618 12.524 21.655 12.537 21.687C12.549 21.717 12.57 21.739 12.587 21.765C12.605 21.793 12.619 21.823 12.642 21.847C12.664 21.87 12.693 21.885 12.72 21.903C12.746 21.921 12.769 21.943 12.798 21.956C12.83 21.97 12.867 21.973 12.902 21.98C12.93 21.986 12.955 21.999 12.984 22H20.004L20.016 21.999C20.041 21.999 20.062 21.987 20.086 21.983C20.126 21.975 20.166 21.972 20.202 21.956C20.22 21.948 20.233 21.934 20.25 21.924C20.29 21.9 20.328 21.877 20.36 21.844L20.361 21.842C20.4294 21.7718 20.4754 21.6829 20.4933 21.5865C20.5112 21.4901 20.5001 21.3906 20.4615 21.3005C20.4229 21.2104 20.3584 21.1338 20.2763 21.0803C20.1942 21.0268 20.098 20.9989 20 21H19.992C19.761 20.9898 19.5421 20.8939 19.378 20.731C19.127 20.481 19 20.066 19 19.5V19H19.5C20.383 19 21 18.383 21 17.5V7.5C21 6.617 20.383 6 19.5 6ZM7.65 21C7.879 20.599 8 20.1 8 19.5V12H9V19.5C9 20.1 9.121 20.599 9.35 21H7.65ZM12 7.5V11H4.5C4.006 11 4 10.52 4 10.5V3.5C4 3.48 4.006 3 4.5 3H12.5C12.994 3 13 3.48 13 3.5V6.08C12.395 6.268 12 6.797 12 7.5ZM14.65 21C14.879 20.599 15 20.1 15 19.5V19H18V19.5C18 20.1 18.121 20.599 18.35 21H14.65ZM20 17.5C19.9993 17.8327 19.8327 17.9993 19.5 18H13.5C13.1673 17.9993 13.0007 17.8327 13 17.5V7.5C13.0007 7.16733 13.1673 7.00067 13.5 7H19.5C19.8327 7.00067 19.9993 7.16733 20 7.5V17.5Z"/>
</svg>
