<svg width="24" height="24" viewBox="0 0 24 24" fill="none" xmlns="http://www.w3.org/2000/svg">
<path d="M5.85352 5.14648L3.85352 3.14648C3.6582 2.95117 3.3418 2.95117 3.14648 3.14648C2.95117 3.3418 2.95117 3.6582 3.14648 3.85352L5.14648 5.85352C5.24414 5.95117 5.37207 6 5.5 6C5.62793 6 5.75586 5.95117 5.85352 5.85352C6.04883 5.6582 6.04883 5.3418 5.85352 5.14648ZM14.4995 16.5928C14.2231 16.5928 13.9995 16.8164 13.9995 17.0928C13.9995 18.1519 13.083 19.0469 11.9985 19.0469C10.9287 19.0469 10.0908 18.1885 10.0908 17.0928V16.7729C10.0908 15.7969 9.70703 14.9644 8.44873 13.2085C8.30615 13.0098 8.16406 12.832 8.02588 12.6606C7.43018 11.9199 7 11.3848 7 9.5C7 6.89258 8.68213 5 10.9995 5C13.1304 5 14.9995 6.63574 14.9995 8.5C14.9995 8.77637 15.2231 9 15.4995 9C15.7759 9 15.9995 8.77637 15.9995 8.5C15.9995 6.06055 13.71 4 10.9995 4C8.10254 4 6 6.31299 6 9.5C6 11.7368 6.60547 12.4897 7.24658 13.2871C7.37354 13.4453 7.50488 13.6084 7.63623 13.7915C8.87305 15.5171 9.09082 16.1279 9.09082 16.7729V17.0928C9.09082 18.7495 10.3682 20.0469 11.9985 20.0469C13.6533 20.0469 14.9995 18.7217 14.9995 17.0928C14.9995 16.8164 14.7759 16.5928 14.4995 16.5928ZM14 8.98486C14 7.33057 12.6543 5.98486 11 5.98486C9.3457 5.98486 8 7.33057 8 8.98486C8 9.26123 8.22363 9.48486 8.5 9.48486C8.77637 9.48486 9 9.26123 9 8.98486C9 7.88184 9.89697 6.98486 11 6.98486C12.103 6.98486 13 7.88184 13 8.98486V10.0505C11.8599 10.2828 10.9995 11.2927 10.9995 12.5C10.9995 13.283 11.3853 14.0035 12 14.4732V15.5C12 15.7764 12.2236 16 12.5 16C12.7764 16 13 15.7764 13 15.5V14.2161L12.9908 14.2166C12.9833 14.0495 12.9021 13.8878 12.748 13.7983C12.2861 13.5303 11.9995 13.0327 11.9995 12.5C11.9995 11.6729 12.6729 11 13.5 11C13.7764 11 14 10.7764 14 10.5C14 10.4742 13.9891 10.452 13.9854 10.4272C13.9891 10.4025 14 10.3803 14 10.3545V8.98486ZM20.8535 20.1465L14.8535 14.1465C14.6582 13.9512 14.3418 13.9512 14.1465 14.1465C13.9512 14.3418 13.9512 14.6582 14.1465 14.8535L20.1465 20.8535C20.2441 20.9512 20.3721 21 20.5 21C20.6279 21 20.7559 20.9512 20.8535 20.8535C21.0488 20.6582 21.0488 20.3418 20.8535 20.1465Z" fill="#212121"/>
</svg>
