<svg xmlns="http://www.w3.org/2000/svg" viewBox="0 0 24 24"><path  d="M0 0h24v24H0z" data-name="Ebene 2"/><g #222221"><path d="M4.5 6h6.525c.095 1.037.488 2 1.233 2h2.505c.739 0 1.124-.94 1.215-2h3.52a.5.5 0 0 0 0-1h-3.52c-.091-1.06-.476-2-1.215-2h-2.505c-.745 0-1.138.963-1.233 2H4.5a.5.5 0 0 0 0 1zm7.83-2h2.357A2.861 2.861 0 0 1 15 5.5a2.861 2.861 0 0 1-.313 1.5H12.33A2.729 2.729 0 0 1 12 5.5a2.729 2.729 0 0 1 .33-1.5zM19.497 11h-8.52c-.09-1.06-.475-2-1.214-2H7.258c-.745 0-1.138.963-1.233 2H4.5a.5.5 0 0 0 0 1h1.525c.095 1.037.488 2 1.233 2h2.505c.739 0 1.124-.94 1.215-2h8.52a.5.5 0 0 0 0-1zm-9.81 2H7.33A2.729 2.729 0 0 1 7 11.5a2.729 2.729 0 0 1 .33-1.5h2.357A2.861 2.861 0 0 1 10 11.5a2.861 2.861 0 0 1-.313 1.5zM19.497 17h-1.52c-.09-1.06-.475-2-1.214-2h-2.504c-.746 0-1.14.963-1.234 2H4.5a.5.5 0 0 0 0 1h8.525c.095 1.037.488 2 1.234 2h2.504c.739 0 1.124-.94 1.215-2h1.52a.5.5 0 0 0 0-1zm-2.81 2H14.33A2.729 2.729 0 0 1 14 17.5a2.729 2.729 0 0 1 .331-1.5h2.355A2.86 2.86 0 0 1 17 17.5a2.86 2.86 0 0 1-.313 1.5z"/></g></svg>