<svg width="24" height="24" viewBox="0 0 24 24" fill="none" xmlns="http://www.w3.org/2000/svg">
<path d="M9.70215 5.95752C10.3848 5.65527 11.1982 5.50439 12.0093 5.50439C12.8188 5.50439 13.6255 5.65527 14.2949 5.95605C16.4551 6.92725 16.6782 10.397 16.8115 12.4697C16.8652 13.3066 16.9004 13.8594 17.0381 14.1914C17.1724 14.5161 17.4863 14.832 17.8496 15.1982C18.3422 15.6945 18.944 16.3071 18.9911 16.8705L19.8641 17.7435C19.9589 17.48 20 17.2038 20 16.9399C20 15.9458 19.2012 15.1411 18.5596 14.4941C18.3071 14.2397 18.021 13.9517 17.9619 13.8086C17.8877 13.6299 17.8481 13.0078 17.8091 12.4058C17.6616 10.1079 17.4146 6.26221 14.7051 5.04395C14.4361 4.92303 14.1472 4.82996 13.8514 4.74963C13.9456 4.5177 14 4.26538 14 4C14 2.89697 13.103 2 12 2C10.897 2 10 2.89697 10 4C10 4.26624 10.0546 4.51941 10.1494 4.75195C9.85516 4.83154 9.56732 4.92346 9.29785 5.04248C8.80432 5.26074 8.39496 5.56628 8.05127 5.93066L8.7641 6.64349C9.02765 6.35785 9.33472 6.12 9.70215 5.95752ZM12 3C12.5513 3 13 3.44873 13 4C13 4.20795 12.9213 4.39038 12.8121 4.55054C12.2758 4.49182 11.7277 4.4931 11.1895 4.55298C11.0794 4.39233 11 4.20898 11 4C11 3.44873 11.4487 3 12 3ZM20.8545 20.1479L4.56006 3.85352L3.85352 3.14648C3.6582 2.95117 3.3418 2.95117 3.14648 3.14648C2.95117 3.3418 2.95117 3.6582 3.14648 3.85352L6.98749 7.69452C6.40393 9.21454 6.29346 11.0009 6.21484 12.292C6.17773 12.9087 6.13525 13.6074 6.05078 13.7803C5.98193 13.9219 5.71191 14.1938 5.47412 14.4341C4.81738 15.0977 4 15.9229 4 16.9399C4 17.8799 4.43359 19 6.5 19H10.2781C10.1059 19.2953 10 19.6341 10 20C10 21.103 10.897 22 12 22C13.103 22 14 21.103 14 20C14 19.6341 13.8941 19.2953 13.7219 19H17.5C17.7739 19 18.0153 18.9779 18.2346 18.9416L20.1465 20.8535C20.2441 20.9512 20.3721 21 20.5 21C20.6279 21 20.7559 20.9512 20.8535 20.8535C21.0484 20.6586 21.0485 20.3433 20.8545 20.1479ZM12 21C11.4487 21 11 20.5513 11 20C11 19.4487 11.4487 19 12 19C12.5513 19 13 19.4487 13 20C13 20.5513 12.5513 21 12 21ZM6.5 18C5.25098 18 5 17.5942 5 16.9399C5 16.334 5.65674 15.6709 6.18457 15.1382C6.51904 14.8003 6.80811 14.5088 6.94922 14.2197C7.11377 13.8828 7.15283 13.3477 7.21338 12.3525C7.27972 11.26 7.37299 9.77448 7.77631 8.48334L17.293 18H6.5Z" fill="#212121"/>
</svg>
