<svg viewBox="0 0 24 24"  xmlns="http://www.w3.org/2000/svg">
<path d="M22.913 16.218L21 13.418V2.5C21 2.36739 20.9473 2.24021 20.8536 2.14645C20.7598 2.05268 20.6326 2 20.5 2H3.50001C3.3674 2 3.24022 2.05268 3.14645 2.14645C3.05269 2.24021 3.00001 2.36739 3.00001 2.5V7H2.71401C1.77001 7 1.00101 7.787 1.00101 8.754V20.3C1.00101 21.253 1.75301 21.999 2.71401 21.999H8.28801C9.24801 21.999 10.001 21.253 10.001 20.3V17H22.5C22.591 17 22.6803 16.9752 22.7582 16.9283C22.8361 16.8813 22.8998 16.814 22.9422 16.7335C22.9847 16.653 23.0045 16.5625 22.9993 16.4717C22.9942 16.3808 22.9643 16.2931 22.913 16.218ZM9.00101 20.3C9.00089 20.3929 8.98226 20.4849 8.94622 20.5706C8.91017 20.6563 8.85742 20.7339 8.79105 20.799C8.72468 20.864 8.64602 20.9152 8.55965 20.9496C8.47328 20.9839 8.38094 21.0007 8.28801 20.999H2.71401C2.62108 21.0007 2.52873 20.9839 2.44237 20.9496C2.356 20.9152 2.27733 20.864 2.21096 20.799C2.14459 20.7339 2.09184 20.6563 2.0558 20.5706C2.01975 20.4849 2.00112 20.3929 2.00101 20.3V20H9.00101V20.3ZM9.00101 18.999H2.00101V9.999H9.00101V18.999ZM9.00101 8.999H2.00101V8.753C2.00101 8.344 2.32801 7.999 2.71401 7.999H8.28801C8.38256 7.99991 8.47601 8.01945 8.56301 8.05648C8.65002 8.09351 8.72887 8.14731 8.79508 8.21482C8.86129 8.28233 8.91356 8.36222 8.94889 8.44993C8.98422 8.53764 9.00193 8.63145 9.00101 8.726V8.999ZM8.28801 6.999H4.00001V3H20V13H10.001V8.727C10.001 7.774 9.23201 6.999 8.28801 6.999ZM10.001 16V14H20.187L21.553 16H10.001Z"/>
</svg>
