<svg  viewBox="0 0 24 24"  xmlns="http://www.w3.org/2000/svg">
<path d="M20.958 6.27734C20.9048 5.96387 20.731 5.65527 20.4565 5.38574L19.7095 4.65088C19.4346 4.38135 19.1235 4.21338 18.8091 4.16602C18.4185 4.10596 18.0483 4.23486 17.7627 4.52637L16.979 5.32385V4.5C16.979 4.22363 16.7554 4 16.479 4H12.979V2.5C12.979 2.22363 12.7554 2 12.479 2H7.479C7.20264 2 6.979 2.22363 6.979 2.5V4H3.479C3.20264 4 2.979 4.22363 2.979 4.5V21.5C2.979 21.7764 3.20264 22 3.479 22H16.479C16.7554 22 16.979 21.7764 16.979 21.5V11.0307L20.6152 7.33057C20.9019 7.03906 21.0234 6.66504 20.958 6.27734ZM7.979 3H11.979V5H7.979V3ZM15.979 21H3.979V5H6.979V5.5C6.979 5.77637 7.20264 6 7.479 6H12.479C12.7554 6 12.979 5.77637 12.979 5.5V5H15.979V6.34149L8.53467 13.917C8.48096 13.9717 8.44092 14.0371 8.4165 14.1104L7.34229 17.3438C7.28223 17.5244 7.33057 17.7236 7.46631 17.8574C7.56152 17.9512 7.68799 18.001 7.81689 18.001C7.87256 18.001 7.92871 17.9922 7.98291 17.9727L11.1968 16.8418C11.2686 16.8164 11.334 16.7754 11.3872 16.7207L15.979 12.0482V21ZM9.0921 15.2482L10.0462 16.186L8.61279 16.6904L9.0921 15.2482ZM10.9831 15.7048L9.55707 14.3032L17.2656 6.4588L18.6921 7.86078L10.9831 15.7048ZM19.9023 6.62939L19.393 7.14764L17.9665 5.74561L18.4761 5.22705C18.5547 5.14648 18.6108 5.146 18.6592 5.15479C18.7612 5.16992 18.8882 5.24658 19.0083 5.36426L19.7554 6.09912C19.876 6.2168 19.9546 6.34326 19.9722 6.44482C19.98 6.4917 19.9819 6.54834 19.9023 6.62939Z" />
</svg>
