<svg  viewBox="0 0 24 24"  xmlns="http://www.w3.org/2000/svg">
<path fill-rule="evenodd" clip-rule="evenodd" d="M2.62197 12.4448C2.59267 12.4502 2.56289 12.4526 2.53408 12.4526C2.29677 12.4526 2.08632 12.2832 2.04287 12.0415C2.03066 11.9741 1.92959 11.3701 2.0873 10.8501C2.40328 9.81311 4.16518 9.22888 5.4645 9.0343C5.46849 9.03367 5.47208 9.03217 5.47568 9.03067C5.47967 9.029 5.48365 9.02734 5.48818 9.02686C5.49111 9.0266 5.49381 9.02713 5.49651 9.02766C5.49905 9.02816 5.50158 9.02865 5.50429 9.0285C5.53358 9.02427 5.56341 9.01959 5.5932 9.01491C5.64892 9.00616 5.70456 8.99742 5.75625 8.9917L5.75545 8.41614C5.56667 8.11401 5.42165 7.75671 5.33877 7.3374C5.23379 7.26904 5.12588 7.15967 5.03017 6.98682C4.92568 6.79785 4.84316 6.54785 4.79873 6.28271C4.74941 5.99023 4.71816 5.36182 4.93593 5.00342C4.92568 4.44189 4.9789 3.37305 5.68984 2.63184C6.14785 2.1543 6.78359 1.91211 7.579 1.91211C8.37441 1.91211 9.01015 2.1543 9.46865 2.63184C10.1869 3.38086 10.2338 4.46387 10.2226 5.00391C10.4398 5.36182 10.4091 5.98975 10.3598 6.28271C10.2714 6.80469 10.0761 7.1748 9.81728 7.34326C9.73354 7.75995 9.58931 8.11432 9.40255 8.41418L9.40175 8.9917C9.45209 8.99726 9.50622 9.00574 9.56046 9.01425C9.5902 9.01891 9.61999 9.02358 9.64919 9.02777C9.65257 9.028 9.65581 9.02739 9.65904 9.02678C9.66258 9.0261 9.66612 9.02543 9.66982 9.02588C9.67542 9.02646 9.68037 9.02851 9.68533 9.03055C9.68971 9.03236 9.69409 9.03417 9.69893 9.03497C10.9983 9.22998 12.7561 9.81451 13.0707 10.8496C13.2289 11.3696 13.1278 11.9741 13.1156 12.0415C13.0722 12.2832 12.8617 12.4526 12.6244 12.4526C12.5956 12.4526 12.5658 12.4502 12.5365 12.4448C12.265 12.397 12.0839 12.1377 12.1312 11.8662C12.1518 11.7476 12.1889 11.3867 12.1137 11.1406C11.9995 10.764 11.0285 10.3209 9.9988 10.0991C9.66378 11.1284 8.70412 11.8555 7.579 11.8555C6.45394 11.8555 5.49434 11.1284 5.15944 10.0992C4.12984 10.321 3.1589 10.764 3.04433 11.1406C2.96963 11.3862 3.00673 11.7476 3.02724 11.8662C3.07461 12.1377 2.89345 12.397 2.62197 12.4448ZM6.18526 9.96362C6.4341 10.4927 6.9623 10.8555 7.579 10.8555C8.196 10.8555 8.72432 10.4929 8.97317 9.96362C8.96056 9.96314 8.94751 9.96189 8.93446 9.96065C8.9196 9.95923 8.90473 9.95781 8.89052 9.95752C8.61855 9.95166 8.40078 9.729 8.40127 9.45703L8.40151 9.28101C8.15194 9.37976 7.87728 9.43311 7.579 9.43311C7.28097 9.43311 7.00637 9.38013 6.75692 9.28149L6.75722 9.45654C6.75771 9.729 6.53994 9.95166 6.26796 9.95752C6.25364 9.95782 6.23864 9.95924 6.22363 9.96066C6.21072 9.96188 6.19776 9.96311 6.18526 9.96362ZM5.92861 5.31885C5.90468 5.41748 5.85195 5.50488 5.78164 5.57227C5.76064 5.68604 5.74843 5.90186 5.78505 6.11621C5.80605 6.24268 5.83681 6.34375 5.86464 6.41504C5.87588 6.41699 5.88711 6.41943 5.89834 6.42236C6.09365 6.4707 6.24062 6.63135 6.27236 6.83008C6.36367 7.5918 6.65761 8.43311 7.579 8.43311C8.50185 8.43311 8.79531 7.59131 8.8788 6.88574C8.90273 6.68213 9.05068 6.49609 9.24795 6.44287C9.26064 6.43945 9.27334 6.43652 9.28603 6.43408C9.31582 6.36182 9.35048 6.25391 9.37343 6.11621C9.40957 5.90186 9.39785 5.68604 9.37685 5.57227C9.30654 5.50488 9.2538 5.41748 9.22988 5.31885C9.21865 5.27344 9.21425 5.22705 9.21621 5.18066C9.25234 4.30225 9.09414 3.68652 8.74697 3.32422C8.48086 3.04688 8.09902 2.91211 7.579 2.91211C7.05947 2.91211 6.67763 3.04688 6.41152 3.32422C6.06386 3.68604 5.90615 4.30225 5.9413 5.15479C5.94326 5.20166 5.93984 5.27344 5.92861 5.31885Z" />
<path fill-rule="evenodd" clip-rule="evenodd" d="M18.5402 18.535C19.8396 18.7303 21.5973 19.3144 21.912 20.3496C22.0702 20.8696 21.9691 21.4741 21.9569 21.5415C21.9135 21.7832 21.703 21.9526 21.4657 21.9526C21.4369 21.9526 21.4071 21.9502 21.3778 21.9448C21.1063 21.897 20.9252 21.6377 20.9726 21.3662C20.9931 21.2476 21.0302 20.8867 20.955 20.6406C20.8408 20.264 19.8698 19.821 18.8402 19.5991C18.5053 20.6285 17.5459 21.3555 16.4208 21.3555C15.2957 21.3555 14.3361 20.6284 14.0012 19.5991C12.9714 19.8209 12.0003 20.264 11.8861 20.6406C11.81 20.8896 11.849 21.2559 11.8686 21.3647C11.9174 21.6367 11.7367 21.8965 11.4647 21.9453C11.435 21.9507 11.4052 21.9531 11.3759 21.9531C11.1386 21.9531 10.9276 21.7832 10.8842 21.5415C10.872 21.4741 10.7709 20.8696 10.9291 20.3496C11.2442 19.3129 13.0069 18.7283 14.3068 18.5341C14.3107 18.5335 14.3142 18.532 14.3177 18.5306L14.3223 18.5287C14.3243 18.528 14.3264 18.5274 14.3286 18.527C14.3291 18.527 14.3295 18.5269 14.33 18.5269C14.333 18.5265 14.3357 18.5271 14.3385 18.5276C14.3411 18.5281 14.3437 18.5286 14.3465 18.5284C14.3757 18.5242 14.4056 18.5195 14.4354 18.5148C14.4908 18.5061 14.5467 18.4974 14.598 18.4917L14.5972 17.9176C14.4086 17.616 14.2638 17.2594 14.1811 16.8408C13.9218 16.6724 13.7279 16.3032 13.64 15.7832C13.5907 15.4897 13.56 14.8608 13.7772 14.5034C13.767 13.9419 13.8202 12.873 14.5311 12.1318C14.9896 11.6543 15.6254 11.4121 16.4208 11.4121C17.2162 11.4121 17.8519 11.6543 18.31 12.1318C19.0282 12.8809 19.0751 13.9639 19.0639 14.5039C19.2811 14.8618 19.2504 15.4897 19.2011 15.7827C19.1566 16.0479 19.0741 16.2979 18.9696 16.4868C18.8734 16.6606 18.765 16.7705 18.6596 16.8389C18.5756 17.2564 18.4312 17.6116 18.2443 17.9122L18.2436 18.4917C18.2941 18.4973 18.3484 18.5058 18.4028 18.5143C18.432 18.5189 18.4613 18.5235 18.49 18.5276C18.4918 18.5278 18.4935 18.5277 18.4953 18.5275L18.5 18.5267C18.5037 18.5261 18.5073 18.5254 18.5111 18.5259C18.5167 18.5265 18.5217 18.5285 18.5266 18.5306C18.5296 18.5318 18.5325 18.533 18.5356 18.5339C18.5371 18.5343 18.5387 18.5347 18.5402 18.535ZM14.7699 14.8188C14.746 14.9175 14.6933 15.0049 14.6229 15.0723C14.6019 15.186 14.5902 15.4023 14.6264 15.6167C14.6474 15.7427 14.6781 15.8438 14.7064 15.915C14.7177 15.917 14.7294 15.9194 14.7406 15.9224C14.9364 15.9712 15.0834 16.1323 15.1142 16.3315C15.2045 17.0913 15.4979 17.9331 16.4208 17.9331C17.3422 17.9331 17.6361 17.0918 17.7201 16.3862C17.7445 16.1831 17.8925 15.9966 18.0902 15.9438C18.1024 15.9404 18.1146 15.9375 18.1269 15.9351C18.1571 15.8628 18.1918 15.7549 18.2147 15.6167C18.2509 15.4023 18.2392 15.186 18.2182 15.0723C18.1478 15.0049 18.0951 14.9175 18.0712 14.8188C18.06 14.7734 18.0556 14.7271 18.0575 14.6807C18.0936 13.8022 17.9359 13.186 17.5883 12.8242C17.3222 12.5469 16.9403 12.4121 16.4208 12.4121C15.9008 12.4121 15.5189 12.5469 15.2528 12.8242C14.9057 13.1865 14.7475 13.8022 14.7826 14.6548C14.7846 14.7017 14.7811 14.7734 14.7699 14.8188ZM15.0271 19.4636C15.2758 19.9927 15.804 20.3555 16.4208 20.3555C17.0378 20.3555 17.5658 19.9929 17.8145 19.4637C17.802 19.4632 17.7891 19.4619 17.7762 19.4607C17.7612 19.4593 17.7462 19.4578 17.7318 19.4575C17.4599 19.4517 17.2421 19.229 17.2426 18.9565L17.2429 18.7809C16.9934 18.8798 16.7189 18.9331 16.4208 18.9331C16.1226 18.9331 15.8478 18.8801 15.5983 18.7816L15.5985 18.957C15.599 19.229 15.3812 19.4517 15.1093 19.4575C15.0951 19.4578 15.0804 19.4592 15.0656 19.4606C15.0526 19.4619 15.0396 19.4631 15.0271 19.4636Z" />
<path d="M14.1441 6.78468C14.2417 6.8838 14.3711 6.93361 14.5 6.93361C14.627 6.93361 14.7534 6.88575 14.8511 6.78956C15.0479 6.59571 15.0498 6.27931 14.856 6.08253L14.1951 5.41212H14.2456C16.9561 5.41212 19 7.34669 19 9.91212C19 10.1885 19.2236 10.4121 19.5 10.4121C19.7764 10.4121 20 10.1885 20 9.91212C20 6.82814 17.4722 4.41212 14.2456 4.41212H14.2185L14.8511 3.78761C15.0479 3.59376 15.0498 3.27687 14.856 3.08058C14.6607 2.8838 14.3447 2.88185 14.1489 3.07569L12.6489 4.55616C12.4522 4.75001 12.4502 5.06642 12.6441 5.26319L14.1441 6.78468Z" />
<path d="M7.1748 17.0366C7.37061 16.8428 7.68848 16.8447 7.88184 17.0415L9.38184 18.5625C9.57568 18.7588 9.57373 19.0757 9.37695 19.2695L7.87695 20.7505C7.77979 20.8467 7.65283 20.8945 7.52588 20.8945C7.39697 20.8945 7.26807 20.8447 7.16992 20.7456C6.97607 20.5493 6.97803 20.2329 7.1748 20.0386L7.80762 19.4136H7.78027C4.55371 19.4136 2.02588 16.9976 2.02588 13.9136C2.02588 13.6372 2.24951 13.4136 2.52588 13.4136C2.80225 13.4136 3.02588 13.6372 3.02588 13.9136C3.02588 16.479 5.06982 18.4136 7.78027 18.4136H7.83057L7.16992 17.7437C6.97607 17.5469 6.97803 17.2305 7.1748 17.0366Z" />
</svg>
