<svg viewBox="0 0 24 24"  xmlns="http://www.w3.org/2000/svg">
<path d="M20.5 6.99992H11.625L6.758 4.07192C6.68211 4.02657 6.59557 4.0021 6.50717 4.00101C6.41877 3.99993 6.33165 4.02225 6.25466 4.06572C6.17768 4.10919 6.11357 4.17225 6.06884 4.24851C6.02411 4.32477 6.00036 4.41151 6 4.49992V6.99992H3.5C3.36739 6.99992 3.24021 7.0526 3.14645 7.14637C3.05268 7.24013 3 7.36731 3 7.49992V19.4999C3 19.6325 3.05268 19.7597 3.14645 19.8535C3.24021 19.9472 3.36739 19.9999 3.5 19.9999H20.5C20.6326 19.9999 20.7598 19.9472 20.8536 19.8535C20.9473 19.7597 21 19.6325 21 19.4999V7.49992C21 7.36731 20.9473 7.24013 20.8536 7.14637C20.7598 7.0526 20.6326 6.99992 20.5 6.99992ZM4 18.9999V7.99992H6V16.4999C6.00005 16.5861 6.02236 16.6707 6.06476 16.7457C6.10716 16.8207 6.16821 16.8835 6.242 16.9279L9.679 18.9999H4ZM10.978 18.6149L7 16.2179V5.38392L10.978 7.77692V18.6149ZM20 18.9999H11.978V7.99992H20V18.9999Z"/>
</svg>
