<svg width="24" height="24" viewBox="0 0 24 24" fill="none" xmlns="http://www.w3.org/2000/svg">
<path d="M8.5 12C7.94769 12 7.5 12.4477 7.5 13C7.5 13.3661 7.70648 13.6725 8 13.8467V15.5C8 15.7764 8.22363 16 8.5 16C8.77637 16 9 15.7764 9 15.5V13.8467C9.29352 13.6725 9.5 13.3661 9.5 13C9.5 12.4477 9.05231 12 8.5 12Z" fill="#212121"/>
<path d="M16.5 12C15.9795 12 15.4776 12.0775 15 12.2132V9.25C15 8.56055 14.4395 8 13.75 8H13V4C13 2.9624 12.0596 1 8.5 1C4.80859 1 4 3.16553 4 4V8H3.25C2.56055 8 2 8.56055 2 9.25V17.75C2 18.4395 2.56055 19 3.25 19H11.2132C11.8683 21.305 13.9878 23 16.5 23C19.5327 23 22 20.5327 22 17.5C22 14.4673 19.5327 12 16.5 12ZM5 4C5 3.97998 5.09521 2 8.5 2C11.96 2 12 3.97998 12 4V8H5V4ZM11.0253 18H3.25C3.1123 18 3 17.8877 3 17.75V9.25C3 9.1123 3.1123 9 3.25 9H13.75C13.8877 9 14 9.1123 14 9.25V12.6072C12.2219 13.5195 11 15.3679 11 17.5C11 17.6688 11.0104 17.8351 11.0253 18ZM16.5 22C14.0186 22 12 19.9814 12 17.5C12 15.0186 14.0186 13 16.5 13C18.9814 13 21 15.0186 21 17.5C21 19.9814 18.9814 22 16.5 22Z" fill="#212121"/>
<path d="M18.1987 15.6465L15.5493 18.2959L14.5986 17.3613C14.4009 17.167 14.0835 17.1704 13.8916 17.3672C13.6978 17.564 13.7007 17.8809 13.8975 18.0742L15.2017 19.3564C15.2988 19.4521 15.4258 19.5 15.5522 19.5C15.6802 19.5 15.8081 19.4512 15.9058 19.3535L18.9058 16.3535C19.1011 16.1582 19.1011 15.8418 18.9058 15.6465C18.7104 15.4512 18.394 15.4512 18.1987 15.6465Z" fill="#212121"/>
</svg>
