<svg  viewBox="0 0 24 24"  xmlns="http://www.w3.org/2000/svg">
<path fill-rule="evenodd" clip-rule="evenodd" d="M12.6974 11.9902L19.0942 5.59343C19.27 5.39513 19.261 5.09417 19.0736 4.90675C18.8862 4.71934 18.5852 4.71032 18.3869 4.88618L11.9902 11.2829L5.59343 4.88618C5.39513 4.71032 5.09417 4.71934 4.90675 4.90675C4.71934 5.09417 4.71032 5.39513 4.88618 5.59343L11.2829 11.9902L4.88618 18.3869C4.71291 18.5854 4.72294 18.8841 4.90912 19.0705C5.09531 19.2569 5.39404 19.2672 5.59268 19.0942L11.9894 12.6974L18.3862 19.0942C18.4798 19.1881 18.6069 19.2408 18.7394 19.2408C18.872 19.2408 18.9991 19.1881 19.0927 19.0942C19.2875 18.8987 19.2875 18.5824 19.0927 18.3869L12.6959 11.9902H12.6974Z" />
</svg>
