<svg width="24" height="24" viewBox="0 0 24 24" fill="none" xmlns="http://www.w3.org/2000/svg">
<path d="M15 13.4999C15 12.581 14.3271 11.8334 13.5 11.8334C12.6729 11.8334 12 12.581 12 13.4999C12 14.4189 12.6729 15.1664 13.5 15.1664C14.3271 15.1664 15 14.4189 15 13.4999ZM13 13.4999C13 13.1386 13.2285 12.8334 13.5 12.8334C13.7715 12.8334 14 13.1386 14 13.4999C14 13.8613 13.7715 14.1664 13.5 14.1664C13.2285 14.1664 13 13.8613 13 13.4999ZM8.70605 5.99945C9.04102 5.99945 9.41504 6.24066 9.62109 6.46478C9.80859 6.66937 10.126 6.68109 10.3271 6.49457C10.5312 6.30756 10.5439 5.99115 10.3574 5.78802C10.0068 5.40668 9.38867 4.99945 8.70605 4.99945C7.46918 4.99945 6.58215 5.73914 6.20435 6.99945H5.5C5.22363 6.99945 5 7.22308 5 7.49945C5 7.77582 5.22363 7.99945 5.5 7.99945H6.03107C6.01758 8.16376 6 8.32458 6 8.49994C6 8.67548 6.01715 8.83545 6.02991 8.99945H5.5C5.22363 8.99945 5 9.22308 5 9.49945C5 9.77582 5.22363 9.99945 5.5 9.99945H6.1944C6.56219 11.273 7.43964 11.9995 8.69531 11.9995C9.29199 11.9995 9.89355 11.7084 10.3057 11.2206C10.4844 11.0097 10.457 10.6938 10.2461 10.5161C10.0371 10.3378 9.7207 10.3647 9.54199 10.5751C9.31738 10.8408 9.00098 10.9995 8.69531 10.9995C7.91162 10.9995 7.4881 10.5541 7.25769 9.99945H8.16992C8.44629 9.99945 8.66992 9.77582 8.66992 9.49945C8.66992 9.22308 8.44629 8.99945 8.16992 8.99945H7.02612C7.00995 8.8233 7 8.65204 7 8.49994C7 8.34753 7.01001 8.17596 7.02631 7.99945H8.82617C9.10254 7.99945 9.32617 7.77582 9.32617 7.49945C9.32617 7.22308 9.10254 6.99945 8.82617 6.99945H7.25928C7.49115 6.44482 7.91736 5.99945 8.70605 5.99945ZM15.5 8.99945C15.3226 8.99945 15.1482 9.01202 14.9743 9.02606C14.9882 8.8515 15 8.67651 15 8.49945C15 6.76312 14.3232 5.1308 13.0957 3.90326C10.5615 1.3681 6.4375 1.36957 3.90332 3.90326C1.36914 6.43744 1.36914 10.5615 3.90332 13.0956C5.13086 14.3237 6.76367 14.9995 8.5 14.9995C8.67706 14.9995 8.85211 14.9877 9.02667 14.9738C9.01263 15.1478 9 15.3223 9 15.4999C9 19.0844 11.916 22.0004 15.5 22.0004C19.084 22.0004 22 19.0844 22 15.4999C22 11.9155 19.084 8.99945 15.5 8.99945ZM8.5 13.9995C7.03125 13.9995 5.64941 13.4272 4.61035 12.3886C2.4668 10.2441 2.4668 6.75482 4.61035 4.61029C5.68262 3.53802 7.09082 3.00238 8.5 3.00238C9.9082 3.00238 11.3164 3.53851 12.3887 4.61029C13.4277 5.64935 14 7.03021 14 8.49945C14 8.737 13.9612 8.96698 13.9317 9.19879C11.6076 9.77789 9.77863 11.6069 9.1994 13.9312C8.96753 13.9606 8.73755 13.9995 8.5 13.9995ZM15.5 21.0004C12.4678 21.0004 10 18.5331 10 15.4999C10 12.4667 12.4678 9.99945 15.5 9.99945C18.5322 9.99945 21 12.4667 21 15.4999C21 18.5331 18.5322 21.0004 15.5 21.0004ZM18.1396 12.1054C17.9229 11.935 17.6084 11.975 17.4385 12.1928L12.7725 18.1928C12.6025 18.4111 12.6416 18.725 12.8604 18.8945C12.9512 18.9658 13.0596 18.9999 13.167 18.9999C13.3154 18.9999 13.4629 18.9335 13.5615 18.8071L18.2275 12.8071C18.3975 12.5888 18.3584 12.2748 18.1396 12.1054ZM17.5 15.8334C16.6729 15.8334 16 16.581 16 17.4999C16 18.4189 16.6729 19.1664 17.5 19.1664C18.3271 19.1664 19 18.4189 19 17.4999C19 16.581 18.3271 15.8334 17.5 15.8334ZM17.5 18.1664C17.2285 18.1664 17 17.8613 17 17.4999C17 17.1386 17.2285 16.8334 17.5 16.8334C17.7715 16.8334 18 17.1386 18 17.4999C18 17.8613 17.7715 18.1664 17.5 18.1664Z" fill="#212121"/>
</svg>
