<svg width="24" height="24" viewBox="0 0 24 24" fill="none" xmlns="http://www.w3.org/2000/svg">
<path d="M11.8301 9.5H10.5059C10.2295 9.5 10.0059 9.72363 10.0059 10V14C10.0059 14.2764 10.2295 14.5 10.5059 14.5H11.8301C12.502 14.5 13.0908 14.2065 13.4883 13.6738C13.8223 13.2251 14.0059 12.6309 14.0059 12C14.0059 10.7578 13.2588 9.5 11.8301 9.5ZM12.6855 13.0762C12.4766 13.3574 12.1885 13.5 11.8301 13.5H11.0059V10.5H11.8301C12.7578 10.5 13.0059 11.4429 13.0059 12C13.0059 12.4111 12.8896 12.8032 12.6855 13.0762ZM7.15625 9.79492C7.0752 9.61523 6.89648 9.5 6.7002 9.5H6.2998C6.10352 9.5 5.9248 9.61523 5.84375 9.79492L4.04395 13.7949C3.93066 14.0469 4.04297 14.3428 4.29492 14.4561C4.54395 14.5669 4.84277 14.4575 4.95605 14.2051L5.28711 13.4692H7.71289L8.04395 14.2051C8.12695 14.3906 8.30957 14.5 8.5 14.5C8.56934 14.5 8.63867 14.4858 8.70508 14.4561C8.95703 14.3428 9.06934 14.0469 8.95605 13.7949L7.15625 9.79492ZM5.73706 12.4692L6.5 10.7734L7.26294 12.4692H5.73706ZM22.543 6.71973C22.2637 5.625 21.4219 4.7666 20.3535 4.48145C18.8389 4.05615 13.6846 4.00537 12.1416 4H11.8457C10.751 4.00342 5.21094 4.04053 3.64551 4.45557C2.59863 4.75391 1.73535 5.64014 1.44336 6.71973C1.03613 8.31738 1.00293 11.3594 1 11.9551V12.0605C1.00293 12.6562 1.03613 15.708 1.44531 17.2871C1.73828 18.3726 2.58203 19.2324 3.65137 19.5327C5.17285 19.9448 10.3086 19.9946 11.8486 20H12.1416C13.2383 19.9966 18.7891 19.9595 20.3535 19.5449C21.4307 19.2417 22.2695 18.3789 22.542 17.2979C22.9629 15.7085 22.9971 12.667 23 12.0713V11.9048C22.998 11.314 22.9668 8.28662 22.543 6.71973ZM22 12.0688C21.998 12.4199 21.9736 15.5391 21.5732 17.0479C21.3877 17.7881 20.8164 18.376 20.0898 18.5801C18.9746 18.876 15.1094 18.9912 12.1396 19H11.8506C8.88672 18.9897 5.0293 18.8701 3.91797 18.5688C3.18945 18.3643 2.6123 17.7734 2.41211 17.0317C2.02637 15.5415 2.00195 12.4082 2 12.0581V11.9575C2.00195 11.606 2.02637 8.48193 2.41016 6.97363C2.61133 6.23242 3.20312 5.62158 3.91016 5.41992C5.02539 5.12402 8.88379 5.00879 11.8477 5H12.1377C15.1104 5.01025 18.9746 5.13281 20.0889 5.4458C20.8037 5.63672 21.3867 6.23389 21.5762 6.97412C21.9775 8.45801 21.999 11.5591 22 11.9062V12.0688ZM17.8164 7.64648C17.6211 7.8418 17.6211 8.1582 17.8164 8.35352C19.8271 10.3643 19.8271 13.6357 17.8164 15.6465C17.6211 15.8418 17.6211 16.1582 17.8164 16.3535C17.9141 16.4512 18.042 16.5 18.1699 16.5C18.2979 16.5 18.4258 16.4512 18.5234 16.3535C20.9238 13.9531 20.9238 10.0469 18.5234 7.64648C18.3281 7.45117 18.0117 7.45117 17.8164 7.64648ZM15.7734 10.6465C15.5781 10.4512 15.2617 10.4512 15.0664 10.6465C14.8711 10.8418 14.8711 11.1587 15.0664 11.3535C15.2393 11.5264 15.334 11.7559 15.334 12C15.334 12.2441 15.2393 12.4736 15.0664 12.6465C14.8711 12.8413 14.8711 13.1582 15.0664 13.3535C15.1641 13.4512 15.292 13.5 15.4199 13.5C15.5479 13.5 15.6758 13.4512 15.7734 13.3535C16.1348 12.9922 16.334 12.5112 16.334 12C16.334 11.4888 16.1348 11.0078 15.7734 10.6465ZM17.124 9.14648C16.9287 8.95117 16.6123 8.95117 16.417 9.14648C16.2217 9.34131 16.2217 9.6582 16.417 9.85352C17.5996 11.0371 17.5996 12.9629 16.417 14.1465C16.2217 14.3418 16.2217 14.6587 16.417 14.8535C16.5146 14.9512 16.6426 15 16.7705 15C16.8984 15 17.0264 14.9512 17.124 14.8535C18.6963 13.2803 18.6963 10.7197 17.124 9.14648Z" fill="#212121"/>
</svg>
