<svg  viewBox="0 0 24 24"  xmlns="http://www.w3.org/2000/svg">
<path d="M12.4383 11.0004H14.5037C14.7801 11.0004 15.0037 11.224 15.0037 11.5004C15.0037 11.5532 14.9888 11.6015 14.9737 11.6493C14.9888 11.6971 15.0037 11.7454 15.0037 11.7982V14.8212C15.0037 15.0321 14.8727 15.2105 14.6881 15.284C14.6814 15.29 14.6757 15.2969 14.67 15.3037C14.662 15.3132 14.6541 15.3226 14.6433 15.33C13.9871 15.7743 13.1219 15.9999 12.0682 15.9999C12.0262 15.9999 11.9832 15.9999 11.9402 15.9989C10.8553 15.9803 9.84647 15.4862 9.10135 14.6083C8.37089 13.7489 7.98026 12.6205 8.00077 11.4305C8.04178 8.98279 9.8328 7.0365 12.0769 7.00037C13.1453 6.98816 13.9012 7.28162 14.6619 7.73621C14.8982 7.87781 14.9764 8.18494 14.8338 8.42175C14.6932 8.65906 14.3846 8.73377 14.1482 8.5946C13.5017 8.20789 12.9734 7.98328 12.0926 8.00037C10.3914 8.02771 9.03299 9.54187 9.00077 11.4476C8.98417 12.3949 9.29081 13.287 9.86307 13.9618C10.4197 14.6171 11.1639 14.9852 11.9578 14.9989C12.8003 15.0175 13.4996 14.8578 14.0037 14.5432V12.0004H12.4383C12.1619 12.0004 11.9383 11.7767 11.9383 11.5004C11.9383 11.224 12.1619 11.0004 12.4383 11.0004Z" />
<path fill-rule="evenodd" clip-rule="evenodd" d="M3.01562 12C3.01562 7.0459 7.0459 3.01562 12 3.01562C16.9541 3.01562 20.9844 7.0459 20.9844 12C20.9844 16.9541 16.9541 20.9844 12 20.9844C7.0459 20.9844 3.01562 16.9541 3.01562 12ZM3.98438 12C3.98438 16.4199 7.58008 20.0156 12 20.0156C16.4199 20.0156 20.0156 16.4199 20.0156 12C20.0156 7.58008 16.4199 3.98438 12 3.98438C7.58008 3.98438 3.98438 7.58008 3.98438 12Z" />
</svg>
