<svg viewBox="0 0 24 24" xmlns="http://www.w3.org/2000/svg">
<path d="M5.5 13H18.5C18.7764 13 19 12.7764 19 12.5V9.5C19 9.22363 18.7764 9 18.5 9H5.5C5.22363 9 5 9.22363 5 9.5V12.5C5 12.7764 5.22363 13 5.5 13ZM6 10H18V12H6V10ZM4.50018 5.99786C4.77618 5.99786 5 5.77411 5 5.49805C5 5.22198 4.77618 4.99823 4.50018 4.99823C4.22418 4.99823 4.00037 5.22198 4.00037 5.49805C4.00037 5.77411 4.22418 5.99786 4.50018 5.99786ZM8.50018 5.99786C8.77618 5.99786 9 5.77411 9 5.49805C9 5.22198 8.77618 4.99823 8.50018 4.99823C8.22418 4.99823 8.00037 5.22198 8.00037 5.49805C8.00037 5.77411 8.22418 5.99786 8.50018 5.99786ZM21.5 2.99805H2.5C2.22363 2.99805 2 3.22168 2 3.49805V19.498C2 19.7744 2.22363 19.998 2.5 19.998H21.5C21.7764 19.998 22 19.7744 22 19.498V3.49805C22 3.22168 21.7764 2.99805 21.5 2.99805ZM21 18.998H3V7.99805H21V18.998ZM21 6.99805H3V3.99805H21V6.99805ZM6.50018 5.99786C6.77618 5.99786 7 5.77411 7 5.49805C7 5.22198 6.77618 4.99823 6.50018 4.99823C6.22418 4.99823 6.00037 5.22198 6.00037 5.49805C6.00037 5.77411 6.22418 5.99786 6.50018 5.99786Z" />
</svg>
