<svg  viewBox="0 0 24 24"  xmlns="http://www.w3.org/2000/svg">
<path d="M3.52025 2.98999H20.4875C20.6282 2.98979 20.7632 3.04559 20.8627 3.14508C20.9622 3.24456 21.018 3.37955 21.0178 3.52024V20.4875C21.0178 20.7803 20.7803 21.0177 20.4875 21.0177C20.1947 21.0177 19.9573 20.7803 19.9573 20.4875V4.05049H3.52025C3.2274 4.05049 2.99 3.81309 2.99 3.52024C2.99 3.22739 3.2274 2.98999 3.52025 2.98999Z" />
<path d="M10.5267 7.00924H16.5275L16.5268 7.00999C16.803 7.00999 17.027 7.23396 17.027 7.51024V13.5095C17.027 13.7858 16.803 14.0097 16.5268 14.0097C16.2505 14.0097 16.0265 13.7858 16.0265 13.5095V8.70724L8.849 15.8855C8.65036 16.0586 8.35163 16.0482 8.16545 15.8618C7.97926 15.6754 7.96923 15.3767 8.1425 15.1782L15.3103 8.00974H10.5267C10.348 8.00974 10.1829 7.9144 10.0935 7.75962C10.0042 7.60484 10.0042 7.41415 10.0935 7.25937C10.1829 7.10459 10.348 7.00924 10.5267 7.00924Z" />
</svg>
