<svg  viewBox="0 0 24 24"  xmlns="http://www.w3.org/2000/svg">
<path fill-rule="evenodd" clip-rule="evenodd" d="M10.1397 14.7292C10.2636 14.7295 10.3836 14.7141 10.5004 14.6383C10.4875 14.6682 10.4749 14.6967 10.4626 14.7242C10.4406 14.7736 10.4199 14.8202 10.4015 14.8677C10.3103 15.1067 10.2751 15.3569 10.254 15.6102C10.2369 15.813 10.2372 16.0143 10.2867 16.2132C10.3762 16.5725 10.5902 16.8203 10.944 16.9387C11.169 17.014 11.4012 17.022 11.6347 16.9945C12.133 16.9363 12.4945 16.6857 12.7069 16.2281C12.8247 15.9737 12.8731 15.7023 12.8989 15.4253C12.917 15.2289 12.9258 15.0333 12.8879 14.8383C12.8192 14.482 12.6354 14.2131 12.2932 14.0686C12.0717 13.9754 11.8388 13.9595 11.6025 13.9762C11.283 13.9985 10.9929 14.0974 10.754 14.3199C10.7403 14.3327 10.7281 14.3473 10.7159 14.362C10.7099 14.3691 10.704 14.3762 10.6979 14.3831C10.6946 14.3804 10.6908 14.3773 10.6872 14.3749C10.718 14.2642 10.7388 14.1526 10.7342 14.0353C10.7295 14.0349 10.7254 14.0344 10.7216 14.034C10.7154 14.0332 10.7101 14.0326 10.7048 14.0326C10.5966 14.0326 10.4883 14.0325 10.3801 14.0325C9.95997 14.0324 9.53975 14.0323 9.11969 14.0336C9.00925 14.0339 8.90322 14.0592 8.80679 14.1177C8.66834 14.2018 8.58978 14.3328 8.52906 14.4773C8.52317 14.491 8.51777 14.5048 8.51235 14.5187C8.51069 14.5229 8.50903 14.5272 8.50736 14.5314C8.50379 14.5304 8.50049 14.5295 8.4972 14.5284L8.56065 14.0323H8.49967C8.01068 14.0323 7.5217 14.0323 7.03243 14.0326C7.02404 14.0326 7.01563 14.0325 7.00719 14.0325C6.97643 14.0324 6.94547 14.0322 6.91485 14.0339C6.67146 14.0471 6.50526 14.1718 6.42423 14.4007C6.42305 14.4038 6.4218 14.4069 6.42047 14.4101C6.41743 14.4174 6.41395 14.4254 6.40994 14.4353C6.40606 14.4304 6.40256 14.4262 6.39937 14.4223C6.39397 14.4158 6.38946 14.4104 6.38549 14.4045C6.26764 14.235 6.10885 14.1199 5.91601 14.0504C5.67014 13.9617 5.41713 13.9556 5.16165 13.9878C4.93611 14.0163 4.72596 14.09 4.54025 14.2251C4.28971 14.407 4.13972 14.6581 4.04495 14.9468C3.965 15.1894 3.93726 15.4407 3.9194 15.6938C3.90731 15.872 3.91583 16.0489 3.96088 16.2226C4.06115 16.6104 4.30372 16.8583 4.69189 16.961C4.90204 17.0165 5.11522 17.0198 5.32895 16.992C5.78085 16.9332 6.12478 16.7127 6.34043 16.3055C6.47669 16.0476 6.53521 15.7685 6.56515 15.4811C6.59042 15.2383 6.60279 14.9962 6.54152 14.7564C6.5406 14.752 6.5408 14.7472 6.54102 14.7416C6.54113 14.7389 6.54125 14.736 6.54125 14.7328H7.24725C7.24331 14.7673 7.23949 14.8013 7.23571 14.8349C7.22976 14.8878 7.22391 14.9398 7.21786 14.9916C7.20054 15.1403 7.18306 15.2889 7.16557 15.4375C7.12371 15.7933 7.08185 16.1491 7.04233 16.5052C7.01018 16.792 7.16073 16.9676 7.44972 16.9805C7.52369 16.9838 7.59803 16.9789 7.67241 16.974C7.70853 16.9717 7.74465 16.9693 7.78075 16.9678C7.82031 16.9665 7.83679 16.9505 7.84146 16.908C7.8618 16.7128 7.88421 16.5178 7.90663 16.3227C7.91479 16.2517 7.92295 16.1807 7.93101 16.1096C7.94049 16.026 7.94999 15.9424 7.9595 15.8588C8.0001 15.5014 8.04072 15.1439 8.07991 14.7864C8.08513 14.7399 8.10051 14.7276 8.14666 14.7281C8.32145 14.7299 8.49609 14.7298 8.67079 14.7298C8.73772 14.7297 8.80467 14.7297 8.87163 14.7298C8.88104 14.7298 8.89033 14.7304 8.90008 14.7311C8.90484 14.7314 8.90971 14.7317 8.91475 14.732C8.91475 14.7368 8.9149 14.741 8.91503 14.7448C8.91526 14.7514 8.91545 14.7568 8.91475 14.7622C8.89617 14.9212 8.87741 15.0803 8.85866 15.2393C8.81811 15.5832 8.77755 15.9271 8.73867 16.2712C8.7378 16.279 8.73694 16.2867 8.73607 16.2945C8.72309 16.4109 8.70995 16.5287 8.71586 16.6448C8.72494 16.8088 8.83097 16.9198 8.99085 16.9607C9.13414 16.9972 9.27868 16.9843 9.42327 16.9713C9.43114 16.9706 9.43901 16.9699 9.44687 16.9692C9.4911 16.9651 9.50676 16.9481 9.51198 16.903C9.55153 16.548 9.5917 16.1931 9.63187 15.8382C9.67205 15.4831 9.71224 15.128 9.7518 14.7729C9.7562 14.7358 9.76993 14.7281 9.80345 14.7287C9.87549 14.7297 9.94753 14.7295 10.0196 14.7293C10.0596 14.7292 10.0997 14.7291 10.1397 14.7292ZM11.0888 15.8365C11.0877 15.8216 11.0867 15.808 11.0855 15.7959C11.1028 15.5154 11.1201 15.2572 11.2182 15.0127C11.2608 14.9059 11.3193 14.8097 11.4135 14.7394C11.5781 14.6163 11.833 14.6361 11.9575 14.7833C12.0245 14.8627 12.058 14.9589 12.0627 15.0603C12.0778 15.3976 12.0492 15.7297 11.9017 16.0399C11.8349 16.1803 11.7273 16.28 11.5665 16.305C11.321 16.3432 11.1451 16.2165 11.1031 15.9698C11.0951 15.9232 11.0916 15.8758 11.0888 15.8365ZM5.74 15.1246C5.74153 15.1423 5.74291 15.1581 5.74459 15.1712C5.72865 15.4418 5.71079 15.6797 5.63168 15.9075C5.5891 16.0297 5.53058 16.1426 5.42537 16.225C5.24516 16.366 4.95919 16.3305 4.8438 16.1525C4.79244 16.0737 4.76634 15.9847 4.76414 15.8926C4.75563 15.5839 4.78227 15.2789 4.90012 14.9894C4.95259 14.86 5.03253 14.7493 5.16769 14.693C5.41905 14.5883 5.65805 14.7089 5.71904 14.974C5.73151 15.0268 5.73624 15.0813 5.74 15.1246Z" />
<path fill-rule="evenodd" clip-rule="evenodd" d="M15.3203 2.10352L22.2847 7.60156C22.501 7.77295 22.5381 8.0874 22.3672 8.3042C22.2686 8.42871 22.1221 8.49414 21.9741 8.49414C21.8657 8.49414 21.7564 8.45898 21.6646 8.38672L21.0078 7.86823V13.5166C21.0078 13.793 20.7842 14.0166 20.5078 14.0166H16.4771C16.4587 14.0166 16.442 14.012 16.4252 14.0073C16.4152 14.0046 16.4051 14.0018 16.3947 14H15V19.3828L15.9473 21.2773C16.0249 21.4326 16.0166 21.6162 15.9253 21.7637C15.834 21.9111 15.6734 22.001 15.5 22.001H1.50002C1.32668 22.001 1.16604 21.9111 1.07473 21.7637C0.983419 21.6162 0.975118 21.4326 1.05275 21.2773L2.00002 19.3828V11.5005C2.00002 11.2241 2.22365 11.0005 2.50002 11.0005H9.00783V7.87244L8.35647 8.38672C8.14016 8.55859 7.82473 8.52002 7.65383 8.3042C7.48293 8.0874 7.52004 7.77295 7.73635 7.60156L14.7002 2.10352C14.8819 1.95996 15.1377 1.95996 15.3203 2.10352ZM14 12.0005H3.00002V19.001H14V12.0005ZM2.8091 20.001L2.3091 21.001H14.6909L14.1909 20.001H2.8091ZM15 13H15.9771V9.99512H13.9854V11.0005H14.5C14.7764 11.0005 15 11.2241 15 11.5005V13ZM16.9771 13H20.0078V7.07874L15.0103 3.1333L10.0078 7.08289V11.0005H12.9854V9.49512C12.9854 9.21875 13.209 8.99512 13.4854 8.99512H16.4771C16.7534 8.99512 16.9771 9.21875 16.9771 9.49512V13Z" />
</svg>
