<svg width="24" height="24" viewBox="0 0 24 24" fill="none" xmlns="http://www.w3.org/2000/svg">
<path d="M16.7061 8.08301L14.3291 9.81006L12.4019 7.20215C12.2124 6.94727 11.7866 6.94727 11.5972 7.20215L9.66992 9.81006L7.29395 8.08301C7.13477 7.96875 6.92383 7.95654 6.75342 8.05225C6.58301 8.14893 6.48438 8.33643 6.50195 8.53174L7.12744 15.5576C7.15039 15.8154 7.3667 16.0132 7.62549 16.0132H16.3755C16.6343 16.0132 16.8506 15.8154 16.8735 15.5576L17.498 8.53174C17.5156 8.33643 17.417 8.14893 17.2466 8.05225C17.0757 7.95557 16.8652 7.96777 16.7061 8.08301ZM15.918 15.0132H8.08301L7.99402 14.0132H16.0069L15.918 15.0132ZM16.0958 13.0132H7.90497L7.5957 9.53857L9.4834 10.9106C9.70654 11.0728 10.0166 11.0244 10.1797 10.8037L11.9995 8.34082L13.8193 10.8037C13.9824 11.0244 14.293 11.0723 14.5156 10.9106L16.4048 9.53809L16.0958 13.0132ZM12 3C7.0376 3 3 7.0376 3 12C3 16.9624 7.0376 21 12 21C16.9624 21 21 16.9624 21 12C21 7.0376 16.9624 3 12 3ZM12 20C7.58887 20 4 16.4111 4 12C4 7.58887 7.58887 4 12 4C16.4111 4 20 7.58887 20 12C20 16.4111 16.4111 20 12 20Z" fill="#212121"/>
</svg>
