<svg width="24" height="24" viewBox="0 0 24 24" fill="none" xmlns="http://www.w3.org/2000/svg">
  <path d="M5.49512 5.16895C5.59277 5.26562 5.7207 5.31445 5.84814 5.31445C5.97656 5.31445 6.10498 5.26562 6.20264 5.16699C6.39746 4.97168 6.39648 4.65527 6.20117 4.45996L5.49316 3.75488C5.29785 3.56055 4.98096 3.56055 4.78564 3.75684C4.59082 3.95215 4.5918 4.26855 4.78711 4.46387L5.49512 5.16895ZM5.45605 15.7217L4.75 16.4297C4.55518 16.626 4.55518 16.9424 4.75098 17.1377C4.84863 17.2344 4.97607 17.2832 5.104 17.2832C5.23193 17.2832 5.36035 17.2344 5.45801 17.1367L6.16406 16.4287C6.35889 16.2324 6.35889 15.916 6.16309 15.7207C5.96777 15.5273 5.65137 15.5273 5.45605 15.7217ZM3.5 10H2.5C2.22363 10 2 10.2236 2 10.5C2 10.7764 2.22363 11 2.5 11H3.5C3.77637 11 4 10.7764 4 10.5C4 10.2236 3.77637 10 3.5 10ZM12 3C12.2764 3 12.5 2.77637 12.5 2.5V1.5C12.5 1.22363 12.2764 1 12 1C11.7236 1 11.5 1.22363 11.5 1.5V2.5C11.5 2.77637 11.7236 3 12 3ZM18.4238 15.7646C18.2285 15.5693 17.9121 15.5693 17.7168 15.7646C17.5215 15.96 17.5215 16.2764 17.7168 16.4717L18.4243 17.1787C18.522 17.2764 18.6499 17.3252 18.7778 17.3252C18.9058 17.3252 19.0337 17.2764 19.1313 17.1787C19.3267 16.9834 19.3267 16.667 19.1313 16.4717L18.4238 15.7646ZM21.5 10H20.5C20.2236 10 20 10.2236 20 10.5C20 10.7764 20.2236 11 20.5 11H21.5C21.7764 11 22 10.7764 22 10.5C22 10.2236 21.7764 10 21.5 10ZM12 5C8.29883 5 6 7.11426 6 10.5186C6 12.9082 7.04736 14.3291 7.88916 15.4707C8.50879 16.3105 8.99805 16.9746 8.99805 17.8213V19.5C8.99805 19.7764 9.22168 20 9.49805 20H10V22.5C10 22.7764 10.2236 23 10.5 23H13.5C13.7764 23 14 22.7764 14 22.5V20H14.4971C14.7734 20 14.9971 19.7764 14.9971 19.5V17.8213C14.9971 16.9785 15.4844 16.3242 16.1011 15.4941C16.9468 14.3564 18 12.9404 18 10.5186C18 7.11426 15.7012 5 12 5ZM13 22H11V20H13V22ZM15.2983 14.8975C14.6294 15.7979 13.9971 16.6484 13.9971 17.8213V19H9.99805V17.8213C9.99805 16.6455 9.36475 15.7871 8.69385 14.877C7.86084 13.748 7 12.5801 7 10.5186C7 7.64648 8.82227 6 12 6C15.1309 6 17 7.68945 17 10.5186C17 12.6094 16.1348 13.7725 15.2983 14.8975ZM18.4722 3.79785L17.7656 4.50488C17.5703 4.7002 17.5703 5.0166 17.7656 5.21191C17.8633 5.30957 17.9912 5.3584 18.1191 5.3584C18.2471 5.3584 18.375 5.30957 18.4727 5.21191L19.1792 4.50488C19.3745 4.30957 19.3745 3.99316 19.1792 3.79785C18.9839 3.60254 18.6675 3.60254 18.4722 3.79785Z" fill="#212121"/>
</svg>
