<svg  viewBox="0 0 24 24"  xmlns="http://www.w3.org/2000/svg">
<path d="M20.5 12H20V7.52639C20 7.25002 19.7764 7.02639 19.5 7.02639H14.522C14.6436 6.92782 14.767 6.83511 14.8828 6.71926C15.3887 6.2134 15.7539 5.6177 15.9131 5.04153C16.0986 4.36623 15.9883 3.78225 15.6025 3.39651C14.8594 2.65676 13.4326 2.96584 12.2793 4.11672C11.9418 4.45449 11.6866 4.82119 11.5001 5.18886C11.3085 4.83803 11.0532 4.48678 10.7227 4.15627C10.7227 4.15627 10.7227 4.15627 10.7227 4.15578C9.55176 2.98733 8.11719 2.65383 7.38672 3.38479C7.13379 3.63576 7.00098 3.98391 7 4.39065C6.99902 5.12649 7.43066 5.99856 8.1543 6.72317C8.26892 6.83761 8.3894 6.92825 8.50812 7.02639H4.5C4.22363 7.02639 4 7.25002 4 7.52639V12H3.5C3.22363 12 3 12.2237 3 12.5C3 12.7764 3.22363 13 3.5 13H4V19.5342C4 19.8106 4.22363 20.0342 4.5 20.0342H11V20.4981C11 20.7744 11.2236 20.9981 11.5 20.9981C11.7764 20.9981 12 20.7744 12 20.4981V20.0342H19.5C19.7764 20.0342 20 19.8106 20 19.5342V13H20.5C20.7764 13 21 12.7764 21 12.5C21 12.2237 20.7764 12 20.5 12ZM8 4.39211C8 4.29739 8.0166 4.16897 8.09277 4.0928C8.15137 4.0342 8.25391 4.00295 8.38672 4.00295C8.77148 4.00295 9.41406 4.26272 10.0156 4.86379C10.8242 5.67239 11.0146 6.5552 10.7852 6.7842C10.5518 7.01955 9.68359 6.8384 8.86133 6.01614C8.22461 5.37893 7.99902 4.7427 8 4.39211ZM11 19.0342H5V13H11V19.0342ZM11 12H5V8.02639H11V12ZM12.9863 4.82424C13.5664 4.24514 14.1777 4.001 14.5645 4.001C14.7129 4.001 14.8281 4.03713 14.8955 4.10403C15.0127 4.22121 15.0322 4.47219 14.9482 4.7759C14.8369 5.18166 14.5557 5.63235 14.1758 6.01223C13.373 6.81594 12.5088 6.97414 12.2666 6.73244C12.0244 6.49026 12.1846 5.626 12.9863 4.82424ZM19 19.0342H12V13H19V19.0342ZM19 12H12V8.02639H19V12Z" />
</svg>
