<svg viewBox="0 0 32 32" xmlns="http://www.w3.org/2000/svg"><path d="M27.0022 11.333H10.9557C10.8226 11.333 10.695 11.2627 10.6009 11.1376C10.5068 11.0126 10.4539 10.8429 10.4539 10.666C10.4539 10.4891 10.5068 10.3194 10.6009 10.1944C10.695 10.0693 10.8226 9.999 10.9557 9.999H27.0022C27.1353 9.999 27.2629 10.0693 27.357 10.1944C27.4511 10.3194 27.5039 10.4891 27.5039 10.666C27.5039 10.8429 27.4511 11.0126 27.357 11.1376C27.2629 11.2627 27.1353 11.333 27.0022 11.333ZM27.0022 16.671H10.9557C10.8226 16.671 10.695 16.6007 10.6009 16.4756C10.5068 16.3506 10.4539 16.1809 10.4539 16.004C10.4539 15.8271 10.5068 15.6574 10.6009 15.5324C10.695 15.4073 10.8226 15.337 10.9557 15.337H27.0022C27.1353 15.337 27.2629 15.4073 27.357 15.5324C27.4511 15.6574 27.5039 15.8271 27.5039 16.004C27.5039 16.1809 27.4511 16.3506 27.357 16.4756C27.2629 16.6007 27.1353 16.671 27.0022 16.671ZM27.0022 22.001H10.9557C10.8226 22.001 10.695 21.9307 10.6009 21.8056C10.5068 21.6806 10.4539 21.5109 10.4539 21.334C10.4539 21.1571 10.5068 20.9874 10.6009 20.8624C10.695 20.7373 10.8226 20.667 10.9557 20.667H27.0022C27.1353 20.667 27.2629 20.7373 27.357 20.8624C27.4511 20.9874 27.5039 21.1571 27.5039 21.334C27.5039 21.5109 27.4511 21.6806 27.357 21.8056C27.2629 21.9307 27.1353 22.001 27.0022 22.001Z"/><path d="M4.64094 17.8976V17.1874L5.99747 16.0653C6.08743 15.9907 6.16438 15.9208 6.2283 15.8557C6.2934 15.7895 6.34312 15.7214 6.37744 15.6515C6.41296 15.5817 6.43071 15.5042 6.43071 15.4189C6.43071 15.3254 6.41059 15.2455 6.37034 15.1792C6.33128 15.113 6.27683 15.0621 6.20699 15.0265C6.13715 14.9899 6.05666 14.9715 5.96551 14.9715C5.87437 14.9715 5.79387 14.9899 5.72404 15.0265C5.65538 15.0632 5.60211 15.1171 5.56423 15.1881C5.52636 15.2591 5.50742 15.3456 5.50742 15.4474H4.56992C4.56992 15.1917 4.62733 14.9715 4.74215 14.7868C4.85697 14.6022 5.01913 14.4601 5.22865 14.3607C5.43817 14.2613 5.68379 14.2116 5.96551 14.2116C6.25671 14.2116 6.50884 14.2583 6.7219 14.3518C6.93616 14.4442 7.10128 14.5744 7.21729 14.7425C7.33448 14.9105 7.39307 15.1076 7.39307 15.3337C7.39307 15.4734 7.36407 15.6125 7.30607 15.751C7.24806 15.8883 7.1439 16.0404 6.99357 16.2073C6.84323 16.3742 6.62957 16.5731 6.35259 16.8039L6.01168 17.088V17.1093H7.43213V17.8976H4.64094Z"/><path d="M6.58639 8.78855V12.4249H5.59917V9.69764H5.57786L4.78241 10.1735V9.33542L5.6773 8.78855H6.58639Z"/><path d="M5.98325 23.2115C5.6968 23.2115 5.4423 23.1623 5.21976 23.0641C4.99841 22.9646 4.8244 22.8279 4.69774 22.6539C4.57109 22.4799 4.50717 22.2799 4.50598 22.0538H5.5003C5.50148 22.1236 5.52279 22.1864 5.56422 22.242C5.60683 22.2964 5.66484 22.3391 5.73823 22.3698C5.81162 22.4006 5.89566 22.416 5.99036 22.416C6.0815 22.416 6.16199 22.4 6.23183 22.3681C6.30167 22.3349 6.35612 22.2893 6.39519 22.2313C6.43425 22.1733 6.45319 22.107 6.452 22.0325C6.45319 21.9591 6.4307 21.894 6.38453 21.8372C6.33955 21.7803 6.27622 21.736 6.19455 21.704C6.11287 21.672 6.01877 21.6561 5.91223 21.6561H5.54291V20.9742H5.91223C6.01048 20.9742 6.09689 20.9583 6.17146 20.9263C6.24722 20.8943 6.30582 20.8499 6.34725 20.7931C6.38986 20.7363 6.41057 20.6712 6.40939 20.5978C6.41057 20.5268 6.39341 20.4641 6.3579 20.4096C6.32239 20.3552 6.27267 20.3125 6.20875 20.2818C6.14601 20.251 6.07322 20.2356 5.99036 20.2356C5.90039 20.2356 5.8199 20.2516 5.74888 20.2835C5.67904 20.3155 5.624 20.3599 5.58375 20.4167C5.54351 20.4735 5.52279 20.5386 5.52161 20.612H4.577C4.57819 20.3895 4.63915 20.193 4.75989 20.0225C4.88181 19.8521 5.04871 19.7183 5.2606 19.6213C5.47248 19.5242 5.71574 19.4757 5.99036 19.4757C6.25906 19.4757 6.49639 19.5212 6.70236 19.6124C6.90951 19.7035 7.07109 19.829 7.18709 19.9888C7.30428 20.1474 7.36228 20.3291 7.3611 20.5339C7.36346 20.7375 7.29362 20.9044 7.15158 21.0346C7.01072 21.1648 6.83198 21.2418 6.61536 21.2654V21.2938C6.90892 21.3258 7.12968 21.4158 7.27764 21.5637C7.42561 21.7105 7.49841 21.8952 7.49604 22.1177C7.49722 22.3308 7.4333 22.5196 7.30428 22.6841C7.17644 22.8486 6.99829 22.9777 6.76983 23.0712C6.54256 23.1647 6.28037 23.2115 5.98325 23.2115Z"/></svg>
