<svg width="24" height="24" viewBox="0 0 24 24" fill="none" xmlns="http://www.w3.org/2000/svg">
<path d="M12.5376 5.02051C12.3955 5.00732 12.2612 5.05762 12.1597 5.15234C12.0576 5.24707 11.9995 5.37988 11.9995 5.51904L12 18.481C12 18.6201 12.0581 18.7529 12.1602 18.8477C12.2529 18.9336 12.3745 18.981 12.5 18.981C12.5127 18.981 12.5254 18.9805 12.5381 18.9795C16.1616 18.7036 19 15.6382 19 12C19 8.36133 16.1611 5.2959 12.5376 5.02051ZM12 3C7.0376 3 3 7.0376 3 12C3 16.9624 7.0376 21 12 21C16.9624 21 21 16.9624 21 12C21 7.0376 16.9624 3 12 3ZM12 20C7.58887 20 4 16.4111 4 12C4 7.58887 7.58887 4 12 4C16.4111 4 20 7.58887 20 12C20 16.4111 16.4111 20 12 20Z" fill="#212121"/>
</svg>
