<svg viewBox="0 0 24 24" xmlns="http://www.w3.org/2000/svg">
<path d="M17.1235 9.38867C16.9736 9.23437 16.7437 9.19336 16.5513 9.28711C16.3579 9.37988 16.2451 9.58398 16.27 9.79688C16.3667 10.626 16.3428 12.1426 15.8662 12.6777C15.6626 12.9082 15.3389 12.9336 15.127 12.7139C14.5171 12.0811 14.5972 9.91797 14.6445 8.62598C14.6543 8.37402 14.6626 8.14062 14.6665 7.93848C14.6987 6.20117 13.48 4.69434 12.7505 3.95117C11.6406 2.82031 10.2734 2 9.5 2C9.34375 2 9.19678 2.07324 9.10205 2.19727C9.00781 2.32129 8.97656 2.48242 9.01807 2.63281C9.0249 2.65723 9.67773 5.14258 7.74463 8.08105C6.09717 10.585 5 12.748 5 15.167C5 18.9346 8.14014 22 12 22C15.8599 22 19 18.9346 19 15.167C19 11.3467 17.2002 9.4668 17.1235 9.38867ZM13.7749 19.6016C13.4634 20.4775 12.7998 21 12 21C10.2896 21 9 19.2773 9 16.9922C9 15.4199 9.87939 14.0107 10.6553 13.0732C10.7539 14.0654 11.3433 15.3877 13.1841 16.8877C14.0132 17.5635 14.0718 18.7686 13.7749 19.6016ZM14.4679 20.4778C14.5623 20.3082 14.6486 20.1304 14.7173 19.9375C15.1416 18.7451 15.0273 17.0996 13.8159 16.1123C10.6797 13.5566 11.8486 11.8701 11.896 11.8057C12.0508 11.6045 12.0308 11.3203 11.8501 11.1426C11.6704 10.9658 11.3843 10.9512 11.1865 11.1104C11.0566 11.2148 8 13.71 8 16.9922C8 18.206 8.32471 19.2781 8.85748 20.1266C7.14624 19.0981 6 17.2628 6 15.167C6 12.9971 7.03125 10.9844 8.57959 8.62988C10.0801 6.34961 10.1948 4.29688 10.1099 3.20117C10.6284 3.45605 11.3486 3.95117 12.0366 4.65234C12.6562 5.2832 13.6924 6.54687 13.6665 7.91895C13.6631 8.11719 13.6543 8.34375 13.6455 8.58887C13.585 10.2266 13.502 12.4688 14.4072 13.4082C15.0015 14.0254 16.0425 13.9873 16.6138 13.3418C17.0205 12.8848 17.2012 12.1768 17.2734 11.5029C17.647 12.3447 18 13.5645 18 15.167C18 17.528 16.5475 19.5609 14.4679 20.4778Z"/>
</svg>
