<svg  viewBox="0 0 24 24"  xmlns="http://www.w3.org/2000/svg">
<path d="M21.0474 7.57617C20.8228 7.8418 20.5068 8 20.2012 8C19.4168 8 18.9932 7.55457 18.7628 7H19.6758C19.9521 7 20.1758 6.77637 20.1758 6.5C20.1758 6.22363 19.9521 6 19.6758 6H18.5314C18.5153 5.82404 18.5054 5.65295 18.5054 5.50098C18.5054 5.34851 18.5154 5.1767 18.5317 5H20.3315C20.6079 5 20.8315 4.77637 20.8315 4.5C20.8315 4.22363 20.6079 4 20.3315 4H18.7648C18.9968 3.44537 19.4229 3 20.2114 3C20.5469 3 20.9209 3.24121 21.126 3.46484C21.312 3.66797 21.6299 3.68066 21.8325 3.49512C22.0361 3.30859 22.0498 2.99219 21.8633 2.78906C21.5132 2.40723 20.8955 2 20.2114 2C18.9747 2 18.0878 2.73981 17.7099 4H17.0054C16.729 4 16.5054 4.22363 16.5054 4.5C16.5054 4.77637 16.729 5 17.0054 5H17.5365C17.523 5.16443 17.5054 5.32544 17.5054 5.50098C17.5054 5.67633 17.5225 5.83618 17.5352 6H17.0054C16.729 6 16.5054 6.22363 16.5054 6.5C16.5054 6.77637 16.729 7 17.0054 7H17.6996C18.0674 8.27368 18.945 9 20.2012 9C20.7974 9 21.3994 8.70898 21.8115 8.2207C21.9893 8.00977 21.9629 7.69434 21.752 7.5166C21.5386 7.33789 21.2236 7.36523 21.0474 7.57617ZM19.2842 19.3789C17.8565 20.0611 16.5203 20.4471 15.2673 20.6739C15.2656 20.6616 15.2697 20.65 15.2671 20.6377L14.3458 16.2126C15.2653 16.0709 16.0577 15.9446 16.5444 15.8584C17.2847 15.7266 17.3916 14.5967 17.3447 14.2207C17.2988 13.8516 16.9687 13.3994 16.6768 13.1758C16.3896 12.9551 16.1382 12.9365 15.978 12.957C15.5118 13.0218 14.6831 13.142 13.7354 13.2809L13.4296 11.8124L13.9482 11.7373C14.2212 11.6973 14.4111 11.4434 14.3711 11.1709C14.332 10.8975 14.0786 10.7119 13.8047 10.7471L12.7594 10.8985C12.7592 10.8985 12.759 10.8984 12.7588 10.8984L12.7071 10.9061L7.62359 11.6424C6.7409 9.1413 5.49469 5.60297 4.86133 3.77344C4.64355 3.14355 3.69043 2.88086 3.04394 3.08301C2.62109 3.21582 2.30469 3.59375 2.14941 3.90234C1.99414 4.21094 1.95703 4.51953 2.04443 4.77051C3.23242 8.16797 6.41064 16.8906 6.44287 16.9785C6.48535 17.0955 6.57269 17.1764 6.67511 17.2332L5.92969 20.4271C5.07879 20.1918 4.169 19.8663 3.16553 19.3799C2.9165 19.2588 2.61767 19.3633 2.49756 19.6123C2.37695 19.8604 2.48047 20.1592 2.729 20.2803C6.1167 21.9219 8.66601 21.9834 10.7266 21.9834H11.2236C12.9463 21.9834 16.1533 21.9834 19.7153 20.2812C19.9648 20.1621 20.0703 19.8633 19.9512 19.6143C19.832 19.3652 19.5342 19.2588 19.2842 19.3789ZM16.0264 13.9414C16.1294 13.9854 16.3267 14.248 16.3525 14.3447C16.3696 14.4814 16.3188 14.7627 16.2607 14.8926C15.765 14.9787 15.0095 15.0987 14.1417 15.2324L13.9381 14.2545C14.8303 14.1211 15.6012 14.0056 16.0264 13.9414ZM8.80859 12.4922L12.438 11.957L12.744 13.4266C11.0613 13.6745 9.26355 13.9418 8.47705 14.0586C8.47119 14.042 8.46271 14.0179 8.45648 14.0004L8.80859 12.4922ZM8.19793 15.108C8.20428 15.1072 8.21045 15.1094 8.21679 15.1084C8.21679 15.1084 10.7142 14.7362 12.9471 14.4026L13.1514 15.3835C11.3009 15.6636 9.20538 15.9698 7.95428 16.1517L8.19793 15.108ZM2.99902 4.46973C3.01513 4.34668 3.19385 4.08496 3.34326 4.03809C3.53418 3.97754 3.86328 4.05957 3.91601 4.10059C4.53491 5.8869 5.73633 9.29852 6.61487 11.7885L5.67175 11.9251C4.71863 9.29242 3.60571 6.2041 2.99902 4.46973ZM6.01977 12.8857L6.95434 12.7504C7.13653 13.2665 7.29608 13.7178 7.41626 14.058L7.03625 15.686C6.78985 15.0083 6.43152 14.0217 6.01977 12.8857ZM11.2236 20.9834H10.9775C9.75732 20.9789 8.43634 20.9716 6.90136 20.6619L7.71008 17.1978C8.88543 17.0274 11.2812 16.6782 13.3555 16.364L14.2839 20.8232C13.194 20.9551 12.171 20.9834 11.2236 20.9834Z" />
</svg>
