<svg viewBox="0 0 24 24" xmlns="http://www.w3.org/2000/svg">
<path d="M11.5127 8.98779C11.6406 8.98779 11.7685 8.93896 11.8662 8.84131L15.4756 5.23145L17.122 6.87793C17.2197 6.97559 17.3476 7.02441 17.4756 7.02441C17.6035 7.02441 17.7314 6.97559 17.8291 6.87793L21 3.70703V5.5C21 5.77637 21.2236 6 21.5 6C21.7763 6 22 5.77637 22 5.5V2.5C22 2.43494 21.9868 2.37018 21.9615 2.30908C21.9109 2.18665 21.8133 2.08911 21.6909 2.03845C21.6298 2.01318 21.565 2 21.5 2H18.5C18.2236 2 18 2.22363 18 2.5C18 2.77637 18.2236 3 18.5 3H20.2929L17.4756 5.81738L15.8291 4.1709C15.6338 3.97559 15.3174 3.97559 15.122 4.1709L11.1592 8.13428C10.9638 8.32959 10.9638 8.646 11.1592 8.84131C11.2568 8.93896 11.3847 8.98779 11.5127 8.98779ZM21.9326 17.5093C21.623 16.4966 19.876 15.9653 18.6845 15.8286L18.6855 14.8337C18.8462 14.5709 18.9714 14.2634 19.0459 13.9038C19.2793 13.7402 19.4531 13.4048 19.5322 12.938C19.5713 12.7017 19.5762 12.4355 19.5449 12.208C19.5195 12.0249 19.4717 11.8862 19.4121 11.7812C19.4199 11.2905 19.372 10.3267 18.7265 9.65479C18.3095 9.22021 17.7334 9 17.0127 9C16.292 9 15.7148 9.22021 15.2978 9.65479C14.6592 10.3203 14.6054 11.272 14.6133 11.7812C14.4209 12.1128 14.4453 12.6567 14.4931 12.938C14.5342 13.1826 14.6064 13.4048 14.7041 13.5801C14.7881 13.7324 14.8828 13.833 14.9765 13.8984C15.0503 14.2617 15.1768 14.5724 15.3399 14.8377L15.3408 15.8286C14.759 15.8953 14.0464 16.0577 13.4318 16.3224C13.4725 16.2057 13.5081 16.0803 13.5322 15.938C13.5713 15.7017 13.5762 15.4355 13.5449 15.208C13.5195 15.0249 13.4717 14.8862 13.4121 14.7812C13.4199 14.2905 13.372 13.3267 12.7265 12.6548C12.3095 12.2202 11.7334 12 11.0127 12C10.292 12 9.71482 12.2202 9.29783 12.6548C9.22697 12.7286 9.18747 12.8152 9.13029 12.8951C8.97642 12.8676 8.82609 12.8448 8.68455 12.8286L8.68546 11.8337C8.84617 11.5709 8.97141 11.2634 9.04588 10.9038C9.27928 10.7402 9.4531 10.4048 9.53221 9.93799C9.57127 9.70166 9.57615 9.43555 9.5449 9.20801C9.51951 9.0249 9.47166 8.88623 9.41209 8.78125C9.4199 8.29053 9.37205 7.32666 8.72654 6.65479C8.30955 6.22021 7.73338 6 7.01267 6C6.29197 6 5.71482 6.22021 5.29783 6.65479C4.65916 7.32031 4.60545 8.27197 4.61326 8.78125C4.42088 9.11279 4.44529 9.65674 4.49314 9.93799C4.53416 10.1826 4.60642 10.4048 4.70408 10.5801C4.78806 10.7324 4.88279 10.833 4.97654 10.8984C5.05027 11.2617 5.1768 11.5724 5.33994 11.8377L5.3408 12.8286C4.14842 12.9653 2.40037 13.4966 2.09275 14.5098C1.9492 14.9829 2.04002 15.5312 2.05076 15.5923C2.09373 15.834 2.30467 16.0039 2.54197 16.0039C2.57029 16.0039 2.59959 16.0015 2.62889 15.9961C2.90037 15.9487 3.08201 15.6899 3.03514 15.4185C3.01951 15.3237 2.98728 15.0068 3.04978 14.8008C3.13365 14.5253 3.87748 14.1596 4.73002 13.9531C4.89903 15.0818 5.85801 15.9233 7.01267 15.9233C7.56254 15.9233 8.06468 15.7269 8.46324 15.4056C8.45426 15.6082 8.47025 15.8036 8.49314 15.938C8.53416 16.1826 8.60642 16.4048 8.70408 16.5801C8.78806 16.7324 8.88279 16.833 8.97654 16.8984C9.05027 17.2617 9.1768 17.5724 9.33994 17.8377L9.3408 18.8286C8.14842 18.9653 6.40037 19.4966 6.09275 20.5098C5.9492 20.9829 6.04002 21.5312 6.05076 21.5923C6.09373 21.834 6.30467 22.0039 6.54197 22.0039C6.57029 22.0039 6.59959 22.0015 6.62889 21.9961C6.90037 21.9487 7.08201 21.6899 7.03514 21.4185C7.01951 21.3237 6.98728 21.0068 7.04978 20.8008C7.13365 20.5253 7.87748 20.1596 8.73002 19.9531C8.89903 21.0818 9.85801 21.9233 11.0127 21.9233C12.167 21.9233 13.1257 21.0819 13.2951 19.9533C14.1477 20.16 14.8917 20.5258 14.9756 20.8008C15.0381 21.0063 15.0058 21.3228 14.9892 21.4175C14.9424 21.6885 15.123 21.9478 15.3945 21.9961C15.4238 22.001 15.4531 22.0039 15.4824 22.0039C15.7197 22.0039 15.9297 21.8345 15.9736 21.5933C15.9844 21.5322 16.0771 20.9834 15.9326 20.5093C15.6393 19.5499 14.061 19.0272 12.8821 18.8581C12.9977 18.7468 13.0645 18.5883 13.0351 18.4185C13.0195 18.3237 12.9873 18.0068 13.0498 17.8008C13.1336 17.5253 13.8775 17.1596 14.73 16.9531C14.899 18.0818 15.858 18.9233 17.0127 18.9233C18.167 18.9233 19.1257 18.0819 19.2951 16.9533C20.1477 17.16 20.8917 17.5258 20.9756 17.8008C21.0381 18.0063 21.0058 18.3228 20.9892 18.4175C20.9424 18.6885 21.123 18.9478 21.3945 18.9961C21.4238 19.001 21.4531 19.0039 21.4824 19.0039C21.7197 19.0039 21.9297 18.8345 21.9736 18.5933C21.9844 18.5322 22.0771 17.9834 21.9326 17.5093ZM7.01267 14.9233C6.35667 14.9233 5.81632 14.4437 5.72038 13.8032C5.76383 13.8009 5.80863 13.7944 5.85154 13.7935C6.12303 13.7876 6.3408 13.5654 6.3408 13.293L6.34043 12.6648C6.5474 12.7359 6.77085 12.7769 7.01267 12.7769C7.25425 12.7769 7.47758 12.7361 7.68437 12.665L7.68357 13.293C7.68357 13.5649 7.90037 13.7876 8.17283 13.7935C8.21592 13.7944 8.26097 13.801 8.30467 13.8032C8.20829 14.4438 7.66831 14.9233 7.01267 14.9233ZM8.54588 9.77197C8.52928 9.87305 8.50486 9.95557 8.4824 10.0146C8.47947 10.0156 8.47654 10.0161 8.47361 10.0171C8.27732 10.0708 8.13084 10.2549 8.10642 10.457C8.00291 11.333 7.63474 11.7769 7.01267 11.7769C7.0128 11.7769 7.01255 11.7769 7.01267 11.7769C6.38993 11.7766 6.02146 11.3323 5.91111 10.4062C5.88084 10.2085 5.73435 10.0479 5.54002 9.99854C5.53904 9.99805 5.53709 9.99756 5.53611 9.99707C5.5156 9.93994 5.49412 9.86377 5.47947 9.77197C5.45017 9.60059 5.45799 9.4248 5.47264 9.32715C5.53514 9.26221 5.58201 9.18164 5.60447 9.09033C5.61619 9.04443 5.6201 8.97412 5.61814 8.92725C5.58787 8.18799 5.72264 7.65625 6.01951 7.34766C6.24308 7.11383 6.56822 7.00018 7.01225 7.00006C7.01213 7.00006 7.01237 7.00006 7.01225 7.00006C7.45561 7.00006 7.78123 7.11377 8.00584 7.34717C8.30174 7.65576 8.4365 8.18604 8.40623 8.94775C8.40525 8.95557 8.40525 8.96289 8.40525 8.9707C8.40525 9.07812 8.43943 9.17627 8.49705 9.25586C8.51365 9.27881 8.53123 9.30029 8.55076 9.32031C8.56639 9.41699 8.57517 9.59717 8.54588 9.77197ZM11.0127 20.9233C10.3567 20.9233 9.81632 20.4437 9.72038 19.8032C9.76383 19.8009 9.80863 19.7944 9.85154 19.7935C10.123 19.7876 10.3408 19.5654 10.3408 19.293L10.3404 18.6648C10.5474 18.7359 10.7709 18.7769 11.0127 18.7769C11.2543 18.7769 11.4776 18.7361 11.6844 18.665L11.6836 19.293C11.6836 19.5649 11.9004 19.7876 12.1728 19.7935C12.2159 19.7944 12.261 19.801 12.3047 19.8032C12.2083 20.4438 11.6683 20.9233 11.0127 20.9233ZM12.5459 15.772C12.5293 15.873 12.5049 15.9556 12.4824 16.0146C12.4795 16.0156 12.4765 16.0161 12.4736 16.0171C12.2773 16.0708 12.1308 16.2549 12.1064 16.457C12.0029 17.333 11.6347 17.7769 11.0127 17.7769C11.0128 17.7769 11.0126 17.7769 11.0127 17.7769C10.3899 17.7766 10.0215 17.3323 9.91111 16.4062C9.88084 16.2085 9.73435 16.0479 9.54002 15.9985C9.53904 15.998 9.53709 15.9976 9.53611 15.9971C9.5156 15.9399 9.49412 15.8638 9.47947 15.772C9.45017 15.6006 9.45799 15.4248 9.47264 15.3271C9.53514 15.2622 9.58201 15.1816 9.60447 15.0903C9.61619 15.0444 9.6201 14.9741 9.61814 14.9272C9.58787 14.188 9.72264 13.6562 10.0195 13.3477C10.2431 13.1138 10.5682 13.0002 11.0122 13.0001C11.0121 13.0001 11.0124 13.0001 11.0122 13.0001C11.4556 13.0001 11.7812 13.1138 12.0058 13.3472C12.3017 13.6558 12.4365 14.186 12.4062 14.9478C12.4053 14.9556 12.4053 14.9629 12.4053 14.9707C12.4053 15.0781 12.4394 15.1763 12.497 15.2559C12.5137 15.2788 12.5312 15.3003 12.5508 15.3203C12.5664 15.417 12.5752 15.5972 12.5459 15.772ZM17.0127 17.9233C16.3567 17.9233 15.8163 17.4437 15.7204 16.8032C15.7638 16.8009 15.8086 16.7944 15.8515 16.7935C16.123 16.7876 16.3408 16.5654 16.3408 16.293L16.3404 15.6648C16.5474 15.7359 16.7709 15.7769 17.0127 15.7769C17.2543 15.7769 17.4776 15.7361 17.6844 15.665L17.6836 16.293C17.6836 16.5649 17.9004 16.7876 18.1728 16.7935C18.2159 16.7944 18.261 16.801 18.3047 16.8032C18.2083 17.4438 17.6683 17.9233 17.0127 17.9233ZM18.5459 12.772C18.5293 12.873 18.5049 12.9556 18.4824 13.0146C18.4795 13.0156 18.4765 13.0161 18.4736 13.0171C18.2773 13.0708 18.1308 13.2549 18.1064 13.457C18.0029 14.333 17.6347 14.7769 17.0127 14.7769C17.0128 14.7769 17.0126 14.7769 17.0127 14.7769C16.3899 14.7766 16.0215 14.3323 15.9111 13.4062C15.8808 13.2085 15.7344 13.0479 15.54 12.9985C15.539 12.998 15.5371 12.9976 15.5361 12.9971C15.5156 12.9399 15.4941 12.8638 15.4795 12.772C15.4502 12.6006 15.458 12.4248 15.4726 12.3271C15.5351 12.2622 15.582 12.1816 15.6045 12.0903C15.6162 12.0444 15.6201 11.9741 15.6181 11.9272C15.5879 11.188 15.7226 10.6562 16.0195 10.3477C16.2431 10.1138 16.5682 10.0002 17.0122 10.0001C17.0121 10.0001 17.0124 10.0001 17.0122 10.0001C17.4556 10.0001 17.7812 10.1138 18.0058 10.3472C18.3017 10.6558 18.4365 11.186 18.4062 11.9478C18.4053 11.9556 18.4053 11.9629 18.4053 11.9707C18.4053 12.0781 18.4394 12.1763 18.497 12.2559C18.5137 12.2788 18.5312 12.3003 18.5508 12.3203C18.5664 12.417 18.5752 12.5972 18.5459 12.772Z"/>
</svg>
