<svg  viewBox="0 0 24 24"  xmlns="http://www.w3.org/2000/svg">
<path d="M15.2393 6H13.4561C13.2021 6 12.9883 6.19092 12.9595 6.44336L12.5034 10.4434C12.4722 10.7178 12.6689 10.9653 12.9434 10.9966C12.9624 10.999 12.9819 11 13.001 11C13.251 11 13.4678 10.8115 13.4971 10.5566L13.6738 9H15.0098C15.5938 9 16.4873 8.61035 16.5635 7.53662C16.6035 6.98047 16.4033 6.63477 16.2285 6.44238C15.8496 6.02588 15.3115 6.00146 15.2393 6ZM15.0098 8H13.7881L13.9023 7L15.2197 6.99951C15.2197 6.99951 15.3984 7.01318 15.4912 7.11865C15.5518 7.18799 15.5771 7.30469 15.5654 7.46582C15.5322 7.93555 15.1621 7.99609 15.0098 8ZM11.5542 6.00488C11.2847 5.97949 11.0332 6.17334 11.0024 6.44727L10.6792 9.37939C10.6724 9.44238 10.5786 9.99756 9.44727 9.99756C9.09717 9.99756 8.84473 9.9248 8.71631 9.78711C8.5918 9.65332 8.60352 9.47168 8.60352 9.47168L8.9248 6.55664C8.95508 6.28223 8.75684 6.03516 8.48242 6.00488C8.20264 5.97266 7.96045 6.17285 7.93066 6.44727L7.60986 9.3584C7.60254 9.42041 7.5498 9.97998 7.96289 10.4448C8.28906 10.8115 8.78809 10.9976 9.44727 10.9976C11.1523 10.9976 11.6514 9.97949 11.6748 9.47168L11.9966 6.55664C12.0269 6.28223 11.8286 6.03516 11.5542 6.00488ZM18.8341 10.5C18.9402 10.0162 19 9.51526 19 9C19 5.14014 15.8594 2 12 2C8.14014 2 5 5.14014 5 9C5 9.51526 5.05975 10.0162 5.16589 10.5C5.05975 10.9838 5 11.4847 5 12C5 12.5153 5.05975 13.0162 5.16589 13.5C5.05975 13.9838 5 14.4847 5 15C5 18.8599 8.14014 22 12 22C15.8594 22 19 18.8599 19 15C19 14.4847 18.9402 13.9838 18.8341 13.5C18.9402 13.0162 19 12.5153 19 12C19 11.4847 18.9402 10.9838 18.8341 10.5ZM12 21C8.90997 21 6.35986 18.652 6.03619 15.6465C7.26819 17.6539 9.47699 19 12 19C14.5228 19 16.7318 17.6537 17.9639 15.6463C17.6403 18.6518 15.0901 21 12 21ZM12 18C8.90997 18 6.35986 15.652 6.03619 12.6465C7.26819 14.6539 9.47699 16 12 16C14.5228 16 16.7318 14.6537 17.9639 12.6463C17.6403 15.6518 15.0901 18 12 18ZM12 15C8.69141 15 6 12.3086 6 9C6 5.69141 8.69141 3 12 3C15.3086 3 18 5.69141 18 9C18 12.3086 15.3086 15 12 15Z" />
</svg>
