<svg  viewBox="0 0 24 24"  xmlns="http://www.w3.org/2000/svg">
<path d="M18.6707 14.5063V12.6583C19.1243 12.6583 19.6092 12.6885 19.9187 13.0663C20.2367 13.4555 20.2547 14.0285 20.2547 14.5063H18.6707Z" />
<path fill-rule="evenodd" clip-rule="evenodd" d="M17.4617 10.883H18.7187L18.718 10.8815C19.9427 10.8815 21.997 11.3683 21.997 14.6278V18.6815C21.997 18.8142 21.9443 18.9414 21.8505 19.0353C21.7567 19.1291 21.6294 19.1818 21.4967 19.1818H18.9827C18.7562 20.0608 17.9402 20.7035 17.0252 20.7035C16.0277 20.7035 15.322 20.0075 15.1007 19.1818H13.4222C13.1957 20.0608 12.3797 20.7035 11.4647 20.7035C10.4672 20.7035 9.76148 20.0075 9.54023 19.1818H8.55548C7.91198 19.1818 7.91048 18.182 8.55548 18.182H9.51473C9.58368 17.8865 9.72199 17.6117 9.91823 17.3803H7.48298C7.20698 17.3803 6.98348 17.156 6.98348 16.88V12.2975L4.64498 13.7128C4.27373 13.9378 3.79823 13.5898 3.90023 13.1675L4.67948 9.95303L2.16848 7.79303C1.83923 7.50953 2.02298 6.94853 2.45648 6.91553L5.76248 6.66128L7.04498 3.61028C7.21373 3.20903 7.80173 3.20978 7.96823 3.61328L9.23198 6.67178L12.5365 6.94628C12.9692 6.98303 13.15 7.54403 12.8185 7.82603L11.095 9.29003H15.6655C15.9418 9.29003 16.1657 9.514 16.1657 9.79028V16.8515C16.4149 16.735 16.6864 16.6739 16.9615 16.6723V11.3833C16.9615 11.107 17.1855 10.883 17.4617 10.883ZM3.73373 7.82078L5.56373 9.39503L5.56448 9.39653C5.70692 9.51878 5.76866 9.71066 5.72423 9.89303L5.15573 12.2375L7.22423 10.9858C7.38416 10.8882 7.58537 10.8888 7.74473 10.9873L9.80498 12.2518L9.25148 9.90353C9.21573 9.74531 9.2594 9.57959 9.36848 9.45953C9.37358 9.45274 9.3791 9.4468 9.38473 9.44075L9.39023 9.43478C9.3937 9.43131 9.39678 9.42744 9.3999 9.42351C9.40419 9.41811 9.40859 9.41255 9.41423 9.40778L11.2532 7.84478L8.84498 7.64453C8.6582 7.62895 8.4958 7.51026 8.42423 7.33703L7.50173 5.10503L6.56573 7.33103C6.49332 7.50376 6.33024 7.62137 6.14348 7.63553L3.73373 7.82078ZM7.98323 16.3813V12.3065L10.3052 13.7315C10.384 13.7799 10.4746 13.8053 10.567 13.805C10.8827 13.805 11.1257 13.4975 11.0537 13.19L10.3697 10.2905H15.166V16.382L7.98398 16.3805L7.98323 16.3813ZM15.076 18.1828C15.1448 17.8878 15.2829 17.6135 15.4787 17.3825L12.9835 17.3818C13.1903 17.6107 13.3404 17.8851 13.4215 18.1828H15.076ZM11.4647 19.7053C10.147 19.7053 10.1462 17.66 11.4647 17.66C12.7832 17.66 12.7825 19.7053 11.4647 19.7053ZM17.026 19.7053C15.7082 19.7053 15.7075 17.66 17.026 17.66C18.3445 17.66 18.3437 19.7053 17.026 19.7053ZM20.9972 18.1828H18.982C18.8335 17.6323 18.4472 17.1853 17.9612 16.9243V11.8835H18.7187C20.2525 11.8835 20.9972 12.782 20.9972 14.63V18.1828Z" />
</svg>
