<svg  viewBox="0 0 24 24"  xmlns="http://www.w3.org/2000/svg">
<path d="M9 10.5008C9 10.777 9.22397 11.001 9.50025 11.001C9.77653 11.001 10.0005 10.777 10.0005 10.5008V9.501C10.0005 9.22472 9.77653 9.00075 9.50025 9.00075C9.22397 9.00075 9 9.22472 9 9.501V10.5008Z" />
<path d="M9.99825 16.0005H13.998C14.2743 16.0005 14.4983 15.7765 14.4983 15.5003C14.4983 15.224 14.2743 15 13.998 15H9.99825C9.72197 15 9.498 15.224 9.498 15.5003C9.498 15.7765 9.72197 16.0005 9.99825 16.0005Z" />
<path d="M14.4998 11.001C14.367 11.0012 14.2397 10.9486 14.1458 10.8547C14.0519 10.7608 13.9993 10.6335 13.9995 10.5008V9.501C13.9995 9.22472 14.2235 9.00075 14.4998 9.00075C14.776 9.00075 15 9.22472 15 9.501V10.5008C15 10.777 14.776 11.001 14.4998 11.001Z" />
<path fill-rule="evenodd" clip-rule="evenodd" d="M12 21.0015C7.03725 21.0015 3 16.9635 3 12.0008C3 7.038 7.03725 3 12 3C16.9628 3 21 7.03725 21 12.0008C21 16.9643 16.9628 21.0015 12 21.0015ZM12 4.0005C7.58925 4.0005 3.99975 7.58925 3.99975 12.0008C3.99975 16.4123 7.5885 20.0018 12 20.0018C16.4115 20.0018 20.0003 16.413 20.0003 12.0008C20.0003 7.58925 16.4115 4.0005 12 4.0005Z" />
</svg>
