<svg width="24" height="24" viewBox="0 0 24 24" fill="none" xmlns="http://www.w3.org/2000/svg">
<path d="M5.49558 3.37001C5.2198 3.37001 4.99627 3.58961 4.99627 3.86054C4.99627 4.13147 5.2198 4.35106 5.49558 4.35106C5.77136 4.35106 5.99489 4.13147 5.99489 3.86054C5.99489 3.58961 5.77136 3.37001 5.49558 3.37001ZM3.49763 3.37001C3.22185 3.37001 2.99832 3.58961 2.99832 3.86054C2.99832 4.13147 3.22185 4.35106 3.49763 4.35106C3.77341 4.35106 3.99693 4.13147 3.99693 3.86054C3.99693 3.58961 3.77341 3.37001 3.49763 3.37001ZM22.9776 13.5669C22.9776 13.3345 22.9834 13.1275 22.9883 12.9171C22.9941 12.6933 23 12.4657 23 12.2036C23 11.0148 21.8269 10.549 20.9795 10.8023V1.4907C20.9795 1.21947 20.7561 1 20.4801 1H1.49949C1.2234 1 1 1.21947 1 1.4907V18.2187C1 18.4899 1.2234 18.7094 1.49949 18.7094H13.5818L14.5314 20.0558H13.4873C13.2112 20.0558 12.9878 20.2753 12.9878 20.5465V22.5093C12.9878 22.7805 13.2112 23 13.4873 23C13.7634 23 13.9868 22.7805 13.9868 22.5093V21.0372H20.405C21.9786 21.0372 21.9786 21.48 21.9796 21.7517V22.5093C21.9796 22.7805 22.203 23 22.479 23C22.7551 23 22.9785 22.7805 22.9785 22.5093L22.9776 21.7177C22.9776 20.9191 22.5275 20.5098 21.9923 20.2943C22.0445 19.7054 22.2479 18.723 22.479 18.1529C22.9346 16.8614 22.9776 15.8695 22.9776 13.5669ZM1.99898 1.98141H19.9806V4.92563H16.6885C16.3967 4.54933 15.9304 4.35088 15.4804 4.35088C15.0198 4.35088 14.5567 4.54658 14.2708 4.92563H1.99898V1.98141ZM19.9806 5.90703V10.3907C19.6108 10.2254 19.1868 10.1952 18.8051 10.3687C18.45 9.76204 17.6198 9.55742 16.9827 9.75197L16.9837 5.90703H19.9806ZM1.99898 17.728V5.90703H13.9868V12.6952C13.9868 13.0909 13.9809 13.1668 13.9497 13.1668C13.8004 13.1284 13.4356 12.9066 13.099 12.5194C12.9189 12.3116 12.3639 11.6061 12.0642 11.223H12.4707C12.7468 11.223 12.9702 11.0035 12.9702 10.7323V7.78808C12.9702 7.51685 12.7468 7.29738 12.4707 7.29738H4.47886C4.20278 7.29738 3.97937 7.51685 3.97937 7.78808V10.7323C3.97937 11.0035 4.20278 11.223 4.47886 11.223H9.08877C8.97694 11.5179 8.96584 11.8561 9.08614 12.2044H4.47886C4.20278 12.2044 3.97937 12.4239 3.97937 12.6951V16.6207C3.97937 16.892 4.20278 17.1114 4.47886 17.1114H12.4548L12.8896 17.728H1.99898ZM11.9712 8.27878V10.2416H4.97835V8.27878H11.9712ZM9.68605 13.1858L11.7626 16.13H4.97835V13.1858H9.68605ZM21.9893 12.8922C21.9844 13.1102 21.9786 13.3254 21.9786 13.5669C21.9786 15.7947 21.9425 16.6774 21.5425 17.8098C21.3138 18.3738 21.0909 19.3584 21.0119 20.0779C20.7688 20.0579 20.5506 20.0558 20.405 20.0558H15.7469L10.1508 12.1211C9.88354 11.7555 10.0045 11.4718 10.2074 11.3285C10.4152 11.18 10.7645 11.1469 11.0571 11.5451L11.0601 11.5432C11.2132 11.8135 11.5713 12.2716 12.339 13.1562C12.4834 13.323 13.2444 14.1539 13.9868 14.1539C14.9857 14.1539 14.9857 13.0944 14.9857 12.6952V5.82539C14.9857 5.36775 15.3643 5.33229 15.4804 5.33229C15.5652 5.33229 15.9847 5.35625 15.9847 5.82539L15.9828 11.052V11.2231C15.9828 11.4939 16.2062 11.7138 16.4823 11.7138C16.7583 11.7138 16.9817 11.4944 16.9817 11.2231V11.0573C16.9837 10.9327 17.0247 10.8426 17.1105 10.7746C17.2022 10.7013 17.3388 10.6596 17.4861 10.6596C17.7268 10.6596 17.9827 10.7322 17.9827 11.0544V11.7306C17.9827 12.0018 18.2061 12.2213 18.4822 12.2213C18.7582 12.2213 18.9817 12.0018 18.9817 11.7306V11.7138C18.9817 11.4116 19.0565 11.2182 19.4811 11.2182C19.8913 11.2182 19.9806 11.3336 19.9806 12.2045C19.9806 12.4758 20.204 12.6952 20.4801 12.6952C20.7562 12.6952 20.9796 12.4758 20.9796 12.2045C20.9796 11.7378 21.205 11.7014 21.4732 11.7014C21.7229 11.7014 22.001 11.7497 22.001 12.2036C22.001 12.4566 21.9952 12.6761 21.9893 12.8922ZM7.49354 3.37001C7.21776 3.37001 6.99423 3.58961 6.99423 3.86054C6.99423 4.13147 7.21776 4.35106 7.49354 4.35106C7.76932 4.35106 7.99284 4.13147 7.99284 3.86054C7.99284 3.58961 7.76932 3.37001 7.49354 3.37001Z" fill="#212121"/>
</svg>
