<?xml version="1.0" encoding="utf-8"?>
<!-- Generator: Adobe Illustrator 27.9.0, SVG Export Plug-In . SVG Version: 6.00 Build 0)  -->
<svg version="1.1" xmlns="http://www.w3.org/2000/svg" xmlns:xlink="http://www.w3.org/1999/xlink" x="0px" y="0px"
	 viewBox="0 0 24 24" style="enable-background:new 0 0 24 24;" xml:space="preserve">
<style type="text/css">
	.st0{fill:#1D1D1B;}
	.st1{fill:#1C1C1C;}
</style>
<g id="hide">
	<path class="st0" d="M4.5566406,3.8408203L3.8496094,3.1337891c-0.1953125-0.1953125-0.5117188-0.1953125-0.7070312,0
		s-0.1953125,0.5117188,0,0.7070312l3.4736328,3.4736328c-1.7816772,0.9570923-3.309082,2.4205933-4.5158691,4.3859253
		c-0.0014648,0.0018921-0.0025635,0.0037842-0.0039673,0.0057373c-0.0072632,0.0119019-0.0158691,0.0217285-0.0231323,0.0336304
		c-0.0119629,0.0195923-0.0135498,0.041626-0.022522,0.0620728c-0.0147705,0.0335083-0.0296021,0.0656128-0.0367432,0.1013794
		c-0.0060425,0.0302124-0.0049438,0.0593262-0.0053711,0.0896606c-0.0005493,0.0336914-0.0018921,0.0662231,0.0045166,0.0998535
		c0.0062256,0.0328369,0.0197754,0.0622559,0.0324097,0.0932617c0.0092163,0.022644,0.0109863,0.0467529,0.0238037,0.0684204
		c0.0075684,0.0128174,0.0166626,0.0234375,0.024292,0.0362549c0.0004883,0.0006714,0.0008545,0.0013428,0.0013428,0.0020142
		C4.3153687,16.0250854,7.7341309,18,11.9873047,18c1.6231689,0,3.1221924-0.2832642,4.4785767-0.8358765l3.6766968,3.6766968
		c0.0976562,0.0976562,0.2255859,0.1464844,0.3535156,0.1464844s0.2558594-0.0488281,0.3535156-0.1464844
		c0.1953125-0.1953125,0.1953125-0.5117188,0-0.7070312L4.5566406,3.8408203z M9.5639038,10.262146l4.1739502,4.1739502
		C13.24646,14.7877808,12.6490479,15,12,15c-1.6542969,0-3-1.3457031-3-3C9,11.3509521,9.2122192,10.75354,9.5639038,10.262146z
		 M11.9873047,17c-3.7921753,0-6.8521729-1.7344971-8.8843384-4.9970703
		c1.1588135-1.8105469,2.5814209-3.1259155,4.2490845-3.9526367l1.5050659,1.5050659C8.3282471,10.2335815,8,11.0752563,8,12
		c0,2.2055664,1.7939453,4,4,4c0.9248657,0,1.7665405-0.328186,2.4447021-0.8570557l1.2280273,1.2280273
		C14.539978,16.7762451,13.3131104,17,11.9873047,17z M15.6852417,13.5553589C15.8878784,13.0769653,16,12.5513306,16,12
		c0-2.2055664-1.7939453-4-4-4c-0.5513916,0-1.0770264,0.1121216-1.5553589,0.3147583l0.7949829,0.7949829
		C11.4839478,9.0452881,11.7357178,9,12,9c1.6542969,0,3,1.3457031,3,3c0,0.2642822-0.0452881,0.5160522-0.1097412,0.760376
		L15.6852417,13.5553589z M21.9277344,11.7138672C19.6552734,7.9760742,16.2197266,6,11.9921875,6
		c-1.19104,0-2.3120117,0.1772461-3.3707275,0.4915771l0.8041992,0.8041992C10.2369385,7.1055298,11.0894775,7,11.9921875,7
		c3.763916,0,6.8348389,1.7324219,8.9143677,4.9920044c-0.9043579,1.4692993-2.0256958,2.6224976-3.3328857,3.4517822
		l0.723938,0.723938c1.4295044-0.9512939,2.6599731-2.2478638,3.6340332-3.9143066
		c0.0493164-0.0843506,0.0621338-0.1762695,0.0592041-0.2671509C21.9934692,11.8933105,21.9793701,11.7992554,21.9277344,11.7138672
		z"/>
</g>
<g id="show_x5F_views">
</g>
</svg>
