<svg  viewBox="0 0 24 24"  xmlns="http://www.w3.org/2000/svg">
<path d="M6.49902 5.04884C6.45605 5.04884 6.41308 5.04347 6.37012 5.03175C6.10254 4.96046 5.94433 4.68605 6.01562 4.41945L6.56445 2.37062C6.5656 2.36646 6.56778 2.36295 6.56996 2.35944C6.57193 2.35626 6.57391 2.35307 6.57513 2.34938C6.59271 2.29414 6.61713 2.24116 6.65314 2.19453C6.66237 2.18266 6.67405 2.17365 6.68576 2.16462C6.69331 2.15879 6.70088 2.15295 6.70782 2.14632C6.71481 2.13959 6.72158 2.13267 6.72834 2.12576C6.74943 2.10422 6.77049 2.08271 6.79785 2.06691C6.82 2.05405 6.84359 2.04786 6.86726 2.04165C6.87764 2.03893 6.88803 2.0362 6.89831 2.03291C6.90829 2.02968 6.91798 2.02569 6.92764 2.02171C6.94517 2.0145 6.96263 2.00731 6.98163 2.00471C7.04871 1.99568 7.11609 2.00044 7.18036 2.01808L9.22656 2.56593C9.49414 2.63722 9.65234 2.91163 9.58105 3.17824C9.50879 3.44533 9.23242 3.60499 8.96875 3.53175L8.0838 3.29494L9.48047 5.71388C9.61914 5.95314 9.53711 6.2588 9.29785 6.39699C9.21875 6.4424 9.13281 6.46388 9.04785 6.46388C8.87598 6.46388 8.70703 6.37453 8.61523 6.21388L7.21869 3.79512L6.98242 4.67824C6.92187 4.90138 6.71973 5.04884 6.49902 5.04884Z" />
<path d="M16.0118 3.29505L15.1279 3.53174C14.8652 3.6045 14.5879 3.44532 14.5156 3.17823C14.4443 2.91163 14.6025 2.63721 14.8701 2.56592L16.9189 2.0171C16.9322 2.01343 16.9453 2.01355 16.9584 2.01367C16.9676 2.01376 16.9768 2.01384 16.9861 2.01264L17.0084 2.00961C17.0426 2.00482 17.0767 2.00004 17.1114 2.0044C17.1774 2.01288 17.2408 2.03394 17.2978 2.0669C17.2984 2.06727 17.299 2.06778 17.2994 2.0683C17.2999 2.06882 17.3004 2.06934 17.301 2.06971C17.3558 2.10206 17.4045 2.14454 17.444 2.19581C17.4774 2.23939 17.4988 2.28931 17.5162 2.34052C17.518 2.34555 17.5207 2.34995 17.5234 2.35435C17.5265 2.35945 17.5296 2.36455 17.5312 2.37061L18.0811 4.41944C18.1523 4.68604 17.9941 4.95997 17.7275 5.03174C17.6836 5.04346 17.6406 5.04883 17.5977 5.04883C17.377 5.04883 17.1748 4.90186 17.1143 4.67823L16.8773 3.79462L15.4805 6.21387C15.3887 6.37452 15.2197 6.46387 15.0479 6.46387C14.9629 6.46387 14.877 6.44239 14.7979 6.39698C14.5586 6.25879 14.4766 5.95313 14.6152 5.71387L16.0118 3.29505Z" />
<path fill-rule="evenodd" clip-rule="evenodd" d="M15.9746 15.2656C16.0371 15.4717 16.0049 15.7881 15.9883 15.8828C15.9414 16.1543 16.1221 16.4131 16.3936 16.4609C16.4229 16.4668 16.4522 16.4688 16.4814 16.4688C16.7188 16.4688 16.9287 16.2998 16.9727 16.0586C16.9834 15.9971 17.0762 15.4482 16.9316 14.9746C16.6385 14.0146 15.0612 13.4919 13.8825 13.3235C13.8801 13.3232 13.8781 13.3223 13.876 13.3214L13.8732 13.3203C13.8719 13.3199 13.8706 13.3195 13.8691 13.3193C13.8676 13.3191 13.8661 13.3195 13.8646 13.3198C13.8631 13.32 13.8617 13.3203 13.8602 13.3202C13.8367 13.3169 13.8127 13.3131 13.7887 13.3092C13.7529 13.3035 13.7172 13.2978 13.6836 13.2939L13.6843 12.8488C13.8447 12.5862 13.97 12.2792 14.0449 11.9204C14.2783 11.7568 14.4522 11.4219 14.5313 10.9556C14.5879 10.6216 14.5967 10.1182 14.4111 9.79541C14.4189 9.3042 14.3701 8.34229 13.7266 7.67139C13.3096 7.23682 12.7324 7.0166 12.0117 7.0166C11.29 7.0166 10.7129 7.2373 10.2949 7.67285C9.83692 8.15137 9.6084 8.8584 9.61426 9.79248C9.42578 10.1152 9.43555 10.6201 9.49219 10.9546C9.52735 11.1646 9.64454 11.6787 9.97071 11.9116L9.97559 11.9146C10.0494 12.2781 10.1759 12.5892 10.3391 12.8547L10.3398 13.2939C10.3051 13.2979 10.2681 13.3038 10.2311 13.3097C10.2069 13.3136 10.1825 13.3175 10.1588 13.3208C10.1579 13.3209 10.157 13.3207 10.1561 13.3206C10.1552 13.3204 10.1543 13.3202 10.1533 13.3203L10.1516 13.3207L10.1493 13.3216C10.1481 13.3221 10.1469 13.3226 10.1455 13.3228C8.96546 13.4906 7.3844 14.0134 7.0918 14.9746C6.94727 15.4482 7.04004 15.9971 7.05078 16.0586C7.09473 16.2998 7.30469 16.4688 7.542 16.4688C7.57129 16.4688 7.60059 16.4668 7.62989 16.4609C7.90137 16.4131 8.08204 16.1543 8.03516 15.8828C8.01856 15.7881 7.98633 15.4717 8.04883 15.2656C8.13611 14.9789 8.93714 14.5931 9.83338 14.3925C10.1521 15.3018 11.0082 15.9404 12.0117 15.9404C13.0154 15.9404 13.8713 15.3018 14.1898 14.3925C15.0859 14.5931 15.8873 14.9789 15.9746 15.2656ZM12.0117 14.9404C11.5171 14.9404 11.0872 14.6653 10.8624 14.2564C11.1295 14.2446 11.3418 14.0264 11.3408 13.7578L11.3407 13.6823C11.5474 13.7531 11.7704 13.7939 12.0117 13.7939C12.253 13.7939 12.4761 13.7532 12.6827 13.6819L12.6826 13.7578C12.6816 14.0266 12.8942 14.2449 13.1615 14.2565C12.9371 14.6653 12.507 14.9404 12.0117 14.9404ZM13.5449 10.7886C13.5273 10.8906 13.5029 10.9736 13.4805 11.0332C13.2813 11.085 13.1309 11.2705 13.1064 11.4746C13 12.3501 12.6318 12.7939 12.0117 12.7939C11.3887 12.7938 11.0205 12.3495 10.9102 11.4229C10.8799 11.2251 10.7334 11.0645 10.5391 11.0151C10.5381 11.0146 10.5371 11.0142 10.5352 11.0142C10.5147 10.9565 10.4932 10.8804 10.4785 10.7886C10.4473 10.6079 10.458 10.4219 10.4746 10.3276L10.4766 10.3257C10.4778 10.3246 10.4789 10.3237 10.4795 10.3228C10.5742 10.2241 10.624 10.0815 10.6182 9.94531C10.5859 9.20654 10.7207 8.6748 11.0176 8.36475C11.2421 8.13043 11.5673 8.0166 12.0115 8.0166C12.4559 8.0166 12.7803 8.13037 13.0049 8.36377C13.3008 8.67236 13.4356 9.20361 13.4043 9.96729C13.3994 10.1118 13.4551 10.2451 13.5508 10.3403C13.5664 10.438 13.5742 10.6157 13.5449 10.7886Z" />
<path d="M3.71857 12.0005H6.51172C6.78809 12.0005 7.01172 11.7769 7.01172 11.5005C7.01172 11.2241 6.78809 11.0005 6.51172 11.0005H3.71875L4.36523 10.354C4.56055 10.1587 4.56055 9.84229 4.36523 9.64697C4.16992 9.45166 3.85352 9.45166 3.6582 9.64697L2.15881 11.1464C2.11243 11.1926 2.07562 11.248 2.05017 11.3096C1.99963 11.4318 1.99963 11.5692 2.05017 11.6914C2.07562 11.7529 2.11243 11.8083 2.15881 11.8546L3.6582 13.3545C3.75586 13.4521 3.88379 13.501 4.01172 13.501C4.13965 13.501 4.26758 13.4521 4.36523 13.3545C4.56055 13.1592 4.56055 12.8428 4.36523 12.6475L3.71857 12.0005Z" />
<path d="M21.8656 11.1464C21.912 11.1926 21.9488 11.248 21.9742 11.3096C22.0248 11.4318 22.0248 11.5692 21.9742 11.6914C21.9488 11.7529 21.912 11.8083 21.8656 11.8546L20.3662 13.3545C20.2686 13.4521 20.1406 13.501 20.0127 13.501C19.8848 13.501 19.7568 13.4521 19.6592 13.3545C19.4639 13.1592 19.4639 12.8428 19.6592 12.6475L20.3058 12.0005H17.5127C17.2363 12.0005 17.0127 11.7769 17.0127 11.5005C17.0127 11.2241 17.2363 11.0005 17.5127 11.0005H20.3057L19.6592 10.354C19.4639 10.1587 19.4639 9.84229 19.6592 9.64697C19.8545 9.45166 20.1709 9.45166 20.3662 9.64697L21.8656 11.1464Z" />
<path d="M8.96875 20.4677L8.08392 20.7047L9.48047 18.286C9.61914 18.0468 9.53711 17.7411 9.29785 17.6034C9.05957 17.4657 8.75293 17.5468 8.61523 17.786L7.21863 20.2048L6.98242 19.3222C6.91016 19.0546 6.63379 18.9032 6.37012 18.9677C6.10254 19.0399 5.94433 19.3134 6.01562 19.58L6.56445 21.6288C6.58978 21.7231 6.65063 21.8041 6.72748 21.8706C6.73254 21.8749 6.73711 21.8793 6.74159 21.8836C6.74949 21.8912 6.75713 21.8985 6.76678 21.9052C6.77206 21.9088 6.77639 21.9133 6.78071 21.9178C6.78589 21.9232 6.79106 21.9286 6.79785 21.9325C6.87695 21.9784 6.96289 21.9999 7.04785 21.9999C7.08984 21.9999 7.13379 21.994 7.17676 21.9833L9.22656 21.4345C9.49414 21.3622 9.65234 21.0888 9.58105 20.8222C9.50879 20.5546 9.23144 20.4013 8.96875 20.4677Z" />
<path d="M17.7275 18.9679C17.4609 18.9044 17.1865 19.0557 17.1143 19.3214L16.8773 20.2054L15.4805 17.7862C15.3428 17.547 15.0361 17.4649 14.7979 17.6036C14.5586 17.7413 14.4766 18.047 14.6152 18.2862L16.0117 20.7048L15.1279 20.4679C14.8652 20.4024 14.5879 20.5557 14.5156 20.8223C14.4443 21.0889 14.6025 21.3624 14.8701 21.4347L16.9189 21.9835C16.9619 21.9942 17.0049 22.0001 17.0479 22.0001C17.1328 22.0001 17.2187 21.9786 17.2979 21.9327C17.3046 21.9288 17.3097 21.9235 17.3148 21.9181C17.3191 21.9137 17.3234 21.9092 17.3287 21.9055C17.3385 21.8988 17.3463 21.8913 17.3544 21.8835C17.3589 21.8792 17.3635 21.8748 17.3686 21.8704C17.4442 21.805 17.5035 21.7259 17.5291 21.6332C17.5294 21.6319 17.5309 21.6313 17.5312 21.63L18.0811 19.5811C18.1523 19.3145 17.9941 19.0401 17.7275 18.9679Z" />
</svg>
