<svg  viewBox="0 0 24 24"  xmlns="http://www.w3.org/2000/svg">
<path d="M9.5 11.001H14.5C14.7762 11.001 15 10.7771 15 10.501V8.50098C15 8.22479 14.7762 8.00098 14.5 8.00098H9.5C9.22388 8.00098 9 8.22479 9 8.50098V10.501C9 10.7771 9.22388 11.001 9.5 11.001ZM10 9.00098H14V10.001H10V9.00098ZM20.5 3.00098H3.5C3.22388 3.00098 3 3.22479 3 3.50098V6.50098C3 6.7771 3.22388 7.00098 3.5 7.00098H4V20.501C4 20.7771 4.22388 21.001 4.5 21.001H19.5C19.7762 21.001 20 20.7771 20 20.501V7.00098H20.5C20.7762 7.00098 21 6.7771 21 6.50098V3.50098C21 3.22479 20.7762 3.00098 20.5 3.00098ZM19 20.001H5V7.00098H19V20.001ZM20 6.00098H19.5H4.5H4V4.00098H20V6.00098Z" />
</svg>
