<svg width="24" height="24" viewBox="0 0 24 24" fill="none" xmlns="http://www.w3.org/2000/svg">
<path d="M8.9834 13.9893C9.5355 13.9895 9.9834 14.4382 9.9834 14.9912C9.97916 15.3352 9.79566 15.652 9.5 15.8271V17.4951C9.49981 17.7715 9.27602 17.9951 9 17.9951C8.72398 17.9951 8.50019 17.7715 8.5 17.4951V15.8506C8.19706 15.6794 7.98348 15.3647 7.9834 14.9912C7.9834 14.4381 8.43111 13.9893 8.9834 13.9893Z" fill="#212121"/>
<path fill-rule="evenodd" clip-rule="evenodd" d="M17.0078 3C20.7198 3 21.5 5.44989 21.5 5.93262C21.4995 5.95384 21.4993 6.01523 21.499 6.1084L21.498 6.80469L21.499 9.0498L21.5 9.5V11C21.5 11.2761 21.2761 11.5 21 11.5C20.7239 11.5 20.5 11.2761 20.5 11V9.5L20.499 8.93555V6.19238L20.5 5.98633V5.9668L20.501 5.89648C20.4861 5.8948 20.0898 4.00195 17.0078 4.00195C14.367 4.00203 13.6597 5.54109 13.5215 5.93652L13.501 5.99902V8.11035L13.5029 9.9834H14.25C14.94 9.9834 15.5 10.5443 15.5 11.2354V19.748C15.5 20.4391 14.94 21 14.25 21H3.75C3.06 21 2.5 20.4391 2.5 19.748V11.2354C2.50003 10.5443 3.06002 9.9834 3.75 9.9834H12.502L12.5 8.11133V7.6582L12.501 6.92969C12.5028 6.41468 12.5084 6.1154 12.5234 5.93262H12.5029C12.5029 5.75939 12.7119 5.03626 13.3496 4.36035C13.9366 3.74044 15.0469 3.00005 17.0078 3ZM3.75 10.9854C3.61193 10.9854 3.50001 11.0971 3.5 11.2354V19.748C3.5 19.8863 3.61193 19.998 3.75 19.998H14.25C14.3881 19.998 14.5 19.8863 14.5 19.748V11.2354C14.5 11.0971 14.3881 10.9854 14.25 10.9854H3.75Z" fill="#212121"/>
</svg>
