<svg  viewBox="0 0 24 24"  xmlns="http://www.w3.org/2000/svg">
<path d="M21.9826 8.37451C21.9173 8.16699 21.6973 8.00146 21.4801 8.00146C19.049 8.00146 17.6684 8.94995 17.0547 9.51648C15.7139 8.28333 13.2498 7 10.1088 7C5.66756 7 1.99997 11.3037 1.99997 12.0649C1.99997 13.002 5.74108 17 10.1088 17C13.1169 17 15.6832 15.8146 17.0932 14.537C17.6959 15.0892 19.0477 16.0015 21.4675 16.0015C21.6846 16.0015 21.9047 15.8359 21.9699 15.6279C22.1335 15.1104 21.1666 12.9595 20.4149 11.979C21.1685 11.0073 22.1423 8.88232 21.9826 8.37451ZM20.8667 14.9795C18.482 14.8022 17.5589 13.604 17.5121 13.5415C17.5017 13.5272 17.4866 13.5201 17.4749 13.5072C17.4642 13.495 17.4591 13.4796 17.4469 13.4683C17.4345 13.4568 17.4187 13.453 17.4055 13.443C17.377 13.4213 17.3483 13.4034 17.3167 13.3885C17.2896 13.3761 17.2636 13.3661 17.2351 13.3586C17.201 13.3495 17.1677 13.3446 17.1324 13.3429C17.1046 13.3416 17.0783 13.3422 17.0508 13.3456C17.0153 13.3497 16.9822 13.3579 16.9481 13.3698C16.9194 13.3798 16.8928 13.3922 16.8658 13.4076C16.8507 13.4164 16.8332 13.4186 16.8188 13.4292C16.804 13.4397 16.7967 13.4554 16.7835 13.4672C16.7706 13.4785 16.7546 13.4838 16.7429 13.4966C15.5958 14.7427 13.1001 16 10.1088 16C6.31169 16 3.31501 12.6255 3.01461 12.0991C3.39534 11.4023 6.39251 8 10.1088 8C13.0398 8 15.5316 9.28613 16.701 10.561C16.7134 10.5746 16.73 10.5802 16.7434 10.592C16.7555 10.6029 16.7624 10.6176 16.776 10.6274C16.7891 10.6372 16.8052 10.639 16.8191 10.6473C16.8498 10.6656 16.8804 10.6801 16.9135 10.691C16.9418 10.7003 16.969 10.7072 16.998 10.7113C17.0328 10.7163 17.0662 10.7173 17.1012 10.715C17.1297 10.7129 17.1565 10.7089 17.1842 10.7021C17.2178 10.694 17.2495 10.6823 17.2814 10.6667C17.3094 10.6533 17.3347 10.6376 17.3602 10.6188C17.3748 10.6078 17.3921 10.6034 17.406 10.5908C17.4189 10.5787 17.4245 10.5624 17.4359 10.5492C17.4471 10.5367 17.4622 10.5299 17.4722 10.5161C17.482 10.502 18.4411 9.21387 20.8735 9.02441C20.5707 9.8335 19.852 11.2842 19.4479 11.5684C19.3155 11.6621 19.2366 11.8149 19.2366 11.9775C19.2366 12.1401 19.3155 12.2925 19.4479 12.3862C19.8404 12.6636 20.5668 14.1597 20.8667 14.9795ZM6.54807 10.8521C6.20385 10.8521 5.92487 11.132 5.92487 11.4771C5.92487 11.8223 6.20385 12.1021 6.54807 12.1021C6.89229 12.1021 7.17126 11.8223 7.17126 11.4771C7.17126 11.132 6.89229 10.8521 6.54807 10.8521ZM9.35171 10.0195C9.09659 10.1206 8.97098 10.4102 9.06981 10.667C9.09903 10.7422 9.76409 12.5312 8.21584 14.1318C8.02402 14.3301 8.02888 14.6465 8.22655 14.8389C8.32344 14.9331 8.44857 14.98 8.57369 14.98C8.70369 14.98 8.83368 14.9292 8.93154 14.8281C10.9404 12.752 10.0363 10.3979 9.99681 10.2988C9.89555 10.043 9.60927 9.92041 9.35171 10.0195Z" />
</svg>
