<svg width="24" height="24" viewBox="0 0 24 24" fill="none" xmlns="http://www.w3.org/2000/svg">
<path d="M10.1465 8.21094C10.3418 8.40625 10.6582 8.40625 10.8535 8.21094C11.0488 8.01562 11.0488 7.69922 10.8535 7.50391C10.1924 6.84277 9.12695 6.83301 8.47949 7.47998C7.83203 8.12793 7.84277 9.19287 8.50391 9.85352C8.60156 9.95117 8.72949 10 8.85742 10C8.98535 10 9.11328 9.95117 9.21094 9.85352C9.40625 9.6582 9.40625 9.3418 9.21094 9.14648C8.93945 8.87549 8.92871 8.44482 9.18652 8.18701C9.44531 7.9292 9.87598 7.94043 10.1465 8.21094ZM8 6C8 5.72412 8.22852 5.5 8.50879 5.5C8.78302 5.5 9.00629 5.72253 9.00812 5.99677C9.00812 5.99786 9.00781 5.9989 9.00781 6C9.00781 6.27637 9.23145 6.5 9.50781 6.5C9.78418 6.5 10.0088 6.27637 10.0088 6C10.0088 5.9989 10.0085 5.99786 10.0085 5.99677C10.0103 5.44714 10.4582 5 11.0088 5C11.3955 5 11.8916 5.16504 12.0176 5.63086C12.0898 5.89746 12.3623 6.05811 12.6309 5.98242C12.8495 5.92316 12.9866 5.72699 12.9918 5.5116C13.5079 5.49664 14 5.9671 14 6.57275C14 6.70117 13.9805 6.82568 13.9414 6.94287C13.933 6.96808 13.9137 6.99579 13.8991 7.01874C13.6725 7.03894 13.4844 7.08966 13.2773 7.19238C13.0303 7.31543 12.9297 7.61572 13.0527 7.86279C13.1758 8.11084 13.4775 8.21045 13.7227 8.08789C14.291 7.80566 15 8.30518 15 9C15 9.55127 14.5938 10 14.0947 10C13.8184 10 13.5947 10.2236 13.5947 10.5C13.5947 10.7764 13.8184 11 14.0947 11C15.1455 11 16 10.103 16 9C16 8.20038 15.548 7.51428 14.9007 7.19446C14.9604 6.99384 15 6.7865 15 6.57275C15 5.42969 14.1201 4.5 13.0381 4.5C12.8511 4.5 12.6694 4.53699 12.4915 4.59174C12.1207 4.23175 11.6065 4 11.0088 4C10.3533 4 9.77576 4.32086 9.41058 4.80908C9.15881 4.61792 8.84863 4.5 8.50879 4.5C7.67822 4.5 7.00275 5.17065 7.00043 6.01086C6.96863 6.00922 6.93829 6 6.90625 6C5.85547 6 5 6.89697 5 8C5 8.42725 5.12695 8.83496 5.36621 9.17822C5.41498 9.24841 5.47681 9.3045 5.53314 9.3667C5.34705 9.53387 5.18677 9.73462 5.09082 9.99609C4.95312 10.3691 4.97168 10.772 5.14453 11.1313C5.32324 11.5044 5.64355 11.7837 6.0459 11.9175C6.09863 11.9351 6.435 12 6.55176 12C6.69434 12 6.83594 11.981 6.97461 11.9429C7.24121 11.8696 7.39746 11.5942 7.32422 11.3281C7.25 11.0625 6.98047 10.9062 6.70898 10.979C6.59473 11.0103 6.47461 11.0063 6.3623 10.9692C6.21875 10.9214 6.10645 10.8252 6.0459 10.6982C5.99121 10.5854 5.98535 10.459 6.02832 10.3423C6.07617 10.2148 6.23438 9.92725 6.70508 9.98926C6.70508 9.98926 6.83826 10 6.90625 10C7.18262 10 7.40625 9.77637 7.40625 9.5C7.40625 9.22363 7.18262 9 6.90625 9C6.62207 9 6.36035 8.85693 6.18652 8.60742C6.06445 8.43213 6 8.22217 6 8C6 7.30615 6.7041 6.80469 7.27734 7.08789C7.27734 7.08789 7.4201 7.1377 7.5 7.1377C7.77637 7.1377 8 6.91406 8 6.6377V6ZM21 12.8779C21 12.6343 20.8691 12.4243 20.3711 11.6597C19.8955 10.9292 19.0088 9.56885 19.0088 9C19.0088 8.46826 18.875 8.08594 18.7344 7.68164C18.6543 7.45264 18.5664 7.20361 18.4971 6.89111C17.8135 3.82861 15.3877 2 12.0088 2C6.28906 2 3.00879 4.36914 3.00879 8.5C3.00879 11.7524 3.7627 12.8989 4.49219 14.0073C4.6875 14.3037 4.88477 14.6016 5.06543 14.9478C5.86523 16.4819 6 18.209 6 21.5C6 21.7764 6.22363 22 6.5 22C6.77637 22 7 21.7764 7 21.5C7 18.0396 6.84863 16.2056 5.95215 14.4854C5.75488 14.1069 5.54102 13.7812 5.32812 13.4575C4.64941 12.4268 4.00879 11.4531 4.00879 8.5C4.00879 3.71436 9.02148 3 12.0088 3C14.8857 3 16.9473 4.53613 17.5205 7.1084C17.6006 7.46533 17.6982 7.75 17.79 8.01123C17.917 8.375 18.0088 8.6377 18.0088 9C18.0088 9.80078 18.6992 10.9258 19.5332 12.2056C19.6689 12.4141 19.8281 12.6572 19.9268 12.8228C19.6982 12.9194 19.2383 12.9995 19 12.9995C18.8076 12.9995 18.6318 13.1099 18.5488 13.2837C18.501 13.3848 18.1777 14.0977 18.3486 14.7534C17.9453 14.8735 17.5088 15.0435 17.5088 15.5C17.5088 15.7793 17.7021 15.9888 17.9697 16.2788C18.0068 16.3193 18.0537 16.3706 18.0986 16.4209C17.4443 17.291 17.7979 18.0923 17.958 18.4541C17.9805 18.5063 18.001 18.5347 18 18.5C18 18.6982 17.9355 18.8384 17.79 18.9541C17.0635 19.5308 14.8418 19.2954 13.6123 19.0127C13.3418 18.9526 13.0712 19.1177 13.0127 19.3877C13.0041 19.4272 13 19.5 13 19.5V21.5C13 21.7764 13.2236 22 13.5 22C13.7764 22 14 21.7764 14 21.5V20.1091C15.1101 20.3045 17.3655 20.5693 18.4121 19.7373C18.7969 19.4312 19 19.0034 19 18.5C19 18.3379 18.9385 18.1978 18.873 18.0498C18.7188 17.7012 18.5596 17.3408 19.0449 16.854C19.4404 16.4604 19.0693 16.001 18.7705 15.6724C19.1318 15.5688 19.4424 15.4751 19.5283 15.1421C19.5732 14.9707 19.5088 14.7495 19.3838 14.6245C19.2617 14.5024 19.292 14.2139 19.3584 13.9736C19.9336 13.9082 21 13.6787 21 12.8779ZM11.5088 9H10.5088C10.2324 9 10.0088 9.22363 10.0088 9.5C10.0088 9.77637 10.2324 10 10.5088 10H11.5088C11.7842 10 12.0088 10.2241 12.0088 10.5C12.0088 10.7759 11.7842 11 11.5088 11H9.50879C8.67676 11 8 11.6729 8 12.5V13.5C8 13.7764 8.22363 14 8.5 14C8.77637 14 9 13.7764 9 13.5V12.5087C9 12.5087 8.99902 12.2498 9.11884 12.13C9.2251 12.0237 9.38361 12 9.50879 12H11.5088C12.3359 12 13.0088 11.3271 13.0088 10.5C13.0088 9.67285 12.3359 9 11.5088 9Z" fill="#212121"/>
</svg>
