<svg xmlns="http://www.w3.org/2000/svg" viewBox="0 0 24 24"><path d="M8.67721 19C8.40753 19 8.13864 18.8997 7.93222 18.6998L2.29182 13.2093C2.10171 13.0149 1.997 12.7557 2.00007 12.487C2.00313 12.2184 2.11371 11.9615 2.30821 11.7713C2.50271 11.5812 2.76571 11.4727 3.04103 11.4692C3.31636 11.4656 3.58221 11.5672 3.7818 11.7523L8.67721 16.5175L20.2182 5.28325C20.4178 5.09815 20.6836 4.99653 20.959 5.00009C21.2343 5.00365 21.4973 5.1121 21.6918 5.30229C21.8863 5.49247 21.9969 5.74932 21.9999 6.01798C22.003 6.28665 21.8983 6.54583 21.7082 6.74019L9.4222 18.6998C9.21658 18.8997 8.94689 19 8.67721 19Z"/></svg>
