<svg width="24" height="24" viewBox="0 0 24 24" fill="none" xmlns="http://www.w3.org/2000/svg">
<path d="M9.05566 11H9.05811C9.39551 11.001 9.74072 11.2627 10.084 11.7773C10.1802 11.9219 10.3389 12 10.5005 12C10.5957 12 10.6919 11.9727 10.7773 11.916C11.0073 11.7627 11.0693 11.4526 10.916 11.2227C10.375 10.4111 9.74902 10 9.05566 10C7.93164 10 7.16748 11.0977 7.08398 11.2227C6.93115 11.4517 6.99316 11.7607 7.22168 11.9141C7.45068 12.0688 7.76074 12.0073 7.91504 11.7788C8.06201 11.562 8.55225 11 9.05566 11ZM15.7021 14.043C15.4512 13.9297 15.1543 14.0459 15.043 14.2979C14.6064 15.2842 13.3271 16 12 16C10.5669 16 9.34814 15.3262 8.96729 14.3223C8.86963 14.0654 8.57861 13.9375 8.32275 14.0322C8.06445 14.1309 7.93457 14.4189 8.03271 14.6777C8.56006 16.0664 10.1543 17 12 17C13.7324 17 15.3594 16.0547 15.957 14.7021C16.0693 14.4492 15.9551 14.1543 15.7021 14.043ZM8.94727 7.27686C8.82275 7.0293 8.52344 6.93018 8.27637 7.05322L6.27637 8.05322C6.0293 8.17676 5.9292 8.47705 6.05273 8.72412C6.14062 8.89941 6.31689 9.00049 6.50049 9.00049C6.57568 9.00049 6.65186 8.9834 6.72363 8.94775L8.72363 7.94775C8.9707 7.82422 9.0708 7.52393 8.94727 7.27686ZM12 2.99951C7.0376 2.99951 3 7.03711 3 12C3 16.9629 7.0376 21.001 12 21.001C16.9629 21.001 21 16.9629 21 12C21 7.03711 16.9629 2.99951 12 2.99951ZM12 20.001C7.58887 20.001 4 16.4121 4 12C4 7.58838 7.58887 3.99951 12 3.99951C16.4111 3.99951 20 7.58838 20 12C20 16.4121 16.4111 20.001 12 20.001ZM15.0557 10C13.9316 10 13.167 11.0977 13.084 11.2227C12.9312 11.4517 12.9932 11.7607 13.2217 11.9141C13.4482 12.0679 13.7607 12.0088 13.915 11.7788C14.0615 11.562 14.5527 11 15.0557 11H15.0576C15.3955 11.001 15.7412 11.2627 16.084 11.7773C16.1807 11.9219 16.3389 12 16.5 12C16.5957 12 16.6924 11.9727 16.7773 11.916C17.0068 11.7627 17.0693 11.4526 16.916 11.2227C16.375 10.4111 15.749 10 15.0557 10ZM17.7236 8.05322L15.7236 7.05322C15.4766 6.93213 15.1777 7.02979 15.0527 7.27686C14.9297 7.52393 15.0293 7.82422 15.2764 7.94775L17.2764 8.94775C17.3486 8.9834 17.4248 9.00049 17.5 9.00049C17.6826 9.00049 17.8594 8.89941 17.9473 8.72412C18.0703 8.47705 17.9707 8.17676 17.7236 8.05322Z" fill="#212121"/>
</svg>
