<svg width="24" height="24" viewBox="0 0 24 24" fill="none" xmlns="http://www.w3.org/2000/svg">
<path d="M12 8C12.8271 8 13.5 7.32715 13.5 6.5C13.5 5.67285 12.8271 5 12 5C11.1729 5 10.5 5.67285 10.5 6.5C10.5 7.32715 11.1729 8 12 8ZM12 6C12.2759 6 12.5 6.22412 12.5 6.5C12.5 6.77588 12.2759 7 12 7C11.7241 7 11.5 6.77588 11.5 6.5C11.5 6.22412 11.7241 6 12 6ZM12 3C7.0376 3 3 7.0376 3 12C3 16.9624 7.0376 21 12 21C16.9624 21 21 16.9624 21 12C21 7.0376 16.9624 3 12 3ZM12 20C7.58887 20 4 16.4111 4 12C4 7.58887 7.58887 4 12 4C16.4111 4 20 7.58887 20 12C20 16.4111 16.4111 20 12 20ZM16.2847 8.04883C13.6777 9.29199 10.3325 9.29443 7.71484 8.04834C7.46582 7.93018 7.16699 8.03613 7.04834 8.28516C6.92969 8.53418 7.03564 8.83252 7.28516 8.95166C8.57935 9.56738 10.0279 9.90662 11.5 9.97253V12.3817L9.04541 17.2759C8.92139 17.5225 9.021 17.8232 9.26807 17.9468C9.51514 18.0713 9.81592 17.9707 9.93896 17.7241L11.9985 13.6182L14.0449 17.7231C14.1323 17.8984 14.3091 18 14.4927 18C14.5674 18 14.6436 17.9834 14.7153 17.9473C14.9624 17.8242 15.063 17.5239 14.9395 17.2769L12.5 12.3821V9.9726C13.9745 9.90668 15.4232 9.56744 16.7153 8.95117C16.9644 8.83252 17.0703 8.53418 16.9512 8.28467C16.833 8.03613 16.5337 7.92871 16.2847 8.04883Z" fill="#212121"/>
</svg>
