<svg width="24" height="24" viewBox="0 0 24 24" fill="none" xmlns="http://www.w3.org/2000/svg">
<path d="M20.5 19.9937L4 20V18H7.5C14.605 18 17.9407 14.0866 17.9949 5.7019L20.1465 7.85352C20.2441 7.95117 20.3721 8 20.5 8C20.6279 8 20.7559 7.95117 20.8535 7.85352C21.0488 7.6582 21.0488 7.3418 20.8535 7.14648L17.8535 4.14648C17.6582 3.95117 17.3418 3.95117 17.1465 4.14648L14.1465 7.14648C13.9512 7.3418 13.9512 7.6582 14.1465 7.85352C14.3418 8.04883 14.6582 8.04883 14.8535 7.85352L16.9949 5.7121C16.9413 13.5118 14.0097 17 7.5 17H4V3.5C4 3.22363 3.77637 3 3.5 3C3.22363 3 3 3.22363 3 3.5V20.5C3 20.6328 3.05273 20.7598 3.14648 20.8535C3.24023 20.9473 3.36768 21 3.5 21L20.5 20.9937C20.7764 20.9937 21 20.7695 21 20.4937C21 20.2173 20.7759 19.9937 20.5 19.9937Z" fill="#212121"/>
</svg>
