<svg width="24" height="24" viewBox="0 0 24 24" fill="none" xmlns="http://www.w3.org/2000/svg">
<path d="M9.94727 7.27637C9.82373 7.0293 9.52295 6.92969 9.27637 7.05273L7.27637 8.05273C7.0293 8.17627 6.9292 8.47656 7.05273 8.72363C7.14062 8.89893 7.31689 9 7.50049 9C7.57568 9 7.65186 8.98291 7.72363 8.94727L9.72363 7.94727C9.9707 7.82373 10.0708 7.52344 9.94727 7.27637ZM9.5 9C9.22363 9 9 9.22363 9 9.5V10.5C9 10.7764 9.22363 11 9.5 11C9.77637 11 10 10.7764 10 10.5V9.5C10 9.22363 9.77637 9 9.5 9ZM14.5 11C14.7764 11 15 10.7764 15 10.5V9.5C15 9.22363 14.7764 9 14.5 9C14.2236 9 14 9.22363 14 9.5V10.5C14 10.7764 14.2236 11 14.5 11ZM16.7236 8.05273L14.7236 7.05273C14.4766 6.92969 14.1763 7.0293 14.0527 7.27637C13.9292 7.52344 14.0293 7.82373 14.2764 7.94727L16.2764 8.94727C16.3481 8.98291 16.4243 9 16.4995 9C16.6831 9 16.8594 8.89893 16.9473 8.72363C17.0708 8.47656 16.9707 8.17627 16.7236 8.05273ZM15.1465 15.1465C13.7588 16.5361 13.2319 16.0132 12.3599 15.1436C11.52 14.3071 10.25 13.0435 8.14648 15.1465C7.95117 15.3418 7.95117 15.6582 8.14648 15.8535C8.3418 16.0488 8.6582 16.0488 8.85352 15.8535C10.2524 14.4541 10.7798 14.9805 11.6543 15.8521C12.1538 16.3496 12.8052 16.9985 13.6934 16.9985C14.2959 16.9985 15.0068 16.7002 15.8535 15.8535C16.0488 15.6582 16.0488 15.3418 15.8535 15.1465C15.6582 14.9512 15.3418 14.9512 15.1465 15.1465ZM12 2.99951C7.0376 2.99951 3 7.03711 3 12C3 16.9629 7.0376 21.0005 12 21.0005C16.9624 21.0005 21 16.9629 21 12C21 7.03711 16.9624 2.99951 12 2.99951ZM12 20.0005C7.58887 20.0005 4 16.4116 4 12C4 7.58838 7.58887 3.99951 12 3.99951C16.4111 3.99951 20 7.58838 20 12C20 16.4116 16.4111 20.0005 12 20.0005Z" fill="#212121"/>
</svg>
