<svg viewBox="0 0 24 24" xmlns="http://www.w3.org/2000/svg">
<path d="M7.15625 9.29492C7.0752 9.11523 6.89648 9 6.7002 9H6.2998C6.10352 9 5.9248 9.11523 5.84375 9.29492L4.04395 13.2949C3.93066 13.5469 4.04297 13.8428 4.29492 13.9561C4.54297 14.0703 4.84277 13.958 4.95605 13.7051L5.28711 12.9692H7.71289L8.04395 13.7051C8.12695 13.8906 8.30957 14 8.5 14C8.56934 14 8.63867 13.9863 8.70508 13.9561C8.95703 13.8428 9.06934 13.5469 8.95605 13.2949L7.15625 9.29492ZM5.73706 11.9692L6.5 10.2734L7.26294 11.9692H5.73706ZM18.5 2H5.5C3.57031 2 2 3.57031 2 5.5V18.5C2 20.4297 3.57031 22 5.5 22H18.5C20.4297 22 22 20.4297 22 18.5V5.5C22 3.57031 20.4297 2 18.5 2ZM21 18.5C21 19.8789 19.8789 21 18.5 21H5.5C4.12109 21 3 19.8789 3 18.5V5.5C3 4.12158 4.12109 3 5.5 3H18.5C19.8789 3 21 4.12158 21 5.5V18.5ZM12.4844 9L10.499 9.00195C10.2236 9.00244 10 9.22607 10 9.50195V11.4453C9.99805 11.4634 9.99707 11.4814 9.99707 11.5C9.99707 11.5186 9.99805 11.5366 10 11.5542V13.502C10 13.7783 10.2236 14.002 10.5 14.002C10.7764 14.002 11 13.7783 11 13.502V12H12.4854C13.3125 12 13.9854 11.3271 13.9854 10.5C13.9854 9.67285 13.3125 9 12.4844 9ZM12.4854 11H11V10.0015L12.4854 10C12.7607 10 12.9854 10.2241 12.9854 10.5C12.9854 10.7759 12.7607 11 12.4854 11ZM17.4844 9L15.499 9.00195C15.2236 9.00244 15 9.22607 15 9.50195V11.4453C14.998 11.4634 14.9971 11.4814 14.9971 11.5C14.9971 11.5186 14.998 11.5366 15 11.5542V13.502C15 13.7783 15.2236 14.002 15.5 14.002C15.7764 14.002 16 13.7783 16 13.502V12H17.4854C18.3125 12 18.9854 11.3271 18.9854 10.5C18.9854 9.67285 18.3125 9 17.4844 9ZM17.4854 11H16V10.0015L17.4854 10C17.7607 10 17.9854 10.2241 17.9854 10.5C17.9854 10.7759 17.7607 11 17.4854 11Z"/>
</svg>
