<svg  viewBox="0 0 24 24"  xmlns="http://www.w3.org/2000/svg">
<path d="M8.24807 7.46692C8.48783 7.32992 8.57113 7.02449 8.43412 6.78473C8.29712 6.54497 7.99169 6.46167 7.75193 6.59868L4.25193 8.59868C4.09641 8.68755 4.00031 8.85282 4 9.03194C3.99969 9.21106 4.09522 9.37666 4.25044 9.46607L7.73647 11.474C7.97575 11.6119 8.28147 11.5296 8.4193 11.2903C8.55713 11.0511 8.47488 10.7453 8.2356 10.6075L5.50475 9.03453L8.24807 7.46692Z" />
<path d="M12.5807 6.78323C12.7185 6.54395 13.0242 6.4617 13.2635 6.59953L16.7496 8.60753C16.9048 8.69693 17.0003 8.86253 17 9.04165C16.9997 9.22077 16.9036 9.38604 16.7481 9.47491L13.2481 11.4749C13.0083 11.6119 12.7029 11.5286 12.5659 11.2889C12.4289 11.0491 12.5122 10.7437 12.7519 10.6067L15.4953 9.03906L12.7644 7.46606C12.5251 7.32823 12.4429 7.02252 12.5807 6.78323Z" />
<path d="M11.7642 7.18558C11.8668 6.92919 11.7421 6.63821 11.4857 6.53565C11.2293 6.43309 10.9383 6.5578 10.8358 6.81419L9.23576 10.8142C9.1332 11.0706 9.25791 11.3616 9.51431 11.4641C9.7707 11.5667 10.0617 11.442 10.1642 11.1856L11.7642 7.18558Z" />
<path fill-rule="evenodd" clip-rule="evenodd" d="M17.5 15.0137C16.6758 15.0137 16 15.677 16 16.5047C16 17.3324 16.6758 17.9957 17.5 17.9957C18.3242 17.9957 19 17.3324 19 16.5047C19 15.677 18.3242 15.0137 17.5 15.0137ZM17 16.5047C17 16.2378 17.2196 16.0137 17.5 16.0137C17.7804 16.0137 18 16.2378 18 16.5047C18 16.7716 17.7804 16.9957 17.5 16.9957C17.2196 16.9957 17 16.7716 17 16.5047Z" />
<path fill-rule="evenodd" clip-rule="evenodd" d="M2 3.5C2 3.22386 2.22386 3 2.5 3H14.7482L18.4956 3.00496C18.7712 3.00533 18.9945 3.22866 18.9949 3.50427L19 7.16797V12.4048C19.0059 12.4356 19.0091 12.4674 19.0091 12.5V13.3526C19.178 13.4325 19.339 13.5254 19.4914 13.6298L20.2426 13.2C20.481 13.0636 20.7847 13.145 20.923 13.3823L21.932 15.1143C21.9991 15.2295 22.0175 15.3667 21.983 15.4954C21.9485 15.6242 21.864 15.7338 21.7483 15.8L21.0137 16.2203C21.0222 16.312 21.0272 16.4064 21.0272 16.5031C21.0272 16.5979 21.0223 16.6902 21.0141 16.7799L21.7483 17.2C21.864 17.2662 21.9485 17.3758 21.983 17.5045C22.0175 17.6333 21.9991 17.7705 21.932 17.8856L20.923 19.6177C20.7847 19.855 20.481 19.9364 20.2426 19.8L19.4964 19.373C19.3426 19.4789 19.1799 19.5729 19.0091 19.6537V20.5C19.0091 20.7761 18.7852 21 18.5091 21H16.4909C16.2148 21 15.9909 20.7761 15.9909 20.5V19.6537C15.8201 19.5729 15.6574 19.4789 15.5036 19.373L14.7574 19.8C14.519 19.9364 14.2153 19.855 14.077 19.6177L13.068 17.8856C13.0009 17.7705 12.9825 17.6333 13.017 17.5045C13.0515 17.3758 13.136 17.2662 13.2517 17.2L13.9859 16.7799C13.9777 16.6902 13.9728 16.5979 13.9728 16.5031C13.9728 16.4064 13.9778 16.312 13.9863 16.2203L13.2517 15.8C13.136 15.7338 13.0515 15.6242 13.017 15.4954C12.9825 15.3667 13.0009 15.2295 13.068 15.1143L13.1346 15H2.5C2.22386 15 2 14.7761 2 14.5V3.5ZM18 7.16936V12H16.4909C16.2148 12 15.9909 12.2239 15.9909 12.5V13.3526C15.822 13.4325 15.661 13.5254 15.5086 13.6298L14.7574 13.2C14.519 13.0636 14.2153 13.145 14.077 13.3823L13.7171 14H3V4H14.7482L17.9956 4.0043L18 7.16936ZM16.9909 13V13.6868C16.9909 13.8989 16.8571 14.0879 16.6571 14.1584C16.366 14.261 16.1022 14.4143 15.8699 14.6102C15.7094 14.7457 15.4814 14.7664 15.2992 14.6621L14.6914 14.3143L14.1857 15.1823L14.7769 15.5206C14.9617 15.6262 15.0592 15.8372 15.0201 16.0464C14.9906 16.2046 14.9728 16.3549 14.9728 16.5031C14.9728 16.6489 14.9905 16.7971 15.0197 16.9548C15.0583 17.1637 14.9607 17.3742 14.7763 17.4797L14.1857 17.8177L14.6913 18.6856L15.2946 18.3405C15.4772 18.236 15.7056 18.257 15.8661 18.3929C16.0991 18.5903 16.3644 18.7447 16.6571 18.8479C16.8571 18.9183 16.9909 19.1074 16.9909 19.3195V20H18.0091V19.3195C18.0091 19.1074 18.1429 18.9183 18.3429 18.8479C18.6356 18.7447 18.9009 18.5903 19.1339 18.3929C19.2944 18.257 19.5228 18.236 19.7054 18.3405L20.3087 18.6856L20.8143 17.8177L20.2237 17.4797C20.0393 17.3742 19.9417 17.1637 19.9803 16.9548C20.0095 16.7971 20.0272 16.6489 20.0272 16.5031C20.0272 16.3549 20.0094 16.2046 19.9799 16.0464C19.9408 15.8373 20.0383 15.6262 20.2231 15.5206L20.8143 15.1823L20.3087 14.3143L19.7009 14.6621C19.5186 14.7664 19.2906 14.7457 19.1301 14.6102C18.8978 14.4143 18.634 14.261 18.3429 14.1584C18.1429 14.0879 18.0091 13.8989 18.0091 13.6868V13H16.9909Z" />
</svg>
