<svg  viewBox="0 0 24 24"  xmlns="http://www.w3.org/2000/svg">
<path d="M20.4941 5.0293H6.05688L5.46777 3.33887C5.39844 3.1377 5.20898 3.00293 4.99609 3.00293H3.50586C3.22949 3.00293 3.00586 3.22656 3.00586 3.50293C3.00586 3.7793 3.22949 4.00293 3.50586 4.00293H4.64062L8.44629 14.9229L6.87921 17.111C6.08545 17.376 5.50781 18.1172 5.50781 18.998C5.50781 20.1006 6.40527 20.9971 7.50781 20.9971C8.60938 20.9971 9.50488 20.1006 9.50488 18.998C9.50488 18.6337 9.39966 18.2964 9.2287 18.002H16.7725C16.6014 18.2964 16.4961 18.6337 16.4961 18.998C16.4961 20.1006 17.3926 20.9971 18.4951 20.9971C19.5967 20.9971 20.4922 20.1006 20.4922 18.998C20.4922 17.8965 19.5967 17 18.4951 17C18.4359 17 18.3801 17.0124 18.3221 17.0175C18.296 17.0132 18.2725 17.002 18.2451 17.002H8.1875L9.28833 15.4641L20.5791 13.5146C20.8193 13.4727 20.9941 13.2646 20.9941 13.0215V5.5293C20.9941 5.25293 20.7705 5.0293 20.4941 5.0293ZM8.50488 18.998C8.50488 19.5488 8.05762 19.9971 7.50781 19.9971C6.95605 19.9971 6.50781 19.5488 6.50781 18.998C6.50781 18.4507 6.95105 18.0075 7.49811 18.002H7.51746C8.06256 18.0075 8.50488 18.4507 8.50488 18.998ZM19.4922 18.998C19.4922 19.5488 19.0449 19.9971 18.4951 19.9971C17.9443 19.9971 17.4961 19.5488 17.4961 18.998C17.4961 18.4473 17.9443 18 18.4951 18C19.0449 18 19.4922 18.4473 19.4922 18.998ZM19.9941 12.6006L9.33661 14.4401L6.4054 6.0293H19.9941V12.6006Z" />
</svg>
