<svg width="24" height="24" viewBox="0 0 24 24" fill="none" xmlns="http://www.w3.org/2000/svg">
<path d="M9.18652 10.9248C9.28418 11.0225 9.41211 11.0713 9.54004 11.0713C9.66797 11.0713 9.7959 11.0225 9.89355 10.9248C10.0889 10.7295 10.0889 10.4131 9.89355 10.2178L10.6005 9.51068L18.7324 17.6426C18.8301 17.7402 18.958 17.7891 19.0859 17.7891C19.2139 17.7891 19.3418 17.7402 19.4395 17.6426L20.8535 16.2285C21.0488 16.0332 21.0488 15.7168 20.8535 15.5215L12.7217 7.38922L13.4287 6.68213C13.5264 6.77979 13.6543 6.82861 13.7822 6.82861C13.9102 6.82861 14.0381 6.77979 14.1357 6.68213C14.3311 6.48682 14.3311 6.17041 14.1357 5.9751L12.7217 4.56079L11.6611 3.5C11.6611 3.49994 11.6612 3.50006 11.6611 3.5L11.3076 3.14648C11.1123 2.95117 10.7959 2.95117 10.6006 3.14648C10.4053 3.3418 10.4053 3.6582 10.6006 3.85352L7.06494 7.38965C6.86963 7.19434 6.55273 7.19385 6.35742 7.38916C6.16211 7.58447 6.16211 7.90088 6.35742 8.09619L9.18652 10.9248ZM19.793 15.875L19.0859 16.582L11.3076 8.80371L11.6611 8.44995L12.0148 8.09631L19.793 15.875ZM11.3076 4.56061L12.0146 5.26782L12.7217 5.9751L11.6616 7.0354C11.6614 7.03552 11.6617 7.03528 11.6616 7.0354L10.9541 7.74292L9.18652 9.51074L7.77246 8.09619L11.3076 4.56061ZM21.501 20H9V19C9 18.4487 8.55176 18 8 18H5C4.44824 18 4 18.4487 4 19V20H2.5C2.22363 20 2 20.2236 2 20.5C2 20.7764 2.22363 21 2.5 21H21.501C21.7773 21 22.001 20.7764 22.001 20.5C22.001 20.2236 21.7773 20 21.501 20ZM8 20H5V19H8V20Z" fill="#212121"/>
</svg>
