<svg viewBox="0 0 24 24" xmlns="http://www.w3.org/2000/svg">
<path d="M15.4879 9.68445C15.4844 9.66949 15.4908 9.65442 15.4859 9.63965C15.4758 9.60938 15.4492 9.59076 15.434 9.56354C15.4113 9.52252 15.3911 9.48462 15.3579 9.45166C15.325 9.41852 15.2871 9.39832 15.246 9.37555C15.2188 9.36035 15.2002 9.33374 15.1699 9.32373C15.1552 9.31879 15.1401 9.3252 15.1251 9.32172C15.1096 9.31793 15.0985 9.30505 15.0825 9.30273L11.3701 8.77246C11.2114 8.75 11.0567 8.80322 10.9458 8.91406L9.1534 10.7062C9.15285 10.7068 9.15224 10.7073 9.15169 10.7079L7.76369 12.0957C7.65236 12.207 7.60011 12.3643 7.62209 12.52L8.15236 16.2324C8.1548 16.2493 8.16835 16.2611 8.17244 16.2775C8.1758 16.2916 8.16969 16.3059 8.17433 16.3198C8.18385 16.3484 8.20912 16.3659 8.22328 16.3918C8.24678 16.435 8.26827 16.4746 8.30312 16.509C8.3351 16.541 8.37178 16.5604 8.41133 16.5827C8.4391 16.5984 8.45827 16.6255 8.48927 16.6357C8.51057 16.643 8.53267 16.6423 8.55446 16.6464C8.56307 16.6481 8.56892 16.6555 8.57765 16.6567L16.0005 17.7168C16.0244 17.7202 16.0479 17.7217 16.0713 17.7217C16.2031 17.7217 16.3306 17.6694 16.4248 17.5752C16.5361 17.4639 16.5884 17.3066 16.5664 17.1509L15.5069 9.72705C15.5045 9.71106 15.4917 9.69995 15.4879 9.68445ZM11.4761 9.79785L13.9512 10.1514L12.7653 11.3371L10.7835 10.4903L11.4761 9.79785ZM12.0033 12.0991L10.9321 13.1702L10.1564 11.3099L12.0033 12.0991ZM8.64748 12.626L9.33516 11.9384L10.1676 13.9346L9.00099 15.1011L8.64748 12.626ZM9.709 15.8081L10.8421 14.675L13.8386 16.3977L9.709 15.8081ZM11.5745 13.9426L12.7717 12.7454L14.3893 15.5608L11.5745 13.9426ZM13.5043 12.0128L14.6582 10.8589L15.2585 15.0662L13.5043 12.0128ZM21.4497 12.1938L13.7544 4.49951L13.7534 4.49854C13.3916 4.13818 12.9263 3.95117 12.5318 4.00098L8.01723 4.00244C7.94783 2.69562 7.59853 1.28723 6.7798 1.03809C6.69875 1.01367 6.61525 1.00098 6.53175 1.00098C5.59468 1.00098 5.12965 2.43976 5.04854 4.00342H4.98097C4.04005 4.1001 3.13088 5.00928 3.03175 6.00098L3.0342 13.4502C2.98683 13.915 3.16554 14.4136 3.50148 14.752L11.1968 22.4468C11.5571 22.8071 12.0425 22.9995 12.583 22.9995C12.6616 22.9995 12.7417 22.9951 12.8228 22.9868C13.4204 22.9258 14 22.6416 14.4546 22.1865L21.189 15.4521C22.1592 14.4824 22.2764 13.021 21.4497 12.1938ZM6.51094 2.02814C6.6689 2.19495 6.94917 2.86444 7.01607 4.00275L6.04713 4.00305C6.11464 2.84137 6.3998 2.16815 6.51094 2.02814ZM20.4819 14.7451L13.7476 21.4795C13.4546 21.7725 13.0903 21.9546 12.7212 21.9922C12.3911 22.0239 12.1001 21.9365 11.9038 21.7397L4.20998 14.0459C4.10548 13.9409 4.00929 13.7476 4.03175 13.501L4.02931 6.05176C4.07668 5.5874 4.61818 5.0459 5.03175 5.00098H5.04866C5.092 5.83246 5.24684 6.6181 5.52174 7.18073C5.04115 7.95233 5.13161 8.9812 5.80129 9.65088C6.17921 10.0288 6.68117 10.2368 7.21535 10.2368C7.75002 10.2368 8.25197 10.0288 8.62941 9.65088C9.4092 8.87109 9.4092 7.60205 8.62941 6.82227C8.00093 6.19336 7.05702 6.08105 6.30434 6.46716C6.19045 6.12811 6.08522 5.64032 6.0475 5.00067L12.5825 4.99854C12.5952 4.99707 12.6079 4.99658 12.6206 4.99658C12.8145 4.99658 12.9824 5.1416 13.0484 5.20752L20.7427 12.9009C21.1719 13.3306 21.0523 14.1748 20.4819 14.7451ZM7.0052 7.27802C7.07533 7.26288 7.14394 7.2373 7.21535 7.2373C7.4717 7.2373 7.72755 7.33447 7.92238 7.5293C8.31252 7.91943 8.31252 8.55371 7.92238 8.94385C7.54445 9.32178 6.88625 9.32178 6.50832 8.94385C6.23756 8.6731 6.1675 8.28717 6.27248 7.94446C6.35616 7.97137 6.43898 8.00098 6.53175 8.00098C6.80812 8.00098 7.06203 7.78369 7.06203 7.50732C7.06203 7.42255 7.03859 7.34711 7.0052 7.27802Z" />
</svg>
