<svg  viewBox="0 0 24 24"  xmlns="http://www.w3.org/2000/svg">
<path d="M7.5 9H15.5C15.7764 9 16 8.77637 16 8.5C16 8.22363 15.7764 8 15.5 8H7.5C7.22363 8 7 8.22363 7 8.5C7 8.77637 7.22363 9 7.5 9Z" />
<path d="M9 11.5C9 11.7764 9.22363 12 9.5 12H17.5C17.7764 12 18 11.7764 18 11.5C18 11.2236 17.7764 11 17.5 11H9.5C9.22363 11 9 11.2236 9 11.5Z" />
<path fill-rule="evenodd" clip-rule="evenodd" d="M4.49414 3H20.5C20.7764 3 21 3.22363 21 3.5V17.5C21 17.7764 20.7764 18 20.5 18H11.6689L7.80176 20.8999C7.71387 20.9663 7.6084 21 7.50195 21C7.42578 21 7.34863 20.9824 7.27832 20.9473C7.10938 20.8623 7.00195 20.6895 7.00195 20.5V18H4.49414C4.21777 18 3.99414 17.7764 3.99414 17.5V3.5C3.99414 3.22363 4.21777 3 4.49414 3ZM11.502 17H20V4H4.99414V17H7.50195C7.77832 17 8.00195 17.2236 8.00195 17.5V19.5L11.2021 17.1001C11.2881 17.0352 11.3936 17 11.502 17Z" />
</svg>
