<svg  viewBox="0 0 24 24"  xmlns="http://www.w3.org/2000/svg">
<path d="M21.4984 21H20.3119C19.6614 21 19.0589 20.6836 19.0589 18.3847V9.99265H21.4984C21.7756 9.99265 22 9.76902 22 9.49265C22 9.21628 21.7756 8.99265 21.4984 8.99265H18.5573C18.28 8.99265 18.0556 9.21628 18.0556 9.49265V9.6976C17.3629 9.64194 15.3056 9.32718 14.3112 7.54148C13.5411 6.15818 13.4892 5.07273 13.448 4.20066C13.4108 3.42478 13.3785 2.75437 12.8083 2.28806C12.4115 1.96384 11.8521 1.91013 11.3073 2.14548C10.5422 2.47556 9.68394 3.43015 9.57029 5.1196C9.488 6.38083 9.73489 8.09226 9.88576 8.98679H4.38366C4.35733 8.98679 4.33467 8.99778 4.30944 9.00168C4.30559 9.00162 4.30234 8.99948 4.29842 8.99948C3.30793 8.99948 2.50162 9.89792 2.50162 11.0019C2.50162 11.4843 2.65819 11.9196 2.91096 12.2639C2.36672 12.6054 2 13.2458 2 13.9941C2 14.7406 2.37235 15.385 2.91647 15.7289C2.66033 16.0746 2.50162 16.5133 2.50162 16.998C2.50162 17.9065 3.04952 18.6672 3.79356 18.9108C3.61243 19.2245 3.50485 19.5973 3.50485 19.999C3.50485 21.1025 4.29842 22 5.27422 22H13.8517C14.3876 22 14.996 21.7412 15.6397 21.4668C16.154 21.248 16.736 21 17.0906 21H18.521C18.5323 21 18.5417 20.9943 18.5528 20.9936C18.8784 21.5677 19.4151 22 20.3119 22H21.4984C21.7756 22 22 21.7763 22 21.5C22 21.2236 21.7756 21 21.4984 21ZM4.29842 10.0005C4.32555 10.0005 4.349 9.98917 4.37496 9.98502C4.37803 9.98508 4.3806 9.98679 4.38366 9.98679H8.1644C8.18681 9.98984 8.20677 9.99997 8.23004 9.99997C8.66405 9.99997 9.01773 10.4487 9.01773 11C9.01773 11.5504 8.66503 11.9981 8.23194 11.9995H4.27711C3.85179 11.9841 3.50485 11.5373 3.50485 11.0019C3.50485 10.4497 3.86147 10.0005 4.29842 10.0005ZM3.00323 13.9941C3.00323 13.459 3.34907 13.0127 3.77329 13C3.79417 12.9993 3.81169 12.9894 3.83183 12.9863C3.85657 12.99 3.8788 13.0009 3.90458 13.0009H9.23817C9.67219 13.0009 10.0249 13.4492 10.0249 14C10.0249 14.5508 9.67219 14.999 9.23817 14.999H4.33075L4.32592 15H4.22641C4.2168 14.9994 4.20823 14.9951 4.19849 14.9951H3.79289C3.35789 14.9951 3.00323 14.5459 3.00323 13.9941ZM8.25551 20.998C8.25208 20.998 8.2492 20.9999 8.24577 21H5.27422C4.85882 21 4.50808 20.542 4.50808 19.999C4.50808 19.457 4.85882 19 5.27422 19H8.25551C8.67091 19 9.02165 19.457 9.02165 19.998C9.02165 20.54 8.67091 20.998 8.25551 20.998ZM8.87959 18H4.29352C3.85853 18 3.50485 17.5508 3.50485 16.998C3.50485 16.4668 3.84677 16.0195 4.26707 16.0019C4.26989 16.0018 4.27222 16.0002 4.27503 16H4.32592L4.33075 16.0009H8.88339C9.31557 16.0038 9.66729 16.4499 9.66729 17C9.66729 17.5517 9.31361 18 8.87959 18ZM17.0906 20C16.5312 20 15.8777 20.2783 15.2458 20.5468C14.7226 20.7695 14.1818 21 13.8517 21H9.77781C9.93083 20.7041 10.0249 20.3647 10.0249 19.998C10.0249 19.5437 9.8846 19.1291 9.65749 18.7931C10.2546 18.4684 10.6705 17.79 10.6705 17C10.6705 16.4902 10.4936 16.0293 10.2113 15.6757C10.7028 15.3186 11.0301 14.7023 11.0301 14C11.0301 13.0887 10.4778 12.3264 9.73011 12.0858C9.91252 11.7726 10.021 11.4007 10.021 11C10.021 10.6287 9.92391 10.285 9.7655 9.98679H10.4863C10.6362 9.98679 10.7793 9.91989 10.8743 9.80417C10.9693 9.68845 11.0075 9.53611 10.9782 9.38913C10.9733 9.36374 10.4667 6.79831 10.5716 5.18503C10.649 4.0239 11.1976 3.2822 11.7061 3.06296C11.7982 3.02292 12.0294 2.9448 12.1715 3.0615C12.388 3.23777 12.4144 3.58982 12.4458 4.24802C12.4899 5.17282 12.5496 6.43894 13.4333 8.02683C14.7102 10.3184 17.2586 10.6536 18.0556 10.7021V18.3847C18.0556 18.7345 18.0577 19.3636 18.1926 20H17.0906Z" />
</svg>
