<svg viewBox="0 0 24 24" xmlns="http://www.w3.org/2000/svg">
<path d="M7.68457 19.8242L7.68549 18.8305C7.84686 18.5665 7.97247 18.2573 8.04688 17.8955C8.04883 17.8945 8.05078 17.8936 8.05176 17.8916C8.37793 17.6611 8.49609 17.1455 8.53223 16.9336C8.58789 16.6006 8.59668 16.0996 8.41211 15.7773C8.41992 15.2861 8.37207 14.3223 7.72656 13.6504C7.30957 13.2168 6.7334 12.9961 6.0127 12.9961C5.29199 12.9961 4.71484 13.2168 4.29785 13.6514C3.65918 14.3164 3.60547 15.2686 3.61328 15.7773C3.55273 15.8828 3.50488 16.0215 3.47949 16.2051C3.44824 16.4326 3.45313 16.6992 3.49316 16.9336C3.52832 17.1445 3.64551 17.6592 3.97168 17.8916C3.97363 17.8926 3.97461 17.8936 3.97656 17.8945C4.05029 18.2579 4.17682 18.5688 4.33997 18.8341L4.34082 19.8242C3.14844 19.9609 1.40039 20.4932 1.09277 21.5059C0.948731 21.9795 1.04004 22.5273 1.05078 22.5889C1.09375 22.8311 1.30469 23 1.54199 23C1.57031 23 1.59961 22.998 1.62891 22.9932C1.90039 22.9453 2.08203 22.6865 2.03516 22.415C2.01953 22.3203 1.98731 22.0029 2.04981 21.7969C2.133 21.5214 2.87726 21.1559 3.7301 20.9492C3.89923 22.0781 4.85815 22.9199 6.0127 22.9199C7.16583 22.9199 8.12531 22.0787 8.29504 20.9495C9.14764 21.1565 9.89172 21.5222 9.97559 21.7969C10.0381 22.0029 10.0059 22.3193 9.98926 22.4141C9.94238 22.6855 10.123 22.9443 10.3945 22.9922C10.4238 22.998 10.4531 23 10.4824 23C10.7197 23 10.9297 22.8311 10.9736 22.5898C10.9844 22.5283 11.0771 21.9795 10.9326 21.5059C10.623 20.4932 8.87598 19.9609 7.68457 19.8242ZM6.0127 21.9199C5.35638 21.9199 4.81574 21.4401 4.72015 20.7989C4.76367 20.7966 4.80859 20.79 4.85156 20.7891C5.12402 20.7832 5.34082 20.5605 5.34082 20.2891L5.34045 19.6614C5.54742 19.7325 5.77087 19.7734 6.0127 19.7734C6.25433 19.7734 6.4776 19.7327 6.68439 19.6616L6.68359 20.2881C6.68359 20.5605 6.90039 20.7832 7.17285 20.7891C7.21606 20.79 7.26117 20.7966 7.30493 20.799C7.20898 21.4395 6.66864 21.9199 6.0127 21.9199ZM7.5459 16.7686C7.5293 16.8691 7.50488 16.9521 7.48242 17.0117C7.47852 17.0117 7.47461 17.0137 7.47168 17.0146C7.27539 17.0684 7.13086 17.252 7.10645 17.4531C7.00293 18.3291 6.63477 18.7734 6.0127 18.7734C6.01282 18.7734 6.01257 18.7734 6.0127 18.7734C5.38995 18.7732 5.02148 18.3289 4.91113 17.4033C4.88086 17.2061 4.73535 17.0459 4.54199 16.9951C4.54004 16.9951 4.53809 16.9941 4.53613 16.9941C4.51563 16.9365 4.49512 16.8604 4.47949 16.7676C4.4502 16.5967 4.45801 16.4209 4.47266 16.3232C4.53516 16.2588 4.58203 16.1787 4.60449 16.0879C4.61621 16.042 4.62012 15.9707 4.61816 15.9238C4.58789 15.1836 4.72266 14.6523 5.01953 14.3438C5.2431 14.1094 5.56824 13.9963 6.01227 13.9962C6.01215 13.9962 6.01239 13.9962 6.01227 13.9962C6.45563 13.9962 6.78125 14.1094 7.00586 14.3438C7.30176 14.6514 7.43652 15.1826 7.40625 15.9443C7.40527 15.9512 7.40527 15.959 7.40527 15.9668C7.40527 16.0742 7.43945 16.1729 7.49707 16.252C7.51367 16.2744 7.53125 16.2959 7.55078 16.3164C7.56641 16.4131 7.5752 16.5928 7.5459 16.7686ZM10.001 8.49805C10.1289 8.49805 10.2568 8.44922 10.3545 8.35156C10.5498 8.15625 10.5498 7.83984 10.3545 7.64453L9.70801 6.99805H15.5127C15.7891 6.99805 16.0127 6.77441 16.0127 6.49805C16.0127 6.22168 15.7891 5.99805 15.5127 5.99805H8.5127C8.51068 5.99805 8.50897 5.99921 8.50696 5.99921C8.37701 5.99768 8.24664 6.04535 8.14746 6.14453C7.95215 6.33984 7.95215 6.65625 8.14746 6.85156L9.64746 8.35156C9.74512 8.44922 9.87305 8.49805 10.001 8.49805ZM8.5127 4.99805H15.5127C15.5778 4.99805 15.6425 4.98486 15.7036 4.95959C15.826 4.90894 15.9236 4.8114 15.9742 4.68896C16.0248 4.56677 16.0248 4.42932 15.9742 4.30713C15.9488 4.24561 15.912 4.19019 15.8656 4.14392L14.3662 2.64453C14.1709 2.44922 13.8545 2.44922 13.6592 2.64453C13.4639 2.83984 13.4639 3.15625 13.6592 3.35156L14.3057 3.99805H8.5127C8.23633 3.99805 8.0127 4.22168 8.0127 4.49805C8.0127 4.77441 8.23633 4.99805 8.5127 4.99805ZM4.5 11H8V12.5C8 12.7021 8.12207 12.8848 8.30859 12.9619C8.49414 13.0381 8.70996 12.9971 8.85352 12.8535L10.7109 11H13.29L15.1465 12.8535C15.2422 12.9492 15.3701 13 15.5 13C15.5645 13 15.6299 12.9873 15.6914 12.9619C15.8779 12.8848 16 12.7021 16 12.5V11H19.5C19.7764 11 20 10.7764 20 10.5V1.5C20 1.22363 19.7764 1 19.5 1H4.5C4.22363 1 4 1.22363 4 1.5V10.5C4 10.7764 4.22363 11 4.5 11ZM5 2H19V10H15.5C15.2236 10 15 10.2236 15 10.5V11.2939L13.8506 10.1465C13.7568 10.0527 13.6299 10 13.4971 10H10.5039C10.3711 10 10.2441 10.0527 10.1504 10.1465L9 11.2949V10.5C9 10.2236 8.77637 10 8.5 10H5V2ZM22.9326 21.5059C22.623 20.4932 20.876 19.9609 19.6846 19.8242L19.6855 18.8305C19.8469 18.5665 19.9725 18.2573 20.0469 17.8955C20.0488 17.8945 20.0508 17.8936 20.0518 17.8916C20.3779 17.6611 20.4961 17.1455 20.5322 16.9336C20.5879 16.6006 20.5967 16.0996 20.4121 15.7773C20.4199 15.2861 20.3721 14.3223 19.7266 13.6504C19.3096 13.2168 18.7334 12.9961 18.0127 12.9961C17.292 12.9961 16.7148 13.2168 16.2979 13.6514C15.6592 14.3164 15.6055 15.2686 15.6133 15.7773C15.5527 15.8828 15.5049 16.0215 15.4795 16.2051C15.4482 16.4326 15.4531 16.6992 15.4932 16.9336C15.5283 17.1445 15.6455 17.6592 15.9717 17.8916C15.9736 17.8926 15.9746 17.8936 15.9766 17.8945C16.0503 18.2579 16.1768 18.5688 16.34 18.8341L16.3408 19.8242C15.1484 19.9609 13.4004 20.4932 13.0928 21.5059C12.9492 21.9795 13.04 22.5273 13.0508 22.5889C13.0938 22.8311 13.3047 23 13.542 23C13.5703 23 13.5996 22.998 13.6289 22.9932C13.9004 22.9453 14.082 22.6865 14.0352 22.415C14.0195 22.3203 13.9873 22.0029 14.0498 21.7969C14.133 21.5214 14.8773 21.1559 15.7301 20.9492C15.8992 22.0781 16.8582 22.9199 18.0127 22.9199C19.1658 22.9199 20.1253 22.0787 20.295 20.9495C21.1476 21.1565 21.8917 21.5222 21.9756 21.7969C22.0381 22.0029 22.0059 22.3193 21.9893 22.4141C21.9424 22.6855 22.123 22.9443 22.3945 22.9922C22.4238 22.998 22.4531 23 22.4824 23C22.7197 23 22.9297 22.8311 22.9736 22.5898C22.9844 22.5283 23.0771 21.9795 22.9326 21.5059ZM18.0127 21.9199C17.3564 21.9199 16.8157 21.4401 16.7202 20.7989C16.7637 20.7966 16.8086 20.79 16.8516 20.7891C17.124 20.7832 17.3408 20.5605 17.3408 20.2891L17.3405 19.6614C17.5474 19.7325 17.7709 19.7734 18.0127 19.7734C18.2543 19.7734 18.4776 19.7327 18.6844 19.6616L18.6836 20.2881C18.6836 20.5605 18.9004 20.7832 19.1729 20.7891C19.2161 20.79 19.2612 20.7966 19.3049 20.799C19.209 21.4395 18.6686 21.9199 18.0127 21.9199ZM19.5459 16.7686C19.5293 16.8691 19.5049 16.9521 19.4824 17.0117C19.4785 17.0117 19.4746 17.0137 19.4717 17.0146C19.2754 17.0684 19.1309 17.252 19.1064 17.4531C19.0029 18.3291 18.6348 18.7734 18.0127 18.7734C18.0128 18.7734 18.0126 18.7734 18.0127 18.7734C17.39 18.7732 17.0215 18.3289 16.9111 17.4033C16.8809 17.2061 16.7354 17.0459 16.542 16.9951C16.54 16.9951 16.5381 16.9941 16.5361 16.9941C16.5156 16.9365 16.4951 16.8604 16.4795 16.7676C16.4502 16.5967 16.458 16.4209 16.4727 16.3232C16.5352 16.2588 16.582 16.1787 16.6045 16.0879C16.6162 16.042 16.6201 15.9707 16.6182 15.9238C16.5879 15.1836 16.7227 14.6523 17.0195 14.3438C17.2431 14.1094 17.5682 13.9963 18.0123 13.9962C18.0121 13.9962 18.0124 13.9962 18.0123 13.9962C18.4556 13.9962 18.7812 14.1094 19.0059 14.3438C19.3018 14.6514 19.4365 15.1826 19.4062 15.9443C19.4053 15.9512 19.4053 15.959 19.4053 15.9668C19.4053 16.0742 19.4395 16.1729 19.4971 16.252C19.5137 16.2744 19.5312 16.2959 19.5508 16.3164C19.5664 16.4131 19.5752 16.5928 19.5459 16.7686Z"/>
</svg>
