<svg viewBox="0 0 24 24" xmlns="http://www.w3.org/2000/svg">
<path d="M16.5023 10.1733C16.8519 10.1733 17.1352 9.8905 17.1352 9.54175C17.1352 9.19299 16.8519 8.91028 16.5023 8.91028C16.1527 8.91028 15.8693 9.19299 15.8693 9.54175C15.8693 9.8905 16.1527 10.1733 16.5023 10.1733ZM19.5004 10.1733C19.8499 10.1733 20.1333 9.8905 20.1333 9.54175C20.1333 9.19299 19.8499 8.91028 19.5004 8.91028C19.1508 8.91028 18.8674 9.19299 18.8674 9.54175C18.8674 9.8905 19.1508 10.1733 19.5004 10.1733ZM13.4967 10.1733C13.8463 10.1733 14.1296 9.8905 14.1296 9.54175C14.1296 9.19299 13.8463 8.91028 13.4967 8.91028C13.1472 8.91028 12.8638 9.19299 12.8638 9.54175C12.8638 9.8905 13.1472 10.1733 13.4967 10.1733ZM22.8579 4.14648C22.7642 4.05273 22.6367 4 22.5044 4L10.4995 4.00879C10.2236 4.00879 10 4.23242 10 4.50879V8H1.50977C1.2334 8 1.00977 8.22363 1.00977 8.5V17.5C1.00977 17.7764 1.2334 18 1.50977 18H2.99219V19.5273C2.99219 19.7148 3.09668 19.8857 3.2627 19.9717C3.33496 20.0088 3.41357 20.0273 3.49219 20.0273C3.59424 20.0273 3.69531 19.9961 3.78174 19.9355L6.50781 18H12.5151C12.7915 18 13.0151 17.7764 13.0151 17.5V15.0023L15.7837 15.0049L19.1816 17.8818C19.2739 17.96 19.3887 18 19.5049 18C19.5762 18 19.6479 17.9844 19.7153 17.9541C19.8916 17.8721 20.0049 17.6943 20.0049 17.5V15.0049H22.5044C22.7808 15.0049 23.0044 14.7812 23.0044 14.5049V4.5C23.0044 4.36719 22.9517 4.24023 22.8579 4.14648ZM12.0151 17H6.34863C6.24512 17 6.14404 17.0322 6.05908 17.0918L3.99219 18.5596V17.5C3.99219 17.2236 3.76855 17 3.49219 17H2.00977V9H10V14.5C10 14.7764 10.2236 15 10.4995 15L12.0151 15.0014V17ZM22.0044 14.0049H19.5049C19.2285 14.0049 19.0049 14.2285 19.0049 14.5049V16.4219L16.2905 14.123C16.2002 14.0469 16.0859 14.0049 15.9678 14.0049L11 14V5.00879L22.0044 5V14.0049Z" />
</svg>
