<svg  viewBox="0 0 24 24"  xmlns="http://www.w3.org/2000/svg">
<path d="M9.598 6.61426C9.50445 6.70814 9.37729 6.76078 9.24475 6.76051C9.04307 6.7594 8.86172 6.63671 8.78459 6.45036C8.70746 6.264 8.7496 6.04957 8.8915 5.90626L11.6403 3.15751C11.6894 3.10534 11.7493 3.06441 11.8158 3.03751C11.8348 3.02948 11.8549 3.02682 11.875 3.02415C11.885 3.02282 11.8951 3.02149 11.905 3.01951C11.9154 3.01734 11.9255 3.01455 11.9356 3.01177C11.957 3.00588 11.9783 3.00001 12.0018 3.00001H12.0033C12.1365 2.99938 12.2645 3.05203 12.3588 3.14626L15.112 5.89951C15.2879 6.09781 15.2788 6.39877 15.0914 6.58618C14.904 6.7736 14.6031 6.78261 14.4048 6.60676L12.5013 4.70401V14.5095C12.5013 14.7858 12.2773 15.0098 12.001 15.0098C11.7247 15.0098 11.5008 14.7858 11.5008 14.5095V4.71151L9.598 6.61426Z" />
<path d="M14.4963 9.00076H18.0003C18.2765 9.00076 18.5005 9.22473 18.5005 9.50101V20.5013C18.5007 20.634 18.4481 20.7614 18.3542 20.8552C18.2603 20.9491 18.133 21.0017 18.0003 21.0015H6.00025C5.7235 21.0015 5.5 20.778 5.5 20.5013V9.50101C5.4998 9.36827 5.55244 9.24092 5.6463 9.14706C5.74016 9.0532 5.86752 9.00056 6.00025 9.00076H9.50125C9.77753 9.00076 10.0015 9.22473 10.0015 9.50101C10.0015 9.77729 9.77753 10.0013 9.50125 10.0013H6.5005V20.001H17.5008V10.0013H14.4963C14.22 10.0013 13.996 9.77729 13.996 9.50101C13.996 9.22473 14.22 9.00076 14.4963 9.00076Z" />
</svg>
