<svg viewBox="0 0 24 24"  xmlns="http://www.w3.org/2000/svg">
<path d="M11.988 15.0121L11.952 13.5781C12.17 13.1861 12.339 12.7261 12.438 12.1871C12.582 12.1131 12.734 11.9761 12.872 11.7271C13.006 11.4841 13.112 11.1601 13.172 10.8131C13.229 10.4701 13.236 10.0851 13.19 9.7561C13.152 9.48743 13.0807 9.27743 12.976 9.1261C13 7.7141 12.666 6.6371 11.982 5.9251C11.384 5.3011 10.548 4.9851 9.5 4.9851C8.452 4.9851 7.616 5.3011 7.018 5.9251C6.338 6.6331 6.004 7.7011 6.024 9.1261C5.91933 9.2761 5.848 9.4861 5.81 9.7561C5.764 10.0861 5.771 10.4701 5.829 10.8131C5.887 11.1601 5.994 11.4841 6.128 11.7271C6.268 11.9801 6.424 12.1181 6.57 12.1901C6.668 12.6601 6.819 13.0761 7.012 13.4381C7.01 13.4601 7 13.4781 7 13.5001V15.0131C4.462 15.1411 2 16.2361 2 17.9951V20.5001C2 20.6327 2.05268 20.7599 2.14645 20.8537C2.24021 20.9474 2.36739 21.0001 2.5 21.0001C2.63261 21.0001 2.75979 20.9474 2.85355 20.8537C2.94732 20.7599 3 20.6327 3 20.5001V17.9951C3 17.1441 4.356 16.3851 6.125 16.1131C6.638 17.5941 8.003 18.6431 9.502 18.6431C10.978 18.6431 12.332 17.5951 12.862 16.1121C14.637 16.3821 16 17.1421 16 17.9951V20.5001C16 20.6327 16.0527 20.7599 16.1464 20.8537C16.2402 20.9474 16.3674 21.0001 16.5 21.0001C16.6326 21.0001 16.7598 20.9474 16.8536 20.8537C16.9473 20.7599 17 20.6327 17 20.5001V17.9951C17 16.2331 14.53 15.1371 11.988 15.0121ZM9.502 17.6421C8.502 17.6421 7.577 16.9821 7.15 16.0171C7.267 16.0121 7.38 16.0001 7.5 16.0001C7.63261 16.0001 7.75979 15.9474 7.85355 15.8537C7.94732 15.7599 8 15.6327 8 15.5001V14.5611C8.45929 14.864 8.99888 15.0221 9.549 15.0151C10.091 15.0151 10.569 14.8801 10.979 14.6321L11 15.5121C11.0031 15.6426 11.0572 15.7667 11.1506 15.8579C11.2441 15.9491 11.3694 16.0001 11.5 16.0001C11.613 16.0001 11.72 16.0121 11.832 16.0161C11.392 16.9821 10.48 17.6421 9.502 17.6421ZM11.502 11.7031C11.375 12.7581 10.932 14.0161 9.549 14.0161C7.994 14.0161 7.594 12.3761 7.489 11.6351C7.47041 11.5157 7.40923 11.4071 7.31676 11.3293C7.22429 11.2516 7.1068 11.2099 6.986 11.2121C6.78568 10.7554 6.72985 10.2484 6.826 9.7591C6.91985 9.68543 6.98666 9.58275 7.016 9.4671C7.02624 9.41171 7.03059 9.3554 7.029 9.2991C6.979 8.0641 7.217 7.1621 7.739 6.6191C8.142 6.1991 8.734 5.9861 9.5 5.9861C10.266 5.9861 10.858 6.1991 11.26 6.6181C11.784 7.16143 12.0207 8.06477 11.97 9.3281C11.9665 9.41096 11.9832 9.49343 12.0188 9.56836C12.0543 9.64329 12.1076 9.70842 12.174 9.7581C12.215 9.9191 12.247 10.2811 12.185 10.6481C12.1545 10.8517 12.0928 11.0493 12.002 11.2341C11.9577 11.2359 11.9138 11.2426 11.871 11.2541C11.7728 11.2859 11.6857 11.3452 11.6201 11.4249C11.5545 11.5047 11.5132 11.6016 11.501 11.7041M14.3 7.9651C14.908 8.2051 15.317 8.8251 15.317 9.5081C15.317 10.1871 14.93 10.7881 14.33 11.0391C14.2687 11.064 14.2129 11.1008 14.1659 11.1473C14.1189 11.1939 14.0816 11.2494 14.0562 11.3105C14.0308 11.3716 14.0178 11.4371 14.0179 11.5033C14.018 11.5695 14.0313 11.6349 14.0569 11.696C14.0825 11.757 14.12 11.8123 14.1671 11.8587C14.2143 11.9052 14.2702 11.9418 14.3316 11.9664C14.393 11.9911 14.4586 12.0033 14.5248 12.0024C14.591 12.0015 14.6563 11.9874 14.717 11.9611C15.689 11.5541 16.317 10.5911 16.317 9.5081C16.317 8.4181 15.654 7.4241 14.667 7.0351C14.5443 6.98955 14.4087 6.99389 14.2892 7.04721C14.1697 7.10053 14.0759 7.19857 14.0278 7.32028C13.9798 7.442 13.9814 7.5777 14.0323 7.69825C14.0832 7.81881 14.1793 7.91461 14.3 7.9651ZM15.74 5.9471C17.216 6.6991 18.133 8.0671 18.133 9.5171C18.133 10.9671 17.257 12.2921 15.791 13.0591C15.7311 13.0885 15.6777 13.1296 15.6339 13.18C15.5902 13.2303 15.5569 13.2889 15.5362 13.3523C15.5154 13.4157 15.5075 13.4827 15.513 13.5492C15.5185 13.6157 15.5373 13.6804 15.5682 13.7395C15.5991 13.7986 15.6415 13.851 15.693 13.8935C15.7444 13.936 15.8038 13.9677 15.8678 13.9869C15.9317 14.006 15.9988 14.0122 16.0651 14.005C16.1314 13.9979 16.1957 13.9775 16.254 13.9451C18.057 13.0021 19.134 11.3471 19.134 9.5171C19.134 7.6891 18.007 5.9801 16.194 5.0571C16.1353 5.02395 16.0704 5.00301 16.0034 4.99556C15.9364 4.98811 15.8686 4.9943 15.804 5.01375C15.7394 5.0332 15.6794 5.06551 15.6277 5.10874C15.5759 5.15197 15.5334 5.20523 15.5028 5.2653C15.4721 5.32538 15.454 5.39103 15.4494 5.45831C15.4447 5.52559 15.4538 5.59311 15.476 5.6568C15.4981 5.7205 15.5329 5.77905 15.5783 5.82894C15.6237 5.87883 15.6787 5.91902 15.74 5.9471ZM17.74 3.0621C17.6823 3.02683 17.618 3.00364 17.551 2.99394C17.4841 2.98424 17.4159 2.98822 17.3505 3.00564C17.2852 3.02307 17.224 3.05358 17.1708 3.09532C17.1175 3.13707 17.0733 3.18918 17.0408 3.2485C17.0083 3.30783 16.9882 3.37313 16.9817 3.44046C16.9751 3.50779 16.9823 3.57575 17.0028 3.64021C17.0233 3.70468 17.0567 3.76432 17.1009 3.81553C17.1451 3.86673 17.1992 3.90843 17.26 3.9381C19.602 5.2211 21 7.3061 21 9.5181C21 11.7061 19.624 13.7791 17.32 15.0631C17.2041 15.1275 17.1185 15.2354 17.0822 15.3629C17.0458 15.4904 17.0616 15.6272 17.126 15.7431C17.1904 15.859 17.2983 15.9446 17.4258 15.9809C17.5533 16.0173 17.6901 16.0015 17.806 15.9371C20.432 14.4741 22 12.0741 22 9.5171C22 6.9351 20.408 4.5211 17.74 3.0621Z"/>
</svg>
