<svg  viewBox="0 0 24 24"  xmlns="http://www.w3.org/2000/svg">
<path d="M19.5 5H4.5C4.22363 5 4 5.22363 4 5.5C4 5.77637 4.22363 6 4.5 6H19V15.5C19 15.7764 19.2236 16 19.5 16C19.7764 16 20 15.7764 20 15.5V5.5C20 5.22363 19.7764 5 19.5 5ZM21.5 3H6.5C6.22363 3 6 3.22363 6 3.5C6 3.77637 6.22363 4 6.5 4H21V13.5C21 13.7764 21.2236 14 21.5 14C21.7764 14 22 13.7764 22 13.5V3.5C22 3.22363 21.7764 3 21.5 3ZM10.0049 13.5C10.0049 13.7764 10.2285 14 10.5049 14H11.1993C11.5671 15.2736 12.4445 16 13.7002 16C14.2959 16 14.8984 15.709 15.3105 15.2212C15.4893 15.0103 15.4629 14.6948 15.252 14.5166C15.04 14.3394 14.7256 14.3638 14.5469 14.5757C14.3223 14.8413 14.0059 15 13.7002 15C12.9165 15 12.493 14.5546 12.2626 14H13.1748C13.4512 14 13.6748 13.7764 13.6748 13.5C13.6748 13.2236 13.4512 13 13.1748 13H12.031C12.0148 12.8239 12.0049 12.6526 12.0049 12.5005C12.0049 12.3481 12.0149 12.1765 12.0312 12H13.8311C14.1074 12 14.3311 11.7764 14.3311 11.5C14.3311 11.2236 14.1074 11 13.8311 11H12.2642C12.496 10.4454 12.9222 10 13.7109 10C14.0459 10 14.4199 10.2412 14.626 10.4653C14.8135 10.6704 15.1309 10.6826 15.332 10.4951C15.5361 10.3081 15.5488 9.9917 15.3623 9.78857C15.0117 9.40723 14.3936 9 13.7109 9C12.4741 9 11.587 9.73969 11.2092 11H10.5049C10.2285 11 10.0049 11.2236 10.0049 11.5C10.0049 11.7764 10.2285 12 10.5049 12H11.0359C11.0225 12.1643 11.0049 12.3251 11.0049 12.5005C11.0049 12.676 11.022 12.836 11.0348 13H10.5049C10.2285 13 10.0049 13.2236 10.0049 13.5ZM17.5 7.00049H2.5C2.22363 7.00049 2 7.22412 2 7.50049V17.5005C2 17.7769 2.22363 18.0005 2.5 18.0005H4V20.5117C4 20.7881 4.22363 21.0117 4.5 21.0117H9.5C9.77637 21.0117 10 20.7881 10 20.5117V18.0005H17.5C17.7764 18.0005 18 17.7769 18 17.5005V7.50049C18 7.22412 17.7764 7.00049 17.5 7.00049ZM9 20.0117H5V17.0117H9V20.0117ZM7.99976 16.0117H5.99969L5.99902 15.4072C5.99902 14.9751 5.99805 14.6118 5.99902 14.5376C6 14.5298 6 14.522 6 14.5137C6.00977 14.416 6.10352 14.0122 7.00195 14.0122C7.93164 14.0122 7.99609 14.4326 8.00195 14.4727C7.99915 14.5001 7.99817 14.5309 7.99976 16.0117ZM17 17.0005H10V16.5117C10 16.2354 9.77637 16.0117 9.5 16.0117H8.99988C8.99951 15.541 8.99835 14.5981 9 14.5117C9 13.9932 8.58203 13.0122 7.00195 13.0122C6.05469 13.0122 5.56641 13.3672 5.32324 13.6655C5.01562 14.0425 5 14.4326 5 14.5068C5 14.5327 5.00195 14.5576 5.00586 14.5825C4.99805 14.752 4.99902 15.0068 4.99902 15.4087L4.99969 16.0117H4.5C4.22363 16.0117 4 16.2354 4 16.5117V17.0005H3V8.00049H17V17.0005Z" />
</svg>
