<svg  viewBox="0 0 24 24"  xmlns="http://www.w3.org/2000/svg">
<path d="M12 14C10.8975 14 10 14.8975 10 16C10 17.1025 10.8975 18 12 18C13.1026 18 14 17.1025 14 16C14 14.8975 13.1026 14 12 14ZM12 17C11.4483 17 11 16.5518 11 16C11 15.4482 11.4483 15 12 15C12.5518 15 13 15.4482 13 16C13 16.5518 12.5518 17 12 17ZM12.0186 8C9.27052 8 6.68654 9.19238 5.10743 11.1895C4.93654 11.4062 4.97365 11.7207 5.18947 11.8926C5.28126 11.9648 5.39064 12 5.50001 12C5.64747 12 5.79396 11.9346 5.89259 11.8105C7.28322 10.0508 9.57325 9 12.0186 9C14.4151 9 16.6924 10.0518 18.1104 11.8135C18.2842 12.0303 18.5977 12.0615 18.8135 11.8896C19.0283 11.7168 19.0625 11.4014 18.8897 11.1865C17.2832 9.19141 14.7149 8 12.0186 8ZM20.8926 9.19043C18.8213 6.56641 15.5068 5 12.0244 5C8.4756 5 5.14161 6.56738 3.1045 9.19336C2.93556 9.41211 2.9756 9.72559 3.19337 9.89551C3.28517 9.96582 3.39259 10 3.50001 10C3.64845 10 3.79689 9.93359 3.89552 9.80664C5.74318 7.42285 8.78224 6 12.0244 6C15.2031 6 18.2246 7.42383 20.1074 9.80957C20.2783 10.0264 20.5928 10.0625 20.8096 9.89258C21.0264 9.72168 21.0635 9.40723 20.8926 9.19043ZM12.0127 11C10.0664 11 8.23536 11.8164 7.11329 13.1826C6.93849 13.3965 6.96974 13.7109 7.18263 13.8867C7.2754 13.9629 7.38771 14 7.50001 14C7.64454 14 7.7881 13.9375 7.88673 13.8174C8.82032 12.6797 10.3633 12 12.0127 12C13.6299 12 15.1641 12.6807 16.1162 13.8203C16.293 14.0322 16.6084 14.0596 16.8203 13.8838C17.0322 13.707 17.0606 13.3916 16.8838 13.1797C15.7442 11.8145 13.9229 11 12.0127 11Z" />
</svg>
