<svg width="24" height="24" viewBox="0 0 24 24" fill="none" xmlns="http://www.w3.org/2000/svg">
<path d="M10.916 11.7773C11.0693 11.5474 11.0068 11.2373 10.7773 11.084C10.5498 10.9321 10.2373 10.9922 10.084 11.2227C9.74121 11.7373 9.39551 11.999 9.05762 12H9.05566C8.55273 12 8.06152 11.438 7.91504 11.2212C7.75977 10.9922 7.44824 10.9321 7.22168 11.0859C6.99316 11.2393 6.93164 11.5483 7.08398 11.7773C7.16699 11.9023 7.93164 13 9.05566 13C9.74902 13 10.375 12.5889 10.916 11.7773ZM13.5 16H10.5C10.2236 16 10 16.2236 10 16.5C10 16.7764 10.2236 17 10.5 17H13.5C13.7764 17 14 16.7764 14 16.5C14 16.2236 13.7764 16 13.5 16ZM16.084 11.2227C15.7412 11.7373 15.3955 11.999 15.0576 12H15.0557C14.5527 12 14.0615 11.438 13.915 11.2212C13.7598 10.9922 13.4473 10.9321 13.2217 11.0859C12.9932 11.2393 12.9316 11.5483 13.084 11.7773C13.167 11.9023 13.9316 13 15.0557 13C15.749 13 16.375 12.5889 16.916 11.7773C17.0693 11.5474 17.0068 11.2373 16.7773 11.084C16.5488 10.9321 16.2383 10.9922 16.084 11.2227ZM12 3.01074C7.03711 3.01074 3 7.04834 3 12.0117C3 16.9746 7.03711 21.0127 12 21.0127C16.9629 21.0127 21 16.9746 21 12.0117C21 7.04834 16.9629 3.01074 12 3.01074ZM12 20.0127C7.58887 20.0127 4 16.4238 4 12.0117C4 7.6001 7.58887 4.01074 12 4.01074C16.4111 4.01074 20 7.6001 20 12.0117C20 16.4238 16.4111 20.0127 12 20.0127Z" fill="#212121"/>
</svg>
