<svg  viewBox="0 0 24 24"  xmlns="http://www.w3.org/2000/svg">
<path d="M16.2394 8.5C16.2394 8.91421 15.9036 9.25 15.4894 9.25C15.0752 9.25 14.7394 8.91421 14.7394 8.5C14.7394 8.08579 15.0752 7.75 15.4894 7.75C15.9036 7.75 16.2394 8.08579 16.2394 8.5Z" />
<path d="M14.2394 10.5C14.2394 10.9142 13.9036 11.25 13.4894 11.25C13.0752 11.25 12.7394 10.9142 12.7394 10.5C12.7394 10.0858 13.0752 9.75 13.4894 9.75C13.9036 9.75 14.2394 10.0858 14.2394 10.5Z" />
<path d="M17.4894 11.25C17.9036 11.25 18.2394 10.9142 18.2394 10.5C18.2394 10.0858 17.9036 9.75 17.4894 9.75C17.0752 9.75 16.7394 10.0858 16.7394 10.5C16.7394 10.9142 17.0752 11.25 17.4894 11.25Z" />
<path d="M16.2394 12.5C16.2394 12.9142 15.9036 13.25 15.4894 13.25C15.0752 13.25 14.7394 12.9142 14.7394 12.5C14.7394 12.0858 15.0752 11.75 15.4894 11.75C15.9036 11.75 16.2394 12.0858 16.2394 12.5Z" />
<path d="M10.4712 10H8.97119V8.5C8.97119 8.22363 8.74756 8 8.47119 8C8.19482 8 7.97119 8.22363 7.97119 8.5V10H6.47119C6.19482 10 5.97119 10.2236 5.97119 10.5C5.97119 10.7764 6.19482 11 6.47119 11H7.97119V12.5C7.97119 12.7764 8.19482 13 8.47119 13C8.74756 13 8.97119 12.7764 8.97119 12.5V11H10.4712C10.7476 11 10.9712 10.7764 10.9712 10.5C10.9712 10.2236 10.7476 10 10.4712 10Z" />
<path fill-rule="evenodd" clip-rule="evenodd" d="M19.4727 7.17386C19.5537 7.37405 21.3828 11.9053 21.8486 13.5274C22.5098 15.8311 21.6055 17.9229 19.5977 18.7344C19.1504 18.9141 18.7002 19.0039 18.2481 19.0039C16.9111 19.0039 15.5674 18.2188 14.2979 16.6817C13.9219 16.2256 13.1279 15.4199 12.8027 15.2412C12.2163 14.9229 11.8638 14.9209 11.291 15.2364C10.9536 15.4229 10.0796 16.2373 9.69825 16.6866C7.50977 19.2637 5.61084 19.2227 4.40284 18.7344C2.39405 17.9229 1.48926 15.8311 2.15137 13.5274C2.61209 11.9248 4.4055 7.4823 4.52332 7.19045L4.52686 7.18167C5.43457 5.04495 8.10791 4.58206 10.064 5.37014C10.46 5.5303 10.751 5.79202 11.0083 6.02346C11.3857 6.36331 11.6196 6.55569 12.0249 6.55569C12.396 6.55569 12.6191 6.36819 12.9824 6.03616C13.2412 5.79986 13.5343 5.53222 13.9356 5.37014C15.8945 4.57913 18.5674 5.04495 19.4727 7.17386ZM15.0693 16.0449C16.0391 17.2207 17.5498 18.4854 19.2227 17.8067C20.7549 17.1885 21.4082 15.6162 20.8877 13.8028C20.4365 12.2315 18.5684 7.60354 18.5488 7.55667C17.8857 5.99319 15.8291 5.6846 14.3106 6.29788C14.0752 6.39261 13.8721 6.57815 13.6572 6.77444C13.2764 7.12307 12.8018 7.55569 12.0249 7.55569C11.2161 7.55569 10.7303 7.11848 10.3398 6.76698L10.3329 6.76084C10.1204 6.57059 9.91955 6.39069 9.68995 6.29788C8.17139 5.6846 6.11866 5.99417 5.4502 7.56448C5.44939 7.56656 5.44334 7.58163 5.43252 7.60854C5.24001 8.08738 3.5404 12.3151 3.11231 13.8028C2.59131 15.6162 3.24463 17.1885 4.77686 17.8067C6.0918 18.336 7.48877 17.7432 8.93604 16.0391C9.29932 15.6114 10.2866 14.6485 10.8076 14.3614C11.2427 14.1211 11.6392 14 12.0376 14C12.437 14 12.8389 14.1211 13.2822 14.3643C13.8398 14.669 14.7871 15.7032 15.0693 16.0449Z" />
</svg>
