<svg width="24" height="24" viewBox="0 0 24 24" fill="none" xmlns="http://www.w3.org/2000/svg">
<path d="M20.854 7.15479L16.8564 3.14697C16.7627 3.05273 16.6353 3 16.5029 3C16.3701 3 16.2427 3.05273 16.1489 3.14648L12.1465 7.14893C11.9512 7.34424 11.9512 7.66064 12.1465 7.85596C12.3418 8.05127 12.6582 8.05127 12.8535 7.85596L16.0005 4.70898C16.0048 9.71399 15.9913 12.7439 13.5742 14.3564C12.55 15.0398 11.2007 15.1946 9.71393 14.8739C9.99115 13.2426 9.99756 11.6316 9.99756 10.5352C9.99756 10.5311 9.99536 10.5277 9.99524 10.5236C9.99567 10.5153 10 10.5084 10 10.5C10 8.57031 8.42969 7 6.5 7C4.57031 7 3 8.57031 3 10.5C3 11.5244 3.44727 12.4946 4.22705 13.1611C4.22888 13.1627 4.23126 13.1631 4.23309 13.1647C4.23523 13.1664 4.23608 13.1691 4.23828 13.1709C5.65747 14.3126 7.12769 15.1201 8.539 15.5801C7.92389 18.1385 6.53436 20.02 3.5 20.02C3.22363 20.02 3 20.2437 3 20.52C3 20.7964 3.22363 21.02 3.5 21.02C7.2738 21.02 8.8493 18.5403 9.51245 15.8477C10.0736 15.9679 10.6207 16.0293 11.146 16.0293C12.2627 16.0293 13.2817 15.7539 14.1289 15.1885C16.9895 13.2801 17.0051 9.86572 17.0005 4.70734L20.146 7.86084C20.2437 7.95898 20.3716 8.00781 20.5 8.00781C20.6279 8.00781 20.7554 7.95898 20.853 7.86182C21.0488 7.66699 21.0488 7.3501 20.854 7.15479ZM8.99756 10.5352C8.99756 11.9206 8.93671 13.3121 8.73151 14.5895C7.47675 14.16 6.15936 13.4315 4.87177 12.3964C4.31787 11.92 4 11.2296 4 10.5C4 9.12158 5.12158 8 6.5 8C7.87842 8 9 9.12158 9 10.5C9 10.5041 9.0022 10.5074 9.00232 10.5115C9.00189 10.5198 8.99756 10.5268 8.99756 10.5352Z" fill="#212121"/>
</svg>
