<svg  viewBox="0 0 24 24"  xmlns="http://www.w3.org/2000/svg">
<path d="M15.9318 18.6047L16.8971 18.3437C17.0711 18.9872 17.1056 19.1619 17.1101 19.1904C17.1437 19.3821 17.0629 19.5759 16.9031 19.6869C16.8108 19.7514 14.5983 21.2642 11.4003 21.2642C8.16933 21.2642 6.19683 19.7732 6.11433 19.7094C5.97942 19.6053 5.90678 19.4397 5.92158 19.2699L6.64008 10.9884L6.23808 11.5922C6.15976 11.7083 6.03656 11.7864 5.89817 11.8078C5.75978 11.8291 5.61875 11.7918 5.50908 11.7047L2.43708 9.24244C2.24358 9.08719 2.19333 8.81344 2.31858 8.59969C2.33208 8.57644 3.65883 6.31369 4.41333 5.09944C5.04108 4.08994 7.90308 2.97544 8.47008 2.76244C8.69393 2.67807 8.94616 2.76424 9.07159 2.96794C9.07984 2.98144 9.98059 4.39444 11.3831 4.39444C12.8135 4.39444 13.7051 2.98267 13.7148 2.9672C13.8386 2.76638 14.0861 2.67968 14.3081 2.75944C14.8893 2.96719 17.8188 4.05844 18.3851 5.12944C18.9914 6.27499 19.7816 7.93731 19.8316 8.04256L19.8341 8.04769C19.9424 8.27704 19.8622 8.55113 19.6473 8.68594L17.9156 9.76969L17.3846 8.92219L18.7376 8.07544C18.3395 7.24245 17.9272 6.41632 17.5008 5.59744C17.2653 5.15269 15.7331 4.37044 14.3201 3.83044C13.8806 4.37794 12.8666 5.39419 11.3996 5.39419C9.92284 5.39419 8.90958 4.38469 8.46783 3.83569C7.21008 4.33819 5.56308 5.14294 5.26158 5.62744C4.69758 6.53494 3.80808 8.03794 3.39933 8.73244L5.70783 10.5827L6.89058 8.80894C7.01748 8.61917 7.25676 8.53938 7.47215 8.615C7.68755 8.69063 7.82443 8.90249 7.80483 9.12994L6.94308 19.0629C7.50183 19.4117 9.10008 20.2637 11.3823 20.2637C13.0157 20.2569 14.6208 19.836 16.0473 19.0404C16.0196 18.9317 15.9821 18.7892 15.9318 18.6047Z" />
<path fill-rule="evenodd" clip-rule="evenodd" d="M21.2493 16.9929H20.1078C19.496 16.9921 19.0002 16.4963 18.9993 15.8844V11.3979H21.2493C21.5256 11.3979 21.7496 11.174 21.7496 10.8977C21.7496 10.6214 21.5256 10.3974 21.2493 10.3974H18.4991C18.2911 10.3978 18.1051 10.5273 18.0326 10.7222C17.4079 10.5801 16.8631 10.2002 16.5138 9.66319C16.0458 8.95594 16.0151 8.41894 15.9881 7.94569L15.9879 7.94261C15.9632 7.51211 15.9352 7.02468 15.4728 6.70669C15.1353 6.47419 14.6711 6.46069 14.2301 6.67069C13.7358 6.90619 13.1808 7.49719 13.1066 8.44669C13.0608 9.02869 13.1006 9.70969 13.1426 10.1792H10.4493C9.70907 10.1792 9.10682 10.7837 9.10682 11.5269C9.10682 11.8494 9.21707 12.1442 9.40308 12.3752C9.21021 12.6154 9.10563 12.9146 9.10682 13.2227C9.10682 13.6329 9.29058 14.0012 9.57933 14.2487C9.21824 14.8817 9.42472 15.687 10.0458 16.0682C9.98583 16.2242 9.94908 16.4057 9.94908 16.6142C9.94908 17.3522 10.5386 17.9304 11.2916 17.9304H15.2591C15.6426 17.9304 16.0829 17.7509 16.5495 17.5607L16.5513 17.5599C16.8798 17.4257 17.2878 17.2592 17.4836 17.2562H18.5103C18.8973 17.7062 19.4696 17.9927 20.1078 17.9927H21.2493C21.5256 17.9927 21.7496 17.7687 21.7496 17.4924C21.7496 17.2162 21.5256 16.9929 21.2493 16.9929ZM17.4768 16.2564C17.0853 16.2624 16.6421 16.4432 16.1741 16.6344C15.8508 16.7664 15.4481 16.9307 15.2606 16.9307H11.2931C11.1228 16.9307 10.9503 16.8219 10.9503 16.6142C10.9503 16.3494 11.1003 16.2639 11.1513 16.2429C11.3886 16.1706 11.5368 15.935 11.4993 15.6898C11.4619 15.4445 11.2501 15.264 11.0021 15.2657H10.7463C10.6548 15.2651 10.5673 15.2282 10.503 15.1631C10.4388 15.0979 10.403 15.0099 10.4036 14.9184C10.4036 14.7317 10.5483 14.5802 10.7336 14.5734C10.8877 14.5676 11.0305 14.491 11.1207 14.3659C11.2108 14.2407 11.2382 14.081 11.1948 13.9329C11.1335 13.7183 10.9373 13.5705 10.7141 13.5707H10.4501C10.2594 13.569 10.1061 13.4134 10.1073 13.2227C10.1073 13.0337 10.2543 12.8822 10.4418 12.8769C10.5923 12.8715 10.7323 12.799 10.8237 12.6794C10.915 12.5597 10.948 12.4055 10.9136 12.2589C10.8614 12.0383 10.6676 11.8803 10.4411 11.8734C10.2538 11.8685 10.1052 11.7142 10.1073 11.5269C10.1073 11.3349 10.2611 11.1789 10.4501 11.1789H13.6998C13.844 11.1789 13.9811 11.1167 14.0761 11.0082C14.171 10.8997 14.2146 10.7556 14.1956 10.6127L14.1954 10.6111C14.1889 10.5614 14.037 9.38485 14.1048 8.52469C14.1453 8.01019 14.4116 7.69894 14.6478 7.57969C14.7903 7.50769 14.8878 7.51819 14.9073 7.53019C14.9606 7.56694 14.9748 7.70869 14.9913 8.00194C15.0198 8.51194 15.0641 9.28219 15.6806 10.2144C16.2087 11.0211 17.049 11.5712 17.9996 11.7324V15.8837C17.9996 16.0112 18.0131 16.1349 18.0348 16.2557L17.4768 16.2564Z" />
</svg>
