<svg width="24" height="24" viewBox="0 0 24 24" fill="none" xmlns="http://www.w3.org/2000/svg">
<path d="M13.5 15H10.5C10.2236 15 10 15.2236 10 15.5C10 15.7764 10.2236 16 10.5 16H13.5C13.7764 16 14 15.7764 14 15.5C14 15.2236 13.7764 15 13.5 15ZM10 10.3096L10.7236 9.94775C10.9707 9.82422 11.0708 9.52393 10.9473 9.27686C10.8232 9.0293 10.5239 8.93115 10.2764 9.05322L8.27637 10.0532C8.0293 10.1768 7.9292 10.4771 8.05273 10.7241C8.14062 10.8994 8.31689 11.0005 8.50049 11.0005C8.57568 11.0005 8.65186 10.9834 8.72363 10.9478L9.08728 10.7659C9.17633 10.9036 9.32367 11 9.5 11C9.77637 11 10 10.7764 10 10.5V10.3096ZM12 2.99951C7.0376 2.99951 3 7.03711 3 12C3 16.9629 7.0376 21.0005 12 21.0005C16.9624 21.0005 21 16.9629 21 12C21 7.03711 16.9624 2.99951 12 2.99951ZM12 20.0005C7.58887 20.0005 4 16.4116 4 12C4 7.58838 7.58887 3.99951 12 3.99951C16.4111 3.99951 20 7.58838 20 12C20 16.4116 16.4111 20.0005 12 20.0005ZM15.7236 10.0532L13.7236 9.05322C13.4766 8.93115 13.1763 9.0293 13.0527 9.27686C12.9292 9.52393 13.0293 9.82422 13.2764 9.94775L14 10.3096V10.5C14 10.7764 14.2236 11 14.5 11C14.6763 11 14.8237 10.9036 14.9127 10.7659L15.2764 10.9478C15.3481 10.9834 15.4243 11.0005 15.4995 11.0005C15.6831 11.0005 15.8594 10.8994 15.9473 10.7241C16.0708 10.4771 15.9707 10.1768 15.7236 10.0532Z" fill="#212121"/>
</svg>
