<svg  viewBox="0 0 24 24"  xmlns="http://www.w3.org/2000/svg">
<path fill-rule="evenodd" clip-rule="evenodd" d="M18.5 2C17.6046 2 16.7885 2.33827 16.1688 2.8929L16.015 3.04C15.3648 3.69358 14.9998 4.57806 15 5.5C15 7.43 16.57 9 18.5 9C20.43 9 22 7.43 22 5.5C22 3.57 20.43 2 18.5 2ZM18.5 8C17.12 7.99835 16.0016 6.88003 16 5.5C16 4.996 16.152 4.53 16.41 4.136L19.864 7.591C19.5271 7.81129 19.1359 7.95443 18.7136 7.99083L18.5 8ZM20.577 6.89L17.11 3.423C17.5208 3.14667 18.0049 2.99937 18.5 3C19.878 3 21 4.121 21 5.5C21 5.94975 20.8806 6.37194 20.6718 6.73709L20.577 6.89ZM14.5 8H3.5C3.23842 7.99977 3.02088 8.20118 3.001 8.462L2.001 21.462C1.99041 21.6009 2.03824 21.7379 2.13296 21.84C2.22768 21.9421 2.36071 22 2.5 22H15.5C15.6395 22.0007 15.7729 21.9429 15.8677 21.8407C15.9626 21.7384 16.0102 21.601 15.999 21.462L14.999 8.462C14.9791 8.20118 14.7616 7.99977 14.5 8ZM14.037 9L14.96 21H3.04L3.963 9H14.037ZM11.167 10.604C10.8909 10.604 10.667 10.8279 10.667 11.104C10.667 12.547 9.803 13.204 9 13.204C8.197 13.204 7.333 12.547 7.333 11.104C7.333 10.8279 7.10914 10.604 6.833 10.604C6.55686 10.604 6.333 10.8279 6.333 11.104C6.333 13.139 7.675 14.204 9 14.204C10.325 14.204 11.667 13.139 11.667 11.104C11.667 10.8279 11.4431 10.604 11.167 10.604Z" />
</svg>
