<svg width="24" height="24" viewBox="0 0 24 24" fill="none" xmlns="http://www.w3.org/2000/svg">
<path d="M17.007 19.2518C17.0689 18.5639 17.2741 17.396 17.4897 16.8574C17.9472 15.542 17.9917 14.5312 17.9941 12.1851L17.999 6.63184C17.9995 6.00928 17.7246 5.49316 17.2446 5.21533C16.8652 4.99658 16.4096 4.9585 16.0019 5.1001L16.0024 4.54248C16.0024 3.79346 15.5322 2.98682 14.5 2.98682C14.3012 2.98682 14.1235 3.02148 13.9653 3.08154C13.8833 2.71484 13.6591 2.40771 13.3227 2.21289C12.834 1.93018 12.1772 1.93018 11.6855 2.21191C11.3501 2.40527 11.125 2.70947 11.039 3.07373C10.6069 2.91699 10.1123 2.95459 9.71579 3.18359C9.26071 3.4458 8.99997 3.91895 8.99997 4.48047V9.2851C8.978 9.22778 8.9628 9.18915 8.96188 9.18799C8.69626 8.20557 7.85104 7.86475 7.15231 8.03955C6.43649 8.2168 5.83151 8.93018 6.06101 9.95068C6.67477 12.6807 7.00388 14.5669 7.00729 14.5854C7.00784 14.5885 7.0098 14.5908 7.01035 14.5938C7.0397 15.8945 7.61844 16.7269 8.13913 17.4561C8.50186 17.9645 8.8179 18.4235 8.94028 19.0005L8.50046 19C8.36813 19 8.2402 19.0527 8.14645 19.1465C8.0527 19.2402 7.99997 19.3672 7.99997 19.5V21.5C7.99997 21.7764 8.2236 22 8.49997 22C8.77634 22 8.99997 21.7764 8.99997 21.5V20.0005L15.4106 20.0078C17.0005 20.0098 17 20.4609 17 20.7041V21.5C17 21.7764 17.2236 22 17.5 22C17.7763 22 18 21.7764 18 21.5V20.7046C18.0007 19.8895 17.5467 19.4717 17.007 19.2518ZM15.4116 19.0078L9.94296 19.0016C9.81393 18.1255 9.3873 17.4839 8.95309 16.8755C8.46286 16.1885 7.99997 15.5396 7.99997 14.5C7.99997 14.485 7.99277 14.4725 7.99149 14.4578C7.99027 14.4431 7.99521 14.4294 7.99265 14.4146C7.98923 14.3955 7.65622 12.4873 7.03659 9.73096C6.93698 9.28857 7.16599 9.06641 7.39255 9.01025C7.60886 8.95361 7.88669 9.04248 8.01364 9.5C8.01901 9.51416 8.5629 10.9097 9.0126 12.6124L9.01395 12.6121C9.05832 12.8046 9.21396 12.9606 9.42087 12.9937C9.98825 13.0845 10.4424 13.3628 10.7343 13.7983C11.0366 14.249 11.1411 14.8423 11.0132 15.3857C10.9502 15.6543 11.1167 15.9233 11.3857 15.9868C11.4243 15.9956 11.4624 16 11.5005 16C11.727 16 11.9326 15.8447 11.9868 15.6143C12.1797 14.7939 12.0258 13.9287 11.5649 13.2412C11.193 12.6862 10.6527 12.3094 9.99997 12.1147V4.48047C9.99997 4.27734 10.0722 4.13232 10.2153 4.0498C10.3813 3.95508 10.6133 3.95557 10.7812 4.05225C10.9267 4.13623 11 4.28076 11 4.48242V9.5C11 9.77637 11.2236 10 11.5 10C11.7763 10 12 9.77637 12 9.5V3.41357C12 3.25732 12.0591 3.15088 12.1845 3.07861C12.3672 2.97412 12.6401 2.97412 12.8217 3.07861C12.9433 3.14893 13 3.25195 13 3.40332V9.5C13 9.77637 13.2236 10 13.5 10C13.7763 10 14 9.77637 14 9.5V4.52197C14 4.5166 14.0459 3.98682 14.5 3.98682C14.8335 3.98682 15.0024 4.17383 15.0024 4.54248L14.99 6.51904C14.9885 6.55273 14.999 6.58691 14.999 6.62109L15 9.97021C15 10.2466 15.2236 10.4702 15.5 10.4702C15.7758 10.4702 16 10.2466 16 9.97021L16.0014 6.54736C16.0171 6.32764 16.1025 6.16699 16.2519 6.08105C16.4018 5.99463 16.5952 5.99561 16.7441 6.08105C16.9111 6.17773 16.9995 6.36768 16.999 6.63086L16.9941 12.1841C16.9917 14.4541 16.9546 15.353 16.5537 16.5063C16.3148 17.1014 16.1057 18.2466 16.0241 19.0313C15.7787 19.0105 15.5586 19.0081 15.4116 19.0078Z" fill="#212121"/>
</svg>
