<svg viewBox="0 0 24 24" xmlns="http://www.w3.org/2000/svg">
<path d="M3.59558 12H7.38867C7.66504 12 7.88867 11.7764 7.88867 11.5C7.88867 11.2236 7.66504 11 7.38867 11H3.5957L4.74219 9.85351C4.9375 9.6582 4.9375 9.34179 4.74219 9.14648C4.54688 8.95117 4.23047 8.95117 4.03516 9.14648L2.03577 11.1459C1.98779 11.1938 1.95154 11.2501 1.92712 11.3091C1.87659 11.4313 1.87659 11.5687 1.92712 11.6909C1.95154 11.7499 1.98718 11.8055 2.03516 11.8535L4.03467 13.8535C4.13232 13.9512 4.26025 14 4.38818 14C4.51611 14 4.64404 13.9512 4.7417 13.8535C4.93701 13.6582 4.93701 13.3418 4.7417 13.1465L3.59558 12ZM9.16748 19.2402L7.60156 19.6598L9.49805 16.375C9.63623 16.1357 9.5542 15.8301 9.31494 15.6924C9.0752 15.5527 8.76953 15.6357 8.63184 15.875L6.73535 19.1598L6.31543 17.5937C6.24365 17.3281 5.97119 17.1748 5.70312 17.2402C5.43652 17.3125 5.27783 17.5859 5.34961 17.8535L6.08185 20.5842C6.08191 20.5843 6.08215 20.5851 6.08221 20.5853C6.10907 20.6847 6.17139 20.7622 6.2439 20.8252C6.25818 20.8376 6.26874 20.85 6.28424 20.8607C6.3078 20.8769 6.33466 20.8873 6.36035 20.9C6.42395 20.9315 6.49133 20.9551 6.56445 20.9551C6.60742 20.9551 6.65088 20.9492 6.69434 20.9385L9.42627 20.207C9.69287 20.1348 9.85107 19.8613 9.77979 19.5947C9.70898 19.3271 9.43506 19.1768 9.16748 19.2402ZM5.70312 6.71484C5.74658 6.72558 5.79004 6.73144 5.83301 6.73144C6.05371 6.73144 6.25537 6.58398 6.31543 6.36133L6.73535 4.79529L8.63184 8.08008C8.72461 8.24023 8.89258 8.33008 9.06543 8.33008C9.15039 8.33008 9.23633 8.30859 9.31494 8.26269C9.5542 8.125 9.63623 7.81933 9.49805 7.58008L7.60175 4.29565L9.16748 4.71582C9.43555 4.7832 9.70801 4.62793 9.77979 4.3623C9.85156 4.09472 9.69287 3.82129 9.42627 3.74902L6.69434 3.0166C6.69385 3.01648 6.6933 3.01666 6.69281 3.01654C6.6037 2.99512 6.51477 3.00299 6.43195 3.02746C6.42096 3.0307 6.41138 3.03418 6.40063 3.03815C6.32056 3.06775 6.24615 3.11322 6.18939 3.17785C6.18378 3.18426 6.17572 3.18786 6.17041 3.19458C6.13141 3.24396 6.10199 3.302 6.08392 3.36639C6.08356 3.3678 6.0824 3.36871 6.08203 3.37012L5.34961 6.10156C5.27783 6.36914 5.43652 6.64258 5.70312 6.71484ZM14.8975 4.71484L16.4634 4.29529L14.5669 7.58008C14.4287 7.81933 14.5107 8.125 14.75 8.26269C14.8286 8.30859 14.9146 8.33008 14.9995 8.33008C15.1724 8.33008 15.3403 8.24023 15.4331 8.08008L17.3295 4.79547L17.749 6.36133C17.8086 6.58496 18.0107 6.73242 18.2314 6.73242C18.2744 6.73242 18.3179 6.72656 18.3613 6.71582C18.6279 6.64355 18.7861 6.37012 18.7148 6.10351L17.9832 3.37219L17.9829 3.37109C17.9652 3.30499 17.9349 3.24603 17.8956 3.19543C17.8812 3.17706 17.8605 3.16601 17.8439 3.14996C17.7865 3.09454 17.7161 3.05505 17.6406 3.03027C17.6329 3.02771 17.626 3.02478 17.6181 3.02264C17.5404 3.00122 17.457 2.99646 17.3725 3.01666C17.3718 3.01684 17.3713 3.01642 17.3706 3.0166L14.6387 3.74805C14.3721 3.82031 14.2139 4.09375 14.2852 4.36035C14.3564 4.62793 14.6304 4.78222 14.8975 4.71484ZM21.9615 11.3091C21.9371 11.2501 21.9015 11.1945 21.8535 11.1465L19.8535 9.14648C19.6582 8.95117 19.3418 8.95117 19.1465 9.14648C18.9512 9.34179 18.9512 9.6582 19.1465 9.85351L20.293 11H16.5C16.2236 11 16 11.2236 16 11.5C16 11.7764 16.2236 12 16.5 12H20.293L19.1465 13.1465C18.9512 13.3418 18.9512 13.6582 19.1465 13.8535C19.2441 13.9512 19.3721 14 19.5 14C19.6279 14 19.7559 13.9512 19.8535 13.8535L21.8529 11.8541C21.9009 11.8062 21.9371 11.7499 21.9615 11.6909C22.0121 11.5687 22.0121 11.4313 21.9615 11.3091ZM12 9C10.3457 9 9 10.3457 9 12C9 13.6543 10.3457 15 12 15C13.6543 15 15 13.6543 15 12C15 10.3457 13.6543 9 12 9ZM12 14C10.897 14 10 13.1025 10 12C10 10.8975 10.897 10 12 10C13.103 10 14 10.8975 14 12C14 13.1025 13.103 14 12 14ZM18.3613 17.2402C18.0947 17.1758 17.8203 17.3281 17.749 17.5937L17.3295 19.1596L15.4331 15.875C15.2944 15.6357 14.9873 15.5527 14.75 15.6924C14.5107 15.8301 14.4287 16.1357 14.5669 16.375L16.4634 19.6598L14.8975 19.2402C14.6313 19.1768 14.3564 19.3281 14.2852 19.5947C14.2139 19.8613 14.3721 20.1348 14.6387 20.207L17.3706 20.9385C17.4141 20.9492 17.4575 20.9551 17.5005 20.9551C17.5736 20.9551 17.6411 20.9315 17.7048 20.8999C17.7304 20.8873 17.7571 20.8769 17.7806 20.8608C17.7964 20.85 17.807 20.8374 17.8214 20.8248C17.8938 20.7619 17.9561 20.6845 17.9827 20.5853C17.9827 20.5854 17.9828 20.5851 17.9827 20.5853L17.9831 20.5842L18.7148 17.8535C18.7861 17.5859 18.6279 17.3125 18.3613 17.2402Z" />
</svg>
