<svg  viewBox="0 0 24 24"  xmlns="http://www.w3.org/2000/svg">
<path d="M12.0001 2.00146C6.4859 2.00146 2.00006 6.4873 2.00006 12.0015C2.00006 17.5156 6.4859 22.0015 12.0001 22.0015C17.5142 22.0015 22.0001 17.5156 22.0001 12.0015C22.0001 6.4873 17.5142 2.00146 12.0001 2.00146ZM12.0001 3.00146C14.222 3.00146 16.2548 3.81531 17.8265 5.15491L16.5276 6.45325C16.0128 6.54529 14.4124 6.89075 13.5386 7.76514C13.4857 7.81799 13.4459 7.88025 13.3979 7.93689C13.335 7.54211 13.2642 7.21057 13.2121 6.99402L14.8438 5.3623C15.0391 5.16699 15.0391 4.85059 14.8438 4.65527C14.6485 4.45996 14.3321 4.45996 14.1368 4.65527L12.4317 6.36035C12.4002 6.39172 12.3823 6.43005 12.3609 6.4668C12.3563 6.47034 12.3499 6.47034 12.3453 6.47412C12.1839 6.60645 11.0433 7.57983 10.5037 8.7041C10.5009 8.70325 10.4993 8.70056 10.4966 8.69971C10.3365 8.65088 10.1597 8.68311 10.0289 8.79053C9.98615 8.82556 9.86432 8.9303 9.71271 9.07019L5.97626 5.33411C7.5733 3.88977 9.68231 3.00146 12.0001 3.00146ZM9.36285 15.7412C9.99127 15.6885 10.6934 15.7822 11.2213 15.8848C10.6876 16.3994 9.93951 16.9878 9.33063 17.041C8.70563 17.0942 7.98248 17.021 7.43268 16.937C7.98834 16.4019 8.75641 15.7944 9.36285 15.7412ZM6.68805 16.2593C6.57819 15.6816 6.46979 14.895 6.5274 14.2378C6.58063 13.6284 7.20612 12.8994 7.74469 12.3901C7.84918 12.9453 7.95172 13.7051 7.89459 14.3579C7.84137 14.9692 7.22321 15.7246 6.68805 16.2593ZM8.9024 12.0215C8.94415 11.5416 9.3194 10.9794 9.72809 10.4994L10.1624 10.934C10.2021 11.3085 10.2219 11.7004 10.1905 12.062C10.1378 12.6641 9.53766 13.4053 9.00836 13.938C8.9234 13.3867 8.84674 12.6558 8.9024 12.0215ZM9.72858 14.6416C10.2842 14.106 11.0523 13.4985 11.6588 13.4453C11.9952 13.4164 12.3533 13.432 12.6961 13.4673L13.1485 13.9196C12.6685 14.3282 12.1059 14.7032 11.626 14.7451C11.001 14.8008 10.2784 14.7261 9.72858 14.6416ZM11.2147 10.572C11.1985 10.2794 11.1945 9.98267 11.2188 9.70459C11.272 9.09961 11.8531 8.35742 12.3658 7.82373C12.4673 8.375 12.5626 9.11084 12.5069 9.74561C12.4689 10.1785 12.1453 10.6812 11.7715 11.1288L11.2147 10.572ZM13.0784 12.4354L12.5201 11.8773C12.9673 11.504 13.4695 11.1814 13.9019 11.1436C14.5381 11.0898 15.273 11.1836 15.8233 11.2847C15.2901 11.7974 14.5474 12.3784 13.9424 12.4316C13.6651 12.4554 13.3698 12.4513 13.0784 12.4354ZM13.4922 10.1943C13.586 9.64746 13.8018 8.91602 14.2457 8.47217C14.6905 8.02783 15.4942 7.73291 16.1216 7.56641C15.9551 8.19385 15.6607 8.99805 15.2164 9.44238C14.751 9.9082 14.0074 10.1084 13.4922 10.1943ZM3.00006 12.0015C3.00006 9.71594 3.86346 7.63318 5.27228 6.04407L9.01727 9.78882C8.71234 10.1405 8.41327 10.5553 8.19708 10.9983C8.04474 10.9509 7.87982 10.9766 7.75104 11.0718C7.53766 11.2314 5.66071 12.6724 5.53131 14.1509C5.43219 15.2826 5.73492 16.6505 5.85651 17.141L5.16107 17.8365C3.81696 16.2635 3.00006 14.2277 3.00006 12.0015ZM12.0001 21.0015C9.62299 21.0015 7.46442 20.0684 5.85394 18.5577L6.60553 17.806C7.05231 17.8973 7.96967 18.0596 8.87164 18.0596C9.05573 18.0596 9.23932 18.0527 9.41754 18.0371C10.8824 17.9087 12.3936 16.1187 12.5611 15.9146C12.6675 15.7856 12.7017 15.6118 12.6534 15.4517C12.653 15.4507 12.6522 15.4501 12.6518 15.4491C13.0939 15.233 13.5079 14.9343 13.8589 14.6299L17.9581 18.7286C16.3688 20.1377 14.2858 21.0015 12.0001 21.0015ZM18.668 18.0245L14.5776 13.9344C14.7172 13.7831 14.822 13.6613 14.857 13.6187C14.9634 13.4897 14.9976 13.3154 14.9493 13.1558C14.9481 13.1522 14.9448 13.15 14.9437 13.1464C16.0678 12.6067 17.0411 11.4664 17.1734 11.3052C17.1815 11.2953 17.1819 11.282 17.1891 11.2716C17.2149 11.2542 17.2437 11.243 17.2667 11.2202L18.9717 9.51514C19.1671 9.31982 19.1671 9.00342 18.9717 8.80811C18.7764 8.61279 18.46 8.61279 18.2647 8.80811L16.6385 10.4342C16.4351 10.3854 16.1385 10.3212 15.7855 10.2623C15.8304 10.223 15.8809 10.1919 15.9234 10.1494C16.7968 9.27551 17.1425 7.67529 17.2347 7.16028L18.5485 5.84692C20.0638 7.45837 21.0001 9.62036 21.0001 12.0015C21.0001 14.3187 20.112 16.4275 18.668 18.0245Z" />
</svg>
