<svg  viewBox="0 0 24 24"  xmlns="http://www.w3.org/2000/svg">
<path fill-rule="evenodd" clip-rule="evenodd" d="M7.9849 13L6.4999 13.002C6.2239 13.002 5.9999 13.226 5.9999 13.502V15.45C5.9969 15.483 5.9969 15.517 5.9999 15.55V17.502C5.9999 17.778 6.2239 18.002 6.4999 18.002C6.7769 18.002 6.9999 17.778 6.9999 17.502V16H7.9849C8.8119 16 9.4849 15.327 9.4849 14.5C9.4849 13.673 8.8129 13 7.9849 13ZM7.9849 15H6.9999V14.001L7.9849 14C8.2609 14 8.4849 14.224 8.4849 14.5C8.4849 14.776 8.2609 15 7.9849 15Z" />
<path d="M14.9999 13.5V17.502C14.9999 17.778 15.2239 18.002 15.4999 18.002C15.7769 18.002 15.9999 17.778 15.9999 17.502V16H16.9999C17.2769 16 17.4999 15.776 17.4999 15.5C17.4999 15.224 17.2769 15 16.9999 15H15.9999V14H17.4999C17.7769 14 17.9999 13.776 17.9999 13.5C17.9999 13.224 17.7769 13 17.4999 13H15.4999C15.2239 13 14.9999 13.224 14.9999 13.5Z" />
<path fill-rule="evenodd" clip-rule="evenodd" d="M11.6362 13.0019H10.5002C10.2232 13.0019 10.0002 13.2259 10.0002 13.5019V17.5019C10.0002 17.7779 10.2232 18.0019 10.5002 18.0019H11.6362C12.9392 18.0019 14.0402 16.8519 14.0402 15.4919C14.0402 14.1419 12.9392 13.0019 11.6362 13.0019ZM11.6362 17.0019H11.0002V14.0019H11.6362C12.3842 14.0019 13.0402 14.6979 13.0402 15.4919C13.0402 16.2959 12.3842 17.0019 11.6362 17.0019Z" />
<path fill-rule="evenodd" clip-rule="evenodd" d="M16.897 3.19L20.853 7.148C20.947 7.242 21 7.369 21 7.502V20.5C21 20.776 20.776 21 20.5 21H3.5C3.224 21 3 20.776 3 20.5V3.5C3 3.224 3.224 3 3.5 3H16.514C16.664 3.001 16.805 3.071 16.897 3.19ZM4 20H20V8L16.512 7.986C16.236 7.985 16.014 7.761 16.014 7.486V4H4V20ZM17.014 4.722L17.013 4.721H17.014V4.722ZM17.014 4.722V6.988L19.289 6.997L17.014 4.722Z" />
</svg>
