<svg  viewBox="0 0 24 24"  xmlns="http://www.w3.org/2000/svg">
<path d="M16.8533 12.3281C18.2371 11.7098 19.4642 10.2723 19.627 10.0742C19.638 10.0609 19.639 10.0431 19.6483 10.0289C19.6819 10.0085 19.7178 9.99255 19.7471 9.96338L21.8165 7.89453C22.0118 7.69922 22.0118 7.38281 21.8165 7.1875C21.6212 6.99219 21.3047 6.99219 21.1094 7.1875L19.0928 9.20349C18.8099 9.13464 18.3372 9.03235 17.7703 8.94824C17.8892 8.85815 18.0106 8.77124 18.1172 8.66455C19.1729 7.60889 19.5838 5.64343 19.6859 5.06018L21.4542 3.2915C21.6495 3.09619 21.6495 2.77979 21.4542 2.58447C21.2589 2.38916 20.9424 2.38916 20.7471 2.58447L18.9788 4.35315C18.3953 4.4552 16.4297 4.86584 15.3751 5.92188C15.2562 6.04089 15.157 6.17468 15.0587 6.30859C14.971 5.68884 14.8572 5.17175 14.785 4.87769L16.8077 2.85498C17.003 2.65967 17.003 2.34326 16.8077 2.14795C16.6124 1.95264 16.296 1.95264 16.1006 2.14795L14.0313 4.21729C13.9915 4.25696 13.9656 4.30383 13.9422 4.35144C13.9351 4.35657 13.9258 4.35669 13.919 4.3623C13.7205 4.52502 12.2823 5.7533 11.6644 7.13757C11.6336 7.12012 11.6094 7.09338 11.5753 7.08252C11.4141 7.0332 11.2383 7.06543 11.1075 7.17334C10.9105 7.33484 9.49371 8.5448 8.86798 9.91565C8.84381 9.90271 8.82599 9.88098 8.79987 9.87207C8.64166 9.81738 8.47076 9.84619 8.3399 9.94482C8.13287 10.0989 6.64142 11.2587 5.992 12.6198C5.85187 12.5894 5.70441 12.6105 5.58795 12.6968C5.33209 12.8877 3.08893 14.6094 2.93658 16.3569C2.81525 17.7465 3.20026 19.4418 3.33868 19.9933L2.18365 21.1479C1.98834 21.3433 1.98834 21.6597 2.18365 21.855C2.28131 21.9526 2.40924 22.0015 2.53717 22.0015C2.6651 22.0015 2.79303 21.9526 2.89069 21.855L4.08209 20.6637C4.58478 20.7694 5.74249 20.9839 6.88092 20.9839C7.1026 20.9839 7.32233 20.9756 7.53717 20.957C9.27057 20.8057 11.0772 18.6636 11.2774 18.4199C11.3839 18.291 11.419 18.1172 11.3702 17.957C11.3621 17.931 11.3411 17.9132 11.3292 17.8893C12.6829 17.254 13.8704 15.863 14.0303 15.6685C14.1368 15.5391 14.1719 15.3652 14.1231 15.2051C14.1133 15.1732 14.0887 15.151 14.0731 15.1222C15.4439 14.4967 16.6539 13.079 16.8155 12.8823C16.9219 12.7534 16.9571 12.5796 16.9083 12.4194C16.8975 12.3844 16.8709 12.3594 16.8533 12.3281ZM16.0821 6.62891C16.713 5.99756 17.8438 5.63721 18.5801 5.45898C18.4024 6.19531 18.0421 7.32617 17.4102 7.95752C16.7803 8.5874 15.752 8.82959 15.1153 8.92188C15.2178 8.23193 15.4844 7.22607 16.0821 6.62891ZM12.377 8.19141C12.4493 7.37207 13.2794 6.36328 13.9424 5.69775C14.0792 6.38623 14.2286 7.39551 14.1534 8.25879C14.0919 8.9613 13.4485 9.80432 12.8336 10.45C12.7266 10.5526 12.6312 10.6471 12.5394 10.7423C12.4244 10.0499 12.3021 9.04797 12.377 8.19141ZM9.56647 11.002C9.63776 10.1826 10.4678 9.17432 11.1309 8.50879C11.2676 9.19775 11.4171 10.2065 11.3419 11.0698C11.2706 11.8862 10.4141 12.8936 9.72955 13.5586C9.61334 12.8667 9.49127 11.8623 9.56647 11.002ZM6.68463 13.6919C6.7569 12.8682 7.64264 11.8828 8.336 11.25C8.47565 11.9404 8.63287 12.9761 8.55573 13.8555V13.856C8.48346 14.6816 7.60846 15.7026 6.91901 16.3672C6.88287 16.1892 6.84552 15.9889 6.8111 15.7755C6.79132 15.2899 6.73712 14.8143 6.66876 14.3912C6.66144 14.1517 6.6651 13.9156 6.68463 13.6919ZM4.16705 19.1191C4.02155 18.4014 3.85553 17.3267 3.93268 16.4438C4.00494 15.6201 4.89166 14.6348 5.58405 14.0024C5.72272 14.6914 5.88092 15.7261 5.80377 16.6079C5.73151 17.4336 4.85651 18.4546 4.16705 19.1191ZM7.44928 19.9609C6.59869 20.0376 5.6026 19.9165 4.91119 19.8008C5.60358 19.1089 6.64752 18.2432 7.47076 18.1714C8.32037 18.0977 9.2901 18.248 9.95221 18.3867C9.28717 19.0513 8.27252 19.8887 7.44928 19.9609ZM10.2012 17.209C9.3526 17.2822 8.35651 17.1636 7.66412 17.0488C8.35846 16.3569 9.4024 15.4912 10.2227 15.4194C11.0772 15.3457 12.043 15.4956 12.7051 15.6348C12.0391 16.2993 11.0245 17.1367 10.2012 17.209ZM12.9874 14.4233C12.1348 14.498 11.1397 14.3779 10.4483 14.2627C11.1417 13.5713 12.1856 12.7051 13.0089 12.6333C13.8585 12.5596 14.8282 12.709 15.4903 12.8491C14.8253 13.5132 13.8106 14.3511 12.9874 14.4233ZM15.7979 11.6157C14.9405 11.6919 13.9356 11.5684 13.2422 11.4521C13.9073 10.7676 14.9141 9.91113 15.7305 9.83984C16.5899 9.76465 17.6026 9.91357 18.2921 10.0513C17.628 10.7139 16.6202 11.5435 15.7979 11.6157ZM21.314 19.8696C21.3936 19.816 21.4622 19.7606 21.5186 19.7075C21.8301 19.4146 22.002 19.019 22.002 18.5938C22.002 17.8032 21.3819 17.0029 20.1973 17.0029H18.502C18.2256 17.0029 18.002 17.2266 18.002 17.5029V21.4888C18.002 21.7651 18.2256 21.9888 18.502 21.9888C18.7784 21.9888 19.002 21.7651 19.002 21.4888V20.1836H20.1973C20.2542 20.1836 20.2986 20.1722 20.3521 20.1688L21.044 21.7065C21.127 21.8921 21.3096 22.0015 21.5001 22.0015C21.5694 22.0015 21.6387 21.9873 21.7051 21.9575C21.9571 21.8442 22.0694 21.5483 21.9561 21.2964L21.314 19.8696ZM20.834 18.9785C20.6915 19.1128 20.4708 19.1836 20.1973 19.1836H19.002V18.0029H20.1973C20.753 18.0029 21.002 18.2998 21.002 18.5938C21.002 18.7402 20.9424 18.8765 20.834 18.9785Z" />
</svg>
