<?xml version="1.0" encoding="utf-8"?>
<!-- Generator: Adobe Illustrator 27.9.0, SVG Export Plug-In . SVG Version: 6.00 Build 0)  -->
<svg version="1.1" xmlns="http://www.w3.org/2000/svg" xmlns:xlink="http://www.w3.org/1999/xlink" x="0px" y="0px"
	 viewBox="0 0 24 24" style="enable-background:new 0 0 24 24;" xml:space="preserve">
<style type="text/css">
	.st0{fill:#1D1D1B;}
	.st1{fill:#1C1C1C;}
</style>
<g id="hide">
</g>
<g id="show_x5F_views">
	<path class="st1" d="M12,8c-2.2060547,0-4,1.7944336-4,4s1.7939453,4,4,4s4-1.7944336,4-4S14.2060547,8,12,8z M12,15
		c-1.6542969,0-3-1.3457031-3-3s1.3457031-3,3-3s3,1.3457031,3,3S13.6542969,15,12,15z M21.9277344,11.7138672
		C19.6552734,7.9760742,16.2197266,6,11.9921875,6c-4.1845703,0-7.6028442,1.9725952-9.8918457,5.7003784
		c-0.0014648,0.0018921-0.0025635,0.0037842-0.0039673,0.0057373c-0.0072632,0.0119019-0.0158691,0.0217285-0.0231323,0.0336304
		c-0.0119629,0.0195923-0.0135498,0.041626-0.022522,0.0620728c-0.0147705,0.0335083-0.0296021,0.0656128-0.0367432,0.1013794
		c-0.0060425,0.0302124-0.0049438,0.0593262-0.0053711,0.0896606c-0.0005493,0.0336914-0.0018921,0.0662231,0.0045166,0.0998535
		c0.0062256,0.0328369,0.0197754,0.0622559,0.0324097,0.0932617c0.0092163,0.022644,0.0109863,0.0467529,0.0238037,0.0684204
		c0.0075684,0.0128174,0.0166626,0.0234375,0.024292,0.0362549c0.0004883,0.0006714,0.0008545,0.0013428,0.0013428,0.0020142
		C4.3153687,16.0250854,7.7341309,18,11.9873047,18c4.3085938,0,7.7470703-1.9873047,9.9443359-5.746582
		c0.0493164-0.0843506,0.0621338-0.1762695,0.0592041-0.2671509C21.9934692,11.8933105,21.9793701,11.7992554,21.9277344,11.7138672
		z M11.9873047,17c-3.7921753,0-6.8521729-1.7344971-8.8843384-4.9970703C5.222168,8.6918335,8.2062988,7,11.9921875,7
		c3.763916,0,6.8348389,1.7324219,8.9143677,4.9920044C18.8939209,15.2618408,15.821167,17,11.9873047,17z"/>
</g>
</svg>
