<svg width="24" height="24" viewBox="0 0 24 24" fill="none" xmlns="http://www.w3.org/2000/svg">
<path d="M20.5 9H12V4C12 2.9043 11.1362 2.01367 10.0747 2.01367H4.88477C3.80664 2.01367 3.00146 3.01172 3.00146 3.90332V14.5172C3.0014 14.5197 3 14.5219 3 14.5244C3 14.527 3.0014 14.5291 3.00146 14.5317V16.7812C3.00146 18.0811 3.78467 18.9893 4.90576 18.9893H10.0957C10.1196 18.9893 10.1443 18.9836 10.1684 18.9827L10.1423 19.0479C9.48822 19.2094 9 19.7968 9 20.5C9 21.3271 9.67285 22 10.5 22C11.3271 22 12 21.3271 12 20.5C12 20.3239 11.9639 20.1572 11.9079 20H17.0921C17.0361 20.1572 17 20.3239 17 20.5C17 21.3271 17.6729 22 18.5 22C19.3271 22 20 21.3271 20 20.5C20 19.6729 19.3271 19 18.5 19H11.2383L11.5382 18.2504L11.8598 17.4469L11.897 17.4407L20.582 15.9932C20.8232 15.9531 21 15.7441 21 15.5V9.5C21 9.22363 20.7764 9 20.5 9ZM18.5 20C18.7759 20 19 20.2246 19 20.5C19 20.7754 18.7759 21 18.5 21C18.2241 21 18 20.7754 18 20.5C18 20.2246 18.2241 20 18.5 20ZM4.00146 3.90332C4.00146 3.50293 4.40918 3.01367 4.88477 3.01367H10.0747C10.5938 3.01367 11 3.44727 11 4V5.01758H4.00146V3.90332ZM4.00146 6.01758H11V9H10.3267L9.98926 7.39746C9.94043 7.16602 9.73633 7 9.5 7H7.5C7.22363 7 7 7.22363 7 7.5C7 7.77637 7.22363 8 7.5 8H9.09424L10.3625 14.0244H4.00146V6.01758ZM10.0957 17.9893H4.90576C4.34814 17.9893 4.00146 17.5264 4.00146 16.7812V15.0244H10.5731L10.9783 16.9496L10.9795 16.9551L10.9773 16.9606L10.6642 17.7432C10.5316 17.8876 10.3529 17.9893 10.0957 17.9893ZM10.5 21C10.2241 21 10 20.7754 10 20.5C10 20.2246 10.2241 20 10.5 20C10.7759 20 11 20.2246 11 20.5C11 20.7754 10.7759 21 10.5 21ZM20 15.0762L11.8904 16.4281L10.5372 10H20V15.0762ZM7.50079 15.9128C7.15125 15.9128 6.86786 16.1956 6.86786 16.5443C6.86786 16.8931 7.15125 17.1758 7.50079 17.1758C7.85034 17.1758 8.13373 16.8931 8.13373 16.5443C8.13373 16.1956 7.85034 15.9128 7.50079 15.9128Z" fill="#212121"/>
</svg>
