<svg  viewBox="0 0 24 24"  xmlns="http://www.w3.org/2000/svg">
<path fill-rule="evenodd" clip-rule="evenodd" d="M21.0004 17.9824H10.9348C12.784 15.5051 13.3638 12.1988 13.1738 11.6384C13.0939 11.4286 12.894 11.2798 12.6641 11.2688C9.30552 11.2688 6.74663 11.8392 5.00738 12.9479V2.9989H7.00652V9.43082C7.00652 9.70052 7.22642 9.93027 7.5063 9.93027C7.57627 9.93027 7.64624 9.91029 7.71621 9.88132L11.9344 7.94346V9.43082C11.9344 9.70052 12.1643 9.93027 12.4342 9.93027C12.5141 9.93027 12.5941 9.91029 12.6641 9.88132L16.4724 7.97242V9.43082C16.4724 9.70052 16.6923 9.93027 16.9722 9.93027C17.0422 9.93027 17.1221 9.91029 17.1921 9.88132L21.0004 7.97242V17.9824ZM21.7601 6.74478C21.6202 6.64389 21.4302 6.64389 21.2803 6.71481L17.472 8.62171V7.16331C17.472 6.89361 17.2421 6.66386 16.9722 6.66386C16.8922 6.66386 16.8123 6.68384 16.7423 6.71481L12.9339 8.62171V7.16331C12.9339 6.89361 12.714 6.66386 12.4342 6.66386C12.3642 6.66386 12.2942 6.68384 12.2242 6.71481L8.00608 8.65267V2.49945C8.00608 2.22875 7.78618 2.00999 7.5063 2H4.5076C4.22772 2 4.00782 2.22875 4.00782 2.49945V13.7371C3.92785 13.816 3.83789 13.8859 3.75793 13.9658C2.96827 14.7859 2.53846 15.8837 2.55845 17.0225C2.57844 17.2932 2.81834 17.4929 3.08822 17.472H3.09821C3.14819 17.462 3.19817 17.453 3.23815 17.432C3.44806 17.3521 3.56801 17.1423 3.54802 16.9226C3.56801 16.0745 3.90786 15.2454 4.49761 14.6351C5.45719 13.5872 7.56627 12.3476 12.2043 12.2677C12.0643 13.4174 11.2047 16.8926 8.83572 18.7316C7.62625 19.6905 5.92698 19.7804 4.62755 18.9304C5.50717 17.6228 6.67666 16.534 8.04606 15.7349C8.29595 15.615 8.38592 15.3143 8.25597 15.0646C8.13602 14.8149 7.83615 14.725 7.58626 14.8548C6.01694 15.7638 4.67753 17.0225 3.67796 18.5318C3.05823 19.4008 2.50847 20.3298 2.04867 21.2888C1.92872 21.5385 2.03867 21.8372 2.28857 21.957C2.53846 22.0679 2.83833 21.957 2.94828 21.7073H2.95827C3.27814 21.029 3.64797 20.3788 4.0578 19.7594C4.83746 20.2299 5.72707 20.4996 6.64667 20.5186C7.66623 20.5086 8.6558 20.16 9.45545 19.5197C9.66536 19.3499 9.86527 19.1701 10.0552 18.9813H21.5002C21.7801 18.9913 22 18.7605 22 18.4918V18.4819V7.16331C22 6.9945 21.91 6.83368 21.7601 6.74478Z" />
</svg>
