<svg  viewBox="0 0 24 24"  xmlns="http://www.w3.org/2000/svg">
<path d="M16.5029 7.99219H8.50293C8.22656 7.99219 8.00293 7.76855 8.00293 7.49219C8.00293 7.21582 8.22656 6.99219 8.50293 6.99219H16.5029C16.7793 6.99219 17.0029 7.21582 17.0029 7.49219C17.0029 7.76855 16.7793 7.99219 16.5029 7.99219Z" />
<path d="M16.5029 10.9648H8.50293C8.22656 10.9648 8.00293 10.7412 8.00293 10.4648C8.00293 10.1885 8.22656 9.96484 8.50293 9.96484H16.5029C16.7793 9.96484 17.0029 10.1885 17.0029 10.4648C17.0029 10.7412 16.7793 10.9648 16.5029 10.9648Z" />
<path d="M8.50293 13.9922H16.5029C16.7793 13.9922 17.0029 13.7686 17.0029 13.4922C17.0029 13.2158 16.7793 12.9922 16.5029 12.9922H8.50293C8.22656 12.9922 8.00293 13.2158 8.00293 13.4922C8.00293 13.7686 8.22656 13.9922 8.50293 13.9922Z" />
<path fill-rule="evenodd" clip-rule="evenodd" d="M4.5 3H20.5063C20.7827 3 21.0063 3.22363 21.0063 3.5V17.5C21.0063 17.7764 20.7827 18 20.5063 18H11.6743L7.80762 20.9004C7.71973 20.9658 7.61377 21 7.50781 21C7.43164 21 7.35498 20.9824 7.28418 20.9473C7.11475 20.8623 7.00781 20.6895 7.00781 20.5V18H4.5C4.22363 18 4 17.7764 4 17.5V3.5C4 3.22363 4.22363 3 4.5 3ZM11.5078 17H20.0063V4H5V17H7.50781C7.78418 17 8.00781 17.2236 8.00781 17.5V19.5L11.208 17.0996C11.2944 17.0352 11.3994 17 11.5078 17Z" />
</svg>
