<svg  viewBox="0 0 24 24"  xmlns="http://www.w3.org/2000/svg">
<path d="M19.1826 14.8169C18.9873 14.6216 18.6709 14.6216 18.4756 14.8169L13 20.2929V2.5C13 2.22363 12.7764 2 12.5 2C12.2236 2 12 2.22363 12 2.5V20.2929L6.52441 14.8169C6.3291 14.6216 6.0127 14.6216 5.81738 14.8169C5.62207 15.0122 5.62207 15.3286 5.81738 15.5239L12.1459 21.8529C12.1918 21.8989 12.2466 21.9358 12.3076 21.9612C12.3679 21.9864 12.4332 22 12.5 22C12.5668 22 12.6321 21.9864 12.6924 21.9612C12.7534 21.9358 12.8082 21.8989 12.8541 21.8529L19.1826 15.5239C19.3779 15.3286 19.3779 15.0122 19.1826 14.8169Z" />
</svg>
