<svg width="24" height="24" viewBox="0 0 24 24" fill="none" xmlns="http://www.w3.org/2000/svg">
<path d="M16.5 13H14.5C14.2236 13 14 13.2236 14 13.5C14 13.7764 14.2236 14 14.5 14H14.944C14.6792 15.3762 13.3388 16.0054 12 16.0054C10.5684 16.0054 9.34961 15.3291 8.96777 14.3223C8.86914 14.0635 8.57812 13.9341 8.32227 14.0327C8.06445 14.1309 7.93457 14.4194 8.03223 14.6777C8.56152 16.0698 10.1562 17.0054 12 17.0054C13.7838 17.0054 15.6713 16.0504 15.9449 14H16.5C16.7764 14 17 13.7764 17 13.5C17 13.2236 16.7764 13 16.5 13ZM9.5 11C9.77637 11 10 10.7764 10 10.5V9.5C10 9.22363 9.77637 9 9.5 9C9.22363 9 9 9.22363 9 9.5V10.5C9 10.7764 9.22363 11 9.5 11ZM16.5 10H14.5C14.2236 10 14 10.2236 14 10.5C14 10.7764 14.2236 11 14.5 11H16.5C16.7764 11 17 10.7764 17 10.5C17 10.2236 16.7764 10 16.5 10ZM12 2.99951C7.03711 2.99951 3 7.03711 3 12C3 16.9629 7.03711 21.0005 12 21.0005C16.9629 21.0005 21 16.9629 21 12C21 7.03711 16.9629 2.99951 12 2.99951ZM12 20.0005C7.58887 20.0005 4 16.4116 4 12C4 7.58838 7.58887 3.99951 12 3.99951C16.4111 3.99951 20 7.58838 20 12C20 16.4116 16.4111 20.0005 12 20.0005Z" fill="#212121"/>
</svg>
