<svg  viewBox="0 0 24 24"  xmlns="http://www.w3.org/2000/svg">
<path d="M12.0001 2.00146C6.48639 2.00146 2.00006 6.4873 2.00006 12.0015C2.00006 17.5156 6.48639 22.0015 12.0001 22.0015C17.5137 22.0015 22.0001 17.5156 22.0001 12.0015C22.0001 6.4873 17.5137 2.00146 12.0001 2.00146ZM12.0001 21.0015C7.03717 21.0015 3.00006 16.9639 3.00006 12.0015C3.00006 9.71594 3.86334 7.63318 5.27203 6.04407L9.03546 9.80676C9.0108 9.98059 8.99811 10.2086 9.00006 10.5015V17.5015C9.00006 17.7778 9.22369 18.0015 9.50006 18.0015H14.5001C14.7764 18.0015 15.0001 17.7778 15.0001 17.5015V15.7709L17.9581 18.7286C16.369 20.1378 14.2859 21.0015 12.0001 21.0015ZM11.0001 7.65674V7H13.002V7.66602C12.9903 7.66943 12.9796 7.67334 12.9688 7.67725C12.7725 7.75 12.6426 7.93701 12.6426 8.146C12.6426 9.30469 13.2999 9.58008 13.6924 9.74414C13.9083 9.83447 13.9561 9.86426 13.9698 9.89893C13.9883 9.97266 14.002 10.2524 14.0001 10.5015V13.3571L11.6536 11.0107H12.5557C12.8321 11.0107 13.0557 10.7871 13.0557 10.5107C13.0557 10.2344 12.8321 10.0107 12.5557 10.0107H10.6534L10.3611 9.71838C10.7562 9.54822 11.3594 9.24756 11.3594 8.13672C11.3594 7.90918 11.2081 7.71729 11.0001 7.65674ZM14.0001 14.771V17.0015H10.0001V11.0107H10.2393L14.0001 14.771ZM18.668 18.0245L15.0001 14.3568V10.5054C15.004 10.0425 14.9737 9.7251 14.9112 9.56348C14.7325 9.0957 14.3389 8.93115 14.0792 8.82178C13.8477 8.7251 13.7217 8.67285 13.671 8.46143C13.8721 8.30371 14.002 8.05322 14.002 7.77197V6.86426C14.002 6.3877 13.628 6 13.169 6H10.8331C10.3741 6 10.0001 6.3877 10.0001 6.86426V7.77197C10.0001 8.04785 10.1299 8.29883 10.3301 8.4585C10.2774 8.66797 10.1505 8.72168 9.91901 8.82031C9.82892 8.85852 9.72247 8.91028 9.61481 8.97229L5.97614 5.33398C7.57306 3.88977 9.68219 3.00146 12.0001 3.00146C16.963 3.00146 21.0001 7.03906 21.0001 12.0015C21.0001 14.3188 20.1121 16.4276 18.668 18.0245Z" />
</svg>
