<svg viewBox="0 0 24 24" xmlns="http://www.w3.org/2000/svg">
<path d="M13.9992 11.008C13.9992 11.0053 14 11.0027 14 11C14 10.9983 13.9995 10.9967 13.9995 10.995C16.3021 10.9056 20.1187 10.1322 21.4434 8.8076C22.023 8.22801 22.0474 7.65477 21.9654 7.27537C21.6587 5.85691 19.2964 4.78709 18.5283 4.47361C18.2144 3.70506 17.1421 1.34129 15.7222 1.03465C15.3428 0.952128 14.7696 0.977031 14.19 1.55613C13.1206 2.62449 12.563 4.91893 12.2832 6.65525C12.2498 6.86186 12.0757 7.97569 12.0196 9.00193C12.0129 9.00187 12.0067 8.99998 12 8.99998C11.9972 8.99998 11.9944 9.00083 11.9915 9.00083C11.9037 6.69956 11.1338 2.8831 9.80764 1.55662C9.22903 0.978007 8.65725 0.952617 8.27542 1.03465C6.85647 1.34129 5.78518 3.70457 5.47122 4.47312C4.70364 4.7866 2.34133 5.85789 2.03469 7.27732C1.95266 7.65672 1.97659 8.23045 2.55618 8.81004C3.62454 9.87937 5.91897 10.437 7.6553 10.7168C7.8619 10.7503 8.97561 10.9228 10.0022 10.9789C10.0021 10.9861 10 10.9928 10 11C10 11.0066 10.0019 11.0127 10.002 11.0193C8.97573 11.0757 7.86184 11.25 7.6553 11.2832C5.91897 11.563 3.62454 12.1206 2.55618 13.1899C1.97659 13.7695 1.95266 14.3432 2.03469 14.7226C2.34133 16.1421 4.70364 17.2134 5.47122 17.5268C5.78518 18.2954 6.85647 20.6587 8.27542 20.9653C8.37112 20.9858 8.47903 20.9995 8.59573 20.9995C8.94387 20.9995 9.37405 20.8769 9.80764 20.4433C10.5821 19.6684 11.1652 18.0406 11.5362 16.3628C11.6267 20.0368 11.9494 21.3451 13.1079 22.81C13.2066 22.935 13.3526 23 13.5005 23C13.6089 23 13.7183 22.9648 13.8101 22.8921C14.0269 22.7207 14.0635 22.4062 13.8921 22.1899C12.9306 20.9739 12.6332 19.8996 12.5412 16.6874C12.8657 18.1262 13.3811 19.6352 14.19 20.4433C14.6236 20.8769 15.0537 20.9995 15.4024 20.9995C15.5196 20.9995 15.627 20.9858 15.7227 20.9648C17.1426 20.6587 18.2144 18.2973 18.5283 17.5293C19.2964 17.2158 21.6592 16.144 21.9654 14.7246C22.0474 14.3452 22.023 13.7715 21.4434 13.1924C20.1167 11.8663 16.3004 11.0959 13.9992 11.008ZM9.10061 19.7363C8.81692 20.02 8.61233 20.0141 8.48684 19.9878C7.71975 19.8227 6.76077 18.1211 6.32473 16.9653L6.24465 16.7534L6.03323 16.6738C4.87844 16.2378 3.17727 15.2783 3.01223 14.5112C2.9844 14.3828 2.98049 14.1797 3.26321 13.897C4.50119 12.6585 8.42526 12.0979 10.2799 12.0101L9.14602 13.147C8.9512 13.3423 8.9512 13.6592 9.147 13.854C9.24465 13.9512 9.3721 14 9.50003 14C9.62844 14 9.75637 13.9512 9.85403 13.853L10.9884 12.7156C10.9893 12.7162 10.9904 12.7166 10.9914 12.7171C10.9068 14.5674 10.3493 18.4872 9.10061 19.7363ZM10.9866 9.28538L9.89456 8.18992C9.69973 7.99363 9.38333 7.99461 9.18753 8.18894C8.99221 8.38377 8.99172 8.70018 9.18655 8.89598L10.2786 9.99137C8.42434 9.90495 4.50033 9.34056 3.26321 8.10301C2.98049 7.82029 2.9844 7.61717 3.01223 7.48875C3.17727 6.72166 4.87844 5.76219 6.03323 5.32615L6.24514 5.24607L6.32473 5.03465C6.76077 3.87889 7.71975 2.17723 8.48684 2.01219C8.51858 2.00535 8.55422 1.99998 8.59524 1.99998C8.71975 1.99998 8.88723 2.05027 9.10061 2.26365C10.3493 3.51274 10.9068 7.4326 10.9914 9.28282C10.9898 9.28373 10.9881 9.28453 10.9866 9.28538ZM12 12C11.4488 12 11 11.5512 11 11C11 10.4487 11.4488 9.99998 12 9.99998C12.5513 9.99998 13 10.4487 13 11C13 11.5512 12.5513 12 12 12ZM13.0095 9.28331C13.0969 7.42936 13.6581 3.50163 14.897 2.26316C15.1792 1.97996 15.3848 1.98338 15.5108 2.01219C16.2783 2.17771 17.2388 3.87986 17.6753 5.03562L17.7554 5.24754L17.9668 5.32713C19.1221 5.76268 20.8228 6.72068 20.9878 7.4868C21.0156 7.61473 21.0196 7.81736 20.7364 8.10057C19.4872 9.34928 15.5687 9.90892 13.7177 9.99217C13.7174 9.99156 13.717 9.99095 13.7167 9.9904L14.813 8.89451C15.0083 8.6992 15.0083 8.38279 14.813 8.18748C14.6177 7.99217 14.3013 7.99217 14.106 8.18748L13.0095 9.28331C13.0096 9.28335 13.0095 9.28331 13.0095 9.28331ZM20.9878 14.5137C20.8228 15.2807 19.1216 16.2397 17.9668 16.6762L17.7554 16.7563L17.6753 16.9673C17.2388 18.1221 16.2788 19.8222 15.5117 19.9878C15.3823 20.0156 15.1802 20.02 14.897 19.7363C13.6587 18.4988 13.0975 14.5741 13.0097 12.7192L14.106 13.8154C14.2036 13.9131 14.3316 13.9619 14.4595 13.9619C14.5874 13.9619 14.7154 13.9131 14.813 13.8154C15.0083 13.6201 15.0083 13.3037 14.813 13.1084L13.7158 12.0112C13.7165 12.0102 13.7168 12.0092 13.7174 12.0082C15.5678 12.0921 19.4869 12.6504 20.7364 13.8994C21.0196 14.1826 21.0156 14.3852 20.9878 14.5137Z"/>
</svg>
