<svg  viewBox="0 0 24 24"  xmlns="http://www.w3.org/2000/svg">
<path d="M21.853 7.1875C21.6569 6.99219 21.3393 6.99219 21.1433 7.1875L19.1192 9.20349C18.8352 9.13464 18.3608 9.03235 17.7918 8.94824C17.9111 8.85815 18.0329 8.77124 18.14 8.66455C19.1996 7.60889 19.612 5.64343 19.7144 5.06018L21.4893 3.2915C21.6854 3.09619 21.6854 2.77979 21.4893 2.58447C21.2933 2.38916 20.9757 2.38916 20.7797 2.58447L19.0048 4.35315C18.4191 4.4552 16.4462 4.86584 15.3876 5.92188C15.2682 6.04089 15.1687 6.17468 15.07 6.30859C14.982 5.68884 14.8678 5.17175 14.7953 4.87769L16.8255 2.85498C17.0216 2.65967 17.0216 2.34326 16.8255 2.14795C16.6295 1.95264 16.3119 1.95264 16.1159 2.14795L14.0388 4.21729C13.9989 4.25696 13.9729 4.30383 13.9494 4.35144C13.9423 4.35657 13.933 4.35669 13.9261 4.3623C13.7269 4.52502 12.2833 5.7533 11.6631 7.13757C11.6322 7.12012 11.6079 7.09338 11.5736 7.08252C11.4119 7.0332 11.2354 7.06543 11.1041 7.17334C10.9063 7.33484 9.48432 8.5448 8.85625 9.91565C8.83199 9.90271 8.81411 9.88098 8.78789 9.87207C8.62909 9.81738 8.45756 9.84619 8.32621 9.94482C8.11841 10.0989 6.6214 11.2587 5.96956 12.6198C5.82891 12.5894 5.6809 12.6105 5.56401 12.6968C5.30719 12.8877 3.05568 14.6094 2.90276 16.3569C2.78097 17.7465 3.16742 19.4418 3.30636 19.9933L2.14703 21.1479C1.95099 21.3433 1.95099 21.6597 2.14703 21.855C2.24505 21.9526 2.37346 22.0015 2.50186 22.0015C2.63027 22.0015 2.75867 21.9526 2.85669 21.855L4.05254 20.6637C4.5571 20.7694 5.71912 20.9839 6.86179 20.9839C7.0843 20.9839 7.30484 20.9756 7.52049 20.957C9.26034 20.8057 11.0737 18.6636 11.2747 18.4199C11.3815 18.291 11.4168 18.1172 11.3678 17.957C11.3597 17.931 11.3386 17.9132 11.3266 17.8893C12.6854 17.254 13.8773 15.863 14.0378 15.6685C14.1447 15.5391 14.18 15.3652 14.131 15.2051C14.1212 15.1732 14.0964 15.151 14.0807 15.1222C15.4567 14.4967 16.6711 13.079 16.8334 12.8823C16.9402 12.7534 16.9755 12.5796 16.9265 12.4194C16.9157 12.3844 16.889 12.3594 16.8713 12.3281C18.2603 11.7098 19.4919 10.2723 19.6554 10.0742C19.6664 10.0609 19.6674 10.0431 19.6767 10.0289C19.7105 10.0085 19.7465 9.99255 19.7759 9.96338L21.853 7.89453C22.049 7.69922 22.049 7.38281 21.853 7.1875ZM16.0972 6.62891C16.7304 5.99756 17.8655 5.63721 18.6046 5.45898C18.4262 6.19531 18.0645 7.32617 17.4303 7.95752C16.7981 8.5874 15.7659 8.82959 15.1268 8.92188C15.2298 8.23193 15.4974 7.22607 16.0972 6.62891ZM12.3784 8.19141C12.4509 7.37207 13.2841 6.36328 13.9496 5.69775C14.0868 6.38623 14.2368 7.39551 14.1613 8.25879C14.0996 8.9613 13.4539 9.80432 12.8366 10.45C12.7293 10.5526 12.6335 10.6471 12.5413 10.7423C12.4259 10.0499 12.3031 9.04797 12.3784 8.19141ZM9.55734 11.002C9.6289 10.1826 10.4621 9.17432 11.1276 8.50879C11.2649 9.19775 11.4148 10.2065 11.3393 11.0698C11.2678 11.8862 10.4082 12.8936 9.72104 13.5586C9.60439 12.8667 9.48187 11.8623 9.55734 11.002ZM6.66477 13.6919C6.73731 12.8682 7.62635 11.8828 8.32229 11.25C8.46246 11.9404 8.62027 12.9761 8.54284 13.8555V13.856C8.4703 14.6816 7.59204 15.7026 6.90002 16.3672C6.86375 16.1892 6.82626 15.9889 6.79171 15.7755C6.77186 15.2899 6.71746 14.8143 6.64884 14.3912C6.64149 14.1517 6.64517 13.9156 6.66477 13.6919ZM4.13782 19.1191C3.99177 18.4014 3.82513 17.3267 3.90257 16.4438C3.9751 15.6201 4.86512 14.6348 5.56009 14.0024C5.69927 14.6914 5.85807 15.7261 5.78063 16.6079C5.7081 17.4336 4.82984 18.4546 4.13782 19.1191ZM7.43227 19.9609C6.57851 20.0376 5.57871 19.9165 4.88473 19.8008C5.57969 19.1089 6.62752 18.2432 7.45383 18.1714C8.30661 18.0977 9.27995 18.248 9.94452 18.3867C9.277 19.0513 8.25858 19.8887 7.43227 19.9609ZM10.1945 17.209C9.34268 17.2822 8.34287 17.1636 7.64791 17.0488C8.34483 16.3569 9.39267 15.4912 10.216 15.4194C11.0737 15.3457 12.0431 15.4956 12.7077 15.6348C12.0392 16.2993 11.0208 17.1367 10.1945 17.209ZM12.991 14.4233C12.1353 14.498 11.1364 14.3779 10.4425 14.2627C11.1384 13.5713 12.1862 12.7051 13.0125 12.6333C13.8653 12.5596 14.8387 12.709 15.5032 12.8491C14.8357 13.5132 13.8173 14.3511 12.991 14.4233ZM15.812 11.6157C14.9514 11.6919 13.9428 11.5684 13.2468 11.4521C13.9143 10.7676 14.9249 9.91113 15.7444 9.83984C16.6069 9.76465 17.6234 9.91357 18.3154 10.0513C17.6489 10.7139 16.6373 11.5435 15.812 11.6157Z" />
</svg>
