<svg width="24" height="24" viewBox="0 0 24 24" fill="none" xmlns="http://www.w3.org/2000/svg">
<path d="M22.5322 12.1885L21.832 11.4873C21.2285 10.8853 20.4414 10.8652 19.8711 11.436L17.0067 14.3005L16.0537 13.3472C16.3066 12.8911 16.5068 12.4116 16.6494 11.9136H18.5C18.7764 11.9136 19 11.6899 19 11.4136V8.58594C19 8.30957 18.7764 8.08594 18.5 8.08594H16.6494C16.5068 7.58838 16.3066 7.1084 16.0537 6.65234L17.3633 5.34277C17.5586 5.14746 17.5586 4.83105 17.3633 4.63574L15.3643 2.63623C15.2705 2.54248 15.1436 2.48975 15.0107 2.48975C14.8779 2.48975 14.751 2.54248 14.6572 2.63623L13.3477 3.9458C12.8916 3.69287 12.4111 3.49365 11.9141 3.35059V1.5C11.9141 1.22363 11.6904 1 11.4141 1H8.58594C8.30957 1 8.08594 1.22363 8.08594 1.5V3.3501C7.58789 3.49365 7.1084 3.69287 6.65234 3.9458L5.34277 2.63623C5.15527 2.44873 4.82324 2.44873 4.63574 2.63623L2.63672 4.63574C2.44141 4.83105 2.44141 5.14746 2.63672 5.34277L3.94629 6.65186C3.69336 7.10742 3.49316 7.5874 3.35059 8.08594H1.5C1.22363 8.08594 1 8.30957 1 8.58594V11.4136C1 11.6899 1.22363 11.9136 1.5 11.9136H3.35059C3.49414 12.4126 3.69336 12.8926 3.94629 13.3477L2.63672 14.6572C2.44141 14.8525 2.44141 15.1689 2.63672 15.3643L4.63574 17.3633C4.83105 17.5586 5.14746 17.5586 5.34277 17.3633L6.65234 16.0537C7.1084 16.3071 7.58789 16.5063 8.08594 16.6494V18.5C8.08594 18.7764 8.30957 19 8.58594 19H11.4141C11.6904 19 11.9141 18.7764 11.9141 18.5V16.6494C12.4111 16.5063 12.8906 16.3071 13.3477 16.0537L14.3005 17.0066L12.8301 18.4771C12.7881 18.519 12.7539 18.5684 12.7295 18.6221L11.0459 22.2954C10.959 22.4854 10.998 22.7085 11.1455 22.8564C11.2412 22.9531 11.3701 23.0039 11.5 23.0039C11.5693 23.0039 11.6396 22.9893 11.7061 22.9595L12.9504 22.3972C12.9515 22.3968 12.9524 22.3963 12.9534 22.3959L15.3955 21.2925C15.4502 21.2676 15.5 21.2329 15.543 21.1904L22.585 14.1494C23.1553 13.5786 23.1348 12.7905 22.5322 12.1885ZM13.7803 15.0723C13.6143 14.9062 13.3594 14.8779 13.1592 15.0029C12.583 15.3677 11.959 15.627 11.3047 15.7739C11.0762 15.8252 10.9141 16.0278 10.9141 16.2617V18H9.08594V16.2617C9.08594 16.0278 8.92383 15.8252 8.69531 15.7739C8.04004 15.6265 7.41504 15.3672 6.84082 15.0034C6.64453 14.8789 6.38672 14.9058 6.21973 15.0723L4.98926 16.3027L3.69727 15.0107L4.92773 13.7798C5.09375 13.6143 5.12207 13.356 4.99609 13.1582C4.63281 12.5859 4.37402 11.9624 4.22656 11.3037C4.1748 11.0757 3.97266 10.9136 3.73828 10.9136H2V9.08594H3.73828C3.97266 9.08594 4.1748 8.92383 4.22656 8.6958C4.37402 8.03809 4.63281 7.41406 4.99609 6.84082C5.12207 6.64355 5.09375 6.38525 4.92773 6.21973L3.69727 4.98926L4.98926 3.69678L6.21973 4.92725C6.38672 5.09277 6.64453 5.12061 6.84082 4.99609C7.41504 4.63281 8.03906 4.37354 8.69531 4.22607C8.92383 4.1748 9.08594 3.97217 9.08594 3.73828V2H10.9141V3.73828C10.9141 3.97217 11.0762 4.1748 11.3047 4.22607C11.96 4.37354 12.584 4.63281 13.1592 4.99658C13.3594 5.12109 13.6143 5.09326 13.7803 4.92725L15.0107 3.69678L16.3027 4.98926L15.0723 6.21973C14.9072 6.38525 14.8779 6.64307 15.0029 6.84033C15.3672 7.41602 15.627 8.04053 15.7734 8.6958C15.8252 8.92383 16.0273 9.08594 16.2617 9.08594H18V10.9136H16.2617C16.0273 10.9136 15.8252 11.0757 15.7734 11.3037C15.626 11.96 15.3672 12.584 15.0029 13.1587C14.8779 13.3564 14.9072 13.6143 15.0723 13.7798L16.2996 15.0076L15.0076 16.2996L13.7803 15.0723ZM12.8723 21.3352L12.6757 21.1386L13.3888 19.5828L14.435 20.6292L12.8723 21.3352ZM15.2696 20.0498L13.9706 18.7505L19.2512 13.47L20.5505 14.7697L15.2696 20.0498ZM21.8779 13.4424L21.2576 14.0627L19.9582 12.763L20.5781 12.1431C20.6699 12.0488 20.8252 11.8965 21.125 12.1948L21.8252 12.8955C22.125 13.1953 21.9707 13.3501 21.8779 13.4424ZM10 6C7.79395 6 6 7.79443 6 10C6 12.2056 7.79395 14 10 14C12.2061 14 14 12.2056 14 10C14 7.79443 12.2061 6 10 6ZM10 13C8.3457 13 7 11.6543 7 10C7 8.3457 8.3457 7 10 7C11.6543 7 13 8.3457 13 10C13 11.6543 11.6543 13 10 13Z" fill="#212121"/>
</svg>
