<svg  viewBox="0 0 24 24"  xmlns="http://www.w3.org/2000/svg">
<path d="M17.3301 8.18265L17.5996 10.7461C17.6 10.7496 17.6012 10.7527 17.6024 10.7558C17.6035 10.7586 17.6047 10.7615 17.6051 10.7646C17.6053 10.7706 17.6043 10.7763 17.6032 10.782C17.602 10.7888 17.6008 10.7956 17.6016 10.8028C17.6275 11.0498 17.5513 11.295 17.3867 11.4912C17.2178 11.6924 16.9776 11.8184 16.709 11.8467C16.4409 11.877 16.1797 11.8008 15.9736 11.6397C15.772 11.4825 15.6465 11.2588 15.6201 11.0108C15.6194 11.0036 15.6167 10.9972 15.6141 10.9909C15.6118 10.9854 15.6096 10.98 15.6085 10.9741C15.6083 10.9708 15.6089 10.9677 15.6095 10.9645C15.6101 10.9612 15.6107 10.9578 15.6104 10.9541L15.3408 8.39066C15.312 8.11624 15.0596 7.91507 14.7915 7.94632C14.5166 7.97464 14.3174 8.22074 14.3467 8.49613L14.6162 11.0596C14.617 11.0671 14.6196 11.0738 14.6222 11.0806C14.6243 11.0861 14.6264 11.0916 14.6276 11.0976C14.6278 11.1004 14.6273 11.103 14.6268 11.1057C14.6262 11.1085 14.6257 11.1113 14.626 11.1143C14.6807 11.6348 14.9404 12.1016 15.3574 12.4278C15.7124 12.7051 16.1455 12.8526 16.5952 12.8526C16.6675 12.8526 16.7407 12.8487 16.814 12.8409C17.3408 12.7862 17.8164 12.5352 18.1528 12.1338C18.4932 11.7276 18.6504 11.2178 18.5957 10.6973L18.5947 10.6928L18.5929 10.6882C18.5917 10.6855 18.5905 10.6828 18.5901 10.6797C18.5899 10.6736 18.591 10.6677 18.5921 10.6619C18.5933 10.655 18.5946 10.648 18.5938 10.6407L18.3242 8.07718C18.2949 7.80179 18.0425 7.59964 17.7749 7.63284C17.5 7.66116 17.3008 7.90726 17.3301 8.18265Z" />
<path d="M11.7275 12.3028L13.3027 12.1377C13.5806 12.1026 13.8232 12.3076 13.8521 12.5821C13.8809 12.8575 13.6816 13.1035 13.4072 13.1319L11.335 13.3496C11.3174 13.3516 11.3003 13.3526 11.2827 13.3526C11.1685 13.3526 11.0576 13.3135 10.9683 13.2412C10.8652 13.1573 10.7993 13.0371 10.7857 12.9053L10.3677 8.92777C10.3389 8.65238 10.5376 8.40628 10.8125 8.37796L12.752 8.17386C13.023 8.14066 13.2725 8.34281 13.3013 8.6182C13.3306 8.89359 13.1314 9.13968 12.8565 9.168L11.4141 9.32034L11.5201 10.3297L12.8565 10.1895C13.1328 10.1592 13.3774 10.3594 13.4058 10.6348C13.4346 10.9092 13.2354 11.1553 12.9609 11.1836L11.6246 11.3239L11.7275 12.3028Z" />
<path d="M8.38038 9.12992C8.35157 8.85551 8.55079 8.60941 8.8252 8.58109C9.09327 8.54594 9.34571 8.75004 9.37452 9.0264L9.79249 13.0049C9.80665 13.1368 9.7671 13.2686 9.6836 13.3721C9.59962 13.4756 9.47804 13.5411 9.34571 13.5537L9.21095 13.5674C9.04591 13.586 8.88136 13.5176 8.77491 13.3887L6.53028 10.6661L6.80909 13.3174C6.83839 13.5928 6.63917 13.8389 6.36427 13.8672C6.34669 13.8692 6.32911 13.8702 6.31153 13.8702C6.0586 13.8702 5.84181 13.6797 5.81495 13.4229L5.39649 9.44437C5.38233 9.31156 5.4214 9.17972 5.50489 9.07719C5.58888 8.97367 5.70948 8.90824 5.84181 8.89457L6.05714 8.87211C6.22071 8.85258 6.3877 8.92191 6.49464 9.05082L8.646 11.6602L8.38038 9.12992Z" />
<path fill-rule="evenodd" clip-rule="evenodd" d="M2.50001 10.9746C2.50001 5.71875 6.76172 1.44141 12 1.44141C17.2383 1.44141 21.5 5.71875 21.5 10.9756V11.1113C21.5 21.3633 9.49708 22.5459 9.37549 22.5566C9.36085 22.5576 9.3462 22.5586 9.33155 22.5586C9.19922 22.5586 9.07178 22.5059 8.97754 22.4111C8.87256 22.3066 8.81983 22.1602 8.8335 22.0127L9.0171 20.0283C5.15528 18.7393 2.49561 15.0752 2.50001 10.9746ZM14.9629 19.8447C18.6372 17.9482 20.5 15.0107 20.5 11.1113V11.0312C20.5 6.26953 16.687 2.44141 12 2.44141C7.31299 2.44141 3.50001 6.26953 3.50001 10.9756C3.4961 14.7705 6.04102 18.1484 9.68946 19.1904C9.9209 19.2559 10.0723 19.4775 10.0503 19.7168L9.88721 21.4795C10.874 21.3223 12.9321 20.8926 14.9629 19.8447Z" />
</svg>
