<svg  viewBox="0 0 24 24"  xmlns="http://www.w3.org/2000/svg">
<path d="M13.6401 15.4593C13.9638 14.2209 15.1239 9.61856 14.966 7.83477C14.9426 7.57061 14.7924 6.23179 14.1285 5.84286C13.8273 5.66668 13.4322 5.52912 12.985 5.41909V3.50054C12.985 3.22468 12.7618 3.00146 12.4859 3.00146H6.49624C6.22035 3.00146 5.9971 3.22468 5.9971 3.50054V5.48574C5.56536 5.58224 5.18637 5.69214 4.90134 5.81606C4.28766 6.08217 4.0805 7.08031 4.01469 7.86986C3.86554 9.64098 5.00858 14.2014 5.33321 15.45C5.38829 15.8331 5.61495 16.9755 6.37292 16.9755H12.5522C13.3067 16.9755 13.5753 15.8204 13.6401 15.4593ZM6.99538 3.99961H11.9867V5.23377C10.436 5.02834 8.52813 5.08329 6.99538 5.30456V3.99961ZM12.676 15.1863L12.5941 15.5095C12.5853 15.5446 12.5804 15.5797 12.579 15.6147C12.5327 15.7556 12.4747 15.8955 12.4225 15.9774H6.51671C6.47674 15.9018 6.43336 15.7829 6.39632 15.6552C6.39827 15.6099 6.39437 15.5641 6.38364 15.5178L6.30175 15.1703C6.29347 15.1357 6.28177 15.1025 6.26714 15.0713C5.91716 13.7091 4.87941 9.49769 5.00907 7.9532C5.06512 7.28111 5.22988 6.80251 5.29909 6.73135C7.08117 5.95545 12.1037 5.81411 13.6148 6.69821C13.7366 6.80007 13.9228 7.36884 13.9716 7.9225C14.111 9.49575 13.0299 13.8324 12.694 15.1308C12.6872 15.1488 12.6809 15.1673 12.676 15.1863ZM13.4948 17.8729C13.1846 17.8665 12.9282 18.1127 12.9218 18.4226C12.9153 18.7327 13.1616 18.9892 13.4716 18.9956C13.7817 19.002 14.0381 18.7558 14.0446 18.4458C14.051 18.1358 13.8049 17.8793 13.4948 17.8729ZM13.4948 19.8787C13.1846 19.8723 12.9282 20.1185 12.9218 20.4284C12.9153 20.7384 13.1616 20.995 13.4716 21.0013C13.7817 21.0077 14.0381 20.7616 14.0446 20.4516C14.051 20.1415 13.8049 19.885 13.4948 19.8787ZM19.149 16.0038C19.4143 16.1644 19.7597 16.0795 19.9202 15.8142C20.0807 15.5488 19.9958 15.2038 19.7304 15.0432C19.4651 14.8826 19.1199 14.9676 18.9593 15.2328C18.7988 15.4981 18.8838 15.8433 19.149 16.0038ZM19.149 18.0413C19.4143 18.2019 19.7597 18.1171 19.9202 17.8517C20.0807 17.5863 19.9958 17.2412 19.7304 17.0807C19.4651 16.9201 19.1199 17.0051 18.9593 17.2702C18.7988 17.5356 18.8838 17.8808 19.149 18.0413ZM10.2822 10.1883C10.1296 10.141 9.44817 9.92756 8.9617 9.76039C8.81742 9.71068 8.6629 9.50744 8.67509 9.41825C8.73699 8.97182 9.27903 8.95037 9.39796 8.96353C9.84055 8.97328 10.2208 9.11169 10.2247 9.11316C10.4845 9.20819 10.7706 9.0766 10.8656 8.81878C10.9617 8.56096 10.8315 8.27487 10.5741 8.17788C10.5522 8.17008 10.038 7.97952 9.42087 7.96539C8.50156 7.95564 7.79868 8.47274 7.68656 9.28179C7.60029 9.90709 8.10869 10.5222 8.63707 10.7039C9.13426 10.875 9.83129 11.0934 9.98776 11.1421C10.1735 11.1991 10.3753 11.3059 10.2866 11.6275C10.2217 11.8615 9.89807 11.9887 9.44134 11.9575C8.87786 11.92 8.67265 11.8122 8.68435 11.8264C8.48206 11.6446 8.16962 11.6573 7.98244 11.8576C7.79526 12.0598 7.80794 12.3756 8.01022 12.5628C8.11551 12.6598 8.45915 12.8928 9.37554 12.9537C9.44378 12.9581 9.51056 12.9605 9.5749 12.9605C10.5868 12.96 11.103 12.4215 11.2488 11.8931C11.4267 11.2474 11.1966 10.47 10.2822 10.1883ZM19.4514 18.8508C19.1414 18.8445 18.8847 19.0906 18.8784 19.4006C18.8721 19.7105 19.1182 19.9671 19.4282 19.9735C19.7382 19.9798 19.9949 19.7337 20.0012 19.4237C20.0075 19.1137 19.7614 18.8571 19.4514 18.8508ZM17.163 16.9279C17.4283 17.0884 17.7736 17.0034 17.9341 16.7381C18.0946 16.4729 18.0098 16.1276 17.7444 15.9671C17.4791 15.8067 17.1338 15.8915 16.9732 16.1568C16.8127 16.4221 16.8977 16.7673 17.163 16.9279ZM17.163 18.9146C17.4283 19.0752 17.7736 18.9902 17.9341 18.7249C18.0946 18.4597 18.0098 18.1144 17.7444 17.9539C17.4791 17.7934 17.1338 17.8782 16.9732 18.1436C16.8127 18.4089 16.8977 18.7541 17.163 18.9146ZM17.7767 13.9293C17.4819 13.7509 17.0984 13.8452 16.92 14.1401C16.7417 14.4347 16.836 14.8183 17.1307 14.9966C17.4256 15.1749 17.8091 15.0806 17.9874 14.7858C18.1658 14.4911 18.0714 14.1077 17.7767 13.9293ZM15.4539 16.8985C15.1439 16.892 14.8874 17.1383 14.8809 17.4483C14.8746 17.7583 15.1207 18.0147 15.4307 18.0212C15.7409 18.0276 15.9974 17.7815 16.0037 17.4714C16.0102 17.1613 15.764 16.905 15.4539 16.8985ZM15.4539 18.8508C15.1439 18.8445 14.8874 19.0906 14.8809 19.4006C14.8746 19.7105 15.1207 19.9671 15.4307 19.9735C15.7409 19.9798 15.9974 19.7337 16.0037 19.4237C16.0102 19.1137 15.764 18.8571 15.4539 18.8508ZM15.4539 14.856C15.1439 14.8497 14.8874 15.0958 14.8809 15.4058C14.8746 15.7158 15.1207 15.9724 15.4307 15.9787C15.7409 15.985 15.9974 15.7389 16.0037 15.4289C16.0102 15.1188 15.764 14.8624 15.4539 14.856ZM17.4653 19.8787C17.1553 19.8723 16.8987 20.1185 16.8923 20.4284C16.886 20.7384 17.1321 20.995 17.4422 21.0013C17.7522 21.0077 18.0088 20.7616 18.0151 20.4516C18.0215 20.1415 17.7753 19.885 17.4653 19.8787Z" />
</svg>
