<svg viewBox="0 0 24 24" xmlns="http://www.w3.org/2000/svg">
<path d="M13.1113 13.8086C13.3691 13.71 13.498 13.4209 13.3994 13.1631C13.3008 12.9048 13.0107 12.7764 12.7539 12.875C11.6035 13.3149 10.3213 13.061 9.5791 12.23C9.07715 11.667 8.85059 10.9116 8.94336 10.1035C9.1377 8.39209 10.6875 7 12.3975 7C13.3154 7 14.0938 7.33057 14.5332 7.90772C14.9393 8.44104 15.032 9.16742 14.8105 10.0064C14.4507 11.0437 14.0016 11.0262 13.7988 11.0166C13.6436 11.0073 13.541 10.9688 13.4961 10.9019C13.3887 10.7451 13.4355 10.3799 13.5 10.1846C13.5029 10.1759 13.5009 10.1671 13.5034 10.1584C13.5946 9.8606 13.74 9.39404 13.9766 8.65186C14.0605 8.38867 13.915 8.10742 13.6523 8.02344C13.3848 7.93945 13.1084 8.08594 13.0234 8.34815C13.012 8.38403 13.0036 8.41077 12.9926 8.44544C12.5958 8.08283 12.061 7.92468 11.5596 8.04688C11.1709 8.14111 10.4688 8.48145 10.1191 9.70459C9.7373 11.0371 10.3496 11.749 10.9902 11.9541C11.1367 12.001 11.2939 12.0244 11.4551 12.0244C11.8816 12.0244 12.33 11.8414 12.7101 11.5131C12.8779 11.7354 13.1833 11.9826 13.7568 12.0156C13.7988 12.0186 13.8408 12.0195 13.8818 12.0195C14.7349 12.0195 15.359 11.4561 15.7497 10.3463C15.7537 10.335 15.7624 10.3267 15.7656 10.3149C15.7697 10.3004 15.7709 10.2875 15.7748 10.2729C15.7972 10.2061 15.822 10.1449 15.8428 10.0742L15.8613 10.0029C15.8765 9.94531 15.876 9.8902 15.8702 9.83673C16.0768 8.62408 15.7061 7.79749 15.3291 7.30176C14.6992 6.47461 13.6309 6 12.3975 6C10.1953 6 8.19922 7.79004 7.94922 9.99023C7.82422 11.0854 8.13867 12.1172 8.83301 12.8955C9.52246 13.6685 10.501 14.0938 11.5889 14.0938C12.1055 14.0938 12.6172 13.998 13.1113 13.8086ZM12.5258 9.93524C12.4911 10.0493 12.4647 10.1371 12.4457 10.201C12.2029 10.8845 11.6235 11.1087 11.2949 11.0015C10.8643 10.8638 11.0215 10.1846 11.0801 9.97998C11.2344 9.4419 11.4941 9.0918 11.7949 9.01856C11.9893 8.96973 12.2041 9.04248 12.3613 9.21045C12.4477 9.302 12.6239 9.55377 12.5258 9.93524ZM20.9583 10.3408C20.9341 10.2745 20.8961 10.2133 20.8457 10.1616L13.3252 2.4834L13.3201 2.48834C13.3096 2.47754 13.3046 2.46356 13.293 2.45361C12.5791 1.84277 11.4629 1.84473 10.751 2.45361C10.7399 2.46314 10.7352 2.4765 10.7251 2.48676L10.7207 2.48242L3.14648 10.1606C3.0506 10.2578 3.00262 10.3843 3.00232 10.5109C3.0022 10.515 3 10.5184 3 10.5225V21.4956C3 21.772 3.22363 21.9956 3.5 21.9956H20.5C20.7764 21.9956 21 21.772 21 21.4956V10.5391C21 10.4684 20.9847 10.4017 20.9583 10.3408ZM11.4055 3.21112C11.7352 2.93213 12.3069 2.93286 12.6359 3.20966L19.7539 10.4761C18.557 11.5096 15.4167 14.3297 13.7767 15.8057L13.3965 15.519C13.0078 15.187 12.5107 15.0039 11.998 15.0039C11.3926 15.0039 10.9229 15.292 10.5459 15.5713C10.4822 15.6179 10.3607 15.7068 10.2152 15.8134C8.12677 13.9783 5.24951 11.4401 4.21777 10.498L11.4055 3.21112ZM4 11.649C5.34705 12.8607 7.89771 15.1073 9.39026 16.4189C7.87976 17.5291 5.34491 19.4016 4 20.4472V11.649ZM4.9248 20.9956C6.44513 19.8306 9.23053 17.7722 11.1387 16.377C11.7197 15.9453 12.2891 15.8896 12.7715 16.2988L19.0011 20.9956H4.9248ZM20 20.4974L14.5899 16.4188C16.3046 14.8762 18.7402 12.692 20 11.5866V20.4974Z" />
</svg>
