<svg width="24" height="24" viewBox="0 0 24 24" fill="none" xmlns="http://www.w3.org/2000/svg">
<path d="M17.5 5.0006C17.5049 5.0006 17.5108 5.0006 17.5166 5.00011C17.6553 4.99767 17.7832 5.04211 17.875 5.13342C17.959 5.21789 18.0039 5.33361 17.999 5.4591C17.9902 5.73498 18.2061 5.96642 18.4824 5.97521C18.4883 5.9757 18.4942 5.9757 18.499 5.9757C18.7676 5.9757 18.9902 5.76281 18.999 5.4923C19.0127 5.08703 18.8643 4.70861 18.582 4.42638C18.293 4.13781 17.8965 3.97375 17.4834 4.00109C17.207 4.00988 16.9912 4.24133 17 4.5172C17.0098 4.78771 17.2315 5.0006 17.5 5.0006ZM17.5176 3.00158C18.2012 2.98547 18.8399 3.22179 19.3067 3.68762C19.7754 4.15539 20.0205 4.79357 19.9981 5.484C19.9893 5.75988 20.2061 5.99084 20.4815 5.99963C20.4873 6.00011 20.4932 6.00011 20.4981 6.00011C20.7666 6.00011 20.9893 5.78674 20.9981 5.51623C21.0293 4.54601 20.6797 3.64513 20.0127 2.9801C19.3467 2.31554 18.4444 1.97375 17.4824 2.00256C17.207 2.01183 16.9912 2.24328 17 2.51916C17.0098 2.79504 17.2451 3.00988 17.5176 3.00158ZM5.68166 3.13537C5.31252 3.2882 5.03078 3.58117 4.8882 3.96105C4.79054 4.21935 4.9214 4.50744 5.18019 4.60461C5.23781 4.62658 5.29738 4.63683 5.35597 4.63683C5.55812 4.63683 5.74855 4.5133 5.82375 4.31262C5.86818 4.19543 5.95363 4.1051 6.06398 4.05969C6.18214 4.00988 6.3174 4.01525 6.44533 4.07385C6.69923 4.18908 6.99318 4.07678 7.10744 3.8258C7.22169 3.57433 7.11086 3.27795 6.85939 3.16369C6.47707 2.98986 6.05861 2.97961 5.68166 3.13537ZM22.9658 17.7565L22.1358 16.2477C22.0713 16.131 21.9629 16.0445 21.834 16.0079C21.7061 15.9723 21.5674 15.9874 21.4522 16.0533L20.7681 16.4388L21.9805 8.82043C22.127 7.76623 21.4483 7.109 20.7022 7.00451C19.9483 6.90636 19.0762 7.37072 18.9238 8.44738C18.9229 8.45519 18.9209 8.46349 18.9199 8.47179C18.8779 8.7174 18.6465 10.0734 18.5684 10.4181C18.3906 11.2115 18.2295 11.3566 18.2471 11.3566C18.1455 11.3829 18.0225 11.3893 18.001 11.3502C17.6171 10.6517 17.1702 9.80181 16.7106 8.91711C17.1439 8.03021 16.7696 7.22594 16.1465 6.87853C15.9932 6.79357 15.8252 6.73449 15.6494 6.70666L15.9199 6.21496C16.0108 6.0509 16.2852 5.55285 16.126 5.00451C16.0235 4.64855 15.7676 4.35607 15.3662 4.13586C15.1807 4.03381 15.0069 3.97375 14.8457 3.94396C15.0459 3.25207 14.6475 2.61584 14.0791 2.30383C13.5098 1.99084 12.7578 1.99572 12.2759 2.5382C11.9741 2.1964 11.5005 1.98498 11.0664 2.0006C10.541 2.01135 10.0845 2.29992 9.81398 2.7926C9.49025 3.38097 9.10793 4.08361 8.70265 4.82824C7.80519 6.47717 6.79396 8.33508 6.05519 9.6256C5.96584 9.78185 5.72023 9.97375 5.70119 10.0079C5.68361 9.99426 5.52443 9.85021 5.35841 9.04748C5.28078 8.67248 5.04396 7.1051 5.03859 7.06994C4.9048 5.98937 4.03127 5.50646 3.28566 5.59679C2.5381 5.68859 1.84767 6.33361 1.97755 7.40734L3.22536 15.4062L2.59962 15.0621C2.36232 14.9318 2.06056 15.0153 1.92482 15.2516L1.06593 16.7516C0.928726 16.9913 1.01173 17.297 1.25148 17.4342C1.4922 17.5724 1.7964 17.4879 1.9341 17.2486L1.93581 17.2457L2.54836 16.1749L8.18507 19.275C9.56544 20.0348 9.34865 20.4298 9.22414 20.6569L8.94984 21.1979L8.93996 21.2174C8.81496 21.4635 8.91359 21.7648 9.15968 21.8893C9.23195 21.9264 9.3091 21.9435 9.38527 21.9435C9.56789 21.9435 9.74367 21.8434 9.83156 21.6695L10.1079 21.1236C10.5233 20.3683 10.2857 19.756 9.87953 19.2957C10.1616 18.8431 10.7688 18.1639 11.3018 17.7262C11.3488 17.6838 11.39 17.6414 11.435 17.5991C11.843 18.1138 12.2571 18.5443 12.7305 18.986C13.2033 19.3881 13.7443 20.0065 14.0408 20.4604C14.0227 20.4824 13.9993 20.5037 13.9824 20.526C13.5918 21.0421 13.5459 21.6202 13.8428 22.1813L14.1162 22.7467C14.2022 22.9254 14.3809 23.0294 14.5664 23.0294C14.6397 23.0294 14.7139 23.0133 14.7842 22.9796C15.0322 22.8595 15.1367 22.5607 15.0166 22.3121L14.7354 21.7301C14.6143 21.5006 14.627 21.3321 14.7803 21.1295C14.9541 20.8986 15.2901 20.6544 15.8174 20.3756L21.5029 17.1725L22.0889 18.2389C22.2236 18.4811 22.5303 18.568 22.7686 18.4357C23.0108 18.3028 23.0986 17.9986 22.9658 17.7565ZM10.6494 16.9684C10.1491 17.379 9.49806 18.0731 9.10701 18.6569C8.93471 18.5469 8.77803 18.4601 8.66701 18.399L4.33272 16.0153L2.96828 7.27013C2.9131 6.81457 3.15871 6.61974 3.40675 6.58947C3.67091 6.55578 3.98488 6.69787 4.0464 7.19299L4.04884 7.1925C4.05129 7.50842 4.13966 8.09045 4.37892 9.25012C4.52492 9.95422 4.77248 10.7843 5.40138 10.9562C6.03859 11.1315 6.70753 10.4987 6.92336 10.1227C7.66505 8.82678 8.68019 6.96154 9.58107 5.30627C9.98537 4.5631 10.3672 3.86193 10.69 3.27404C10.7881 3.09582 10.9219 3.00353 11.0869 3.00012C11.2788 3.0133 11.481 3.109 11.5811 3.27453C11.6611 3.40637 11.6636 3.55383 11.5884 3.71349L9.0425 8.34289C8.90919 8.58459 8.99757 8.88879 9.23927 9.0216C9.48195 9.1549 9.78566 9.06701 9.91847 8.82482L12.4424 4.2384C12.4541 4.21691 12.4653 4.19543 12.4761 4.17394L12.9566 3.29992C13.1455 2.95519 13.5235 3.13879 13.5977 3.18029C13.6709 3.22033 14.0244 3.43713 13.8399 3.77306L13.3223 4.71496C13.3145 4.72765 13.3076 4.74035 13.3008 4.75158C13.2803 4.79015 11.502 8.02355 10.9434 9.03967L10.7871 9.32433C10.7813 9.33508 10.7783 9.34094 10.7778 9.34142C10.6563 9.58508 10.7515 9.88146 10.9927 10.0079C11.2359 10.1349 11.5327 10.0445 11.6631 9.80578L14.1904 5.21056C14.2432 5.12267 14.332 5.01769 14.4365 4.96252C14.4863 4.93517 14.6182 4.86535 14.8838 5.01183C14.9942 5.07238 15.1328 5.16857 15.166 5.28283C15.209 5.43322 15.085 5.65783 15.044 5.73254L12.3032 10.7169C12.1729 10.9532 12.2544 11.2501 12.4863 11.3878C12.7193 11.525 13.0186 11.4542 13.1631 11.2262C13.1641 11.2247 13.169 11.2154 13.1787 11.1984L13.3047 10.9713C13.7207 10.2179 14.9131 8.0548 14.919 8.0426C15.1416 7.64904 15.4561 7.63928 15.6592 7.75207C15.8672 7.86779 16.0108 8.13195 15.794 8.52599L13.1143 13.3907C12.0205 15.3795 11.5557 16.15 10.6494 16.9684ZM15.3389 19.4977C15.1397 19.6027 14.9678 19.7059 14.8084 19.8086C14.4207 19.2486 13.8389 18.6162 13.3955 18.2399C12.9257 17.8008 12.525 17.3835 12.1257 16.8639C12.7046 16.1607 13.2009 15.3093 13.9912 13.8727L16.1362 9.97857C16.4875 10.6496 16.8259 11.288 17.125 11.8321C17.1283 11.838 17.1337 11.8413 17.137 11.8471C16.7678 12.1027 16.4593 12.4305 16.2373 12.838C15.7881 13.6627 15.709 14.7174 16.0264 15.6598C16.0967 15.8683 16.291 16.0001 16.5 16.0001C16.5527 16.0001 16.6065 15.9918 16.6592 15.9742C16.9209 15.8859 17.0615 15.6022 16.9736 15.3404C16.7471 14.6676 16.8018 13.8922 17.1152 13.3165C17.3838 12.8238 17.8154 12.4987 18.3975 12.3512C18.4118 12.3475 18.422 12.3376 18.4357 12.3328C18.4555 12.3284 18.4731 12.3309 18.4932 12.3258C19.125 12.1652 19.3867 11.339 19.5449 10.6378C19.624 10.2838 19.8623 8.8922 19.9141 8.58703C19.9834 8.09142 20.3164 7.95422 20.5635 7.99523C20.8115 8.0299 21.0527 8.22863 20.9912 8.67297L19.655 17.0659L15.3389 19.4977ZM3.32863 3.96984C3.38527 3.99035 3.44289 4.00012 3.50002 4.00012C3.70412 4.00012 3.89601 3.87414 3.96974 3.6715C4.22511 2.97033 4.71974 2.43859 5.36183 2.17443C5.9756 1.92053 6.65968 1.94396 7.28712 2.23986C7.53761 2.35656 7.83449 2.25012 7.95216 2.00012C8.06984 1.75012 7.96291 1.45226 7.71291 1.33508C6.82912 0.91906 5.85793 0.88781 4.98097 1.24963C4.0757 1.62219 3.38283 2.36095 3.03029 3.32873C2.93556 3.58849 3.06935 3.87512 3.32863 3.96984Z" fill="#212121"/>
</svg>
