<svg width="24" height="24" viewBox="0 0 24 24" fill="none" xmlns="http://www.w3.org/2000/svg">
<path d="M19.9648 15.3159L15.2148 3.31592C15.1397 3.12549 14.9551 3 14.75 3H14.25C14.0449 3 13.8604 3.12549 13.7852 3.31592L9.03516 15.3159C8.9336 15.5728 9.05909 15.8633 9.31592 15.9648C9.57227 16.0659 9.86329 15.9414 9.96485 15.6841L11.0273 13H17.9727L19.0352 15.6841C19.1128 15.8804 19.3013 16 19.5 16C19.5615 16 19.6235 15.9888 19.6841 15.9648C19.9409 15.8633 20.0664 15.5728 19.9648 15.3159ZM11.4232 12L14.5 4.22705L17.5768 12H11.4232ZM7.15625 16.2949C7.0752 16.1152 6.89698 16 6.7002 16H6.29981C6.10303 16 5.92481 16.1152 5.84375 16.2949L4.04395 20.2949C3.93067 20.5469 4.04297 20.8428 4.29493 20.9561C4.54688 21.0703 4.84278 20.9565 4.95606 20.7051L5.27326 20H7.72675L8.04395 20.7051C8.12745 20.8906 8.30957 21 8.50049 21C8.56885 21 8.63868 20.9858 8.70508 20.9561C8.95704 20.8428 9.06934 20.5469 8.95606 20.2949L7.15625 16.2949ZM5.72321 19L6.5 17.2734L7.2768 19H5.72321ZM15.5 15H12.5C12.2236 15 12 15.2236 12 15.5C12 15.7764 12.2236 16 12.5 16H14.2895L11.1465 19.1465C10.9512 19.3418 10.9512 19.6587 11.1465 19.8535C11.2441 19.9512 11.3721 20 11.5 20C11.6279 20 11.7564 19.9512 11.8535 19.8535L15 16.7036V18.5C15 18.7764 15.2236 19 15.5 19C15.7764 19 16 18.7764 16 18.5V15.5C16 15.2236 15.7764 15 15.5 15Z" fill="#212121"/>
</svg>
