<svg  viewBox="0 0 24 24"  xmlns="http://www.w3.org/2000/svg">
<path fill-rule="evenodd" clip-rule="evenodd" d="M6.64842 13.6948C6.87673 13.6948 7.0666 13.8641 7.10598 14.0873L7.11347 14.1734V17.5215C7.11347 17.7564 6.94896 17.9518 6.73202 17.9923L6.64842 18H2.46505C2.23636 18 2.04678 17.8305 2.00748 17.6074L2 17.5215V14.1734C2 14.0464 2.049 13.9247 2.13621 13.835C2.20162 13.7677 2.28451 13.7225 2.3739 13.7041L2.46505 13.6948H6.64842ZM16.1133 7C16.2366 7 16.3549 7.05041 16.4421 7.14015C16.5076 7.20746 16.5515 7.29274 16.5693 7.38472L16.5784 7.47851V14.3161C16.7638 14.226 16.962 14.1681 17.165 14.1445L17.3181 14.1332V9.08263C17.3181 8.84772 17.4826 8.65235 17.6996 8.61183L17.7832 8.60412H18.9517C19.015 8.60412 19.0806 8.60556 19.1482 8.60881L19.3561 8.62437C19.3916 8.62799 19.4274 8.63216 19.4636 8.63692L19.6836 8.67301C20.7236 8.87814 21.9147 9.62214 21.9956 11.9338L22 12.1876V16.0652C22 16.1921 21.951 16.3138 21.8638 16.4035C21.7984 16.4708 21.7155 16.516 21.6261 16.5344L21.5349 16.5437H19.1978C18.9901 17.3787 18.2545 17.9993 17.3781 17.9993C16.5532 17.9993 15.8531 17.4502 15.6004 16.6888L15.5583 16.5437H14.0279C13.8194 17.3787 13.0838 17.9993 12.2081 17.9993C11.3839 17.9993 10.6832 17.4502 10.4304 16.6888L10.3884 16.5437H9.50357C9.24673 16.5437 9.03852 16.3294 9.03852 16.0652C9.03852 15.8302 9.20303 15.6349 9.41998 15.5944L9.50357 15.5866H10.3884C10.4452 15.3582 10.541 15.1454 10.6687 14.957L10.7704 14.8205H8.50723C8.27916 14.8205 8.0891 14.651 8.04968 14.4279L8.04218 14.3419V7.47851C8.04218 7.2436 8.20669 7.04823 8.42364 7.00771L8.50723 7H16.1133ZM12.2088 15.0859C11.7011 15.1104 11.3017 15.5411 11.3017 16.0641C11.3017 16.5871 11.7011 17.0177 12.2088 17.0423C12.7324 17.0423 13.1591 16.6032 13.1591 16.0637C13.1591 15.5249 12.7324 15.0859 12.2088 15.0859ZM17.7419 15.1584C17.3862 15.0067 16.9767 15.0904 16.7044 15.3706C16.4321 15.6507 16.3508 16.0721 16.4982 16.4381C16.6457 16.8041 16.993 17.0426 17.3781 17.0423C17.9024 17.0423 18.3291 16.6025 18.3291 16.0637C18.3294 15.6675 18.0976 15.3102 17.7419 15.1584ZM6.18337 14.6511H2.92941V17.0423H6.18337V14.6511ZM15.9404 14.8205H13.6472C13.7923 14.9986 13.9047 15.2019 13.9796 15.4202L14.0286 15.5866H15.5583C15.6139 15.3615 15.7085 15.149 15.837 14.9592L15.9404 14.8205ZM18.9517 9.56042H18.2482V14.3506C18.6683 14.5772 18.9878 14.9573 19.1466 15.4126L19.1985 15.5866H21.0699V12.1876C21.0699 10.4906 20.4318 9.63063 19.1193 9.56455L18.9517 9.56042ZM15.6489 7.95702L8.97229 7.95774V13.8641L15.6489 13.8649V7.95702ZM4.92139 7.85811C5.04903 7.80322 5.1923 7.81019 5.31291 7.87396L5.38226 7.919L6.9301 9.13429C7.04803 9.2241 7.11557 9.36469 7.11557 9.51379C7.11488 9.60986 7.08601 9.70268 7.03381 9.7806L6.97403 9.85313L6.93219 9.89402L5.38435 11.1086C5.25245 11.2123 5.07682 11.2357 4.92361 11.17C4.7704 11.1043 4.66289 10.9595 4.64158 10.7901C4.62382 10.649 4.66817 10.5086 4.75977 10.4058L4.82029 10.3489L5.27209 9.99374H5.21283C4.55883 9.99374 3.91808 10.252 3.49556 10.686C3.12114 11.0706 2.9308 11.5641 2.9308 12.1531C2.9308 12.4174 2.72259 12.6316 2.46575 12.6316C2.20891 12.6316 2.0007 12.4174 2.0007 12.1531C2.0007 11.313 2.29074 10.572 2.83877 10.0088C3.39612 9.43731 4.17507 9.08159 5.00945 9.04097L5.27488 9.03744L4.81889 8.67945C4.68687 8.5759 4.61857 8.40775 4.63971 8.23833C4.66085 8.06892 4.76823 7.92398 4.92139 7.85811ZM19.0765 10.3029C20.1184 10.3029 20.3577 10.9569 20.3781 11.9227L20.3796 12.0699H18.9071V10.3022L19.0765 10.3029Z" />
</svg>
