<svg width="24" height="24" viewBox="0 0 24 24" fill="none" xmlns="http://www.w3.org/2000/svg">
<path d="M17.9854 13.5005C17.9854 14.1498 17.7745 14.7634 17.3991 15.2785L18.1061 15.9855C18.6658 15.2769 18.9854 14.4169 18.9854 13.5005C18.9854 12.4224 18.5654 11.4087 17.8032 10.647C17.6079 10.4517 17.2915 10.4517 17.0962 10.647C16.9009 10.8423 16.9009 11.1587 17.0962 11.354C17.6694 11.9272 17.9854 12.6895 17.9854 13.5005ZM20.0068 13.5005C20.0068 14.6927 19.5839 15.8095 18.8442 16.7236L19.5701 17.4495C20.4987 16.3433 21.0068 14.9617 21.0068 13.5005C21.0068 11.856 20.3662 10.3096 19.2031 9.14697C19.0078 8.95166 18.6914 8.95166 18.4961 9.14697C18.3008 9.34229 18.3008 9.65869 18.4961 9.854C19.4702 10.8281 20.0068 12.123 20.0068 13.5005ZM4.56006 3.85352L3.85352 3.14648C3.6582 2.95117 3.3418 2.95117 3.14648 3.14648C2.95117 3.3418 2.95117 3.6582 3.14648 3.85352L5.06323 5.77026C3.73486 6.48651 3 7.67853 3 9.28955C3 11.3931 3.4707 12.1392 3.92529 12.8608C4.04053 13.0435 4.15674 13.2266 4.26367 13.4399C4.79346 14.5 5 15.6387 5 17.5C5 17.7764 5.22363 18 5.5 18C5.77637 18 6 17.7764 6 17.5C6 15.4951 5.75635 14.189 5.1582 12.9927C5.03564 12.7476 4.90332 12.5366 4.77148 12.3271C4.35742 11.6709 4 11.1045 4 9.28955C4 7.79242 4.79834 6.96521 5.80615 6.51318L12.2614 12.9684C12.2603 13.0748 12.2667 13.1844 12.2949 13.2935C12.2056 13.3921 12.1304 13.5278 12.1304 13.7109C12.1304 13.8076 12.1528 13.9053 12.1787 14.0186C12.1875 14.0571 12.1987 14.0986 12.207 14.1387C11.7236 14.7573 11.9399 15.3491 12.0703 15.6616C12.062 15.7051 12.042 15.7285 12.0112 15.7529C11.6406 16.0459 10.3633 15.9189 9.6167 15.7388C9.35107 15.6758 9.07465 15.8443 9.01019 16.1124C9.00311 16.1418 9 16.2307 9 16.25V17.5C9 17.7764 9.22363 18 9.5 18C9.77637 18 10 17.7764 10 17.5V16.8312C10.7667 16.9536 11.9861 17.0455 12.6299 16.5391C12.9214 16.3091 13.0752 15.9863 13.0752 15.6055C13.0752 15.4683 13.0288 15.3589 12.9844 15.2534C12.8862 15.0225 12.8481 14.9019 13.0537 14.6875C13.2754 14.4547 13.2313 14.1454 13.1725 13.8796L20.1465 20.8535C20.2441 20.9512 20.3721 21 20.5 21C20.6279 21 20.7559 20.9512 20.8535 20.8535C21.0484 20.6586 21.0485 20.3433 20.8545 20.1479L4.56006 3.85352ZM15.9495 13.8289L16.6874 14.5668C17.1871 13.8228 17.11 12.8038 16.4531 12.147C16.2578 11.9517 15.9414 11.9517 15.7461 12.147C15.5508 12.3423 15.5508 12.6587 15.7461 12.854C16.0093 13.1172 16.075 13.5018 15.9495 13.8289ZM8.64551 6C11.0103 6 11.6313 7.71094 11.7891 8.44678C11.8384 8.6792 11.8999 8.86475 11.9565 9.03516C12.0308 9.25732 12.0801 9.4043 12.0801 9.60547C12.0801 9.737 12.1076 9.88025 12.1519 10.0313L14.2626 12.142C14.2666 12.1106 14.2856 12.0884 14.2856 12.0547C14.2856 11.8452 14.1831 11.6807 13.8784 11.1929C13.6396 10.8105 13.0801 9.91553 13.0801 9.60547C13.0801 9.2417 12.9912 8.97559 12.9053 8.71826C12.8584 8.5791 12.8071 8.42773 12.7666 8.23779C12.333 6.21045 10.7925 5 8.64551 5C8.13678 5 7.6676 5.03961 7.22192 5.10132L8.13495 6.01434C8.31226 6.00543 8.48505 6 8.64551 6Z" fill="#212121"/>
</svg>
