<?xml version="1.0" encoding="UTF-8"?>
<svg id="Ebene_1" xmlns="http://www.w3.org/2000/svg" version="1.1" viewBox="0 0 24 24">
  <!-- Generator: Adobe Illustrator 29.1.0, SVG Export Plug-In . SVG Version: 2.1.0 Build 142)  -->
  <defs>
    <style>
      .st0 {
        fill: #1d1d1b;
      }
    </style>
  </defs>
  <path class="st0" d="M12,3C7.0375977,3,3,7.0375977,3,12s4.0375977,9,9,9,9-4.0375977,9-9S16.9624023,3,12,3ZM9.1817627,4.5223389c-.4350586.5259399-.815918,1.1779175-1.1361694,1.9210205-.4560547-.1339111-.8844604-.2909546-1.2885132-.4713745.7099609-.6183472,1.5287476-1.1107788,2.4246826-1.449646ZM5.9973145,6.729248c.5204468.256958,1.0921631.4693604,1.6966553.6505737-.3956299,1.2107544-.6362305,2.609314-.6804199,4.1201782h-2.9882202c.1135254-1.8228149.8364258-3.479187,1.9719849-4.770752ZM4.0253296,12.5h2.9882202c.0441895,1.5112305.2849121,2.9100342.6807251,4.1209717-.6043701.1813354-1.1734009.395813-1.6939087.6531982-1.1372681-1.2920532-1.8614502-2.9497681-1.9750366-4.7741699ZM6.7578735,18.0287476c.4039307-.180603.8319702-.3376465,1.2879028-.4715576.3201904.7429199.7010498,1.3946533,1.1360474,1.9204712-.8955688-.3388062-1.7141724-.8308716-2.4239502-1.4489136ZM11.5,19.927002c-.9641724-.253479-1.8310547-1.223877-2.4619751-2.6275635.7781982-.1589966,1.6067505-.2462769,2.4619751-.2734375v2.901001ZM11.5,16.0264282c-.9829102.02948-1.9397583.1303101-2.8326416.3242798-.3748169-1.1283569-.6082764-2.4470215-.6542358-3.850708h3.4868774v3.5264282ZM11.5,11.5h-3.4868774c.0458984-1.402832.2791748-2.7207031.6535645-3.8486328.8934326.1941528,1.8516846.2930298,2.833313.3225708v3.526062ZM11.5,6.9743652c-.854126-.0271606-1.6838989-.1130981-2.4626465-.2723389.6309204-1.40448,1.4981079-2.3754272,2.4626465-2.6290283v2.9013672ZM19.9746704,11.5h-2.9882202c-.0441895-1.5109863-.2848511-2.909668-.680542-4.1204834.6044312-.1812744,1.1752319-.3944092,1.6955566-.6516724,1.1362305,1.2918091,1.8596802,2.9487305,1.9732056,4.7721558ZM17.2426147,5.9717407c-.4039307.180481-.8321533.3375244-1.288269.4714966-.3202515-.743042-.7010498-1.3950195-1.1361084-1.9208984.895813.3388672,1.7144775.8311768,2.4243774,1.4494019ZM12.5,4.072998c.9644165.25354,1.831604,1.2243652,2.4624634,2.6286011-.7785034.1591797-1.6079102.2455444-2.4624634.272644v-2.9012451ZM12.5,7.9738159c.9822388-.029541,1.9399414-.1290283,2.8330688-.3231201.3745117,1.1280518.6078491,2.446228.6538086,3.8493042h-3.4868774v-3.5261841ZM12.5,12.5h3.4868774c-.0458984,1.402832-.2791748,2.7207031-.6535645,3.8486328-.8934326-.1941528-1.8516846-.2930298-2.833313-.3225708v-3.526062ZM12.5,19.927002v-2.9013672c.854126.0271606,1.6838989.1130981,2.4626465.2723389-.6309204,1.40448-1.4981079,2.3754272-2.4626465,2.6290283ZM14.8181763,19.4776611c.4351196-.5259399.815979-1.1778564,1.1362305-1.9210205.4560547.1339111.8844604.2909546,1.2885132.4713745-.710022.6183472-1.5288086,1.1107178-2.4247437,1.449646ZM18.0026855,17.270752c-.5204468-.256958-1.0921631-.4693604-1.6966553-.6505737.3956299-1.2107544.6362305-2.609314.6804199-4.1201782h2.9882202c-.1135254,1.8228149-.8364258,3.479187-1.9719849,4.770752Z"/>
</svg>