<svg viewBox="0 0 24 24" xmlns="http://www.w3.org/2000/svg">
<path d="M20.7539 8.56885C20.6006 8.47949 20.4131 8.47705 20.2568 8.56299L16.5 10.6504V9C16.5 8.82275 16.4063 8.65869 16.2539 8.56885C16.1016 8.47949 15.9131 8.47705 15.7568 8.56299L12 10.6504V9C12 8.82666 11.9102 8.66602 11.7627 8.57471C11.6147 8.48291 11.4312 8.4751 11.2764 8.55273L7 10.6909V4.5C7 4.22363 6.77637 4 6.5 4H3.5C3.22363 4 3 4.22363 3 4.5V19.5C3 19.7764 3.22363 20 3.5 20H20.5C20.7764 20 21 19.7764 21 19.5V9C21 8.82275 20.9063 8.65869 20.7539 8.56885ZM20 19H4V5H6V11.5C6 11.6733 6.08984 11.834 6.2373 11.9253C6.38477 12.0166 6.56738 12.0239 6.72363 11.9473L11 9.80908V11.5C11 11.6772 11.0938 11.8413 11.2466 11.9312C11.3984 12.02 11.5884 12.0225 11.7427 11.937L15.5 9.84961V11.5C15.5 11.6772 15.5937 11.8413 15.7461 11.9312C15.8994 12.0205 16.0879 12.0229 16.2432 11.937L20 9.84961V19Z"/>
</svg>
