<svg  viewBox="0 0 24 24"  xmlns="http://www.w3.org/2000/svg">
<path d="M4.86472 16.9722H12.1372C12.4136 16.9722 12.6372 17.1958 12.6372 17.4722C12.6372 17.7485 12.4136 17.9722 12.1372 17.9722H4.37254C4.10691 17.9722 3.88767 17.7646 3.87302 17.499C3.68115 13.9414 6.17363 12.6951 7.37206 12.0959C9.62254 10.9709 11.7832 9.52586 10.7427 7.3369C10.4194 6.65672 9.93992 6.2412 9.27683 6.0659C7.56101 5.61815 5.15134 6.92479 4.77927 7.18456C4.57615 7.37157 4.27781 7.34129 4.09129 7.13866C3.90476 6.93504 3.9365 6.60399 4.14011 6.41747C4.31394 6.25877 7.04832 4.60155 9.30222 5.04686C10.3691 5.25487 11.1577 5.88085 11.646 6.90721C13.2477 10.2762 9.30556 12.2473 7.82058 12.9898L7.81884 12.9907C6.72305 13.5386 4.9316 14.4343 4.86472 16.9722Z" />
<path fill-rule="evenodd" clip-rule="evenodd" d="M18.9941 13.9937H19.9834C20.2597 13.9937 20.4834 14.2173 20.4834 14.4937C20.4834 14.77 20.2597 14.9937 19.9834 14.9937H18.9941V17.4722C18.9941 17.7485 18.7705 17.9722 18.4941 17.9722C18.2177 17.9722 17.9941 17.7485 17.9941 17.4722V14.9937H12.5381L12.5366 14.9933C12.445 14.993 12.3639 14.9618 12.2903 14.9186C12.2858 14.9161 12.2809 14.9153 12.276 14.9145C12.2708 14.9137 12.2655 14.9128 12.2607 14.9097C12.2531 14.9046 12.2475 14.898 12.242 14.8914C12.2374 14.8861 12.2329 14.8808 12.2274 14.8763C12.2003 14.8543 12.177 14.8308 12.155 14.8036C12.1349 14.7789 12.1178 14.7541 12.103 14.7264C12.0881 14.6989 12.0771 14.6709 12.0677 14.6404C12.0572 14.6071 12.0507 14.5746 12.0474 14.5399C12.0467 14.5327 12.0448 14.526 12.0428 14.5193C12.0404 14.511 12.0381 14.5027 12.0381 14.4937C12.0381 14.485 12.0403 14.4772 12.0426 14.4693C12.0444 14.4629 12.0463 14.4565 12.0469 14.4497C12.0499 14.4159 12.0568 14.384 12.0668 14.351C12.0768 14.3179 12.0888 14.2876 12.105 14.2579C12.1083 14.2518 12.1103 14.2454 12.1124 14.239C12.1148 14.2312 12.1173 14.2235 12.122 14.2163L18.0781 5.28174C18.0832 5.27405 18.0898 5.2684 18.0965 5.26273C18.1019 5.25818 18.1072 5.25361 18.1118 5.24799C18.1334 5.2215 18.1562 5.19855 18.1827 5.17694C18.2082 5.15607 18.2339 5.13837 18.2626 5.12317C18.2892 5.10895 18.3161 5.09833 18.3453 5.08905C18.3795 5.07825 18.413 5.07147 18.4488 5.06824C18.4559 5.06758 18.4625 5.06567 18.4691 5.06376C18.4772 5.06142 18.4853 5.05908 18.4941 5.05908C18.5025 5.05908 18.5101 5.06129 18.5178 5.0635C18.5241 5.06532 18.5304 5.06714 18.5371 5.06775C18.5712 5.07068 18.6034 5.07776 18.6367 5.08783C18.6698 5.0979 18.7002 5.10968 18.7299 5.12604C18.736 5.12934 18.7424 5.13136 18.7488 5.13338C18.7565 5.13584 18.7643 5.1383 18.7715 5.14307C18.779 5.14811 18.7846 5.1547 18.7902 5.1613C18.7947 5.16661 18.7992 5.17193 18.8048 5.17645C18.8319 5.19843 18.8552 5.22192 18.8772 5.24908C18.8972 5.27386 18.9144 5.29865 18.9292 5.32629C18.9441 5.35388 18.955 5.38184 18.9645 5.41229C18.9749 5.44562 18.9815 5.47815 18.9848 5.51288C18.9855 5.52002 18.9874 5.52673 18.9893 5.53343C18.9917 5.54172 18.9941 5.55 18.9941 5.55908V13.9937ZM13.4723 13.9937H17.9941V7.21051L13.4723 13.9937Z" />
</svg>
