<svg width="24" height="24" viewBox="0 0 24 24" fill="none" xmlns="http://www.w3.org/2000/svg">
<path d="M5.5 14C5.77637 14 6 13.7764 6 13.5V13C6 12.7236 5.77637 12.5 5.5 12.5C5.22363 12.5 5 12.7236 5 13V13.5C5 13.7764 5.22363 14 5.5 14ZM8.5 3H8C7.72363 3 7.5 3.22363 7.5 3.5C7.5 3.77637 7.72363 4 8 4H8.5C8.77637 4 9 3.77637 9 3.5C9 3.22363 8.77637 3 8.5 3ZM10.5 18H10C9.72363 18 9.5 18.2236 9.5 18.5C9.5 18.7764 9.72363 19 10 19H10.5C10.7764 19 11 18.7764 11 18.5C11 18.2236 10.7764 18 10.5 18ZM5.5 11.5C5.77637 11.5 6 11.2764 6 11V10.5C6 10.2236 5.77637 10 5.5 10C5.22363 10 5 10.2236 5 10.5V11C5 11.2764 5.22363 11.5 5.5 11.5ZM13 4H13.5C13.7764 4 14 3.77637 14 3.5C14 3.22363 13.7764 3 13.5 3H13C12.7236 3 12.5 3.22363 12.5 3.5C12.5 3.77637 12.7236 4 13 4ZM10.5 4H11C11.2764 4 11.5 3.77637 11.5 3.5C11.5 3.22363 11.2764 3 11 3H10.5C10.2236 3 10 3.22363 10 3.5C10 3.77637 10.2236 4 10.5 4ZM15.5 4H16C16.2764 4 16.5 3.77637 16.5 3.5C16.5 3.22363 16.2764 3 16 3H15.5C15.2236 3 15 3.22363 15 3.5C15 3.77637 15.2236 4 15.5 4ZM5.5 6.5C5.77637 6.5 6 6.27637 6 6V5.5C6 5.22363 5.77637 5 5.5 5C5.22363 5 5 5.22363 5 5.5V6C5 6.27637 5.22363 6.5 5.5 6.5ZM5.5 4H6C6.27637 4 6.5 3.77637 6.5 3.5C6.5 3.22363 6.27637 3 6 3H5.5C5.22363 3 5 3.22363 5 3.5C5 3.77637 5.22363 4 5.5 4ZM5.5 9C5.77637 9 6 8.77637 6 8.5V8C6 7.72363 5.77637 7.5 5.5 7.5C5.22363 7.5 5 7.72363 5 8V8.5C5 8.77637 5.22363 9 5.5 9ZM8.5 15H3.5C3.22363 15 3 15.2236 3 15.5V20.5C3 20.7764 3.22363 21 3.5 21H8.5C8.77637 21 9 20.7764 9 20.5V15.5C9 15.2236 8.77637 15 8.5 15ZM8 20H4V16H8V20ZM20.5 8C20.2236 8 20 8.22363 20 8.5V9C20 9.27637 20.2236 9.5 20.5 9.5C20.7764 9.5 21 9.27637 21 9V8.5C21 8.22363 20.7764 8 20.5 8ZM20.5 10.5C20.2236 10.5 20 10.7236 20 11V11.5C20 11.7764 20.2236 12 20.5 12C20.7764 12 21 11.7764 21 11.5V11C21 10.7236 20.7764 10.5 20.5 10.5ZM20.5 13C20.2236 13 20 13.2236 20 13.5V14C20 14.2764 20.2236 14.5 20.5 14.5C20.7764 14.5 21 14.2764 21 14V13.5C21 13.2236 20.7764 13 20.5 13ZM20.5 15.5C20.2236 15.5 20 15.7236 20 16V16.5C20 16.7764 20.2236 17 20.5 17C20.7764 17 21 16.7764 21 16.5V16C21 15.7236 20.7764 15.5 20.5 15.5ZM20.5 3C20.2236 3 20 3.22363 20 3.5V4C20 4.27637 20.2236 4.5 20.5 4.5C20.7764 4.5 21 4.27637 21 4V3.5C21 3.22363 20.7764 3 20.5 3ZM20.5 5.5C20.2236 5.5 20 5.72363 20 6V6.5C20 6.77637 20.2236 7 20.5 7C20.7764 7 21 6.77637 21 6.5V6C21 5.72363 20.7764 5.5 20.5 5.5ZM13 18H12.5C12.2236 18 12 18.2236 12 18.5C12 18.7764 12.2236 19 12.5 19H13C13.2764 19 13.5 18.7764 13.5 18.5C13.5 18.2236 13.2764 18 13 18ZM17 11.5C17 11.7764 17.2236 12 17.5 12C17.7764 12 18 11.7764 18 11.5V6.5C18 6.22363 17.7764 6 17.5 6H12.5C12.2236 6 12 6.22363 12 6.5C12 6.77637 12.2236 7 12.5 7H16.293L11.1465 12.1465C10.9512 12.3418 10.9512 12.6582 11.1465 12.8535C11.2441 12.9512 11.3721 13 11.5 13C11.6279 13 11.7559 12.9512 11.8535 12.8535L17 7.70703V11.5ZM20.5 18H20C19.7236 18 19.5 18.2236 19.5 18.5C19.5 18.7764 19.7236 19 20 19H20.5C20.7764 19 21 18.7764 21 18.5C21 18.2236 20.7764 18 20.5 18ZM15.5 18H15C14.7236 18 14.5 18.2236 14.5 18.5C14.5 18.7764 14.7236 19 15 19H15.5C15.7764 19 16 18.7764 16 18.5C16 18.2236 15.7764 18 15.5 18ZM18.5 3H18C17.7236 3 17.5 3.22363 17.5 3.5C17.5 3.77637 17.7236 4 18 4H18.5C18.7764 4 19 3.77637 19 3.5C19 3.22363 18.7764 3 18.5 3ZM18 18H17.5C17.2236 18 17 18.2236 17 18.5C17 18.7764 17.2236 19 17.5 19H18C18.2764 19 18.5 18.7764 18.5 18.5C18.5 18.2236 18.2764 18 18 18Z" fill="#212121"/>
</svg>
