<svg width="24" height="24" viewBox="0 0 24 24" fill="none" xmlns="http://www.w3.org/2000/svg">
<path d="M5.75049 10.9658L9.23682 12.9741C9.31543 13.0195 9.40137 13.041 9.48584 13.041C9.65869 13.041 9.82715 12.9512 9.91943 12.7905C10.0576 12.5513 9.9751 12.2456 9.73584 12.1079L7.00488 10.5347L9.74805 8.9668C9.98779 8.82959 10.0713 8.52441 9.93408 8.28467C9.79688 8.04443 9.49023 7.95947 9.25195 8.09863L5.75195 10.0986C5.59619 10.1875 5.50049 10.3525 5.5 10.5317C5.49951 10.7109 5.59521 10.8765 5.75049 10.9658ZM21.5 4H2.5C2.22363 4 2 4.22363 2 4.5V16.5C2 16.7764 2.22363 17 2.5 17H9.49292C9.45416 17.6476 9.27081 18.1544 8.92822 18.4922C8.40967 19.0034 7.68164 19 7.68164 19H6.5C6.22363 19 6 19.2236 6 19.5C6 19.7764 6.22363 20 6.5 20H17.5C17.7764 20 18 19.7764 18 19.5C18 19.2236 17.7764 19 17.5 19H16.3311C16.3198 18.9858 15.6001 19.0044 15.0811 18.4922C14.7385 18.1544 14.5551 17.6476 14.5164 17H21.5C21.7764 17 22 16.7764 22 16.5V4.5C22 4.22363 21.7764 4 21.5 4ZM9.79395 19C10.2173 18.4908 10.452 17.8215 10.4911 17H13.5182C13.5573 17.8215 13.7919 18.4908 14.2153 19H9.79395ZM21 16H3V5H21V16ZM14.0659 12.7891C14.1582 12.9507 14.3267 13.041 14.5005 13.041C14.5845 13.041 14.6699 13.02 14.748 12.9751L18.248 10.9751C18.4038 10.8862 18.4995 10.7212 18.5 10.542C18.5005 10.3628 18.4048 10.1973 18.2495 10.1079L14.7637 8.09961C14.5249 7.96143 14.2183 8.04346 14.0811 8.2832C13.9429 8.52246 14.0254 8.82812 14.2646 8.96582L16.9951 10.5391L14.252 12.1069C14.0122 12.2441 13.9287 12.5493 14.0659 12.7891ZM11.0146 12.9644C11.0752 12.9888 11.1382 13 11.2002 13C11.3984 13 11.5864 12.8813 11.6646 12.6855L13.2646 8.68555C13.3672 8.4292 13.2422 8.13818 12.9858 8.03564C12.731 7.93262 12.4385 8.05762 12.3359 8.31445L10.7358 12.3145C10.6333 12.5708 10.7583 12.8618 11.0146 12.9644Z" fill="#212121"/>
</svg>
