<svg  viewBox="0 0 24 24"  xmlns="http://www.w3.org/2000/svg">
<path d="M12.7236 3.05273L15.3574 4.37012C15.6045 4.49365 15.7046 4.79395 15.5811 5.04102C15.4932 5.21631 15.3169 5.31738 15.1333 5.31738C15.0581 5.31738 14.9819 5.30029 14.9102 5.26465L13 4.3092V6.50146C13 6.77783 12.7764 7.00146 12.5 7.00146C12.2236 7.00146 12 6.77783 12 6.50146V4.30902L10.0903 5.26367C9.84326 5.38574 9.54297 5.28711 9.41943 5.04004C9.2959 4.79297 9.39599 4.49268 9.64306 4.36914L12.2764 3.05273C12.2784 3.05175 12.2805 3.05148 12.2827 3.05121C12.2848 3.05094 12.2869 3.05068 12.2889 3.04974C12.3535 3.01935 12.4238 2.99951 12.5 2.99951C12.5762 2.99951 12.6465 3.01935 12.7111 3.04974C12.713 3.05068 12.7152 3.05094 12.7173 3.05121C12.7184 3.05134 12.7194 3.05148 12.7205 3.0517C12.7216 3.05192 12.7226 3.05224 12.7236 3.05273Z" />
<path d="M4.5 11.3374C4.77637 11.3374 5 11.1137 5 10.8374V8.30905L7.48193 9.55026C7.72949 9.67282 8.02881 9.5737 8.15283 9.32663C8.27637 9.07956 8.17627 8.77927 7.9292 8.65573L5.6181 7.50003L7.9248 6.34665C8.17188 6.22312 8.27197 5.92282 8.14844 5.67575C8.0249 5.42819 7.72461 5.32858 7.47754 5.45212L4.27637 7.05271C4.27199 7.05489 4.2686 7.05806 4.26521 7.06123C4.26217 7.06408 4.25912 7.06693 4.25537 7.06906C4.25264 7.07064 4.24961 7.07118 4.24657 7.07173C4.24336 7.07231 4.24016 7.07289 4.2373 7.07468C4.22994 7.07922 4.22482 7.08587 4.21969 7.09254C4.2153 7.09824 4.2109 7.10395 4.20508 7.10837C4.15869 7.14347 4.11963 7.18271 4.08887 7.22977C4.07556 7.24991 4.0647 7.26883 4.05444 7.29074C4.02893 7.34506 4.01477 7.40164 4.00995 7.46176C4.00943 7.46805 4.00722 7.47384 4.00501 7.47962C4.0025 7.48619 4 7.49273 4 7.49997V10.8374C4 11.1137 4.22363 11.3374 4.5 11.3374Z" />
<path d="M14.9062 18.7373L13 19.6912V17.499C13 17.2227 12.7764 16.999 12.5 16.999C12.2236 16.999 12 17.2227 12 17.499V19.6914L10.0977 18.7402C9.8501 18.6162 9.5498 18.7178 9.42676 18.9639C9.30322 19.2109 9.40332 19.5117 9.65039 19.6348L12.2764 20.9473C12.2786 20.9484 12.281 20.9487 12.2834 20.9489C12.2857 20.9492 12.288 20.9495 12.2901 20.9505C12.3544 20.9805 12.4243 21 12.5 21C12.5757 21 12.6456 20.9805 12.7099 20.9505C12.712 20.9495 12.7143 20.9492 12.7166 20.9489C12.719 20.9487 12.7214 20.9484 12.7236 20.9473L15.3535 19.6318C15.6006 19.5078 15.7007 19.208 15.5771 18.9609C15.4531 18.7148 15.1538 18.6123 14.9062 18.7373Z" />
<path d="M20.9436 7.29074C20.9691 7.34506 20.9833 7.40164 20.9881 7.46176C20.9886 7.46805 20.9908 7.47384 20.993 7.47962C20.9955 7.48619 20.998 7.49273 20.998 7.49997V10.2553C20.998 10.5317 20.7744 10.7553 20.498 10.7553C20.2217 10.7553 19.998 10.5317 19.998 10.2553V8.30905L17.5146 9.55124C17.2676 9.67429 16.9683 9.57468 16.8437 9.32761C16.7202 9.08054 16.8203 8.78024 17.0674 8.65671L19.3801 7.49997L17.0742 6.34665C16.8271 6.22312 16.727 5.92282 16.8506 5.67575C16.9741 5.42819 17.2744 5.32858 17.5215 5.45212L20.7217 7.05271C20.7261 7.05489 20.7294 7.05807 20.7328 7.06124C20.7359 7.06408 20.7389 7.06693 20.7427 7.06906C20.7447 7.07021 20.7468 7.07082 20.749 7.07129L20.7515 7.07177C20.7547 7.07235 20.7579 7.07293 20.7607 7.07468C20.7681 7.07922 20.7732 7.08587 20.7784 7.09254C20.7827 7.09824 20.7871 7.10395 20.793 7.10837C20.8394 7.14347 20.8784 7.18271 20.9092 7.22977C20.9225 7.24991 20.9333 7.26883 20.9436 7.29074Z" />
<path d="M14.9102 9.73533L12.5 10.9409L10.0894 9.73581C9.84179 9.61374 9.5415 9.71189 9.41846 9.95945C9.29492 10.2065 9.39502 10.5068 9.64209 10.6303L12 11.8091V14.5019C12 14.7783 12.2236 15.0019 12.5 15.0019C12.7764 15.0019 13 14.7783 13 14.5019V11.809L15.3574 10.6299C15.6045 10.5063 15.7046 10.206 15.5811 9.95896C15.4565 9.71189 15.1572 9.61228 14.9102 9.73533Z" />
<path d="M20.498 12.0894C20.2217 12.0894 19.998 12.313 19.998 12.5894V15.6853L17.5239 14.4482C17.2759 14.3242 16.9766 14.4258 16.853 14.6719C16.7295 14.9189 16.8296 15.2188 17.0767 15.3428L19.3859 16.4974L17.0718 17.6543C16.8247 17.7783 16.7246 18.0781 16.8481 18.3252C16.936 18.5 17.1123 18.6016 17.2959 18.6016C17.3711 18.6016 17.4473 18.585 17.519 18.5488L20.7217 16.9473C20.724 16.9461 20.7256 16.9442 20.7272 16.9423C20.7287 16.9405 20.7302 16.9387 20.7324 16.9375C20.8022 16.9022 20.8563 16.8466 20.9041 16.7805C20.9069 16.7765 20.9104 16.7733 20.9139 16.7701C20.9179 16.7665 20.9219 16.7628 20.9247 16.7581C20.9288 16.7517 20.9343 16.747 20.9398 16.7423C20.9462 16.7369 20.9526 16.7315 20.9565 16.7236C21.0004 16.6359 21.0072 16.5428 20.998 16.452V12.5894C20.998 12.313 20.7744 12.0894 20.498 12.0894Z" />
<path d="M7.49072 14.4512C7.73779 14.3271 8.03809 14.4277 8.16162 14.6748C8.28516 14.9219 8.18506 15.2217 7.93799 15.3457L5.62341 16.503L7.92676 17.6543C8.17383 17.7783 8.27393 18.0781 8.15039 18.3252C8.0625 18.5 7.88623 18.6016 7.70264 18.6016C7.62744 18.6016 7.55127 18.585 7.47949 18.5488L4.27637 16.9473C4.27186 16.945 4.26873 16.9413 4.26559 16.9376C4.26269 16.9342 4.25979 16.9308 4.2558 16.9285C4.25212 16.9262 4.24921 16.9231 4.2463 16.9199C4.24361 16.917 4.24092 16.9141 4.23761 16.9119C4.0957 16.8204 4 16.6713 4 16.5V13.1621C4 12.8857 4.22363 12.6621 4.5 12.6621C4.77637 12.6621 5 12.8857 5 13.1621V15.6965L7.49072 14.4512Z" />
</svg>
