<svg width="24" height="24" viewBox="0 0 24 24" fill="none" xmlns="http://www.w3.org/2000/svg">
<path d="M20.7959 14.0972C20.625 13.9717 20.3926 13.9668 20.2178 14.0874C19.2451 14.7515 17.9004 14.9248 16.8379 15.0015C15.0215 15.1294 13.2412 14.5703 11.9629 13.457C10.8096 12.4536 10.1182 11.0547 10.0156 9.51855C9.86914 7.32617 10.9297 5.17822 12.7822 3.91309C12.9629 3.78906 13.042 3.56201 12.9775 3.35254C12.9131 3.14307 12.7197 3 12.5 3H12C7.03711 3 3 7.0376 3 12C3 14.4116 3.94043 16.6777 5.64746 18.3804C7.34277 20.0703 9.58887 21 11.9766 21H12.001C15.8818 20.9897 19.9092 18.1392 20.9785 14.6465C21.04 14.4434 20.9678 14.2231 20.7959 14.0972ZM11.999 20H11.9766C9.85547 20 7.85938 19.1738 6.35352 17.6724C4.83594 16.1587 4 14.144 4 12C4 7.90234 7.09668 4.51465 11.0723 4.05371C9.64941 5.52441 8.88086 7.53711 9.01758 9.58496C9.1377 11.3887 9.9502 13.0317 11.3066 14.2114C12.8057 15.5171 14.8057 16.1538 16.9102 15.9985C17.7021 15.9414 18.6396 15.8335 19.5234 15.5303C18.1387 18.0732 15.0215 19.9917 11.999 20Z" fill="#212121"/>
</svg>
