<svg viewBox="0 0 24 24" xmlns="http://www.w3.org/2000/svg">
<path d="M20.5 20H4V15.707L8.5 11.207L11.1465 13.8535C11.2441 13.9512 11.3721 14 11.5 14C11.6279 14 11.7559 13.9512 11.8535 13.8535L18 7.70703V11.5C18 11.7764 18.2236 12 18.5 12C18.7764 12 19 11.7764 19 11.5V6.5C19 6.43494 18.9868 6.37018 18.9615 6.30908C18.9109 6.18665 18.8134 6.08911 18.6909 6.03845C18.6298 6.01318 18.5651 6 18.5 6H13.5C13.2236 6 13 6.22363 13 6.5C13 6.77637 13.2236 7 13.5 7H17.293L11.5 12.793L8.85352 10.1465C8.6582 9.95117 8.3418 9.95117 8.14648 10.1465L4 14.293V3.5C4 3.22363 3.77637 3 3.5 3C3.22363 3 3 3.22363 3 3.5V20.5C3 20.7764 3.22363 21 3.5 21H20.5C20.7764 21 21 20.7764 21 20.5C21 20.2236 20.7764 20 20.5 20Z" />
</svg>
