<svg  viewBox="0 0 24 24"  xmlns="http://www.w3.org/2000/svg">
<path d="M1.59562 5L0 19H22.4044L24 5H1.59562ZM11.3067 13.1858C10.9974 15.9008 9.13613 17.1868 6.54972 17.1868C3.9635 17.1868 2.38097 15.9008 2.6903 13.1858L3.39523 6.99877H6.0531L5.34653 13.2002C5.22606 14.2576 5.76385 14.9292 6.80693 14.9292C7.83588 14.9292 8.54105 14.2576 8.66152 13.2002L9.36808 6.99877H12.0116L11.3067 13.1858ZM21.8329 10.271C21.6392 11.9713 20.4424 13.5718 17.4561 13.5718H15.8128L15.4221 17.001H12.7786L13.9182 6.99877H18.1763C21.1913 6.99877 22.0234 8.59923 21.8329 10.271Z" #F00020"/>
</svg>
