<svg  viewBox="0 0 24 24"  xmlns="http://www.w3.org/2000/svg">
<path d="M9.7442 11.7861C9.37799 11.8232 9.04791 12.0019 8.81549 12.288C8.48541 12.6953 8.42486 13.2372 8.61334 13.6953C8.56353 13.7197 8.5147 13.7451 8.46685 13.7744C8.08209 14.0058 7.8106 14.3749 7.7022 14.8144C7.48638 15.6904 8.01373 16.5253 8.92877 16.7558C8.96978 16.7665 9.0108 16.7714 9.05084 16.7714C9.27447 16.7714 9.47857 16.6201 9.53521 16.3935C9.59893 16.1434 9.45635 15.8966 9.21978 15.8094C9.20318 15.8033 9.19024 15.7914 9.17291 15.7871C8.85357 15.706 8.57623 15.4482 8.67291 15.0537C8.71685 14.8749 8.8272 14.7246 8.98345 14.6308C9.13482 14.539 9.31256 14.5117 9.48638 14.5556C9.54962 14.5711 9.61334 14.5711 9.67535 14.5623C9.83575 14.5396 9.98126 14.4432 10.0567 14.291C10.147 14.1058 10.1082 13.8914 9.97491 13.742C9.95562 13.7205 9.94049 13.6961 9.91705 13.6777L9.64459 13.4638C9.4815 13.3281 9.45806 13.0839 9.59283 12.9179C9.65631 12.8398 9.74517 12.791 9.84478 12.7812C9.94439 12.7763 10.0411 12.8017 10.1182 12.8652C10.1629 12.9024 10.2142 12.9256 10.2662 12.9446C10.459 13.0153 10.6839 12.9664 10.8223 12.7978C10.9981 12.5849 10.9678 12.2695 10.7549 12.0937C10.4698 11.8583 10.1163 11.748 9.7442 11.7861ZM9.67388 10.2939C9.72564 10.2939 9.77838 10.291 9.83013 10.2841C10.1045 10.2509 10.2989 10.0019 10.2657 9.72748C10.2325 9.45368 9.9793 9.253 9.71051 9.29206C9.71002 9.29206 9.70953 9.29181 9.70904 9.29194C9.63775 9.29877 9.56744 9.28022 9.50982 9.23627C9.45025 9.1894 9.41314 9.12201 9.40338 9.04682C9.3858 8.89106 9.49273 8.75031 9.64337 8.73102C9.64385 8.73102 9.6441 8.73053 9.64459 8.73041C9.919 8.69721 10.1133 8.44819 10.0801 8.17377C10.0469 7.89838 9.79205 7.69916 9.52349 7.73822C8.8272 7.82319 8.32818 8.46283 8.41119 9.16498C8.4522 9.50678 8.6231 9.81147 8.89361 10.0234C9.1192 10.2001 9.39166 10.2939 9.67388 10.2939ZM20.2598 12.289C20.4463 11.9687 20.6192 11.4228 20.3848 10.622C20.2579 10.1757 19.7676 9.64057 19.0684 9.40229C19.2071 9.15229 19.3086 8.84662 19.3086 8.48627C19.3077 7.581 18.7032 6.98237 17.7071 6.86615L17.4044 5.95697C17.2569 4.93158 16.7198 3.96088 16.001 3.42475C15.5528 3.08979 15.0665 2.94916 14.584 3.0185C13.2247 3.21772 12.96 6.04487 12.9747 7.6474C12.6827 7.53803 12.3536 7.53119 12.044 7.6435C12.0577 5.97162 11.7178 3.2099 10.417 3.0185C9.9356 2.94819 9.4483 3.08979 9.00006 3.42475C8.28131 3.96088 7.7442 4.93158 7.61627 5.87299L7.29205 6.86615C6.29693 6.98334 5.69342 7.58197 5.69244 8.48627C5.69244 8.84662 5.794 9.15229 5.93267 9.40229C5.23248 9.64155 4.74127 10.1806 4.61138 10.6386C4.38189 11.4228 4.55474 11.9687 4.74127 12.289C5.00592 12.7441 5.46588 13.0624 6.10943 13.2353C6.18463 13.4169 6.18365 13.8583 6.04595 13.9804L5.83306 14.165C5.31256 14.6113 4.77545 15.0732 4.94146 16.0468C5.08306 16.8779 5.6856 17.7548 6.46197 18.08L6.36236 18.4111C6.1817 19.6708 6.99517 20.7988 8.21588 20.9785C8.3233 20.9941 8.42974 21.0019 8.53619 21.0019C8.98931 21.0019 9.42486 20.8593 9.78717 20.5888C10.2647 20.2324 10.5772 19.6894 10.67 19.0419C10.7003 18.7792 10.9522 18.0839 11.0528 17.9941C11.0538 17.9951 11.1251 18.0244 11.253 18.2011C11.4981 18.54 11.8897 18.9921 12.4512 19.0058C12.46 19.0068 12.4688 19.0068 12.4776 19.0068C13.0391 19.0068 13.462 18.5595 13.7335 18.2206C13.8467 18.0781 13.921 18.0283 13.9288 18.0087C14.0879 18.1298 14.2979 18.7441 14.3331 19.0605C14.4239 19.6894 14.7364 20.2324 15.2139 20.5888C15.6612 20.9228 16.2149 21.0615 16.7862 20.9785C18.0059 20.7988 18.8194 19.6708 18.6211 18.3359L18.543 18.079C19.3174 17.7529 19.918 16.8759 20.0596 16.0468C20.2247 15.0732 19.6876 14.6122 19.169 14.166L18.9551 13.9804C18.7559 13.8027 18.8311 13.3974 18.9131 13.2294C19.546 13.0556 19.9981 12.7392 20.2598 12.289ZM18.2911 14.7285L18.5167 14.9247C19.0137 15.3515 19.1417 15.4804 19.0733 15.8788C18.9708 16.4824 18.4278 17.2119 17.9073 17.2119C17.7491 17.2119 17.5997 17.2871 17.5049 17.415C17.4112 17.5419 17.3829 17.707 17.4297 17.8583L17.6485 18.5537C17.7501 19.2597 17.3077 19.8906 16.6407 19.9882C16.335 20.0341 16.0469 19.9648 15.8126 19.788C15.5489 19.5917 15.3751 19.2822 15.3253 18.9345C15.3233 18.9189 15.1221 17.3085 14.2003 17.041C13.9122 16.9578 13.472 16.9915 13.0001 17.548V10.6806C13.0001 10.4042 12.7764 10.1806 12.5001 10.1806C12.2237 10.1806 12.0001 10.4042 12.0001 10.6806V17.546C11.5667 16.9976 11.1414 16.951 10.8565 17.0283C9.92584 17.2763 9.67779 18.9179 9.67779 18.9179C9.62603 19.2822 9.4522 19.5917 9.18853 19.788C8.95318 19.9648 8.66314 20.0341 8.36138 19.9882C7.69342 19.8906 7.25103 19.2597 7.33502 18.6288L7.57134 17.8583C7.61822 17.707 7.5899 17.5419 7.49615 17.415C7.40142 17.2871 7.25201 17.2119 7.09381 17.2119C6.5733 17.2119 6.03033 16.4824 5.92779 15.8788C5.85943 15.4794 5.98638 15.3515 6.48443 14.9238L6.71002 14.7285C7.16314 14.3251 7.22955 13.5839 7.09869 13.0654C6.99224 12.6396 6.75982 12.3642 6.44439 12.289C6.02349 12.1884 5.74127 12.0195 5.60552 11.7871C5.47857 11.5673 5.46685 11.2753 5.57818 10.8955C5.62506 10.7285 6.03717 10.2773 6.68756 10.2773C6.75592 10.2773 6.82623 10.2822 6.89947 10.2929C7.13384 10.3222 7.35845 10.1923 7.43951 9.96772C7.52056 9.74506 7.43267 9.49506 7.2315 9.37006C7.22564 9.36713 6.69146 9.03022 6.69244 8.48822C6.69244 8.32905 6.69342 7.84565 7.66119 7.84565C7.87701 7.84565 8.06939 7.70697 8.13677 7.50092L8.58697 6.09955C8.69439 5.35053 9.10064 4.5976 9.59869 4.22553C9.75982 4.10639 10.0049 3.97748 10.2715 4.00776C10.7227 4.12983 11.2325 6.79194 10.9981 8.4267C10.9776 8.57026 11.0206 8.71576 11.1153 8.82514C11.21 8.93549 11.3487 8.99799 11.4932 8.99799H11.7471C11.9249 8.99799 12.0889 8.90424 12.1788 8.75092C12.2169 8.68549 12.2725 8.63373 12.3409 8.60151C12.5176 8.5185 12.7227 8.58295 12.8223 8.75092C12.9122 8.90424 13.0762 8.99799 13.253 8.99799H13.5225C13.667 8.99799 13.8057 8.93549 13.9004 8.82514C13.9952 8.71576 14.0381 8.57026 14.0176 8.4267C13.7823 6.79096 14.2833 4.12885 14.7286 4.00873C14.9893 3.96967 15.2403 4.10541 15.4024 4.22553C15.9004 4.5976 16.3067 5.35053 16.4336 6.18354L16.8643 7.50092C16.9317 7.70697 17.1241 7.84565 17.3399 7.84565C18.3077 7.84565 18.3086 8.32905 18.3086 8.48822C18.3096 9.03022 17.7754 9.36713 17.7735 9.36811C17.5684 9.49018 17.4786 9.74018 17.5586 9.96479C17.6378 10.1894 17.8614 10.3193 18.1016 10.2929C18.8702 10.1777 19.3702 10.7119 19.4297 10.9199C19.5342 11.2753 19.5225 11.5673 19.3956 11.7871C19.2598 12.0195 18.9776 12.1884 18.5557 12.289C18.1221 12.3925 17.9444 12.9238 17.8878 13.1474C17.7305 13.7734 17.8809 14.3642 18.2911 14.7285ZM14.9825 10.2841C15.0342 10.291 15.087 10.2939 15.1387 10.2939C15.421 10.2939 15.6934 10.2001 15.919 10.0234C16.1895 9.81147 16.3604 9.50678 16.4014 9.16498C16.4864 8.46283 15.9874 7.82319 15.2901 7.73822C15.0274 7.70307 14.7667 7.89936 14.7335 8.17377C14.7003 8.44819 14.8946 8.69721 15.169 8.73041C15.1692 8.73053 15.1692 8.73078 15.1697 8.73078C15.3204 8.74958 15.4275 8.89093 15.4092 9.04584C15.3995 9.12201 15.3624 9.1894 15.3028 9.23627C15.2452 9.28022 15.1758 9.29975 15.1036 9.29194C15.1031 9.29181 15.1028 9.29206 15.1024 9.29206C14.8333 9.25763 14.5799 9.45343 14.5469 9.72748C14.5137 10.0019 14.7081 10.2509 14.9825 10.2841ZM16.3458 13.7744C16.2979 13.746 16.2501 13.7197 16.2012 13.6962C16.3887 13.2402 16.3282 12.6962 15.9981 12.288C15.7647 12.0009 15.4336 11.8222 15.0665 11.7861C14.7042 11.748 14.3428 11.8583 14.0586 12.0947C13.8458 12.2705 13.8155 12.5859 13.9922 12.7978C14.1304 12.9661 14.3538 13.0142 14.5464 12.9439C14.5987 12.9249 14.6502 12.9014 14.6954 12.8642C14.7725 12.7997 14.8682 12.7753 14.9678 12.7812C15.0674 12.791 15.1573 12.8398 15.2208 12.9189C15.3555 13.0839 15.3311 13.3281 15.1768 13.456L14.8956 13.6777C14.8721 13.6959 14.8572 13.7202 14.8379 13.7416C14.7044 13.8909 14.6653 14.1057 14.7559 14.291C14.8314 14.4434 14.9771 14.5408 15.138 14.5631C15.1995 14.5716 15.263 14.5714 15.3262 14.5556C15.4991 14.5117 15.6778 14.539 15.8292 14.6308C15.9854 14.7246 16.0958 14.8749 16.1397 15.0527C16.2364 15.4482 15.959 15.706 15.6397 15.7871C15.6224 15.7914 15.6097 15.8033 15.5931 15.8093C15.3563 15.8963 15.2134 16.1434 15.2774 16.3935C15.334 16.6201 15.5381 16.7714 15.7618 16.7714C15.8018 16.7714 15.8428 16.7665 15.8838 16.7558C16.7989 16.5253 17.3262 15.6904 17.1104 14.8134C17.002 14.3749 16.7305 14.0058 16.3458 13.7744Z" />
</svg>
