<svg width="24" height="24" viewBox="0 0 24 24" fill="none" xmlns="http://www.w3.org/2000/svg">
<path d="M13.5 6C14.3271 6 15 5.32715 15 4.5C15 3.67285 14.3271 3 13.5 3C12.6729 3 12 3.67285 12 4.5C12 5.32715 12.6729 6 13.5 6ZM13.5 4C13.7759 4 14 4.22412 14 4.5C14 4.77588 13.7759 5 13.5 5C13.2241 5 13 4.77588 13 4.5C13 4.22412 13.2241 4 13.5 4ZM15.5 16.0088C15.231 15.9565 14.9653 16.1284 14.9106 16.3989C14.8794 16.5522 14.8398 16.7031 14.7939 16.8496C14.751 16.9863 14.7017 17.1206 14.6465 17.2515C13.9404 18.9214 12.313 20 10.5 20C8.01855 20 6 17.9814 6 15.5C6 14.8926 6.11914 14.3032 6.35352 13.7485C6.42725 13.5742 6.51172 13.4053 6.60596 13.2432C6.67822 13.1191 6.75586 12.9985 6.84033 12.8809L6.90625 12.791C7.07227 12.5703 7.02734 12.2568 6.80615 12.0913C6.58594 11.9263 6.27246 11.9702 6.10645 12.1914L6.02588 12.3003C5.9248 12.4419 5.82959 12.5889 5.7417 12.7407C5.62598 12.9395 5.52295 13.1455 5.43262 13.3589C5.14551 14.0376 5 14.7583 5 15.5C5 18.5327 7.46729 21 10.5 21C12.7153 21 14.7046 19.6816 15.5674 17.6411C15.6353 17.481 15.6953 17.3174 15.748 17.1494C15.8047 16.9697 15.8521 16.7856 15.8901 16.5981C15.9453 16.3276 15.7705 16.0635 15.5 16.0088ZM18.5 18H17.9097L16.9902 13.4019C16.9434 13.1685 16.7383 13 16.5 13H12.1135L12.9517 8.78662C13.0293 8.39697 12.9497 7.99902 12.728 7.66699C12.5063 7.33496 12.1694 7.10889 11.7637 7.02881C11.4597 6.96765 11.1486 7.00763 10.8675 7.13379C10.8617 7.1366 10.8553 7.13611 10.8496 7.13916L7.26416 9.05908C7.03955 9.1792 6.94141 9.44922 7.03564 9.68555L9.03564 14.6855C9.11377 14.8813 9.30176 15 9.5 15C9.56201 15 9.625 14.9888 9.68555 14.9644C9.94189 14.8618 10.0669 14.5708 9.96436 14.3145L8.13037 9.72949L11.2253 8.07239C11.3297 8.01013 11.451 7.98505 11.5845 8.01221C11.8506 8.06543 12.0239 8.3252 11.9712 8.59131L10.9927 13.5103L11.0024 13.5122C11.0093 13.7825 11.228 14 11.5 14H16.0903L17.0098 18.5981C17.0566 18.8315 17.2617 19 17.5 19H18.5C18.7764 19 19 18.7764 19 18.5C19 18.2236 18.7764 18 18.5 18Z" fill="#212121"/>
</svg>
