<svg width="24" height="24" viewBox="0 0 24 24" fill="none" xmlns="http://www.w3.org/2000/svg">
  <path d="M4 13.4962C4 14.0255 4.27441 14.4913 4.68945 14.7593C4.56836 14.9756 4.5 15.2256 4.5 15.4918C4.5 16.0272 4.78339 16.4946 5.20264 16.7604C5.07733 16.9794 5 17.2293 5 17.4991C5 18.3262 5.67285 18.9996 6.5 18.9996H12.5C12.8975 18.9996 13.4824 18.8023 14.3984 18.4776C14.999 18.2647 15.7471 17.9996 16.0205 17.9996H17.2362C17.4541 18.5416 17.8724 18.9996 18.6934 18.9996H19.5C19.7764 18.9996 20 18.7759 20 18.4996C20 18.2232 19.7764 17.9996 19.5 17.9996H18.6934C18.4512 17.9996 18 17.9996 18 16.4239V9.99957H19.5C19.7764 9.99957 20 9.77594 20 9.49957C20 9.22321 19.7764 8.99957 19.5 8.99957H17.5C17.2236 8.99957 17 9.22321 17 9.49957V9.99957H16.0986C15.2725 9.99957 14.4805 9.41803 13.9258 8.40485C13.2773 7.21686 13.252 6.38971 13.2324 5.72516C13.2158 5.15631 13.1929 4.646 12.7105 4.25049C12.5074 4.08447 12.2564 4 11.9888 4C11.8043 4 11.6109 4.04053 11.4205 4.12256C10.7896 4.396 10.0898 5.15289 9.99707 6.53375C9.91968 7.71759 9.99406 8.72065 9.99406 9.3786C9.74375 9.68286 8.54083 9.97534 7 9.99957H6C5.17285 9.99957 4.5 10.6729 4.5 11.5005C4.5 11.7676 4.56836 12.0172 4.68848 12.2335C4.27246 12.4986 4 12.9634 4 13.4962ZM5.47363 12.9996H5.97266C6.24609 12.9996 6.46875 12.7798 6.47266 12.5064C6.47656 12.233 6.25977 12.0074 5.98633 11.9996C5.71387 11.9922 5.5 11.773 5.5 11.5005C5.5 11.2242 5.72461 10.9996 6 10.9996H7.00781C8.60718 10.9752 10.9081 10.7383 11.0072 9.45764C11.0093 9.44373 10.9951 7.83896 10.9951 6.59967C10.9951 5.72515 11.4468 5.20117 11.8179 5.04053C11.9273 4.99268 12.0298 4.98486 12.0757 5.02393C12.1959 5.12207 12.2188 5.27252 12.2334 5.75494C12.2539 6.4444 12.2842 7.4859 13.0488 8.88434C14.0928 10.7935 15.5293 10.9996 16.0986 10.9996H17V16.4239C17 16.563 17.0029 16.7701 17.0206 16.9996H16.0205C15.6045 16.9996 15.0039 17.2017 14.0645 17.5352C13.4805 17.7422 12.7549 17.9996 12.5 17.9996H6.5C6.22461 17.9996 6 17.775 6 17.4991C6 17.2237 6.22461 16.9996 6.5 16.9996C6.77637 16.9996 7 16.7759 7 16.4996C7 16.2232 6.77637 15.9996 6.5 15.9996C6.44867 15.9996 6 15.9932 6 15.9932C5.72461 15.9932 5.5 15.7681 5.5 15.4918C5.5 15.2222 5.71191 15.003 5.98145 14.9927C6.25488 14.9825 6.46973 14.754 6.46289 14.4805C6.45605 14.2066 6.19531 13.9581 5.95605 13.9932L5.5 13.9996C5.22461 13.9996 5 13.7735 5 13.4962C5 13.2247 5.21387 13.0064 5.47363 12.9996Z" fill="#1D1D1B"/>
</svg>

