<svg  viewBox="0 0 24 24"  xmlns="http://www.w3.org/2000/svg">
<path fill-rule="evenodd" clip-rule="evenodd" d="M13.2589 2.00482C15.1276 2.07416 16.8575 2.86615 18.1295 4.23725C19.6313 5.85431 20.2165 7.99695 19.9172 10.027L19.9171 10.0302C19.6924 11.5494 18.9735 13.0057 17.7633 14.1298C16.4181 15.3788 14.7086 15.997 13.003 15.997C11.1227 15.997 9.24767 15.246 7.87072 13.7626C5.24895 10.9396 5.40905 6.51227 8.22271 3.88562C8.22347 3.88492 8.22396 3.88407 8.22445 3.88321C8.22493 3.88236 8.22542 3.8815 8.22619 3.8808C8.22664 3.88037 8.22718 3.88011 8.22771 3.87985C8.22825 3.8796 8.22878 3.87934 8.22924 3.87891C8.23058 3.87766 8.23183 3.87631 8.23308 3.87497C8.23433 3.87363 8.23559 3.87229 8.23693 3.87103C9.60705 2.59857 11.3946 1.91889 13.2589 2.00482ZM17.03 4.55853C16.0365 3.65473 14.7834 3.11951 13.4351 3.02216C13.3561 3.45441 13.1872 3.90021 12.9543 4.34058C13.8252 4.78681 14.6477 5.37653 15.3838 6.09381L17.03 4.55853ZM15.387 10.8262C15.7991 10.4759 16.2662 10.1321 16.7576 9.83173C16.4156 9.01319 15.9355 8.22571 15.334 7.50647L13.7065 9.02423L15.387 10.8262ZM13.0251 8.29352L14.6537 6.77472C13.9762 6.11878 13.2251 5.58216 12.4308 5.18353C12.0969 5.65955 11.7219 6.10596 11.3451 6.49207L13.0251 8.29352ZM10.6665 10.4932L12.2939 8.97547L10.6133 7.17334C10.2054 7.5177 9.73552 7.85803 9.23784 8.15662C9.58013 8.97919 10.062 9.77063 10.6665 10.4932ZM12.0416 3.93183C12.2062 3.63068 12.3298 3.33521 12.4056 3.05487C11.7799 3.1164 11.1751 3.26447 10.606 3.51337C11.089 3.6081 11.5683 3.75006 12.0416 3.93183ZM10.6631 5.76074C10.9537 5.45966 11.2378 5.12555 11.4946 4.7782C10.7969 4.53192 10.0817 4.39905 9.3695 4.3736L10.6631 5.76074ZM8.90093 7.19849C9.26397 6.96692 9.61406 6.70783 9.93139 6.44202L8.64373 5.06128C8.61821 5.76343 8.7025 6.48346 8.90093 7.19849ZM8.01171 7.68872C7.86144 7.19776 7.75274 6.70368 7.69317 6.20954C7.39989 6.76636 7.19603 7.36664 7.0905 7.99512C7.38323 7.93952 7.69396 7.83429 8.01171 7.68872ZM8.35436 8.62403C7.9002 8.82465 7.44469 8.95642 7.00719 9.00855C7.0078 10.3621 7.45452 11.6529 8.28942 12.7101L9.93584 11.1746C9.27172 10.3891 8.73949 9.52558 8.35436 8.62403ZM8.98986 13.423C10.0155 14.3518 11.2806 14.8765 12.5867 14.9669C12.6792 14.548 12.8454 14.1122 13.0719 13.6789C12.1914 13.2294 11.3598 12.6315 10.6164 11.9061L8.98986 13.423ZM12.9753 9.70612L11.3476 11.2242C12.0303 11.8824 12.7931 12.4207 13.5964 12.8201C13.9226 12.3427 14.2873 11.8941 14.6568 11.5092L12.9753 9.70612ZM13.9911 14.0894C13.8317 14.3886 13.709 14.6759 13.626 14.9432C14.2242 14.8812 14.8085 14.7276 15.3707 14.4857C14.907 14.3939 14.4462 14.2626 13.9911 14.0894ZM15.3396 12.2414C15.0452 12.5508 14.7706 12.8824 14.529 13.2213C15.2267 13.4673 15.9356 13.6002 16.631 13.6261L15.3396 12.2414ZM17.099 10.8C16.7427 11.0291 16.391 11.2856 16.068 11.5565L17.3567 12.9384C17.3821 12.2358 17.2977 11.5154 17.099 10.8ZM17.9866 10.3046C18.1343 10.7858 18.2434 11.2701 18.3039 11.7546C18.5942 11.1939 18.7887 10.6019 18.8908 9.99018C18.6129 10.0435 18.3054 10.1556 17.9866 10.3046ZM16.0649 6.82483C16.7253 7.60639 17.2553 8.46491 17.6399 9.36151C18.0951 9.15729 18.5491 9.01532 18.9784 8.97125C18.9727 7.6731 18.5412 6.38684 17.6922 5.30719L16.0649 6.82483Z" />
<path fill-rule="evenodd" clip-rule="evenodd" d="M12.9941 17C15.1294 17 17.1367 16.168 18.6465 14.6582C18.8418 14.4629 19.1582 14.4629 19.3535 14.6582C19.5488 14.8535 19.5488 15.1699 19.3535 15.3652C17.6571 17.0621 15.4026 17.9969 13.0039 17.9995V19.0209C16.4042 19.2037 17.4117 21.1976 17.4546 21.2861C17.5288 21.4414 17.5186 21.623 17.4272 21.7686C17.3359 21.915 17.1758 22.0029 17.0039 22.0029H8.00391C7.83203 22.0029 7.67188 21.915 7.58057 21.7686C7.48926 21.623 7.479 21.4414 7.55322 21.2861C7.59607 21.1976 8.60364 19.2037 12.0039 19.0209V17.9422C9.97607 17.7213 8.09717 16.8286 6.63428 15.3652C4.93555 13.667 4 11.4082 4 9.00586C4 6.60352 4.93555 4.3457 6.63428 2.64648C6.82959 2.45117 7.146 2.45117 7.34131 2.64648C7.53662 2.8418 7.53662 3.1582 7.34131 3.35352C5.83154 4.86328 5 6.87109 5 9.00586C5 11.1416 5.83154 13.1484 7.34131 14.6582C8.85107 16.168 10.8584 17 12.9941 17ZM9.08984 21.0029H15.9185C15.3345 20.5322 14.2827 20.0029 12.5039 20.0029C10.7261 20.0029 9.6748 20.5312 9.08984 21.0029Z" />
</svg>
