<svg  viewBox="0 0 24 24"  xmlns="http://www.w3.org/2000/svg">
<path fill-rule="evenodd" clip-rule="evenodd" d="M17.0469 4.32078C17.1348 4.09812 17.3662 3.97117 17.6055 4.01511C17.8408 4.06052 18.0107 4.26658 18.0107 4.50632V18.5068C18.0107 18.7461 17.8408 18.9521 17.6055 18.998C17.5732 19.0039 17.542 19.0068 17.5107 19.0068C17.3096 19.0068 17.124 18.8847 17.0469 18.6924C16.0693 16.249 13.8848 15.0107 10.5547 15.0107H9.02643L10.1211 19.3877C10.1582 19.5371 10.125 19.6953 10.0303 19.8164C9.93555 19.9375 9.79004 20.0088 9.63574 20.0088H7.39062C7.16113 20.0088 6.96094 19.8525 6.90527 19.6299L5.75006 15.0107H4.5C4.22363 15.0107 4 14.7871 4 14.5107V13.9922H2.5C2.22363 13.9922 2 13.7685 2 13.4922V9.49363C2 9.21726 2.22363 8.99363 2.5 8.99363H4V8.51121C4 8.23484 4.22363 8.01121 4.5 8.01121H10.5547C13.8828 8.01121 16.0674 6.76951 17.0469 4.32078ZM3 12.9922H4V9.99363H3V12.9922ZM5 13.497V14.0107H8V9.01121H5V9.48881L5.00098 9.49363V13.4922L5.00049 13.4946L5.0002 13.4955L5 13.497ZM6.78125 15.0107L7.78125 19.0088H8.99512L7.99512 15.0107H6.78125ZM10.5547 14.0107C13.4932 14.0107 15.6562 14.8877 17.0107 16.6211V6.39402C15.6553 8.1323 13.4922 9.01121 10.5547 9.01121H9V14.0107H10.5547Z" />
<path d="M19.7637 8.42779C19.6855 8.47272 19.6006 8.49371 19.5156 8.49371C19.3428 8.49371 19.1738 8.40338 19.081 8.24176C18.9443 8.00201 19.0273 7.69635 19.2676 7.55963L21.0176 6.55963C21.2539 6.42194 21.5615 6.50445 21.7002 6.74567C21.8369 6.98541 21.7539 7.29108 21.5137 7.42779L19.7637 8.42779Z" />
<path d="M21.5137 15.5908L19.7637 14.5908C19.5264 14.457 19.2187 14.5371 19.081 14.7773C18.9443 15.0165 19.0273 15.3222 19.2676 15.4599L21.0176 16.4599C21.0957 16.5039 21.1807 16.5253 21.2656 16.5253C21.4385 16.5253 21.6074 16.4345 21.7002 16.2734C21.8369 16.0341 21.7539 15.7285 21.5137 15.5908Z" />
<path d="M19.5156 11.0044H21.5156C21.792 11.0044 22.0156 11.228 22.0156 11.5044C22.0156 11.7808 21.792 12.0044 21.5156 12.0044H19.5156C19.2393 12.0044 19.0156 11.7808 19.0156 11.5044C19.0156 11.228 19.2393 11.0044 19.5156 11.0044Z" />
</svg>
