<svg viewBox="0 0 24 24"  xmlns="http://www.w3.org/2000/svg">
<path d="M14.765 9.076C14.6893 9.0287 14.6023 9.00251 14.5131 9.00017C14.4239 8.99783 14.3357 9.01941 14.2576 9.06268C14.1796 9.10594 14.1145 9.16932 14.0692 9.24622C14.0239 9.32312 14 9.41075 14 9.5V14.5C14 14.5893 14.0239 14.6769 14.0692 14.7538C14.1145 14.8307 14.1796 14.8941 14.2576 14.9373C14.3357 14.9806 14.4239 15.0022 14.5131 14.9998C14.6023 14.9975 14.6893 14.9713 14.765 14.924L18.765 12.424C18.8369 12.3791 18.8962 12.3166 18.9373 12.2424C18.9784 12.1682 19 12.0848 19 12C19 11.9152 18.9784 11.8318 18.9373 11.7576C18.8962 11.6834 18.8369 11.6209 18.765 11.576L14.765 9.076ZM15 13.598V10.402L17.557 12L15 13.598ZM19.5 6H14V3.5C14 2.773 13.475 2 12.5 2H4.5C3.525 2 3 2.773 3 3.5V10.5C3 11.227 3.525 12 4.5 12H7V19.5C7 20.148 6.835 20.595 6.509 20.828C6.278 20.992 6.036 20.999 6.022 21H6C5.985 21 5.972 21.007 5.957 21.009C5.9052 21.0091 5.85392 21.0193 5.806 21.039L5.8 21.043C5.74593 21.0668 5.6965 21.1 5.654 21.141C5.629 21.166 5.612 21.197 5.593 21.226C5.577 21.25 5.557 21.27 5.545 21.296C5.53 21.33 5.527 21.368 5.519 21.406C5.514 21.432 5.501 21.456 5.5 21.484C5.50067 21.4873 5.501 21.4903 5.501 21.493L5.5 21.5C5.5 21.53 5.512 21.554 5.517 21.582C5.523 21.618 5.524 21.655 5.537 21.687C5.549 21.717 5.57 21.739 5.587 21.765C5.605 21.793 5.619 21.823 5.642 21.847C5.664 21.87 5.693 21.885 5.72 21.903C5.746 21.921 5.769 21.943 5.798 21.956C5.83 21.97 5.867 21.973 5.902 21.98C5.93 21.986 5.955 21.999 5.984 22H11.004L11.016 21.999C11.041 21.999 11.062 21.987 11.086 21.983C11.126 21.975 11.166 21.972 11.202 21.956C11.22 21.948 11.233 21.934 11.25 21.924C11.29 21.9 11.328 21.877 11.36 21.844L11.361 21.842C11.4294 21.7718 11.4754 21.6829 11.4933 21.5865C11.5112 21.4901 11.5001 21.3906 11.4615 21.3005C11.4229 21.2104 11.3584 21.1338 11.2763 21.0803C11.1942 21.0268 11.098 20.9989 11 21H10.992C10.761 20.9898 10.5421 20.8939 10.378 20.731C10.127 20.481 10 20.066 10 19.5V12H12V17.5C12 18.383 12.617 19 13.5 19H14V19.5C14 20.148 13.835 20.595 13.509 20.828C13.278 20.992 13.036 20.999 13.022 21H13C12.985 21 12.973 21.007 12.958 21.008C12.8432 21.013 12.7344 21.0608 12.653 21.142C12.631 21.164 12.617 21.192 12.599 21.216C12.581 21.243 12.559 21.266 12.545 21.296C12.53 21.329 12.527 21.366 12.52 21.403C12.514 21.43 12.5 21.456 12.5 21.484C12.5007 21.4867 12.501 21.4897 12.501 21.493L12.5 21.5C12.5 21.53 12.512 21.554 12.517 21.582C12.523 21.618 12.524 21.655 12.537 21.687C12.549 21.717 12.57 21.739 12.587 21.765C12.605 21.793 12.619 21.823 12.642 21.847C12.664 21.87 12.693 21.885 12.72 21.903C12.746 21.921 12.769 21.943 12.798 21.956C12.83 21.97 12.867 21.973 12.902 21.98C12.93 21.986 12.955 21.999 12.984 22H20.004L20.016 21.999C20.041 21.999 20.062 21.987 20.086 21.983C20.126 21.975 20.166 21.972 20.202 21.956C20.22 21.948 20.233 21.934 20.25 21.924C20.29 21.9 20.328 21.877 20.36 21.844L20.361 21.842C20.4294 21.7718 20.4754 21.6829 20.4933 21.5865C20.5112 21.4901 20.5001 21.3906 20.4615 21.3005C20.4229 21.2104 20.3584 21.1338 20.2763 21.0803C20.1942 21.0268 20.098 20.9989 20 21H19.992C19.761 20.9898 19.5421 20.8939 19.378 20.731C19.127 20.481 19 20.066 19 19.5V19H19.5C20.383 19 21 18.383 21 17.5V7.5C21 6.617 20.383 6 19.5 6ZM7.65 21C7.879 20.599 8 20.1 8 19.5V12H9V19.5C9 20.1 9.121 20.599 9.35 21H7.65ZM12 7.5V11H4.5C4.006 11 4 10.52 4 10.5V3.5C4 3.48 4.006 3 4.5 3H12.5C12.994 3 13 3.48 13 3.5V6.08C12.395 6.268 12 6.797 12 7.5ZM14.65 21C14.879 20.599 15 20.1 15 19.5V19H18V19.5C18 20.1 18.121 20.599 18.35 21H14.65ZM20 17.5C19.9993 17.8327 19.8327 17.9993 19.5 18H13.5C13.1673 17.9993 13.0007 17.8327 13 17.5V7.5C13.0007 7.16733 13.1673 7.00067 13.5 7H19.5C19.8327 7.00067 19.9993 7.16733 20 7.5V17.5ZM6.765 4.076C6.68931 4.0287 6.60235 4.00251 6.51312 4.00017C6.4239 3.99783 6.33568 4.01941 6.25762 4.06268C6.17955 4.10594 6.11449 4.16932 6.06919 4.24622C6.02389 4.32312 6 4.41075 6 4.5V9.5C6 9.58925 6.02389 9.67688 6.06919 9.75378C6.11449 9.83068 6.17955 9.89406 6.25762 9.93732C6.33568 9.98059 6.4239 10.0022 6.51312 9.99983C6.60235 9.99749 6.68931 9.9713 6.765 9.924L10.765 7.424C10.8369 7.37905 10.8962 7.31656 10.9373 7.24238C10.9784 7.16821 11 7.0848 11 7C11 6.9152 10.9784 6.83179 10.9373 6.75762C10.8962 6.68344 10.8369 6.62095 10.765 6.576L6.765 4.076ZM7 8.598V5.402L9.557 7L7 8.598Z"/>
</svg>
