<svg  viewBox="0 0 24 24"  xmlns="http://www.w3.org/2000/svg">
<path d="M20.4878 5.99121H11.8687C11.8047 5.99121 11.7446 6.00567 11.6884 6.02752L6.79395 2.46679C6.64209 2.35644 6.44141 2.33984 6.27295 2.42578C6.10547 2.51074 6 2.68261 6 2.87109V5.99841C5.98761 5.99749 5.97699 5.99121 5.96436 5.99121H3.51221C3.23584 5.99121 3.01221 6.21484 3.01221 6.49121V18.4971C3.01221 18.7734 3.23584 18.9971 3.51221 18.9971H20.4878C20.7642 18.9971 20.9878 18.7734 20.9878 18.4971V6.49121C20.9878 6.21484 20.7642 5.99121 20.4878 5.99121ZM4.01221 17.9971V6.99121H5.96436C5.97699 6.99121 5.98761 6.98492 6 6.984V14.8066C6 14.9648 6.0752 15.1143 6.20215 15.208L9.96283 17.9971H4.01221ZM10.9761 17.5039L7 14.5547V3.85351L10.9761 6.74609V17.5039ZM19.9878 17.9971H11.9761V6.99121H19.9878V17.9971Z" />
<path d="M20.4878 19.9912H13.3447C13.1831 19.9912 13.0034 20.1084 12.9097 20.2402C12.7466 20.4697 12.5615 20.7295 11.8687 20.7295C11.1904 20.7295 11.0015 20.4736 10.7905 20.1885C10.6958 20.0645 10.5488 19.9912 10.3926 19.9912H3.521C3.24463 19.9912 3.021 20.2148 3.021 20.4912C3.021 20.7676 3.24463 20.9912 3.521 20.9912H10.1445C10.3945 21.2979 10.8652 21.7295 11.8687 21.7295C12.8535 21.7295 13.3262 21.3213 13.5947 20.9912H20.4878C20.7642 20.9912 20.9878 20.7676 20.9878 20.4912C20.9878 20.2148 20.7642 19.9912 20.4878 19.9912Z" />
</svg>
