<svg xmlns="http://www.w3.org/2000/svg" viewBox="0 0 32 32"><path d="M29.139 26.086c-.688-2.261-4.82-3.673-7.976-4.138l-.01-.002h-.005a16.378 16.378 0 0 0-1.184-.133l.003-2.077c.528-.784.902-1.775 1.099-2.956.247-.096.527-.315.782-.775.23-.414.412-.972.513-1.571.133-.789.159-2.202-.313-2.863l-.042-.055c.037-1.198.004-3.897-1.715-5.688-1.029-1.072-2.473-1.616-4.292-1.616s-3.263.544-4.292 1.616c-1.719 1.791-1.752 4.491-1.715 5.688a1.315 1.315 0 0 0-.042.055c-.472.662-.445 2.075-.312 2.863.101.599.283 1.156.512 1.57.254.459.533.678.782.774.197 1.182.572 2.174 1.1 2.958l.003 2.078c-3.193.239-8.396 1.711-9.175 4.274-.361 1.188-.107 2.641-.096 2.702a.667.667 0 0 0 1.312-.234c-.002-.012-.208-1.202.059-2.079.402-1.322 3.362-2.585 6.237-3.109.592 2.597 2.898 4.481 5.627 4.481s5.035-1.884 5.627-4.481c2.874.524 5.834 1.787 6.237 3.109.267.876.061 2.067.059 2.079a.667.667 0 0 0 1.313.234c.011-.061.265-1.514-.096-2.702zM11.672 15.442a.66.66 0 0 0-.309-.004c-.129-.205-.31-.631-.41-1.226-.123-.732-.052-1.465.041-1.765a.689.689 0 0 0 .325-.457.684.684 0 0 0 .019-.186l-.003-.065c-.035-.854-.142-3.452 1.334-4.99.768-.8 1.888-1.206 3.33-1.206 1.442 0 2.563.406 3.331 1.206 1.477 1.539 1.369 4.137 1.334 4.99l-.003.065a.654.654 0 0 0 .019.187.692.692 0 0 0 .325.456c.093.3.164 1.033.041 1.765-.1.595-.281 1.022-.41 1.226a.665.665 0 0 0-.804.548l-.015.117c-.117.987-.366 1.835-.738 2.521-.676 1.244-1.683 1.848-3.079 1.848-1.396 0-2.402-.605-3.078-1.848-.372-.685-.621-1.534-.738-2.521a2.528 2.528 0 0 0-.015-.118.666.666 0 0 0-.496-.543zM16 26.513a4.428 4.428 0 0 1-4.301-3.336 13.05 13.05 0 0 1 1.019-.064.667.667 0 0 0 .652-.668l-.002-1.376c.742.482 1.626.735 2.632.735 1.006 0 1.89-.253 2.632-.735l-.002 1.376a.667.667 0 0 0 .653.668c.328.007.67.029 1.019.064a4.428 4.428 0 0 1-4.301 3.336z"/></svg>