<svg  viewBox="0 0 24 24"  xmlns="http://www.w3.org/2000/svg">
<path d="M19.7899 12.8672C19.7899 12.8665 19.7901 12.8657 19.7901 12.8649C19.6462 11.8297 19.2799 11.1373 18.6708 10.7496C17.7309 10.15 16.4657 10.4684 15.3547 10.8112C13.4906 11.3844 13.3223 11.0104 12.2093 8.52014C11.6538 7.27795 10.5008 6.64905 8.97514 6.73987C7.62131 6.82373 6.23603 7.48218 5.71684 8.23193C5.68758 8.22949 5.66514 8.21045 5.63417 8.2135C5.52443 8.14319 5.29617 7.92053 5.24496 7.62561C5.20009 7.36682 5.31617 7.12268 5.60003 6.88147C5.81024 6.70276 5.83609 6.38733 5.6571 6.17737C5.47956 5.96545 5.16449 5.94006 4.9533 6.11975C4.03002 6.90491 4.13001 7.85217 4.53141 8.47815C4.63274 8.63574 4.76186 8.77515 4.89989 8.89673C4.08928 9.71924 3.80835 10.8843 4.13049 12.1696C4.71772 14.5153 7.36123 17.3082 11.1026 17.8629C11.7494 17.9596 12.3561 18.0026 12.9258 18.0026C16.5121 18.0026 18.603 16.2838 19.5906 15.15C20.0152 14.6626 20.1555 13.6348 19.7899 12.8672ZM9.03708 7.73791C9.80769 7.68713 10.8193 7.85901 11.3177 8.97327C12.4307 11.4645 12.9389 12.6022 15.6493 11.7662C16.6135 11.4703 17.5831 11.2418 18.1343 11.5934C18.2513 11.668 18.3496 11.7836 18.4388 11.9177C17.9616 11.8542 17.3392 11.9239 16.5082 12.2799C14.846 12.9918 13.4891 13.1285 12.4775 12.6871C11.624 12.3141 10.968 11.5016 10.5276 10.2711C10.0394 8.90686 9.08341 8.36194 8.36742 8.14514C8.16331 8.08313 7.957 8.04712 7.75142 8.02185C8.13477 7.87756 8.5752 7.7666 9.03708 7.73791ZM18.838 14.4918C17.828 15.653 15.5025 17.5006 11.2489 16.8746C8.05674 16.4 5.61515 13.986 5.09913 11.9264C4.90843 11.1637 4.88941 10.1002 5.88487 9.35998H5.88535C6.13507 9.17444 6.67499 8.98791 7.28466 8.98791C7.54218 8.98791 7.81238 9.02112 8.0782 9.10217C8.80004 9.32092 9.30777 9.82776 9.58724 10.609C10.1237 12.109 10.9622 13.1168 12.0781 13.6041C13.3535 14.1598 14.9747 14.025 16.9013 13.1998C17.4534 12.9635 18.4357 12.6451 18.819 13.1735C19.1204 13.5885 18.9868 14.3219 18.838 14.4918Z" />
</svg>
