<svg viewBox="0 0 24 24" xmlns="http://www.w3.org/2000/svg">
<path d="M22.5742 11.5845C22.1037 11.114 21.3425 11.0673 20.7869 11.3666C20.9224 10.765 21 10.1419 21 9.5C21 4.81299 17.187 1 12.5 1C12.3749 1 12.2531 1.01343 12.1293 1.0188C12.1072 1.01843 12.0888 1.0094 12.0654 1.01221C12.0464 1.01276 12.0305 1.02209 12.012 1.02472C8.32747 1.23547 5.26961 3.79651 4.31618 7.23346C4.31325 7.24347 4.31087 7.25299 4.30855 7.26312C4.11329 7.97717 4.00001 8.72485 4.00001 9.5C4.00001 11.0242 4.40864 12.4525 5.11403 13.6907C4.67622 13.894 4.30397 14.1104 4.04243 14.3024C3.97743 14.2748 3.92348 14.2286 3.85402 14.21C3.46632 14.1045 3.06203 14.1587 2.71583 14.3584L1.27247 15.1919C1.03322 15.3301 0.951185 15.6357 1.08937 15.875L5.08937 22.8032C5.15578 22.918 5.26515 23.002 5.39308 23.0361C5.43556 23.0474 5.47902 23.0532 5.52247 23.0532C5.60939 23.0532 5.69581 23.0303 5.77247 22.9863L7.21583 22.1528C7.65028 21.9023 7.90852 21.4649 7.95491 21H13C14.875 21 18.4741 18.2334 18.8721 17.834L22.5747 13.7056C23.1587 13.1201 23.1587 12.1689 22.5742 11.5845ZM20 9.5C20 10.6255 19.7438 11.6898 19.2977 12.6487L17.5094 14.2971L16.4204 10.6206C16.3789 10.481 16.2788 10.3667 16.1465 10.3066L14.7495 9.67725L15.6309 7.896H19.8231C19.9364 8.41339 20 8.9491 20 9.5ZM16.5953 3.22467C17.4819 3.80524 18.2359 4.56818 18.809 5.46008L15.9448 4.49512L16.5953 3.22467ZM12.2847 3.8335C12.5015 3.76807 12.647 3.56543 12.6397 3.33887L12.5972 2.00494C13.715 2.01935 14.7712 2.2829 15.7208 2.73706L14.7901 4.55566C14.7241 4.68555 14.7173 4.8374 14.7725 4.97217C14.8272 5.10693 14.938 5.21094 15.0757 5.25732L19.2217 6.6543L19.2788 6.896H15.3203C15.1304 6.896 14.9566 7.00391 14.8721 7.17432L13.6231 9.69873C13.563 9.82031 13.5547 9.96143 13.6006 10.0889C13.6465 10.2168 13.7422 10.3203 13.8657 10.3765L15.5264 11.1245L16.4965 14.3996C16.2302 14.1581 15.8869 14 15.5 14H12.6963C12.4302 14 12.1636 13.8779 11.7949 13.709C11.31 13.4868 10.6907 13.2045 9.76747 13.0734L11.7227 10.1616C11.813 10.0269 11.8325 9.85645 11.7749 9.70508C11.7173 9.55322 11.5899 9.43896 11.4326 9.39844L8.83449 8.72852L11.9302 5.44873C12.0318 5.34131 12.0801 5.19385 12.063 5.04688C12.0459 4.90039 11.9644 4.76855 11.8403 4.6875L11.0899 4.19531L12.2847 3.8335ZM8.61226 13H8.08858L7.57472 9.38916C7.62941 9.43359 7.69386 9.4668 7.76466 9.48535L10.4985 10.1904L8.61226 13ZM11.599 2.05951L11.6284 2.9873L9.77589 3.54785C9.58986 3.604 9.45314 3.7627 9.42531 3.95508C9.39796 4.14697 9.4839 4.33789 9.6465 4.44434L10.793 5.19629L7.52589 8.65771C7.48732 8.69922 7.45607 8.74609 7.43361 8.79639C7.4048 8.75635 7.37062 8.72021 7.33058 8.68994L5.36958 7.18518C6.25795 4.45557 8.67036 2.41235 11.599 2.05951ZM5.00001 9.5C5.00001 9.07269 5.0442 8.65631 5.11317 8.24835L6.56007 9.35889L7.08967 13.0801C6.73341 13.1365 6.38673 13.2182 6.05861 13.3221C5.39088 12.2012 5.00001 10.897 5.00001 9.5ZM6.71583 21.2866L5.70558 21.8701L2.20558 15.8081L3.21583 15.2246C3.45558 15.085 3.76076 15.1694 3.89894 15.4077L6.89894 20.6035C7.03663 20.8423 6.9546 21.1489 6.71583 21.2866ZM21.8486 13.0181L18.1465 17.1465C17.6719 17.6206 14.3433 20 13 20H7.74953L6.52815 17.9611L4.81087 14.9868C5.44697 14.5794 6.72322 14 7.9839 14H8.68947C10.0293 14 10.7774 14.3428 11.3784 14.6182C11.7481 14.7871 12.1001 14.9487 12.5 14.9897L15.5 15C15.7759 15 16 15.2241 16 15.5C16 15.7759 15.7759 16 15.5 16H10.5C10.2236 16 10 16.2236 10 16.5C10 16.7764 10.2236 17 10.5 17H15.5C15.999 17 16.4414 16.7554 16.7144 16.3794C16.7388 16.3638 16.7622 16.3457 16.7842 16.3257L21.1607 12.2915C21.3472 12.104 21.6797 12.104 21.8672 12.2915C22.062 12.4863 22.062 12.8037 21.8486 13.0181Z"/>
</svg>
