<svg width="24" height="24" viewBox="0 0 24 24" fill="none" xmlns="http://www.w3.org/2000/svg">
<path d="M21.8535 21.1465L18.7239 18.0169C19.5198 17.0627 20 15.8367 20 14.5C20 11.9878 18.3051 9.86841 15.9998 9.21326V2.49988C15.9998 2.22351 15.7762 1.99988 15.4998 1.99988H12.4998C12.2234 1.99988 11.9998 2.22351 11.9998 2.49988V9.60718C11.6429 9.79028 11.3063 10.0073 10.9998 10.2608V6.49988C10.9998 6.22351 10.7762 5.99988 10.4998 5.99988H7.49982C7.22345 5.99988 6.99982 6.22351 6.99982 6.49988V17.4999C6.99982 17.7762 7.22345 17.9999 7.49982 17.9999H10.2605C11.2701 19.2207 12.7955 20 14.4995 20C15.8365 20 17.0626 19.5197 18.0168 18.7239L21.1465 21.8535C21.2441 21.9512 21.3721 22 21.5 22C21.6279 22 21.7559 21.9512 21.8535 21.8535C22.0488 21.6582 22.0488 21.3418 21.8535 21.1465ZM12.9998 2.99988H14.9998V9.02533C14.8348 9.01038 14.6684 9 14.4995 9C13.9791 9 13.4773 9.07745 12.9998 9.2132V2.99988ZM9.99982 11.3478C9.37195 12.2415 9 13.3273 9 14.5C9 15.4006 9.2218 16.2488 9.60712 16.9999H7.99982V6.99988H9.99982V11.3478ZM14.4995 19C12.0186 19 10 16.9814 10 14.5C10 12.0186 12.0186 10 14.4995 10C16.981 10 19 12.0186 19 14.5C19 16.9814 16.981 19 14.4995 19ZM5.49982 9.99988H2.49982C2.22345 9.99988 1.99982 10.2235 1.99982 10.4999V17.4999C1.99982 17.7762 2.22345 17.9999 2.49982 17.9999H5.49982C5.77618 17.9999 5.99982 17.7762 5.99982 17.4999V10.4999C5.99982 10.2235 5.77618 9.99988 5.49982 9.99988ZM4.99982 16.9999H2.99982V10.9999H4.99982V16.9999Z" fill="#212121"/>
</svg>
