<svg  viewBox="0 0 24 24"  xmlns="http://www.w3.org/2000/svg">
<path d="M5.05322 11.6855C5.05322 12.3438 5.14453 12.9961 5.32471 13.623C5.40088 13.8877 5.24756 14.165 4.98242 14.2412C4.93604 14.2549 4.88965 14.2607 4.84375 14.2607C4.62646 14.2607 4.42676 14.1182 4.36377 13.8984C4.15771 13.1816 4.05322 12.4375 4.05322 11.6855C4.05322 7.27441 7.64209 3.68555 12.0532 3.68555C14.3254 3.68555 16.5038 4.63153 18.022 6.19934V3.2793C18.022 3.00293 18.2456 2.7793 18.522 2.7793C18.7983 2.7793 19.022 3.00293 19.022 3.2793V7.50488C19.022 7.78125 18.7983 8.00488 18.522 8.00488H14.2959C14.0195 8.00488 13.7959 7.78125 13.7959 7.50488C13.7959 7.22852 14.0195 7.00488 14.2959 7.00488H17.4124C16.08 5.57568 14.0765 4.68555 12.0532 4.68555C8.19336 4.68555 5.05322 7.82617 5.05322 11.6855Z" />
<path d="M19.0176 9.74805C19.2871 9.66992 19.5601 9.82519 19.6362 10.0908C19.8423 10.8076 19.9468 11.5518 19.9468 12.3037C19.9468 16.7148 16.3579 20.3037 11.9468 20.3037C9.7522 20.3037 7.55823 19.3505 6.02423 17.8164L6.02539 20.7207C6.02539 20.9971 5.80176 21.2207 5.52539 21.2207C5.24951 21.2207 5.02539 20.9971 5.02539 20.7207L5.02393 16.4951C5.02393 16.3623 5.07666 16.2353 5.17041 16.1416C5.23975 16.0723 5.32971 16.0347 5.42432 16.015C5.44232 16.0102 5.45953 16.0069 5.47778 16.0043C5.48483 16.0036 5.49159 16.0017 5.49834 15.9998C5.50671 15.9975 5.51507 15.9951 5.52393 15.9951H9.74951C10.0259 15.9951 10.2495 16.2187 10.2495 16.4951C10.2495 16.7715 10.0259 16.9951 9.74951 16.9951H6.60986C7.96045 18.4175 9.95441 19.3037 11.9468 19.3037C15.8066 19.3037 18.9468 16.1631 18.9468 12.3037C18.9468 11.6455 18.8555 10.9932 18.6753 10.3662C18.5991 10.1016 18.7524 9.82422 19.0176 9.74805Z" />
</svg>
