<svg viewBox="0 0 24 24" xmlns="http://www.w3.org/2000/svg">
<path d="M12 2.5C12 2.77637 11.7764 3 11.5 3C11.2236 3 11 2.77637 11 2.5V1.5C11 1.22363 11.2236 1 11.5 1C11.7764 1 12 1.22363 12 1.5V2.5Z" />
<path d="M8.99219 3.69922C9.08984 3.79687 9.21777 3.8457 9.3457 3.8457C9.47363 3.8457 9.60156 3.79687 9.69922 3.69922C9.89453 3.50391 9.89453 3.1875 9.69922 2.99219L8.99219 2.28516C8.79688 2.08984 8.48047 2.08984 8.28516 2.28516C8.08984 2.48047 8.08984 2.79687 8.28516 2.99219L8.99219 3.69922Z" />
<path fill-rule="evenodd" clip-rule="evenodd" d="M19 11.999V13.3877C19 15.7334 18.957 16.7441 18.501 18.0615C18.2687 18.6406 18.0656 19.6417 18.0137 20.243C18.5494 20.4626 19 20.8796 19 21.6934V22.5C19 22.7764 18.7764 23 18.5 23C18.2236 23 18 22.7764 18 22.5V21.6934C18 21.4512 18 21 16.4248 21H10V22.5C10 22.7764 9.77638 23 9.50001 23C9.22364 23 9.00001 22.7764 9.00001 22.5V20.5C9.00001 20.2236 9.22364 20 9.50001 20H10.5448L5.34229 12.4917C4.72657 11.6343 5.02052 10.7363 5.63184 10.2959C6.24513 9.85449 7.24073 9.86084 7.87745 10.7422L7.87354 10.7451C7.89845 10.7715 7.92335 10.8008 7.94874 10.8335L8.11891 11.0516C8.43542 11.4574 8.95617 12.1251 9.12257 12.3345C9.63136 12.978 9.83839 12.998 9.84669 12.9985C9.94434 12.9736 10 12.8057 10 12.5V5.5C10 4.51367 10.7525 3.99756 11.4951 3.99756C12.2246 3.99756 13 4.52441 13 5.5L12.999 8.50098C13.752 8.26611 14.7715 8.60449 14.9668 9.50684C15.1191 9.45996 15.2959 9.43359 15.5 9.43359C16.2666 9.43359 16.7813 9.82129 16.9443 10.4932C17.4971 10.2729 18.1357 10.4038 18.543 10.8091C18.751 11.0171 19 11.3921 19 11.999ZM11.7623 20H16.4248C16.5706 20 16.7888 20.0022 17.0321 20.0225C17.1111 19.2878 17.3345 18.2843 17.5645 17.7119C17.9639 16.5566 18 15.6582 18 13.3877V11.999C18 11.5464 17.7451 11.3853 17.5059 11.3853C17.2725 11.3853 17 11.5488 17 12.0103C17 12.2866 16.7764 12.5103 16.5 12.5103C16.2236 12.5103 16 12.2866 16 12.0103V10.9878C16 10.5581 15.8877 10.4336 15.5 10.4336C15.1777 10.4336 15 10.4336 15 11.5205C15 11.7969 14.7764 12.0205 14.5 12.0205C14.2236 12.0205 14 11.7969 14 11.5205V9.82812C14 9.44531 13.5859 9.42578 13.5029 9.42578C13.3555 9.42578 13.2188 9.46826 13.127 9.54297C13.044 9.60986 13.0029 9.69727 12.9985 9.81689L12.9981 11C12.9981 11.2764 12.7739 11.5 12.4981 11.5C12.2217 11.5 11.9981 11.2759 11.9981 11V9.83984C11.9981 9.82766 11.9981 9.81541 11.9985 9.80322L12 5.5C12 5.02197 11.5796 4.99756 11.4951 4.99756C11.3789 4.99756 11 5.03369 11 5.5V12.5C11 13.5869 10.4155 13.8896 10.0669 13.9727C9.37843 14.1387 8.78126 13.5156 8.33839 12.9551C8.15721 12.7268 7.55604 11.9559 7.25379 11.5683L7.07911 11.3442C6.77491 10.9248 6.42677 10.9551 6.21632 11.1074C6.01319 11.2534 5.89161 11.5425 6.15968 11.9155L11.7623 20Z" />
<path d="M8.5 6H7.5C7.22363 6 7 5.77637 7 5.5C7 5.22363 7.22363 5 7.5 5H8.5C8.77637 5 9 5.22363 9 5.5C9 5.77637 8.77637 6 8.5 6Z" />
<path d="M13.6582 3.84912C13.7861 3.84912 13.9141 3.80029 14.0117 3.70264L14.7188 2.99561C14.9141 2.80029 14.9141 2.48389 14.7188 2.28857C14.5234 2.09326 14.207 2.09326 14.0117 2.28857L13.3047 2.99561C13.1094 3.19092 13.1094 3.50732 13.3047 3.70264C13.4023 3.80029 13.5303 3.84912 13.6582 3.84912Z" />
<path d="M14.4707 6C14.1943 6 13.9707 5.77637 13.9707 5.5C13.9707 5.22363 14.1943 5 14.4707 5H15.4707C15.7471 5 15.9707 5.22363 15.9707 5.5C15.9707 5.77637 15.7471 6 15.4707 6H14.4707Z" />
</svg>
