<svg  viewBox="0 0 24 24"  xmlns="http://www.w3.org/2000/svg">
<path fill-rule="evenodd" clip-rule="evenodd" d="M10.5 11.0156C10.6406 11.0156 10.7578 10.9648 10.8516 10.8633C10.9219 10.7871 10.9658 10.7 10.9834 10.6018L10.9922 10.5V3.51562C10.9922 3.375 10.9453 3.25391 10.8516 3.15234C10.7578 3.05078 10.6406 3 10.5 3H3.49219C3.35156 3 3.23438 3.05078 3.14062 3.15234C3.07031 3.22852 3.02637 3.31567 3.00879 3.41382L3 3.51562V10.5C3 10.6406 3.04688 10.7617 3.14062 10.8633C3.21563 10.9445 3.30563 10.9933 3.41063 11.0095L3.49219 11.0156H10.5ZM20.5078 11.0156C20.6484 11.0156 20.7656 10.9648 20.8594 10.8633C20.9297 10.7871 20.9736 10.7 20.9912 10.6018L21 10.5V3.51562C21 3.375 20.9531 3.25391 20.8594 3.15234C20.7656 3.05078 20.6484 3 20.5078 3H13.5C13.3594 3 13.2422 3.05078 13.1484 3.15234C13.0781 3.22852 13.0342 3.31567 13.0166 3.41382L13.0078 3.51562V10.5C13.0078 10.6406 13.0547 10.7617 13.1484 10.8633C13.2234 10.9445 13.3134 10.9933 13.4184 11.0095L13.5 11.0156H20.5078ZM10.0078 10.0078H4.00781V4.00781H10.0078V10.0078ZM19.9922 10.0078H13.9922V4.00781H19.9922V10.0078ZM10.5 21C10.6406 21 10.7578 20.9531 10.8516 20.8594C10.9219 20.7891 10.9658 20.7056 10.9834 20.6089L10.9922 20.5078V13.5C10.9922 13.3594 10.9453 13.2422 10.8516 13.1484C10.7578 13.0547 10.6406 13.0078 10.5 13.0078H3.49219C3.35156 13.0078 3.23438 13.0547 3.14062 13.1484C3.07031 13.2188 3.02637 13.3022 3.00879 13.3989L3 13.5V20.5078C3 20.6484 3.04688 20.7656 3.14062 20.8594C3.21094 20.9297 3.29443 20.9736 3.39111 20.9912L3.49219 21H10.5ZM20.5078 21C20.6484 21 20.7656 20.9531 20.8594 20.8594C20.9297 20.7891 20.9736 20.7056 20.9912 20.6089L21 20.5078V13.5C21 13.3594 20.9531 13.2422 20.8594 13.1484C20.7656 13.0547 20.6484 13.0078 20.5078 13.0078H13.5C13.3594 13.0078 13.2422 13.0547 13.1484 13.1484C13.0781 13.2188 13.0342 13.3022 13.0166 13.3989L13.0078 13.5V20.5078C13.0078 20.6484 13.0547 20.7656 13.1484 20.8594C13.2188 20.9297 13.3022 20.9736 13.3989 20.9912L13.5 21H20.5078ZM10.0078 20.0156H4.00781V14.0156H10.0078V20.0156ZM19.9922 20.0156H13.9922V14.0156H19.9922V20.0156Z" />
</svg>
