<svg width="24" height="24" viewBox="0 0 24 24" fill="none" xmlns="http://www.w3.org/2000/svg">
<path d="M6 19C7.10303 19 8 18.103 8 17C8 16.4543 7.77936 15.96 7.42395 15.5989L10.6006 10.3037C10.6398 10.2385 10.6929 10.168 10.7 10.097C10.7439 9.89453 10.6298 9.67859 10.4429 9.56445C9.53955 9.01465 9 8.05566 9 7C9 5.3457 10.3457 4 12 4C13.6543 4 15 5.3457 15 7C15 7.27637 15.2236 7.5 15.5 7.5C15.7764 7.5 16 7.27637 16 7C16 4.79443 14.2056 3 12 3C9.79443 3 8 4.79443 8 7C8 8.24646 8.56531 9.38922 9.53003 10.1443L6.56274 15.0905C6.38306 15.0374 6.19672 15 6 15C4.89697 15 4 15.897 4 17C4 18.103 4.89697 19 6 19ZM6 16C6.55127 16 7 16.4487 7 17C7 17.5513 6.55127 18 6 18C5.44873 18 5 17.5513 5 17C5 16.4487 5.44873 16 6 16ZM18 19C19.103 19 20 18.103 20 17C20 15.897 19.103 15 18 15C17.2629 15 16.625 15.4051 16.2781 16H9.5C9.48492 16 9.41534 16.0017 9.39307 16.0049C9.12012 16.0444 8.93018 16.2979 8.96924 16.5713C8.98975 16.7109 9 16.854 9 17C9 18.6543 7.6543 20 6 20C4.3457 20 3 18.6543 3 17C3 16.1987 3.31201 15.4453 3.87842 14.8784C4.07373 14.6831 4.07373 14.3662 3.87842 14.1714C3.68311 13.9761 3.3667 13.9761 3.17139 14.1714C2.41602 14.9272 2 15.9316 2 17C2 19.2056 3.79443 21 6 21C8.20557 21 10 19.2056 10 17H16C16 18.103 16.897 19 18 19ZM18 16C18.5513 16 19 16.4487 19 17C19 17.5513 18.5513 18 18 18C17.4487 18 17 17.5513 17 17C17 16.4487 17.4487 16 18 16ZM18 13C17.442 13 16.8937 13.1185 16.3876 13.3413L13.424 8.40112C13.7794 8.03998 14 7.54572 14 7C14 5.89697 13.103 5 12 5C10.897 5 10 5.89697 10 7C10 8.10303 10.897 9 12 9C12.1967 9 12.3831 8.96265 12.5627 8.90948L15.7432 14.2109C15.7473 14.2178 15.7644 14.247 15.77 14.2563C15.9121 14.4927 16.2183 14.5684 16.4565 14.4272C16.9209 14.1475 17.4551 14 18 14C19.6543 14 21 15.3457 21 17C21 18.6543 19.6543 20 18 20C17.187 20 16.4253 19.6802 15.856 19.0986C15.6636 18.9014 15.3472 18.8984 15.1489 19.0918C14.9517 19.2847 14.9487 19.6016 15.1421 19.7988C15.9009 20.5732 16.916 21 18 21C20.2056 21 22 19.2056 22 17C22 14.7944 20.2056 13 18 13ZM12 8C11.4487 8 11 7.55127 11 7C11 6.44873 11.4487 6 12 6C12.5513 6 13 6.44873 13 7C13 7.55127 12.5513 8 12 8Z" fill="#212121"/>
</svg>
