<svg  viewBox="0 0 24 24"  xmlns="http://www.w3.org/2000/svg">
<path d="M20.5635 12.1152L10.4258 7.0547C10.3008 6.9922 10.1523 6.98634 10.0205 7.03614C9.88867 7.0879 9.78516 7.19239 9.73486 7.3252C9.01514 9.2256 8.00244 10.0733 6.45068 10.0733C5.05762 10.0733 3.73291 9.34962 2.90674 8.1377C2.78369 7.95606 2.55713 7.87501 2.34619 7.94142C2.13672 8.00587 1.99365 8.19923 1.99365 8.41895V15.8477C1.99365 16.4727 2.52832 17.001 3.16113 17.001H20.8311C21.4209 17.001 22 16.4317 22 15.8506V14.4541C22 12.7969 20.7852 12.209 20.5635 12.1152ZM6.45068 11.0733C8.27197 11.0733 9.58789 10.1289 10.4595 8.18946L12.2396 9.07813C12.2343 9.08796 12.225 9.09419 12.2202 9.1045L11.5864 10.4639C11.4697 10.7139 11.5781 11.0117 11.8281 11.1279C11.8965 11.1602 11.9683 11.1748 12.0391 11.1748C12.2275 11.1748 12.4077 11.0684 12.4927 10.8858L13.127 9.52638C13.1277 9.52485 13.1274 9.5232 13.1281 9.52168L14.0336 9.97376L13.4678 11.1856C13.3506 11.4365 13.459 11.7334 13.709 11.8506C13.7773 11.8828 13.8496 11.8975 13.9209 11.8975C14.1084 11.8975 14.2891 11.791 14.374 11.6094L14.9291 10.4208L15.8328 10.8719L15.3496 11.9082C15.2324 12.1582 15.3408 12.4561 15.5918 12.5723C15.6602 12.6045 15.7314 12.6192 15.8027 12.6192C15.9902 12.6192 16.1709 12.5127 16.2559 12.3301L16.7275 11.3186L20.1328 13.0186C20.1455 13.0244 20.1641 13.0332 20.1768 13.0381C20.247 13.0659 20.771 13.3052 20.942 13.999H2.99365V9.73927C3.9541 10.5899 5.17773 11.0733 6.45068 11.0733ZM20.8311 16.001H3.16113C3.09326 16.001 2.99365 15.9199 2.99365 15.8477V14.999H21.0008L21.002 15.833C20.9863 15.8906 20.8799 15.9912 20.8311 16.001Z" />
</svg>
