<svg width="24" height="24" viewBox="0 0 24 24" fill="none" xmlns="http://www.w3.org/2000/svg">
<path d="M10 9.5C10 9.22363 9.77637 9 9.5 9C9.22363 9 9 9.22363 9 9.5V10.5C9 10.7764 9.22363 11 9.5 11C9.77637 11 10 10.7764 10 10.5V9.5ZM9.94727 7.27637C9.82373 7.0293 9.52295 6.92969 9.27637 7.05273L7.27637 8.05273C7.0293 8.17627 6.9292 8.47656 7.05273 8.72363C7.14062 8.89893 7.31689 9 7.50049 9C7.57568 9 7.65186 8.98291 7.72363 8.94727L9.72363 7.94727C9.9707 7.82373 10.0708 7.52344 9.94727 7.27637ZM13.5 15H10.5C10.2236 15 10 15.2236 10 15.5C10 15.7764 10.2236 16 10.5 16H13.5C13.7764 16 14 15.7764 14 15.5C14 15.2236 13.7764 15 13.5 15ZM12 2.99951C7.0376 2.99951 3 7.03711 3 12C3 16.9629 7.0376 21.0005 12 21.0005C16.9629 21.0005 21 16.9629 21 12C21 7.03711 16.9629 2.99951 12 2.99951ZM12 20.0005C7.58887 20.0005 4 16.4116 4 12C4 7.58838 7.58887 3.99951 12 3.99951C16.4111 3.99951 20 7.58838 20 12C20 16.4116 16.4111 20.0005 12 20.0005ZM16.7236 8.05273L14.7236 7.05322C14.4775 6.93213 14.1768 7.02979 14.0527 7.27686C13.9297 7.52393 14.0293 7.82422 14.2764 7.94775L16.2764 8.94727C16.3486 8.98291 16.4248 9 16.5 9C16.6826 9 16.8594 8.89893 16.9473 8.72363C17.0703 8.47656 16.9707 8.17627 16.7236 8.05273ZM14.5 9C14.2236 9 14 9.22363 14 9.5V10.5C14 10.7764 14.2236 11 14.5 11C14.7764 11 15 10.7764 15 10.5V9.5C15 9.22363 14.7764 9 14.5 9Z" fill="#212121"/>
</svg>
