<svg width="24" height="24" viewBox="0 0 24 24" fill="none" xmlns="http://www.w3.org/2000/svg">
<path d="M17.9775 10.1836C17.9165 9.98828 17.7432 9.84961 17.5396 9.8335L13.8706 9.54199L12.4712 6.30176C12.3926 6.11914 12.2129 6.00049 12.0137 6H12.0122C11.814 6 11.6343 6.11719 11.5542 6.29883L10.1343 9.53076L6.46338 9.80127C6.25928 9.81592 6.08545 9.95361 6.02344 10.1484C5.96143 10.3433 6.02441 10.5562 6.18213 10.686L8.95459 12.9678L8.09619 16.3579C8.04688 16.5527 8.11914 16.7583 8.27979 16.8794C8.44141 17.0015 8.65869 17.0142 8.83154 16.9131L11.9849 15.0859L15.126 16.9312C15.2046 16.9771 15.292 17 15.3794 17C15.4849 17 15.5898 16.9668 15.6782 16.9009C15.8394 16.7808 15.9131 16.5757 15.8647 16.3804L15.0288 12.9854L17.8154 10.7202C17.9741 10.5913 18.0381 10.3784 17.9775 10.1836ZM14.1519 12.4092C14.002 12.5312 13.9355 12.729 13.9819 12.917L14.6104 15.4683L12.2402 14.0762C12.1621 14.0303 12.0742 14.0073 11.9868 14.0073C11.9004 14.0073 11.8135 14.0298 11.7363 14.0747L9.35693 15.4531L10.002 12.9058C10.0493 12.7183 9.98438 12.52 9.83496 12.397L7.78125 10.707L10.5078 10.5059C10.6924 10.4922 10.8545 10.3779 10.9292 10.2085L12.0083 7.75195L13.0718 10.2148C13.145 10.3848 13.3066 10.5005 13.4912 10.5151L16.2158 10.7314L14.1519 12.4092ZM12 3C7.0376 3 3 7.0376 3 12C3 16.9624 7.0376 21 12 21C16.9624 21 21 16.9624 21 12C21 7.0376 16.9624 3 12 3ZM12 20C7.58887 20 4 16.4111 4 12C4 7.58887 7.58887 4 12 4C16.4111 4 20 7.58887 20 12C20 16.4111 16.4111 20 12 20Z" fill="#212121"/>
</svg>
