<svg viewBox="0 0 24 24" xmlns="http://www.w3.org/2000/svg">
<path d="M21.8535 21.1465L17.6976 16.9905C19.1241 15.3974 20 13.3016 20 11C20 6.0376 15.9624 2 10.9995 2C6.03711 2 2 6.0376 2 11C2 15.9624 6.03711 20 10.9995 20C13.3013 20 15.3973 19.1241 16.9905 17.6976L21.1465 21.8535C21.2441 21.9512 21.3721 22 21.5 22C21.6279 22 21.7559 21.9512 21.8535 21.8535C22.0488 21.6582 22.0488 21.3418 21.8535 21.1465ZM4.26257 15.2964C3.46729 14.0536 3 12.5817 3 11C3 6.58887 6.58838 3 10.9995 3C15.4111 3 19 6.58887 19 11C19 12.5832 18.5319 14.0565 17.7351 15.2999C16.794 14.4565 14.8345 13.7963 13.3047 13.6499V12.6988C13.5831 12.2733 13.7894 11.7471 13.9053 11.1172C14.0464 11.0439 14.1973 10.9072 14.333 10.6626C14.4663 10.4224 14.5713 10.1016 14.6294 9.75879C14.686 9.41992 14.6929 9.03906 14.6479 8.71436C14.6108 8.44873 14.5405 8.24072 14.437 8.09131C14.46 6.69629 14.1299 5.6333 13.4546 4.9292C12.8623 4.3125 12.0366 4 11 4C9.96338 4 9.1377 4.3125 8.54541 4.9292C7.87402 5.62891 7.54395 6.68359 7.56348 8.09033C7.45996 8.23975 7.38916 8.44824 7.35205 8.71436C7.30713 9.03906 7.31396 9.41992 7.37061 9.75879C7.42871 10.1016 7.53369 10.4224 7.66699 10.6626C7.80518 10.9121 7.95898 11.0493 8.10352 11.1211C8.22351 11.7016 8.42883 12.1945 8.69531 12.606V13.6504C7.19989 13.7957 5.21222 14.4417 4.26257 15.2964ZM12.7944 14.6206C12.9253 14.6233 13.0662 14.6384 13.2053 14.6513C12.7845 15.6055 11.9359 16.2388 11.0024 16.2388C10.0671 16.2388 9.22003 15.6053 8.79926 14.6499C8.93695 14.6373 9.07593 14.6232 9.20557 14.6206C9.47754 14.6147 9.69531 14.3926 9.69531 14.1206V13.5632C10.0933 13.7845 10.5446 13.9106 11.0483 13.9106C11.5182 13.9106 11.9349 13.8017 12.3047 13.6122V14.1206C12.3047 14.3926 12.5225 14.6147 12.7944 14.6206ZM12.9683 10.6338C12.8433 11.6724 12.4092 12.9106 11.0483 12.9106C9.51807 12.9106 9.12598 11.2969 9.02295 10.5664C8.99219 10.3687 8.84619 10.2085 8.65234 10.1592C8.60938 10.1484 8.56787 10.146 8.52344 10.1436C8.46826 10.0327 8.39941 9.8457 8.35693 9.59277C8.29639 9.23291 8.32666 8.87793 8.3667 8.71973C8.45703 8.64844 8.52588 8.54785 8.55469 8.43164C8.56641 8.38574 8.57031 8.30908 8.56836 8.26123C8.51855 7.04492 8.75342 6.15674 9.26709 5.62207C9.66309 5.20947 10.2461 5 11 5C11.7539 5 12.3369 5.20947 12.7329 5.62207C13.2466 6.15674 13.4814 7.04492 13.4307 8.29053C13.4287 8.33838 13.4336 8.38574 13.4453 8.43164C13.4741 8.54785 13.543 8.64844 13.6333 8.71973C13.6733 8.87793 13.7036 9.23291 13.6431 9.59277C13.5977 9.86328 13.522 10.0581 13.4653 10.1655C13.4224 10.1675 13.3789 10.1748 13.3364 10.1865C13.1401 10.2397 12.9927 10.4321 12.9683 10.6338ZM16.6834 16.6219C16.6718 16.6317 16.6573 16.6356 16.6465 16.6465C16.6356 16.6574 16.6317 16.6718 16.6219 16.6834C15.1758 18.114 13.1897 19 10.9995 19C8.52655 19 6.31299 17.8713 4.84448 16.1029C4.85352 16.0953 4.86493 16.0924 4.87354 16.084C5.39722 15.5734 6.60394 15.073 7.79163 14.8102C8.32391 16.2576 9.58557 17.2388 11.0024 17.2388C12.4164 17.2388 13.6791 16.2572 14.212 14.8117C15.4269 15.0824 16.648 15.6019 17.1451 16.1141C16.9984 16.2899 16.8443 16.4593 16.6834 16.6219Z"/>
</svg>
