<svg viewBox="0 0 24 24"  xmlns="http://www.w3.org/2000/svg">
<path d="M22.913 16.218L21 13.418V2.5C21 2.36739 20.9473 2.24021 20.8536 2.14645C20.7598 2.05268 20.6326 2 20.5 2H3.50001C3.3674 2 3.24022 2.05268 3.14645 2.14645C3.05269 2.24021 3.00001 2.36739 3.00001 2.5V7H2.71401C1.77001 7 1.00101 7.787 1.00101 8.754V20.3C1.00101 21.253 1.75301 21.999 2.71401 21.999H8.28801C9.24801 21.999 10.001 21.253 10.001 20.3V17H22.5C22.591 17 22.6803 16.9752 22.7582 16.9283C22.8361 16.8813 22.8998 16.814 22.9422 16.7335C22.9847 16.653 23.0045 16.5625 22.9993 16.4717C22.9942 16.3808 22.9643 16.2931 22.913 16.218ZM9.00001 20.3C8.99989 20.3929 8.98126 20.4849 8.94522 20.5706C8.90917 20.6563 8.85642 20.7339 8.79005 20.799C8.72368 20.864 8.64502 20.9152 8.55865 20.9496C8.47228 20.9839 8.37994 21.0007 8.28701 20.999H2.71401C2.62108 21.0007 2.52873 20.9839 2.44237 20.9496C2.356 20.9152 2.27733 20.864 2.21096 20.799C2.14459 20.7339 2.09184 20.6563 2.0558 20.5706C2.01975 20.4849 2.00112 20.3929 2.00101 20.3V20H9.00101L9.00001 20.3ZM9.00001 18.999H2.00001V9.999H9.00001V18.999ZM9.00001 8.999H2.00001V8.753C2.00001 8.344 2.32701 7.999 2.71301 7.999H8.28701C8.38156 7.99991 8.47501 8.01945 8.56201 8.05648C8.64902 8.09351 8.72788 8.14731 8.79408 8.21482C8.86029 8.28233 8.91256 8.36222 8.94789 8.44993C8.98322 8.53764 9.00093 8.63145 9.00001 8.726V8.999ZM8.28701 6.999H4.00001V3H20V13H10.001V8.727C10.001 7.774 9.23201 7 8.28801 7M10.001 16V14H20.186L21.553 16H10.001ZM3.50001 18H7.50001C7.63262 18 7.75979 17.9473 7.85356 17.8536C7.94733 17.7598 8.00001 17.6326 8.00001 17.5V15.5C8.00001 15.3674 7.94733 15.2402 7.85356 15.1464C7.75979 15.0527 7.63262 15 7.50001 15H3.50001C3.3674 15 3.24022 15.0527 3.14645 15.1464C3.05269 15.2402 3.00001 15.3674 3.00001 15.5V17.5C3.00001 17.6326 3.05269 17.7598 3.14645 17.8536C3.24022 17.9473 3.3674 18 3.50001 18ZM4.00001 16H7.00001V17H4.00001V16ZM16.5 12H18.5C18.6326 12 18.7598 11.9473 18.8536 11.8536C18.9473 11.7598 19 11.6326 19 11.5V4.5C19 4.36739 18.9473 4.24021 18.8536 4.14645C18.7598 4.05268 18.6326 4 18.5 4H16.5C16.3674 4 16.2402 4.05268 16.1465 4.14645C16.0527 4.24021 16 4.36739 16 4.5V11.5C16 11.6326 16.0527 11.7598 16.1465 11.8536C16.2402 11.9473 16.3674 12 16.5 12ZM17 5H18V11H17V5Z"/>
</svg>
