<svg width="24" height="24" viewBox="0 0 24 24" fill="none" xmlns="http://www.w3.org/2000/svg">
<path d="M16.5 8C16.3026 8 16.1149 8.04047 15.9421 8.11011C15.7692 7.4726 15.1915 7 14.5 7C14.1144 7 13.766 7.15027 13.5 7.39014C13.234 7.15027 12.8856 7 12.5 7C12.3234 7 12.1564 7.03619 11.9989 7.09247L12 3.5C12 2.52441 11.2246 1.99756 10.4951 1.99756C9.75244 1.99756 9 2.51367 9 3.5V9.5C9 9.50848 9.00439 9.51556 9.00482 9.52393L6.93018 10.4507C6.40723 10.6675 6.04248 11.1714 6.00146 11.7339C6.00049 11.7467 6 11.7579 6 11.7705V14.5C6 15.917 6.91797 16.7744 7.72803 17.5312C8.2547 18.0233 8.71832 18.4661 8.90613 19H8.5C8.22363 19 8 19.2236 8 19.5V21.5C8 21.7764 8.22363 22 8.5 22C8.77637 22 9 21.7764 9 21.5V20H15.4243C17 20 17 20.4512 17 20.6934V21.5C17 21.7764 17.2236 22 17.5 22C17.7764 22 18 21.7764 18 21.5V20.6934C18 19.8796 17.5494 19.4626 17.0137 19.2431C17.0657 18.6424 17.2691 17.6412 17.5005 17.061C17.957 15.7451 18 14.7344 18 12.3882V9.5C18 8.67285 17.3271 8 16.5 8ZM14 8.5C14 8.22412 14.2241 8 14.5 8C14.7759 8 15 8.22412 15 8.5V11.5C15 11.7759 14.7759 12 14.5 12C14.2241 12 14 11.7759 14 11.5V8.5ZM12 10.5118V8.5C12 8.22412 12.2241 8 12.5 8C12.7759 8 13 8.22412 13 8.5V11.5C13 11.7759 12.7759 12 12.5 12C12.2241 12 12 11.7759 12 11.5V10.5118ZM10 3.5C10 3.03369 10.3789 2.99756 10.4951 2.99756C10.5796 2.99756 11 3.02197 11 3.5L10.9983 9.09161C10.6749 8.97736 10.3311 8.9776 10 9.0921V3.5ZM16.564 16.7114C16.3345 17.2852 16.1113 18.2887 16.0322 19.0225C15.7887 19.0022 15.5703 19 15.4243 19H9.94543C9.75317 18.0609 9.04779 17.3957 8.41064 16.8003C7.68506 16.1226 7 15.4829 7 14.5V11.8032C7.01562 11.6154 7.13715 11.4471 7.32568 11.3691L10.3042 10.0386C10.4282 9.9873 10.5664 9.98682 10.6914 10.0386C10.8159 10.0898 10.9121 10.1851 10.9629 10.3071C10.9892 10.3706 11.0012 10.4366 11 10.5017C10.9961 10.6972 10.873 10.8853 10.6597 10.9746L9.28174 11.6426C9.1153 11.7237 9 11.8945 9 12.0923V13.5172C9.00763 13.7518 9.18109 13.9557 9.42188 13.9937C9.97021 14.0806 10.4053 14.3433 10.6802 14.7539C10.9766 15.1968 11.1472 15.8254 11.0143 16.3845C10.9504 16.6536 11.1164 16.9231 11.3849 16.9866C11.424 16.9958 11.4631 17.0002 11.5012 17.0002C11.7272 17.0002 11.9328 16.8455 11.987 16.616C12.1862 15.7786 11.9663 14.877 11.5107 14.1973C11.1541 13.6649 10.6329 13.3026 10 13.1136V12.4053L11.0584 11.8915C11.2319 12.5281 11.8091 13 12.5 13C12.8856 13 13.234 12.8497 13.5 12.6099C13.766 12.8497 14.1144 13 14.5 13C14.8856 13 15.234 12.8497 15.5 12.6099C15.766 12.8497 16.1144 13 16.5 13C16.6756 13 16.8417 12.9641 16.9985 12.9083C16.991 14.7947 16.931 15.6526 16.564 16.7114ZM17 10.999V11.5C17 11.7759 16.7759 12 16.5 12C16.2241 12 16 11.7759 16 11.5V9.5C16 9.22412 16.2241 9 16.5 9C16.7759 9 17 9.22412 17 9.5V10.999Z" fill="#212121"/>
</svg>
