<svg width="24" height="24" viewBox="0 0 24 24" fill="none" xmlns="http://www.w3.org/2000/svg">
<path d="M9.5 10H9V7.33887C9 7.30927 8.9881 7.28363 8.98315 7.25543C9.00085 6.79071 8.91785 6.28821 8.70947 5.80225C8.1377 4.46484 6.93945 3.71875 5.98535 4.1001C5.61816 4.24707 5.33496 4.54004 5.1665 4.94629C5.08215 5.15002 5.04211 5.38147 5.02209 5.62183C5.01373 5.65814 5 5.69257 5 5.73145V10H4.5C4.22363 10 4 10.2236 4 10.5V21.0088C4 21.1533 4.06201 21.29 4.17041 21.3848C4.28809 21.4873 4.97559 22 7 22C9.06055 22 9.72705 21.4805 9.83984 21.376C9.94189 21.2812 10 21.1484 10 21.0088V10.5C10 10.2236 9.77637 10 9.5 10ZM6.09082 5.3291C6.1543 5.1748 6.24414 5.07373 6.35742 5.02832C6.4043 5.00977 6.45654 5.00049 6.51221 5.00049C6.90137 5.00049 7.47168 5.45117 7.79053 6.1958C8.01953 6.72998 8.06494 7.29541 7.90918 7.6709C7.8457 7.8252 7.75586 7.92627 7.64258 7.97168C7.26807 8.11865 6.57373 7.65527 6.20947 6.8042C5.98047 6.27002 5.93506 5.70459 6.09082 5.3291ZM6 8.27673C6.44507 8.73438 6.97815 9 7.48975 9C7.66394 9 7.83527 8.96637 8 8.90271V10H6V8.27673ZM9 20.7168C8.7334 20.8281 8.13623 21 7 21C5.87012 21 5.26611 20.8242 5 20.7158V13H9V20.7168ZM9 12H5V11H9V12ZM19.5 2H11.5C11.2236 2 11 2.22363 11 2.5V4.5C11 4.59949 11.0364 4.68683 11.0864 4.76471L12 17.5C12 18.3279 12.3535 18.9666 13 19.3934V21C13 21.8701 14.5664 22 15.5 22C16.4336 22 18 21.8701 18 21V19.4189C18.8265 18.8809 18.9996 18.084 18.999 17.5352L19.9109 4.76862C19.9626 4.68994 20 4.6012 20 4.5V2.5C20 2.22363 19.7764 2 19.5 2ZM17 20.8066C16.7764 20.8916 16.2461 21 15.5 21C14.7539 21 14.2236 20.8916 14 20.8066V19.8278C14.4361 19.9407 14.9371 20 15.5 20C16.0942 20 16.5872 19.939 17 19.8362V20.8066ZM18 17.5C18 17.7397 17.9957 18.2944 17.322 18.658C17.3044 18.6647 17.2896 18.6744 17.2731 18.683C16.9028 18.869 16.3474 19 15.5 19C13.8408 19 13 18.4951 12.9985 17.4639L12.1053 5H18.8915L18 17.5ZM19 4H12V3H19V4Z" fill="#212121"/>
</svg>
