<svg width="24" height="24" viewBox="0 0 24 24" fill="none" xmlns="http://www.w3.org/2000/svg">
<path d="M11.5 9H13V10.5C13 10.7764 13.2236 11 13.5 11C13.7764 11 14 10.7764 14 10.5V9H15.5C15.7764 9 16 8.77637 16 8.5C16 8.22363 15.7764 8 15.5 8H14V6.5C14 6.22363 13.7764 6 13.5 6C13.2236 6 13 6.22363 13 6.5V8H11.5C11.2236 8 11 8.22363 11 8.5C11 8.77637 11.2236 9 11.5 9ZM21.8535 5.14648C21.7598 5.05273 21.6328 5 21.5 5L16.2965 5.0025C15.5261 4.38507 14.562 4 13.5 4C12.4366 4 11.4713 4.38611 10.7003 5.00513L5.47241 5.00763L4.99121 2.40918C4.94824 2.17187 4.74121 2 4.5 2H2.5C2.22363 2 2 2.22363 2 2.5C2 2.77637 2.22363 3 2.5 3H4.08398L6.48242 15.9497L5.65576 18.0349C4.71698 18.1994 4 19.0151 4 20C4 21.103 4.89746 22 6.00098 22C7.10352 22 8 21.103 8 20C8 19.6345 7.89435 19.2961 7.7226 19.001H16.2777C16.1058 19.2961 16 19.6345 16 20C16 21.103 16.8975 22 18.001 22C19.1035 22 20 21.103 20 20C20 18.897 19.1035 18 18.001 18C17.9977 18 17.9946 18.001 17.9913 18.001H6.74512L7.35425 16.4632L21.5518 14.9976C21.8066 14.9712 22 14.7563 22 14.5V5.5C22 5.36719 21.9473 5.24023 21.8535 5.14648ZM17.9962 19.001H18.0058C18.5543 19.0038 19 19.4504 19 20C19 20.5513 18.5518 21 18.001 21C17.4492 21 17 20.5513 17 20C17 19.4504 17.4467 19.0038 17.9962 19.001ZM13.5 5C15.4297 5 17 6.57031 17 8.5C17 10.4297 15.4297 12 13.5 12C11.5703 12 10 10.4297 10 8.5C10 6.57031 11.5703 5 13.5 5ZM7 20C7 20.5513 6.55176 21 6.00098 21C5.44922 21 5 20.5513 5 20C5 19.4487 5.44922 19 6.00098 19C6.55176 19 7 19.4487 7 20ZM21 14.0488L7.40656 15.452L5.65759 6.00751L9.75879 6.00549C9.28076 6.72015 9 7.57751 9 8.5C9 10.9814 11.0186 13 13.5 13C15.9814 13 18 10.9814 18 8.5C18 7.57599 17.7187 6.71716 17.2393 6.00183L21 6V14.0488Z" fill="#212121"/>
</svg>
