<svg width="24" height="24" viewBox="0 0 24 24" fill="none" xmlns="http://www.w3.org/2000/svg">
<path d="M21.9272 11.7139C19.6553 7.97607 16.2197 6 11.9927 6C10.7988 6 9.67548 6.17822 8.61462 6.49402L9.41791 7.2973C10.2316 7.10577 11.087 7 11.9927 7C15.7556 7 18.8265 8.73248 20.9069 11.9919C20.001 13.4633 18.8777 14.6178 17.568 15.4474L18.2921 16.1714C19.7239 15.22 20.9562 13.9223 21.9316 12.2539C21.9809 12.1696 21.9937 12.0776 21.9907 11.9866C21.9933 11.8935 21.9792 11.7993 21.9272 11.7139ZM15.682 13.5614C15.8864 13.0814 16 12.5538 16 12C16 9.79443 14.2056 8 12 8C11.4462 8 10.9186 8.11365 10.4386 8.31799L11.2325 9.11194C11.479 9.04626 11.7331 9 12 9C13.6543 9 15 10.3457 15 12C15 12.2669 14.9537 12.521 14.8881 12.7675L15.682 13.5614ZM4.56006 3.85352L3.85351 3.14648C3.6582 2.95117 3.3418 2.95117 3.14648 3.14648C2.95117 3.3418 2.95117 3.6582 3.14648 3.85352L6.61047 7.3175C4.81866 8.28149 3.28296 9.7558 2.07324 11.7397C1.97369 11.9027 1.9848 12.0973 2.07513 12.251L2.06934 12.2544C2.07666 12.2668 2.08545 12.2771 2.09283 12.2895C2.09375 12.2907 2.09454 12.2921 2.0954 12.2933C4.31531 16.0253 7.73389 18 11.9868 18C13.6076 18 15.1049 17.7179 16.4598 17.1669L20.1465 20.8535C20.2441 20.9512 20.3721 21 20.5 21C20.6279 21 20.7559 20.9512 20.8535 20.8535C21.0484 20.6586 21.0485 20.3433 20.8545 20.1479L4.56006 3.85352ZM9.55994 10.267L13.733 14.4401C13.3358 14.7231 12.8667 14.9022 12.3592 14.9637L9.03631 11.6408C9.09784 11.1333 9.27692 10.6642 9.55994 10.267ZM10.6405 14.6591C10.0814 14.3718 9.62817 13.9186 9.34094 13.3595L10.6405 14.6591ZM7.34637 8.05341L8.85321 9.56024C8.56543 9.93048 8.34631 10.3495 8.20215 10.8066L6.15411 8.75861C6.53619 8.49304 6.93378 8.2583 7.34637 8.05341ZM3.1026 12.0035C3.3009 11.6937 3.5022 11.3895 3.71576 11.1083L9.29517 16.6877C6.72162 16.066 4.64935 14.4932 3.1026 12.0035ZM11.9868 17C11.6353 17 11.2997 16.9691 10.9626 16.9411L4.36572 10.3442C4.68158 9.99353 5.01166 9.67023 5.35608 9.37463L8.00207 12.0206C8.01343 14.2094 9.79065 15.9866 11.9794 15.9979L12.9261 16.9446C12.6155 16.9688 12.3081 17 11.9868 17ZM14.1717 16.7762L13.1934 15.7979C13.6505 15.6537 14.0695 15.4346 14.4398 15.1468L15.666 16.373C15.1863 16.5443 14.6873 16.6768 14.1717 16.7762Z" fill="#212121"/>
</svg>
