<svg viewBox="0 0 24 24" xmlns="http://www.w3.org/2000/svg">
<path d="M19.5195 5.25928C19.9337 5.25928 20.2695 4.92346 20.2695 4.50928C20.2695 4.09503 19.9337 3.75928 19.5195 3.75928C19.1053 3.75928 18.7695 4.09503 18.7695 4.50928C18.7695 4.92346 19.1053 5.25928 19.5195 5.25928ZM6.51953 8.75928C6.10535 8.75928 5.76953 9.09503 5.76953 9.50928C5.76953 9.92346 6.10535 10.2593 6.51953 10.2593C6.93372 10.2593 7.26953 9.92346 7.26953 9.50928C7.26953 9.09503 6.93372 8.75928 6.51953 8.75928ZM10.5195 17.0093C10.2434 17.0093 10.0195 17.2331 10.0195 17.5093C10.0195 17.7854 10.2434 18.0093 10.5195 18.0093C10.7957 18.0093 11.0195 17.7854 11.0195 17.5093C11.0195 17.2331 10.7957 17.0093 10.5195 17.0093ZM19.0195 11.5093C19.0195 11.7854 19.2434 12.0093 19.5195 12.0093C19.7957 12.0093 20.0195 11.7854 20.0195 11.5093C20.0195 11.2331 19.7957 11.0093 19.5195 11.0093C19.2434 11.0093 19.0195 11.2331 19.0195 11.5093ZM18.5195 7.00928C18.7957 7.00928 19.0195 6.7854 19.0195 6.50928C19.0195 6.23309 18.7957 6.00928 18.5195 6.00928C18.2434 6.00928 18.0195 6.23309 18.0195 6.50928C18.0195 6.7854 18.2434 7.00928 18.5195 7.00928ZM18.5195 9.25928C18.9337 9.25928 19.2695 8.92346 19.2695 8.50928C19.2695 8.09503 18.9337 7.75928 18.5195 7.75928C18.1053 7.75928 17.7695 8.09503 17.7695 8.50928C17.7695 8.92346 18.1053 9.25928 18.5195 9.25928ZM8.51953 10.7593C8.10535 10.7593 7.76953 11.095 7.76953 11.5093C7.76953 11.9235 8.10535 12.2593 8.51953 12.2593C8.93372 12.2593 9.26953 11.9235 9.26953 11.5093C9.26953 11.095 8.93372 10.7593 8.51953 10.7593ZM19.8105 14.1079C19.8047 14.1099 19.2119 14.2622 18.7725 14.2622C17.6699 14.2622 16.7725 13.3647 16.7725 12.2627C16.7725 11.9751 17.0303 11.2168 17.2139 10.876C17.3076 10.7153 17.3203 10.4253 17.2217 10.2676C17.0332 9.96875 16.6963 9.99512 16.5195 10.0093C15.6924 10.0093 15.0195 9.33643 15.0195 8.50928C15.0195 7.65723 15.6094 6.92676 16.1387 6.80371C16.3457 6.75586 16.499 6.58203 16.5225 6.37109C16.5459 6.15967 16.4326 5.95703 16.2402 5.86572C16.2334 5.8623 15.5195 5.5 15.5195 5.00928C15.5195 4.75537 15.5928 4.44238 15.6836 4.31104C15.7695 4.18701 15.7949 4.03125 15.752 3.88672C15.71 3.7417 15.6045 3.62402 15.4658 3.56592C14.2695 3.06445 12.9854 3 12 3C7.0376 3 3 7.0376 3 12C3 16.9624 7.0376 21.0005 12 21.0005C15.2979 21.0005 18.334 19.2329 19.7334 16.4976C20.0723 15.8354 20.4004 14.7847 20.4141 14.7407C20.4678 14.5679 20.4238 14.3784 20.2979 14.2476C20.1729 14.1157 19.9863 14.063 19.8105 14.1079ZM18.8428 16.0425C17.6123 18.4468 14.9268 20.0005 12 20.0005C7.58887 20.0005 4 16.4116 4 12C4 7.58887 7.58887 4 12 4C13.0928 4 13.9062 4.09668 14.6113 4.31738C14.5459 4.56396 14.5195 4.81494 14.5195 5.00928C14.5195 5.53857 14.791 5.95264 15.085 6.24512C14.4873 6.7207 14.0195 7.53223 14.0195 8.50928C14.0195 9.73926 14.9121 10.7642 16.084 10.9712C15.9219 11.3965 15.7725 11.9121 15.7725 12.2627C15.7725 14.0513 17.3564 15.4468 19.1855 15.2368C19.083 15.5122 18.9619 15.8101 18.8428 16.0425ZM20.5195 5.75928C20.1053 5.75928 19.7695 6.09503 19.7695 6.50928C19.7695 6.92346 20.1053 7.25928 20.5195 7.25928C20.9337 7.25928 21.2695 6.92346 21.2695 6.50928C21.2695 6.09503 20.9337 5.75928 20.5195 5.75928ZM14.5195 15.0093C14.2434 15.0093 14.0195 15.2331 14.0195 15.5093C14.0195 15.7854 14.2434 16.0093 14.5195 16.0093C14.7957 16.0093 15.0195 15.7854 15.0195 15.5093C15.0195 15.2331 14.7957 15.0093 14.5195 15.0093ZM10.5195 11.0093C10.2434 11.0093 10.0195 11.2331 10.0195 11.5093C10.0195 11.7854 10.2434 12.0093 10.5195 12.0093C10.7957 12.0093 11.0195 11.7854 11.0195 11.5093C11.0195 11.2331 10.7957 11.0093 10.5195 11.0093ZM13.5195 16.7593C13.1053 16.7593 12.7695 17.095 12.7695 17.5093C12.7695 17.9235 13.1053 18.2593 13.5195 18.2593C13.9337 18.2593 14.2695 17.9235 14.2695 17.5093C14.2695 17.095 13.9337 16.7593 13.5195 16.7593ZM9.51953 7.00928C8.69238 7.00928 8.01953 7.68213 8.01953 8.50928C8.01953 9.33643 8.69238 10.0093 9.51953 10.0093C10.3467 10.0093 11.0195 9.33643 11.0195 8.50928C11.0195 7.68213 10.3467 7.00928 9.51953 7.00928ZM9.51953 9.00928C9.24365 9.00928 9.01953 8.78516 9.01953 8.50928C9.01953 8.2334 9.24365 8.00928 9.51953 8.00928C9.79541 8.00928 10.0195 8.2334 10.0195 8.50928C10.0195 8.78516 9.79541 9.00928 9.51953 9.00928Z"/>
</svg>
