<svg viewBox="0 0 24 24" xmlns="http://www.w3.org/2000/svg">
<path d="M14.7236 11.5527L9.72363 9.05273C9.56885 8.97559 9.38477 8.98438 9.2373 9.07422C9.08984 9.16602 9 9.32715 9 9.5V14.5C9 14.6729 9.08984 14.834 9.2373 14.9258C9.31738 14.9746 9.40869 15 9.5 15C9.57666 15 9.65283 14.9824 9.72363 14.9473L14.7236 12.4473C14.8931 12.3623 15 12.1895 15 12C15 11.8105 14.8931 11.6377 14.7236 11.5527ZM12 5C3.58887 5 3 5.4502 3 11.8857C3 18.7695 3.89062 19 12 19C20.4111 19 21 18.5342 21 11.8857C21 5.4502 20.4111 5 12 5ZM12 18C4.14941 18 4 17.8857 4 11.8857C4 6.2207 4 6 12 6C20 6 20 6.2207 20 11.8857C20 17.8857 20 18 12 18Z" />
</svg>
