<svg  viewBox="0 0 24 24"  xmlns="http://www.w3.org/2000/svg">
<path d="M19.9678 15.0996C19.6368 12.496 16.9122 10.3105 16.085 9.70209C15.3653 9.17377 15.0001 8.04194 15.0001 6.33881V2.5019C15.0001 2.30073 14.8799 2.12006 14.6954 2.04194C14.5098 1.96088 14.296 2.00385 14.1524 2.14252C13.7911 2.49213 12.7813 3.45502 12.4503 3.70698C12.0528 4.00873 11.7462 4.17963 11.4844 4.24409C11.1866 4.31733 10.0909 4.40327 9.47077 4.4394C9.20612 4.45502 9.00006 4.67377 9.00006 4.93842V8.74409C9.00006 9.10151 8.29498 9.96967 6.74616 11.0322C5.69147 11.7558 3.76569 13.7548 4.0235 16.1415C4.24811 18.2206 5.38581 19.4287 7.2276 19.5429C7.25812 19.545 7.28351 19.5347 7.31232 19.532C7.53205 19.807 7.78546 20.0571 8.10163 20.2529C8.58698 20.5537 9.14264 20.706 9.68561 20.706C9.80646 20.706 9.92291 20.6798 10.0413 20.6646L10.0176 20.6855C9.80963 20.8671 9.78815 21.1826 9.97077 21.3906C10.0694 21.5039 10.2081 21.5615 10.3467 21.5615C10.4639 21.5615 10.5811 21.5205 10.6758 21.4374L11.1768 20.9995V21.4999C11.1768 21.7763 11.4005 21.9999 11.6768 21.9999C11.9532 21.9999 12.1768 21.7763 12.1768 21.4999V20.9999L12.6768 21.4374C12.7715 21.5205 12.8887 21.5615 13.0059 21.5615C13.1446 21.5615 13.2833 21.5039 13.3819 21.3906C13.5645 21.1826 13.543 20.8671 13.335 20.6855L13.3069 20.6611C13.483 20.6863 13.661 20.708 13.8487 20.708C13.9464 20.708 14.044 20.705 14.1446 20.6982C15.1055 20.6308 15.9415 20.2402 16.4981 19.5976C16.5084 19.5858 16.5147 19.5709 16.5247 19.5589C17.5364 19.3148 18.5154 18.7834 19.0704 18.1035C19.8048 17.2031 20.1065 16.1923 19.9678 15.0996ZM18.295 17.4706C18.0323 17.7932 17.6185 18.0751 17.1495 18.2907C17.2459 17.8974 17.2896 17.4747 17.2569 17.0195C17.1456 15.4941 16.0225 13.5263 14.5264 12.2343C14.3184 12.0556 14.003 12.0771 13.8204 12.2861C13.6566 12.4774 13.6688 12.7515 13.8289 12.9363C13.8445 12.9543 13.8536 12.9761 13.8721 12.9921C15.3194 14.2402 16.1817 16.0361 16.2589 17.0917C16.3145 17.8496 16.1358 18.4892 15.7432 18.9423C15.3555 19.3896 14.7784 19.6513 14.0743 19.7001C12.9327 19.7783 11.6622 19.2226 11.5313 17.4208C11.4747 16.6572 11.7569 15.7402 12.3038 14.9062C12.4295 14.7139 12.3992 14.4732 12.2557 14.3084C12.2264 14.2748 12.1993 14.2396 12.1602 14.2138C11.9298 14.0624 11.6192 14.1259 11.4678 14.3574C11.4178 14.4337 11.3829 14.5142 11.3367 14.5919C10.7669 15.5473 10.4673 16.5889 10.5333 17.4931C10.5755 18.0732 10.732 18.5826 10.9647 19.0255C10.8387 19.2364 10.6732 19.4085 10.4581 19.5234C9.93268 19.8046 9.19733 19.7548 8.62897 19.4033C7.19635 18.5156 7.44147 16.5605 8.08698 15.1562C8.47077 14.3212 9.0401 13.5722 9.73346 12.9892C10.0301 12.7402 10.5369 12.3083 11.0291 11.7962C11.1312 11.6898 11.2342 11.5845 11.3331 11.4716C11.5147 11.2646 11.4942 10.9482 11.2862 10.7665C11.0792 10.5849 10.7628 10.6044 10.5811 10.8134C10.0567 11.4121 9.4278 11.9394 9.09088 12.2236C8.28424 12.9003 7.62311 13.7705 7.17877 14.7382C6.55109 16.1043 6.42755 17.4036 6.74811 18.456C5.74738 18.1966 5.16364 17.3875 5.01764 16.0341C4.82526 14.2558 6.28424 12.5615 7.31256 11.8564C8.53815 11.0156 10.0001 9.79194 10.0001 8.74409V5.40717C10.2894 5.3863 10.6614 5.35602 11.0001 5.32026V8.49409C11.0001 8.77045 11.2237 8.99409 11.5001 8.99409C11.7764 8.99409 12.0001 8.77045 12.0001 8.49409V5.12665C12.3192 5.00593 12.6551 4.80756 13.0557 4.50287C13.2628 4.34565 13.6417 4.00092 14.0001 3.66694V6.33881C14.0001 8.40717 14.4883 9.77143 15.4932 10.5087C17.0303 11.6386 18.752 13.4706 18.9756 15.2255C19.0801 16.0478 18.8575 16.7822 18.295 17.4706Z" />
</svg>
