<svg  viewBox="0 0 24 24"  xmlns="http://www.w3.org/2000/svg">
<path fill-rule="evenodd" clip-rule="evenodd" d="M12 21C13.2344 21 14.3984 20.7656 15.4922 20.2969C16.5859 19.8281 17.543 19.1836 18.3633 18.3633C19.1836 17.543 19.8281 16.5859 20.2969 15.4922C20.7656 14.3984 21 13.2344 21 12C21 10.7656 20.7656 9.60156 20.2969 8.50781C19.8281 7.41406 19.1836 6.45703 18.3633 5.63672C17.543 4.81641 16.5859 4.17188 15.4922 3.70312C14.3984 3.23438 13.2344 3 12 3C10.7656 3 9.60156 3.23438 8.50781 3.70312C7.41406 4.17188 6.45703 4.81641 5.63672 5.63672C4.81641 6.45703 4.17188 7.41406 3.70312 8.50781C3.23438 9.60156 3 10.7656 3 12C3 13.2344 3.23438 14.3984 3.70312 15.4922C4.17188 16.5859 4.81641 17.543 5.63672 18.3633C6.45703 19.1836 7.41406 19.8281 8.50781 20.2969C9.60156 20.7656 10.7656 21 12 21ZM12 19.9922C10.8906 19.9922 9.85156 19.7812 8.88281 19.3594C7.91406 18.9531 7.06641 18.3867 6.33984 17.6602C5.61328 16.9336 5.04688 16.0859 4.64062 15.1172C4.21875 14.1484 4.00781 13.1094 4.00781 12C4.00781 10.8906 4.21875 9.85156 4.64062 8.88281C5.04688 7.91406 5.61328 7.06641 6.33984 6.33984C7.06641 5.61328 7.91406 5.03906 8.88281 4.61719C9.85156 4.21094 10.8906 4.00781 12 4.00781C13.1094 4.00781 14.1484 4.21094 15.1172 4.61719C16.0859 5.03906 16.9336 5.61328 17.6602 6.33984C18.3867 7.06641 18.9531 7.91406 19.3594 8.88281C19.7812 9.85156 19.9922 10.8906 19.9922 12C19.9922 13.1094 19.7812 14.1484 19.3594 15.1172C18.9531 16.0859 18.3867 16.9336 17.6602 17.6602C16.9336 18.3867 16.0859 18.9531 15.1172 19.3594C14.1484 19.7812 13.1094 19.9922 12 19.9922ZM16.0078 10.9922C16.1016 10.9922 16.1875 10.9688 16.2656 10.9219C16.3438 10.875 16.4062 10.8047 16.4531 10.7109C16.5156 10.6016 16.5234 10.4805 16.4766 10.3477C16.4297 10.2148 16.3438 10.1172 16.2188 10.0547L14.2266 9.04688C14.1016 8.98438 13.9727 8.97656 13.8398 9.02344C13.707 9.07031 13.6094 9.15625 13.5469 9.28125C13.4844 9.40625 13.4766 9.53125 13.5234 9.65625C13.5703 9.78125 13.6562 9.875 13.7812 9.9375L15.7734 10.9453C15.8047 10.9609 15.8398 10.9727 15.8789 10.9805C15.918 10.9883 15.9609 10.9922 16.0078 10.9922ZM7.99219 10.9922C8.03906 10.9922 8.08203 10.9883 8.12109 10.9805C8.16016 10.9727 8.19531 10.9609 8.22656 10.9453L10.2188 9.9375C10.3438 9.875 10.4297 9.78125 10.4766 9.65625C10.5234 9.53125 10.5156 9.40625 10.4531 9.28125C10.3906 9.15625 10.293 9.07031 10.1602 9.02344C10.0273 8.97656 9.89844 8.98438 9.77344 9.04688L7.78125 10.0547C7.65625 10.1172 7.57031 10.2148 7.52344 10.3477C7.47656 10.4805 7.48438 10.6016 7.54688 10.7109C7.59375 10.8047 7.65625 10.875 7.73438 10.9219C7.8125 10.9688 7.89844 10.9922 7.99219 10.9922ZM15.5508 17.0156C15.5586 17.0156 15.5625 17.0078 15.5625 16.9922H15.6328C15.7578 16.9609 15.8555 16.8867 15.9258 16.7695C15.9961 16.6523 16.0156 16.5234 15.9844 16.3828C15.7344 15.3672 15.2422 14.5508 14.5078 13.9336C13.7734 13.3164 12.9375 13.0078 12 13.0078C11.125 13.0078 10.3203 13.3125 9.58594 13.9219C8.85156 14.5312 8.33594 15.3281 8.03906 16.3125C8.02344 16.3438 8.01172 16.375 8.00391 16.4062C7.99609 16.4375 7.99219 16.4688 7.99219 16.5C7.99219 16.625 8.03516 16.7344 8.12109 16.8281C8.18555 16.8984 8.26099 16.9468 8.34741 16.9731L8.4375 16.9922C8.4375 17.0078 8.44141 17.0156 8.44922 17.0156H15.5508ZM14.8125 16.0078H9.23438C9.51562 15.3984 9.90625 14.9141 10.4062 14.5547C10.9062 14.1953 11.4375 14.0156 12 14.0156C12.6094 14.0156 13.1641 14.1953 13.6641 14.5547C14.1641 14.9141 14.5469 15.3984 14.8125 16.0078Z" />
</svg>
