<svg  viewBox="0 0 24 24"  xmlns="http://www.w3.org/2000/svg">
<path d="M20.5 3H14.5C14.2236 3 14 3.22363 14 3.5C14 3.77637 14.2236 4 14.5 4H19.2852L12.1387 11.1465C11.9434 11.3418 11.9434 11.6582 12.1387 11.8535C12.2363 11.9512 12.3643 12 12.4922 12C12.6201 12 12.748 11.9512 12.8457 11.8535L20 4.69922V9.5C20 9.77637 20.2236 10 20.5 10C20.7764 10 21 9.77637 21 9.5V3.5C21 3.22363 20.7764 3 20.5 3Z" />
<path d="M20.5 13C20.2236 13 20 13.2236 20 13.5V20H4V4H10.5C10.7764 4 11 3.77637 11 3.5C11 3.22363 10.7764 3 10.5 3H3.5C3.22363 3 3 3.22363 3 3.5V20.5C3 20.7764 3.22363 21 3.5 21H20.5C20.7764 21 21 20.7764 21 20.5V13.5C21 13.2236 20.7764 13 20.5 13Z" />
</svg>
