<svg  viewBox="0 0 24 24"  xmlns="http://www.w3.org/2000/svg">
<path d="M18.6245 7.32031C18.5752 7.30835 18.0132 7.17004 17.2396 7.14014C17.6412 5.69958 17.2935 4.25366 17.2739 4.17676C17.21 3.92969 16.9731 3.77148 16.7192 3.80566C16.6426 3.81696 15.2365 4.0343 14.0732 4.90356C13.5569 3.31506 12.3331 2.18365 12.2671 2.125C12.0776 1.95508 11.7896 1.95508 11.6001 2.125C11.5341 2.18365 10.3096 3.31476 9.79291 4.90295C8.62964 4.03418 7.22357 3.81696 7.14697 3.80566C6.89307 3.77344 6.65576 3.92969 6.59229 4.17676C6.57263 4.25299 6.22406 5.703 6.62824 7.14569C5.92346 7.18506 5.42212 7.30902 5.37549 7.32031C5.12842 7.38379 4.96924 7.62305 5.00488 7.875C5.021 7.98633 5.41406 10.6104 7.30664 11.876C8.43067 12.626 9.57617 13.0107 10.502 13.0107C10.8763 13.0107 11.2137 12.9467 11.5 12.8196V14H8.5C8.22363 14 8 14.2236 8 14.5V16.5C8 16.7764 8.22363 17 8.5 17H8.93646L9.53565 21.5654C9.56836 21.8135 9.78028 22 10.0313 22H13.9688C14.2197 22 14.4316 21.8135 14.4644 21.5654L15.0636 17H15.5C15.7764 17 16 16.7764 16 16.5V14.5C16 14.2236 15.7764 14 15.5 14H12.5V12.8195C12.7864 12.9467 13.1237 13.0107 13.498 13.0107C14.4238 13.0107 15.5693 12.626 16.6934 11.876C18.5859 10.6104 18.979 7.98633 18.9951 7.875C19.0308 7.62305 18.8716 7.38379 18.6245 7.32031ZM14.2902 6.06549C14.9341 5.4007 15.8378 5.04822 16.3901 4.90039C16.4617 5.4408 16.5015 6.35529 16.1816 7.17871C15.5101 7.25562 14.7907 7.45013 14.1415 7.85754C14.2477 7.36517 14.3091 6.82611 14.3091 6.25C14.3091 6.18658 14.2932 6.12811 14.2902 6.06549ZM7.47754 4.90039C8.02979 5.04901 8.9325 5.40082 9.57556 6.06451C9.57257 6.12744 9.55664 6.18628 9.55664 6.25C9.55664 6.79303 9.61475 7.29962 9.70954 7.76898C9.05445 7.39594 8.33881 7.22321 7.67914 7.16235C7.36823 6.34607 7.40692 5.43921 7.47754 4.90039ZM11.3433 11.709C10.9819 12.249 9.41504 12.0811 7.86231 11.0439C6.76904 10.3135 6.2832 8.92773 6.09619 8.20312C6.83789 8.09668 8.30469 8.01562 9.39795 8.74609C9.81336 9.02356 10.1799 9.33344 10.4901 9.65601C10.5757 9.77032 10.6667 9.86987 10.7617 9.96259C10.9107 10.1445 11.0457 10.3279 11.1509 10.5117C11.4419 11.0205 11.5122 11.4561 11.3433 11.709ZM13.5303 21H10.4697L9.94483 17H14.0552L13.5303 21ZM15 15V16H14.625H9.375H9V15H15ZM11.9336 9.50293C11.2837 9.50293 10.5566 8.11133 10.5566 6.25C10.5566 4.94043 11.4355 3.77148 11.9336 3.21387C12.4312 3.77148 13.3091 4.94043 13.3091 6.25C13.3091 8.11133 12.5825 9.50195 11.9336 9.50293ZM16.1377 11.0439C14.5845 12.082 13.019 12.252 12.6563 11.708C12.4878 11.4561 12.5581 11.0205 12.8491 10.5117C13.2046 9.89062 13.8272 9.26367 14.6021 8.74609C15.3267 8.26172 16.2153 8.13477 16.9482 8.13477C17.3213 8.13477 17.6538 8.16699 17.9038 8.20312C17.7168 8.92773 17.231 10.3135 16.1377 11.0439Z" />
</svg>
