<svg width="24" height="24" viewBox="0 0 24 24" fill="none" xmlns="http://www.w3.org/2000/svg">
<path d="M12 10.0001C10.8975 10.0001 10 10.897 10 12.0001C10 13.1031 10.8975 14.0001 12 14.0001C13.1025 14.0001 14 13.1031 14 12.0001C14 10.897 13.1025 10.0001 12 10.0001Z" fill="#212121"/>
<path d="M10 6C10 4.89697 10.8975 4 12 4C13.1025 4 14 4.89697 14 6C14 7.10303 13.1025 8 12 8C10.8975 8 10 7.10303 10 6Z" fill="#212121"/>
<path d="M10 18.0001C10 16.897 10.8975 16.0001 12 16.0001C13.1025 16.0001 14 16.897 14 18.0001C14 19.1031 13.1025 20 12 20C10.8975 20 10 19.1031 10 18.0001Z" fill="#212121"/>
</svg>
