<svg  viewBox="0 0 24 24"  xmlns="http://www.w3.org/2000/svg">
<path d="M12.4927 5.51709C12.2163 5.51709 11.9927 5.74072 11.9927 6.01709V11.7686L9.64209 14.1772C9.44922 14.375 9.45312 14.6914 9.65088 14.8843C9.74805 14.979 9.87402 15.0264 10 15.0264C10.1299 15.0264 10.2598 14.9761 10.3579 14.8755L12.8506 12.3213C12.9419 12.228 12.9927 12.1025 12.9927 11.9722V6.01709C12.9927 5.74072 12.769 5.51709 12.4927 5.51709ZM12 3C7.0376 3 3 7.0376 3 12C3 16.9624 7.0376 21 12 21C16.9624 21 21 16.9624 21 12C21 7.0376 16.9624 3 12 3ZM12 20C7.58887 20 4 16.4111 4 12C4 7.58887 7.58887 4 12 4C16.4111 4 20 7.58887 20 12C20 16.4111 16.4111 20 12 20Z" />
</svg>
