<svg  viewBox="0 0 24 24"  xmlns="http://www.w3.org/2000/svg">
<path fill-rule="evenodd" clip-rule="evenodd" d="M14.9995 17.5C14.9995 16.6729 15.6729 16 16.5 16C17.3272 16 18.0005 16.6729 18.0005 17.5C18.0005 18.3271 17.3272 19 16.5 19C15.6729 19 14.9995 18.3271 14.9995 17.5ZM15.9995 17.5C15.9995 17.7754 16.2242 18 16.5 18C16.7759 18 17.0005 17.7754 17.0005 17.5C17.0005 17.2246 16.7759 17 16.5 17C16.2242 17 15.9995 17.2246 15.9995 17.5Z" />
<path fill-rule="evenodd" clip-rule="evenodd" d="M14.5391 3H19.462C20.3101 3 21 3.68555 21 4.52734V19.4727C21 20.3145 20.3101 21 19.462 21H14.5391C13.7803 21 13.1518 20.4506 13.0265 19.7327L3.76224 15.375C3.09769 15.0615 2.81351 14.2627 3.12846 13.5947L3.8101 12.1465C3.92777 11.8975 4.22465 11.791 4.47514 11.9072C4.72514 12.0244 4.83207 12.3223 4.71439 12.5723L4.03324 14.0205C3.95316 14.1904 4.0225 14.3926 4.18851 14.4707L11.7608 18.0327L4.86674 10.7949C4.35795 10.2607 4.38187 9.40918 4.91898 8.89648L6.80375 7.10156C7.00346 6.91211 7.32035 6.91797 7.51029 7.11914C7.70121 7.31934 7.6934 7.63574 7.4932 7.82617L5.60892 9.62109C5.47074 9.75293 5.46244 9.9707 5.59086 10.1055L13 17.8845V17.8452L8.23783 6.30957C7.94779 5.6084 8.28764 4.79883 8.99467 4.50586L11.3399 3.53809C11.5953 3.43066 11.8872 3.55273 11.9932 3.80957C12.0982 4.06445 11.9766 4.35645 11.7217 4.46191L9.37699 5.42969C9.17924 5.51172 9.08256 5.73535 9.16215 5.92871L13 15.2253V4.52734C13 3.68555 13.6905 3 14.5391 3ZM19.462 20C19.7588 20 20 19.7637 20 19.4727V4.52734C20 4.23633 19.7588 4 19.462 4H14.5391C14.2417 4 14 4.23633 14 4.52734V19.4727C14 19.7637 14.2417 20 14.5391 20H19.462Z" />
</svg>
