<svg width="24" height="24" viewBox="0 0 24 24" fill="none" xmlns="http://www.w3.org/2000/svg">
<path d="M11 10.5C11 10.7764 11.2236 11 11.5 11C12.3271 11 13 11.6729 13 12.5C13 12.7764 13.2236 13 13.5 13C13.7764 13 14 12.7764 14 12.5C14 11.6729 14.6729 11 15.5 11C15.7764 11 16 10.7764 16 10.5C16 10.2236 15.7764 10 15.5 10C14.6729 10 14 9.32715 14 8.5C14 8.22363 13.7764 8 13.5 8C13.2236 8 13 8.22363 13 8.5C13 9.32715 12.3271 10 11.5 10C11.2236 10 11 10.2236 11 10.5ZM22.5 5C20.5703 5 19 3.42969 19 1.5C19 1.22363 18.7764 1 18.5 1C18.2236 1 18 1.22363 18 1.5C18 3.42969 16.4297 5 14.5 5C14.2236 5 14 5.22363 14 5.5C14 5.77637 14.2236 6 14.5 6C16.4297 6 18 7.57031 18 9.5C18 9.77637 18.2236 10 18.5 10C18.7764 10 19 9.77637 19 9.5C19 7.57031 20.5703 6 22.5 6C22.7764 6 23 5.77637 23 5.5C23 5.22363 22.7764 5 22.5 5ZM18.5 12C18.2236 12 18 12.2236 18 12.5V18H10.5C10.3916 18 10.2866 18.0352 10.2002 18.0996L7 20.5V18.5C7 18.2236 6.77637 18 6.5 18H4V6H11.5C11.7764 6 12 5.77637 12 5.5C12 5.22363 11.7764 5 11.5 5H3.5C3.22363 5 3 5.22363 3 5.5V18.5C3 18.7764 3.22363 19 3.5 19H6V21.5C6 21.6895 6.10693 21.8623 6.27637 21.9473C6.34717 21.9824 6.42383 22 6.5 22C6.60596 22 6.71191 21.9658 6.7998 21.9004L10.6665 19H18.5C18.7764 19 19 18.7764 19 18.5V12.5C19 12.2236 18.7764 12 18.5 12Z" fill="#212121"/>
</svg>
