<svg  viewBox="0 0 24 24"  xmlns="http://www.w3.org/2000/svg">
<path d="M12.0029 17.5C12.0029 17.7764 12.2266 18 12.5029 18H13.1972C13.5649 19.2737 14.4426 20 15.6987 20C16.2949 20 16.897 19.709 17.3091 19.2207C17.4868 19.0098 17.4604 18.6943 17.2495 18.5166C17.0366 18.3379 16.7217 18.3652 16.5449 18.5762C16.3203 18.8418 16.0044 19 15.6987 19C14.9144 19 14.4908 18.5546 14.2604 18H15.1733C15.4497 18 15.6733 17.7764 15.6733 17.5C15.6733 17.2236 15.4497 17 15.1733 17H14.0289C14.0128 16.824 14.0029 16.653 14.0029 16.501C14.0029 16.3485 14.0129 16.1767 14.0293 16H15.8291C16.1055 16 16.3291 15.7764 16.3291 15.5C16.3291 15.2236 16.1055 15 15.8291 15H14.2624C14.4943 14.4454 14.9205 14 15.709 14C16.0444 14 16.4185 14.2412 16.6235 14.4648C16.8096 14.668 17.1274 14.6807 17.3301 14.4951C17.5337 14.3086 17.5474 13.9922 17.3608 13.7891C17.0107 13.4072 16.3931 13 15.709 13C14.4723 13 13.5854 13.7398 13.2075 15H12.5029C12.2266 15 12.0029 15.2236 12.0029 15.5C12.0029 15.7764 12.2266 16 12.5029 16H13.0341C13.0206 16.1644 13.0029 16.3254 13.0029 16.501C13.0029 16.6763 13.02 16.8362 13.0328 17H12.5029C12.2266 17 12.0029 17.2236 12.0029 17.5ZM13.4971 9.00098H15.6714C15.9478 9.00098 16.1714 8.77734 16.1714 8.50098C16.1714 8.22461 15.9478 8.00098 15.6714 8.00098H13.4971C13.2207 8.00098 12.9971 8.22461 12.9971 8.50098C12.9971 8.77734 13.2207 9.00098 13.4971 9.00098ZM21.8535 2.14648C21.7598 2.05273 21.6328 2 21.5 2L10.5 2.00098C10.2236 2.00098 10 2.22461 10 2.50098V11H2.5C2.22363 11 2 11.2236 2 11.5V21.5C2 21.7764 2.22363 22 2.5 22H19.5C19.7764 22 20 21.7764 20 21.5V17H21.5C21.7764 17 22 16.7764 22 16.5V2.5C22 2.36719 21.9473 2.24023 21.8535 2.14648ZM6 21H3V12H6V21ZM19 21H7V12H19V21ZM21 16H20V11.5C20 11.2236 19.7764 11 19.5 11H11V3.00098L21 3V16ZM13.4971 7.00098H18.4971C18.7734 7.00098 18.9971 6.77734 18.9971 6.50098C18.9971 6.22461 18.7734 6.00098 18.4971 6.00098H13.4971C13.2207 6.00098 12.9971 6.22461 12.9971 6.50098C12.9971 6.77734 13.2207 7.00098 13.4971 7.00098ZM13.4971 5.00098H18.4971C18.7734 5.00098 18.9971 4.77734 18.9971 4.50098C18.9971 4.22461 18.7734 4.00098 18.4971 4.00098H13.4971C13.2207 4.00098 12.9971 4.22461 12.9971 4.50098C12.9971 4.77734 13.2207 5.00098 13.4971 5.00098Z" />
</svg>
