<svg viewBox="0 0 32 32" xmlns="http://www.w3.org/2000/svg"><path d="M27.0021 11.3328H10.9511C10.818 11.3328 10.6904 11.2626 10.5963 11.1375C10.5022 11.0124 10.4493 10.8427 10.4493 10.6658C10.4493 10.4889 10.5022 10.3193 10.5963 10.1942C10.6904 10.0691 10.818 9.99883 10.9511 9.99883H27.0021C27.1352 9.99883 27.2628 10.0691 27.3569 10.1942C27.4511 10.3193 27.5039 10.4889 27.5039 10.6658C27.5039 10.8427 27.4511 11.0124 27.3569 11.1375C27.2628 11.2626 27.1352 11.3328 27.0021 11.3328ZM27.0021 16.6708H10.9511C10.818 16.6708 10.6904 16.6006 10.5963 16.4755C10.5022 16.3504 10.4493 16.1807 10.4493 16.0038C10.4493 15.8269 10.5022 15.6573 10.5963 15.5322C10.6904 15.4071 10.818 15.3368 10.9511 15.3368H27.0021C27.1352 15.3368 27.2628 15.4071 27.3569 15.5322C27.4511 15.6573 27.5039 15.8269 27.5039 16.0038C27.5039 16.1807 27.4511 16.3504 27.3569 16.4755C27.2628 16.6006 27.1352 16.6708 27.0021 16.6708ZM27.0021 22.0008H10.9511C10.818 22.0008 10.6904 21.9306 10.5963 21.8055C10.5022 21.6804 10.4493 21.5107 10.4493 21.3338C10.4493 21.1569 10.5022 20.9873 10.5963 20.8622C10.6904 20.7371 10.818 20.6668 10.9511 20.6668H27.0021C27.1352 20.6668 27.2628 20.7371 27.3569 20.8622C27.4511 20.9873 27.5039 21.1569 27.5039 21.3338C27.5039 21.5107 27.4511 21.6804 27.3569 21.8055C27.2628 21.9306 27.1352 22.0008 27.0021 22.0008Z"/><circle cx="5.99609" cy="10.7498" r="1.5"/><circle cx="5.99609" cy="15.9998" r="1.5"/><circle cx="5.99609" cy="21.2502" r="1.5"/></svg>
