<svg  viewBox="0 0 24 24"  xmlns="http://www.w3.org/2000/svg">
<path d="M15.506 7.00692C15.506 6.76482 15.3101 6.56892 15.068 6.56892C14.8259 6.56892 14.63 6.76482 14.63 7.00692C14.63 7.986 14.3417 8.79998 13.7972 9.35988C13.3254 9.84536 12.6894 10.1123 12.0058 10.1123C10.7376 10.1123 9.3727 9.14045 9.3727 7.00649C9.3727 6.76439 9.1768 6.56849 8.9347 6.56849C8.69261 6.56849 8.4967 6.76439 8.4967 7.00649C8.4967 9.6208 10.262 10.9887 12.0058 10.9887C12.928 10.9887 13.7874 10.6268 14.4255 9.97069C15.1321 9.24397 15.506 8.21869 15.506 7.00692Z" />
<path fill-rule="evenodd" clip-rule="evenodd" d="M6.0765 4.04999H17.8324C18.4734 4.04999 19.0021 4.55203 19.0353 5.19218L19.7362 18.7364L19.732 18.8634C19.6793 19.48 19.1621 19.964 18.5319 19.964H5.46453L5.30639 19.9536C4.69283 19.8731 4.23274 19.3345 4.26127 18.705L4.87323 5.19996C4.90239 4.5566 5.43247 4.04999 6.0765 4.04999ZM17.8324 4.99899H6.0765C5.93989 4.99899 5.82744 5.10645 5.82126 5.24292L5.20929 18.7479C5.20291 18.8889 5.312 19.0083 5.45297 19.0147L18.5319 19.015C18.673 19.015 18.7874 18.9006 18.7874 18.7595L18.0875 5.24127C18.0805 5.10548 17.9684 4.99899 17.8324 4.99899Z" />
</svg>
