<svg width="24" height="24" viewBox="0 0 24 24" fill="none" xmlns="http://www.w3.org/2000/svg">
<path d="M11.5 10.5C11.5 10.2236 11.2764 10 11 10H5.5C5.22363 10 5 10.2236 5 10.5C5 10.7764 5.22363 11 5.5 11H11C11.2764 11 11.5 10.7764 11.5 10.5ZM5.5 13C5.22363 13 5 13.2236 5 13.5C5 13.7764 5.22363 14 5.5 14H9.5C9.77637 14 10 13.7764 10 13.5C10 13.2236 9.77637 13 9.5 13H5.5ZM15.5 20H3V4H15V8.31348C15 8.58984 15.2236 8.81348 15.5 8.81348C15.7764 8.81348 16 8.58984 16 8.31348V3.5C16 3.22363 15.7764 3 15.5 3H2.5C2.22363 3 2 3.22363 2 3.5V20.5C2 20.7764 2.22363 21 2.5 21H15.5C15.7764 21 16 20.7764 16 20.5C16 20.2236 15.7764 20 15.5 20ZM21.8516 20.1528L19.007 17.2855C19.6168 16.5176 19.9966 15.5594 19.9966 14.5049C19.9966 12.0234 17.9775 10.0049 15.4961 10.0049C13.0151 10.0049 10.9966 12.0234 10.9966 14.5049C10.9966 16.9863 13.0151 19.0049 15.4961 19.0049C16.5624 19.0049 17.5302 18.6168 18.3021 17.9948L21.1416 20.8569C21.2393 20.9556 21.3682 21.0049 21.4966 21.0049C21.624 21.0049 21.7515 20.9565 21.8486 20.8599C22.0449 20.6655 22.0459 20.3486 21.8516 20.1528ZM18.0259 16.9109C18.0074 16.9248 17.9856 16.9319 17.9688 16.9487C17.9481 16.9691 17.9386 16.9952 17.9223 17.018C17.2923 17.6262 16.4389 18.0049 15.4961 18.0049C13.5664 18.0049 11.9966 16.4346 11.9966 14.5049C11.9966 12.5752 13.5664 11.0049 15.4961 11.0049C17.4263 11.0049 18.9966 12.5752 18.9966 14.5049C18.9966 15.4382 18.6237 16.2827 18.0259 16.9109ZM13 7.5C13 7.22363 12.7764 7 12.5 7H5.5C5.22363 7 5 7.22363 5 7.5C5 7.77637 5.22363 8 5.5 8H12.5C12.7764 8 13 7.77637 13 7.5Z" fill="#212121"/>
</svg>
