<svg viewBox="0 0 24 24" fill="none" xmlns="http://www.w3.org/2000/svg">
<path d="M20.5 3.01807H7.5C7.23438 3.01807 7.01855 3.23389 7.01855 3.5V6H3.5C3.22363 6 3 6.22363 3 6.5V20.5C3 20.7764 3.22363 21 3.5 21H17.5C17.7764 21 18 20.7764 18 20.5005L18.002 18.5005C18.002 18.2243 17.7785 18.0009 17.5024 18.0001C17.5023 18.0001 17.5026 18.0001 17.5024 18.0001C17.2261 18.0001 17.002 18.2236 17.002 18.4995L17 20H4V7H13.0107V10.5088C13.0107 10.7852 13.2344 11.0088 13.5107 11.0088H17.0098L17.0049 14.4712C17.0049 14.7476 17.2275 14.9717 17.5039 14.9722C17.7793 14.9722 18.0049 14.749 18.0049 14.4731L18.0107 10.5098C18.0107 10.377 17.958 10.2495 17.8643 10.1553C17.8638 10.1548 17.8632 10.1547 17.8628 10.1543L13.8659 6.14862C13.7753 6.05701 13.6499 6 13.5107 6H7.98145V3.98193H20.0186V16.0181H19V16H13.7168L14.8633 14.8535C15.0586 14.6582 15.0586 14.3418 14.8633 14.1465C14.668 13.9512 14.3516 13.9512 14.1562 14.1465L12.1562 16.1465C11.9609 16.3418 11.9609 16.6582 12.1562 16.8535L14.1562 18.8535C14.2539 18.9512 14.3818 19 14.5098 19C14.6377 19 14.7656 18.9512 14.8633 18.8535C15.0586 18.6582 15.0586 18.3418 14.8633 18.1465L13.7168 17H19V16.9819H20.5C20.7656 16.9819 20.9814 16.7661 20.9814 16.5V3.5C20.9814 3.23389 20.7656 3.01807 20.5 3.01807ZM14.0107 7.70844L16.3061 10.0088H14.0107V7.70844Z" fill="#222222"/>
</svg>
