<svg width="24" height="24" viewBox="0 0 24 24" fill="none" xmlns="http://www.w3.org/2000/svg">
<path d="M17.9965 9.95349C17.9945 9.93427 17.9941 9.91504 17.9901 9.89624C17.9693 9.78217 17.9145 9.67535 17.8209 9.59808L14.8081 7.11121C14.7184 7.03717 14.606 6.99677 14.4895 6.99677H9.48053C9.36328 6.99677 9.25 7.03796 9.15997 7.11279L6.17682 9.59967C6.08276 9.6781 6.02795 9.78699 6.00873 9.90265C6.00714 9.91107 6.00714 9.91986 6.00592 9.92822C6.00232 9.95905 5.99835 9.98907 6.00073 10.0203C6.00391 10.1188 6.03394 10.216 6.09436 10.2988L11.582 17.7983C11.6765 17.9272 11.8261 18.0032 11.9854 18.0032C12.1447 18.0032 12.2948 17.9276 12.3889 17.7995L17.9061 10.2996C17.9681 10.2152 17.9977 10.1147 17.9998 10.0135C18.0009 9.99347 17.9977 9.97345 17.9965 9.95349ZM14.3098 7.99725L16.1104 9.48364H14.2902C14.2858 9.47681 14.283 9.47003 14.2782 9.4632L13.2137 7.99725H14.3098ZM11.9958 8.02325L13.0564 9.48364H10.9377L11.9958 8.02325ZM9.66144 7.99725H10.7792L9.71625 9.46362C9.71185 9.47003 9.70905 9.47723 9.70508 9.48364H7.87891L9.66144 7.99725ZM7.48431 10.5038H9.73145L10.9033 15.1766L7.48431 10.5038ZM12.0014 15.4427L10.7628 10.5038H13.2337L12.0014 15.4427ZM13.1108 15.1298L14.2646 10.5038H16.5138L13.1108 15.1298ZM12 3C7.0376 3 3 7.0376 3 12C3 16.9624 7.0376 21 12 21C16.9624 21 21 16.9624 21 12C21 7.0376 16.9624 3 12 3ZM12 20C7.58887 20 4 16.4111 4 12C4 7.58887 7.58887 4 12 4C16.4111 4 20 7.58887 20 12C20 16.4111 16.4111 20 12 20Z" fill="#212121"/>
</svg>
