<svg width="24" height="24" viewBox="0 0 24 24" fill="none" xmlns="http://www.w3.org/2000/svg">
<path d="M17 10.1011V4.5C17 4.22363 16.7764 4 16.5 4H13V2.5C13 2.22363 12.7764 2 12.5 2H7.5C7.22363 2 7 2.22363 7 2.5V4H3.5C3.22363 4 3 4.22363 3 4.5V21.5C3 21.7764 3.22363 22 3.5 22H16.5C16.7764 22 17 21.7764 17 21.5V19.8989C19.2793 19.4343 21 17.4144 21 15C21 12.5856 19.2793 10.5657 17 10.1011ZM8 3H12V5H8V3ZM16 21H4V5H7V5.5C7 5.77637 7.22363 6 7.5 6H12.5C12.7764 6 13 5.77637 13 5.5V5H16V10C13.2432 10 11 12.2432 11 15C11 17.7568 13.2432 20 16 20V21ZM16 19C13.7939 19 12 17.2061 12 15C12 12.7939 13.7939 11 16 11C18.2061 11 20 12.7939 20 15C20 17.2061 18.2061 19 16 19ZM17.6982 13.1465L15.0488 15.7959L14.0986 14.8613C13.9023 14.6689 13.5859 14.6699 13.3916 14.8672C13.1982 15.0645 13.2002 15.3809 13.3975 15.5742L14.7012 16.8564C14.7988 16.9521 14.9248 17 15.0518 17C15.1797 17 15.3076 16.9512 15.4053 16.8535L18.4053 13.8535C18.6006 13.6582 18.6006 13.3418 18.4053 13.1465C18.21 12.9512 17.8936 12.9512 17.6982 13.1465Z" fill="#212121"/>
</svg>
