<svg  viewBox="0 0 24 24"  xmlns="http://www.w3.org/2000/svg">
<path d="M19.8878 8.17676C18.2452 5.57861 15.1143 4.01758 11.5128 4.00146H11.4581C7.87506 4.00146 4.7569 5.55762 3.10846 8.1709C1.85553 10.1587 1.65436 12.4766 2.5694 14.3706C2.7071 14.6567 3.05573 14.8823 4.7735 15.9048C4.87677 15.9662 4.99909 16.0399 5.10822 16.1049C4.90607 16.9661 4.9986 17.8365 5.40436 18.603C5.55793 18.8942 5.62287 18.9998 9.40363 19.0031C9.43341 19.0985 9.45929 19.2108 9.48346 19.3169C9.62702 19.9468 9.86628 21.0015 11.5108 21.0015C13.1671 21.0015 13.3712 19.9507 13.4932 19.3228C13.5164 19.2031 13.5403 19.0824 13.5706 18.9834C17.4163 18.9474 17.4671 18.87 17.6133 18.5854C18.0154 17.8047 18.098 16.9164 17.8765 16.0431C18.2115 15.8414 18.5306 15.6506 18.8145 15.4814C20.2227 14.6416 20.3565 14.5576 20.4561 14.3452C21.3448 12.4512 21.1319 10.145 19.8878 8.17676ZM19.043 8.71094C19.2545 9.04578 19.4222 9.39307 19.5638 9.74426L15.4883 13.0142C15.4586 13.038 15.441 13.0696 15.4183 13.098C15.0938 12.8929 14.752 12.7081 14.3841 12.5582L17.5057 6.99182C18.1041 7.48511 18.6278 8.05432 19.043 8.71094ZM16.6888 6.4021L13.4444 12.188C13.4351 12.2045 13.4349 12.2229 13.4276 12.24C12.9808 12.1273 12.5086 12.0667 12.0264 12.0343L12.0235 5.03015C13.7952 5.11536 15.388 5.58728 16.6888 6.4021ZM11.0235 5.02478L11.0264 12.0275C10.5618 12.0521 10.109 12.1053 9.67878 12.2047L6.43659 6.32996C7.73713 5.54785 9.30939 5.09192 11.0235 5.02478ZM3.95514 8.70459C4.39167 8.01196 4.95929 7.41492 5.61017 6.90137L8.70099 12.5017C8.30866 12.6541 7.94757 12.8492 7.60407 13.0649L3.44831 9.70715C3.58771 9.36682 3.74982 9.03003 3.95514 8.70459ZM5.28522 15.0454C4.4444 14.5449 3.57428 14.0273 3.46979 13.9365C2.99811 12.9604 2.88898 11.8423 3.12336 10.7313L6.78009 13.6857C6.29181 14.1266 5.87751 14.6356 5.57502 15.2186C5.48127 15.1628 5.37458 15.0985 5.28522 15.0454ZM6.19147 17.9292C6.02594 17.5314 5.97614 17.0979 6.02668 16.6576C6.70148 17.0669 7.42243 17.5138 8.1363 17.9884C7.23957 17.9781 6.52961 17.9594 6.19147 17.9292ZM13.084 17.9795C12.6768 18.2788 12.585 18.752 12.5118 19.1323C12.3956 19.729 12.3428 20.0015 11.5108 20.0015C10.6641 20.0015 10.5958 19.6987 10.459 19.0952C10.3702 18.7051 10.2696 18.2622 9.87702 17.9775C8.75617 17.1649 7.51642 16.3885 6.42511 15.7284C6.43268 15.7164 6.44464 15.7087 6.45124 15.6958C7.12214 14.3911 8.79206 13.0015 11.4708 13.0015H11.5059C13.796 13.0121 15.671 14.0165 16.5369 15.6877C15.4276 16.3704 14.1903 17.1649 13.084 17.9795ZM16.8292 17.8955C16.4717 17.9177 15.754 17.9384 14.858 17.9552C15.5633 17.478 16.2835 17.0192 16.9622 16.6005C17.0242 17.0476 16.9876 17.4896 16.8292 17.8955ZM19.5909 13.833C19.4044 13.9658 18.8448 14.2993 18.3018 14.6226C18.0247 14.7877 17.7137 14.974 17.3882 15.17C17.0921 14.6173 16.6951 14.129 16.2237 13.7058L19.8792 10.7732C20.0958 11.8292 20.0081 12.8922 19.5909 13.833Z" />
</svg>
