<svg  viewBox="0 0 24 24"  xmlns="http://www.w3.org/2000/svg">
<path d="M9.4679 12.4978C9.46741 12.2224 9.24426 11.9998 8.96936 11.9998H8.96887L3.69708 12.0049L5.84045 9.86157C6.03528 9.66675 6.03528 9.35132 5.84045 9.15649C5.64612 8.96216 5.32971 8.96216 5.13538 9.15649L2.14612 12.1458C1.95129 12.3406 1.95129 12.656 2.14612 12.8508L5.15295 15.8577C5.25012 15.9548 5.37805 16.0037 5.50549 16.0037C5.63293 16.0037 5.76086 15.9548 5.85803 15.8577C6.05286 15.6628 6.05286 15.3474 5.85803 15.1526L3.70746 13.002L8.96985 12.9968C9.24524 12.9963 9.4679 12.7732 9.4679 12.4978ZM22.8512 12.1458L19.8717 9.16626C19.6774 8.97192 19.361 8.97192 19.1666 9.16626C18.9718 9.36108 18.9718 9.67651 19.1666 9.87134L21.2946 11.9993L16.028 11.9998C15.7526 11.9998 15.5294 12.2229 15.5294 12.4983C15.5294 12.7737 15.7526 12.9968 16.028 12.9968L21.2955 12.9964L19.1476 15.1443C18.9528 15.3391 18.9528 15.6545 19.1476 15.8494C19.2448 15.9465 19.3727 15.9954 19.5001 15.9954C19.6276 15.9954 19.7555 15.9465 19.8527 15.8494L22.8512 12.8508C23.046 12.656 23.046 12.3406 22.8512 12.1458ZM9.49182 6.00366C9.61926 6.00366 9.74719 5.95483 9.84436 5.85767L11.9949 3.70709L12.0001 8.96948C12.0006 9.24487 12.2238 9.46753 12.4987 9.46753H12.4991C12.7745 9.46704 12.9972 9.2439 12.9972 8.96851L12.992 3.69672L15.1354 5.84009C15.3297 6.03442 15.6461 6.03442 15.8405 5.84009C16.0353 5.64526 16.0353 5.32983 15.8405 5.13501L12.8512 2.14575C12.6569 1.95142 12.3405 1.95142 12.1461 2.14575L9.13928 5.15259C8.94446 5.34741 8.94446 5.66284 9.13928 5.85767C9.23645 5.95483 9.36438 6.00366 9.49182 6.00366ZM15.1403 19.1433L12.9996 21.2843V16.0276C12.9996 15.7507 12.7755 15.5266 12.4987 15.5266C12.2218 15.5266 11.9977 15.7507 11.9977 16.0276V21.2902L9.8512 19.1433C9.65588 18.948 9.33948 18.948 9.14417 19.1433C8.94885 19.3386 8.94885 19.655 9.14417 19.8503L12.1411 22.8477C12.232 22.9408 12.3581 22.9993 12.4987 22.9993C12.647 22.9993 12.7767 22.9321 12.8683 22.8298L15.8473 19.8503C16.0426 19.655 16.0426 19.3386 15.8473 19.1433C15.652 18.948 15.3356 18.948 15.1403 19.1433Z" />
</svg>
