<?xml version="1.0" encoding="UTF-8"?>
<svg viewBox="0 0 24 24" version="1.1" xmlns="http://www.w3.org/2000/svg" xmlns:xlink="http://www.w3.org/1999/xlink">
    <title>icon/icon/order-return-arrow</title>
    <g id="icon/icon/order-return-arrow" stroke="none" stroke-width="1" fill-rule="evenodd">
        <path d="M9.69741669,8.10870166 C9.91356052,7.93685786 10.2281942,7.97263492 10.4001707,8.18861196 C10.5530387,8.38059154 10.5417339,8.65033024 10.3855298,8.82859344 L10.3201987,8.89082369 L8.933684,9.99358579 L13.1402117,9.99358579 C14.9975616,9.99358579 16.5090326,11.449951 16.5090326,13.2399416 C16.5090326,15.0598986 15.0855308,16.4862974 13.2681669,16.4862974 C12.9921212,16.4862974 12.7683419,16.2626908 12.7683419,15.9868581 C12.7683419,15.7110253 12.9921212,15.4874187 13.2681669,15.4874187 C14.5457198,15.4874187 15.5093825,14.5205041 15.5093825,13.2399416 C15.5093825,12.0519835 14.5325438,11.0768559 13.3020852,10.9976577 L13.1402117,10.9924645 L8.9256868,10.9924645 L10.3201987,12.1052154 C10.4240643,12.1876899 10.4908548,12.3080422 10.5058552,12.439757 C10.5208557,12.5714719 10.4828354,12.7037422 10.4001707,12.8074271 C10.3179792,12.9118393 10.197268,12.9788966 10.0651344,12.9935459 C9.95942761,13.0052653 9.85349516,12.9826582 9.7625642,12.9302054 L9.69741669,12.8853397 L7.18829488,10.8845856 C7.06930853,10.7898229 7,10.6460631 7,10.494024 C7,10.3723928 7.04435746,10.2560602 7.12302145,10.165874 L7.18829488,10.1034625 L9.69741669,8.10870166 Z" id="Path"></path>
    </g>
</svg>