<svg width="24" height="24" viewBox="0 0 24 24" fill="none" xmlns="http://www.w3.org/2000/svg">
<path d="M10.5 17C8.57031 17 7 15.4297 7 13.5C7 13.2236 6.77637 13 6.5 13C6.22363 13 6 13.2236 6 13.5C6 15.4297 4.42969 17 2.5 17C2.22363 17 2 17.2236 2 17.5C2 17.7764 2.22363 18 2.5 18C4.42969 18 6 19.5703 6 21.5C6 21.7764 6.22363 22 6.5 22C6.77637 22 7 21.7764 7 21.5C7 19.5703 8.57031 18 10.5 18C10.7764 18 11 17.7764 11 17.5C11 17.2236 10.7764 17 10.5 17ZM6.5 19.4395C6.0708 18.6094 5.39062 17.9292 4.56055 17.5C5.39062 17.0708 6.0708 16.3906 6.5 15.5605C6.9292 16.3906 7.60938 17.0708 8.43945 17.5C7.60938 17.9292 6.9292 18.6094 6.5 19.4395ZM21.5 9C17.916 9 15 6.08398 15 2.5C15 2.22363 14.7764 2 14.5 2C14.2236 2 14 2.22363 14 2.5C14 6.08398 11.084 9 7.5 9C7.22363 9 7 9.22363 7 9.5C7 9.77637 7.22363 10 7.5 10C11.084 10 14 12.916 14 16.5C14 16.7764 14.2236 17 14.5 17C14.7764 17 15 16.7764 15 16.5C15 12.916 17.916 10 21.5 10C21.7764 10 22 9.77637 22 9.5C22 9.22363 21.7764 9 21.5 9ZM14.5 13.8066C13.7383 11.834 12.166 10.2617 10.1934 9.5C12.166 8.73828 13.7383 7.16602 14.5 5.19336C15.2617 7.16602 16.834 8.73828 18.8066 9.5C16.834 10.2617 15.2617 11.834 14.5 13.8066Z" fill="#212121"/>
</svg>
