<svg width="24" height="24" viewBox="0 0 24 24" fill="none" xmlns="http://www.w3.org/2000/svg">
<path d="M19 16.5C19 16.7764 19.2236 17 19.5 17H22.5C22.7764 17 23 16.7764 23 16.5V13.5C23 13.2236 22.7764 13 22.5 13C22.2236 13 22 13.2236 22 13.5V14.8527C21.182 13.8734 19.9684 13.2017 18.6284 13.0381C17.6885 12.9218 16.7851 13.0904 15.9794 13.4503C16.2619 12.9627 16.4951 12.4517 16.6499 11.9136H18.5C18.7764 11.9136 19 11.6899 19 11.4136V8.58594C19 8.30957 18.7764 8.08594 18.5 8.08594H16.6499C16.5063 7.58789 16.3071 7.10791 16.0537 6.65234L17.3633 5.34277C17.5586 5.14746 17.5586 4.83105 17.3633 4.63574L15.3638 2.63623C15.1685 2.44092 14.8521 2.44092 14.6567 2.63623L13.3472 3.9458C12.8916 3.69287 12.4116 3.49365 11.9136 3.3501V1.5C11.9136 1.22363 11.6899 1 11.4136 1H8.58594C8.30957 1 8.08594 1.22363 8.08594 1.5V3.3501C7.58789 3.49365 7.1084 3.69287 6.65234 3.9458L5.34277 2.63623C5.14746 2.44092 4.83105 2.44092 4.63574 2.63623L2.63623 4.63574C2.44092 4.83105 2.44092 5.14746 2.63623 5.34277L3.9458 6.65234C3.69287 7.1084 3.49365 7.58789 3.3501 8.08594H1.5C1.22363 8.08594 1 8.30957 1 8.58594V11.4136C1 11.6899 1.22363 11.9136 1.5 11.9136H3.3501C3.49365 12.4116 3.69287 12.8916 3.9458 13.3472L2.63623 14.6572C2.44092 14.8525 2.44092 15.1689 2.63623 15.3643L4.63574 17.3633C4.83105 17.5586 5.14746 17.5586 5.34277 17.3633L6.65234 16.0537C7.1084 16.3071 7.58838 16.5063 8.08594 16.6494V18.5C8.08594 18.7764 8.30957 19 8.58594 19H11.4136C11.6899 19 11.9136 18.7764 11.9136 18.5V16.6494C12.4529 16.4945 12.9658 16.2607 13.4556 15.9765C13.2576 16.4191 13.1003 16.8854 13.0381 17.3906C12.875 18.7129 13.2373 20.02 14.0586 21.0713C14.8838 22.1274 16.0728 22.7993 17.4058 22.9619C17.6128 22.9873 17.8184 23 18.0215 23C20.5166 23 22.6841 21.1396 22.9961 18.6094C23.0284 18.3501 22.8527 18.1188 22.6013 18.0657C22.5872 18.0627 22.5757 18.054 22.561 18.0522C22.2969 18.0137 22.0381 18.2134 22.0039 18.4873C21.7334 20.6768 19.7285 22.2388 17.5273 21.9697C16.4595 21.8389 15.5073 21.3013 14.8467 20.4556C14.1899 19.6147 13.8999 18.5698 14.0303 17.5127C14.3003 15.3232 16.3076 13.7651 18.5068 14.0303C19.8157 14.1902 20.9707 14.9399 21.5869 16H19.5C19.2236 16 19 16.2236 19 16.5ZM15.7739 11.3037C15.626 11.9609 15.3672 12.585 15.0034 13.1587C14.8555 13.3916 14.9248 13.7007 15.1582 13.8486C15.1785 13.8616 15.2016 13.8638 15.223 13.8735C14.6913 14.2318 14.2348 14.686 13.8727 15.221C13.8632 15.2003 13.8611 15.178 13.8486 15.1582C13.7017 14.9258 13.3936 14.8564 13.1587 15.0034C12.584 15.3672 11.96 15.6265 11.3037 15.7739C11.0757 15.8252 10.9136 16.0278 10.9136 16.2617V18H9.08594V16.2617C9.08594 16.0278 8.92383 15.8252 8.6958 15.7739C8.04053 15.6265 7.41602 15.3672 6.84033 15.0034C6.64355 14.8779 6.38525 14.9058 6.21973 15.0723L4.98926 16.3027L3.69678 15.0107L4.92725 13.7798C5.09277 13.6143 5.12109 13.3564 4.99609 13.1587C4.63281 12.585 4.37354 11.9609 4.22607 11.3037C4.1748 11.0757 3.97217 10.9136 3.73828 10.9136H2V9.08594H3.73828C3.97217 9.08594 4.1748 8.92383 4.22607 8.6958C4.37354 8.03955 4.63281 7.41553 4.99609 6.84033C5.12109 6.64307 5.09277 6.38525 4.92725 6.21973L3.69678 4.98926L4.98926 3.69678L6.21973 4.92725C6.38574 5.09326 6.64502 5.12207 6.84033 4.99609C7.41553 4.63281 8.03955 4.37354 8.6958 4.22607C8.92383 4.1748 9.08594 3.97217 9.08594 3.73828V2H10.9136V3.73828C10.9136 3.97217 11.0757 4.1748 11.3042 4.22607C11.9604 4.37354 12.5845 4.63281 13.1587 4.99609C13.3555 5.12109 13.6138 5.09229 13.7798 4.92725L15.0103 3.69678L16.3027 4.98926L15.0723 6.21973C14.9067 6.38525 14.8784 6.64307 15.0034 6.84082C15.3672 7.41504 15.6265 8.03906 15.7739 8.6958C15.8252 8.92383 16.0278 9.08594 16.2617 9.08594H18V10.9136H16.2617C16.0278 10.9136 15.8252 11.0757 15.7739 11.3037ZM10 6C7.79443 6 6 7.79443 6 10C6 12.2056 7.79443 14 10 14C12.2056 14 14 12.2056 14 10C14 7.79443 12.2056 6 10 6ZM10 13C8.3457 13 7 11.6543 7 10C7 8.3457 8.3457 7 10 7C11.6543 7 13 8.3457 13 10C13 11.6543 11.6543 13 10 13Z" fill="#212121"/>
</svg>
