<svg viewBox="0 0 24 24"  xmlns="http://www.w3.org/2000/svg">
<path d="M15.9172 12.86L16.8534 13.7963C16.904 13.5426 16.9326 13.281 16.9326 13.0127C16.9326 12.038 16.5685 11.1556 15.9872 10.461C17.5067 10.9378 18.7877 11.8005 19.7885 13.0098C19.2274 13.7104 18.5702 14.2991 17.8151 14.7579L18.5432 15.4861C19.4265 14.9137 20.1983 14.1884 20.8374 13.3076C20.8509 13.2891 20.8542 13.2673 20.8648 13.2477C20.8653 13.2468 20.8656 13.2457 20.8661 13.2448C20.8935 13.1929 20.9135 13.1404 20.9214 13.0846C20.9265 13.056 20.9241 13.0279 20.9243 12.9988C20.9234 12.9714 20.9253 12.9448 20.92 12.9179C20.9076 12.8397 20.883 12.763 20.8321 12.6953C20.3508 12.0569 19.8011 11.5042 19.1965 11.0278L20.1626 9.5957C20.3169 9.36719 20.2569 9.05664 20.0279 8.90234C19.7989 8.74609 19.4883 8.80762 19.3335 9.03711L18.3797 10.451C17.5396 9.93188 16.6016 9.55872 15.5869 9.31982L15.9366 7.61035C15.9922 7.33984 15.8174 7.0752 15.5469 7.01953C15.2764 6.96582 15.0122 7.13867 14.9571 7.40918L14.603 9.14014C14.065 9.06512 13.5143 9.01373 12.938 9.01324C12.9362 9.01324 12.9345 9.0127 12.9326 9.0127C12.932 9.0127 12.9314 9.01288 12.9308 9.01288C12.9294 9.01288 12.9281 9.0127 12.9268 9.0127C12.648 9.0127 12.3799 9.03479 12.1098 9.05261L13.0853 10.0281C14.6159 10.1068 15.8385 11.3295 15.9172 12.86ZM21.7827 20.1465L4.78275 3.14648C4.58743 2.95117 4.27103 2.95117 4.07571 3.14648C3.8804 3.3418 3.8804 3.6582 4.07571 3.85352L9.69937 9.47717C8.92014 9.71234 8.18906 10.0308 7.5192 10.4434L6.58401 9.07422C6.42825 8.84766 6.11771 8.79004 5.8887 8.94336C5.66068 9.09961 5.60208 9.41016 5.75784 9.63867L6.70065 11.019C6.08554 11.5014 5.52481 12.0616 5.03372 12.7109C5.02786 12.7187 5.02695 12.7281 5.02164 12.7361C5.00229 12.7648 4.99069 12.7957 4.97781 12.8274C4.96597 12.8567 4.95242 12.8843 4.94638 12.9147C4.94022 12.9453 4.9418 12.9755 4.94138 13.0067C4.94101 13.0399 4.939 13.0719 4.94516 13.1045C4.95059 13.1336 4.96317 13.1602 4.97391 13.1884C4.98642 13.2213 4.99808 13.2534 5.01767 13.2833C5.02286 13.2914 5.02359 13.3008 5.02933 13.3086C6.80472 15.7314 9.53372 17.0127 12.9224 17.0127C12.9248 17.0127 12.927 17.0124 12.9294 17.0124C12.9305 17.0124 12.9315 17.0127 12.9326 17.0127C12.9358 17.0127 12.9387 17.0118 12.9419 17.0118C14.2861 17.0098 15.52 16.8027 16.6348 16.4126L21.0757 20.8535C21.1734 20.9512 21.3013 21 21.4292 21C21.5572 21 21.6851 20.9512 21.7827 20.8535C21.9781 20.6582 21.9781 20.3418 21.7827 20.1465ZM12.4063 12.1841L13.7613 13.5391C13.5835 13.8174 13.2866 14.0127 12.9326 14.0127C12.3814 14.0127 11.9326 13.5645 11.9326 13.0127C11.9326 12.6586 12.1281 12.3618 12.4063 12.1841ZM9.88541 15.5732C8.35226 15.0986 7.07089 14.2342 6.08499 13.0163C7.10477 11.7842 8.37314 10.9225 9.88632 10.451C9.30008 11.147 8.93265 12.0333 8.93265 13.0127C8.93265 13.9915 9.29971 14.8774 9.88541 15.5732ZM12.9416 16.0118C12.9374 16.0118 12.9336 16.0124 12.9294 16.0124C11.2766 16.0106 9.93265 14.6659 9.93265 13.0127C9.93265 12.1085 10.3431 11.3062 10.9779 10.7557L11.6847 11.4625C11.2299 11.8294 10.9326 12.3843 10.9326 13.0127C10.9326 14.1152 11.8296 15.0127 12.9326 15.0127C13.5612 15.0127 14.116 14.7154 14.4829 14.2607L15.1897 14.9675C14.6411 15.6001 13.8422 16.009 12.9416 16.0118Z" />
</svg>
