<svg width="24" height="24" viewBox="0 0 24 24" fill="none" xmlns="http://www.w3.org/2000/svg">
<path d="M10 10.5V9.5C10 9.22363 9.77637 9 9.5 9C9.22363 9 9 9.22363 9 9.5V10H7.5C7.22363 10 7 10.2236 7 10.5C7 10.7764 7.22363 11 7.5 11H9.5C9.77637 11 10 10.7764 10 10.5ZM15.7021 14.0425C15.4512 13.9321 15.1543 14.0454 15.043 14.2979C14.6074 15.2842 13.3271 16 12 16C10.5674 16 9.34863 15.3257 8.96777 14.3223C8.86914 14.0635 8.57812 13.9341 8.32227 14.0327C8.06445 14.1309 7.93457 14.4194 8.03223 14.6777C8.56055 16.0669 10.1553 17 12 17C13.7324 17 15.3594 16.0552 15.957 14.7021C16.0693 14.4492 15.9551 14.1543 15.7021 14.0425ZM12 2.99951C7.03711 2.99951 3 7.03711 3 12C3 16.9629 7.03711 21.0005 12 21.0005C16.9629 21.0005 21 16.9629 21 12C21 7.03711 16.9629 2.99951 12 2.99951ZM12 20.0005C7.58887 20.0005 4 16.4116 4 12C4 7.58838 7.58887 3.99951 12 3.99951C16.4111 3.99951 20 7.58838 20 12C20 16.4116 16.4111 20.0005 12 20.0005ZM16.5 10H15V9.5C15 9.22363 14.7764 9 14.5 9C14.2236 9 14 9.22363 14 9.5V10.5C14 10.7764 14.2236 11 14.5 11H16.5C16.7764 11 17 10.7764 17 10.5C17 10.2236 16.7764 10 16.5 10Z" fill="#212121"/>
</svg>
