<svg  viewBox="0 0 24 24"  xmlns="http://www.w3.org/2000/svg">
<path d="M20.8535 9.14648L14.8535 3.14648C14.6582 2.95117 14.3418 2.95117 14.1465 3.14648C13.0944 4.19855 12.8239 5.67358 13.3383 6.89478L8.37537 10.9564C6.79095 9.9765 5.27765 10.0153 4.14648 11.1465C3.95117 11.3418 3.95117 11.6582 4.14648 11.8535L7.79297 15.5L3.14648 20.1465C2.95117 20.3418 2.95117 20.6582 3.14648 20.8535C3.24414 20.9512 3.37207 21 3.5 21C3.62793 21 3.75586 20.9512 3.85352 20.8535L8.5 16.207L12.1465 19.8535C12.2441 19.9512 12.3721 20 12.5 20C12.6279 20 12.7559 19.9512 12.8535 19.8535C13.9837 18.7233 14.0233 17.2099 13.0442 15.6256L17.1152 10.6678C17.5115 10.8326 17.9334 10.917 18.3594 10.917C19.2451 10.917 20.1465 10.5605 20.8535 9.85352C21.0488 9.6582 21.0488 9.3418 20.8535 9.14648ZM12.4609 18.7539L5.24609 11.5391C6.67676 10.6426 8.40234 12.1094 9.12207 12.8291L11.1709 14.8779C11.8916 15.5986 13.3525 17.3271 12.4609 18.7539ZM12.4342 14.7917C12.2614 14.5848 12.0848 14.3777 11.8779 14.1709L9.8291 12.1221C9.62231 11.9153 9.41528 11.7388 9.20844 11.5659L13.878 7.74432C13.9297 7.80402 13.9695 7.86993 14.0264 7.92676L16.0635 9.96387C16.126 10.0264 16.1978 10.0715 16.2638 10.1279L12.4342 14.7917ZM16.7705 9.25684L14.7334 7.21973C13.8574 6.34375 13.9443 5.11328 14.5342 4.24121L19.7588 9.46582C18.8857 10.0537 17.6533 10.1377 16.7705 9.25684Z" />
</svg>
