<svg  viewBox="0 0 24 24"  xmlns="http://www.w3.org/2000/svg">
<path d="M17.5 8C17.2236 8 17 8.22363 17 8.5V11.5H7V8.5C7 8.22363 6.77637 8 6.5 8C6.22363 8 6 8.22363 6 8.5V15.5C6 15.7764 6.22363 16 6.5 16C6.77637 16 7 15.7764 7 15.5V12.5H17V15.5C17 15.7764 17.2236 16 17.5 16C17.7764 16 18 15.7764 18 15.5V8.5C18 8.22363 17.7764 8 17.5 8Z" />
<path d="M4.5 9C4.22363 9 4 9.22363 4 9.5V11.5C4 11.2236 3.77637 11 3.5 11C3.22363 11 3 11.2236 3 11.5V12.5C3 12.7764 3.22363 13 3.5 13C3.77637 13 4 12.7764 4 12.5V14.5C4 14.7764 4.22363 15 4.5 15C4.77637 15 5 14.7764 5 14.5V9.5C5 9.22363 4.77637 9 4.5 9Z" />
<path d="M20 11.5C20 11.2236 20.2236 11 20.5 11C20.7764 11 21 11.2236 21 11.5V12.5C21 12.7764 20.7764 13 20.5 13C20.2236 13 20 12.7764 20 12.5V14.5C20 14.7764 19.7764 15 19.5 15C19.2236 15 19 14.7764 19 14.5V9.5C19 9.22363 19.2236 9 19.5 9C19.7764 9 20 9.22363 20 9.5V11.5Z" />
</svg>
