<svg width="24" height="24" viewBox="0 0 24 24" fill="none" xmlns="http://www.w3.org/2000/svg">
<path d="M15.7021 14.043C15.4512 13.9297 15.1543 14.0459 15.043 14.2979C14.6064 15.2842 13.3271 16 12 16C10.5674 16 9.34863 15.3262 8.96777 14.3223C8.86914 14.0635 8.57812 13.9385 8.32227 14.0322C8.06445 14.1309 7.93457 14.4199 8.03223 14.6777C8.56055 16.0664 10.1553 17 12 17C13.7324 17 15.3594 16.0547 15.957 14.7021C16.0693 14.4492 15.9551 14.1543 15.7021 14.043ZM12 2.99951C7.03711 2.99951 3 7.03711 3 12C3 16.9629 7.03711 21.001 12 21.001C16.9629 21.001 21 16.9629 21 12C21 7.03711 16.9629 2.99951 12 2.99951ZM12 20.001C7.58887 20.001 4 16.4121 4 12C4 7.58838 7.58887 3.99951 12 3.99951C16.4111 3.99951 20 7.58838 20 12C20 16.4121 16.4111 20.001 12 20.001ZM10.916 10.7773C11.0693 10.5474 11.0068 10.2373 10.7773 10.084C10.5488 9.93262 10.2383 9.99268 10.084 10.2227C9.74121 10.7373 9.39551 10.999 9.05762 11H9.05566C8.55273 11 8.06152 10.438 7.91504 10.2212C7.75977 9.9917 7.44824 9.93213 7.22168 10.0859C6.99316 10.2393 6.93164 10.5483 7.08398 10.7773C7.16699 10.9023 7.93164 12 9.05566 12C9.74902 12 10.375 11.5889 10.916 10.7773ZM16.084 10.2227C15.7412 10.7373 15.3955 10.999 15.0576 11H15.0557C14.5527 11 14.0615 10.438 13.915 10.2212C13.7598 9.9917 13.4473 9.93213 13.2217 10.0859C12.9932 10.2393 12.9316 10.5483 13.084 10.7773C13.167 10.9023 13.9316 12 15.0557 12C15.749 12 16.375 11.5889 16.916 10.7773C17.0693 10.5474 17.0068 10.2373 16.7773 10.084C16.5498 9.93262 16.2383 9.99268 16.084 10.2227Z" fill="#212121"/>
</svg>
