<svg  viewBox="0 0 24 24"  xmlns="http://www.w3.org/2000/svg">
<path fill-rule="evenodd" clip-rule="evenodd" d="M21.2837 12.5938L18.0054 10.064V7.86627L18.6646 8.38672C18.7564 8.45898 18.8657 8.49414 18.9741 8.49414C19.1221 8.49414 19.2686 8.42871 19.3672 8.30371C19.5381 8.08691 19.501 7.77246 19.2847 7.60156L12.3203 2.10352C12.1377 1.96094 11.8828 1.96094 11.7002 2.10352L4.73584 7.60156C4.51953 7.77246 4.48243 8.08691 4.65332 8.30371C4.82471 8.52051 5.13965 8.55762 5.35596 8.38672L6.01026 7.87012V13.0165L2.73584 15.6016C2.51953 15.7725 2.48243 16.0869 2.65332 16.3037C2.82471 16.5205 3.13965 16.5586 3.35596 16.3867L4.01026 15.8701V21H3C2.72363 21 2.5 21.2236 2.5 21.5C2.5 21.7764 2.72363 22 3 22H21C21.2764 22 21.5 21.7764 21.5 21.5C21.5 21.2236 21.2764 21 21 21H16.0054V19.0215H19.4717C19.751 19.0215 19.9775 18.7949 19.9775 18.5156V12.8636L20.6655 13.3945C20.7578 13.4658 20.8662 13.5 20.9741 13.5C21.1255 13.5 21.2754 13.4326 21.375 13.3027C21.5454 13.082 21.5049 12.7646 21.2837 12.5938ZM15.0054 15.0767V21H11.9766V17.4961C11.9766 17.2197 11.7529 16.9961 11.4766 16.9961H8.48584C8.20947 16.9961 7.98584 17.2197 7.98584 17.4961V21H5.01026V15.0806L10.0103 11.1328L15.0054 15.0767ZM8.98584 21V17.9961H10.9766V21H8.98584ZM7.01026 12.1348V7.08057L12.0103 3.13281L17.0054 7.07672V9.29236L14.1587 7.0957C13.9761 6.95508 13.7222 6.95508 13.5405 7.0957L7.01026 12.1348ZM18.9658 18.0098H16.0054V15.8663L16.6646 16.3867C16.7564 16.459 16.8657 16.4941 16.9741 16.4941C17.1221 16.4941 17.2686 16.4287 17.3672 16.3037C17.5381 16.0869 17.501 15.7725 17.2847 15.6016L10.8038 10.4852L13.8496 8.13477L18.9658 12.0829V18.0098Z" />
</svg>
