<svg viewBox="0 0 24 24" xmlns="http://www.w3.org/2000/svg">
<path d="M21.8853 10.7583L21.1172 8.90381C20.989 8.59406 20.7534 8.36139 20.4755 8.1839C19.6509 7.33228 17.9882 7 16.5 7H11.5C11.2017 7 10.7734 6.35352 10.396 5.78369C9.61768 4.60889 8.55176 3 6.5 3H4.5C3.70117 3 3 3.69727 3 4.49219C3 4.83539 3.133 5.15643 3.34192 5.41632C2.01758 6.60004 2 6.80164 2 7V7.5C2 9 3.20361 9 4 9H4.5C5.5376 9 6 9.4458 6 10.4453V12.5C6 13.4903 6.28088 14.7875 7 15.6461V15.9922C7 16.7293 7.40509 17.3672 8 17.7141V20.5C8 20.7764 8.22363 21 8.5 21H10.5C10.7764 21 11 20.7764 11 20.5V17.7031C11.3909 17.4736 11.7066 17.1306 11.8696 16.7021C12.2754 16.8496 12.8496 17 13.5 17C14.0547 17 14.6777 16.8276 15.1201 16.6758C15.2805 17.1156 15.6014 17.4675 16 17.7017V20.5C16 20.7764 16.2236 21 16.5 21H18.5C18.7764 21 19 20.7764 19 20.5V17.7141C19.5949 17.3672 20 16.7293 20 15.9922V14.5C20 14.0963 20.2211 13.5093 20.4578 12.9988C20.6412 12.9907 20.8265 12.9562 21.0059 12.8818C21.4058 12.7163 21.7178 12.4038 21.8843 12.002C22.0503 11.6001 22.0508 11.1582 21.8853 10.7583ZM4.5 8H4C3 8 3 7.94287 3 7.5V7.13574C3.17676 6.92676 3.70117 6.43164 4.18848 6H5.0025C5.00061 6.06128 5 6.1192 5 6.16357C5 6.31293 5.13947 7.37256 5.51868 8.15314C5.21924 8.05414 4.88037 8 4.5 8ZM6 6.16357C6 5.60889 6.04053 5.5 6.50781 5.5C6.96045 5.5 7 5.60889 7 6.16357C7 6.5127 6.73047 7.49609 6.5 7.88721C6.26953 7.49609 6 6.5127 6 6.16357ZM10 20H9V17.9922H10V20ZM18 20H17V17.9922H18V20ZM19 14.5V15.9922C19 16.5435 18.5513 16.9922 18 16.9922H17C16.4487 16.9922 16 16.5435 16 15.9922C16 15.8223 15.9136 15.6641 15.771 15.5723C15.6284 15.48 15.4482 15.4658 15.2939 15.5366C15.0088 15.6655 14.1309 16 13.5 16C12.5327 16 11.7573 15.5635 11.7495 15.5591C11.5947 15.4697 11.4038 15.4707 11.25 15.5601C11.0957 15.6494 11 15.814 11 15.9922C11 16.5435 10.5513 16.9922 10 16.9922H9C8.44873 16.9922 8 16.5435 8 15.9922V15.5C8 15.4855 7.99298 15.4733 7.99176 15.459L7.99353 15.4589C7.98566 15.3425 7.9425 15.2277 7.85352 15.1387C7.33496 14.6201 7 13.5845 7 12.5V10.4453C7 9.85907 6.86975 9.36774 6.62299 8.98242C7.66449 8.80157 8 6.39478 8 6.16357C8 5.75195 8 4.5 6.50781 4.5C5.88275 4.5 5.52551 4.71875 5.31128 5H4.5C4.2749 5 4 4.76562 4 4.49219C4 4.22705 4.2749 4 4.5 4H6.5C8.01465 4 8.83691 5.24072 9.56201 6.33594C10.1294 7.19141 10.665 8 11.5 8H16.5C17.129 8 17.9247 8.08972 18.6015 8.28632C18.3968 8.45386 18.2202 8.65222 18.1157 8.9043C17.9497 9.30615 17.9492 9.74756 18.1147 10.1475L18.8828 12.0024C19.0104 12.3101 19.2234 12.5563 19.4816 12.7288C19.2325 13.2911 19 13.9565 19 14.5ZM20.96 11.6191C20.896 11.7744 20.7764 11.8945 20.623 11.958C20.4712 12.0205 20.3013 12.021 20.1455 11.9565C19.9907 11.8926 19.8701 11.7729 19.8066 11.6196L19.0386 9.76465C18.9751 9.61182 18.9756 9.44189 19.04 9.28711C19.104 9.13184 19.2236 9.01172 19.377 8.94824C19.5312 8.88477 19.7002 8.88525 19.8545 8.94971C20.0098 9.01367 20.1299 9.1333 20.1934 9.28662L20.9614 11.1411C21.0249 11.2944 21.0244 11.4639 20.96 11.6191Z"/>
</svg>
