<svg width="24" height="24" viewBox="0 0 24 24" fill="none" xmlns="http://www.w3.org/2000/svg">
<path d="M18.3643 4.9292L17.6572 5.63623C17.4619 5.83154 17.4619 6.14795 17.6572 6.34326C17.7549 6.44092 17.8828 6.48975 18.0107 6.48975C18.1387 6.48975 18.2666 6.44092 18.3643 6.34326L19.0713 5.63623C19.2666 5.44092 19.2666 5.12451 19.0713 4.9292C18.876 4.73389 18.5596 4.73389 18.3643 4.9292ZM5.63574 6.34326C5.7334 6.44092 5.86133 6.48975 5.98926 6.48975C6.11719 6.48975 6.24512 6.44092 6.34277 6.34326C6.53809 6.14795 6.53809 5.83154 6.34277 5.63623L5.63574 4.9292C5.44043 4.73389 5.12402 4.73389 4.92871 4.9292C4.7334 5.12451 4.7334 5.44092 4.92871 5.63623L5.63574 6.34326ZM12 4C12.2764 4 12.5 3.77637 12.5 3.5V2.5C12.5 2.22363 12.2764 2 12 2C11.7236 2 11.5 2.22363 11.5 2.5V3.5C11.5 3.77637 11.7236 4 12 4ZM5.63574 17.6567L4.92871 18.3638C4.7334 18.5591 4.7334 18.8755 4.92871 19.0708C5.02637 19.1685 5.1543 19.2173 5.28223 19.2173C5.41016 19.2173 5.53809 19.1685 5.63574 19.0708L6.34277 18.3638C6.53809 18.1685 6.53809 17.8521 6.34277 17.6567C6.14746 17.4614 5.83105 17.4614 5.63574 17.6567ZM3.5 11.5H2.5C2.22363 11.5 2 11.7236 2 12C2 12.2764 2.22363 12.5 2.5 12.5H3.5C3.77637 12.5 4 12.2764 4 12C4 11.7236 3.77637 11.5 3.5 11.5ZM12 6C8.69141 6 6 8.69141 6 12C6 15.3086 8.69141 18 12 18C15.3086 18 18 15.3086 18 12C18 8.69141 15.3086 6 12 6ZM12 17C9.24316 17 7 14.7568 7 12C7 9.24316 9.24316 7 12 7C14.7568 7 17 9.24316 17 12C17 14.7568 14.7568 17 12 17ZM18.3643 17.6567C18.1689 17.4614 17.8525 17.4614 17.6572 17.6567C17.4619 17.8521 17.4619 18.1685 17.6572 18.3638L18.3643 19.0708C18.4619 19.1685 18.5898 19.2173 18.7178 19.2173C18.8457 19.2173 18.9736 19.1685 19.0713 19.0708C19.2666 18.8755 19.2666 18.5591 19.0713 18.3638L18.3643 17.6567ZM12 20C11.7236 20 11.5 20.2236 11.5 20.5V21.5C11.5 21.7764 11.7236 22 12 22C12.2764 22 12.5 21.7764 12.5 21.5V20.5C12.5 20.2236 12.2764 20 12 20ZM21.5 11.5H20.5C20.2236 11.5 20 11.7236 20 12C20 12.2764 20.2236 12.5 20.5 12.5H21.5C21.7764 12.5 22 12.2764 22 12C22 11.7236 21.7764 11.5 21.5 11.5Z" fill="#212121"/>
</svg>
