<svg  viewBox="0 0 24 24"  xmlns="http://www.w3.org/2000/svg">
<path d="M19.3663 7.39942C18.7882 4.81543 17.2501 4.26172 16.9152 4.1709L14.8962 3.32935C14.7711 3.01343 14.6232 2.74164 14.451 2.53827C14.3921 2.41364 14.2866 2.31208 14.1437 2.27051C12.0576 1.66004 10.0818 2.20661 9.88335 2.2652C9.80718 2.28217 9.73492 2.3136 9.67394 2.36426C9.41607 2.5763 9.2138 2.96534 9.04967 3.40784L7.14806 4.15528C7.0714 4.1709 5.27062 4.55371 4.62316 7.46973L3.54552 21.3125C3.54552 21.3125 3.54583 21.3139 3.54577 21.3146C3.54571 21.3156 3.5451 21.3164 3.54504 21.3174C3.54253 21.3549 3.55376 21.389 3.55926 21.4247C3.56371 21.4537 3.56152 21.4844 3.57073 21.5117C3.58221 21.5454 3.60448 21.5729 3.62261 21.6032C3.6375 21.6281 3.64696 21.6561 3.66589 21.678C3.6917 21.708 3.72637 21.7283 3.75866 21.7515C3.7785 21.7658 3.79406 21.785 3.81597 21.7962C3.86462 21.8212 3.91991 21.8336 3.97662 21.8415C3.98681 21.8429 3.99511 21.8488 4.00549 21.8496C4.00585 21.8497 4.00616 21.8496 4.00616 21.8496C4.00774 21.8497 4.00866 21.8505 4.00988 21.8506L6.46593 22.0186C6.47765 22.0195 6.48937 22.0195 6.5006 22.0195C6.75841 22.0195 6.97668 21.8213 6.99816 21.5606L7.11291 20.1816C7.98888 20.9727 9.58849 22 11.9923 22C11.995 22 11.9974 21.9985 12.0001 21.9984C12.0029 21.9985 12.0052 22 12.0079 22C14.4195 22 16.0167 20.9658 16.8863 20.1729L17.0021 21.5606C17.0236 21.8213 17.2418 22.0195 17.4996 22.0195C17.5109 22.0195 17.5226 22.0195 17.5343 22.0186L19.9903 21.8506C20.1232 21.8408 20.2472 21.7793 20.3346 21.6787C20.422 21.5772 20.465 21.4453 20.4547 21.3125L19.3663 7.39942ZM13.3048 4.77539C13.5382 4.44922 13.7828 4.0625 13.986 3.72754C14.13 4.1211 14.2672 4.65332 14.3722 5.20118C14.0426 5.06739 13.6578 4.91309 13.3048 4.77539ZM12.191 6.5H11.8092L11.3511 5.58368C11.4305 5.55317 11.5022 5.52637 11.5731 5.5H12.3983C12.4768 5.52912 12.5555 5.55835 12.6448 5.59247L12.191 6.5ZM11.9547 7.5H12.0455L12.9801 17.2969L11.9967 18.2773L11.0201 17.2979L11.9547 7.5ZM9.98791 3.73243C10.1905 4.06641 10.4347 4.45118 10.6671 4.77637C10.319 4.91407 9.94201 5.06641 9.61779 5.19922C9.71691 4.65528 9.84777 4.125 9.98791 3.73243ZM13.2062 3.08265C12.8857 3.61615 12.506 4.20673 12.2587 4.5H11.7123C11.4672 4.20942 11.0925 3.62726 10.7739 3.09754C11.3456 3.00257 12.2402 2.91974 13.2062 3.08265ZM4.5816 20.8871L4.65044 19.9982L6.11529 20.1137L6.04259 20.9873L4.5816 20.8871ZM7.23107 18.8604C7.29455 18.0498 7.35998 17.2354 7.42394 16.4424L7.99816 9.53614C8.02111 9.26172 7.81701 9.02051 7.54211 8.99707C7.2716 8.97559 7.0255 9.17676 7.00207 9.45215C7.00207 9.45215 6.72619 12.667 6.42785 16.3574L6.19811 19.118L4.72765 19.0021L5.60949 7.61817C6.09484 5.44922 7.29699 5.14746 7.42541 5.11231L8.71136 4.61072C8.59472 5.16901 8.52703 5.67774 8.49718 5.94239C8.47765 6.11817 8.55236 6.292 8.69445 6.39844C8.78234 6.46387 8.88781 6.49805 8.99426 6.49805C9.05968 6.49805 9.12511 6.48535 9.18713 6.45899C9.18829 6.45899 9.77294 6.21454 10.4178 5.95356L10.9889 7.09565L10.0026 17.4365C9.9884 17.585 10.0411 17.7324 10.1461 17.8379L11.5079 19.2037V20.9654C8.9782 20.7884 7.59637 19.3202 7.23107 18.8604ZM16.9982 9.45899C16.9767 9.19727 16.7579 9 16.5006 9C16.4874 9 16.4737 9.00098 16.4601 9.00196C16.1852 9.02344 15.9801 9.26368 16.0016 9.53907C16.0016 9.53907 16.3483 14.0068 16.754 18.8623C16.3907 19.3223 15.0338 20.8057 12.5079 20.9824V19.1802L13.8531 17.8389C13.9591 17.7334 14.0118 17.5859 13.9977 17.4365L13.0113 7.09565L13.5793 5.95972C14.227 6.21875 14.8132 6.45996 14.8141 6.45996C14.8756 6.48535 14.9401 6.49805 15.0045 6.49805C15.1124 6.49805 15.2189 6.46289 15.3077 6.39551C15.4488 6.28809 15.5226 6.11328 15.5006 5.9375C15.4673 5.66571 15.391 5.1366 15.2633 4.56128L16.6525 5.13575C16.7032 5.14746 17.9054 5.44922 18.38 7.54785L19.2731 19.018L17.801 19.1055L16.9982 9.45899ZM17.9576 20.9873L17.884 20.1022L19.3507 20.015L19.4186 20.8867L17.9576 20.9873Z" />
</svg>
