<svg viewBox="0 0 24 24" xmlns="http://www.w3.org/2000/svg">
<path d="M15.4888 3H20.9888V8.50635C20.9888 8.78271 21.2124 9.00635 21.4888 9.00635C21.7651 9.00635 21.9888 8.78271 21.9888 8.50635V2.5C21.9888 2.22363 21.7651 2 21.4888 2H15.4888C15.2124 2 14.9888 2.22363 14.9888 2.5C14.9888 2.77637 15.2124 3 15.4888 3ZM11.9995 15C13.6538 15 14.9995 13.6543 14.9995 12C14.9995 10.3457 13.6538 9 11.9995 9C10.3452 9 8.99951 10.3457 8.99951 12C8.99951 13.6543 10.3452 15 11.9995 15ZM11.9995 10C13.1025 10 13.9995 10.897 13.9995 12C13.9995 13.1025 13.1025 14 11.9995 14C10.8965 14 9.99951 13.1025 9.99951 12C9.99951 10.897 10.8965 10 11.9995 10ZM8.48877 21H2.98877V15.5059C2.98877 15.2295 2.76514 15.0059 2.48877 15.0059C2.2124 15.0059 1.98877 15.2295 1.98877 15.5059V21.5C1.98877 21.7764 2.2124 22 2.48877 22H8.48877C8.76514 22 8.98877 21.7764 8.98877 21.5C8.98877 21.2236 8.76514 21 8.48877 21ZM5.00244 8.12256L4.99756 15.8789C4.99756 16.4941 5.49902 16.9951 6.11523 16.9951H17.8745C18.4907 16.9951 18.9922 16.4941 18.9922 15.8789L18.9976 8.12305C18.9976 7.50732 18.4961 7.00635 17.8799 7.00635H14.3701L13.938 6.24951C13.8491 6.09326 13.6836 5.99707 13.5039 5.99707H10.5103C10.3306 5.99707 10.165 6.09326 10.0762 6.24951L9.64404 7.00635H6.12012C5.50391 7.00635 5.00244 7.50732 5.00244 8.12256ZM9.93457 8.00635C10.1143 8.00635 10.2798 7.91016 10.3687 7.75391L10.8008 6.99707H13.2134L13.6455 7.75391C13.7344 7.91016 13.8999 8.00635 14.0796 8.00635H17.8799C17.9448 8.00635 17.9976 8.05859 17.9976 8.12256L17.9922 15.8789C17.9922 15.9434 17.9395 15.9951 17.8745 15.9951H6.11523C6.05029 15.9951 5.99756 15.9434 5.99756 15.8789L6.00244 8.12305C6.00244 8.05859 6.05518 8.00635 6.12012 8.00635H9.93457ZM21.5112 15.0059C21.2349 15.0059 21.0112 15.2295 21.0112 15.5059V21H15.4888C15.2124 21 14.9888 21.2236 14.9888 21.5C14.9888 21.7764 15.2124 22 15.4888 22H21.5112C21.7876 22 22.0112 21.7764 22.0112 21.5V15.5059C22.0112 15.2295 21.7876 15.0059 21.5112 15.0059ZM2.48877 9.00635C2.76514 9.00635 2.98877 8.78271 2.98877 8.50635V3H8.48877C8.76514 3 8.98877 2.77637 8.98877 2.5C8.98877 2.22363 8.76514 2 8.48877 2H2.48877C2.2124 2 1.98877 2.22363 1.98877 2.5V8.50635C1.98877 8.78271 2.2124 9.00635 2.48877 9.00635Z"/>
</svg>
