<svg viewBox="0 0 24 24" xmlns="http://www.w3.org/2000/svg">
<path d="M21.6436 5.02098L11.6436 2.02098C11.5303 1.98729 11.4062 1.9951 11.2969 2.04295L2.29688 6.04295C2.11621 6.12352 2 6.30223 2 6.49998V17.5L2.0011 17.5054L2 17.5093C2.00012 17.5149 2.0047 17.5191 2.005 17.5247C2.00934 17.6094 2.03748 17.6849 2.0788 17.7533C2.08954 17.7712 2.0993 17.7865 2.11218 17.803C2.16547 17.8711 2.23016 17.9288 2.31152 17.962L2.31445 17.9643L12.3145 21.9643C12.374 21.9883 12.4375 22 12.5 22C12.584 22 12.668 21.979 12.7432 21.937L21.7432 16.937C21.7541 16.9309 21.7579 16.918 21.7682 16.9112C21.8309 16.8702 21.8821 16.8179 21.921 16.7538C21.9293 16.74 21.9399 16.7298 21.9468 16.7154C21.9786 16.6495 22 16.578 22 16.5V5.49998C22 5.27928 21.8555 5.08445 21.6436 5.02098ZM3 6.82469L11 3.26957V13.1749L3 16.7304V6.82469ZM12.4648 20.9472L3.78613 17.4756L11.4185 14.0837C11.446 14.0884 11.4711 14.1001 11.5 14.1001C11.5553 14.1001 11.6061 14.0852 11.6558 14.0687L20.2217 16.6382L12.4648 20.9472ZM17 14.6279V6.77293L19 7.29637V15.2279L17 14.6279ZM21 15.8279L20 15.5279V6.91063C20 6.68309 19.8467 6.48436 19.627 6.42674L16.627 5.64109C16.4746 5.60203 16.3164 5.63475 16.1943 5.72899C16.0723 5.82371 16 5.9702 16 6.12498V14.3279L12 13.1279V3.17198L21 5.87205V15.8279ZM9.29688 5.37645L4.29688 7.59861C4.11621 7.67918 4 7.85789 4 8.05565V12.1665C4 12.3359 4.08594 12.4936 4.22754 12.5859C4.30957 12.6391 4.4043 12.6665 4.5 12.6665C4.56934 12.6665 4.6377 12.6523 4.70312 12.6235L9.70312 10.4013C9.88379 10.3208 10 10.1421 10 9.94432V5.83348C10 5.66404 9.91406 5.50633 9.77246 5.41404C9.63086 5.32176 9.45215 5.3076 9.29688 5.37645ZM9 9.61961L5 11.397V8.38035L9 6.60301V9.61961Z" />
</svg>
