<svg  viewBox="0 0 24 24"  xmlns="http://www.w3.org/2000/svg">
<path d="M20.001 5.70605L13.8413 11.8652C13.7437 11.9629 13.6157 12.0117 13.4878 12.0117C13.3599 12.0117 13.2319 11.9629 13.1343 11.8652C12.939 11.6699 12.939 11.3535 13.1343 11.1582L19.2939 4.99902H18.001C17.7246 4.99902 17.501 4.77539 17.501 4.49902C17.501 4.22266 17.7246 3.99902 18.001 3.99902H20.501C20.7773 3.99902 21.001 4.22266 21.001 4.49902V6.99902C21.001 7.27539 20.7773 7.49902 20.501 7.49902C20.2246 7.49902 20.001 7.27539 20.001 6.99902V5.70605Z" />
<path d="M21.4937 9.99609L19.4951 9.99707C19.3628 9.99707 19.2354 10.0498 19.1416 10.1436C19.0479 10.2373 18.9956 10.3652 18.9956 10.498L18.999 13H16.5132C16.2368 13 16.0132 13.2236 16.0132 13.5V15.9775H13.4766C13.2002 15.9775 12.9766 16.2012 12.9766 16.4775V18.9951L2.46143 19.001C2.18555 19.001 1.96191 19.2246 1.96191 19.501C1.96191 19.7773 2.18604 20.001 2.46191 20.001L13.4771 19.9951C13.7529 19.9951 13.9766 19.7715 13.9766 19.4951V16.9775H16.5132C16.7896 16.9775 17.0132 16.7539 17.0132 16.4775V14H19.5C19.6328 14 19.7603 13.9473 19.854 13.8535C19.9478 13.7598 20 13.6318 20 13.499L19.9966 10.9971L21.4941 10.9961C21.77 10.9961 21.9937 10.7725 21.9937 10.4961C21.9937 10.2197 21.7695 9.99609 21.4937 9.99609Z" />
<path fill-rule="evenodd" clip-rule="evenodd" d="M6.5 15C7.87842 15 9 13.8789 9 12.5C9 11.1211 7.87842 10 6.5 10C5.12158 10 4 11.1211 4 12.5C4 13.8789 5.12158 15 6.5 15ZM6.5 11C7.32715 11 8 11.6729 8 12.5C8 13.3271 7.32715 14 6.5 14C5.67285 14 5 13.3271 5 12.5C5 11.6729 5.67285 11 6.5 11Z" />
<path fill-rule="evenodd" clip-rule="evenodd" d="M2.5 6H10.5C10.7764 6 11 6.22363 11 6.5V17.5C11 17.7764 10.7764 18 10.5 18H2.5C2.22363 18 2 17.7764 2 17.5V6.5C2 6.22363 2.22363 6 2.5 6ZM7 7H3V8.01562H7V7ZM10 17V9.01562H3V17H10ZM8 8.01562H10V7H8V8.01562Z" />
</svg>
