<svg viewBox="0 0 24 24" xmlns="http://www.w3.org/2000/svg">
<path d="M9.1308 14.5298C9.15149 14.6173 9.16345 14.7069 9.18945 14.793C9.18945 14.7939 9.19043 14.7949 9.19043 14.7959C9.2243 14.9086 9.27423 15.0158 9.31714 15.1255C9.34045 15.1853 9.36017 15.2463 9.38617 15.3051C9.48999 15.5398 9.60803 15.7687 9.75195 15.9849C9.75488 15.9893 9.76007 15.9907 9.76312 15.995C10.5753 17.2024 11.9571 18 13.5244 18C14.7979 18 16.0195 17.4614 16.877 16.522C17.0635 16.3184 17.0488 16.002 16.8447 15.8159C16.6416 15.6294 16.3252 15.6445 16.1387 15.8481C15.4697 16.5801 14.5176 17 13.5244 17C12.269 17 11.1683 16.3425 10.5446 15.3578C10.4525 15.2101 10.3687 15.0584 10.2993 14.9009C10.2802 14.8577 10.2658 14.8129 10.2486 14.769C10.1885 14.6168 10.1393 14.4596 10.1011 14.298C10.0883 14.2436 10.0747 14.1895 10.0646 14.1344C10.0262 13.9261 10 13.715 10 13.5C10 11.5703 11.5811 10 13.5244 10C13.7618 10 13.9929 10.0255 14.2174 10.0696C14.2656 10.0791 14.3101 10.098 14.3575 10.1094C14.5341 10.1518 14.7075 10.201 14.8726 10.2686C14.9128 10.285 14.9491 10.3082 14.9885 10.326C15.1557 10.4018 15.3173 10.4857 15.4693 10.5855C15.5012 10.6064 15.5295 10.6317 15.5607 10.6536C15.7111 10.7601 15.8552 10.8749 15.9868 11.003C16.0165 11.0317 16.0427 11.0638 16.0712 11.0936C16.1934 11.2209 16.3069 11.3547 16.4088 11.4996C16.4405 11.5448 16.4684 11.5926 16.498 11.6393C16.5831 11.7736 16.6605 11.9115 16.7269 12.0577C16.7582 12.1264 16.7852 12.1973 16.812 12.2684C16.8611 12.3987 16.9037 12.5309 16.9374 12.6686C16.9596 12.7596 16.9774 12.8522 16.9924 12.9461C16.998 12.9807 16.9986 13.0167 17.0032 13.0516L16.8564 12.9082C16.6582 12.7163 16.3418 12.7188 16.1494 12.917C15.9561 13.1143 15.96 13.4312 16.1572 13.624L17.165 14.6079C17.2627 14.7026 17.3887 14.75 17.5146 14.75C17.6436 14.75 17.7715 14.7007 17.8691 14.6021L18.8613 13.6021C19.0566 13.4062 19.0547 13.0894 18.8594 12.895C18.6621 12.7002 18.3457 12.7021 18.1523 12.8979L18.023 13.0281C18.0147 12.949 17.9898 12.8762 17.9775 12.7984C17.9575 12.6712 17.9334 12.5457 17.9031 12.4225C17.8613 12.2527 17.8087 12.0894 17.7485 11.9282C17.7119 11.8302 17.6747 11.7327 17.6317 11.6382C17.5491 11.4571 17.4529 11.2863 17.3483 11.1196C17.3068 11.0535 17.2675 10.9861 17.2227 10.9225C17.0959 10.7422 16.9545 10.5762 16.8033 10.4171C16.762 10.3737 16.7239 10.3273 16.6809 10.2855C16.5159 10.1253 16.3371 9.98242 16.1491 9.84894C16.1044 9.8172 16.0635 9.78082 16.0176 9.75073C15.8267 9.62537 15.6237 9.52026 15.4141 9.4245C15.3595 9.39954 15.309 9.36749 15.2532 9.34467C15.0438 9.25891 14.824 9.19672 14.6003 9.14264C14.537 9.12732 14.4778 9.10205 14.4135 9.08936C14.1254 9.03271 13.8289 9 13.5244 9C11.0293 9 9 11.0186 9 13.5C9 13.7755 9.03351 14.0463 9.0827 14.3138C9.09607 14.3865 9.11383 14.458 9.1308 14.5298ZM13 11.5V13.6919L12.2773 14.0527C12.0293 14.1758 11.9297 14.4761 12.0527 14.7231C12.1396 14.8984 12.3164 15 12.5 15C12.5752 15 12.6514 14.9834 12.7227 14.9473L13.7227 14.4487C13.8926 14.3643 14 14.1909 14 14.0015V11.5C14 11.2236 13.7764 11 13.5 11C13.2236 11 13 11.2236 13 11.5ZM4.50018 5.99786C4.77618 5.99786 5 5.77411 5 5.49805C5 5.22198 4.77618 4.99823 4.50018 4.99823C4.22418 4.99823 4.00037 5.22198 4.00037 5.49805C4.00037 5.77411 4.22418 5.99786 4.50018 5.99786ZM6.50018 5.99786C6.77618 5.99786 7 5.77411 7 5.49805C7 5.22198 6.77618 4.99823 6.50018 4.99823C6.22418 4.99823 6.00037 5.22198 6.00037 5.49805C6.00037 5.77411 6.22418 5.99786 6.50018 5.99786ZM21.5 2.99805H2.5C2.22363 2.99805 2 3.22168 2 3.49805V19.498C2 19.7744 2.22363 19.998 2.5 19.998H21.5C21.7764 19.998 22 19.7744 22 19.498V3.49805C22 3.22168 21.7764 2.99805 21.5 2.99805ZM6 18.998H3V7.99805H6V18.998ZM21 18.998H7V7.99805H21V18.998ZM21 6.99805H3V3.99805H21V6.99805ZM8.50018 5.99786C8.77618 5.99786 9 5.77411 9 5.49805C9 5.22198 8.77618 4.99823 8.50018 4.99823C8.22418 4.99823 8.00037 5.22198 8.00037 5.49805C8.00037 5.77411 8.22418 5.99786 8.50018 5.99786Z" />
</svg>
