<svg width="24" height="24" viewBox="0 0 24 24" fill="none" xmlns="http://www.w3.org/2000/svg">
<path d="M13.0875 3.00446C13.0823 3.00427 13.0784 3 13.0732 3H12.959C12.9561 3 12.9539 3.00244 12.951 3.0025C8.69867 3.02557 5.14117 6.01379 4.23175 10H2.5C2.22363 10 2 10.2236 2 10.5V20.5C2 20.7764 2.22363 21 2.5 21H12.5C12.5356 21 12.567 20.9868 12.6005 20.9797C12.7339 20.9857 12.8651 21 13 21C17.9624 21 22 16.9624 22 12C22 7.06714 18.0093 3.05212 13.0875 3.00446ZM12.2174 4.03967L9.93774 10H5.26331C6.09161 6.79993 8.84705 4.36853 12.2174 4.03967ZM5.06946 11H9.55524L7.10962 17.3943C5.80426 15.9701 5 14.0795 5 12C5 11.6606 5.02826 11.3284 5.06946 11ZM3 20V11H4.05902C4.02246 11.3288 4 11.6616 4 12C4 15.4835 5.99347 18.5047 8.89587 20H3ZM12 19.9305C10.4501 19.736 9.03546 19.1022 7.89099 18.1497L9.48145 13.9917H12V19.9305ZM12 12.9917H9.86395L10.6258 11H12V12.9917ZM12.5 10H11.0083L13.0151 4.75342L16.1477 12.9917H13V10.5C13 10.2236 12.7764 10 12.5 10ZM13 20V13.9917H16.5279L18.109 18.1498C16.7221 19.304 14.9412 20 13 20ZM18.8912 17.3935L13.8139 4.04126C17.8442 4.45038 21 7.86359 21 12C21 14.0791 20.196 15.9694 18.8912 17.3935Z" fill="#212121"/>
</svg>
