<svg  viewBox="0 0 24 24"  xmlns="http://www.w3.org/2000/svg">
<path d="M9.50125 16.4997C9.50125 16.776 9.27728 17 9.001 17C8.72425 17 8.50075 16.7765 8.50075 16.4997V9.49924C8.50075 9.22296 8.72472 8.99899 9.001 8.99899C9.27728 8.99899 9.50125 9.22296 9.50125 9.49924V16.4997Z" />
<path d="M12.355 16.8537C12.2611 16.9476 12.1337 17.0002 12.001 17C11.7243 17 11.5008 16.7765 11.5008 16.4997V9.49924C11.5008 9.22296 11.7247 8.99899 12.001 8.99899C12.2773 8.99899 12.5013 9.22296 12.5013 9.49924V16.4997C12.5015 16.6325 12.4488 16.7598 12.355 16.8537Z" />
<path d="M15.001 17C15.1337 17.0002 15.2611 16.9476 15.355 16.8537C15.4488 16.7598 15.5015 16.6325 15.5013 16.4997V9.49924C15.5013 9.22296 15.2773 8.99899 15.001 8.99899C14.7247 8.99899 14.5008 9.22296 14.5008 9.49924V16.4997C14.5008 16.7765 14.7243 17 15.001 17Z" />
<path fill-rule="evenodd" clip-rule="evenodd" d="M14.5008 4.99024H19.5003C19.7765 4.99024 20.0005 5.21421 20.0005 5.49049C20.0005 5.76677 19.7765 5.99074 19.5003 5.99074H18.5005V20.5122C18.5007 20.645 18.4481 20.7723 18.3542 20.8662C18.2603 20.9601 18.133 21.0127 18.0003 21.0125H6.00025C5.7235 21.0125 5.5 20.789 5.5 20.5122V5.99074H4.50025C4.22397 5.99074 4 5.76677 4 5.49049C4 5.21421 4.22397 4.99024 4.50025 4.99024H9.5005V3.49024C9.5005 3.21396 9.72447 2.98999 10.0008 2.98999H14.0005C14.1332 2.98979 14.2606 3.04243 14.3545 3.13629C14.4483 3.23015 14.501 3.35751 14.5008 3.49024V4.99024ZM13.501 3.98974H10.501V4.98949H13.501V3.98974ZM17.5008 20.0112H6.5005V6.01174H17.5008V20.0112Z" />
</svg>
