<svg  viewBox="0 0 24 24"  xmlns="http://www.w3.org/2000/svg">
<path fill-rule="evenodd" clip-rule="evenodd" d="M12 3C7.03725 3 3 7.038 3 12.0008C3 16.9635 7.03725 21.0015 12 21.0015C16.9628 21.0015 21 16.9643 21 12.0008C21 7.03725 16.9628 3 12 3ZM20.0003 12.0008C20.0003 14.0415 19.2315 15.9045 17.97 17.3198L6.68175 6.0315C8.14373 4.7224 10.0376 3.99916 12 4.0005C16.4115 4.0005 20.0003 7.5885 20.0003 12.0008ZM3.99975 12.0008C3.99975 9.98925 4.7475 8.1495 5.97825 6.7425L17.2583 18.0225C15.804 19.2993 13.9345 20.0029 11.9993 20.0018C7.5885 20.0018 3.99975 16.413 3.99975 12.0008Z" />
</svg>
