<svg  viewBox="0 0 24 24"  xmlns="http://www.w3.org/2000/svg">
<path fill-rule="evenodd" clip-rule="evenodd" d="M12 5.51123C13.0483 5.51123 13.9014 6.35693 13.9014 7.396C13.9014 8.43506 13.0483 9.28027 12 9.28027C10.9517 9.28027 10.0986 8.43506 10.0986 7.396C10.0986 6.35693 10.9517 5.51123 12 5.51123ZM12 6.51123C11.5029 6.51123 11.0986 6.9082 11.0986 7.396C11.0986 7.88379 11.5029 8.28027 12 8.28027C12.4971 8.28027 12.9014 7.88379 12.9014 7.396C12.9014 6.9082 12.4971 6.51123 12 6.51123Z" />
<path fill-rule="evenodd" clip-rule="evenodd" d="M16.3789 7.33105C16.3789 9.04712 15.6089 11.0668 14.7468 12.7944C18.2172 13.3577 20.5 14.92 20.5 16.7881C20.5 19.1499 16.7666 21 12 21C7.2334 21 3.5 19.1499 3.5 16.7881C3.5 14.9282 5.77295 13.367 9.22742 12.799C8.37555 11.0923 7.62109 9.08752 7.62109 7.33105C7.62109 4.94287 9.58545 3 12 3C14.4146 3 16.3789 4.94287 16.3789 7.33105ZM12 4C10.1367 4 8.62109 5.49414 8.62109 7.33105C8.62109 10.2285 11.0186 14.0874 11.9956 15.5391C12.371 14.971 12.9592 14.037 13.5405 12.945L13.5413 12.9435C14.4689 11.201 15.3789 9.05426 15.3789 7.33105C15.3789 5.49414 13.8633 4 12 4ZM12 17.6055C14.397 17.6055 15.8638 16.8447 15.8638 16.4302C15.8638 16.1571 15.0812 15.5662 13.3145 15.3407C12.8228 16.1272 12.4536 16.6465 12.4058 16.7129C12.3125 16.8428 12.1626 16.9199 12.0029 16.9209H12C11.8413 16.9209 11.6919 16.8457 11.5977 16.7178C11.5491 16.652 11.1714 16.1336 10.6699 15.3426C8.91412 15.5696 8.13623 16.1583 8.13623 16.4302C8.13623 16.8447 9.60303 17.6055 12 17.6055ZM4.5 16.7881C4.5 18.3394 7.51367 20 12 20C16.4863 20 19.5 18.3394 19.5 16.7881C19.5 15.4459 17.2621 14.1677 14.2506 13.7411C14.1234 13.9735 13.9981 14.1962 13.8745 14.4093C15.7128 14.7253 16.8638 15.4846 16.8638 16.4302C16.8638 17.8584 14.417 18.6055 12 18.6055C9.58301 18.6055 7.13623 17.8584 7.13623 16.4302C7.13623 15.4886 8.27832 14.7307 10.1044 14.4124C9.97955 14.1993 9.85339 13.9767 9.72522 13.744C6.68323 14.1772 4.5 15.4296 4.5 16.7881Z" />
</svg>
