<svg viewBox="0 0 24 24" xmlns="http://www.w3.org/2000/svg">
<path d="M18.5 2H10.5C10.2236 2 9.99998 2.22363 9.99998 2.5V4.5C9.99998 4.59949 10.0364 4.68683 10.0864 4.76471L10.5577 11.3344C8.45604 11.743 6.86217 12.5183 5.81444 13.6655C4.41014 15.2026 4.53954 16.8247 4.54539 16.8926C4.56981 17.1665 4.81834 17.3618 5.08495 17.3442C5.13304 17.3402 5.17546 17.3219 5.21837 17.3054C5.41991 17.228 5.55882 17.0319 5.54149 16.8057C5.53758 16.7539 5.45702 15.5225 6.57371 14.3169C7.92284 12.8604 10.4795 12.0615 13.9844 11.9976C13.8594 13.1738 13.0307 16.7593 10.687 18.6694C9.46196 19.6681 8.01695 19.7277 6.57677 18.8723C7.42955 17.6361 8.57903 16.3024 9.94139 15.5615C10.1841 15.4292 10.2739 15.126 10.1421 14.8833C10.0098 14.6406 9.70604 14.5518 9.46385 14.6826C7.87602 15.5462 6.5808 17.0722 5.65245 18.4427C4.65868 19.9099 4.08592 21.1988 4.04149 21.3003C3.93114 21.5532 4.04686 21.8477 4.29979 21.958C4.36522 21.9863 4.43309 22 4.4995 22C4.69237 22 4.87596 21.8877 4.95799 21.7002C4.96678 21.6805 5.35136 20.8123 6.03136 19.7061C6.86809 20.2106 7.7227 20.4785 8.55614 20.4785C9.52928 20.4785 10.4726 20.1338 11.3188 19.4448C11.4421 19.3444 11.556 19.2339 11.672 19.1257C11.7723 19.2214 11.8782 19.3129 12 19.3933V21C12 21.8701 13.5664 22 14.5 22C15.4336 22 17 21.8701 17 21V19.4191C17.8265 18.8811 17.9994 18.0843 17.9985 17.5356L18.9104 4.76941C18.9623 4.69061 19 4.60156 19 4.5V2.5C19 2.22363 18.7764 2 18.5 2ZM16 20.8062C15.7764 20.8916 15.2461 21 14.5 21C13.7539 21 13.2236 20.8916 13 20.8062V19.8278C13.4361 19.9407 13.9371 20 14.5 20C15.0942 20 15.5871 19.939 16 19.8363V20.8062ZM17 17.5C17 17.7397 16.9957 18.2944 16.3219 18.658C16.3044 18.6647 16.2896 18.6744 16.2731 18.683C15.9028 18.869 15.3473 19 14.5 19C13.4682 19 12.7536 18.8041 12.3598 18.4083C14.5356 15.8052 15.1636 11.9577 14.9512 11.3604C14.8804 11.1611 14.6597 10.9932 14.4482 10.9932C13.4021 10.9932 12.4361 11.0529 11.5474 11.169L11.1053 5H17.8919L17 17.5ZM18 4H11V3H18V4Z"/>
</svg>
