<svg width="24" height="24" viewBox="0 0 24 24" fill="none" xmlns="http://www.w3.org/2000/svg">
<path d="M10.4805 14.4414C9.98535 14.8066 9.4248 15 8.86035 15C7.07422 15 5.91992 13.8223 5.91992 12C5.91992 10.1216 7.01953 9 8.86035 9C9.6748 9 10.2559 9.36963 10.4463 9.49072C10.6826 9.63867 10.9902 9.5708 11.1367 9.33691C11.2852 9.104 11.2158 8.79492 10.9834 8.64697C10.2979 8.21143 9.60352 8 8.86035 8C6.4668 8 4.91992 9.57031 4.91992 12C4.91992 14.355 6.54004 16 8.86035 16C9.63965 16 10.4053 15.7393 11.0742 15.2461C11.2969 15.082 11.3438 14.769 11.1797 14.5469C11.0166 14.3242 10.7031 14.2778 10.4805 14.4414ZM17.4814 14.4414C16.9863 14.8066 16.4258 15 15.8613 15C14.0752 15 12.9209 13.8223 12.9209 12C12.9209 10.1216 14.0205 9 15.8613 9C16.6729 9 17.2568 9.36963 17.4482 9.49121C17.6816 9.63965 17.9912 9.5708 18.1377 9.33643C18.2861 9.10352 18.2168 8.79443 17.9834 8.64648C17.2969 8.21143 16.6025 8 15.8613 8C13.4678 8 11.9209 9.57031 11.9209 12C11.9209 14.355 13.541 16 15.8613 16C16.6406 16 17.4062 15.7393 18.0752 15.2461C18.2979 15.082 18.3447 14.769 18.1807 14.5469C18.0176 14.3242 17.7041 14.2778 17.4814 14.4414ZM22.543 6.71973C22.2637 5.625 21.4219 4.7666 20.3535 4.48145C18.8389 4.05615 13.6846 4.00537 12.1416 4H11.8457C10.751 4.00342 5.21094 4.04053 3.64551 4.45557C2.59863 4.75391 1.73535 5.64014 1.44336 6.71973C1.03613 8.31738 1.00293 11.3594 1 11.9551V12.0605C1.00293 12.6562 1.03613 15.708 1.44531 17.2871C1.73828 18.3726 2.58203 19.2324 3.65137 19.5327C5.17285 19.9448 10.3086 19.9946 11.8486 20H12.1416C13.2383 19.9966 18.7891 19.9595 20.3535 19.5449C21.4307 19.2417 22.2695 18.3789 22.542 17.2979C22.9629 15.7085 22.9971 12.667 23 12.0713V11.9048C22.998 11.314 22.9668 8.28662 22.543 6.71973ZM22 12.0688C21.998 12.4199 21.9736 15.5391 21.5732 17.0479C21.3877 17.7881 20.8164 18.376 20.0898 18.5801C18.9746 18.876 15.1094 18.9912 12.1396 19H11.8506C8.88672 18.9897 5.0293 18.8701 3.91797 18.5688C3.18945 18.3643 2.6123 17.7734 2.41211 17.0317C2.02637 15.5415 2.00195 12.4082 2 12.0581V11.9575C2.00195 11.606 2.02637 8.48193 2.41016 6.97363C2.61133 6.23242 3.20312 5.62158 3.91016 5.41992C5.02539 5.12402 8.88379 5.00879 11.8477 5H12.1377C15.1104 5.01025 18.9746 5.13281 20.0889 5.4458C20.8037 5.63672 21.3867 6.23389 21.5762 6.97412C21.9775 8.45801 21.999 11.5591 22 11.9062V12.0688Z" fill="#212121"/>
</svg>
