<svg viewBox="0 0 24 24"  xmlns="http://www.w3.org/2000/svg">
<path d="M8.5 10C6.57 10 5 11.57 5 13.5C5 15.43 6.57 17 8.5 17C10.43 17 12 15.43 12 13.5C12 11.57 10.43 10 8.5 10ZM8.5 16C7.122 16 6 14.878 6 13.5C6 12.122 7.122 11 8.5 11C9.878 11 11 12.122 11 13.5C11 14.878 9.878 16 8.5 16ZM17.5 16H13.5C13.3674 16 13.2402 16.0527 13.1464 16.1464C13.0527 16.2402 13 16.3674 13 16.5C13 16.6326 13.0527 16.7598 13.1464 16.8536C13.2402 16.9473 13.3674 17 13.5 17H17.5C17.6326 17 17.7598 16.9473 17.8536 16.8536C17.9473 16.7598 18 16.6326 18 16.5C18 16.3674 17.9473 16.2402 17.8536 16.1464C17.7598 16.0527 17.6326 16 17.5 16ZM17.5 14H13.5C13.3674 14 13.2402 14.0527 13.1464 14.1464C13.0527 14.2402 13 14.3674 13 14.5C13 14.6326 13.0527 14.7598 13.1464 14.8536C13.2402 14.9473 13.3674 15 13.5 15H17.5C17.6326 15 17.7598 14.9473 17.8536 14.8536C17.9473 14.7598 18 14.6326 18 14.5C18 14.3674 17.9473 14.2402 17.8536 14.1464C17.7598 14.0527 17.6326 14 17.5 14ZM20.5 10H19.984C19.9 8.871 19.046 8.008 17.959 8.008H9.236L14.676 5.968C14.8001 5.92132 14.9006 5.82725 14.9554 5.70648C15.0101 5.5857 15.0147 5.44812 14.968 5.324C14.9213 5.19988 14.8272 5.09938 14.7065 5.04462C14.5857 4.98986 14.4481 4.98532 14.324 5.032L6.387 8.008H5.077C3.932 8.008 3 8.981 3 10.177V16.841C3 18.037 3.948 19.009 5.112 19.009H17.96C19.105 19.009 20.001 18.057 20.001 16.841V13H20.501C20.6336 13 20.7608 12.9473 20.8546 12.8536C20.9483 12.7598 21.001 12.6326 21.001 12.5V10.5C21.001 10.3674 20.9483 10.2402 20.8546 10.1464C20.7608 10.0527 20.6326 10 20.5 10ZM19 16.841C19 17.496 18.543 18.009 17.959 18.009H5.112C4.51 18.01 4 17.475 4 16.841V10.177C4 9.532 4.483 9.008 5.077 9.008H17.959C18.543 9.008 19 9.521 19 10.177V16.841ZM17.5 10H13.5C13.3674 10 13.2402 10.0527 13.1464 10.1464C13.0527 10.2402 13 10.3674 13 10.5V12.5C13 12.6326 13.0527 12.7598 13.1464 12.8536C13.2402 12.9473 13.3674 13 13.5 13H17.5C17.6326 13 17.7598 12.9473 17.8536 12.8536C17.9473 12.7598 18 12.6326 18 12.5V10.5C18 10.3674 17.9473 10.2402 17.8536 10.1464C17.7598 10.0527 17.6326 10 17.5 10ZM17 12H14V11H17V12Z"/>
</svg>
