<svg viewBox="0 0 24 24" xmlns="http://www.w3.org/2000/svg">
<path d="M12.7214 9.41973L18.2931 15.0001H14.5C14.2236 15.0001 14 15.2237 14 15.5001C14 15.7764 14.2236 16.0001 14.5 16.0001H19.5C19.7764 16.0001 20 15.7764 20 15.5001V10.5001C20 10.2237 19.7764 10.0001 19.5 10.0001C19.2236 10.0001 19 10.2237 19 10.5001V14.2919L13.4272 8.71051C13.4201 8.70337 13.4106 8.70111 13.4031 8.69452C12.6326 7.91754 11.7032 7.2705 10.6401 6.77301C8.22754 5.64215 4.66504 5.62896 2.14648 8.14654C1.95117 8.34185 1.95117 8.65826 2.14648 8.85357C2.3418 9.04889 2.6582 9.04889 2.85352 8.85357C5.02881 6.67779 8.11719 6.69635 10.2158 7.67828C11.1763 8.12799 12.0127 8.70953 12.7021 9.4068C12.7078 9.41253 12.7156 9.4143 12.7214 9.41973ZM21.5 17.0001H12.5C12.2236 17.0001 12 17.2237 12 17.5001C12 17.7764 12.2236 18.0001 12.5 18.0001H21.5C21.7764 18.0001 22 17.7764 22 17.5001C22 17.2237 21.7764 17.0001 21.5 17.0001Z" />
</svg>
