<svg width="24" height="24" viewBox="0 0 24 24" fill="none" xmlns="http://www.w3.org/2000/svg">
<path d="M15.1465 15.1494C13.7573 16.5381 13.2319 16.0146 12.3599 15.1465C11.5205 14.3096 10.2505 13.0449 8.14648 15.1494C7.95117 15.3447 7.95117 15.6611 8.14648 15.8564C8.3418 16.0518 8.6582 16.0518 8.85352 15.8564C10.252 14.459 10.7793 14.9844 11.6543 15.8545C12.1538 16.3525 12.8052 17.002 13.6934 17.002C14.2959 17.002 15.0068 16.7031 15.8535 15.8564C16.0488 15.6611 16.0488 15.3447 15.8535 15.1494C15.6582 14.9541 15.3418 14.9541 15.1465 15.1494ZM10 10.5005C10 10.2241 9.77637 10.0005 9.5 10.0005H7.5C7.22363 10.0005 7 10.2241 7 10.5005C7 10.7769 7.22363 11.0005 7.5 11.0005H9.5C9.77637 11.0005 10 10.7769 10 10.5005ZM16.5 10.0005H14.5C14.2236 10.0005 14 10.2241 14 10.5005C14 10.7769 14.2236 11.0005 14.5 11.0005H16.5C16.7764 11.0005 17 10.7769 17 10.5005C17 10.2241 16.7764 10.0005 16.5 10.0005ZM12 2.99951C7.0376 2.99951 3 7.03711 3 12C3 16.9629 7.0376 21.001 12 21.001C16.9624 21.001 21 16.9629 21 12C21 7.03711 16.9624 2.99951 12 2.99951ZM12 20.001C7.58887 20.001 4 16.4121 4 12C4 7.58838 7.58887 3.99951 12 3.99951C16.4111 3.99951 20 7.58838 20 12C20 16.4121 16.4111 20.001 12 20.001Z" fill="#212121"/>
</svg>
