<svg  viewBox="0 0 24 24"  xmlns="http://www.w3.org/2000/svg">
<path fill-rule="evenodd" clip-rule="evenodd" d="M16 15.5049C16 14.6826 16.6729 14.0137 17.5 14.0137C18.3271 14.0137 19 14.6826 19 15.5049C19 16.3267 18.3271 16.9956 17.5 16.9956C16.6729 16.9956 16 16.3267 16 15.5049ZM17 15.5049C17 15.7754 17.2246 15.9956 17.5 15.9956C17.7754 15.9956 18 15.7754 18 15.5049C18 15.2339 17.7754 15.0137 17.5 15.0137C17.2246 15.0137 17 15.2339 17 15.5049Z" />
<path fill-rule="evenodd" clip-rule="evenodd" d="M21.0146 15.7803L21.748 16.1997C21.8643 16.2661 21.9482 16.3755 21.9834 16.5044C22.0176 16.6328 21.999 16.77 21.9316 16.8853L20.9229 18.6177C20.7852 18.8569 20.4795 18.936 20.2432 18.8003L19.4961 18.3731C19.3408 18.48 19.1787 18.5737 19.0088 18.6538V19.5C19.0088 19.7764 18.7852 20 18.5088 20H16.4912C16.2148 20 15.9912 19.7764 15.9912 19.5V18.6538C15.8213 18.5733 15.6582 18.4795 15.5039 18.3731L14.7568 18.8003C14.5195 18.9346 14.2158 18.856 14.0771 18.6177L13.2009 17.113L10.7275 18.4404C10.7241 18.4423 10.7203 18.4428 10.7165 18.4433C10.713 18.4438 10.7094 18.4443 10.7062 18.4458C10.6509 18.4723 10.5903 18.4867 10.526 18.4912C10.5203 18.4916 10.5149 18.4936 10.5095 18.4956C10.5035 18.4978 10.4975 18.5 10.4912 18.5C10.4829 18.5 10.4751 18.4972 10.4673 18.4944C10.4606 18.492 10.4539 18.4896 10.4468 18.4889C10.3879 18.4834 10.3316 18.4715 10.2804 18.4473C10.2768 18.4456 10.2729 18.4451 10.269 18.4446C10.2648 18.444 10.2607 18.4434 10.2568 18.4414L2.25879 14.1929C2.0957 14.1065 1.99316 13.9365 1.99316 13.7515V7.73537C1.99316 7.73224 1.99433 7.72943 1.99551 7.72661C1.99663 7.72394 1.99774 7.72125 1.99786 7.71828C2.00031 7.64448 2.01465 7.57057 2.05176 7.50099C2.05285 7.49893 2.05444 7.49734 2.05604 7.49575C2.05756 7.49424 2.05908 7.49273 2.06018 7.4908C2.06488 7.4825 2.07117 7.4758 2.07752 7.46905C2.08237 7.46389 2.08726 7.45869 2.09149 7.45271C2.12994 7.39839 2.17554 7.35414 2.22943 7.31996C2.2341 7.31697 2.23753 7.31277 2.24095 7.30859C2.24473 7.30396 2.24849 7.29935 2.25391 7.2964L8.18945 4.06105C8.33594 3.98048 8.5127 3.97902 8.66211 4.05763L16.7266 8.31007C16.8906 8.3965 16.9932 8.56691 16.9932 8.75246V11H18.5088C18.7852 11 19.0088 11.2236 19.0088 11.5V12.3526C19.1768 12.4321 19.3379 12.5244 19.4912 12.6299L20.2432 12.1997C20.4785 12.0635 20.7842 12.1436 20.9229 12.3823L21.9316 14.1148C21.999 14.23 22.0176 14.3667 21.9834 14.4956C21.9482 14.6245 21.8643 14.7339 21.748 14.8003L21.0137 15.2202C21.0225 15.3135 21.0273 15.4077 21.0273 15.5029C21.0273 15.5967 21.0225 15.689 21.0146 15.7803ZM19.1338 17.3931C19.2959 17.2569 19.5234 17.2373 19.7051 17.3403L20.3086 17.6856L20.8145 16.8179L20.2236 16.48C20.0391 16.374 19.9414 16.1631 19.9805 15.9536C20.0078 15.8067 20.0273 15.6572 20.0273 15.5029C20.0273 15.3467 20.0078 15.1948 19.9805 15.0464C19.9414 14.8369 20.0391 14.6265 20.2236 14.5205L20.8145 14.1826L20.3086 13.314L19.7002 13.6621C19.5186 13.7676 19.291 13.7461 19.1289 13.6099C18.8955 13.4116 18.6309 13.2598 18.3428 13.1587C18.1426 13.0884 18.0088 12.8989 18.0088 12.687V12H16.9912V12.687C16.9912 12.8989 16.8574 13.0884 16.6572 13.1587C16.3691 13.2598 16.1045 13.4116 15.8711 13.6099C15.7109 13.7461 15.4824 13.7676 15.2998 13.6621L14.6914 13.314L14.1855 14.1826L14.7764 14.5205C14.9609 14.6265 15.0586 14.8369 15.0195 15.0464C14.9922 15.1948 14.9727 15.3467 14.9727 15.5029C14.9727 15.6572 14.9922 15.8067 15.0195 15.9536C15.0586 16.1631 14.9609 16.374 14.7764 16.48L14.1855 16.8179L14.6914 17.6856L15.2949 17.3403C15.4766 17.2354 15.7051 17.2559 15.8662 17.3931C16.1016 17.5928 16.3682 17.7456 16.6572 17.8477C16.8574 17.9185 16.9912 18.1074 16.9912 18.3194V19H18.0088V18.3194C18.0088 18.1069 18.1426 17.918 18.3428 17.8477C18.6309 17.7466 18.8975 17.5933 19.1338 17.3931ZM12.4989 10.3346L5.53394 6.64735L3.54797 7.72981L10.4893 11.4175L12.4989 10.3346ZM13.7766 10.7819L10.9922 12.2822V17.1637L13.9754 15.5625C13.9752 15.5535 13.9746 15.5446 13.9741 15.5358C13.9734 15.5249 13.9727 15.514 13.9727 15.5029C13.9727 15.4077 13.9775 15.3135 13.9863 15.2202L13.252 14.8003C13.1357 14.7339 13.0518 14.6245 13.0166 14.4956C12.9824 14.3667 13.001 14.23 13.0684 14.1148L14.0771 12.3823C14.2168 12.1441 14.5205 12.065 14.7568 12.1997L15.5088 12.6299C15.6621 12.5244 15.8232 12.4321 15.9912 12.3526V11.5L15.9922 11.4951L15.9932 11.4903V9.58748L13.8546 10.7399C13.8292 10.7575 13.8044 10.7693 13.7766 10.7819ZM15.4282 8.7563L8.43262 5.0674L6.5874 6.07313L13.5585 9.76369L15.4282 8.7563ZM9.99219 12.2852L2.99316 8.56691V13.4507L9.99219 17.1685V12.2852Z" />
</svg>
