<svg viewBox="0 0 24 24" xmlns="http://www.w3.org/2000/svg">
<path d="M6.26245 16.1234C6.60763 16.1234 6.88745 15.8436 6.88745 15.4984C6.88745 15.1532 6.60763 14.8734 6.26245 14.8734C5.91727 14.8734 5.63745 15.1532 5.63745 15.4984C5.63745 15.8436 5.91727 16.1234 6.26245 16.1234Z"/>
<path d="M4.65186 10.6162C5.01514 10.249 5.61719 10.0024 6.15039 10.0024C7.83057 10.0024 8.01221 11.1084 8.01221 11.584C8.01221 12.3032 7.50049 12.6763 7.12695 12.9482C6.78857 13.1948 6.65039 13.3149 6.65039 13.5098C6.65039 13.7861 6.42676 14.0098 6.15039 14.0098C5.87402 14.0098 5.65039 13.7861 5.65039 13.5098C5.65039 12.7871 6.16289 12.4136 6.53734 12.1407C6.87426 11.8951 7.01221 11.7754 7.01221 11.584C7.01221 11.3667 7.01221 11.0024 6.15039 11.0024C5.88477 11.0024 5.53857 11.1416 5.36279 11.3193C5.16895 11.5161 4.85156 11.5171 4.65576 11.3232C4.45947 11.1289 4.45752 10.8125 4.65186 10.6162Z"/>
<path d="M16.4976 11.021C16.7739 11.021 16.9976 10.7974 16.9976 10.521V6.521C16.9976 6.24463 16.7739 6.021 16.4976 6.021C16.2212 6.021 15.9976 6.24463 15.9976 6.521V10.521C15.9976 10.7974 16.2212 11.021 16.4976 11.021Z"/>
<path d="M17.129 12.503C17.129 12.8482 16.8491 13.128 16.504 13.128C16.1588 13.128 15.879 12.8482 15.879 12.503C15.879 12.1578 16.1588 11.878 16.504 11.878C16.8491 11.878 17.129 12.1578 17.129 12.503Z"/>
<path fill-rule="evenodd" clip-rule="evenodd" d="M22.8579 4.14648C22.7642 4.05273 22.6367 4 22.5044 4L10.4995 4.00928C10.2236 4.00928 10 4.2334 10 4.50928V8H1.50781C1.23145 8 1.00781 8.22363 1.00781 8.5V17.5C1.00781 17.7764 1.23145 18 1.50781 18H3.01758V19.5C3.01758 19.6831 3.11768 19.8521 3.27881 19.9395C3.35352 19.98 3.43555 20 3.51758 20C3.6123 20 3.70703 19.9731 3.78955 19.9194L6.74854 18H12.5049C12.7812 18 13.0049 17.7764 13.0049 17.5V15.0023L15.7837 15.0049L19.1816 17.8818C19.2739 17.9595 19.3887 18 19.5049 18C19.5762 18 19.6479 17.9849 19.7153 17.9536C19.8916 17.8716 20.0049 17.6948 20.0049 17.5V15.0049H22.5044C22.7808 15.0049 23.0044 14.7812 23.0044 14.5049V4.5C23.0044 4.36719 22.9517 4.24023 22.8579 4.14648ZM12.0049 17H6.60059C6.50391 17 6.40967 17.0278 6.32861 17.0806L4.01758 18.5796V17.5C4.01758 17.2236 3.79395 17 3.51758 17H2.00781V9H10V14.5C10 14.7759 10.2236 14.9995 10.4995 15L12.0049 15.0014V17ZM22.0044 14.0049H19.5049C19.2285 14.0049 19.0049 14.2285 19.0049 14.5049V16.4214L16.2905 14.123C16.2002 14.0469 16.0859 14.0049 15.9678 14.0049L11 14.0005V5.00879L22.0044 5.00049V14.0049Z"/>
</svg>
