<?xml version="1.0" encoding="UTF-8"?><svg xmlns="http://www.w3.org/2000/svg" width="100%" height="100%"><defs><font id="web" horiz-adv-x="607"><!--



NOTICE: This font software is the valuable property 
of Webtype LLC, The Font Bureau, Webtype and/or its 
suppliers and its use by you is covered under the terms 
of the Web Font license agreement between you and Webtype 
LLC. You may ONLY use this font software with the licensed 
web site. Except as specifically permitted by the license, 
you may not copy this font software. If you have any 
questions, please contact Webtype.com. 

For more information, please visit http://www.webtype.com/store/license/?id=23

Licensed to: x

Serial number: SH-1451
--><font-face font-family="" units-per-em="1000" panose-1="2 0 0 0 0 0 0 0 0 0" ascent="902" descent="-223" alphabetic="0"/><missing-glyph horiz-adv-x="500" d="M50 755H450V-245H50V755ZM400 -195V705H100V-195H400Z"/><glyph unicode=" " horiz-adv-x="240"/><glyph unicode="!" horiz-adv-x="279" d="M215 593Q215 549 211 501T199 398L178 219H103L82 398Q74 453 70 501T66 593V700H215V593ZM140 -9Q102 -9 80 11T57 67Q57 102 79 122T140 142Q177 142 200 122T223 67Q223 31 200 11T140 -9Z"/><glyph unicode="&quot;" horiz-adv-x="469" d="M50 700H198L169 420H80L50 700ZM271 700H419L390 420H301L271 700Z"/><glyph unicode="#" horiz-adv-x="669" d="M412 429H290L265 280H388L412 429ZM371 175H248L219 0H111L140 175H36V280H157L181 429H68V534H198L225 700H335L307 534H430L457 700H565L538 534H634V429H520L496 280H600V175H479L450 0H342L371 175Z"/><glyph unicode="$" horiz-adv-x="634" d="M195 504Q195 470 223 454T294 428V579Q245 576 220 555T195 504ZM451 197Q451 229 425 245T357 272V122Q405 126 428 145T451 197ZM291 -108V0Q256 2 221 8T154 24T95 46T47 71L112 185Q148 163 196 147T294 124V287Q253 296 211 309T134 344T78 403T56 494Q56 585 118 639T291 700V779H360V699Q414 695 465 681T563 644L510 529Q475 547 437 559T357 576V414Q398 405 440 392T515 357T570 299T591 210Q591 120 532 65T360 1V-108H291Z"/><glyph unicode="%" horiz-adv-x="659" d="M170 385Q138 385 110 396T61 428T27 479T14 549Q14 588 26 618T60 669T110 700T170 711Q201 711 228 701T277 669T310 618T323 549Q323 510 311 480T278 428T229 396T170 385ZM42 0L526 700H614L130 0H42ZM170 455Q197 455 211 480T226 549Q226 592 212 617T170 642Q142 642 127 617T111 549Q111 506 126 481T170 455ZM490 -12Q459 -12 431 -1T382 31T348 82T335 152Q335 191 347 221T381 272T431 303T490 314Q521 314 549 304T598 273T631 222T644 152Q644 113 632 83T598 31T549 -1T490 -12ZM490 58Q517 58 531 83T546 152Q546 195 532 220T490 245Q462 245 448 220T433 152Q433 109 447 84T490 58Z"/><glyph unicode="&amp;" horiz-adv-x="742" d="M302 104Q341 104 375 116T439 150Q386 192 336 235T239 326Q207 306 187 277T167 212Q167 163 203 134T302 104ZM655 -11Q596 31 535 76Q486 34 424 11T289 -12Q229 -12 182 5T102 50T52 117T34 197Q34 231 44 260T73 316T117 363T172 402Q150 432 137 464T124 535Q124 572 139 604T182 661T246 698T329 712Q395 712 445 687T534 621L445 543Q420 569 392 584T334 600Q299 600 279 579T259 530Q259 502 276 476T319 423Q365 377 414 334T516 248Q529 277 536 310T543 380H672Q672 323 658 270T615 171Q644 149 674 128T734 86L655 -11Z"/><glyph unicode="'" horiz-adv-x="249" d="M50 700H198L169 420H80L50 700Z"/><glyph unicode="(" horiz-adv-x="408" d="M227 -200Q191 -158 160 -107T104 3T66 130T52 277Q52 355 66 423T103 551T158 662T225 755H380Q343 714 309 664T249 553T208 424T192 277Q192 199 207 130T249 2T310 -108T380 -200H227V-200Z"/><glyph unicode=")" horiz-adv-x="408" d="M356 277Q356 199 342 131T304 3T249 -107T181 -200H28Q64 -159 98 -109T158 1T200 130T216 277Q216 355 201 424T159 553T99 663T28 755H183Q218 713 249 662T304 552T342 424T356 277Z"/><glyph unicode="*" horiz-adv-x="420" d="M110 409L159 518L157 520L41 506L42 601L160 588L161 590L116 698L200 722L227 609L230 608L319 680L371 606L272 553V550L369 489L313 418L227 497L224 496L191 380L110 409Z"/><glyph unicode="+" horiz-adv-x="614" d="M240 210H38V329H240V537H374V329H576V210H374V0H240V210Z"/><glyph unicode="," horiz-adv-x="251" d="M22 -123Q37 -87 47 -48T62 30T67 103T62 165H212Q212 80 180 -3T87 -153L22 -123Z"/><glyph unicode="-" horiz-adv-x="379" d="M37 332H343V209H37V332Z"/><glyph unicode="." horiz-adv-x="275" d="M138 -10Q99 -10 74 15T48 79Q48 117 73 142T138 167Q176 167 202 142T228 79Q228 40 202 15T138 -10Z"/><glyph unicode="/" horiz-adv-x="555" d="M430 755H567L126 -200H-12L430 755Z"/><glyph unicode="0" horiz-adv-x="634" d="M317 -12Q249 -12 196 14T106 87T50 202T31 351Q31 433 50 499T105 613T195 686T317 712Q386 712 439 686T529 613T585 500T604 351Q604 269 585 202T529 88T439 14T317 -12ZM317 111Q386 111 422 172T458 351Q458 468 422 528T317 589Q249 589 213 529T177 351Q177 233 213 172T317 111Z"/><glyph unicode="1" horiz-adv-x="505" d="M235 0V553L82 488L34 594L277 700H388V0H235Z"/><glyph unicode="2" horiz-adv-x="634" d="M74 62Q71 144 96 199T160 291T245 352T332 399T399 445T426 505Q426 542 400 566T317 590Q269 590 222 569T137 516L62 612Q116 657 184 684T327 712Q387 712 433 696T511 653T559 588T576 510Q576 448 550 408T483 339T397 290T310 246T244 194T217 119H569V0H77L74 62Z"/><glyph unicode="3" horiz-adv-x="634" d="M97 152Q137 132 185 118T279 104Q348 104 389 132T430 211Q430 237 420 254T391 283T347 299T292 304H194V413H286Q340 413 374 436T408 510Q408 547 378 572T290 597Q244 597 201 581T123 538L61 637Q114 672 174 692T307 713Q364 713 411 700T493 662T545 603T564 528Q564 470 533 431T450 369Q516 349 552 309T588 205Q588 151 564 111T498 43T402 2T287 -12Q221 -12 158 3T44 45L97 152Z"/><glyph unicode="4" horiz-adv-x="634" d="M36 235L371 700H523V246H603V136H523V0H383V136H71L36 235ZM383 246V545L174 246H383Z"/><glyph unicode="5" horiz-adv-x="634" d="M102 151Q140 130 186 118T278 105Q344 105 385 137T426 224Q426 275 391 304T298 333Q242 333 179 307L90 349L104 700H539V580H229L224 424Q253 432 284 437T349 443Q395 443 436 429T509 387T558 321T577 232Q577 173 555 128T493 51T400 4T284 -13Q216 -13 156 2T43 45L102 151Z"/><glyph unicode="6" horiz-adv-x="634" d="M49 331Q49 432 75 504T144 623T245 690T367 712Q475 712 565 664L507 564Q479 578 445 588T371 598Q297 598 253 546T203 395Q235 420 277 436T370 452Q418 452 459 437T529 394T575 324T592 230Q592 180 575 136T524 59T443 7T332 -12Q258 -12 205 14T117 87T66 196T49 331ZM203 290Q207 200 238 149T333 98Q386 98 416 135T446 227Q446 284 416 317T334 351Q296 351 261 333T203 290Z"/><glyph unicode="7" horiz-adv-x="634" d="M425 579H62V700H576V595L311 0H147L425 579Z"/><glyph unicode="8" horiz-adv-x="634" d="M39 185Q39 219 50 247T82 298T129 337T190 365Q138 385 102 423T66 518Q66 564 85 600T137 661T217 699T317 712Q372 712 418 699T498 661T551 600T570 518Q570 461 535 423T445 365Q511 344 553 299T596 185Q596 137 575 101T517 39T429 1T317 -12Q256 -12 205 1T117 39T60 100T39 185ZM317 416Q368 424 397 449T427 517Q427 556 396 581T317 606Q270 606 239 581T208 517Q208 475 237 450T317 416ZM186 194Q186 147 223 120T317 93Q374 93 411 120T449 194Q449 217 439 236T410 270T368 295T317 309Q290 305 267 295T225 270T197 236T186 194Z"/><glyph unicode="9" horiz-adv-x="634" d="M431 410Q428 500 397 551T302 602Q249 602 219 565T189 473Q189 416 219 383T301 349Q339 349 374 367T431 410ZM586 369Q586 268 560 196T489 77T386 10T262 -12Q209 -12 159 0T64 36L122 136Q150 122 184 112T259 102Q334 102 379 154T432 305Q400 280 358 264T265 248Q216 248 175 263T105 306T59 376T42 470Q42 520 59 564T110 641T192 693T303 712Q376 712 429 686T518 613T569 504T586 369Z"/><glyph unicode=":" horiz-adv-x="275" d="M48 453Q48 492 73 517T138 542Q176 542 202 517T228 453Q228 415 202 390T138 365Q99 365 74 390T48 453ZM138 -10Q99 -10 74 15T48 79Q48 117 73 142T138 167Q176 167 202 142T228 79Q228 40 202 15T138 -10Z"/><glyph unicode=";" horiz-adv-x="263" d="M53 458Q53 497 78 522T143 547Q181 547 207 522T233 458Q233 420 207 395T143 370Q104 370 79 395T53 458ZM23 -123Q38 -87 48 -48T63 30T68 103T63 165H213Q213 80 181 -3T88 -153L23 -123Z"/><glyph unicode="&lt;" horiz-adv-x="595" d="M546 0L36 204V335L546 537V391L210 269L546 146V0Z"/><glyph unicode="=" horiz-adv-x="614" d="M38 453H576V334H38V453ZM38 205H576V86H38V205Z"/><glyph unicode="&gt;" horiz-adv-x="595" d="M49 146L385 269L49 391V537L559 335V204L49 0V146Z"/><glyph unicode="?" horiz-adv-x="555" d="M195 219Q191 228 188 242T185 270Q185 307 198 333T231 378T274 413T317 443T350 476T363 516Q363 549 337 569T266 590Q224 590 184 572T110 524L33 615Q81 659 141 685T277 712Q331 712 374 699T448 660T495 600T512 523Q512 479 497 449T458 397T408 358T356 324T313 287T292 238L288 219H195ZM243 -9Q205 -9 183 11T160 67Q160 102 182 122T243 142Q280 142 303 122T326 67Q326 31 303 11T243 -9Z"/><glyph unicode="@" horiz-adv-x="866" d="M454 -131Q372 -131 300 -103T173 -23T86 102T54 266Q54 350 85 423T169 550T295 635T449 667Q528 667 595 641T710 567T786 456T813 318Q813 253 795 205T746 124T679 76T603 60Q549 60 515 81T469 133Q449 107 419 91T350 74Q290 74 253 115T215 226Q215 270 228 315T268 398T334 458T424 482Q459 482 487 468T530 432L548 472H665L587 198Q577 165 583 144T622 123Q646 123 670 136T713 173T743 234T755 318Q755 381 733 434T670 527T573 588T450 611Q380 611 319 584T212 511T140 401T113 266Q113 188 140 125T214 18T323 -50T455 -75Q506 -74 553 -61T641 -24L670 -72Q622 -100 569 -115T454 -131ZM393 156Q416 157 434 174T461 223L504 378Q495 387 482 393T451 400Q418 400 397 372T359 290Q348 252 348 217Q348 189 359 173T393 156Z"/><glyph unicode="A" horiz-adv-x="706" d="M258 244H449L354 528H352L258 244ZM487 130H220L177 0H16L267 700H441L691 0H530L487 130Z"/><glyph unicode="B" horiz-adv-x="677" d="M67 700H363Q426 700 472 687T549 648T595 589T610 514Q610 457 581 420T500 362Q559 345 597 305T636 198Q636 150 618 114T566 52T484 13T377 0H67V700ZM349 404Q403 404 430 428T457 494Q457 533 430 557T349 581H218V404H349ZM372 119Q425 119 455 142T485 214Q485 259 454 282T372 306H218V119H372Z"/><glyph unicode="C" horiz-adv-x="705" d="M400 -12Q320 -12 254 15T141 91T67 206T41 353Q41 431 68 496T143 610T258 685T406 712Q480 712 542 690T659 623L577 521Q542 549 502 566T409 584Q360 584 320 568T252 521T209 448T194 353Q194 299 209 255T251 181T319 133T409 116Q463 116 505 134T580 185L669 91Q614 40 548 14T400 -12Z"/><glyph unicode="D" horiz-adv-x="721" d="M67 700H297Q391 700 463 677T583 609T656 501T681 355Q681 187 587 94T297 0H67V700ZM310 121Q420 121 474 183T528 354Q528 457 472 518T310 579H218V121H310Z"/><glyph unicode="E" horiz-adv-x="632" d="M67 700H576V569H218V414H537V297H218V131H580V0H67V700Z"/><glyph unicode="F" horiz-adv-x="618" d="M67 700H568V569H219V403H522V280H219V0H67V700Z"/><glyph unicode="G" horiz-adv-x="730" d="M405 -12Q321 -12 254 15T140 90T67 206T41 353Q41 428 66 493T139 607T254 684T406 712Q486 712 548 689T663 627L583 527Q547 553 505 568T410 584Q360 584 321 567T253 519T210 446T195 353Q195 243 251 180T410 116Q484 116 533 145V275H377V387H670V65Q619 28 552 8T405 -12Z"/><glyph unicode="H" horiz-adv-x="715" d="M67 700H219V420H496V700H648V0H496V291H219V0H67V700Z"/><glyph unicode="I" horiz-adv-x="285" d="M67 700H219V0H67V700Z"/><glyph unicode="J" horiz-adv-x="565" d="M265 -12Q184 -12 126 24T30 125L142 199Q161 166 187 144T254 121Q301 121 326 150T351 231V700H503V229Q503 170 486 125T438 50T363 4T265 -12Z"/><glyph unicode="K" horiz-adv-x="695" d="M219 0H67V700H219V368L489 700H654L440 443L676 0H506L342 326L219 178V0Z"/><glyph unicode="L" horiz-adv-x="599" d="M67 700H219V131H564V0H67V700Z"/><glyph unicode="M" horiz-adv-x="853" d="M67 700H222L427 408L633 700H787V0H645V477L427 183L210 477V0H67V700Z"/><glyph unicode="N" horiz-adv-x="733" d="M67 700H212L525 237V700H667V0H521L208 461V0H67V700Z"/><glyph unicode="O" horiz-adv-x="803" d="M402 -12Q322 -12 256 15T143 91T69 207T43 352Q43 429 69 495T143 609T256 684T402 712Q481 712 547 685T660 609T733 495T760 352Q760 274 734 207T661 92T547 16T402 -12ZM402 115Q447 115 484 132T549 180T591 255T606 352Q606 403 591 446T549 520T485 568T402 585Q356 585 319 568T254 520T212 446T197 352Q197 299 212 256T254 181T318 132T402 115Z"/><glyph unicode="P" horiz-adv-x="678" d="M67 700H361Q437 700 488 681T571 631T617 560T631 478Q631 436 617 396T572 324T488 273T361 254H219V0H67V700ZM360 370Q421 370 450 400T479 476Q479 522 450 551T361 581H219V370H360Z"/><glyph unicode="Q" horiz-adv-x="805" d="M612 50Q568 21 516 5T402 -12Q322 -12 256 15T143 91T69 207T43 352Q43 429 69 495T143 609T256 684T402 712Q481 712 547 685T660 609T733 495T760 352Q760 286 742 228T688 124L770 54L699 -25L612 50ZM402 115Q459 115 506 143L401 233L470 310L575 219Q606 275 606 352Q606 403 591 446T549 520T485 568T402 585Q356 585 319 568T254 520T212 446T197 352Q197 299 212 256T254 181T318 132T402 115Z"/><glyph unicode="R" horiz-adv-x="696" d="M370 372Q430 372 460 401T490 476Q490 523 460 552T371 581H219V372H370ZM219 0H67V700H372Q448 700 499 681T582 631T628 559T642 477Q642 415 612 363T514 282L646 0H484L377 257H219V0Z"/><glyph unicode="S" horiz-adv-x="628" d="M315 -12Q275 -12 236 -6T160 11T92 36T36 65L108 183Q153 156 207 138T314 120Q370 120 399 141T428 196Q428 220 412 235T370 262T309 281T240 299T170 325T110 363T67 421T51 505Q51 547 68 585T118 651T198 695T307 712Q376 712 437 697T558 653L503 535Q406 581 315 581Q264 581 236 560T208 507Q208 483 224 468T266 442T327 423T396 404T466 379T526 341T569 282T585 197Q585 153 568 115T518 49T433 5T315 -12Z"/><glyph unicode="T" horiz-adv-x="664" d="M256 566H25V700H639V566H408V0H256V566Z"/><glyph unicode="U" horiz-adv-x="719" d="M360 -12Q295 -12 241 5T147 56T86 143T64 266V700H216V266Q216 194 255 155T360 116Q424 116 464 155T504 266V700H656V266Q656 196 634 144T573 57T480 5T360 -12Z"/><glyph unicode="V" horiz-adv-x="701" d="M16 700H180L349 177H351L521 700H685L435 0H266L16 700Z"/><glyph unicode="W" horiz-adv-x="1043" d="M21 700H179L318 225H320L454 700H590L724 225H726L866 700H1022L807 0H659L523 471H521L384 0H236L21 700Z"/><glyph unicode="X" horiz-adv-x="716" d="M262 357L30 700H213L361 474L508 700H686L455 357L693 0H511L357 240L201 0H23L262 357Z"/><glyph unicode="Y" horiz-adv-x="699" d="M273 282L12 700H186L349 432H351L514 700H687L426 282V0H273V282Z"/><glyph unicode="Z" horiz-adv-x="627" d="M46 114L389 565H46V700H577V586L237 135H589V0H46V114Z"/><glyph unicode="[" horiz-adv-x="433" d="M379 -200H74V755H379V653H222V-97H379V-200Z"/><glyph unicode="\" horiz-adv-x="555" d="M567 -200H429L-12 755H125L567 -200Z"/><glyph unicode="]" horiz-adv-x="433" d="M54 -97H211V653H54V755H359V-200H54V-97Z"/><glyph unicode="_" horiz-adv-x="552" d="M0 -13H552V-136H0V-13Z"/><glyph unicode="`" horiz-adv-x="579" d="M181 710L279 778L399 594H309L181 710Z"/><glyph unicode="a" horiz-adv-x="566" d="M249 90Q282 90 308 104T350 139V242Q318 240 288 235T235 218T198 189T184 147Q184 122 202 106T249 90ZM194 -12Q159 -12 131 -2T82 26T50 70T38 128Q38 212 112 261T350 324V368Q350 399 332 416T274 433Q236 433 195 420T103 381L51 487Q107 515 166 532T282 549Q340 549 380 536T447 498T485 439T497 363V136Q497 116 508 107T539 97V-2Q501 -2 474 1T426 12T391 33T366 66Q332 28 292 8T194 -12Z"/><glyph unicode="b" d="M367 -12Q313 -12 273 9T201 65L192 0H62V755H210V475Q239 508 278 528T363 548Q409 548 447 531T512 479T554 393T569 274Q569 204 554 151T512 61T448 7T367 -12ZM316 99Q343 99 363 112T396 148T415 203T422 273Q422 351 396 394T316 437Q284 437 258 422T210 383V151Q233 126 259 113T316 99Z"/><glyph unicode="c" horiz-adv-x="524" d="M309 -12Q251 -12 201 7T115 62T57 151T36 271Q36 336 56 387T114 475T200 530T309 549Q357 549 405 534T496 484L423 390Q401 407 374 418T314 430Q288 430 265 420T224 390T196 340T185 271Q185 190 222 148T314 105Q349 105 374 116T423 147L502 63Q459 25 413 7T309 -12Z"/><glyph unicode="d" horiz-adv-x="606" d="M291 99Q322 99 348 112T398 151V383Q375 407 349 422T291 437Q237 437 211 394T184 273Q184 235 190 203T210 148T244 112T291 99ZM240 -12Q195 -12 158 6T95 61T53 150T38 274Q38 410 95 479T245 548Q290 548 329 528T398 475V755H545V0H416L406 65Q373 30 334 9T240 -12Z"/><glyph unicode="e" horiz-adv-x="585" d="M529 58Q431 -13 308 -13Q250 -13 201 6T115 61T59 150T38 268Q38 332 59 384T116 473T202 529T307 549Q364 549 408 532T484 483T531 407T547 308Q547 291 545 272T541 238H186Q199 103 318 103Q360 103 397 115T468 148L529 58ZM310 446Q266 446 234 416T190 325H407Q408 377 386 411T310 446Z"/><glyph unicode="f" horiz-adv-x="410" d="M100 429H16V528H100V559Q100 617 116 656T162 719T232 753T320 764Q349 764 382 758T441 741L406 643Q390 648 372 651T330 655Q247 655 247 562V528H381V429H247V0H100V429Z"/><glyph unicode="g" horiz-adv-x="595" d="M269 253Q311 253 336 281T362 354Q362 399 337 427T269 455Q229 455 203 427T176 354Q176 309 202 281T269 253ZM561 -50Q561 -125 494 -167T284 -210Q159 -210 88 -176T16 -71Q16 4 91 42Q74 59 67 77T59 115Q59 142 72 166T110 208Q76 234 57 270T37 355Q37 398 54 434T102 495T175 535T269 549Q314 549 353 538T422 505Q449 525 486 536T575 547V456Q520 456 478 444Q500 403 500 355Q500 308 481 272T430 211T357 172T269 159Q228 159 189 170Q173 157 173 140Q173 131 179 124T201 113T242 105T307 100Q428 95 494 61T561 -50ZM283 -123Q358 -123 392 -111T427 -71Q427 -44 397 -34T293 -21Q262 -20 236 -17T187 -8Q170 -18 160 -32T150 -66Q150 -95 181 -109T283 -123Z"/><glyph unicode="h" horiz-adv-x="599" d="M62 755H210V472Q240 504 282 526T375 548Q466 548 504 498T542 357V0H395V361Q395 396 379 418T323 440Q291 440 262 424T210 379V0H62V755Z"/><glyph unicode="i" horiz-adv-x="271" d="M135 604Q97 604 73 625T49 683Q49 721 73 741T135 762Q173 762 197 742T222 683Q222 646 198 625T135 604ZM62 534H210V0H62V534Z"/><glyph unicode="j" horiz-adv-x="283" d="M147 604Q109 604 85 625T61 683Q61 721 85 741T147 762Q185 762 209 742T234 683Q234 646 210 625T147 604ZM34 -210Q0 -210 -27 -204T-77 -190L-43 -84Q-29 -88 -17 -90T10 -93Q39 -93 56 -75T74 -13V534H221V-3Q221 -109 173 -159T34 -210Z"/><glyph unicode="k" horiz-adv-x="586" d="M210 0H62V755H210V297L411 536H561L397 348L574 0H408L300 237L210 134V0Z"/><glyph unicode="l" horiz-adv-x="273" d="M62 755H211V0H62V755Z"/><glyph unicode="m" horiz-adv-x="902" d="M208 0H60V536H200L207 478Q239 508 281 528T367 549Q423 549 456 528T506 470Q545 508 588 528T683 549Q766 549 805 498T844 360V0H697V364Q697 400 682 420T633 440Q574 440 526 384Q527 376 527 367T527 348V0H379V364Q379 401 364 420T315 440Q285 440 257 424T208 381V0Z"/><glyph unicode="n" horiz-adv-x="597" d="M60 536H200L207 472Q237 504 279 526T373 549Q464 549 502 499T541 357V0H393V361Q393 396 377 418T322 440Q290 440 261 424T208 378V0H60V536Z"/><glyph unicode="o" horiz-adv-x="613" d="M307 -12Q247 -12 197 8T112 64T58 154T38 273Q38 335 58 386T115 473T200 529T307 549Q364 549 413 529T498 473T554 386T575 273Q575 207 556 154T501 65T417 8T307 -12ZM307 96Q364 96 395 144T426 273Q426 348 394 394T307 440Q252 440 219 394T186 273Q186 192 217 144T307 96Z"/><glyph unicode="p" horiz-adv-x="605" d="M315 99Q342 99 361 112T394 148T414 203T421 273Q421 351 395 394T314 437Q282 437 256 422T208 383V151Q231 126 257 113T315 99ZM61 536H194L206 469Q235 505 274 526T361 548Q454 548 511 479T568 274Q568 204 553 151T512 61T448 7T367 -12Q316 -12 278 7T208 58V-200H61V536Z"/><glyph unicode="q" horiz-adv-x="606" d="M399 58Q367 27 329 8T240 -12Q195 -12 158 6T95 61T53 150T38 274Q38 410 95 479T245 548Q293 548 332 527T400 469L412 536H545V-200H399V58ZM292 99Q323 99 349 112T399 151V383Q376 407 350 422T292 437Q238 437 211 394T184 273Q184 235 190 203T210 148T244 112T292 99Z"/><glyph unicode="r" horiz-adv-x="440" d="M60 536H197L207 456Q238 510 277 531T361 552Q378 552 393 550T422 544L403 408Q390 413 372 416T333 419Q291 419 261 397T208 329V0H60V536Z"/><glyph unicode="s" horiz-adv-x="502" d="M251 -12Q189 -12 133 2T29 43L84 144Q122 124 164 111T248 98Q329 98 329 149Q329 173 308 185T254 206T185 225T115 253T62 301T40 382Q40 422 57 453T103 506T171 538T254 549Q298 549 346 539T452 503L400 403Q362 422 322 430T256 439Q220 439 202 425T183 388Q183 365 204 353T257 333T326 315T395 287T448 239T470 158Q470 117 454 86T409 32T340 -1T251 -12Z"/><glyph unicode="t" horiz-adv-x="436" d="M265 -12Q178 -12 139 31T100 166V435H16V536H100V671H247V536H395V435H247V169Q247 105 300 105Q319 105 337 111T369 129L422 41Q390 17 350 3T265 -12Z"/><glyph unicode="u" horiz-adv-x="597" d="M225 -12Q134 -12 96 38T57 180V536H205V176Q205 140 220 118T275 96Q309 96 337 112T390 158V536H538V0H401L391 64Q362 33 319 11T225 -12Z"/><glyph unicode="v" horiz-adv-x="544" d="M14 536H161L274 162H276L389 536H530L351 0H192L14 536Z"/><glyph unicode="w" horiz-adv-x="844" d="M14 536H159L264 190H266L364 536H480L579 190H581L684 536H830L657 0H521L422 329H420L322 0H186L14 536Z"/><glyph unicode="x" horiz-adv-x="552" d="M187 272L20 536H175L276 372L376 536H530L364 272L535 0H384L275 173L166 0H17L187 272Z"/><glyph unicode="y" horiz-adv-x="560" d="M131 -210Q98 -210 68 -205T13 -191L51 -78Q68 -85 85 -89T120 -94Q148 -94 165 -82T193 -37L210 7L14 536H165L282 184H284L400 536H545L347 -21Q327 -78 305 -114T256 -172T199 -202T131 -210Z"/><glyph unicode="z" horiz-adv-x="521" d="M41 96L296 426H49V536H475V437L223 110H485V0H41V96Z"/><glyph unicode="{" horiz-adv-x="488" d="M434 -200H359Q153 -200 153 -31V136Q153 178 138 194T78 210H30V340H78Q122 340 137 356T153 415V586Q153 755 359 755H434V652H370Q332 652 316 637T300 584V418Q300 365 278 329T196 276V275Q256 257 278 221T300 132V-29Q300 -67 316 -82T370 -97H434V-200Z"/><glyph unicode="|" horiz-adv-x="316" d="M91 755H225V-200H91V755Z"/><glyph unicode="}" horiz-adv-x="488" d="M54 -97H118Q156 -97 172 -82T188 -29V132Q188 184 210 220T292 275V276Q232 292 210 328T188 418V584Q188 621 172 636T118 652H54V755H129Q335 755 335 586V415Q335 373 350 357T410 340H458V210H410Q366 210 351 194T335 136V-31Q335 -200 129 -200H54V-97Z"/><glyph unicode="¡" horiz-adv-x="279" d="M57 471Q57 506 79 526T140 547Q177 547 200 527T223 471Q223 436 200 416T140 396Q102 396 80 416T57 471ZM215 -162H66V-55Q66 -11 70 37T82 140L103 319H178L199 140Q207 85 211 37T215 -55V-162Z"/><glyph unicode="§" horiz-adv-x="634" d="M313 297Q340 293 369 289T426 279Q446 299 446 324Q446 346 436 359T407 381T365 395T315 403Q289 407 262 410T209 420Q200 411 195 400T189 375Q189 354 199 341T226 319T265 306T313 297ZM320 -13Q249 -13 188 2T78 43L131 129Q169 109 218 95T315 81Q366 81 393 94T420 132Q421 160 390 169T293 186Q242 192 200 202T127 232T80 279T63 350Q64 384 80 411T122 457Q102 473 90 496T78 553Q78 587 91 616T134 667T207 701T315 713Q386 713 447 698T557 656L504 571Q466 590 417 604T320 619Q269 619 242 605T215 567Q214 540 245 531T342 513Q393 507 435 497T508 467T555 420T572 350Q571 315 555 289T514 242Q534 227 545 204T557 146Q557 112 544 83T501 33T428 -1T320 -13Z"/><glyph unicode="¨" horiz-adv-x="610" d="M191 608Q162 608 144 625T126 672Q126 701 144 718T191 735Q220 735 238 718T257 672Q257 642 239 625T191 608ZM419 608Q391 608 373 625T355 672Q355 701 373 718T419 735Q448 735 467 718T486 672Q486 642 467 625T419 608Z"/><glyph unicode="©" horiz-adv-x="833" d="M416 -13Q341 -13 275 15T159 93T82 208T53 349Q53 424 81 490T159 606T274 683T416 712Q491 712 557 684T673 606T751 491T780 349Q780 274 752 208T674 93T558 16T416 -13ZM417 40Q481 41 537 65T636 132T702 230T727 349Q727 413 703 469T636 568T538 634T417 659Q353 659 297 635T198 568T132 470T108 349Q108 286 132 230T198 132T296 66T417 40ZM424 149Q376 149 338 164T273 206T232 269T218 349Q218 390 232 426T274 489T339 532T424 548Q462 548 501 536T576 495L517 424Q497 440 476 450T429 460Q384 460 354 430T324 349Q324 296 353 267T428 237Q482 237 519 274L582 210Q552 182 514 166T424 149Z"/><glyph unicode="«" horiz-adv-x="652" d="M512 0L310 271L511 537L606 468L448 271L605 70L512 0ZM240 0L38 271L239 537L334 468L176 271L333 70L240 0Z"/><glyph unicode="®" horiz-adv-x="585" d="M292 238Q239 238 192 258T110 313T55 394T35 494Q35 548 55 595T110 677T192 732T292 752Q345 752 392 732T474 677T529 595T550 495Q550 442 530 395T474 313T392 258T292 238ZM292 287Q335 287 373 303T439 348T484 413T501 494Q501 537 485 575T440 641T373 686T292 703Q249 703 211 687T145 642T101 575T84 494Q84 451 100 414T145 348T211 304T292 287ZM306 507Q329 507 337 517T345 539Q345 551 337 561T307 571H259V507H306ZM184 624H319Q345 624 364 617T395 597T413 570T419 539Q419 517 408 497T371 466L418 369H340L302 458H259V369H184V624Z"/><glyph unicode="°" horiz-adv-x="402" d="M201 382Q166 382 135 393T81 427T45 479T31 548Q31 584 44 614T81 667T135 701T201 713Q235 713 266 701T320 667T357 615T371 548Q371 510 358 480T321 427T267 394T201 382ZM201 463Q235 464 260 487T285 548Q285 585 260 608T201 632Q167 632 142 609T116 548Q116 511 141 488T201 463Z"/><glyph unicode="²" horiz-adv-x="343" d="M44 538Q42 577 54 604T87 650T131 681T177 705T212 729T226 759Q226 776 212 786T170 797Q147 797 124 786T81 758L31 812Q62 838 100 853T180 869Q247 869 281 838T316 762Q316 732 303 712T269 677T226 651T181 629T146 604T130 570H313V500H46L44 538Z"/><glyph unicode="³" horiz-adv-x="334" d="M153 493Q118 493 84 502T22 525L54 591Q77 578 100 571T148 563Q181 563 201 577T221 611Q221 634 203 644T154 654H101V718H151Q179 718 194 728T210 760Q210 777 195 788T154 799Q129 799 107 791T64 768L27 826Q56 845 88 857T160 869Q190 869 215 862T260 842T289 812T300 773Q300 741 286 723T249 691Q312 666 312 608Q312 578 299 557T263 521T213 500T153 493Z"/><glyph unicode="´" horiz-adv-x="579" d="M301 778L398 710L271 594H180L301 778Z"/><glyph unicode="·" horiz-adv-x="280" d="M140 181Q101 181 76 206T50 270Q50 308 75 333T140 358Q178 358 204 333T230 270Q230 231 204 206T140 181Z"/><glyph unicode="º" horiz-adv-x="424" d="M210 328Q127 328 79 379T30 522Q30 564 43 598T81 657T138 694T210 708Q250 708 283 695T340 657T377 599T390 522Q390 431 342 380T210 328ZM210 402Q252 402 274 434T296 521Q296 572 274 603T210 634Q169 634 147 603T125 521Q125 467 146 435T210 402Z"/><glyph unicode="»" horiz-adv-x="652" d="M320 70L477 271L319 468L414 537L615 271L413 0L320 70ZM47 70L204 271L46 468L141 537L342 271L140 0L47 70Z"/><glyph unicode="¿" horiz-adv-x="545" d="M314 547Q352 547 374 527T397 471Q397 436 375 416T314 396Q277 396 254 416T231 471Q231 507 254 527T314 547ZM362 319Q366 310 369 296T372 268Q372 231 359 205T326 160T283 125T240 95T207 62T194 22Q194 -11 220 -31T291 -52Q333 -52 373 -34T447 14L524 -77Q476 -121 416 -147T280 -174Q226 -174 183 -161T109 -122T62 -62T45 15Q45 59 60 89T99 141T149 180T201 214T243 251T265 300L269 319H362Z"/><glyph unicode="À" horiz-adv-x="706" d="M258 244H449L354 528H352L258 244ZM487 130H220L177 0H16L267 700H441L691 0H530L487 130ZM196 840L312 902L422 755H314L196 840Z"/><glyph unicode="Á" horiz-adv-x="706" d="M258 244H449L354 528H352L258 244ZM487 130H220L177 0H16L267 700H441L691 0H530L487 130ZM394 902L511 840L393 755H285L394 902Z"/><glyph unicode="Â" horiz-adv-x="706" d="M258 244H449L354 528H352L258 244ZM487 130H220L177 0H16L267 700H441L691 0H530L487 130ZM280 889H427L542 755H442L355 824H354L266 755H165L280 889Z"/><glyph unicode="Ä" horiz-adv-x="706" d="M258 244H449L354 528H352L258 244ZM487 130H220L177 0H16L267 700H441L691 0H530L487 130ZM468 759Q439 759 421 776T403 823Q403 853 421 869T468 886Q497 886 515 870T534 823Q534 794 516 777T468 759ZM239 759Q211 759 193 776T174 823Q174 853 192 869T239 886Q268 886 286 870T305 823Q305 794 287 777T239 759Z"/><glyph unicode="È" horiz-adv-x="632" d="M67 700H576V569H218V414H537V297H218V131H580V0H67V700ZM423 840L539 902L649 755H541L423 840Z"/><glyph unicode="É" horiz-adv-x="632" d="M67 700H576V569H218V414H537V297H218V131H580V0H67V700ZM364 902L481 840L363 755H255L364 902Z"/><glyph unicode="Ê" horiz-adv-x="632" d="M67 700H576V569H218V414H537V297H218V131H580V0H67V700ZM250 889H397L512 755H412L325 824H324L236 755H135L250 889Z"/><glyph unicode="Ì" horiz-adv-x="285" d="M67 700H219V0H67V700ZM-13 840L103 902L213 755H105L-13 840Z"/><glyph unicode="Í" horiz-adv-x="285" d="M67 700H219V0H67V700ZM441 902L558 840L440 755H332L441 902Z"/><glyph unicode="Î" horiz-adv-x="285" d="M67 700H219V0H67V700ZM70 889H217L332 755H232L145 824H144L56 755H-45L70 889Z"/><glyph unicode="Ñ" horiz-adv-x="733" d="M67 700H212L525 237V700H667V0H521L208 461V0H67V700ZM188 759Q181 825 211 861T296 898Q320 898 338 889T372 870T400 851T429 842Q469 842 464 886H544Q548 853 542 827T521 783T485 756T436 746Q412 746 394 754T361 773T332 792T302 801Q264 801 269 759H188V759Z"/><glyph unicode="Ò" horiz-adv-x="803" d="M402 -12Q322 -12 256 15T143 91T69 207T43 352Q43 429 69 495T143 609T256 684T402 712Q481 712 547 685T660 609T733 495T760 352Q760 274 734 207T661 92T547 16T402 -12ZM402 115Q447 115 484 132T549 180T591 255T606 352Q606 403 591 446T549 520T485 568T402 585Q356 585 319 568T254 520T212 446T197 352Q197 299 212 256T254 181T318 132T402 115ZM247 840L363 902L473 755H365L247 840Z"/><glyph unicode="Ó" horiz-adv-x="803" d="M402 -12Q322 -12 256 15T143 91T69 207T43 352Q43 429 69 495T143 609T256 684T402 712Q481 712 547 685T660 609T733 495T760 352Q760 274 734 207T661 92T547 16T402 -12ZM402 115Q447 115 484 132T549 180T591 255T606 352Q606 403 591 446T549 520T485 568T402 585Q356 585 319 568T254 520T212 446T197 352Q197 299 212 256T254 181T318 132T402 115ZM444 902L561 840L443 755H335L444 902Z"/><glyph unicode="Ô" horiz-adv-x="803" d="M402 -12Q322 -12 256 15T143 91T69 207T43 352Q43 429 69 495T143 609T256 684T402 712Q481 712 547 685T660 609T733 495T760 352Q760 274 734 207T661 92T547 16T402 -12ZM402 115Q447 115 484 132T549 180T591 255T606 352Q606 403 591 446T549 520T485 568T402 585Q356 585 319 568T254 520T212 446T197 352Q197 299 212 256T254 181T318 132T402 115ZM329 889H476L591 755H491L404 824H403L315 755H214L329 889Z"/><glyph unicode="Ö" horiz-adv-x="803" d="M402 -12Q322 -12 256 15T143 91T69 207T43 352Q43 429 69 495T143 609T256 684T402 712Q481 712 547 685T660 609T733 495T760 352Q760 274 734 207T661 92T547 16T402 -12ZM402 115Q447 115 484 132T549 180T591 255T606 352Q606 403 591 446T549 520T485 568T402 585Q356 585 319 568T254 520T212 446T197 352Q197 299 212 256T254 181T318 132T402 115ZM517 759Q488 759 470 776T452 823Q452 853 470 869T517 886Q546 886 564 870T583 823Q583 794 565 777T517 759ZM288 759Q260 759 242 776T223 823Q223 853 241 869T288 886Q317 886 335 870T354 823Q354 794 336 777T288 759Z"/><glyph unicode="Ø" horiz-adv-x="805" d="M197 352Q197 307 207 269T238 202L514 551Q466 585 402 585Q356 585 319 568T254 520T212 446T197 352ZM402 115Q447 115 484 132T549 180T591 255T606 352Q606 397 595 434T564 501L286 151Q336 115 402 115ZM402 -12Q344 -12 294 2T202 44L137 -37L77 10L143 91Q95 140 69 206T43 352Q43 429 69 495T143 609T256 684T402 712Q459 712 508 698T599 658L661 735L721 687L659 610Q707 562 733 496T760 352Q760 274 734 207T661 92T547 16T402 -12Z"/><glyph unicode="Ù" horiz-adv-x="719" d="M360 -12Q295 -12 241 5T147 56T86 143T64 266V700H216V266Q216 194 255 155T360 116Q424 116 464 155T504 266V700H656V266Q656 196 634 144T573 57T480 5T360 -12ZM202 840L318 902L428 755H320L202 840Z"/><glyph unicode="Ú" horiz-adv-x="719" d="M360 -12Q295 -12 241 5T147 56T86 143T64 266V700H216V266Q216 194 255 155T360 116Q424 116 464 155T504 266V700H656V266Q656 196 634 144T573 57T480 5T360 -12ZM401 902L518 840L400 755H292L401 902Z"/><glyph unicode="Û" horiz-adv-x="719" d="M360 -12Q295 -12 241 5T147 56T86 143T64 266V700H216V266Q216 194 255 155T360 116Q424 116 464 155T504 266V700H656V266Q656 196 634 144T573 57T480 5T360 -12ZM286 889H433L548 755H448L361 824H360L272 755H171L286 889Z"/><glyph unicode="Ü" horiz-adv-x="719" d="M360 -12Q295 -12 241 5T147 56T86 143T64 266V700H216V266Q216 194 255 155T360 116Q424 116 464 155T504 266V700H656V266Q656 196 634 144T573 57T480 5T360 -12ZM474 759Q445 759 427 776T409 823Q409 853 427 869T474 886Q503 886 521 870T540 823Q540 794 522 777T474 759ZM245 759Q217 759 199 776T180 823Q180 853 198 869T245 886Q274 886 292 870T311 823Q311 794 293 777T245 759Z"/><glyph unicode="ß" horiz-adv-x="643" d="M379 -10Q350 -10 323 -7T273 2L290 116Q303 112 319 110T351 107Q402 107 433 136T464 216Q464 266 431 294T337 324L301 325V441H319Q367 443 394 472T421 547Q421 600 392 628T314 656Q267 656 238 626T208 537V0H60V531Q60 588 80 631T135 704T218 749T320 764Q372 764 417 750T496 709T549 644T569 559Q569 501 538 459T459 394V393Q525 375 569 327T613 203Q613 152 595 112T545 45T470 4T379 -10Z"/><glyph unicode="à" horiz-adv-x="566" d="M249 90Q282 90 308 104T350 139V242Q318 240 288 235T235 218T198 189T184 147Q184 122 202 106T249 90ZM194 -12Q159 -12 131 -2T82 26T50 70T38 128Q38 212 112 261T350 324V368Q350 399 332 416T274 433Q236 433 195 420T103 381L51 487Q107 515 166 532T282 549Q340 549 380 536T447 498T485 439T497 363V136Q497 116 508 107T539 97V-2Q501 -2 474 1T426 12T391 33T366 66Q332 28 292 8T194 -12ZM388 710L486 778L606 594H516L388 710Z"/><glyph unicode="á" horiz-adv-x="566" d="M249 90Q282 90 308 104T350 139V242Q318 240 288 235T235 218T198 189T184 147Q184 122 202 106T249 90ZM194 -12Q159 -12 131 -2T82 26T50 70T38 128Q38 212 112 261T350 324V368Q350 399 332 416T274 433Q236 433 195 420T103 381L51 487Q107 515 166 532T282 549Q340 549 380 536T447 498T485 439T497 363V136Q497 116 508 107T539 97V-2Q501 -2 474 1T426 12T391 33T366 66Q332 28 292 8T194 -12ZM339 778L436 710L309 594H218L339 778Z"/><glyph unicode="â" horiz-adv-x="566" d="M249 90Q282 90 308 104T350 139V242Q318 240 288 235T235 218T198 189T184 147Q184 122 202 106T249 90ZM194 -12Q159 -12 131 -2T82 26T50 70T38 128Q38 212 112 261T350 324V368Q350 399 332 416T274 433Q236 433 195 420T103 381L51 487Q107 515 166 532T282 549Q340 549 380 536T447 498T485 439T497 363V136Q497 116 508 107T539 97V-2Q501 -2 474 1T426 12T391 33T366 66Q332 28 292 8T194 -12ZM459 750H619L740 594H628L541 680H538L450 594H339L459 750Z"/><glyph unicode="ä" horiz-adv-x="566" d="M249 90Q282 90 308 104T350 139V242Q318 240 288 235T235 218T198 189T184 147Q184 122 202 106T249 90ZM194 -12Q159 -12 131 -2T82 26T50 70T38 128Q38 212 112 261T350 324V368Q350 399 332 416T274 433Q236 433 195 420T103 381L51 487Q107 515 166 532T282 549Q340 549 380 536T447 498T485 439T497 363V136Q497 116 508 107T539 97V-2Q501 -2 474 1T426 12T391 33T366 66Q332 28 292 8T194 -12ZM423 608Q394 608 376 625T358 672Q358 701 376 718T423 735Q452 735 470 718T489 672Q489 642 471 625T423 608ZM651 608Q623 608 605 625T587 672Q587 701 605 718T651 735Q680 735 699 718T718 672Q718 642 699 625T651 608Z"/><glyph unicode="è" horiz-adv-x="585" d="M529 58Q431 -13 308 -13Q250 -13 201 6T115 61T59 150T38 268Q38 332 59 384T116 473T202 529T307 549Q364 549 408 532T484 483T531 407T547 308Q547 291 545 272T541 238H186Q199 103 318 103Q360 103 397 115T468 148L529 58ZM310 446Q266 446 234 416T190 325H407Q408 377 386 411T310 446ZM410 710L508 778L628 594H538L410 710Z"/><glyph unicode="é" horiz-adv-x="585" d="M529 58Q431 -13 308 -13Q250 -13 201 6T115 61T59 150T38 268Q38 332 59 384T116 473T202 529T307 549Q364 549 408 532T484 483T531 407T547 308Q547 291 545 272T541 238H186Q199 103 318 103Q360 103 397 115T468 148L529 58ZM310 446Q266 446 234 416T190 325H407Q408 377 386 411T310 446ZM359 778L456 710L329 594H238L359 778Z"/><glyph unicode="ê" horiz-adv-x="585" d="M529 58Q431 -13 308 -13Q250 -13 201 6T115 61T59 150T38 268Q38 332 59 384T116 473T202 529T307 549Q364 549 408 532T484 483T531 407T547 308Q547 291 545 272T541 238H186Q199 103 318 103Q360 103 397 115T468 148L529 58ZM310 446Q266 446 234 416T190 325H407Q408 377 386 411T310 446ZM485 750H645L766 594H654L567 680H564L476 594H365L485 750Z"/><glyph unicode="ì" horiz-adv-x="271" d="M62 532H210V0H62V532ZM-16 710L82 778L202 594H112L-16 710Z"/><glyph unicode="í" horiz-adv-x="271" d="M62 532H210V0H62V532ZM446 778L543 710L416 594H325L446 778Z"/><glyph unicode="î" horiz-adv-x="271" d="M62 532H210V0H62V532ZM56 750H216L337 594H225L138 680H135L47 594H-64L56 750Z"/><glyph unicode="ñ" horiz-adv-x="597" d="M60 536H200L207 472Q237 504 279 526T373 549Q464 549 502 499T541 357V0H393V361Q393 396 377 418T322 440Q290 440 261 424T208 378V0H60V536ZM624 595Q600 595 583 603T550 622T522 642T493 651Q455 651 459 605H380Q373 674 403 710T487 747Q511 747 529 738T561 719T589 700T618 691Q656 691 652 738H731Q735 703 729 677T708 632T672 605T624 595Z"/><glyph unicode="ò" horiz-adv-x="613" d="M307 -12Q247 -12 197 8T112 64T58 154T38 273Q38 335 58 386T115 473T200 529T307 549Q364 549 413 529T498 473T554 386T575 273Q575 207 556 154T501 65T417 8T307 -12ZM307 96Q364 96 395 144T426 273Q426 348 394 394T307 440Q252 440 219 394T186 273Q186 192 217 144T307 96ZM409 710L507 778L627 594H537L409 710Z"/><glyph unicode="ó" horiz-adv-x="613" d="M307 -12Q247 -12 197 8T112 64T58 154T38 273Q38 335 58 386T115 473T200 529T307 549Q364 549 413 529T498 473T554 386T575 273Q575 207 556 154T501 65T417 8T307 -12ZM307 96Q364 96 395 144T426 273Q426 348 394 394T307 440Q252 440 219 394T186 273Q186 192 217 144T307 96ZM359 778L456 710L329 594H238L359 778Z"/><glyph unicode="ô" horiz-adv-x="613" d="M307 -12Q247 -12 197 8T112 64T58 154T38 273Q38 335 58 386T115 473T200 529T307 549Q364 549 413 529T498 473T554 386T575 273Q575 207 556 154T501 65T417 8T307 -12ZM307 96Q364 96 395 144T426 273Q426 348 394 394T307 440Q252 440 219 394T186 273Q186 192 217 144T307 96ZM483 750H643L764 594H652L565 680H562L474 594H363L483 750Z"/><glyph unicode="ö" horiz-adv-x="613" d="M307 -12Q247 -12 197 8T112 64T58 154T38 273Q38 335 58 386T115 473T200 529T307 549Q364 549 413 529T498 473T554 386T575 273Q575 207 556 154T501 65T417 8T307 -12ZM307 96Q364 96 395 144T426 273Q426 348 394 394T307 440Q252 440 219 394T186 273Q186 192 217 144T307 96ZM192 608Q163 608 145 625T127 672Q127 701 145 718T192 735Q221 735 239 718T258 672Q258 642 240 625T192 608ZM420 608Q392 608 374 625T356 672Q356 701 374 718T420 735Q449 735 468 718T487 672Q487 642 468 625T420 608Z"/><glyph unicode="ø" horiz-adv-x="613" d="M186 273Q186 221 198 184L375 415Q345 440 307 440Q252 440 219 394T186 273ZM307 96Q364 96 395 144T426 273Q426 326 410 362L230 128Q259 96 307 96ZM307 -12Q264 -12 227 -2T158 27L98 -53L39 -10L104 73Q72 110 55 160T38 273Q38 335 58 386T115 473T200 529T307 549Q346 549 381 540T446 513L501 586L558 542L501 470Q536 434 555 384T575 273Q575 207 556 154T501 65T417 8T307 -12Z"/><glyph unicode="ù" horiz-adv-x="597" d="M225 -12Q134 -12 96 38T57 180V536H205V176Q205 140 220 118T275 96Q309 96 337 112T390 158V536H538V0H401L391 64Q362 33 319 11T225 -12ZM389 710L487 778L607 594H517L389 710Z"/><glyph unicode="ú" horiz-adv-x="597" d="M225 -12Q134 -12 96 38T57 180V536H205V176Q205 140 220 118T275 96Q309 96 337 112T390 158V536H538V0H401L391 64Q362 33 319 11T225 -12ZM358 778L455 710L328 594H237L358 778Z"/><glyph unicode="û" horiz-adv-x="597" d="M225 -12Q134 -12 96 38T57 180V536H205V176Q205 140 220 118T275 96Q309 96 337 112T390 158V536H538V0H401L391 64Q362 33 319 11T225 -12ZM475 750H635L756 594H644L557 680H554L466 594H355L475 750Z"/><glyph unicode="ü" horiz-adv-x="597" d="M225 -12Q134 -12 96 38T57 180V536H205V176Q205 140 220 118T275 96Q309 96 337 112T390 158V536H538V0H401L391 64Q362 33 319 11T225 -12ZM441 608Q412 608 394 625T376 672Q376 701 394 718T441 735Q470 735 488 718T507 672Q507 642 489 625T441 608ZM669 608Q641 608 623 625T605 672Q605 701 623 718T669 735Q698 735 717 718T736 672Q736 642 717 625T669 608Z"/><glyph unicode="ı" horiz-adv-x="271" d="M62 532H210V0H62V532Z"/><glyph unicode="ˆ" horiz-adv-x="620" d="M241 750H401L522 594H410L323 680H320L232 594H121L241 750Z"/><glyph unicode="˜" horiz-adv-x="610" d="M379 595Q355 595 338 603T305 622T277 642T248 651Q210 651 214 605H135Q128 674 158 710T242 747Q266 747 284 738T316 719T344 700T373 691Q411 691 407 738H486Q490 703 484 677T463 632T427 605T379 595Z"/><glyph unicode="ẞ" horiz-adv-x="713" d="M432 -11Q393 -11 358 -7T296 4L320 117Q337 112 360 109T405 106Q455 106 488 129T522 201Q522 248 486 272T385 298H332V409L363 410Q426 412 456 438T486 506Q486 551 450 576T351 602Q288 602 252 568T216 473V0H64V469Q64 583 138 648T350 713Q415 713 468 698T558 657T616 593T637 512Q637 455 604 416T513 359Q584 344 628 300T673 184Q673 137 654 101T603 39T526 2T432 -11Z"/><glyph unicode="–" horiz-adv-x="622" d="M37 332H585V209H37V332Z"/><glyph unicode="—" horiz-adv-x="901" d="M41 332H860V209H41V332Z"/><glyph unicode="‘" horiz-adv-x="246" d="M221 696Q206 661 197 623T182 547T177 475T182 415H35Q35 497 67 578T158 725L221 696Z"/><glyph unicode="’" horiz-adv-x="246" d="M25 425Q40 460 49 498T64 574T69 646T64 706H211Q211 624 179 543T88 396L25 425Z"/><glyph unicode="‚" horiz-adv-x="251" d="M22 -123Q37 -87 47 -48T62 30T67 103T62 165H212Q212 80 180 -3T87 -153L22 -123Z"/><glyph unicode="“" horiz-adv-x="475" d="M221 696Q206 661 197 623T182 547T177 475T182 415H35Q35 497 67 578T158 725L221 696ZM450 696Q435 661 426 623T411 547T406 475T411 415H264Q264 497 296 578T387 725L450 696Z"/><glyph unicode="”" horiz-adv-x="475" d="M25 425Q40 460 49 498T64 574T69 646T64 706H211Q211 624 179 543T88 396L25 425ZM254 425Q269 460 278 498T293 574T298 646T293 706H440Q440 624 408 543T317 396L254 425Z"/><glyph unicode="„" horiz-adv-x="486" d="M22 -123Q37 -87 47 -48T62 30T67 103T62 165H212Q212 80 180 -3T87 -153L22 -123ZM257 -123Q272 -87 282 -48T297 30T302 103T297 165H447Q447 80 415 -3T322 -153L257 -123Z"/><glyph unicode="•" horiz-adv-x="558" d="M279 114Q247 114 219 126T169 160T136 209T124 270Q124 302 136 330T169 379T218 412T279 424Q311 424 339 412T389 379T422 330T434 270Q434 238 422 210T389 160T340 127T279 114Z"/><glyph unicode="…" horiz-adv-x="822" d="M695 -10Q656 -10 631 15T605 79Q605 117 630 142T695 167Q733 167 759 142T785 79Q785 40 759 15T695 -10ZM421 -10Q382 -10 357 15T331 79Q331 117 356 142T421 167Q459 167 485 142T511 79Q511 40 485 15T421 -10ZM146 -10Q107 -10 82 15T56 79Q56 117 81 142T146 167Q184 167 210 142T236 79Q236 40 210 15T146 -10Z"/><glyph unicode="‹" horiz-adv-x="380" d="M240 0L38 271L239 537L334 468L176 271L333 70L240 0Z"/><glyph unicode="›" horiz-adv-x="380" d="M47 70L204 271L46 468L141 537L342 271L140 0L47 70Z"/><glyph unicode="⁄" horiz-adv-x="655" d="M578 700H669L78 0H-14L578 700Z"/><glyph unicode="€" horiz-adv-x="634" d="M398 -10Q346 -10 301 6T221 54T160 130T121 233H38V309H110Q109 320 109 330T109 351Q109 362 109 371T110 391H38V468H121Q147 584 219 648T398 712Q474 712 524 683T609 606L522 526Q501 555 472 572T408 590Q360 590 323 560T267 463H454V391H255Q254 381 254 372T254 351Q254 340 254 330T256 309H414V237H268Q286 172 323 142T408 112Q443 112 472 130T522 176L609 96Q576 49 525 20T398 -10Z"/><glyph unicode="™" horiz-adv-x="886" d="M162 620H32V700H387V620H257V330H162V620ZM440 700H532L637 566L742 700H835V330H743V563L639 434L533 564V330H440V700Z"/><glyph unicode="−" horiz-adv-x="614" d="M38 329H576V210H38V329Z"/><glyph unicode="ﬀ" horiz-adv-x="757" d="M447 553Q447 573 449 590T455 623Q404 651 343 651Q292 651 270 627T247 555V527H447V553ZM100 0V429H16V528H100V552Q100 659 158 707T322 756Q377 756 421 744T503 711Q533 739 574 751T666 764Q697 764 729 758T788 741L754 643Q737 648 719 651T678 655Q594 655 594 562V527H729V429H594V0H447V429H247V0H100Z"/><glyph unicode="ﬁ" horiz-adv-x="662" d="M100 429H16V528H100V554Q100 665 160 714T344 764Q405 764 469 748T582 702L530 608Q495 628 449 641T359 655Q299 655 273 632T247 551V527H381V429H247V0H100V429ZM453 528H601V0H453V528Z"/><glyph unicode="ﬂ" horiz-adv-x="673" d="M100 429H16V528H100V555Q100 662 167 713T358 764Q483 764 547 713T611 550V0H463V551Q463 605 438 630T355 655Q298 655 273 630T247 552V527H382V429H247V0H100V429Z"/><glyph unicode="ﬃ" horiz-adv-x="1010" d="M447 554Q447 595 454 623Q403 651 343 651Q292 651 270 627T247 555V527H447V554ZM801 528H948V0H801V528ZM100 0V429H16V528H100V552Q100 659 158 707T322 756Q378 756 421 744T504 711Q563 764 691 764Q753 764 816 748T929 702L877 608Q843 628 797 641T706 655Q646 655 620 632T594 551V527H728V429H594V0H447V429H247V0H100Z"/><glyph unicode="ﬄ" horiz-adv-x="1020" d="M447 555Q447 574 449 590T455 623Q404 651 343 651Q292 651 270 627T247 555V527H447V555ZM100 0V429H16V528H100V552Q100 659 158 707T322 756Q379 756 424 743T509 708Q574 764 705 764Q830 764 894 713T958 550V0H810V551Q810 605 785 630T702 655Q645 655 620 630T594 552V527H730V429H594V0H447V429H247V0H100Z"/></font>
</defs>
</svg>
