<?xml version="1.0" encoding="UTF-8"?><svg xmlns="http://www.w3.org/2000/svg" width="100%" height="100%"><defs><font id="web" horiz-adv-x="589"><!--



NOTICE: This font software is the valuable property 
of Webtype LLC, The Font Bureau, Webtype and/or its 
suppliers and its use by you is covered under the terms 
of the Web Font license agreement between you and Webtype 
LLC. You may ONLY use this font software with the licensed 
web site. Except as specifically permitted by the license, 
you may not copy this font software. If you have any 
questions, please contact Webtype.com. 

For more information, please visit http://www.webtype.com/store/license/?id=23

Licensed to: x

Serial number: SH-1450
--><font-face font-family="" units-per-em="1000" panose-1="2 0 0 0 0 0 0 0 0 0" ascent="902" descent="-223" alphabetic="0"/><missing-glyph horiz-adv-x="500" d="M50 755H450V-245H50V755ZM400 -195V705H100V-195H400Z"/><glyph unicode=" " horiz-adv-x="250"/><glyph unicode="!" horiz-adv-x="257" d="M171 579Q171 540 169 498T164 410L149 206H106L91 410Q88 456 86 498T84 579V700H171V579ZM130 -5Q105 -5 89 11T73 52Q73 75 89 91T130 107Q153 107 169 91T185 52Q185 27 169 11T130 -5Z"/><glyph unicode="&quot;" horiz-adv-x="396" d="M60 700H153L134 471H80L60 700ZM242 700H335L316 471H262L242 700Z"/><glyph unicode="#" horiz-adv-x="686" d="M436 450H285L252 253H403L436 450ZM393 189H242L210 0H142L173 189H40V253H184L216 450H78V515H227L257 700H327L296 515H447L478 700H547L516 515H646V450H506L473 253H607V189H462L431 0H361L393 189Z"/><glyph unicode="$" horiz-adv-x="620" d="M159 515Q159 487 170 468T200 436T244 413T297 397V628Q231 624 195 593T159 515ZM480 188Q480 215 470 233T441 265T399 288T348 305V73Q415 78 447 109T480 188ZM296 -113V1Q227 4 168 24T68 70L108 135Q144 111 193 94T297 73V318Q257 328 218 341T147 375T97 430T78 514Q78 551 93 584T136 642T204 682T296 700V784H349V699Q403 694 449 680T535 648L503 581Q471 598 432 610T348 626V384Q387 375 425 362T494 328T543 273T562 189Q562 114 509 62T349 1V-113H296Z"/><glyph unicode="%" horiz-adv-x="620" d="M161 389Q131 389 105 400T58 432T26 483T14 550Q14 587 25 617T57 668T104 700T161 711Q191 711 217 700T263 668T294 617T306 550Q306 513 295 483T264 432T218 400T161 389ZM41 0L512 700H576L104 0H41ZM161 444Q196 444 218 471T240 550Q240 601 218 629T161 658Q125 658 103 630T81 550Q81 499 103 472T161 444ZM461 -12Q431 -12 405 -1T358 31T326 82T314 149Q314 186 325 216T357 267T404 299T461 310Q491 310 517 299T563 267T594 216T606 149Q606 112 595 82T564 31T518 -1T461 -12ZM461 42Q496 42 517 70T539 149Q539 199 518 227T461 256Q425 256 403 228T380 149Q380 98 402 70T461 42Z"/><glyph unicode="&amp;" horiz-adv-x="735" d="M289 58Q346 58 395 79T482 138Q416 189 352 244T230 361Q182 334 151 294T120 200Q120 171 131 146T163 101T215 70T289 58ZM674 -4Q640 20 607 44T539 94Q491 45 426 17T285 -12Q226 -12 181 5T104 51T58 117T42 194Q42 230 53 261T85 320T131 369T189 408Q165 440 151 474T137 544Q137 578 150 608T188 662T247 698T324 712Q382 712 426 689T500 631L447 586Q424 612 392 629T322 646Q298 646 279 638T246 615T225 583T217 545Q217 512 235 479T282 413Q338 354 399 301T528 196Q548 231 559 271T571 355H645Q645 300 630 249T585 153Q618 129 651 105T720 56L674 -4Z"/><glyph unicode="'" horiz-adv-x="214" d="M60 700H153L134 471H80L60 700Z"/><glyph unicode="(" horiz-adv-x="380" d="M244 -200Q207 -158 174 -107T116 3T76 130T61 277Q61 355 76 424T116 552T174 662T243 755H337Q300 718 265 669T203 560T158 429T141 277Q141 196 158 126T202 -5T265 -114T337 -200H244Z"/><glyph unicode=")" horiz-adv-x="380" d="M319 277Q319 199 304 131T264 3T206 -107T136 -200H43Q80 -163 115 -114T177 -5T222 125T239 277Q239 358 222 429T178 560T115 669T43 755H137Q173 713 206 663T264 553T304 424T319 277Z"/><glyph unicode="*" horiz-adv-x="422" d="M129 406L184 533L182 534L47 518L48 587L183 574L184 576L131 699L191 716L223 587L225 586L327 671L365 619L249 554V551L365 482L325 431L225 519L223 518L188 386L129 406Z"/><glyph unicode="+" horiz-adv-x="614" d="M268 224H47V295H268V520H346V295H567V224H346V0H268V224Z"/><glyph unicode="," horiz-adv-x="206" d="M25 -115Q38 -86 47 -53T60 13T64 73T60 121H158Q158 57 135 -12T68 -136L25 -115Z"/><glyph unicode="-" horiz-adv-x="379" d="M44 298H336V225H44V298Z"/><glyph unicode="." horiz-adv-x="234" d="M118 -6Q90 -6 72 11T54 58Q54 84 72 102T118 121Q144 121 162 103T180 58Q180 29 162 12T118 -6Z"/><glyph unicode="/" horiz-adv-x="504" d="M433 755H515L72 -200H-11L433 755Z"/><glyph unicode="0" horiz-adv-x="620" d="M310 -12Q244 -12 193 14T107 89T54 204T35 351Q35 431 53 497T106 611T193 685T310 712Q376 712 427 686T514 612T567 498T586 351Q586 271 568 204T514 89T428 15T310 -12ZM310 59Q357 59 393 80T453 139T490 231T503 351Q503 416 491 469T454 561T393 620T310 641Q263 641 228 620T168 561T132 470T119 351Q119 285 131 232T168 140T227 80T310 59Z"/><glyph unicode="1" horiz-adv-x="492" d="M261 0V614L82 533L49 595L278 700H344V0H261Z"/><glyph unicode="2" horiz-adv-x="620" d="M93 43Q91 107 106 153T148 234T209 291T279 333T349 369T411 406T454 452T471 515Q471 541 462 564T434 604T387 631T321 641Q267 641 221 618T139 559L87 611Q130 654 192 683T323 712Q379 712 422 697T494 654T537 591T552 515Q552 451 524 411T454 343T362 293T270 243T199 175T171 70H550V0H94L93 43Z"/><glyph unicode="3" horiz-adv-x="620" d="M94 102Q129 84 178 71T276 57Q320 57 357 67T422 96T464 143T479 207Q479 240 466 263T429 301T376 323T311 330H215V397H304Q335 397 362 405T409 428T440 468T452 525Q452 550 442 572T411 610T361 635T294 644Q246 644 199 623T116 566L71 621Q116 661 173 687T299 713Q352 713 395 700T470 662T518 604T535 530Q535 470 503 429T415 370Q484 353 523 311T563 203Q563 151 541 111T479 44T388 2T276 -12Q218 -12 161 2T62 37L94 102Z"/><glyph unicode="4" horiz-adv-x="620" d="M61 219L406 700H497V219H586V152H497V0H416V152H82L61 219ZM416 219V603L146 219H416Z"/><glyph unicode="5" horiz-adv-x="620" d="M96 102Q131 82 175 70T270 58Q312 58 348 69T409 102T449 155T464 224Q464 257 452 285T417 332T363 363T292 374Q263 374 227 366T152 344L102 375L115 700H516V633H189L181 417Q212 428 247 434T318 441Q368 441 410 426T483 382T531 314T548 225Q548 169 527 125T467 50T378 3T268 -13Q206 -13 156 0T64 37L96 102Z"/><glyph unicode="6" horiz-adv-x="620" d="M62 328Q62 432 88 505T156 624T253 691T365 712Q413 712 456 702T537 674L504 613Q475 626 441 634T365 643Q323 643 285 627T217 577T168 489T145 362Q183 397 235 419T347 442Q396 442 437 427T509 382T556 312T573 220Q573 174 557 132T509 58T432 7T329 -12Q258 -12 207 15T124 88T77 197T62 328ZM146 288Q149 238 161 196T196 122T252 74T331 56Q369 56 399 69T449 105T481 157T492 219Q492 254 480 283T447 332T397 364T334 376Q278 376 227 351T146 288Z"/><glyph unicode="7" horiz-adv-x="620" d="M473 630H66V700H562V641L263 0H173L473 630Z"/><glyph unicode="8" horiz-adv-x="620" d="M43 182Q43 218 56 248T92 301T145 339T210 364Q152 382 114 422T75 524Q75 567 93 602T142 661T217 699T310 712Q361 712 404 699T478 662T528 602T546 524Q546 462 508 422T411 364Q445 355 475 340T528 301T564 248T577 182Q577 136 557 100T502 39T417 1T310 -12Q252 -12 203 1T119 39T63 100T43 182ZM310 396Q379 403 422 436T466 524Q466 551 454 573T421 612T372 637T310 646Q277 646 249 637T199 612T166 574T154 524Q154 469 197 436T310 396ZM124 185Q124 154 138 130T177 89T236 63T310 54Q350 54 384 63T444 89T483 130T497 185Q497 216 482 241T441 284T381 313T310 328Q273 324 240 313T181 284T140 241T124 185Z"/><glyph unicode="9" horiz-adv-x="620" d="M476 412Q473 462 461 504T426 578T370 626T291 644Q253 644 223 631T173 595T141 543T130 481Q130 446 141 417T174 368T224 336T288 324Q344 324 395 349T476 412ZM560 372Q560 268 534 195T463 76T363 9T247 -12Q199 -12 157 -2T76 26L108 87Q137 74 171 66T247 57Q292 57 332 73T403 123T453 211T477 338Q439 303 387 281T275 258Q226 258 185 273T113 318T66 388T49 480Q49 526 65 568T113 642T190 693T293 712Q364 712 414 685T497 612T545 503T560 372Z"/><glyph unicode=":" horiz-adv-x="234" d="M54 456Q54 485 72 502T118 520Q144 520 162 503T180 456Q180 430 162 412T118 393Q90 393 72 411T54 456ZM118 -6Q90 -6 72 11T54 58Q54 84 72 102T118 121Q144 121 162 103T180 58Q180 29 162 12T118 -6Z"/><glyph unicode=";" horiz-adv-x="224" d="M56 462Q56 491 74 508T120 526Q146 526 164 509T182 462Q182 436 164 418T120 399Q92 399 74 417T56 462ZM27 -115Q40 -86 49 -53T62 13T66 73T62 121H160Q160 57 137 -12T70 -136L27 -115Z"/><glyph unicode="&lt;" horiz-adv-x="631" d="M570 0L41 222V297L570 520V435L136 261L570 83V0Z"/><glyph unicode="=" horiz-adv-x="614" d="M47 416H567V345H47V416ZM47 174H567V103H47V174Z"/><glyph unicode="&gt;" horiz-adv-x="631" d="M61 83L495 261L61 435V520L590 297V222L61 0V83Z"/><glyph unicode="?" horiz-adv-x="524" d="M195 206Q194 211 194 219T193 236Q193 279 207 308T244 358T291 395T339 430T375 471T390 529Q390 579 352 610T251 642Q203 642 164 622T92 570L40 618Q81 661 133 686T252 712Q302 712 342 699T412 663T457 606T473 533Q473 488 458 457T419 403T367 362T315 325T273 281T254 221L253 206H195ZM225 -5Q200 -5 184 11T168 52Q168 75 184 91T225 107Q248 107 264 91T280 52Q280 27 264 11T225 -5Z"/><glyph unicode="@" horiz-adv-x="873" d="M462 -115Q382 -115 311 -89T187 -12T102 109T70 270Q70 352 100 423T181 547T303 630T453 660Q531 660 595 635T705 564T777 457T803 320Q803 259 786 213T741 134T678 86T606 69Q559 69 532 91T499 146Q477 117 446 100T377 82Q350 82 327 91T286 119T258 163T248 223Q248 266 261 312T300 396T366 458T456 483Q491 483 518 470T560 438L573 473H641L564 206Q553 168 563 142T613 116Q640 116 665 129T711 169T743 234T755 320Q755 384 733 438T672 532T576 593T453 615Q384 615 324 588T218 515T147 405T121 270Q121 191 148 129T223 23T332 -44T463 -67Q512 -67 556 -54T640 -17L666 -57Q577 -115 462 -115ZM389 135Q425 135 454 161T498 240L541 393Q528 408 508 418T461 429Q414 429 384 393T336 298Q330 278 327 257T323 216Q323 180 340 158T389 135Z"/><glyph unicode="A" horiz-adv-x="691" d="M209 241H481L346 614H344L209 241ZM506 173H185L122 0H30L295 700H396L660 0H569L506 173Z"/><glyph unicode="B" horiz-adv-x="674" d="M84 700H359Q418 700 461 686T533 647T576 589T590 518Q590 458 558 419T475 362Q539 345 578 304T618 196Q618 102 555 51T380 0H84V700ZM355 390Q394 390 422 399T468 425T495 464T504 512Q504 561 468 595T355 629H168V390H355ZM379 71Q452 71 492 103T532 201Q532 260 489 291T379 322H168V71H379Z"/><glyph unicode="C" horiz-adv-x="710" d="M406 -12Q327 -12 263 15T152 90T81 207T55 357Q55 436 81 501T153 613T265 686T408 712Q473 712 532 693T640 636L594 575Q553 606 507 622T409 639Q349 639 300 619T215 562T161 473T141 357Q141 291 160 237T214 143T298 83T409 61Q466 61 515 80T603 137L656 82Q606 34 543 11T406 -12Z"/><glyph unicode="D" horiz-adv-x="713" d="M84 700H286Q377 700 447 676T564 608T635 499T660 354Q660 271 637 206T568 94T451 24T286 0H84V700ZM291 71Q362 71 415 90T503 147T556 236T574 354Q574 417 556 468T501 555T413 610T291 629H168V71H291Z"/><glyph unicode="E" horiz-adv-x="635" d="M84 700H564V625H168V392H525V321H168V75H570V0H84V700Z"/><glyph unicode="F" horiz-adv-x="618" d="M84 700H556V625H168V386H509V314H168V0H84V700Z"/><glyph unicode="G" horiz-adv-x="727" d="M408 -12Q327 -12 262 14T150 89T80 206T55 357Q55 435 80 500T151 612T263 686T408 712Q475 712 533 694T643 643L599 582Q557 609 510 624T410 639Q350 639 301 619T216 561T161 472T142 357Q142 289 160 235T212 142T297 82T410 61Q458 61 500 72T573 102V294H378V368H652V59Q603 25 540 7T408 -12Z"/><glyph unicode="H" horiz-adv-x="707" d="M84 700H168V394H539V700H623V0H539V319H168V0H84V700Z"/><glyph unicode="I" horiz-adv-x="251" d="M84 700H168V0H84V700Z"/><glyph unicode="J" horiz-adv-x="571" d="M267 -12Q226 -12 192 -1T130 29T83 75T48 133L116 172Q135 127 170 95T263 63Q336 63 371 109T406 231V700H490V230Q490 117 434 53T267 -12Z"/><glyph unicode="K" horiz-adv-x="670" d="M168 0H84V700H168V308L508 700H606L378 439L633 0H535L323 375L168 198V0Z"/><glyph unicode="L" horiz-adv-x="605" d="M84 700H168V75H561V0H84V700Z"/><glyph unicode="M" horiz-adv-x="850" d="M84 700H175L426 338L676 700H767V0H687V574L425 206L164 575V0H84V700Z"/><glyph unicode="N" horiz-adv-x="725" d="M84 700H169L560 130V700H641V0H554L165 569V0H84V700Z"/><glyph unicode="O" horiz-adv-x="810" d="M405 -12Q333 -12 270 13T160 87T86 203T59 355Q59 436 86 502T160 614T270 686T405 712Q476 712 539 687T649 615T723 502T751 355Q751 271 724 203T650 87T540 14T405 -12ZM405 61Q458 61 505 81T588 138T644 231T665 355Q665 420 645 472T589 562T506 619T405 639Q352 639 305 619T222 562T166 473T145 355Q145 286 165 231T221 139T304 81T405 61Z"/><glyph unicode="P" horiz-adv-x="661" d="M84 700H362Q429 700 475 682T550 635T591 568T604 491Q604 453 591 416T550 348T475 299T361 280H168V0H84V700ZM360 350Q403 350 433 362T483 394T511 439T520 490Q520 517 512 542T484 586T435 617T362 629H168V350H360Z"/><glyph unicode="Q" horiz-adv-x="815" d="M625 64Q580 27 524 8T405 -12Q333 -12 270 13T160 87T86 203T59 355Q59 436 86 502T160 614T270 686T405 712Q476 712 539 687T649 615T723 502T751 355Q751 281 731 221T673 113L764 35L716 -16L625 64ZM405 61Q450 61 491 75T565 117L438 227L484 278L611 166Q637 203 651 250T665 355Q665 420 645 472T589 562T506 619T405 639Q352 639 305 619T222 562T166 473T145 355Q145 286 165 231T221 139T304 81T405 61Z"/><glyph unicode="R" horiz-adv-x="683" d="M375 354Q417 354 447 365T496 396T524 439T533 490Q533 517 525 542T497 586T448 617T376 629H168V354H375ZM168 0H84V700H377Q444 700 490 682T564 635T605 568T618 491Q618 459 609 429T582 372T536 326T470 294L618 0H525L389 282H168V0Z"/><glyph unicode="S" horiz-adv-x="616" d="M310 -12Q233 -12 165 9T52 60L94 127Q136 100 191 82T310 63Q394 63 434 96T475 183Q475 218 458 240T411 277T345 302T270 322T194 345T128 381T82 436T64 520Q64 560 80 595T127 656T202 697T304 712Q374 712 431 697T536 659L503 590Q462 610 413 623T307 637Q233 637 193 604T152 521Q152 486 169 464T216 427T282 403T357 383T432 360T498 324T544 268T562 183Q562 142 547 107T500 45T421 3T310 -12Z"/><glyph unicode="T" horiz-adv-x="651" d="M283 625H30V700H622V625H367V0H283V625Z"/><glyph unicode="U" horiz-adv-x="716" d="M358 -12Q299 -12 249 5T161 56T103 140T81 259V700H165V259Q165 211 180 174T221 112T283 74T358 61Q398 61 433 74T494 112T536 174T551 259V700H635V259Q635 191 614 141T555 56T467 5T358 -12Z"/><glyph unicode="V" horiz-adv-x="683" d="M31 700H124L340 94H342L559 700H652L390 0H291L31 700Z"/><glyph unicode="W" horiz-adv-x="1014" d="M32 700H122L297 123H299L466 700H549L716 123H718L893 700H982L762 0H672L508 564H506L341 0H251L32 700Z"/><glyph unicode="X" horiz-adv-x="690" d="M293 357L51 700H153L347 420L539 700H640L397 357L651 0H548L345 295L142 0H39L293 357Z"/><glyph unicode="Y" horiz-adv-x="668" d="M292 285L28 700H128L334 366H336L541 700H640L376 285V0H292V285Z"/><glyph unicode="Z" horiz-adv-x="637" d="M59 70L474 625H60V700H576V631L163 76H586V0H59V70Z"/><glyph unicode="[" horiz-adv-x="387" d="M322 -200H84V755H322V693H167V-138H322V-200Z"/><glyph unicode="\" horiz-adv-x="504" d="M515 -200H432L-11 755H71L515 -200Z"/><glyph unicode="]" horiz-adv-x="387" d="M65 -138H220V693H65V755H303V-200H65V-138Z"/><glyph unicode="_" horiz-adv-x="550" d="M0 -13H550V-85H0V-13Z"/><glyph unicode="`" horiz-adv-x="633" d="M219 706L277 750L416 580H360L219 706Z"/><glyph unicode="a" horiz-adv-x="529" d="M219 51Q267 51 303 71T361 118V244Q322 242 281 237T207 218T152 183T130 126Q130 91 154 71T219 51ZM201 -12Q132 -12 91 25T49 122Q49 171 73 204T139 258T238 289T361 302V373Q361 412 338 437T260 462Q219 462 177 448T96 415L64 480Q106 500 158 515T262 531Q310 531 344 519T400 486T432 436T443 372V111Q443 83 457 71T495 59V-1Q441 -1 413 14T371 62Q341 29 299 9T201 -12Z"/><glyph unicode="b" horiz-adv-x="590" d="M327 -12Q274 -12 233 10T159 69L152 0H81V755H163V452Q195 486 236 508T327 531Q374 531 413 514T479 462T522 380T538 268Q538 134 482 61T327 -12ZM310 54Q382 54 418 111T455 267Q455 361 417 412T310 464Q265 464 230 443T163 387V131Q195 93 231 74T310 54Z"/><glyph unicode="c" horiz-adv-x="516" d="M297 -12Q242 -12 197 7T119 62T68 149T50 265Q50 326 68 375T119 459T197 512T297 531Q349 531 391 516T465 475L422 419Q400 435 370 448T299 461Q263 461 233 448T180 409T146 347T133 265Q133 217 145 178T178 112T230 71T299 56Q342 56 372 69T429 106L476 56Q438 22 396 5T297 -12Z"/><glyph unicode="d" d="M280 54Q323 54 359 73T427 131V387Q395 422 360 443T280 464Q211 464 172 413T133 267Q133 168 170 111T280 54ZM261 -12Q163 -12 107 61T51 268Q51 331 66 379T109 462T175 513T262 531Q313 531 354 509T427 452V755H509V0H438L430 69Q397 33 356 11T261 -12Z"/><glyph unicode="e" horiz-adv-x="566" d="M493 49Q454 20 405 4T301 -13Q242 -13 196 6T117 61T68 148T51 263Q51 323 70 373T122 458T200 512T299 532Q354 532 394 515T460 466T499 392T512 300Q512 289 511 276T508 251H133Q136 157 178 106T305 55Q347 55 386 69T457 104L493 49ZM301 468Q238 468 194 427T137 312H431Q431 344 425 372T403 422T362 455T301 468Z"/><glyph unicode="f" horiz-adv-x="379" d="M115 452H23V515H115V560Q115 616 130 654T171 716T233 750T314 761Q336 761 358 757T397 747L376 687Q365 690 349 693T316 696Q259 696 228 665T197 561V515H341V452H197V0H115V452Z"/><glyph unicode="g" horiz-adv-x="574" d="M265 210Q293 210 317 220T360 247T388 289T399 342Q399 370 389 393T360 434T318 461T265 471Q236 471 212 462T169 435T141 394T130 342Q130 313 140 289T169 248T211 220T265 210ZM535 -68Q535 -135 472 -172T281 -210Q161 -210 97 -175T32 -73Q32 -35 55 -6T119 40Q78 69 78 112Q78 138 90 159T123 195Q90 220 71 257T51 342Q51 384 67 419T111 478T179 517T265 531Q349 531 406 488Q433 509 465 521T547 532V469Q513 469 489 465T443 452Q479 405 479 342Q479 298 462 263T416 202T347 164T265 150Q241 150 218 154T174 166Q147 150 147 125Q147 111 155 102T183 87T233 77T308 70Q358 67 400 58T472 33T518 -7T535 -68ZM277 -150Q365 -150 410 -132T456 -75Q456 -35 413 -21T291 -2Q259 0 232 3T182 13Q150 2 130 -19T109 -70Q109 -110 151 -130T277 -150Z"/><glyph unicode="h" horiz-adv-x="579" d="M81 755H163V448Q196 483 240 507T340 532Q384 532 415 519T465 483T494 426T503 352V0H422V353Q422 404 400 434T322 465Q274 465 235 443T163 383V0H81V755Z"/><glyph unicode="i" horiz-adv-x="244" d="M122 628Q98 628 83 643T68 682Q68 706 83 720T122 735Q145 735 160 721T175 682Q175 658 160 643T122 628ZM81 519H163V0H81V519Z"/><glyph unicode="j" horiz-adv-x="253" d="M131 628Q107 628 92 643T77 682Q77 706 92 720T131 735Q154 735 169 721T184 682Q184 658 169 643T131 628ZM15 -210Q-6 -210 -23 -207T-52 -199L-36 -135Q-26 -138 -15 -140T7 -142Q45 -142 67 -117T90 -28V519H171V-25Q171 -75 160 -110T129 -167T79 -200T15 -210Z"/><glyph unicode="k" horiz-adv-x="535" d="M163 0H81V755H163V252L397 519H490L332 344L514 0H420L278 285L163 157V0Z"/><glyph unicode="l" horiz-adv-x="245" d="M81 755H163V0H81V755Z"/><glyph unicode="m" horiz-adv-x="891" d="M159 0H77V519H153L158 452Q191 486 235 509T330 532Q387 532 421 509T472 446Q510 484 556 508T657 532Q698 532 728 519T777 483T806 426T815 353V0H733V355Q733 406 712 435T639 465Q596 465 557 445T487 388Q488 379 488 370T489 349V0H406V355Q406 406 385 435T312 465Q267 465 228 444T159 385V0Z"/><glyph unicode="n" horiz-adv-x="575" d="M77 519H153L158 449Q191 484 236 508T337 532Q381 532 412 519T462 483T491 426T500 352V0H418V353Q418 404 396 434T319 465Q271 465 231 443T159 382V0H77V519Z"/><glyph unicode="o" horiz-adv-x="600" d="M301 -12Q245 -12 199 7T120 63T69 150T51 266Q51 326 70 375T122 458T201 512T301 531Q355 531 400 512T479 459T530 375T549 266Q549 202 531 151T481 63T402 8T301 -12ZM301 53Q338 53 368 68T421 111T454 178T466 266Q466 311 454 347T420 410T368 450T301 464Q265 464 234 450T181 410T147 348T134 266Q134 218 145 179T179 111T231 68T301 53Z"/><glyph unicode="p" horiz-adv-x="588" d="M309 54Q380 54 417 111T454 267Q454 361 416 412T308 464Q264 464 229 443T161 387V131Q226 54 309 54ZM80 519H152L159 450Q191 485 233 508T326 531Q373 531 412 514T478 462T521 380T536 268Q536 134 481 61T327 -12Q275 -12 234 10T161 67V-200H80V519Z"/><glyph unicode="q" d="M427 67Q395 32 354 10T261 -12Q163 -12 107 61T51 268Q51 331 66 379T109 462T175 513T262 531Q313 531 354 508T428 450L436 519H509V-200H427V67ZM280 54Q323 54 359 73T427 131V387Q395 422 360 443T280 464Q211 464 172 413T133 267Q133 168 170 111T280 54Z"/><glyph unicode="r" horiz-adv-x="403" d="M77 519H151L158 431Q217 532 316 532Q336 532 352 530T382 522L366 445Q338 456 306 456Q260 456 224 430T159 350V0H77V519Z"/><glyph unicode="s" horiz-adv-x="474" d="M238 -12Q180 -12 130 2T39 42L76 101Q108 81 149 68T238 54Q292 54 322 75T352 135Q352 167 330 184T274 213T201 233T128 258T72 303T49 381Q49 416 63 443T102 490T161 520T236 531Q280 531 325 521T412 490L380 428Q348 444 310 454T236 464Q188 464 159 443T130 384Q130 352 152 335T208 308T281 288T353 263T409 218T432 139Q432 67 381 28T238 -12Z"/><glyph unicode="t" horiz-adv-x="390" d="M256 -12Q182 -12 148 25T114 138V455H23V519H114V671H196V519H345V455H196V139Q196 98 211 77T265 55Q306 55 342 80L373 27Q350 10 319 -1T256 -12Z"/><glyph unicode="u" horiz-adv-x="576" d="M240 -12Q196 -12 165 1T113 37T84 94T75 168V519H157V166Q157 115 178 84T257 53Q305 53 345 75T417 137V519H499V0H425L418 70Q385 36 340 12T240 -12Z"/><glyph unicode="v" horiz-adv-x="504" d="M22 519H107L253 90H255L400 519H482L297 0H206L22 519Z"/><glyph unicode="w" horiz-adv-x="814" d="M22 519H106L244 102H246L371 519H444L571 102H573L709 519H791L615 0H533L408 404H406L281 0H199L22 519Z"/><glyph unicode="x" horiz-adv-x="513" d="M206 262L37 519H127L257 318L386 519H475L307 262L482 0H393L256 206L118 0H30L206 262Z"/><glyph unicode="y" horiz-adv-x="507" d="M106 -210Q82 -210 59 -206T16 -193L40 -127Q55 -133 71 -137T103 -142Q132 -142 151 -129T184 -80L216 3L23 519H108L256 108H258L401 519H484L265 -86Q251 -122 234 -146T198 -184T155 -204T106 -210Z"/><glyph unicode="z" horiz-adv-x="501" d="M50 57L345 452H58V519H447V460L154 66H458V0H50V57Z"/><glyph unicode="{" horiz-adv-x="455" d="M394 -200H334Q167 -200 167 -51V145Q167 192 148 213T80 235H34V310H80Q128 310 147 331T167 401V606Q167 755 334 755H394V694H338Q289 694 269 674T249 605V405Q249 297 161 274V273Q249 247 249 140V-50Q249 -98 269 -118T338 -139H394V-200Z"/><glyph unicode="|" horiz-adv-x="285" d="M104 755H182V-200H104V755Z"/><glyph unicode="}" horiz-adv-x="455" d="M61 -139H117Q166 -139 186 -119T206 -50V140Q206 247 294 273V274Q206 297 206 405V605Q206 653 186 673T117 694H61V755H121Q288 755 288 606V401Q288 353 307 332T375 310H421V235H375Q327 235 308 214T288 145V-51Q288 -200 121 -200H61V-139Z"/><glyph unicode="¡" horiz-adv-x="256" d="M171 -56Q171 -17 169 25T164 113L149 317H106L91 113Q88 67 86 25T84 -56V-177H171V-56ZM130 528Q105 528 89 512T73 471Q73 448 89 432T130 416Q153 416 169 432T185 471Q185 496 169 512T130 528Z"/><glyph unicode="§" horiz-adv-x="620" d="M320 269Q353 264 384 260T444 246Q460 260 470 279T481 320Q481 351 466 370T426 402T369 419T302 430Q269 435 238 439T178 453Q162 439 152 420T141 379Q141 347 156 328T196 297T253 279T320 269ZM316 -13Q249 -13 190 4T82 47L119 108Q137 97 160 87T209 70T263 57T318 52Q387 52 426 73T466 131Q466 151 455 163T424 182T375 194T309 203Q268 208 226 217T150 244T93 292T71 370Q71 402 87 430T126 478Q106 492 95 512T84 563Q84 629 140 670T306 712Q373 712 432 695T540 652L503 591Q485 601 462 611T413 629T359 642T304 647Q235 647 196 626T156 568Q156 548 166 536T197 517T247 505T313 496Q354 491 396 482T472 455T529 407T551 329Q551 297 535 269T496 221Q516 207 527 187T538 136Q538 70 482 29T316 -13Z"/><glyph unicode="¨" horiz-adv-x="643" d="M224 607Q206 607 193 620T180 653Q180 672 193 685T224 698Q244 698 257 685T271 653Q271 633 258 620T224 607ZM417 607Q398 607 385 620T372 653Q372 672 385 685T417 698Q437 698 450 685T463 653Q463 633 450 620T417 607Z"/><glyph unicode="©" horiz-adv-x="859" d="M429 -13Q354 -13 288 15T172 93T95 208T66 349Q66 424 94 490T172 606T287 683T429 712Q504 712 570 684T686 606T764 491T793 349Q793 274 765 208T687 93T571 16T429 -13ZM430 34Q496 34 553 59T654 126T723 226T748 349Q748 415 723 472T655 573T554 641T430 666Q364 666 307 641T206 573T138 473T113 349Q113 284 138 227T206 127T306 59T430 34ZM437 147Q391 147 354 161T289 202T247 266T232 349Q232 391 247 427T290 491T354 533T437 548Q472 548 508 538T575 504L539 457Q516 474 491 483T438 493Q408 493 382 482T337 452T307 407T296 349Q296 316 306 289T336 243T381 214T438 204Q467 204 494 213T543 243L583 203Q554 176 517 162T437 147Z"/><glyph unicode="«" horiz-adv-x="611" d="M249 0L49 261L249 520L307 475L134 261L307 44L249 0ZM496 0L296 261L496 520L554 475L381 261L554 44L496 0Z"/><glyph unicode="®" horiz-adv-x="574" d="M286 245Q234 245 188 264T108 317T55 396T35 494Q35 546 54 592T108 672T188 725T286 745Q338 745 384 726T464 673T518 593T538 495Q538 443 518 398T464 318T384 265T286 245ZM286 286Q329 286 367 302T434 347T479 413T496 494Q496 537 480 575T435 641T368 686T286 703Q242 703 205 687T139 642T94 575T78 494Q78 451 94 414T138 348T204 303T286 286ZM306 502Q335 502 346 514T358 541Q358 557 347 569T307 582H235V502H306ZM188 620H312Q363 620 384 596T405 541Q405 521 392 500T348 470L406 369H353L302 465H235V369H188V620Z"/><glyph unicode="°" horiz-adv-x="415" d="M208 394Q175 394 146 405T94 437T58 487T45 553Q45 587 58 616T93 667T145 701T207 713Q239 713 268 701T320 668T356 617T369 553Q369 517 356 488T321 438T270 406T208 394ZM208 447Q251 447 282 476T313 553Q313 576 305 595T282 629T249 651T208 659Q187 659 168 651T133 629T110 596T101 553Q101 530 109 511T133 477T167 455T208 447Z"/><glyph unicode="²" horiz-adv-x="336" d="M47 526Q44 567 57 594T92 639T140 670T189 695T227 721T243 759Q243 781 225 796T168 812Q141 812 117 800T75 769L37 804Q61 828 96 844T171 860Q236 860 268 830T301 757Q301 726 287 706T250 671T202 645T154 622T117 592T101 549H302V500H49L47 526Z"/><glyph unicode="³" horiz-adv-x="333" d="M153 493Q121 493 91 501T37 521L58 566Q78 556 102 549T152 541Q193 541 219 559T245 606Q245 634 224 647T168 661H116V707H165Q198 707 215 721T233 761Q233 783 215 797T163 812Q137 812 113 802T68 774L36 810Q61 832 94 846T164 860Q220 860 255 834T291 768Q291 737 277 718T236 688Q267 677 285 657T304 605Q304 578 292 557T260 522T212 501T153 493Z"/><glyph unicode="´" horiz-adv-x="633" d="M357 750L415 706L274 580H218L357 750Z"/><glyph unicode="·" horiz-adv-x="233" d="M118 196Q90 196 72 213T54 260Q54 286 72 304T118 323Q144 323 162 305T180 260Q180 231 162 214T118 196Z"/><glyph unicode="º" horiz-adv-x="423" d="M208 335Q130 335 85 385T39 525Q39 566 51 599T86 656T140 693T208 706Q245 706 276 693T330 657T364 600T377 525Q377 436 332 386T208 335ZM208 385Q259 385 288 423T317 524Q317 584 288 620T208 656Q158 656 129 620T99 524Q99 461 127 423T208 385Z"/><glyph unicode="»" horiz-adv-x="611" d="M57 44L230 261L57 475L115 520L315 261L115 0L57 44ZM306 44L479 261L306 475L364 520L564 261L364 0L306 44Z"/><glyph unicode="¿" horiz-adv-x="509" d="M332 317Q333 312 333 304T334 287Q334 244 320 215T283 165T236 128T188 93T152 52T137 -6Q137 -56 175 -87T276 -119Q324 -119 363 -99T435 -47L487 -95Q446 -138 394 -163T275 -189Q225 -189 185 -176T115 -140T70 -83T54 -10Q54 35 69 66T108 120T160 161T212 198T254 242T273 302L274 317H332ZM302 528Q327 528 343 512T359 471Q359 448 343 432T302 416Q279 416 263 432T247 471Q247 496 263 512T302 528Z"/><glyph unicode="À" horiz-adv-x="691" d="M209 241H481L346 614H344L209 241ZM506 173H185L122 0H30L295 700H396L660 0H569L506 173ZM468 843L532 889L645 755H582L468 843Z"/><glyph unicode="Á" horiz-adv-x="691" d="M209 241H481L346 614H344L209 241ZM506 173H185L122 0H30L295 700H396L660 0H569L506 173ZM417 889L482 843L367 755H305L417 889Z"/><glyph unicode="Â" horiz-adv-x="691" d="M209 241H481L346 614H344L209 241ZM506 173H185L122 0H30L295 700H396L660 0H569L506 173ZM306 870H387L513 755H455L347 823H346L237 755H179L306 870Z"/><glyph unicode="Ä" horiz-adv-x="691" d="M209 241H481L346 614H344L209 241ZM506 173H185L122 0H30L295 700H396L660 0H569L506 173ZM442 767Q423 767 410 780T397 813Q397 833 410 845T442 858Q462 858 475 846T488 813Q488 793 475 780T442 767ZM249 767Q231 767 218 780T205 813Q205 833 218 845T249 858Q269 858 282 846T296 813Q296 793 283 780T249 767Z"/><glyph unicode="È" horiz-adv-x="635" d="M84 700H564V625H168V392H525V321H168V75H570V0H84V700ZM449 843L513 889L626 755H563L449 843Z"/><glyph unicode="É" horiz-adv-x="635" d="M84 700H564V625H168V392H525V321H168V75H570V0H84V700ZM398 889L463 843L348 755H286L398 889Z"/><glyph unicode="Ê" horiz-adv-x="635" d="M84 700H564V625H168V392H525V321H168V75H570V0H84V700ZM287 870H368L494 755H436L328 823H327L218 755H160L287 870Z"/><glyph unicode="Ì" horiz-adv-x="251" d="M84 700H168V0H84V700ZM-7 843L57 889L170 755H107L-7 843Z"/><glyph unicode="Í" horiz-adv-x="251" d="M84 700H168V0H84V700ZM198 889L263 843L148 755H86L198 889Z"/><glyph unicode="Î" horiz-adv-x="251" d="M84 700H168V0H84V700ZM88 870H169L295 755H237L129 823H128L19 755H-39L88 870Z"/><glyph unicode="Ñ" horiz-adv-x="725" d="M84 700H169L560 130V700H641V0H554L165 569V0H84V700ZM213 760Q208 814 231 844T296 874Q319 874 336 864T368 842T396 820T424 811Q443 810 452 824T459 865H511Q518 811 494 781T428 751Q405 751 388 760T356 782T328 803T299 814Q281 813 272 800T265 760H213Z"/><glyph unicode="Ò" horiz-adv-x="810" d="M405 -12Q333 -12 270 13T160 87T86 203T59 355Q59 436 86 502T160 614T270 686T405 712Q476 712 539 687T649 615T723 502T751 355Q751 271 724 203T650 87T540 14T405 -12ZM405 61Q458 61 505 81T588 138T644 231T665 355Q665 420 645 472T589 562T506 619T405 639Q352 639 305 619T222 562T166 473T145 355Q145 286 165 231T221 139T304 81T405 61ZM271 843L335 889L448 755H385L271 843Z"/><glyph unicode="Ó" horiz-adv-x="810" d="M405 -12Q333 -12 270 13T160 87T86 203T59 355Q59 436 86 502T160 614T270 686T405 712Q476 712 539 687T649 615T723 502T751 355Q751 271 724 203T650 87T540 14T405 -12ZM405 61Q458 61 505 81T588 138T644 231T665 355Q665 420 645 472T589 562T506 619T405 639Q352 639 305 619T222 562T166 473T145 355Q145 286 165 231T221 139T304 81T405 61ZM476 889L541 843L426 755H364L476 889Z"/><glyph unicode="Ô" horiz-adv-x="810" d="M405 -12Q333 -12 270 13T160 87T86 203T59 355Q59 436 86 502T160 614T270 686T405 712Q476 712 539 687T649 615T723 502T751 355Q751 271 724 203T650 87T540 14T405 -12ZM405 61Q458 61 505 81T588 138T644 231T665 355Q665 420 645 472T589 562T506 619T405 639Q352 639 305 619T222 562T166 473T145 355Q145 286 165 231T221 139T304 81T405 61ZM365 870H446L572 755H514L406 823H405L296 755H238L365 870Z"/><glyph unicode="Ö" horiz-adv-x="810" d="M405 -12Q333 -12 270 13T160 87T86 203T59 355Q59 436 86 502T160 614T270 686T405 712Q476 712 539 687T649 615T723 502T751 355Q751 271 724 203T650 87T540 14T405 -12ZM405 61Q458 61 505 81T588 138T644 231T665 355Q665 420 645 472T589 562T506 619T405 639Q352 639 305 619T222 562T166 473T145 355Q145 286 165 231T221 139T304 81T405 61ZM501 767Q482 767 469 780T456 813Q456 833 469 845T501 858Q521 858 534 846T547 813Q547 793 534 780T501 767ZM308 767Q290 767 277 780T264 813Q264 833 277 845T308 858Q328 858 341 846T355 813Q355 793 342 780T308 767Z"/><glyph unicode="Ø" horiz-adv-x="809" d="M145 355Q145 289 163 237T214 147L554 592Q489 639 405 639Q352 639 305 619T222 562T166 473T145 355ZM405 61Q458 61 505 81T588 138T644 231T665 355Q665 418 646 468T594 556L255 109Q320 61 405 61ZM405 -12Q349 -12 300 3T208 47L144 -36L97 -1L163 84Q115 132 87 200T59 355Q59 436 86 502T160 614T270 686T405 712Q459 712 508 698T600 654L663 736L710 701L646 618Q695 570 723 504T751 355Q751 271 724 203T650 87T540 14T405 -12Z"/><glyph unicode="Ù" horiz-adv-x="716" d="M358 -12Q299 -12 249 5T161 56T103 140T81 259V700H165V259Q165 211 180 174T221 112T283 74T358 61Q398 61 433 74T494 112T536 174T551 259V700H635V259Q635 191 614 141T555 56T467 5T358 -12ZM480 843L544 889L657 755H594L480 843Z"/><glyph unicode="Ú" horiz-adv-x="716" d="M358 -12Q299 -12 249 5T161 56T103 140T81 259V700H165V259Q165 211 180 174T221 112T283 74T358 61Q398 61 433 74T494 112T536 174T551 259V700H635V259Q635 191 614 141T555 56T467 5T358 -12ZM429 889L494 843L379 755H317L429 889Z"/><glyph unicode="Û" horiz-adv-x="716" d="M358 -12Q299 -12 249 5T161 56T103 140T81 259V700H165V259Q165 211 180 174T221 112T283 74T358 61Q398 61 433 74T494 112T536 174T551 259V700H635V259Q635 191 614 141T555 56T467 5T358 -12ZM318 870H399L525 755H467L359 823H358L249 755H191L318 870Z"/><glyph unicode="Ü" horiz-adv-x="716" d="M358 -12Q299 -12 249 5T161 56T103 140T81 259V700H165V259Q165 211 180 174T221 112T283 74T358 61Q398 61 433 74T494 112T536 174T551 259V700H635V259Q635 191 614 141T555 56T467 5T358 -12ZM454 767Q435 767 422 780T409 813Q409 833 422 845T454 858Q474 858 487 846T500 813Q500 793 487 780T454 767ZM261 767Q243 767 230 780T217 813Q217 833 230 845T261 858Q281 858 294 846T308 813Q308 793 295 780T261 767Z"/><glyph unicode="ß" horiz-adv-x="615" d="M343 -10Q314 -10 288 -6T241 4L255 72Q271 67 292 63T335 59Q366 59 392 68T439 96T470 141T482 203Q482 272 436 311T312 350H271V420H298Q333 420 359 431T402 460T428 504T437 556Q437 622 399 659T297 697Q237 697 199 659T160 546V0H79V545Q79 597 96 637T142 705T211 747T297 762Q343 762 383 748T454 708T501 644T518 559Q518 499 485 455T397 391Q434 384 464 368T517 328T551 271T564 200Q564 149 547 110T499 45T429 4T343 -10Z"/><glyph unicode="à" horiz-adv-x="529" d="M219 51Q267 51 303 71T361 118V244Q322 242 281 237T207 218T152 183T130 126Q130 91 154 71T219 51ZM201 -12Q132 -12 91 25T49 122Q49 171 73 204T139 258T238 289T361 302V373Q361 412 338 437T260 462Q219 462 177 448T96 415L64 480Q106 500 158 515T262 531Q310 531 344 519T400 486T432 436T443 372V111Q443 83 457 71T495 59V-1Q441 -1 413 14T371 62Q341 29 299 9T201 -12ZM373 706L431 750L570 580H514L373 706Z"/><glyph unicode="á" horiz-adv-x="529" d="M219 51Q267 51 303 71T361 118V244Q322 242 281 237T207 218T152 183T130 126Q130 91 154 71T219 51ZM201 -12Q132 -12 91 25T49 122Q49 171 73 204T139 258T238 289T361 302V373Q361 412 338 437T260 462Q219 462 177 448T96 415L64 480Q106 500 158 515T262 531Q310 531 344 519T400 486T432 436T443 372V111Q443 83 457 71T495 59V-1Q441 -1 413 14T371 62Q341 29 299 9T201 -12ZM363 750L421 706L280 580H224L363 750Z"/><glyph unicode="â" horiz-adv-x="529" d="M219 51Q267 51 303 71T361 118V244Q322 242 281 237T207 218T152 183T130 126Q130 91 154 71T219 51ZM201 -12Q132 -12 91 25T49 122Q49 171 73 204T139 258T238 289T361 302V373Q361 412 338 437T260 462Q219 462 177 448T96 415L64 480Q106 500 158 515T262 531Q310 531 344 519T400 486T432 436T443 372V111Q443 83 457 71T495 59V-1Q441 -1 413 14T371 62Q341 29 299 9T201 -12ZM477 732H565L689 580H629L521 683H520L412 580H353L477 732Z"/><glyph unicode="ä" horiz-adv-x="529" d="M219 51Q267 51 303 71T361 118V244Q322 242 281 237T207 218T152 183T130 126Q130 91 154 71T219 51ZM201 -12Q132 -12 91 25T49 122Q49 171 73 204T139 258T238 289T361 302V373Q361 412 338 437T260 462Q219 462 177 448T96 415L64 480Q106 500 158 515T262 531Q310 531 344 519T400 486T432 436T443 372V111Q443 83 457 71T495 59V-1Q441 -1 413 14T371 62Q341 29 299 9T201 -12ZM424 607Q406 607 393 620T380 653Q380 672 393 685T424 698Q444 698 457 685T471 653Q471 633 458 620T424 607ZM617 607Q598 607 585 620T572 653Q572 672 585 685T617 698Q637 698 650 685T663 653Q663 633 650 620T617 607Z"/><glyph unicode="è" horiz-adv-x="566" d="M493 49Q454 20 405 4T301 -13Q242 -13 196 6T117 61T68 148T51 263Q51 323 70 373T122 458T200 512T299 532Q354 532 394 515T460 466T499 392T512 300Q512 289 511 276T508 251H133Q136 157 178 106T305 55Q347 55 386 69T457 104L493 49ZM301 468Q238 468 194 427T137 312H431Q431 344 425 372T403 422T362 455T301 468ZM404 706L462 750L601 580H545L404 706Z"/><glyph unicode="é" horiz-adv-x="566" d="M493 49Q454 20 405 4T301 -13Q242 -13 196 6T117 61T68 148T51 263Q51 323 70 373T122 458T200 512T299 532Q354 532 394 515T460 466T499 392T512 300Q512 289 511 276T508 251H133Q136 157 178 106T305 55Q347 55 386 69T457 104L493 49ZM301 468Q238 468 194 427T137 312H431Q431 344 425 372T403 422T362 455T301 468ZM388 750L446 706L305 580H249L388 750Z"/><glyph unicode="ê" horiz-adv-x="566" d="M493 49Q454 20 405 4T301 -13Q242 -13 196 6T117 61T68 148T51 263Q51 323 70 373T122 458T200 512T299 532Q354 532 394 515T460 466T499 392T512 300Q512 289 511 276T508 251H133Q136 157 178 106T305 55Q347 55 386 69T457 104L493 49ZM301 468Q238 468 194 427T137 312H431Q431 344 425 372T403 422T362 455T301 468ZM511 732H599L723 580H663L555 683H554L446 580H387L511 732Z"/><glyph unicode="ì" horiz-adv-x="244" d="M81 519H163V0H81V519ZM-28 706L30 750L169 580H113L-28 706Z"/><glyph unicode="í" horiz-adv-x="244" d="M81 519H163V0H81V519ZM215 750L273 706L132 580H76L215 750Z"/><glyph unicode="î" horiz-adv-x="244" d="M81 519H163V0H81V519ZM79 732H167L291 580H231L123 683H122L14 580H-45L79 732Z"/><glyph unicode="ñ" horiz-adv-x="575" d="M77 519H153L158 449Q191 484 236 508T337 532Q381 532 412 519T462 483T491 426T500 352V0H418V353Q418 404 396 434T319 465Q271 465 231 443T159 382V0H77V519ZM611 591Q588 591 571 600T540 622T512 644T483 654Q465 654 456 641T449 600H397Q391 654 414 684T480 714Q503 714 520 704T551 683T579 661T607 651Q626 651 635 665T641 705H693Q700 651 677 621T611 591Z"/><glyph unicode="ò" horiz-adv-x="600" d="M301 -12Q245 -12 199 7T120 63T69 150T51 266Q51 326 70 375T122 458T201 512T301 531Q355 531 400 512T479 459T530 375T549 266Q549 202 531 151T481 63T402 8T301 -12ZM301 53Q338 53 368 68T421 111T454 178T466 266Q466 311 454 347T420 410T368 450T301 464Q265 464 234 450T181 410T147 348T134 266Q134 218 145 179T179 111T231 68T301 53ZM407 706L465 750L604 580H548L407 706Z"/><glyph unicode="ó" horiz-adv-x="600" d="M301 -12Q245 -12 199 7T120 63T69 150T51 266Q51 326 70 375T122 458T201 512T301 531Q355 531 400 512T479 459T530 375T549 266Q549 202 531 151T481 63T402 8T301 -12ZM301 53Q338 53 368 68T421 111T454 178T466 266Q466 311 454 347T420 410T368 450T301 464Q265 464 234 450T181 410T147 348T134 266Q134 218 145 179T179 111T231 68T301 53ZM392 750L450 706L309 580H253L392 750Z"/><glyph unicode="ô" horiz-adv-x="600" d="M301 -12Q245 -12 199 7T120 63T69 150T51 266Q51 326 70 375T122 458T201 512T301 531Q355 531 400 512T479 459T530 375T549 266Q549 202 531 151T481 63T402 8T301 -12ZM301 53Q338 53 368 68T421 111T454 178T466 266Q466 311 454 347T420 410T368 450T301 464Q265 464 234 450T181 410T147 348T134 266Q134 218 145 179T179 111T231 68T301 53ZM514 732H602L726 580H666L558 683H557L449 580H390L514 732Z"/><glyph unicode="ö" horiz-adv-x="600" d="M301 -12Q245 -12 199 7T120 63T69 150T51 266Q51 326 70 375T122 458T201 512T301 531Q355 531 400 512T479 459T530 375T549 266Q549 202 531 151T481 63T402 8T301 -12ZM301 53Q338 53 368 68T421 111T454 178T466 266Q466 311 454 347T420 410T368 450T301 464Q265 464 234 450T181 410T147 348T134 266Q134 218 145 179T179 111T231 68T301 53ZM460 607Q442 607 429 620T416 653Q416 672 429 685T460 698Q480 698 493 685T507 653Q507 633 494 620T460 607ZM653 607Q634 607 621 620T608 653Q608 672 621 685T653 698Q673 698 686 685T699 653Q699 633 686 620T653 607Z"/><glyph unicode="ø" horiz-adv-x="601" d="M134 266Q134 183 168 127L398 430Q358 464 301 464Q265 464 234 450T181 410T147 348T134 266ZM301 53Q338 53 368 68T421 111T454 178T466 266Q466 304 457 336T431 394L198 90Q240 53 301 53ZM301 -12Q259 -12 223 -1T157 30L93 -52L48 -19L116 68Q84 103 68 153T51 266Q51 326 70 375T122 458T201 512T301 531Q342 531 377 521T442 490L501 568L545 534L483 454Q514 420 531 373T549 266Q549 202 531 151T481 63T402 8T301 -12Z"/><glyph unicode="ù" horiz-adv-x="576" d="M240 -12Q196 -12 165 1T113 37T84 94T75 168V519H157V166Q157 115 178 84T257 53Q305 53 345 75T417 137V519H499V0H425L418 70Q385 36 340 12T240 -12ZM390 706L448 750L587 580H531L390 706Z"/><glyph unicode="ú" horiz-adv-x="576" d="M240 -12Q196 -12 165 1T113 37T84 94T75 168V519H157V166Q157 115 178 84T257 53Q305 53 345 75T417 137V519H499V0H425L418 70Q385 36 340 12T240 -12ZM382 750L440 706L299 580H243L382 750Z"/><glyph unicode="û" horiz-adv-x="576" d="M240 -12Q196 -12 165 1T113 37T84 94T75 168V519H157V166Q157 115 178 84T257 53Q305 53 345 75T417 137V519H499V0H425L418 70Q385 36 340 12T240 -12ZM501 732H589L713 580H653L545 683H544L436 580H377L501 732Z"/><glyph unicode="ü" horiz-adv-x="576" d="M240 -12Q196 -12 165 1T113 37T84 94T75 168V519H157V166Q157 115 178 84T257 53Q305 53 345 75T417 137V519H499V0H425L418 70Q385 36 340 12T240 -12ZM447 607Q429 607 416 620T403 653Q403 672 416 685T447 698Q467 698 480 685T494 653Q494 633 481 620T447 607ZM640 607Q621 607 608 620T595 653Q595 672 608 685T640 698Q660 698 673 685T686 653Q686 633 673 620T640 607Z"/><glyph unicode="ı" horiz-adv-x="244" d="M81 519H163V0H81V519Z"/><glyph unicode="ˆ" horiz-adv-x="647" d="M283 732H371L495 580H435L327 683H326L218 580H159L283 732Z"/><glyph unicode="˜" horiz-adv-x="643" d="M389 591Q366 591 349 600T318 622T290 644T261 654Q243 654 234 641T227 600H175Q169 654 192 684T258 714Q281 714 298 704T329 683T357 661T385 651Q404 651 413 665T419 705H471Q478 651 455 621T389 591Z"/><glyph unicode="ẞ" horiz-adv-x="690" d="M389 -12Q355 -12 325 -8T271 3L286 71Q303 66 329 62T383 58Q418 58 448 66T501 91T537 132T550 188Q550 252 500 286T360 321H306V390H343Q387 390 419 400T471 428T502 468T512 517Q512 577 464 611T337 646Q259 646 212 606T165 485V0H81V484Q81 539 100 581T153 653T234 697T337 712Q392 712 439 699T521 660T576 600T596 519Q596 462 560 420T457 361Q540 349 587 302T634 182Q634 135 616 99T564 38T486 1T389 -12Z"/><glyph unicode="–" horiz-adv-x="590" d="M46 298H544V225H46V298Z"/><glyph unicode="—" horiz-adv-x="913" d="M47 298H866V225H47V298Z"/><glyph unicode="‘" horiz-adv-x="206" d="M176 697Q162 668 154 635T141 570T137 510T141 464H43Q43 495 49 528T66 595T95 659T133 717L176 697Z"/><glyph unicode="’" horiz-adv-x="206" d="M30 476Q43 504 52 537T65 603T69 663T65 709H163Q163 678 157 645T140 578T111 514T73 456L30 476Z"/><glyph unicode="‚" horiz-adv-x="206" d="M25 -115Q38 -86 47 -53T60 13T64 73T60 121H158Q158 57 135 -12T68 -136L25 -115Z"/><glyph unicode="“" horiz-adv-x="396" d="M176 697Q162 668 154 635T141 570T137 510T141 464H43Q43 495 49 528T66 595T95 659T133 717L176 697ZM366 697Q352 668 344 635T331 570T327 510T331 464H233Q233 495 239 528T256 595T285 659T323 717L366 697Z"/><glyph unicode="”" horiz-adv-x="396" d="M30 476Q43 504 52 537T65 603T69 663T65 709H163Q163 678 157 645T140 578T111 514T73 456L30 476ZM221 475Q234 503 243 536T256 602T260 662T256 708H354Q354 677 348 644T331 577T302 513T264 455L221 475Z"/><glyph unicode="„" horiz-adv-x="394" d="M25 -115Q38 -86 47 -53T60 13T64 73T60 121H158Q158 57 135 -12T68 -136L25 -115ZM214 -115Q227 -86 236 -53T249 13T253 73T249 121H347Q347 57 324 -12T257 -136L214 -115Z"/><glyph unicode="•" horiz-adv-x="556" d="M278 124Q249 124 225 134T181 163T152 206T141 260Q141 288 151 313T181 356T224 385T278 396Q306 396 331 386T374 357T403 313T414 260Q414 231 404 207T375 164T331 135T278 124Z"/><glyph unicode="…" horiz-adv-x="707" d="M598 -6Q570 -6 552 11T534 58Q534 84 552 102T598 121Q624 121 642 103T660 58Q660 29 642 12T598 -6ZM361 -6Q333 -6 315 11T297 58Q297 84 315 102T361 121Q387 121 405 103T423 58Q423 29 405 12T361 -6ZM125 -6Q97 -6 79 11T61 58Q61 84 79 102T125 121Q151 121 169 103T187 58Q187 29 169 12T125 -6Z"/><glyph unicode="‹" horiz-adv-x="364" d="M249 0L49 261L249 520L307 475L134 261L307 44L249 0Z"/><glyph unicode="›" horiz-adv-x="364" d="M57 44L230 261L57 475L115 520L315 261L115 0L57 44Z"/><glyph unicode="⁄" horiz-adv-x="644" d="M583 700H647L62 0H-3L583 700Z"/><glyph unicode="€" horiz-adv-x="620" d="M388 -10Q340 -10 298 7T222 56T164 133T126 234H38V288H116Q113 318 113 351Q113 381 116 410H38V464H125Q137 521 161 567T220 645T297 694T388 712Q456 712 504 685T584 606L524 565Q502 599 468 620T391 641Q328 641 280 595T211 463H435V410H202Q199 381 199 351Q199 334 200 319T203 288H391V235H212Q233 151 280 106T391 61Q433 61 468 83T525 137L585 96Q553 46 505 18T388 -10Z"/><glyph unicode="™" horiz-adv-x="878" d="M175 645H36V700H378V645H238V330H175V645ZM443 700H510L631 538L751 700H818V330H756V609L633 443L505 609V330H443V700Z"/><glyph unicode="−" horiz-adv-x="614" d="M47 295H567V224H47V295Z"/><glyph unicode="ﬀ" horiz-adv-x="689" d="M426 558Q426 587 430 611T442 656Q416 673 386 682T323 691Q261 691 229 660T197 557V515H426V558ZM115 0V452H23V515H115V556Q115 610 129 648T170 710T234 745T317 756Q365 756 404 744T476 711Q502 737 539 749T623 761Q645 761 668 757T707 747L687 687Q675 690 659 693T625 696Q568 696 538 665T507 561V515H652V452H507V0H426V452H197V0H115Z"/><glyph unicode="ﬁ" horiz-adv-x="600" d="M115 452H23V515H115V558Q115 668 171 714T324 761Q378 761 429 745T522 702L488 646Q453 668 411 682T328 696Q263 696 230 665T197 557V515H341V452H197V0H115V452ZM438 516H520V0H438V516Z"/><glyph unicode="ﬂ" horiz-adv-x="616" d="M115 452H23V515H115V560Q115 612 130 650T173 712T239 749T326 761Q374 761 412 749T478 713T521 650T536 559V0H454V559Q454 629 422 662T326 696Q197 696 197 559V515H341V452H197V0H115V452Z"/><glyph unicode="ﬃ" horiz-adv-x="910" d="M426 558Q426 617 442 656Q416 673 386 682T323 691Q261 691 229 660T197 557V515H426V558ZM748 516H829V0H748V516ZM115 0V452H23V515H115V556Q115 610 129 648T170 710T234 745T317 756Q365 756 404 743T477 710Q504 737 543 749T634 761Q688 761 739 745T831 702L798 646Q764 668 722 682T637 696Q573 696 540 665T507 557V515H651V452H507V0H426V452H197V0H115Z"/><glyph unicode="ﬄ" horiz-adv-x="926" d="M426 560Q426 615 443 655Q417 672 386 681T323 691Q261 691 229 660T197 557V515H426V560ZM115 0V452H23V515H115V556Q115 610 129 648T170 710T234 745T317 756Q366 756 405 743T480 709Q507 735 546 748T636 761Q684 761 722 749T788 713T830 650T845 559V0H763V559Q763 629 731 662T635 696Q572 696 540 663T507 559V515H652V452H507V0H426V452H197V0H115Z"/></font>
</defs>
</svg>
