<svg width="12" height="12" viewBox="0 0 12 12" xmlns="http://www.w3.org/2000/svg">
<path d="M4.5 9C4.77637 9 5 8.77637 5 8.5V4.5C5 4.22363 4.77637 4 4.5 4C4.22363 4 4 4.22363 4 4.5V8.5C4 8.77637 4.22363 9 4.5 9Z"/>
<path d="M6.5 9C6.77637 9 7 8.77637 7 8.5V4.5C7 4.22363 6.77637 4 6.5 4C6.22363 4 6 4.22363 6 4.5V8.5C6 8.77637 6.22363 9 6.5 9Z"/>
<path d="M8.5 9C8.77637 9 9 8.77637 9 8.5V4.5C9 4.22363 8.77637 4 8.5 4C8.22363 4 8 4.22363 8 4.5V8.5C8 8.77637 8.22363 9 8.5 9Z"/>
<path d="M11.5 1H7.9989L8 0.994629V0.494629C8 0.218262 7.77637 -0.00537109 7.5 -0.00537109H5.5C5.22363 -0.00537109 5 0.218262 5 0.494629V0.994629L5.0011 1H1.5C1.22363 1 1 1.22363 1 1.5C1 1.77637 1.22363 2 1.5 2H2V11.5C2 11.7764 2.22363 12 2.5 12H10.5C10.7764 12 11 11.7764 11 11.5V2H11.5C11.7764 2 12 1.77637 12 1.5C12 1.22363 11.7764 1 11.5 1ZM10 11H3V2.00537H10V11Z"/>
</svg>

