<svg width="12" height="12" viewBox="0 0 12 12" fill="none" xmlns="http://www.w3.org/2000/svg">
<path d="M1.5 5.01611C1.77539 5.01611 1.99854 4.79297 1.99854 4.51758V2.70782L4.14795 4.85303C4.24512 4.94971 4.37256 4.99854 4.5 4.99854C4.62793 4.99854 4.75537 4.94971 4.85303 4.85205C5.04736 4.65723 5.04688 4.3418 4.85205 4.14697L2.6994 1.99854H4.5C4.77539 1.99854 4.99854 1.77539 4.99854 1.5C4.99854 1.22461 4.77539 1.00146 4.5 1.00146H1.5C1.28912 1.00146 1.11108 1.13306 1.03821 1.31805C1.03333 1.33014 1.03449 1.34344 1.03058 1.35577C1.0163 1.40222 1.00146 1.44885 1.00146 1.5V4.51758C1.00146 4.79297 1.22461 5.01611 1.5 5.01611ZM4.51611 10.0015H2.70782L4.85303 7.85205C5.04736 7.65723 5.04688 7.3418 4.85205 7.14697C4.65674 6.95312 4.3418 6.95312 4.14697 7.14795L1.99854 9.3006V7.50146C1.99854 7.22607 1.77539 7.00293 1.5 7.00293C1.22461 7.00293 1.00146 7.22607 1.00146 7.50146V10.5C1.00146 10.7109 1.13324 10.889 1.31818 10.9619C1.32495 10.9646 1.3324 10.9636 1.33923 10.9661C1.39026 10.9837 1.44299 10.9985 1.5 10.9985H4.51611C4.7915 10.9985 5.01465 10.7754 5.01465 10.5C5.01465 10.2246 4.7915 10.0015 4.51611 10.0015ZM10.4971 7.07324C10.2207 7.07324 9.99707 7.29688 9.99707 7.57324V9.28906L7.854 7.146C7.65869 6.94971 7.34131 6.94971 7.146 7.146C6.9502 7.34131 6.9502 7.65869 7.146 7.854L9.29199 10H7.5708C7.29443 10 7.0708 10.2236 7.0708 10.5C7.0708 10.7764 7.29443 11 7.5708 11H10.495C10.4967 11 10.4983 11.001 10.5 11.001C10.6284 11.001 10.7563 10.9521 10.854 10.854C10.957 10.7513 11.0024 10.6152 10.9971 10.4805V7.57324C10.9971 7.29688 10.7734 7.07324 10.4971 7.07324ZM10.5 1.00146H7.50879C7.2334 1.00146 7.01025 1.22461 7.01025 1.5C7.01025 1.77539 7.2334 1.99854 7.50879 1.99854H9.29602L7.14746 4.14746C6.95264 4.34229 6.95264 4.65771 7.14746 4.85254C7.24512 4.94971 7.37256 4.99854 7.5 4.99854C7.62744 4.99854 7.75537 4.94971 7.85254 4.85254L10.0015 2.70325V4.50977C10.0015 4.78516 10.2246 5.0083 10.5 5.0083C10.7754 5.0083 10.9985 4.78516 10.9985 4.50977V1.5C10.9985 1.22461 10.7754 1.00146 10.5 1.00146Z" fill="#212121"/>
</svg>
