<svg width="12" height="12" viewBox="0 0 12 12" fill="none" xmlns="http://www.w3.org/2000/svg">
<path d="M8.99969 5.05048C8.9989 4.05219 8.9975 1.71381 9 1.58301C9 1.24854 8.4917 0 6.00488 0C4.99902 0 4.20508 0.214355 3.64453 0.637207C3.22266 0.955566 3.00195 1.354 3.00195 1.58301H3.01123C3.00049 1.67578 3.00049 1.76807 3.00049 1.84619L3 2.51807L3.00165 5.05023C2.43512 5.16895 2 5.64862 2 6.25V10.75C2 11.4395 2.56055 12 3.25 12H8.75C9.43945 12 10 11.4395 10 10.75V6.25C10 5.64905 9.56561 5.16974 8.99969 5.05048ZM4.00049 1.69531C4.10156 1.53369 4.54639 1 6.00488 1C7.54053 1 7.92578 1.53027 8 1.66797C7.99817 1.91882 7.99811 2.68378 7.99969 5H4.00153L4.00098 4.354C4.00049 3.33789 3.99902 2.05859 4.00049 1.69531ZM9 10.75C9 10.8877 8.8877 11 8.75 11H3.25C3.1123 11 3 10.8877 3 10.75V6.25C3 6.1123 3.1123 6 3.25 6H8.75C8.8877 6 9 6.1123 9 6.25V10.75ZM6 7C5.56348 7 5.2085 7.33643 5.2085 7.75C5.2085 7.9812 5.32593 8.18042 5.5 8.31812V9.5C5.5 9.77637 5.72363 10 6 10C6.27637 10 6.5 9.77637 6.5 9.5V8.31812C6.67413 8.18042 6.7915 7.9812 6.7915 7.75C6.7915 7.33643 6.43652 7 6 7Z" fill="#212121"/>
</svg>
