<svg width="12" height="12" viewBox="0 0 12 12" xmlns="http://www.w3.org/2000/svg">
<g clip-path="url(#clip0_2996_483)">
<path d="M4 4C4 3.72386 3.77614 3.5 3.5 3.5C3.22386 3.5 3 3.72386 3 4V4.5C3 4.77614 3.22386 5 3.5 5C3.77614 5 4 4.77614 4 4.5V4Z" fill="#212121"/>
<path d="M3.2 6.60003C3.42091 6.43434 3.73431 6.47912 3.9 6.70003C4.12661 7.00218 4.35167 7.19431 4.59262 7.31479C4.83357 7.43526 5.12232 7.50003 5.5 7.50003C5.87768 7.50003 6.16643 7.43526 6.40738 7.31479C6.64832 7.19431 6.87339 7.00218 7.1 6.70003C7.26568 6.47912 7.57909 6.43434 7.8 6.60003C8.02091 6.76571 8.06568 7.07912 7.9 7.30003C7.60267 7.69647 7.26435 8.00434 6.85459 8.20922C6.44483 8.41409 5.99555 8.50003 5.5 8.50003C5.00444 8.50003 4.55516 8.41409 4.14541 8.20922C3.73565 8.00434 3.39733 7.69647 3.1 7.30003C2.93431 7.07912 2.97908 6.76571 3.2 6.60003Z" fill="#212121"/>
<path d="M8 4C8 3.72386 7.77614 3.5 7.5 3.5C7.22386 3.5 7 3.72386 7 4V4.5C7 4.77614 7.22386 5 7.5 5C7.77614 5 8 4.77614 8 4.5V4Z" fill="#212121"/>
<path fill-rule="evenodd" clip-rule="evenodd" d="M0 5.5C0 2.46729 2.46729 0 5.5 0C8.53271 0 11 2.46729 11 5.5C11 8.53271 8.53271 11 5.5 11C2.46729 11 0 8.53271 0 5.5ZM1 5.5C1 7.98145 3.01855 10 5.5 10C7.98145 10 10 7.98145 10 5.5C10 3.01855 7.98145 1 5.5 1C3.01855 1 1 3.01855 1 5.5Z" fill="#212121"/>
</g>
<defs>
<clipPath id="clip0_2996_483">
<rect width="12" height="12" />
</clipPath>
</defs>
</svg>
