<svg width="12" height="12" viewBox="0 0 12 12" xmlns="http://www.w3.org/2000/svg">
<path d="M7.85352 3.14648C7.6582 2.95117 7.3418 2.95117 7.14648 3.14648L5.5 4.79297L3.85352 3.14648C3.6582 2.95117 3.3418 2.95117 3.14648 3.14648C2.95117 3.3418 2.95117 3.6582 3.14648 3.85352L4.79297 5.5L3.14648 7.14648C2.95117 7.3418 2.95117 7.6582 3.14648 7.85352C3.24414 7.95117 3.37207 8 3.5 8C3.62793 8 3.75586 7.95117 3.85352 7.85352L5.5 6.20703L7.14648 7.85352C7.24414 7.95117 7.37207 8 7.5 8C7.62793 8 7.75586 7.95117 7.85352 7.85352C8.04883 7.6582 8.04883 7.3418 7.85352 7.14648L6.20703 5.5L7.85352 3.85352C8.04883 3.6582 8.04883 3.3418 7.85352 3.14648ZM5.5 0C2.46729 0 0 2.46729 0 5.5C0 8.53271 2.46729 11 5.5 11C8.53271 11 11 8.53271 11 5.5C11 2.46729 8.53271 0 5.5 0ZM5.5 10C3.01855 10 1 7.98145 1 5.5C1 3.01855 3.01855 1 5.5 1C7.98145 1 10 3.01855 10 5.5C10 7.98145 7.98145 10 5.5 10Z" fill="#222222"/>
</svg>
