<svg width="12" height="12" viewBox="0 0 12 12" xmlns="http://www.w3.org/2000/svg">
<path d="M9.85352 4.14642L6.85413 1.14703C6.80786 1.10065 6.75244 1.06384 6.69092 1.03839C6.56873 0.987854 6.43127 0.987854 6.30908 1.03839C6.24756 1.06384 6.19214 1.10065 6.14587 1.14703L3.14648 4.14642C2.95117 4.34174 2.95117 4.65814 3.14648 4.85345C3.3418 5.04877 3.6582 5.04877 3.85352 4.85345L6 2.70697V10.4999C6 10.7763 6.22363 10.9999 6.5 10.9999C6.77637 10.9999 7 10.7763 7 10.4999V2.70697L9.14648 4.85345C9.24414 4.95111 9.37207 4.99994 9.5 4.99994C9.62793 4.99994 9.75586 4.95111 9.85352 4.85345C10.0488 4.65814 10.0488 4.34174 9.85352 4.14642Z"/>
</svg>

