<svg width="12" height="12" viewBox="0 0 12 12" fill="none" xmlns="http://www.w3.org/2000/svg">
<path d="M9.5 10H9V9.53271C9 7.93652 7.91699 6.72717 6.7572 5.67261C7.92804 4.65723 9 3.68408 9 2.44678V2H9.5C9.77637 2 10 1.77637 10 1.5C10 1.22363 9.77637 1 9.5 1H2.5C2.22363 1 2 1.22363 2 1.5C2 1.77637 2.22363 2 2.5 2H3V2.41504C3 3.66742 4.07355 4.64856 5.2475 5.67126C4.08459 6.72522 3 7.93427 3 9.53271V10H2.5C2.22363 10 2 10.2236 2 10.5C2 10.7764 2.22363 11 2.5 11H9.5C9.77637 11 10 10.7764 10 10.5C10 10.2236 9.77637 10 9.5 10ZM4 2.41504V2H8V2.44678C8 3.26538 7.03467 4.11035 6.00299 5.00336C4.96747 4.10278 4 3.25098 4 2.41504ZM8 10H4V9.53271C4 8.29883 4.93909 7.2887 6.00177 6.33624C7.06213 7.28973 8 8.30029 8 9.53271V10Z" fill="#212121"/>
</svg>
