<svg width="12" height="12" viewBox="0 0 12 12" fill="none" xmlns="http://www.w3.org/2000/svg">
<g clip-path="url(#clip0_5116_739)">
<path d="M2 1.5C1.72388 1.5 1.5 1.72382 1.5 2C1.5 2.27612 1.72388 2.5 2 2.5C2.27612 2.5 2.5 2.27612 2.5 2C2.5 1.72382 2.27612 1.5 2 1.5ZM1 6.5C1 6.77612 1.22388 7 1.5 7C1.77612 7 2 6.77612 2 6.5C2 6.22382 1.77612 6 1.5 6C1.22388 6 1 6.22382 1 6.5ZM6.5 4C6.22656 4 6.00293 4.2207 6 4.49463C5.99707 4.771 6.21875 4.99707 6.49512 5L7.49512 5.00977H7.5C7.77344 5.00977 7.99707 4.78955 8 4.51562C8.00293 4.23926 7.78125 4.01318 7.50488 4.01025L6.50488 4H6.5ZM0.5 4H3.5C3.77637 4 4 3.77637 4 3.5V0.5C4 0.223633 3.77637 0 3.5 0H0.5C0.223633 0 0 0.223633 0 0.5V3.5C0 3.77637 0.223633 4 0.5 4ZM1 1H3V3H1V1ZM5.5 4C5.77612 4 6 3.77612 6 3.5C6 3.22382 5.77612 3 5.5 3C5.22388 3 5 3.22382 5 3.5C5 3.77612 5.22388 4 5.5 4ZM9.50488 5H9.5C9.22656 5 9.00293 5.2207 9 5.49512L8.99512 5.99414L8.50586 5.98926H8.5C8.22656 5.98926 8.00293 6.20996 8 6.4834C7.99707 6.75977 8.21875 6.98633 8.49414 6.98926L9.00519 6.99481L9.01074 7.50586C9.01367 7.7793 9.2373 8 9.51074 8H9.5166C9.79199 7.99707 10.0137 7.77051 10.0107 7.49414L10.0059 7.00488L10.5049 7C10.7812 6.99707 11.0029 6.77051 11 6.49512C10.9971 6.2207 10.7734 6 10.5 6H10.4951L9.99463 6.00537L10 5.50488C10.0029 5.22949 9.78125 5.00293 9.50488 5ZM8 8.5C8 8.77612 8.22388 9 8.5 9C8.77612 9 9 8.77612 9 8.5C9 8.22382 8.77612 8 8.5 8C8.22388 8 8 8.22382 8 8.5ZM5.49512 2L5.99414 2.00488L5.98926 2.49463C5.98633 2.77051 6.20801 2.99707 6.4834 3H6.48926C6.7627 3 6.98633 2.77979 6.98926 2.50537L7 1.51562C7.00098 1.38281 6.9502 1.25537 6.85742 1.16064C6.76465 1.06543 6.6377 1.01172 6.50488 1.01025L5.50488 1H5.5C5.22656 1 5.00293 1.2207 5 1.49463C4.99707 1.771 5.21875 1.99707 5.49512 2ZM11.5 0H8.5C8.22363 0 8 0.223633 8 0.5V3.5C8 3.77637 8.22363 4 8.5 4H11.5C11.7764 4 12 3.77637 12 3.5V0.5C12 0.223633 11.7764 0 11.5 0ZM11 3H9V1H11V3ZM6.50488 6H6.5C6.22656 6 6.00293 6.2207 6 6.49512L5.99512 6.99414L5.50586 6.98926H5.5C5.22656 6.98926 5.00293 7.20996 5 7.4834C4.99707 7.75977 5.21875 7.98633 5.49414 7.98926L6.4834 8H6.48926C6.62012 8 6.74512 7.94922 6.83887 7.85742C6.93359 7.76465 6.98828 7.6377 6.98926 7.50488L7 6.50488C7.00293 6.22949 6.78125 6.00293 6.50488 6ZM11.5 11C11.2239 11 11 11.2238 11 11.5C11 11.7761 11.2239 12 11.5 12C11.7761 12 12 11.7761 12 11.5C12 11.2238 11.7761 11 11.5 11ZM10.5 9H10.4951L9.49512 9.01074C9.3623 9.01172 9.23535 9.06641 9.14258 9.16113C9.0498 9.25586 8.99902 9.38379 9 9.5166L9.00525 9.99738L8.00586 9.99219L8.01074 9.50586C8.01367 9.22949 7.79199 9.00293 7.5166 9C7.24219 8.96289 7.01367 9.21875 7.01074 9.49414L7 10.4834C6.99902 10.6172 7.0498 10.7451 7.14355 10.8398C7.2373 10.9346 7.36426 10.9883 7.49707 10.9893L9.49707 11H9.5C9.50189 11 9.50348 10.9989 9.50537 10.9989C9.50726 10.9989 9.50885 11 9.51074 11H9.5166C9.79199 10.9971 10.0137 10.7705 10.0107 10.4941L10.0059 10.0049L10.5049 10C10.7812 9.99707 11.0029 9.77051 11 9.49512C10.9971 9.2207 10.7734 9 10.5 9ZM10 2.5C10.2761 2.5 10.5 2.27612 10.5 2C10.5 1.72382 10.2761 1.5 10 1.5C9.72388 1.5 9.5 1.72382 9.5 2C9.5 2.27612 9.72388 2.5 10 2.5ZM5.5166 9H5.51074C5.2373 9 5.01367 9.2207 5.01074 9.49414L5 10.4834C4.99707 10.7598 5.21875 10.9863 5.49414 10.9893H5.5C5.77344 10.9893 5.99707 10.7686 6 10.4951L6.01074 9.50586C6.01367 9.22949 5.79199 9.00293 5.5166 9ZM2 10.5C2.27612 10.5 2.5 10.2761 2.5 10C2.5 9.72382 2.27612 9.5 2 9.5C1.72388 9.5 1.5 9.72382 1.5 10C1.5 10.2761 1.72388 10.5 2 10.5ZM3.5 8H0.5C0.223633 8 0 8.22363 0 8.5V11.5C0 11.7764 0.223633 12 0.5 12H3.5C3.77637 12 4 11.7764 4 11.5V8.5C4 8.22363 3.77637 8 3.5 8ZM3 11H1V9H3V11ZM4.5 5H4.49512L3.5 5.01068L2.50488 5H2.5C2.22656 5 2.00293 5.2207 2 5.49512C1.99707 5.77051 2.21875 5.99707 2.49512 6L2.99414 6.00488L2.98926 6.49414C2.98633 6.77051 3.20801 6.99707 3.4834 7H3.48926C3.49304 7 3.49622 6.99792 3.5 6.99786C3.50378 6.99792 3.50696 7 3.51074 7H3.5166C3.79199 6.99707 4.01367 6.77051 4.01074 6.49414L4.00586 6.00488L4.50488 6C4.78125 5.99707 5.00293 5.77051 5 5.49512C4.99707 5.2207 4.77344 5 4.5 5Z" fill="#212121"/>
</g>
<defs>
<clipPath id="clip0_5116_739">
<rect width="12" height="12" fill="white"/>
</clipPath>
</defs>
</svg>
