<svg width="12" height="12" viewBox="0 0 12 12" fill="none" xmlns="http://www.w3.org/2000/svg">
<g clip-path="url(#clip0_5173_649)">
<path d="M4 7C3.56348 7 3.20801 7.33643 3.20801 7.75C3.20801 7.98132 3.32562 8.18054 3.5 8.31824V9.5C3.5 9.77637 3.72363 10 4 10C4.27637 10 4.5 9.77637 4.5 9.5V8.31824C4.67438 8.18054 4.79199 7.98132 4.79199 7.75C4.79199 7.33643 4.43652 7 4 7ZM11.9893 1.58301H11.998C11.998 1.35352 11.7773 0.955078 11.3545 0.636719C10.7949 0.214355 10.001 0 8.99512 0C6.50879 0 6 1.24854 6 1.58301C6.00244 1.71167 6.00079 3.97571 6.00018 5H1.25C0.560547 5 0 5.56055 0 6.25V10.75C0 11.4395 0.560547 12 1.25 12H6.75C7.43945 12 8 11.4395 8 10.75V6.25C8 5.64929 7.56586 5.1701 7.00031 5.0506C7.00195 2.69421 7.00183 1.92065 7 1.66797C7.07422 1.53027 7.45996 1 8.99512 1C10.4551 1 10.8994 1.53418 10.999 1.69482C11.001 2.05664 11 3.33691 10.999 4.35352L10.998 5.5C10.998 5.77637 11.2217 6 11.498 6C11.7744 6 11.998 5.77637 11.998 5.5L12 1.84619C12 1.76807 11.999 1.67578 11.9893 1.58301ZM7 10.75C7 10.8877 6.8877 11 6.75 11H1.25C1.1123 11 1 10.8877 1 10.75V6.25C1 6.1123 1.1123 6 1.25 6H6.75C6.8877 6 7 6.1123 7 6.25V10.75Z" fill="#212121"/>
</g>
<defs>
<clipPath id="clip0_5173_649">
<rect width="12" height="12" fill="white"/>
</clipPath>
</defs>
</svg>
