<svg width="12" height="12" viewBox="0 0 12 12" xmlns="http://www.w3.org/2000/svg">
<path d="M9.85352 7.14648C9.6582 6.95117 9.3418 6.95117 9.14648 7.14648L7 9.29297V1.5C7 1.22363 6.77637 1 6.5 1C6.22363 1 6 1.22363 6 1.5V9.29297L3.85352 7.14648C3.6582 6.95117 3.3418 6.95117 3.14648 7.14648C2.95117 7.3418 2.95117 7.6582 3.14648 7.85352L6.14587 10.8529C6.19214 10.8993 6.24756 10.9361 6.30908 10.9615C6.37018 10.9868 6.43494 11 6.5 11C6.56506 11 6.62982 10.9868 6.69092 10.9615C6.75244 10.9361 6.80786 10.8993 6.85413 10.8529L9.85352 7.85352C10.0488 7.6582 10.0488 7.3418 9.85352 7.14648Z" fill="#222222"/>
</svg>
