<svg width="12" height="12" viewBox="0 0 12 12" fill="none" xmlns="http://www.w3.org/2000/svg">
<g clip-path="url(#clip0_4263_1242)">
<path d="M8.47559 7.3819C8.46674 7.34723 8.45892 7.3136 8.44324 7.28229C8.42957 7.25427 8.41052 7.23102 8.39185 7.20599C8.3728 7.18085 8.35541 7.15582 8.33203 7.1347C8.3064 7.11121 8.27637 7.09454 8.24573 7.07654C8.2207 7.06207 8.19727 7.04712 8.16968 7.03711C8.15741 7.03253 8.1485 7.02319 8.13574 7.01953C8.10602 7.01093 8.07654 7.0152 8.04669 7.01233C8.03052 7.01074 8.01654 7.00293 8 7.00293H4.00195C3.98822 7.00293 3.97668 7.00964 3.96326 7.01074C3.9353 7.01288 3.90796 7.00751 3.87988 7.01465C3.86218 7.01904 3.84918 7.03101 3.8324 7.03711C3.8114 7.04474 3.79291 7.05475 3.77332 7.06506C3.73407 7.08557 3.69824 7.10773 3.6665 7.13702C3.65192 7.15033 3.64038 7.16522 3.6275 7.18018C3.59875 7.21375 3.57404 7.24799 3.55505 7.28772C3.54584 7.3067 3.54022 7.32635 3.53345 7.34668C3.5199 7.38763 3.51074 7.42816 3.50818 7.47205C3.50751 7.48285 3.50195 7.49194 3.50195 7.50293C3.50195 7.51996 3.50995 7.5343 3.5116 7.5509C3.51398 7.57422 3.50885 7.59674 3.51465 7.62012C3.82959 8.89404 4.82812 9.75 5.99902 9.75C7.07947 9.75 8.07568 8.91406 8.45166 7.71112C8.45752 7.69849 8.46106 7.68549 8.46588 7.6723C8.46948 7.66034 8.4751 7.64972 8.47852 7.6377C8.48303 7.62195 8.47937 7.60651 8.4823 7.59076C8.48773 7.56116 8.5 7.53412 8.5 7.50293C8.5 7.48956 8.49347 7.47839 8.49243 7.46527C8.49036 7.43622 8.48254 7.40979 8.47559 7.3819ZM5.99902 8.75C5.49774 8.75 5.05145 8.46112 4.75922 8.00293H7.20502C6.89709 8.45239 6.45453 8.75 5.99902 8.75ZM4 5.5C4.27637 5.5 4.5 5.27637 4.5 5V4.5C4.5 4.22363 4.27637 4 4 4C3.72363 4 3.5 4.22363 3.5 4.5V5C3.5 5.27637 3.72363 5.5 4 5.5ZM6 0.499512C2.96729 0.499512 0.5 2.9668 0.5 6C0.5 9.0332 2.96729 11.5005 6 11.5005C9.03271 11.5005 11.5 9.0332 11.5 6C11.5 2.9668 9.03271 0.499512 6 0.499512ZM6 10.5005C3.51855 10.5005 1.5 8.48145 1.5 6C1.5 3.51855 3.51855 1.49951 6 1.49951C8.48145 1.49951 10.5 3.51855 10.5 6C10.5 8.48145 8.48145 10.5005 6 10.5005ZM8 4C7.72363 4 7.5 4.22363 7.5 4.5V5C7.5 5.27637 7.72363 5.5 8 5.5C8.27637 5.5 8.5 5.27637 8.5 5V4.5C8.5 4.22363 8.27637 4 8 4Z" fill="#212121"/>
</g>
<defs>
<clipPath id="clip0_4263_1242">
<rect width="12" height="12" fill="white"/>
</clipPath>
</defs>
</svg>
