<svg width="12" height="12" viewBox="0 0 12 12" fill="none" xmlns="http://www.w3.org/2000/svg">
<path d="M11.9878 6.38965L11.0093 2.08203C10.7754 1.41309 10.0435 1 9.5 1H5.7002C5.37549 1 4.99756 1.21289 4.40674 1.56055C4.14453 1.71484 3.70459 1.97363 3.58789 1.99609H2.92035C2.81177 1.49518 2.55103 1 1.90332 1H0.5C0.223633 1 0 1.22363 0 1.5C0 1.77637 0.223633 2 0.5 2L1.87012 1.98145C1.8833 1.99512 2 2.14062 2 2.88379V8H0.5C0.223633 8 0 8.22363 0 8.5C0 8.77637 0.223633 9 0.5 9H2.5C2.77637 9 3 8.77637 3 8.5V8H3.54102C3.89795 8 4.88818 8.34863 5.18652 9.02441C5.31396 9.31348 5.37158 9.54883 5.42285 9.75586C5.5083 10.1035 5.59717 10.4639 5.9668 10.7871C6.12744 10.9277 6.3291 11 6.54443 11C6.6792 11 6.81982 10.9717 6.9585 10.9141C7.40039 10.7295 7.93799 10.167 7.99902 9.18652C8.02637 8.74078 8.02655 8.31628 8.01984 8H10.397C11.2852 8 12 7.17969 12 6.5C12 6.46289 11.9961 6.42578 11.9878 6.38965ZM10.397 7H7.5C7.22363 7 7 7.22363 7 7.5C7 7.51166 7.05078 8.30859 7.00098 9.125C6.96143 9.75684 6.76293 9.94624 6.62549 10C6.49854 9.88867 6.46875 9.82227 6.39355 9.5166C6.33594 9.28223 6.26416 8.99023 6.10156 8.62109C5.59619 7.47559 4.18457 7 3.54102 7H3V2.99609H3.58789C3.92285 2.99609 4.31006 2.77832 4.91406 2.42285C5.16797 2.27246 5.59326 2.02246 5.7002 2H9.5C9.64404 2 9.98242 2.17383 10.0498 2.35742L10.9951 6.53516C10.958 6.69043 10.7012 7 10.397 7Z" fill="#212121"/>
</svg>
