<svg width="12" height="12" viewBox="0 0 12 12" fill="none" xmlns="http://www.w3.org/2000/svg">
<path d="M7.63672 3.99997H2.92834L4.32129 2.89109C4.53711 2.71921 4.57324 2.40476 4.40137 2.18845C4.22949 1.97214 3.91309 1.93747 3.69824 2.10886L1.18848 4.10642C1.06934 4.20115 1 4.34519 1 4.49704C1 4.64939 1.06934 4.79343 1.18848 4.88816L3.69824 6.8906C3.79004 6.96433 3.90039 6.99997 4.00977 6.99997C4.15625 6.99997 4.30176 6.93552 4.40039 6.81199C4.57324 6.59616 4.53711 6.28122 4.32129 6.10935L2.93152 4.99997H7.63672C8.94336 4.99997 10.0068 5.89499 10.0068 6.99509C10.0068 8.13816 9.04297 8.99997 7.76465 8.99997H7.5C7.22363 8.99997 7 9.22361 7 9.49997C7 9.77634 7.22363 9.99997 7.5 9.99997H7.82855C9.61536 9.9686 11.0068 8.65976 11.0068 6.99509C11.0068 5.34372 9.49512 3.99997 7.63672 3.99997Z" fill="#212121"/>
</svg>
