<svg width="12" height="12" viewBox="0 0 12 12" fill="none" xmlns="http://www.w3.org/2000/svg">
<path d="M8 5.5C8 5.77612 8.22382 6 8.5 6C8.77618 6 9 5.77612 9 5.5C9 5.22388 8.77618 5 8.5 5C8.22382 5 8 5.22388 8 5.5ZM10.5 3H9V1.5C9 1.22363 8.77637 1 8.5 1H3.5C3.22363 1 3 1.22363 3 1.5V3H1.5C1.22363 3 1 3.22363 1 3.5V8.5C1 8.77637 1.22363 9 1.5 9H3V10.5C3 10.7764 3.22363 11 3.5 11H8.5C8.77637 11 9 10.7764 9 10.5V9H10.5C10.7764 9 11 8.77637 11 8.5V3.5C11 3.22363 10.7764 3 10.5 3ZM4 2H8V3H4V2ZM8 10H4V8H8V10ZM10 8H9V7.5C9 7.22363 8.77637 7 8.5 7H3.5C3.22363 7 3 7.22363 3 7.5V8H2V4H10V8Z" fill="#212121"/>
</svg>
