<svg width="12" height="12" viewBox="0 0 12 12" xmlns="http://www.w3.org/2000/svg">
<path d="M10.8535 3.91504L8.08496 1.146C7.88965 0.950684 7.57324 0.950684 7.37793 1.146C6.94873 1.57471 6.64795 2.09277 6.53027 2.60498C6.48816 2.7887 6.47845 2.96362 6.4848 3.133L3.82617 5.0368C3.01355 4.94556 2.06311 5.23016 1.146 6.14697C0.950684 6.34229 0.950684 6.65869 1.146 6.854L2.79248 8.50049L1.146 10.147C0.950684 10.3423 0.950684 10.6587 1.146 10.854C1.24365 10.9517 1.37158 11.0005 1.49951 11.0005C1.62744 11.0005 1.75537 10.9517 1.85303 10.854L3.49951 9.20752L5.146 10.854C5.24365 10.9517 5.37158 11.0005 5.49951 11.0005C5.62744 11.0005 5.75537 10.9517 5.85303 10.854C6.77087 9.93646 7.05505 8.98615 6.96338 8.17358L8.87079 5.50989C8.89227 5.51068 8.90991 5.521 8.93164 5.521C9.0791 5.521 9.2334 5.50342 9.3916 5.46777C9.90625 5.35156 10.4248 5.05127 10.8535 4.62207C11.0488 4.42676 11.0488 4.11035 10.8535 3.91504ZM5.47705 9.771L2.229 6.52246C3.17773 5.79443 4.06689 5.9209 4.57129 6.4248L5.5752 7.42871C6.07861 7.93262 6.20605 8.8208 5.47705 9.771ZM6.55237 7.05231C6.4704 6.9342 6.38196 6.82147 6.28223 6.72168L5.27832 5.71777C5.17859 5.61798 5.06592 5.5296 4.94781 5.44763L6.85431 4.08264C6.87323 4.10388 6.88495 4.12958 6.90527 4.1499L7.8457 5.09033C7.86774 5.1123 7.89856 5.11987 7.92163 5.1402L6.55237 7.05231ZM9.1709 4.49219C8.9834 4.53613 8.7207 4.55078 8.55273 4.3833L7.6123 3.44287C7.44531 3.27588 7.46191 3.0166 7.50488 2.82861C7.54883 2.63672 7.63965 2.43555 7.7666 2.24219L9.75684 4.23242C9.56445 4.35889 9.3623 4.44873 9.1709 4.49219Z"/>
</svg>

