<svg width="12" height="12" viewBox="0 0 12 12" fill="none" xmlns="http://www.w3.org/2000/svg">
<path d="M9.50977 4.00098C9.2124 4.00195 9.01074 4.20947 9.00049 4.48145C8.99951 4.49658 8.92871 6 7.98633 6.00439C7.80518 5.83008 7.90771 4.78809 7.94678 4.396C7.9751 4.10693 8 3.84277 8 3.64307C8 1.72217 5.30762 0 4.5 0C4.33887 0 4.18799 0.0795898 4.09424 0.210449C4 0.341309 3.97607 0.511719 4.02783 0.664062C4.04639 0.719727 4.47852 2.04199 3.50732 3.62891C2.60254 5.10742 2 6.38818 2 7.83301C2 9.94305 3.51843 11.6729 5.47351 11.9446C5.64844 11.9782 5.82471 12 6 12C8.20557 12 10 10.1309 10 7.83301V4.5C10 4.22754 9.78223 4.00635 9.50977 4.00098ZM6.68604 10.3359C6.62598 10.6426 6.41016 11 6 11C5.89148 11 5.78864 10.9781 5.68304 10.9662C5.23761 10.8817 4.5 10.5801 4.5 9.5C4.5 8.99023 4.74463 8.42578 5.03662 7.93945C5.19434 8.55957 5.56445 9.15918 6.31152 9.46289C6.68408 9.61523 6.74609 10.0283 6.68604 10.3359ZM9 7.83301C9 8.92688 8.47144 9.89258 7.67017 10.4618C7.81006 9.60681 7.42737 8.83777 6.68848 8.53711C5.67529 8.125 5.9751 6.66846 5.98828 6.60645C6.03516 6.38867 5.93213 6.16504 5.73535 6.06006C5.53809 5.95459 5.2959 5.99219 5.14111 6.15186C5.07422 6.22119 3.5 7.86328 3.5 9.5C3.5 9.53394 3.50818 9.56177 3.50916 9.59497C3.18811 9.09082 3 8.4848 3 7.83301C3 6.62158 3.54395 5.48535 4.35986 4.15088C5.04492 3.03223 5.16455 1.99853 5.13184 1.28955C5.89893 1.76123 7 2.73291 7 3.64307C7 3.81689 6.97607 4.04639 6.95166 4.29785C6.86572 5.16602 6.76855 6.15039 7.24463 6.67529C7.43701 6.8877 7.69824 7 8 7C8.40479 7 8.73438 6.88379 9 6.69727V7.83301Z" fill="#212121"/>
</svg>
