<svg width="12" height="12" viewBox="0 0 12 12" fill="none" xmlns="http://www.w3.org/2000/svg">
<g clip-path="url(#clip0_5236_602)">
<path d="M3.14648 3.85348C3.24414 3.95114 3.37207 3.99997 3.5 3.99997C3.62793 3.99997 3.75586 3.95114 3.85352 3.85348L4.85352 2.85299C4.94727 2.75924 5 2.6318 5 2.49948C5 2.36667 4.94727 2.23971 4.85352 2.14596L3.85352 1.14645C3.6582 0.951138 3.3418 0.951138 3.14648 1.14645C2.95117 1.34176 2.95117 1.65817 3.14648 1.85348L3.29309 1.99997H2.396C1.07471 1.99997 0 2.99118 0 4.20993C0 4.85934 0.306641 5.47262 0.841797 5.89303C0.933594 5.9653 1.04248 5.99997 1.15039 5.99997C1.29883 5.99997 1.44531 5.93454 1.54395 5.80905C1.71484 5.59176 1.67676 5.27731 1.45996 5.1069C1.16748 4.87741 1 4.55026 1 4.20993C1 3.54293 1.62646 2.99997 2.396 2.99997H3.29285L3.14648 3.14645C2.95117 3.34176 2.95117 3.65817 3.14648 3.85348ZM5.9411 9.21188C6.01141 9.09012 5.96967 8.93435 5.8479 8.86404C5.72607 8.79373 5.57037 8.83548 5.5 8.95724C5.42969 9.07907 5.47144 9.23477 5.59326 9.30508C5.71503 9.37545 5.87079 9.33371 5.9411 9.21188ZM11.9766 3.18161C11.9121 2.8442 11.7119 2.5571 11.4277 2.39303L8.66211 0.795865C8.37793 0.631802 8.02441 0.604947 7.69336 0.725064C7.39062 0.834927 7.13281 1.05417 6.96631 1.34274L3.18604 7.89059C3.01758 8.18258 2.96094 8.51559 3.02637 8.82907C3.09473 9.15719 3.2959 9.43844 3.57812 9.60055L6.34424 11.1982L6.34473 11.1992C6.52637 11.3037 6.72266 11.3525 6.91797 11.3525C7.34863 11.3525 7.77441 11.1113 8.02148 10.6826L11.8105 4.11911C11.9785 3.82907 12.0371 3.49606 11.9766 3.18161ZM7.15527 10.1826C7.07715 10.3193 6.93555 10.3857 6.84375 10.332L4.07764 8.73434C4.03125 8.70797 4.0127 8.66012 4.00537 8.62497C3.99023 8.5527 4.00684 8.46872 4.05225 8.39059L4.4281 7.73953L7.53168 9.53079L7.15527 10.1826ZM8.03143 8.66525L4.92804 6.87344L6.97418 3.32882L10.0781 5.12082L8.03143 8.66525ZM10.9453 3.61911L10.5783 4.25473L7.47418 2.46261L7.83203 1.84274C7.88086 1.75876 7.95508 1.69381 8.03516 1.66452C8.05957 1.65622 8.11914 1.63717 8.16211 1.66208L10.9277 3.25924C10.9707 3.28366 10.9873 3.33249 10.9951 3.3696C11.0098 3.44723 10.9912 3.53854 10.9453 3.61911Z" fill="#212121"/>
</g>
<defs>
<clipPath id="clip0_5236_602">
<rect width="12" height="12" fill="white"/>
</clipPath>
</defs>
</svg>
