<svg width="12" height="12" viewBox="0 0 12 12" fill="none" xmlns="http://www.w3.org/2000/svg">
<path d="M9.65918 7.24805C9.55762 7.14844 9.41895 7.0127 9.39648 6.97852C9.36865 6.89355 9.34766 6.57764 9.33105 6.32373C9.24902 5.07666 9.11133 2.98926 7.53369 2.29932C7.46442 2.26898 7.38318 2.25677 7.31042 2.23108C7.43298 2.01379 7.50879 1.76678 7.50879 1.5C7.50879 0.672852 6.83594 0 6.00879 0C5.18164 0 4.50879 0.672852 4.50879 1.5C4.50879 1.76508 4.5838 2.01068 4.70496 2.22699C4.62775 2.25348 4.54242 2.26642 4.46875 2.29785C2.88672 2.979 2.7583 5.03613 2.68213 6.26514C2.66504 6.5332 2.64453 6.86719 2.62305 6.93604C2.59229 6.98779 2.45752 7.12012 2.35938 7.2168C1.99658 7.57227 1.5 8.05957 1.5 8.69043C1.5 9.17969 1.70361 10 3.06689 10H4.60089C4.54486 10.1572 4.50879 10.3239 4.50879 10.5C4.50879 11.3271 5.18164 12 6.00879 12C6.83594 12 7.50879 11.3271 7.50879 10.5C7.50879 10.3239 7.47272 10.1572 7.41669 10H8.93311C10.2964 10 10.5 9.17969 10.5 8.69043C10.5 8.07227 10.0137 7.5957 9.65918 7.24805ZM6.00879 1C6.28467 1 6.50879 1.22412 6.50879 1.5C6.50879 1.77588 6.28467 2 6.00879 2C5.73291 2 5.50879 1.77588 5.50879 1.5C5.50879 1.22412 5.73291 1 6.00879 1ZM6.00879 11C5.73291 11 5.50879 10.7754 5.50879 10.5C5.50879 10.2246 5.73291 10 6.00879 10C6.28467 10 6.50879 10.2246 6.50879 10.5C6.50879 10.7754 6.28467 11 6.00879 11ZM8.93311 9H3.06689C2.5 9 2.5 8.86328 2.5 8.69043C2.5 8.47949 2.83691 8.14844 3.05957 7.92969C3.25293 7.74023 3.41992 7.57617 3.51367 7.39062C3.62793 7.16309 3.64844 6.83057 3.68018 6.32715C3.74658 5.2627 3.84668 3.6543 4.86377 3.2168C5.20166 3.07178 5.60449 2.99902 6.00537 2.99902C6.40527 2.99902 6.80322 3.07129 7.1333 3.21533C8.15332 3.66162 8.26611 5.36914 8.3335 6.38965C8.36328 6.84814 8.3833 7.15137 8.47314 7.3623C8.56396 7.5752 8.74707 7.75391 8.95898 7.96191C9.17432 8.17285 9.5 8.49219 9.5 8.69043C9.5 8.86328 9.5 9 8.93311 9Z" fill="#212121"/>
</svg>
