<svg width="12" height="12" viewBox="0 0 12 12" fill="none" xmlns="http://www.w3.org/2000/svg">
<path d="M10.8535 3.15088L8.85449 1.14697C8.76074 1.05273 8.63379 1 8.50098 1C8.36816 1 8.24121 1.05273 8.14746 1.14648L6.14648 3.14795C5.95117 3.34326 5.95117 3.65967 6.14648 3.85498C6.3418 4.05029 6.6582 4.05029 6.85352 3.85498L8.00018 2.70831C7.99969 5.23627 7.91608 5.85583 6.74023 6.57324C6.13 6.94458 5.49847 7.02069 4.90356 6.94843C4.9964 6.17059 4.99902 5.46033 4.99902 5.01666C4.99902 5.01489 5 5.01349 5 5.01172C5 3.90869 4.10254 3.01172 3 3.01172C1.89746 3.01172 1 3.90869 1 5.01172C1 5.59668 1.25488 6.15088 1.7002 6.53174C1.71863 6.54767 1.74103 6.55469 1.76105 6.56744C1.77716 6.58398 1.78687 6.60461 1.80566 6.61914C2.20789 6.9325 2.90094 7.40045 3.7431 7.69934C3.38995 9.24414 2.66101 10 1.5 10C1.22363 10 1 10.2236 1 10.5C1 10.7764 1.22363 11 1.5 11C3.5177 11 4.3689 9.50012 4.73053 7.94604C4.91388 7.97101 5.10101 7.98486 5.29102 7.98486C5.92871 7.98486 6.59863 7.83008 7.25977 7.42676C8.93915 6.40369 9.00232 5.20599 9.00043 2.70819L10.1465 3.85693C10.2441 3.95508 10.3721 4.00391 10.5 4.00391C10.6279 4.00391 10.7559 3.95508 10.8535 3.85791C11.0488 3.66309 11.0488 3.34619 10.8535 3.15088ZM3.99902 5.00732C3.99902 5.63489 3.96259 6.17993 3.90796 6.68536C3.27118 6.43292 2.73499 6.07544 2.41895 5.83008C2.40704 5.82074 2.39246 5.8186 2.38 5.81055C2.36871 5.79883 2.36322 5.78375 2.35059 5.77295C2.12793 5.58154 2 5.3042 2 5.01172C2 4.46045 2.44824 4.01172 3 4.01172C3.55011 4.01172 3.99634 4.45831 3.99902 5.00732C3.99902 5.00739 3.99902 5.00726 3.99902 5.00732Z" fill="#212121"/>
</svg>
