<svg width="12" height="12" viewBox="0 0 12 12" xmlns="http://www.w3.org/2000/svg">
<path d="M5.5 8.75C5.08582 8.75 4.75 9.08575 4.75 9.5C4.75 9.91418 5.08582 10.25 5.5 10.25C5.91419 10.25 6.25 9.91418 6.25 9.5C6.25 9.08575 5.91419 8.75 5.5 8.75ZM5.5 2C4.48584 2 3.60596 2.44531 3.08496 3.22119C2.93115 3.45068 2.99219 3.76123 3.22119 3.91504C3.45117 4.06982 3.76172 4.00781 3.91504 3.77881C4.11035 3.48779 4.57569 3 5.5 3C6.18408 3 7 3.26025 7 4.5C7 4.98438 6.7041 5.22217 6.18067 5.60156C5.65479 5.98242 5 6.45703 5 7.3999V7.5C5 7.77637 5.22363 8 5.5 8C5.77637 8 6 7.77637 6 7.5V7.3999C6 6.9873 6.27735 6.76611 6.76758 6.41113C7.31641 6.01318 8 5.51807 8 4.5C8 2.65674 6.7085 2 5.5 2Z"/>
</svg>

