<svg width="12" height="12" viewBox="0 0 12 12" fill="none" xmlns="http://www.w3.org/2000/svg">
<g clip-path="url(#clip0_4263_1236)">
<path d="M6 7C4.84814 7 3.8833 7.51074 3.54102 8.30127C3.43164 8.55469 3.54785 8.84912 3.80127 8.95898C3.86621 8.98682 3.93359 9 3.99951 9C4.19287 9 4.37744 8.88721 4.45898 8.69873C4.63672 8.28711 5.27051 8 6 8C6.77197 8 7.37646 8.37354 7.55322 8.72461C7.67725 8.97119 7.97852 9.06885 8.22461 8.94678C8.47119 8.82275 8.5708 8.52197 8.44678 8.27539C8.06299 7.5127 7.07959 7 6 7ZM6 0.499512C2.96729 0.499512 0.5 2.9668 0.5 6C0.5 9.0332 2.96729 11.5005 6 11.5005C9.03271 11.5005 11.5 9.0332 11.5 6C11.5 2.9668 9.03271 0.499512 6 0.499512ZM6 10.5005C3.51855 10.5005 1.5 8.48145 1.5 6C1.5 3.51855 3.51855 1.49951 6 1.49951C8.48145 1.49951 10.5 3.51855 10.5 6C10.5 8.48145 8.48145 10.5005 6 10.5005ZM3.72363 5.44727L4.72363 4.94727C4.9707 4.82373 5.0708 4.52344 4.94727 4.27637C4.82324 4.02979 4.52393 3.93066 4.27637 4.05273L3.27637 4.55273C3.0293 4.67627 2.9292 4.97656 3.05273 5.22363C3.14062 5.39893 3.31689 5.5 3.50049 5.5C3.57568 5.5 3.65186 5.48291 3.72363 5.44727ZM8.72363 4.55273L7.72363 4.05273C7.47656 3.93066 7.17676 4.02979 7.05273 4.27637C6.9292 4.52344 7.0293 4.82373 7.27637 4.94727L8.27637 5.44727C8.34814 5.48291 8.42432 5.5 8.49951 5.5C8.68311 5.5 8.85938 5.39893 8.94727 5.22363C9.0708 4.97656 8.9707 4.67627 8.72363 4.55273Z" fill="#212121"/>
</g>
<defs>
<clipPath id="clip0_4263_1236">
<rect width="12" height="12" fill="white"/>
</clipPath>
</defs>
</svg>
