<svg width="12" height="12" viewBox="0 0 12 12" fill="none" xmlns="http://www.w3.org/2000/svg">
<path d="M5.41211 4.10493C5.41516 4.10804 5.41937 4.1089 5.42249 4.11189L8.30579 6.99995H6.5C6.22363 6.99995 6 7.22358 6 7.49995C6 7.77632 6.22363 7.99995 6.5 7.99995H9.5C9.77637 7.99995 10 7.77632 10 7.49995V4.49995C10 4.22358 9.77637 3.99995 9.5 3.99995C9.22363 3.99995 9 4.22358 9 4.49995V6.28004L6.12939 3.40473C6.12531 3.40065 6.11975 3.39949 6.11554 3.39552C5.71057 2.98854 5.22443 2.64888 4.66748 2.38765C3.38428 1.78608 1.48779 1.78022 0.146484 3.123C-0.0488281 3.31831 -0.0488281 3.63472 0.146484 3.83003C0.341797 4.02534 0.658203 4.02534 0.853516 3.83003C1.85254 2.83003 3.27588 2.84028 4.24316 3.29292C4.6958 3.50532 5.08936 3.77876 5.41211 4.10493ZM11.5 8.99995H4.5C4.22363 8.99995 4 9.22358 4 9.49995C4 9.77632 4.22363 9.99995 4.5 9.99995H11.5C11.7764 9.99995 12 9.77632 12 9.49995C12 9.22358 11.7764 8.99995 11.5 8.99995Z" fill="#212121"/>
</svg>
