<svg width="12" height="12" viewBox="0 0 12 12" fill="none" xmlns="http://www.w3.org/2000/svg">
<path d="M10.9618 5.80908C10.9363 5.74756 10.8995 5.69214 10.8531 5.64587L7.85376 2.64648C7.65845 2.45117 7.34204 2.45117 7.14673 2.64648C6.95142 2.8418 6.95142 3.1582 7.14673 3.35352L9.29321 5.5H1.50024C1.22388 5.5 1.00024 5.72363 1.00024 6C1.00024 6.27637 1.22388 6.5 1.50024 6.5H9.29321L7.14673 8.64648C6.95142 8.8418 6.95142 9.1582 7.14673 9.35352C7.24438 9.45117 7.37231 9.5 7.50024 9.5C7.62817 9.5 7.7561 9.45117 7.85376 9.35352L10.8531 6.35413C10.8995 6.30786 10.9363 6.25244 10.9618 6.19092C11.0123 6.06873 11.0123 5.93127 10.9618 5.80908Z" fill="#212121"/>
</svg>
