<svg width="12" height="12" viewBox="0 0 12 12" fill="none" xmlns="http://www.w3.org/2000/svg">
<g clip-path="url(#clip0_4263_1230)">
<path d="M7.5 7.5H4.5C4.22363 7.5 4 7.72363 4 8C4 8.27637 4.22363 8.5 4.5 8.5H7.5C7.77637 8.5 8 8.27637 8 8C8 7.72363 7.77637 7.5 7.5 7.5ZM4.5 5V4.5C4.5 4.22363 4.27637 4 4 4C3.72363 4 3.5 4.22363 3.5 4.5V5C3.5 5.27637 3.72363 5.5 4 5.5C4.27637 5.5 4.5 5.27637 4.5 5ZM8 4C7.72363 4 7.5 4.22363 7.5 4.5V5C7.5 5.27637 7.72363 5.5 8 5.5C8.27637 5.5 8.5 5.27637 8.5 5V4.5C8.5 4.22363 8.27637 4 8 4ZM6 0.499512C2.96729 0.499512 0.5 2.9668 0.5 6C0.5 9.0332 2.96729 11.5005 6 11.5005C9.03271 11.5005 11.5 9.0332 11.5 6C11.5 2.9668 9.03271 0.499512 6 0.499512ZM6 10.5005C3.51855 10.5005 1.5 8.48145 1.5 6C1.5 3.51855 3.51855 1.49951 6 1.49951C8.48145 1.49951 10.5 3.51855 10.5 6C10.5 8.48145 8.48145 10.5005 6 10.5005Z" fill="#212121"/>
</g>
<defs>
<clipPath id="clip0_4263_1230">
<rect width="12" height="12" fill="white"/>
</clipPath>
</defs>
</svg>
