<svg width="12" height="12" viewBox="0 0 12 12" fill="none" xmlns="http://www.w3.org/2000/svg">
<g clip-path="url(#clip0_4263_1247)">
<path d="M3.72364 5.44721L4.72364 4.94721C4.97071 4.82368 5.07081 4.52338 4.94727 4.27631C4.82325 4.02973 4.52393 3.93061 4.27637 4.05268L3.27637 4.55268C3.0293 4.67622 2.9292 4.97651 3.05274 5.22358C3.14063 5.39887 3.3169 5.49995 3.50049 5.49995C3.57569 5.49995 3.65186 5.48286 3.72364 5.44721Z" fill="#212121"/>
<path d="M7.72364 4.05268L8.72364 4.55268C8.97071 4.67622 9.07081 4.97651 8.94727 5.22358C8.85938 5.39887 8.68311 5.49995 8.49952 5.49995C8.42432 5.49995 8.34815 5.48286 8.27637 5.44721L7.27637 4.94721C7.0293 4.82368 6.9292 4.52338 7.05274 4.27631C7.17676 4.02973 7.47657 3.93061 7.72364 4.05268Z" fill="#212121"/>
<path fill-rule="evenodd" clip-rule="evenodd" d="M8.47142 8.62973C8.46342 8.66133 8.45565 8.69196 8.44128 8.72064C8.4298 8.74418 8.41452 8.76436 8.39885 8.78505L8.38989 8.79694L8.38148 8.80814C8.36554 8.82944 8.34998 8.85025 8.33008 8.86823C8.30688 8.88949 8.28008 8.90516 8.25249 8.92129L8.23176 8.93341C8.21108 8.94555 8.19086 8.95743 8.16772 8.96582C8.16209 8.96792 8.15717 8.97103 8.15225 8.97413C8.14646 8.97778 8.14069 8.98142 8.13379 8.9834C8.11467 8.98894 8.09564 8.98914 8.07656 8.98935C8.06598 8.98946 8.05538 8.98958 8.04474 8.9906C8.03754 8.99131 8.03078 8.99325 8.02403 8.99518C8.01562 8.99759 8.00722 9 7.99805 9H4C3.99253 9 3.98571 8.99801 3.97888 8.99603C3.97316 8.99436 3.96743 8.99269 3.9613 8.99219C3.95082 8.99139 3.94042 8.99164 3.93003 8.9919C3.91273 8.99232 3.89547 8.99274 3.87793 8.98828C3.868 8.98582 3.85955 8.98097 3.85108 8.97611C3.84445 8.97231 3.83781 8.9685 3.83044 8.96582C3.81092 8.95873 3.79356 8.94957 3.77547 8.94003L3.77136 8.93787C3.73212 8.91736 3.69629 8.8952 3.66455 8.86591C3.65328 8.85563 3.64383 8.8444 3.63418 8.83293L3.62555 8.82275C3.5968 8.78918 3.57208 8.75494 3.5531 8.71521C3.54571 8.69998 3.54063 8.68433 3.53542 8.66824L3.53149 8.65625C3.51794 8.6153 3.50879 8.57477 3.50623 8.53088C3.50591 8.52582 3.50452 8.52114 3.50314 8.51646C3.50157 8.51114 3.5 8.50584 3.5 8.5C3.5 8.49053 3.50247 8.48189 3.50495 8.47323C3.50693 8.46632 3.50891 8.45939 3.50964 8.45203C3.51061 8.44253 3.51034 8.43316 3.51006 8.42381C3.50966 8.41021 3.50926 8.39666 3.5127 8.38281C3.82764 7.10889 4.82617 6.25293 5.99707 6.25293C7.07751 6.25293 8.07373 7.08887 8.44971 8.29181C8.45361 8.30023 8.45649 8.30882 8.4594 8.31752L8.46393 8.33063C8.46566 8.33638 8.46785 8.34181 8.47005 8.34725C8.47242 8.35312 8.47479 8.35899 8.47656 8.36523C8.47906 8.37395 8.47906 8.38258 8.47905 8.39122C8.47904 8.39817 8.47904 8.40515 8.48035 8.41217C8.4823 8.42282 8.48514 8.43314 8.48798 8.44344C8.49302 8.46176 8.49805 8.48004 8.49805 8.5C8.49805 8.50724 8.49613 8.51384 8.49421 8.52046C8.49258 8.52605 8.49095 8.53165 8.49048 8.53766C8.48874 8.56203 8.48296 8.58456 8.47703 8.60766L8.47142 8.62973ZM5.99707 7.25293C5.49579 7.25293 5.0495 7.54181 4.75726 8H7.20306C6.89514 7.55054 6.45258 7.25293 5.99707 7.25293Z" fill="#212121"/>
<path fill-rule="evenodd" clip-rule="evenodd" d="M0.5 6C0.5 2.9668 2.96729 0.499512 6 0.499512C9.03271 0.499512 11.5 2.9668 11.5 6C11.5 9.0332 9.03271 11.5005 6 11.5005C2.96729 11.5005 0.5 9.0332 0.5 6ZM1.5 6C1.5 8.48145 3.51855 10.5005 6 10.5005C8.48145 10.5005 10.5 8.48145 10.5 6C10.5 3.51855 8.48145 1.49951 6 1.49951C3.51855 1.49951 1.5 3.51855 1.5 6Z" fill="#212121"/>
</g>
<defs>
<clipPath id="clip0_4263_1247">
<rect width="12" height="12" fill="white"/>
</clipPath>
</defs>
</svg>
