<svg width="12" height="12" viewBox="0 0 12 12" fill="none" xmlns="http://www.w3.org/2000/svg">
<path d="M5 5.5C5 5.77637 5.22363 6 5.5 6H8.5C8.77637 6 9 5.77637 9 5.5C9 5.22363 8.77637 5 8.5 5H5.5C5.22363 5 5 5.22363 5 5.5ZM10.5 1H1.5C1.22363 1 1 1.22363 1 1.5V8.5C1 8.77637 1.22363 9 1.5 9H3V10.5C3 10.7021 3.12207 10.8848 3.30859 10.9619C3.37012 10.9873 3.43555 11 3.5 11C3.62988 11 3.75781 10.9492 3.85352 10.8535L5.70703 9H10.5C10.7764 9 11 8.77637 11 8.5V1.5C11 1.22363 10.7764 1 10.5 1ZM10 8H5.5C5.36719 8 5.24023 8.05273 5.14648 8.14648L4 9.29297V8.5C4 8.22363 3.77637 8 3.5 8H2V2H10V8ZM3.5 4H6.5C6.77637 4 7 3.77637 7 3.5C7 3.22363 6.77637 3 6.5 3H3.5C3.22363 3 3 3.22363 3 3.5C3 3.77637 3.22363 4 3.5 4Z" fill="#212121"/>
</svg>
