<svg width="12" height="12" viewBox="0 0 12 12" fill="none" xmlns="http://www.w3.org/2000/svg">
<path d="M5.31965 1.36066L3.50001 2.04102L4.18037 3.86066L6.00001 3.18036L5.31965 1.36066ZM2.4167 4.52008L1.96828 3.32422C1.8716 3.06543 1.58302 2.93701 1.32423 3.03174C1.06593 3.12891 0.935072 3.41699 1.03175 3.67578L4.03175 11.6758C4.10695 11.876 4.29786 12 4.50001 12C4.55861 12 4.61769 11.9902 4.67579 11.9678C4.9341 11.8711 5.06495 11.583 4.96828 11.3242L3.09883 6.33905L4.86073 5.68036L4.18037 3.86066L2.4167 4.52008ZM5.54103 7.5L7.36073 6.81964L6.68037 5L4.86073 5.68036L5.54103 7.5ZM6.00001 3.18036L6.68037 5L8.50001 4.31964L7.81965 2.5L6.00001 3.18036ZM8.959 0L7.1393 0.680359L7.81965 2.5L9.6393 1.81964L8.959 0ZM10.3197 3.63928L8.50001 4.31964L9.18037 6.13928L11 5.45892L10.3197 3.63928Z" fill="#212121"/>
</svg>
