<svg width="12" height="12" viewBox="0 0 12 12" xmlns="http://www.w3.org/2000/svg">
<path d="M6.70703 6L9.85352 2.85352C10.0488 2.6582 10.0488 2.3418 9.85352 2.14648C9.6582 1.95117 9.3418 1.95117 9.14648 2.14648L6 5.29297L2.85352 2.14648C2.6582 1.95117 2.3418 1.95117 2.14648 2.14648C1.95117 2.3418 1.95117 2.6582 2.14648 2.85352L5.29297 6L2.14648 9.14648C1.95117 9.3418 1.95117 9.6582 2.14648 9.85352C2.24414 9.95117 2.37207 10 2.5 10C2.62793 10 2.75586 9.95117 2.85352 9.85352L6 6.70703L9.14648 9.85352C9.24414 9.95117 9.37207 10 9.5 10C9.62793 10 9.75586 9.95117 9.85352 9.85352C10.0488 9.6582 10.0488 9.3418 9.85352 9.14648L6.70703 6Z"/>
</svg>

