<svg width="12" height="12" viewBox="0 0 12 12" xmlns="http://www.w3.org/2000/svg">
<path d="M4.64648 8.63916L4 9.28534V2.5C4 2.22363 3.77637 2 3.5 2C3.22363 2 3 2.22363 3 2.5V9.28906L2.35352 8.64258C2.1582 8.44727 1.8418 8.44727 1.64648 8.64258C1.45117 8.83789 1.45117 9.1543 1.64648 9.34961L3.14453 10.8477C3.17816 10.8813 3.21887 10.9013 3.25848 10.9233C3.27533 10.9328 3.28833 10.9475 3.30627 10.9551C3.36761 10.9806 3.43268 10.9941 3.49805 10.9941C3.49768 10.9941 3.49841 10.9941 3.49805 10.9941C3.49841 10.9941 3.49963 10.9941 3.5 10.9941C3.51959 10.9941 3.53619 10.9852 3.55518 10.983C3.60022 10.9778 3.64557 10.9737 3.68811 10.9562C3.75293 10.9299 3.8103 10.8906 3.85815 10.8411L5.35352 9.34619C5.54883 9.15088 5.54883 8.83447 5.35352 8.63916C5.1582 8.44385 4.8418 8.44385 4.64648 8.63916Z"/>
<path d="M10.5 3H6.5C6.22363 3 6 3.22363 6 3.5C6 3.77637 6.22363 4 6.5 4H10.5C10.7764 4 11 3.77637 11 3.5C11 3.22363 10.7764 3 10.5 3Z"/>
<path d="M9.5 5H6.5C6.22363 5 6 5.22363 6 5.5C6 5.77637 6.22363 6 6.5 6H9.5C9.77637 6 10 5.77637 10 5.5C10 5.22363 9.77637 5 9.5 5Z"/>
<path d="M8.5 7H6.5C6.22363 7 6 7.22363 6 7.5C6 7.77637 6.22363 8 6.5 8H8.5C8.77637 8 9 7.77637 9 7.5C9 7.22363 8.77637 7 8.5 7Z"/>
<path d="M7.5 9H6.5C6.22363 9 6 9.22363 6 9.5C6 9.77637 6.22363 10 6.5 10H7.5C7.77637 10 8 9.77637 8 9.5C8 9.22363 7.77637 9 7.5 9Z"/>
</svg>

