<svg width="12" height="12" viewBox="0 0 12 12" fill="none" xmlns="http://www.w3.org/2000/svg">
<path d="M10.4997 5.5H2.70673L4.85321 3.35352C5.04852 3.1582 5.04852 2.8418 4.85321 2.64648C4.6579 2.45117 4.34149 2.45117 4.14618 2.64648L1.14679 5.64587C1.1004 5.69214 1.0636 5.74756 1.03815 5.80908C0.98761 5.93127 0.98761 6.06873 1.03815 6.19092C1.0636 6.25244 1.1004 6.30786 1.14679 6.35413L4.14618 9.35352C4.24384 9.45117 4.37176 9.5 4.49969 9.5C4.62762 9.5 4.75555 9.45117 4.85321 9.35352C5.04852 9.1582 5.04852 8.8418 4.85321 8.64648L2.70673 6.5H10.4997C10.7761 6.5 10.9997 6.27637 10.9997 6C10.9997 5.72363 10.7761 5.5 10.4997 5.5Z" fill="#212121"/>
</svg>
