<svg width="12" height="12" viewBox="0 0 12 12" xmlns="http://www.w3.org/2000/svg">
<path d="M5.5 7.75C5.08582 7.75 4.75 8.08575 4.75 8.5C4.75 8.91418 5.08582 9.25 5.5 9.25C5.91418 9.25 6.25 8.91418 6.25 8.5C6.25 8.08575 5.91418 7.75 5.5 7.75ZM5.5 7C5.77637 7 6 6.77637 6 6.5V2.5C6 2.22363 5.77637 2 5.5 2C5.22363 2 5 2.22363 5 2.5V6.5C5 6.77637 5.22363 7 5.5 7ZM5.5 0C2.46729 0 0 2.46729 0 5.5C0 8.53271 2.46729 11 5.5 11C8.53271 11 11 8.53271 11 5.5C11 2.46729 8.53271 0 5.5 0ZM5.5 10C3.01855 10 1 7.98145 1 5.5C1 3.01855 3.01855 1 5.5 1C7.98145 1 10 3.01855 10 5.5C10 7.98145 7.98145 10 5.5 10Z"/>
</svg>

