<svg width="12" height="12" viewBox="0 0 12 12" fill="none" xmlns="http://www.w3.org/2000/svg">
<g clip-path="url(#clip0_5955_651)">
<path d="M4.5 9C3.67285 9 3 8.32715 3 7.5C3 7.22363 2.77637 7 2.5 7C2.22363 7 2 7.22363 2 7.5C2 8.32715 1.32715 9 0.5 9C0.223633 9 0 9.22363 0 9.5C0 9.77637 0.223633 10 0.5 10C1.32715 10 2 10.6729 2 11.5C2 11.7764 2.22363 12 2.5 12C2.77637 12 3 11.7764 3 11.5C3 10.6729 3.67285 10 4.5 10C4.77637 10 5 9.77637 5 9.5C5 9.22363 4.77637 9 4.5 9ZM11.5 4C9.57031 4 8 2.42969 8 0.5C8 0.223633 7.77637 0 7.5 0C7.22363 0 7 0.223633 7 0.5C7 2.42969 5.42969 4 3.5 4C3.22363 4 3 4.22363 3 4.5C3 4.77637 3.22363 5 3.5 5C5.42969 5 7 6.57031 7 8.5C7 8.77637 7.22363 9 7.5 9C7.77637 9 8 8.77637 8 8.5C8 6.57031 9.57031 5 11.5 5C11.7764 5 12 4.77637 12 4.5C12 4.22363 11.7764 4 11.5 4Z" fill="#212121"/>
</g>
<defs>
<clipPath id="clip0_5955_651">
<rect width="12" height="12" fill="white"/>
</clipPath>
</defs>
</svg>
