<svg width="12" height="12" viewBox="0 0 12 12" fill="none" xmlns="http://www.w3.org/2000/svg">
<path d="M10.5 5.99998V3.49998C10.5 3.22361 10.2764 2.99998 10 2.99998H8.55261C9.10321 2.26085 9.15887 1.37089 8.64307 0.855938C8.05566 0.270489 6.98486 0.422832 6.20264 1.20359C6.12744 1.27891 6.06342 1.35887 6 1.43888C5.93646 1.35875 5.87219 1.27861 5.79688 1.20311C5.01611 0.422833 3.94482 0.27 3.35645 0.855938C2.84106 1.37089 2.89679 2.26085 3.44739 2.99998H2C1.72363 2.99998 1.5 3.22361 1.5 3.49998V5.99998C1.22363 5.99998 1 6.22361 1 6.49998C1 6.77635 1.22363 6.99998 1.5 6.99998V10.5C1.5 10.7763 1.72363 11 2 11H5.50018C5.50079 11.2759 5.724 11.499 6 11.499C6.276 11.499 6.49921 11.2759 6.49982 11H10C10.2764 11 10.5 10.7763 10.5 10.5V6.99998C10.7764 6.99998 11 6.77635 11 6.49998C11 6.22361 10.7764 5.99998 10.5 5.99998ZM4.06299 1.56395C4.19678 1.4282 4.67773 1.49852 5.08936 1.90965C5.50195 2.32322 5.57129 2.80125 5.43652 2.9365C5.2998 3.07029 4.82275 3.00145 4.41016 2.58982C3.99805 2.17625 3.92822 1.69871 4.06299 1.56395ZM5.5 9.99998H2.5V6.99998H5.5V9.99998ZM5.5 5.99998H2.5V3.99998H5.22772C5.22906 3.99998 5.23059 4.00047 5.23193 4.00047C5.23291 4.00047 5.2337 3.99998 5.23468 3.99998H5.5V5.99998ZM6.91016 1.91014C7.19922 1.62156 7.52002 1.50096 7.7334 1.50096C7.82471 1.50096 7.896 1.52342 7.93652 1.56395C8.07178 1.69871 8.00195 2.17625 7.58984 2.58982C7.17725 3.00145 6.69775 3.07029 6.56348 2.9365C6.42871 2.80125 6.49805 2.32322 6.91016 1.91014ZM9.5 9.99998H6.5V6.99998H9.5V9.99998ZM9.5 5.99998H6.5V3.99998H6.76532C6.7663 3.99998 6.76709 4.00047 6.76807 4.00047C6.76941 4.00047 6.77094 3.99998 6.77228 3.99998H9.5V5.99998Z" fill="#212121"/>
</svg>
