<svg width="12" height="12" viewBox="0 0 12 12" xmlns="http://www.w3.org/2000/svg">
<path d="M5.5 7.75C5.08582 7.75 4.75 8.08575 4.75 8.5C4.75 8.91418 5.08582 9.25 5.5 9.25C5.91418 9.25 6.25 8.91418 6.25 8.5C6.25 8.08575 5.91418 7.75 5.5 7.75ZM5.5 0C2.46729 0 0 2.46729 0 5.5C0 8.53271 2.46729 11 5.5 11C8.53271 11 11 8.53271 11 5.5C11 2.46729 8.53271 0 5.5 0ZM5.5 10C3.01855 10 1 7.98145 1 5.5C1 3.01855 3.01855 1 5.5 1C7.98145 1 10 3.01855 10 5.5C10 7.98145 7.98145 10 5.5 10ZM5.5 2C4.53369 2 3.84717 2.6875 3.55273 3.27637C3.4292 3.52344 3.5293 3.82373 3.77637 3.94727C4.02295 4.07031 4.32275 3.9707 4.44727 3.72363C4.58154 3.45508 4.95459 3 5.5 3C5.95605 3 6.5 3.17334 6.5 4C6.5 4.35986 6.28662 4.55664 5.90918 4.87354C5.50391 5.21338 5 5.63623 5 6.5C5 6.77637 5.22363 6.95996 5.5 6.95996C5.77637 6.95996 6 6.69629 6 6.41992C6 6.1167 6.18945 5.94385 6.55225 5.63916C6.95215 5.30322 7.5 4.84375 7.5 4C7.5 2.80371 6.69629 2 5.5 2Z"/>
</svg>

