<svg width="12" height="12" viewBox="0 0 12 12" fill="none" xmlns="http://www.w3.org/2000/svg">
<path d="M6 9.75C6.13806 9.75 6.25 9.63806 6.25 9.5C6.25 9.36194 6.13806 9.25 6 9.25C5.86194 9.25 5.75 9.36194 5.75 9.5C5.75 9.63806 5.86194 9.75 6 9.75ZM7.7417 1H4.2583C3.56445 1 3 1.58594 3 2.30615V9.72949C3 10.4424 3.55273 11 4.2583 11H7.7417C8.44727 11 9 10.4424 9 9.72949V2.28857C9 1.57812 8.43555 1 7.7417 1ZM8 9.72949C8 9.88379 7.88916 10 7.7417 10H4.2583C4.11084 10 4 9.88379 4 9.72949V9H8V9.72949ZM8 8H4V4H8V8ZM8 3H4V2.30615C4 2.14307 4.12061 2 4.2583 2H7.7417C7.88428 2 8 2.12939 8 2.28857V3Z" fill="#212121"/>
</svg>
