<svg width="16" height="16" viewBox="0 0 16 16" fill="none" xmlns="http://www.w3.org/2000/svg">
<rect width="16" height="16" rx="2" fill="white"/>
<path d="M1.40154 4.44H3.88554C5.23914 4.44 6.26874 4.7676 6.97434 5.4228C7.67994 6.078 8.03274 6.9924 8.03274 8.166C8.03274 9.3756 7.69434 10.3188 7.01754 10.9956C6.34074 11.6652 5.29674 12 3.88554 12H1.40154V4.44ZM4.02594 10.6932C4.81794 10.6932 5.40834 10.4664 5.79714 10.0128C6.18594 9.5592 6.38034 8.9472 6.38034 8.1768C6.38034 7.4352 6.17874 6.8448 5.77554 6.4056C5.37234 5.9664 4.78914 5.7468 4.02594 5.7468H3.03234V10.6932H4.02594ZM11.9424 12.1296C11.6544 12.1296 11.3664 12.1044 11.0784 12.054C10.7976 12.0108 10.524 11.9532 10.2576 11.8812C9.99842 11.802 9.75362 11.712 9.52322 11.6112C9.30002 11.5104 9.10202 11.406 8.92922 11.298L9.71762 10.0236C10.0344 10.218 10.3872 10.38 10.776 10.5096C11.1648 10.6392 11.55 10.704 11.9316 10.704C12.3348 10.704 12.6408 10.632 12.8496 10.488C13.0584 10.3368 13.1628 10.1352 13.1628 9.8832C13.1628 9.6456 13.062 9.4656 12.8604 9.3432C12.6588 9.2208 12.4068 9.1164 12.1044 9.03C11.802 8.9436 11.4744 8.8572 11.1216 8.7708C10.776 8.6772 10.452 8.5476 10.1496 8.382C9.84722 8.2092 9.59522 7.9824 9.39362 7.7016C9.19202 7.4136 9.09122 7.032 9.09122 6.5568C9.09122 6.2472 9.15242 5.9592 9.27482 5.6928C9.39722 5.4192 9.57722 5.1816 9.81482 4.98C10.0524 4.7712 10.3404 4.6092 10.6788 4.494C11.0244 4.3716 11.4168 4.3104 11.856 4.3104C12.3528 4.3104 12.8208 4.368 13.26 4.4832C13.6992 4.5912 14.1348 4.746 14.5668 4.9476L13.9728 6.222C13.6272 6.0564 13.2852 5.934 12.9468 5.8548C12.6084 5.7684 12.2736 5.7252 11.9424 5.7252C11.5752 5.7252 11.2908 5.8044 11.0892 5.9628C10.8876 6.114 10.7868 6.3048 10.7868 6.5352C10.7868 6.7656 10.8876 6.942 11.0892 7.0644C11.2908 7.1868 11.5428 7.2912 11.8452 7.3776C12.1476 7.464 12.4716 7.5504 12.8172 7.6368C13.17 7.7232 13.4976 7.8528 13.8 8.0256C14.1024 8.1912 14.3544 8.418 14.556 8.706C14.7576 8.994 14.8584 9.3792 14.8584 9.8616C14.8584 10.1784 14.7972 10.4736 14.6748 10.7472C14.5596 11.0208 14.3796 11.262 14.1348 11.4708C13.89 11.6724 13.584 11.8344 13.2168 11.9568C12.8568 12.072 12.432 12.1296 11.9424 12.1296Z" fill="#F00020"/>
</svg>
